<svg width="54" height="30" viewBox="0 0 54 30" fill="none" xmlns="http://www.w3.org/2000/svg">
<g clip-path="url(#clip0_93_5007)">
<path d="M53.6556 0H0.322266V30H53.6556V0Z" fill="#FF0000"/>
<path fill-rule="evenodd" clip-rule="evenodd" d="M28.125 22.6699C27.8611 22.4421 27.5416 21.9782 27.5472 21.5338C27.5694 21.2005 27.8 21.0088 27.9472 21.4143C28.1555 21.8616 28.6027 22.6032 29.2194 22.1699C29.4888 21.9727 29.4833 21.681 29.1166 21.7143C28.6611 21.6838 28.3805 21.4338 28.1777 20.7866C28.1416 20.431 28.2888 20.4393 28.4944 20.6699C28.7583 20.9727 29.2861 21.4338 29.8666 21.1866C30.1888 21.0505 30.2805 20.7727 29.7916 20.7032C29.3305 20.7088 28.9527 20.4116 28.5777 19.9532C28.3722 19.7005 28.675 19.4449 28.8583 19.6616C29.0222 19.8005 29.25 20.0588 29.4444 20.0949C29.6694 20.1393 29.95 20.1171 30.2611 19.9532C30.5944 19.6727 30.4861 19.4727 30.0805 19.4255C29.7666 19.4421 29.5944 19.5616 29.1888 19.2893C28.4583 18.7977 27.8805 18.1393 27.7888 17.3449C27.7305 16.8227 28.0083 16.6671 28.2416 16.7255C28.875 16.8893 29.2888 18.0727 29.7277 18.7227C29.8722 18.9088 30.0027 18.9143 30.0972 18.856C30.2722 18.706 30.4138 18.581 30.5888 18.4116C30.5888 18.4116 31.8777 18.6421 32.5805 18.8727L31.8 19.1505C31.5027 18.9866 31.1472 19.1643 31.1472 19.4477C30.8666 19.6421 30.8888 19.8671 31.0111 20.0866C31.0472 19.9338 31.0805 19.7366 31.3 19.7088C31.6166 19.8393 31.9833 19.6532 31.9833 19.406L32.9055 19.0449L33.8361 19.5727C33.8361 19.9282 34.175 20.0421 34.525 19.9449C34.6916 20.0477 34.7972 20.2255 34.8527 20.4171C34.9555 20.1421 34.9361 19.9477 34.7722 19.8116C34.8666 19.456 34.3666 19.1143 33.9805 19.3421L33.3111 18.956L34.4583 18.9227C34.5916 19.1588 35.0722 19.1727 35.2138 18.9227C35.3333 18.8893 35.4361 18.8699 35.6694 19.0421C35.5944 18.7616 35.4527 18.6393 35.2361 18.6393C35.0722 18.3505 34.4805 18.3505 34.3944 18.6782L33.2 18.7116L33.9083 18.206C34.1722 18.3616 34.5444 18.1893 34.6194 17.906C34.725 17.781 34.8555 17.7227 35.1111 17.806C34.9777 17.5727 34.7944 17.5032 34.4583 17.6616C34.1527 17.4282 33.7472 17.7116 33.8083 17.9449L32.8638 18.5866C32.1805 18.381 30.9388 18.0643 30.9388 18.0643C31.0861 17.9088 31.2361 17.7643 31.3833 17.606C31.4361 17.5143 31.3555 17.406 31.2416 17.3838C30.1361 17.156 29.5027 16.7088 29.1166 15.5755C28.9555 15.1005 29.3027 14.9588 29.4222 15.2505C29.5861 15.6532 29.7694 16.0949 30.2666 16.4366C30.4388 16.556 30.9472 16.4588 30.6472 16.1727C30.3361 15.9143 30.2 15.8032 30.0472 15.1782C30.0472 14.8616 30.3694 14.7199 30.55 15.0227C30.7416 15.6449 30.7638 15.9143 31.1111 16.3171C31.375 16.6199 31.7194 16.8255 31.8916 16.8199C32.2 16.8143 32.5111 16.4838 32.0972 16.2421C31.4916 16.0005 31.2694 15.6699 31.1805 15.356C31.0833 14.806 31.1888 14.5393 31.5222 14.8116C31.9916 15.3449 32.8916 16.3421 33.3611 16.806C33.8888 17.2088 34.4944 17.2227 34.975 16.8116C35.25 16.4949 35.1527 16.1532 34.7222 16.2255C33.7472 16.3088 33.0111 15.8227 32.2027 14.5171C32.0444 14.2227 32 13.7977 32.35 14.1143C32.7527 14.6588 33.3416 15.1227 33.8888 15.3227C34.4388 15.5199 34.8916 15.4116 35.0666 15.2393C35.2777 15.0282 35.2222 14.4949 34.8555 14.6227C34.5527 14.7282 34.1277 14.756 33.6861 14.5838C33.2444 14.4116 32.7833 14.0393 32.2944 13.406C32.1277 13.0477 32.1805 12.7477 32.5194 12.931C33.3194 13.6088 34.3527 14.1588 34.8805 13.8282C35.2694 13.5866 35.275 12.9643 34.7833 13.006C33.7916 13.1421 33.4166 12.9227 32.4638 12.081C32.2472 11.9199 32.2611 11.5088 32.6083 11.7699C33.4083 12.2866 34.5027 12.4893 34.9305 12.2171C35.3166 11.9755 35.2611 11.2366 34.6083 11.4977C34.0888 11.8143 33.5138 11.806 32.3611 10.9838C32.0694 10.7421 32.2861 10.4255 32.525 10.5616C33.4527 11.0893 34.8 11.3171 35.1527 10.2421C35.2888 9.83101 35.0416 9.59212 34.6805 9.87545C33.8833 10.6116 32.9805 10.2505 32.4777 9.88101C32.3333 9.7949 32.0666 9.36434 32.5333 9.4449C33.7388 9.7199 34.9333 9.48101 35.15 8.62545C35.275 8.34767 35.0277 7.85879 34.5888 8.26712C34.0111 8.83934 33.3944 8.85879 32.6222 8.85601C32.2305 8.77267 32.225 8.34212 32.5555 8.27823C33.1638 8.29212 33.7666 8.02545 34.2472 7.75323C34.7166 7.48379 35.1083 7.10323 35.2333 6.57823C35.3083 6.10879 34.8555 5.60879 34.5833 6.10879C34.1805 6.83934 33.2861 7.52545 32.2916 7.65045C32.2388 7.56434 32.1083 7.34212 31.95 7.40323C31.6583 7.51712 31.3111 7.66712 30.9527 7.83656C30.1805 8.20323 29.8583 8.37823 29.9527 9.01156C30.05 9.67267 29.5388 10.0893 29.1194 9.97545C28.7527 9.87545 28.55 9.5449 28.6166 8.9699C28.6694 8.51156 29.1277 7.95879 29.6472 7.66712C29.9833 7.47823 30.4888 7.37545 31.0972 7.24212C31.4694 7.1699 31.6583 7.02545 31.6777 6.87267C31.6777 6.87267 31.425 7.05879 31.0194 7.03101C30.8277 7.01712 30.7 6.93379 30.65 6.84767C30.7916 6.8199 31.0472 6.85323 31.2777 6.85323C31.5833 6.85045 32.2944 6.78101 32.4805 6.35045C32.5388 6.06712 32.3527 6.01434 32.1777 6.19767C31.9916 6.3949 31.9138 6.5699 31.5388 6.63656C31.3111 6.67545 31.0833 6.72267 30.7916 6.65323C30.9555 6.45601 31.2194 6.25601 31.4416 6.2949C31.5138 6.30601 31.6138 6.37545 31.6916 6.49767C31.7388 6.18656 31.6555 5.83656 30.825 5.98379C30.8388 5.74767 30.3444 5.64767 30.0472 5.65045C29.8777 5.65601 29.5333 5.75601 29.2833 5.87545C28.8888 5.99767 28.4972 6.08656 28.0388 6.1199C28.3055 6.34767 28.3555 6.36156 28.6222 6.55323C28.2194 6.70323 27.9055 7.01434 27.7666 7.2199C27.7666 7.2199 28.2361 7.20601 28.3555 7.25879C27.8638 7.40323 27.6416 7.48934 27.3805 7.75601C27.4722 7.77267 27.6083 7.79767 27.6666 7.8199C27.7277 7.84212 27.7111 7.88101 27.6611 7.9199C27.5555 8.00045 27.1166 8.51156 26.9888 8.63101C26.8611 8.50879 26.4222 8.00045 26.3166 7.9199C26.2666 7.88101 26.2527 7.84212 26.3111 7.8199C26.3694 7.79767 26.5055 7.7699 26.5972 7.75601C26.3361 7.48934 26.1166 7.40323 25.6222 7.25879C25.7416 7.20601 26.2111 7.2199 26.2111 7.2199C26.0694 7.01434 25.7583 6.70601 25.3555 6.55323C25.6222 6.36156 25.6722 6.34767 25.9388 6.11712C25.4777 6.08379 25.0888 5.9949 24.6944 5.87267C24.4444 5.75323 24.1 5.65323 23.9305 5.64767C23.6333 5.64212 23.1388 5.7449 23.1527 5.98101C22.3222 5.83379 22.2361 6.18656 22.2861 6.4949C22.3638 6.37267 22.4611 6.30601 22.5361 6.29212C22.7611 6.25601 23.0222 6.45601 23.1861 6.65045C22.8944 6.72267 22.6666 6.67545 22.4388 6.63379C22.0638 6.56712 21.9888 6.39212 21.8 6.1949C21.625 6.01434 21.4388 6.06434 21.4972 6.34767C21.6861 6.77823 22.3944 6.84767 22.7 6.84767C22.9305 6.84767 23.1861 6.81434 23.3277 6.84212C23.2805 6.92823 23.15 7.01156 22.9583 7.02545C22.5527 7.05323 22.3 6.86712 22.3 6.86712C22.3222 7.01712 22.5111 7.16156 22.8805 7.23656C23.4888 7.37267 23.9972 7.47545 24.3305 7.66156C24.85 7.95323 25.3083 8.50601 25.3611 8.96434C25.4277 9.53934 25.225 9.8699 24.8583 9.9699C24.4388 10.0866 23.9277 9.66712 24.025 9.00601C24.1166 8.37267 23.7972 8.19767 23.025 7.83101C22.6666 7.66156 22.3194 7.50879 22.0277 7.39767C21.8666 7.33656 21.7361 7.55601 21.6861 7.6449C20.6916 7.5199 19.7972 6.83379 19.3944 6.10323C19.1222 5.60323 18.6666 6.10323 18.7444 6.57267C18.8694 7.09767 19.2583 7.47823 19.7305 7.74767C20.2111 8.01712 20.8138 8.28379 21.4222 8.27267C21.7527 8.33656 21.7472 8.7699 21.3555 8.85045C20.5833 8.85601 19.9694 8.83379 19.3888 8.26156C18.9472 7.85045 18.7 8.34212 18.8277 8.6199C19.0444 9.47267 20.2388 9.71434 21.4444 9.43934C21.9111 9.35879 21.6444 9.79212 21.5 9.87545C20.9944 10.2449 20.0916 10.6088 19.2972 9.8699C18.9361 9.58656 18.6888 9.82545 18.825 10.2366C19.175 11.3116 20.525 11.0838 21.4527 10.556C21.6916 10.4199 21.9083 10.7366 21.6166 10.9782C20.4638 11.8005 19.8888 11.8088 19.3694 11.4921C18.7194 11.231 18.6611 11.9699 19.0472 12.2116C19.4777 12.481 20.5694 12.281 21.3694 11.7643C21.7138 11.5032 21.7305 11.9116 21.5138 12.0755C20.5611 12.9171 20.1861 13.1366 19.1944 13.0005C18.7027 12.9616 18.7083 13.581 19.0972 13.8227C19.625 14.1532 20.6555 13.6032 21.4583 12.9255C21.7972 12.7421 21.85 13.0421 21.6833 13.4005C21.1944 14.0338 20.7361 14.406 20.2916 14.5782C19.85 14.7505 19.425 14.7227 19.1222 14.6171C18.7555 14.4893 18.7 15.0227 18.9111 15.2338C19.0861 15.406 19.5388 15.5143 20.0888 15.3171C20.6361 15.1171 21.225 14.6532 21.6277 14.1088C21.9777 13.7949 21.9333 14.2171 21.775 14.5116C20.9666 15.8171 20.2277 16.3032 19.2555 16.2199C18.825 16.1477 18.725 16.4893 19.0027 16.806C19.4833 17.2171 20.0888 17.2032 20.6166 16.8005C21.0861 16.3366 21.9861 15.3393 22.4555 14.806C22.7861 14.5366 22.8944 14.8005 22.7972 15.3505C22.7083 15.6643 22.4861 15.9949 21.8805 16.2366C21.4694 16.4782 21.7777 16.8116 22.0861 16.8143C22.2583 16.8199 22.6027 16.6143 22.8666 16.3116C23.2166 15.9088 23.2361 15.6421 23.4277 15.0171C23.6083 14.7143 23.9305 14.856 23.9305 15.1727C23.7777 15.7977 23.6416 15.9088 23.3305 16.1671C23.0277 16.4532 23.5388 16.5505 23.7111 16.431C24.2083 16.0893 24.3888 15.6477 24.5555 15.2449C24.675 14.9532 25.0222 15.0977 24.8611 15.5699C24.4777 16.7032 23.8444 17.1505 22.7361 17.3782C22.6222 17.4005 22.5416 17.5088 22.5944 17.6005C22.7416 17.7588 22.8916 17.9032 23.0388 18.0588C23.0388 18.0588 21.8 18.3782 21.1138 18.581L20.1694 17.9393C20.2305 17.706 19.8277 17.4227 19.5194 17.656C19.1833 17.4977 18.9972 17.5671 18.8666 17.8005C19.1222 17.7143 19.2527 17.7755 19.3583 17.9005C19.4333 18.1838 19.8027 18.3588 20.0694 18.2005L20.7777 18.706L19.5833 18.6727C19.4972 18.3477 18.9055 18.3449 18.7416 18.6338C18.5277 18.6338 18.3833 18.7532 18.3083 19.0366C18.5416 18.8616 18.6444 18.8838 18.7638 18.9171C18.9055 19.1671 19.3861 19.1532 19.5194 18.9171L20.6666 18.9505L19.9972 19.3366C19.6111 19.1088 19.1138 19.4505 19.2055 19.806C19.0444 19.9421 19.0222 20.1366 19.125 20.4116C19.1805 20.2199 19.2888 20.0421 19.4527 19.9393C19.8055 20.0366 20.1416 19.9227 20.1416 19.5671L21.0722 19.0393L21.9944 19.4005C21.9944 19.6477 22.3611 19.8338 22.6777 19.7032C22.9 19.7282 22.9305 19.9282 22.9666 20.081C23.0888 19.8616 23.1111 19.6338 22.8305 19.4421C22.8305 19.1588 22.4722 18.981 22.1777 19.1449L21.3972 18.8671C22.1 18.6393 23.3888 18.406 23.3888 18.406C23.5638 18.5755 23.7055 18.6977 23.8805 18.8505C23.975 18.9088 24.1055 18.906 24.25 18.7171C24.6888 18.0671 25.1027 16.8838 25.7361 16.7199C25.9694 16.6588 26.25 16.8171 26.1888 17.3393C26.0972 18.131 25.5194 18.7893 24.7888 19.2838C24.3833 19.5532 24.2111 19.4338 23.8972 19.4199C23.4916 19.4671 23.3833 19.6671 23.7166 19.9477C24.0277 20.1116 24.3055 20.1338 24.5333 20.0893C24.7277 20.0532 24.9555 19.7977 25.1194 19.656C25.3027 19.4421 25.6055 19.6949 25.4 19.9477C25.025 20.406 24.6472 20.7032 24.1861 20.6977C23.6972 20.7671 23.7888 21.0449 24.1111 21.181C24.6916 21.4282 25.2194 20.9671 25.4833 20.6643C25.6888 20.4366 25.8361 20.4282 25.8 20.781C25.5972 21.4255 25.3166 21.6782 24.8611 21.7088C24.4916 21.6755 24.4888 21.9671 24.7583 22.1643C25.375 22.6005 25.8222 21.8588 26.0305 21.4088C26.1777 21.0032 26.4055 21.1949 26.4305 21.5282C26.4361 21.9755 26.1166 22.4366 25.8527 22.6643C25.5888 22.8921 26.9888 24.3449 26.9888 24.3449C26.9888 24.3449 28.3888 22.8977 28.125 22.6699ZM30 6.21434C29.7833 6.21434 29.6472 6.28934 29.6472 6.38379C29.6472 6.47823 29.7805 6.55323 30 6.55323C30.2166 6.55323 30.3527 6.4699 30.3527 6.37545C30.3555 6.28379 30.2166 6.21434 30 6.21434ZM23.9777 6.21434C24.1944 6.21434 24.3305 6.28934 24.3305 6.38379C24.3305 6.47823 24.1972 6.55323 23.9777 6.55323C23.7611 6.55323 23.625 6.4699 23.625 6.37545C23.6222 6.28379 23.7611 6.21434 23.9777 6.21434Z" fill="black"/>
</g>
<defs>
<clipPath id="clip0_93_5007">
<rect width="53.3333" height="30" fill="white" transform="translate(0.322266)"/>
</clipPath>
</defs>
</svg>
