<svg width="54" height="30" viewBox="0 0 54 30" fill="none" xmlns="http://www.w3.org/2000/svg">
<g clip-path="url(#clip0_93_11465)">
<path d="M-0.126221 -0.436134H54.7543V30.4333H-0.126221V-0.436134Z" fill="white"/>
<path d="M-0.126221 -0.436134H27.3154V30.4333H-0.126221V-0.436134Z" fill="#006233"/>
<path d="M34.0054 11.1416C31.8748 7.44994 27.1554 6.18605 23.4637 8.31661C19.772 10.4472 18.5053 15.1666 20.6387 18.8583C22.772 22.5499 27.4887 23.8138 31.1804 21.6833C32.3526 21.0055 33.3276 20.0305 34.0054 18.8583C31.8748 21.5194 27.9887 21.9499 25.3276 19.8194C22.6665 17.6888 22.2359 13.8027 24.3665 11.1416C26.497 8.4805 30.3831 8.04994 33.0442 10.1805C33.3998 10.4638 33.722 10.7861 34.0054 11.1416ZM34.2637 14.9999L27.3165 12.7361L31.6387 18.6527V11.3472L27.3165 17.2638L34.2637 14.9999Z" fill="#D21034"/>
</g>
<defs>
<clipPath id="clip0_93_11465">
<rect width="53.3333" height="30" fill="white" transform="translate(0.649414)"/>
</clipPath>
</defs>
</svg>
