<svg width="54" height="30" viewBox="0 0 54 30" fill="none" xmlns="http://www.w3.org/2000/svg">
<g clip-path="url(#clip0_93_11469)">
<path d="M0.666016 0H53.9993V30H0.666016V0Z" fill="black"/>
<path d="M0.666016 0H53.9993V15H0.666016V0Z" fill="#CC092F"/>
<path fill-rule="evenodd" clip-rule="evenodd" d="M24.3745 10.2889H26.2078L26.7634 8.56115L27.3328 10.2889H29.1662L27.694 11.3861L28.2634 13.1417L26.7634 12.075L25.2773 13.1417L25.8467 11.3861L24.3745 10.2889Z" fill="#FFCB00"/>
<path fill-rule="evenodd" clip-rule="evenodd" d="M31.0719 19.736L29.6303 18.6083C31.0858 17.4221 32.0331 15.6055 32.0331 13.5777C32.0331 10.4833 29.8247 7.88603 26.9136 7.27214L27.1386 6.22214C27.5442 6.31103 28.0192 6.48325 28.4108 6.61659L28.7858 5.98603C29.1914 6.18048 29.6414 6.37492 30.0164 6.61659L29.7303 7.29159C30.1053 7.53325 30.5581 7.90548 30.8108 8.19714L31.3747 7.75548C31.6747 8.08603 32.0358 8.43047 32.2914 8.79159L31.7803 9.31659C32.1108 9.79992 32.2386 10.0221 32.4803 10.5805L33.1969 10.4138C33.3331 10.8333 33.5386 11.3499 33.6136 11.7833L32.9358 12.0499C33.0164 12.3888 33.1219 12.9805 33.1136 13.4749C33.1136 13.5055 33.1108 13.5388 33.1108 13.5694L33.8192 13.6694C33.7886 14.1055 33.7747 14.5999 33.6831 15.036H32.9469C32.8414 15.486 32.7053 16.036 32.5414 16.4583L33.1581 16.8194C32.9636 17.2083 32.7692 17.6749 32.5136 18.0499L31.8386 17.7638C31.5831 18.1388 31.297 18.4999 30.9831 18.8305L31.4192 19.3999C31.2997 19.511 31.1942 19.6138 31.0719 19.736ZM27.9053 19.5999L28.9942 20.2555C28.8914 20.3471 28.5886 20.5055 28.5081 20.5388L28.6858 21.2221C28.2664 21.3583 27.8136 21.5527 27.3497 21.6416L27.0803 20.9666C26.6442 21.0555 26.2108 21.1166 25.7581 21.1166L25.6664 21.8221C25.247 21.7916 24.7358 21.8221 24.2692 21.7166V21.011C23.8497 20.936 23.4442 20.8305 23.0525 20.6944L22.7081 21.311C22.347 21.161 21.8664 20.9805 21.4775 20.7416L21.7331 20.0666C21.4164 19.8999 21.1331 19.6916 20.8608 19.4805L21.5358 18.6249C22.647 19.511 24.0442 20.036 25.5747 20.036C26.3886 20.036 27.1831 19.8999 27.9053 19.5999Z" fill="#FFCB00"/>
<path fill-rule="evenodd" clip-rule="evenodd" d="M32.4407 21.3417L25.2546 15.8723L25.1879 15.9667L32.3546 21.4445L31.9296 21.9778L24.9462 17.4945C23.0546 16.3084 23.1296 15.3778 23.5185 14.3723L23.849 13.5611C24.0296 14.6112 25.1101 15.4084 26.2351 16.2945L32.5824 21.1667L32.4407 21.3417ZM34.2462 22.9695C34.1851 22.9695 34.1351 22.9195 34.1351 22.8584C34.1351 22.7973 34.1851 22.7473 34.2462 22.7473C34.3074 22.7473 34.3574 22.7973 34.3574 22.8584C34.3574 22.9195 34.3074 22.9695 34.2462 22.9695ZM33.8157 22.6556C33.7546 22.6556 33.7046 22.6056 33.7046 22.5445C33.7046 22.4834 33.7546 22.4334 33.8157 22.4334C33.8768 22.4334 33.9268 22.4834 33.9268 22.5445C33.9268 22.6056 33.8796 22.6556 33.8157 22.6556ZM33.3768 22.3056C33.3157 22.3056 33.2657 22.2556 33.2657 22.1945C33.2685 22.1334 33.3185 22.0834 33.3796 22.0862C33.4379 22.0889 33.4851 22.1362 33.4879 22.1945C33.4879 22.2556 33.4379 22.3056 33.3768 22.3056ZM34.8546 22.925L32.7018 21.2556L32.0768 22.0612L33.9462 23.3723C34.0962 23.4778 34.1101 23.9584 34.6657 24.0334C34.8907 24.0639 35.0407 23.8973 35.0407 23.8973C35.2851 23.6056 35.2185 23.2 34.8546 22.925Z" fill="#FFCB00"/>
</g>
<defs>
<clipPath id="clip0_93_11469">
<rect width="53.3333" height="30" fill="white" transform="translate(0.666016)"/>
</clipPath>
</defs>
</svg>
