<svg width="54" height="30" viewBox="0 0 54 30" fill="none" xmlns="http://www.w3.org/2000/svg">
<g clip-path="url(#clip0_93_20039)">
<path d="M54.1608 0H0.724609V30H54.1608V0Z" fill="#012169"/>
<path d="M0.724609 -0.436279L27.4413 12.9221L0.724609 -0.436279ZM27.4413 -0.436279L0.724609 12.9221L27.4413 -0.436279Z" fill="black"/>
<path d="M26.8463 14.1166L14.0824 7.73605L1.32128 14.1166L0.126831 11.7277L11.0963 6.24161L0.126831 0.758274L1.32128 -1.63062L14.0824 4.74994L26.8463 -1.63062L28.038 0.758274L17.0713 6.24161L28.038 11.7277L26.8463 14.1166Z" fill="white"/>
<path d="M0.724609 -0.436279L27.4413 12.9221L0.724609 -0.436279ZM27.4413 -0.436279L0.724609 12.9221L27.4413 -0.436279Z" fill="black"/>
<path d="M27.0465 13.7196L14.0826 7.24185L1.12147 13.7196L0.327026 12.1252L12.0937 6.24185L0.327026 0.36129L1.12147 -1.23315L14.0826 5.24462L27.0465 -1.23315L27.8381 0.36129L16.0742 6.24185L27.8381 12.1252L27.0465 13.7196Z" fill="#C8102E"/>
<path d="M14.0829 -0.436279V15.1498V-0.436279ZM0.724609 6.2415H31.8941H0.724609Z" fill="black"/>
<path d="M16.3107 15.1498H11.8579V8.46928H0.724609V4.0165H11.8579V-0.436279H16.3107V4.0165H31.8941V8.46928H16.3107V15.1498Z" fill="white"/>
<path d="M14.0829 -0.436279V15.1498V-0.436279ZM0.724609 6.2415H31.8941H0.724609Z" fill="black"/>
<path d="M15.4191 15.1498H12.7468V7.57761H0.724609V4.90816H12.7468V-0.436279H15.4191V4.90816H31.8941V7.57761H15.4191V15.1498Z" fill="#C8102E"/>
<path d="M0.724609 12.9221H27.4413V-0.436279H36.3468V17.3748H0.724609V12.9221Z" fill="#012169"/>
<path d="M35.4855 8.49989C35.4855 15.1249 36.016 17.4804 37.8271 19.2971C39.6383 21.1138 40.3299 21.3999 40.8327 21.6804C41.416 21.361 42.0883 21.0082 43.7327 19.361C45.3577 17.736 46.1466 15.3943 46.1466 8.38322C44.9633 8.89156 44.3744 9.05545 43.341 9.05545C42.5744 9.13045 41.3938 8.64156 40.6883 8.31934C40.2244 8.61378 39.5577 8.96378 38.3494 9.00545C36.9577 9.06378 36.516 8.836 35.4855 8.49989Z" fill="#CCCC33"/>
<path d="M35.8049 8.91675C35.8049 10.964 35.6854 13.7612 36.116 15.3779C36.5521 17.0029 36.6493 17.239 36.9799 17.8056L44.6021 17.7473C45.0743 16.9334 45.0965 16.4251 45.4493 15.1251C45.7965 13.8251 45.8854 10.9306 45.8938 8.77509C45.1271 9.1612 44.1215 9.43898 43.1521 9.31953C42.3715 9.2612 41.6465 9.09175 40.8104 8.63898C40.0799 9.05842 39.8271 9.24453 38.6243 9.29453C37.6799 9.34175 36.9188 9.4112 35.8049 8.91675Z" fill="white"/>
<path d="M36.9937 17.7668C37.5381 18.8529 40.0937 20.9418 40.8409 21.3723C41.6964 20.8779 43.9492 18.8168 44.5825 17.7668H36.9937Z" fill="#99CCFF"/>
<path d="M40.988 11.9556C41.2297 12.4945 42.0019 13.0917 42.213 13.3861C41.9408 13.6806 41.888 13.65 41.9241 14.1917C42.3963 13.725 42.4019 13.675 42.7047 13.7472C43.3685 14.3806 42.8241 15.7333 42.2769 16.0278C41.7297 16.3445 41.8269 16.0195 41.0074 16.4111C41.3824 16.7195 41.8185 16.3667 42.1741 16.4611C42.3658 16.6806 42.0797 17.0806 42.2324 17.4528C42.5491 17.425 42.5074 16.8167 42.5852 16.5972C42.8158 15.7917 44.1963 15.2306 44.2685 14.4917C44.5574 14.3639 44.8519 14.4528 45.2074 14.6389C45.0297 13.95 44.4463 13.9528 44.2908 13.7389C43.9158 13.1945 43.588 12.5778 42.7908 12.4167C42.1852 12.2972 42.2297 12.4528 41.8463 12.2028C41.6019 12.0167 40.8713 11.6778 40.988 11.9556Z" fill="#FF9900"/>
<path d="M39.0551 14.2471C39.4412 13.7916 39.6385 12.861 39.8079 12.5471C40.2051 12.6416 40.1996 12.6999 40.6885 12.4138C40.0329 12.236 39.9857 12.2527 39.9079 11.9638C40.1829 11.1082 41.694 10.936 42.2246 11.261C42.7718 11.5777 42.4246 11.6443 43.1718 12.1527C43.2773 11.6943 42.7496 11.4888 42.6718 11.1471C42.7829 10.8804 43.2857 10.9388 43.5662 10.636C43.3912 10.3832 42.8496 10.6971 42.6079 10.7388C41.7523 10.9221 40.5857 10.0166 39.869 10.3027C39.6107 10.1193 39.5579 9.83045 39.5718 9.44434C39.0107 9.91656 39.2912 10.4054 39.1662 10.6388C38.8357 11.2054 38.419 11.7749 38.6412 12.5166C38.8107 13.0832 38.9357 12.9721 38.8829 13.4166C38.8273 13.6999 38.8607 14.4749 39.0551 14.2471Z" fill="#FF9900"/>
<path d="M42.2161 14.5695C41.605 14.4889 40.6716 14.8139 40.2966 14.8362C40.1716 14.4667 40.23 14.4362 39.7216 14.1862C39.8994 14.8139 39.9411 14.8445 39.7216 15.0556C38.8133 15.275 37.8772 14.1306 37.8966 13.5334C37.8966 12.9223 38.1383 13.1723 38.205 12.3C37.7383 12.4528 37.8272 12.9862 37.5605 13.2306C37.2633 13.275 37.0522 12.8389 36.6383 12.7667C36.4994 13.0389 37.0661 13.3195 37.2272 13.4917C37.8327 14.0917 37.6244 15.5139 38.2522 15.95C38.2216 16.2584 37.9883 16.45 37.6383 16.6389C38.3494 16.8528 38.6438 16.3723 38.9216 16.3528C39.6022 16.325 40.33 16.375 40.88 15.8084C41.3022 15.3778 41.1327 15.3306 41.5605 15.1445C41.8439 15.0389 42.5244 14.6139 42.2161 14.5695Z" fill="#FF9900"/>
<path d="M42.5995 12.6888C42.6685 12.6888 42.7245 12.6354 42.7245 12.5694C42.7245 12.5034 42.6685 12.45 42.5995 12.45C42.5305 12.45 42.4745 12.5034 42.4745 12.5694C42.4745 12.6354 42.5305 12.6888 42.5995 12.6888Z" fill="white"/>
<path d="M38.8715 12.7196C38.9405 12.7196 38.9965 12.6661 38.9965 12.6002C38.9965 12.5342 38.9405 12.4807 38.8715 12.4807C38.8024 12.4807 38.7465 12.5342 38.7465 12.6002C38.7465 12.6661 38.8024 12.7196 38.8715 12.7196Z" fill="white"/>
<path d="M40.8325 15.6889C40.9016 15.6889 40.9575 15.6354 40.9575 15.5694C40.9575 15.5035 40.9016 15.45 40.8325 15.45C40.7635 15.45 40.7075 15.5035 40.7075 15.5694C40.7075 15.6354 40.7635 15.6889 40.8325 15.6889Z" fill="white"/>
</g>
<defs>
<clipPath id="clip0_93_20039">
<rect width="53.3333" height="30" fill="white" transform="translate(0.663086)"/>
</clipPath>
</defs>
</svg>
