<svg width="54" height="30" viewBox="0 0 54 30" fill="none" xmlns="http://www.w3.org/2000/svg">
<g clip-path="url(#clip0_93_20060)">
<path d="M0.661133 0H53.9945V30H0.661133V0Z" fill="white"/>
<path d="M0.661133 0H53.9945V15H0.661133V0Z" fill="black"/>
<path d="M17.5444 11.7389L27.3278 9.86664V13.6111L17.5444 11.7389Z" fill="#FCD116"/>
<path d="M18.2888 7.99432L28.0444 10.0082L26.6082 13.4638L18.2888 7.99432Z" fill="#FCD116"/>
<path d="M20.4084 4.81934L28.6529 10.4138L26.0057 13.061L20.4084 4.81934Z" fill="#FCD116"/>
<path d="M23.5834 2.69989L29.0556 11.0221L25.6 12.4582L23.5834 2.69989Z" fill="#FCD116"/>
<path d="M27.3278 1.95551L29.2 11.7388H25.4556L27.3278 1.95551Z" fill="#FCD116"/>
<path d="M31.0725 2.69989L29.0586 12.4554L25.603 11.0193L31.0725 2.69989Z" fill="#FCD116"/>
<path d="M34.2469 4.81934L28.6525 13.0638L26.0052 10.4166L34.2469 4.81934Z" fill="#FCD116"/>
<path d="M36.3669 7.99432L28.0446 13.4665L26.6085 10.011L36.3669 7.99432Z" fill="#FCD116"/>
<path d="M37.1111 11.7389L27.3278 13.6111V9.86664L37.1111 11.7389Z" fill="#FCD116"/>
<path d="M0.661133 11.7388H53.9945V18.2611H0.661133V11.7388Z" fill="#0072C6"/>
<path d="M0.661133 0V30H53.9945V0L27.3278 30L0.661133 0Z" fill="#CE1126"/>
</g>
<defs>
<clipPath id="clip0_93_20060">
<rect width="53.3333" height="30" fill="white" transform="translate(0.661133)"/>
</clipPath>
</defs>
</svg>
