<svg width="55" height="30" viewBox="0 0 55 30" fill="none" xmlns="http://www.w3.org/2000/svg">
<g clip-path="url(#clip0_93_20074)">
<path d="M54.3265 0H0.993164V30H54.3265V0Z" fill="#74ACDF"/>
<path d="M54.3265 10.0028H0.993164V20.0056H54.3265V10.0028Z" fill="white"/>
<path d="M27.4679 15.0779L29.179 18.7973C29.179 18.7973 29.2096 18.8695 29.2568 18.8501C29.304 18.8334 29.2735 18.7612 29.2735 18.7612L27.8512 14.9223L27.4679 15.0779ZM27.8096 16.3667C27.7929 16.9306 28.1401 17.2417 28.0929 17.7473C28.0457 18.2501 28.3262 18.539 28.3873 18.7362C28.454 18.9334 28.3151 19.0473 28.3762 19.0779C28.4373 19.1084 28.5623 18.9529 28.5207 18.6695C28.479 18.3862 28.2679 18.3084 28.3179 17.6917C28.3651 17.0751 28.0651 16.9306 28.1373 16.3667" fill="#F6B40E"/>
<path d="M28.394 19.1166C28.3829 19.1166 28.369 19.1111 28.3634 19.1111C28.3162 19.0861 28.3329 19.0333 28.3468 18.9916C28.3634 18.9305 28.394 18.8527 28.3579 18.7527C28.3412 18.7055 28.3106 18.6444 28.2745 18.5777C28.1718 18.3916 28.0273 18.1333 28.0634 17.75C28.0884 17.5027 28.0106 17.3055 27.9301 17.0972C27.8523 16.8805 27.769 16.6583 27.7801 16.3722H27.8468C27.8356 16.6472 27.919 16.8638 27.9968 17.075C28.0801 17.2916 28.1523 17.5 28.1301 17.7583C28.0995 18.1194 28.2329 18.3638 28.3329 18.5444C28.369 18.6166 28.4051 18.6777 28.4218 18.7305C28.4634 18.8555 28.4273 18.9527 28.4106 19.0138C28.4051 19.025 28.3995 19.0444 28.3995 19.0555C28.4051 19.0555 28.4106 19.05 28.4162 19.0444C28.4579 19.0083 28.519 18.8888 28.4884 18.6916C28.4773 18.6027 28.4468 18.5361 28.4051 18.4583C28.3329 18.3027 28.2495 18.1222 28.2856 17.7083C28.3106 17.4083 28.2495 17.2222 28.1884 17.0416C28.1356 16.8861 28.0856 16.7361 28.0912 16.525L27.444 15.1083L27.5051 15.0777L28.1051 16.3861V16.3805L28.1718 16.3861C28.1662 16.4277 28.1662 16.4694 28.1606 16.5055L29.2107 18.7916C29.2162 18.7972 29.2273 18.8333 29.2468 18.8277C29.2523 18.8277 29.2523 18.8277 29.2523 18.8222C29.2579 18.8111 29.2523 18.7861 29.2468 18.7805L27.8245 14.9416L27.8856 14.9166L29.3079 18.7555C29.3079 18.7611 29.3245 18.8083 29.3134 18.8444C29.3079 18.8611 29.2884 18.875 29.2718 18.8861C29.2412 18.8972 29.2051 18.8916 29.1745 18.8555C29.1579 18.8388 29.1495 18.8138 29.1495 18.8138L28.1662 16.6777C28.1773 16.7972 28.2134 16.9055 28.2495 17.0083C28.3106 17.1944 28.3745 17.3861 28.3468 17.6972C28.3162 18.0944 28.394 18.2666 28.4606 18.4166C28.4968 18.4944 28.5329 18.5722 28.544 18.6694C28.5745 18.8861 28.5134 19.0416 28.4356 19.0944C28.4218 19.1111 28.4051 19.1166 28.394 19.1166Z" fill="#85340A"/>
<path d="M27.4577 15L27.6132 19.0917C27.6132 19.0917 27.6132 19.1694 27.666 19.1694C27.7188 19.1694 27.7188 19.0917 27.7188 19.0917L27.8744 15H27.4577ZM27.2771 16.3194C27.0438 16.8361 27.241 17.2556 27.0077 17.7056C26.7744 18.1556 26.9188 18.5278 26.9049 18.7306C26.8883 18.9333 26.7188 18.9944 26.7605 19.0417C26.8021 19.0889 26.9771 18.9944 27.0494 18.725C27.116 18.45 26.9521 18.2917 27.2355 17.7417C27.5188 17.1889 27.2966 16.9444 27.5771 16.4528" fill="#F6B40E"/>
<path d="M27.66 19.2C27.5989 19.2 27.5766 19.1389 27.5766 19.0917L27.4877 16.7389C27.4516 16.8584 27.4461 16.9667 27.4405 17.0806C27.4294 17.2778 27.41 17.4778 27.2655 17.7584C27.085 18.1111 27.0905 18.2973 27.0988 18.4667C27.1044 18.5556 27.1044 18.6334 27.0822 18.7361C27.0294 18.9473 26.9072 19.0667 26.8183 19.0889C26.7711 19.1 26.7461 19.0834 26.7349 19.0723C26.6988 19.0306 26.7349 18.9889 26.7655 18.9528C26.8072 18.9056 26.8627 18.8445 26.8683 18.7361C26.8738 18.6834 26.8627 18.6167 26.8572 18.5445C26.8322 18.3278 26.8044 18.0417 26.9766 17.6973C27.0905 17.4806 27.0961 17.2639 27.11 17.0445C27.1155 16.8167 27.1266 16.5778 27.2488 16.3195L27.31 16.35C27.1961 16.6028 27.185 16.8306 27.1766 17.0528C27.1711 17.2861 27.16 17.5028 27.0377 17.7361C26.8711 18.0528 26.8988 18.3361 26.9238 18.5389C26.9294 18.6167 26.9405 18.6889 26.935 18.7417C26.9238 18.875 26.8572 18.9445 26.8155 19C26.8099 19.0111 26.7988 19.025 26.7905 19.0306C26.7961 19.0306 26.8016 19.0306 26.8155 19.025C26.8683 19.0084 26.9655 18.9167 27.0127 18.725C27.0377 18.6361 27.0294 18.5639 27.0294 18.4778C27.0238 18.3028 27.0127 18.1111 27.2044 17.7389C27.3433 17.4695 27.3544 17.2778 27.3711 17.0861C27.3822 16.925 27.3961 16.7695 27.4794 16.575L27.4183 15.0139H27.485L27.5377 16.4528C27.5377 16.4528 27.5377 16.4473 27.5433 16.4473L27.6044 16.4834C27.5794 16.5195 27.5627 16.5556 27.5516 16.5917L27.6489 19.1056C27.6489 19.1111 27.6544 19.1473 27.6655 19.1473C27.6655 19.1473 27.6711 19.1473 27.6766 19.1306C27.6822 19.1195 27.6822 19.1 27.6822 19.1L27.8377 15.0084H27.9044L27.7433 19.1028C27.7433 19.1028 27.7433 19.1278 27.7377 19.15C27.7266 19.175 27.6961 19.2 27.66 19.2Z" fill="#85340A"/>
<path d="M27.4681 14.9223L26.0458 18.7612C26.0458 18.7612 26.0153 18.8334 26.0625 18.8501C26.1097 18.8668 26.1403 18.7973 26.1403 18.7973L27.8514 15.0779L27.4681 14.9223ZM26.7958 16.0751C26.3819 16.4584 26.4069 16.9279 26.0153 17.2501C25.6264 17.5751 25.6181 17.9751 25.5292 18.1556C25.4319 18.3418 25.2597 18.3306 25.2764 18.389C25.3014 18.4501 25.4986 18.4306 25.6653 18.2029C25.8319 17.9751 25.7431 17.764 26.2125 17.3695C26.6875 16.9667 26.5736 16.6556 27.0236 16.3084" fill="#F6B40E"/>
<path d="M26.0824 18.8889C26.0713 18.8889 26.0658 18.8889 26.0519 18.8833C25.9991 18.8583 25.9991 18.8 26.0158 18.75L26.8324 16.5417C26.7547 16.6389 26.7074 16.7333 26.6574 16.8361C26.5686 17.0111 26.4769 17.1889 26.238 17.3944C25.9324 17.6528 25.8713 17.8278 25.813 17.9833C25.7824 18.0667 25.7519 18.1444 25.6935 18.2222C25.5602 18.3972 25.4047 18.4611 25.3158 18.45C25.2685 18.4444 25.2491 18.4139 25.2435 18.4028C25.2269 18.35 25.2741 18.325 25.3158 18.3055C25.3685 18.2805 25.4408 18.2389 25.4963 18.1444C25.5213 18.0972 25.538 18.0361 25.563 17.9583C25.6241 17.7555 25.7074 17.4667 25.9963 17.225C26.188 17.0694 26.2713 16.8722 26.3686 16.6667C26.4658 16.4555 26.5602 16.2417 26.7769 16.05L26.8241 16.0972C26.6213 16.2833 26.5241 16.4944 26.4352 16.6972C26.338 16.9083 26.2491 17.1055 26.0463 17.2722C25.7713 17.5 25.6935 17.775 25.6324 17.975C25.6074 18.0528 25.5908 18.1194 25.5658 18.1722C25.5047 18.2917 25.4158 18.3333 25.3547 18.3639C25.3435 18.3694 25.3241 18.375 25.3185 18.3805C25.3241 18.3805 25.3297 18.3861 25.3435 18.3861C25.3963 18.3861 25.5241 18.3444 25.6435 18.1833C25.6963 18.1111 25.7213 18.0389 25.7519 17.9611C25.813 17.8 25.8769 17.6139 26.1963 17.3444C26.4241 17.1472 26.513 16.9722 26.5991 16.8055C26.6713 16.6611 26.7436 16.5167 26.8991 16.3722L27.438 14.9083L27.4991 14.9333L26.9936 16.2833L26.9991 16.2778L27.0408 16.3305C27.0047 16.3555 26.9741 16.3833 26.9436 16.4083L26.0685 18.7667C26.0685 18.7722 26.0574 18.8083 26.0685 18.8139C26.0797 18.8194 26.0991 18.7833 26.1047 18.7778L27.8158 15.0583L27.8769 15.0889L26.1658 18.8083C26.1658 18.8139 26.1408 18.8611 26.1047 18.875C26.0991 18.8833 26.0935 18.8889 26.0824 18.8889Z" fill="#85340A"/>
<path d="M27.5146 14.8557L24.7313 17.8557C24.7313 17.8557 24.6785 17.9085 24.7146 17.9446C24.7507 17.9807 24.8035 17.9279 24.8035 17.9279L27.8035 15.1446L27.5146 14.8557ZM26.4535 15.6613C25.9257 15.8585 25.7702 16.2974 25.284 16.4529C24.7979 16.6029 24.6424 16.9696 24.4868 17.1057C24.3313 17.239 24.1702 17.1585 24.1702 17.2252C24.1646 17.2918 24.3563 17.3446 24.6035 17.2002C24.8507 17.0557 24.8424 16.8279 25.4313 16.6363C26.0202 16.4446 26.0368 16.114 26.584 15.964" fill="#F6B40E"/>
<path d="M24.7428 17.9944C24.7261 17.9944 24.7067 17.9888 24.69 17.9694C24.6483 17.9277 24.6734 17.8666 24.7067 17.8305L26.3095 16.1027C26.2011 16.1638 26.1178 16.2361 26.0345 16.3055C25.8845 16.4305 25.7345 16.5638 25.4345 16.6583C25.0567 16.7777 24.9317 16.9166 24.8178 17.0416C24.7567 17.1083 24.7039 17.1666 24.615 17.2222C24.4289 17.3361 24.2539 17.3361 24.1761 17.2888C24.1345 17.2638 24.1289 17.2361 24.1289 17.2166C24.1345 17.1638 24.19 17.1555 24.2372 17.1555C24.2983 17.15 24.3817 17.1444 24.465 17.0777C24.5067 17.0416 24.5483 16.9944 24.5983 16.9333C24.7317 16.7666 24.915 16.5361 25.2817 16.4222C25.515 16.35 25.6706 16.2055 25.84 16.05C26.0067 15.8944 26.1817 15.7333 26.4511 15.6305L26.4761 15.6916C26.2178 15.7888 26.0511 15.9444 25.8872 16.0944C25.7206 16.25 25.5567 16.4 25.3039 16.4777C24.9622 16.5861 24.7817 16.8083 24.6567 16.9694C24.6095 17.0305 24.5595 17.0833 24.5178 17.125C24.415 17.2083 24.3206 17.2138 24.2539 17.2222C24.2428 17.2222 24.2234 17.2222 24.2122 17.2277C24.2178 17.2333 24.2233 17.2333 24.2372 17.2388C24.2845 17.2638 24.4234 17.2694 24.59 17.1666C24.6678 17.1194 24.715 17.0638 24.7761 17C24.89 16.875 25.0289 16.7305 25.4234 16.5972C25.7122 16.5083 25.8567 16.375 25.9984 16.2555C26.1234 16.1472 26.2456 16.0444 26.4372 15.9722L27.4984 14.825L27.5456 14.8722L26.5678 15.9277H26.5734L26.59 15.9944C26.5484 16.0055 26.5122 16.0194 26.4761 16.0305L24.7539 17.8722C24.7484 17.8777 24.7233 17.9083 24.7372 17.9138C24.7483 17.925 24.7733 17.9027 24.7789 17.8972L27.7789 15.1138L27.8261 15.1611L24.8261 17.9527C24.8261 17.9527 24.8095 17.9694 24.7845 17.9833C24.7734 17.9888 24.7567 17.9944 24.7428 17.9944Z" fill="#85340A"/>
<path d="M27.9178 16.4639C27.9484 17.0112 28.2539 17.25 28.1928 17.7417C28.3261 17.3528 28.0067 17.0445 28.0261 16.4695L27.9178 16.4639ZM27.5623 15.0417L28.7317 17.5973L27.7539 14.9639" fill="#85340A"/>
<path d="M27.335 16.4529C27.1545 16.964 27.3461 17.3057 27.1017 17.7362C27.3711 17.4251 27.1906 17.0223 27.4322 16.4946L27.335 16.4529ZM27.5572 15.0057L27.66 17.814L27.7628 15.0057" fill="#85340A"/>
<path d="M26.8066 16.2167C26.4399 16.6195 26.4899 17.0084 26.0983 17.3139C26.4705 17.1334 26.4594 16.6889 26.8788 16.2945L26.8066 16.2167ZM27.5622 14.9639L26.5788 17.5973L27.7483 15.0417" fill="#85340A"/>
<path d="M26.4072 15.7973C25.9155 16.0306 25.8127 16.4084 25.3322 16.5417C25.746 16.5112 25.9016 16.1029 26.4433 15.9001L26.4072 15.7973ZM27.5822 14.9279L25.6683 16.9862L27.7266 15.0723" fill="#85340A"/>
<path d="M27.582 14.8085L23.8626 16.5196C23.8626 16.5196 23.7904 16.5501 23.8098 16.5974C23.8265 16.6446 23.8987 16.614 23.8987 16.614L27.7376 15.1918L27.582 14.8085ZM26.2931 15.1501C25.7293 15.1335 25.4181 15.4807 24.9126 15.4335C24.4098 15.3863 24.1209 15.6668 23.9237 15.7279C23.7265 15.7946 23.6126 15.6557 23.582 15.7168C23.5515 15.7779 23.707 15.9029 23.9904 15.8613C24.2737 15.8196 24.3515 15.6085 24.9681 15.6585C25.5848 15.7057 25.7293 15.4057 26.2931 15.4779" fill="#F6B40E"/>
<path d="M23.8572 16.6557C23.8211 16.6557 23.7906 16.639 23.7795 16.6084C23.7545 16.5557 23.7961 16.5057 23.8517 16.489L25.9878 15.5057C25.8683 15.5168 25.76 15.5529 25.6572 15.589C25.4711 15.6501 25.2795 15.714 24.9683 15.6862C24.5711 15.6557 24.3989 15.7334 24.2489 15.8001C24.1711 15.8362 24.0933 15.8723 23.9961 15.8834C23.7794 15.914 23.6239 15.8529 23.5711 15.7751C23.5406 15.7334 23.5461 15.7029 23.56 15.6918C23.585 15.6446 23.6378 15.6612 23.6795 15.6751C23.7406 15.6918 23.8183 15.7223 23.9183 15.6862C23.9656 15.6696 24.0267 15.639 24.0933 15.6029C24.2795 15.5001 24.5378 15.3557 24.9211 15.3918C25.1683 15.4168 25.3656 15.339 25.5739 15.2584C25.7906 15.1807 26.0128 15.0973 26.2989 15.1085V15.1751C26.0239 15.164 25.8072 15.2473 25.5961 15.3251C25.3795 15.4084 25.1711 15.4807 24.9128 15.4584C24.5517 15.4279 24.3072 15.5612 24.1267 15.6612C24.0545 15.6973 23.9933 15.7334 23.9406 15.7501C23.8156 15.7918 23.7183 15.7557 23.6572 15.739C23.6461 15.7334 23.6267 15.7279 23.6156 15.7279C23.6156 15.7334 23.6211 15.739 23.6267 15.7446C23.6628 15.7862 23.7822 15.8473 23.9795 15.8168C24.0683 15.8057 24.135 15.7751 24.2128 15.7334C24.3683 15.6612 24.5489 15.5779 24.9628 15.614C25.2628 15.639 25.4489 15.5779 25.6295 15.5168C25.785 15.464 25.935 15.414 26.1461 15.4196L27.5628 14.7723L27.5934 14.8335L26.285 15.4334H26.2906L26.285 15.5001C26.2434 15.4946 26.2017 15.4946 26.1656 15.489L23.8795 16.539C23.8739 16.5446 23.8378 16.5557 23.8433 16.5751C23.8433 16.5751 23.8433 16.5807 23.86 16.5807C23.8711 16.5807 23.8906 16.5751 23.8906 16.5751L27.7295 15.1529L27.7545 15.214L23.9156 16.6362C23.9156 16.6362 23.8906 16.6473 23.8683 16.6473C23.8628 16.6557 23.8628 16.6557 23.8572 16.6557Z" fill="#85340A"/>
<path d="M27.6593 14.7972L23.5676 14.9528C23.5676 14.9528 23.4899 14.9528 23.4899 15.0056C23.4899 15.0584 23.5676 15.0584 23.5676 15.0584L27.6593 15.2139V14.7972ZM26.3399 14.6167C25.8232 14.3834 25.4038 14.5806 24.9538 14.3472C24.5038 14.1139 24.1315 14.2584 23.9288 14.2445C23.726 14.2278 23.6649 14.0583 23.6176 14.1C23.5704 14.1417 23.6649 14.3167 23.9343 14.3889C24.2093 14.4556 24.3676 14.2917 24.9176 14.575C25.4704 14.8584 25.7149 14.6361 26.2065 14.9167" fill="#F6B40E"/>
<path d="M27.6592 15.2389L23.5676 15.0834C23.5676 15.0834 23.5426 15.0834 23.5203 15.0778C23.4842 15.0667 23.4592 15.0361 23.4592 15C23.4592 14.9389 23.5203 14.9167 23.5676 14.9167L25.9203 14.8278C25.8009 14.7917 25.6926 14.7861 25.5787 14.7806C25.3815 14.7695 25.1815 14.75 24.9009 14.6056C24.5481 14.425 24.362 14.4306 24.1926 14.4389C24.1037 14.4445 24.0259 14.4445 23.9231 14.4223C23.712 14.3695 23.5926 14.2473 23.5703 14.1584C23.5592 14.1111 23.5759 14.0861 23.587 14.075C23.6287 14.0389 23.6703 14.075 23.7065 14.1056C23.7537 14.1473 23.8148 14.2028 23.9231 14.2084C23.9759 14.2139 24.0426 14.2028 24.1148 14.1973C24.3315 14.1723 24.6176 14.1361 24.962 14.3167C25.1787 14.4306 25.3953 14.4361 25.6148 14.45C25.8426 14.4556 26.0815 14.4667 26.3398 14.5889L26.3092 14.65C26.0565 14.5361 25.8287 14.525 25.6065 14.5167C25.3731 14.5111 25.1565 14.5 24.9231 14.3778C24.6065 14.2111 24.3231 14.2389 24.1203 14.2639C24.0426 14.2695 23.9703 14.2806 23.9176 14.275C23.7842 14.2639 23.7148 14.1973 23.6592 14.1556C23.6481 14.15 23.6342 14.1389 23.6287 14.1306C23.6287 14.1361 23.6287 14.1417 23.6342 14.1556C23.6509 14.2084 23.7426 14.3056 23.9342 14.3528C24.0231 14.3778 24.0953 14.3695 24.1815 14.3695C24.3565 14.3639 24.5481 14.3528 24.9203 14.5445C25.1898 14.6834 25.3815 14.6945 25.5731 14.7111C25.7342 14.7223 25.8898 14.7361 26.0842 14.8195L27.6453 14.7584V14.825L26.2065 14.8778C26.2065 14.8778 26.212 14.8778 26.212 14.8834L26.1759 14.9445C26.1398 14.9195 26.1037 14.9028 26.0676 14.8917L23.5537 14.9889C23.5481 14.9889 23.512 14.9945 23.512 15.0056C23.512 15.0167 23.5481 15.0223 23.5537 15.0223L27.6453 15.1778L27.6592 15.2389Z" fill="#85340A"/>
<path d="M27.7374 14.8083L23.8985 13.3861C23.8985 13.3861 23.8263 13.3556 23.8096 13.4028C23.7929 13.45 23.8624 13.4806 23.8624 13.4806L27.5818 15.1917L27.7374 14.8083ZM26.5846 14.1361C26.2013 13.7222 25.7318 13.7472 25.4096 13.3556C25.0874 12.9639 24.6846 12.9583 24.504 12.8694C24.3179 12.7722 24.329 12.6 24.2707 12.6167C24.2096 12.6417 24.229 12.8389 24.4568 13.0056C24.6846 13.1722 24.8957 13.0833 25.2901 13.5528C25.6929 14.0278 26.004 13.9139 26.3513 14.3639" fill="#F6B40E"/>
<path d="M27.5707 15.2221L23.8512 13.511C23.8457 13.511 23.7985 13.486 23.7846 13.4499C23.779 13.4332 23.779 13.4138 23.7846 13.3888C23.8096 13.336 23.8679 13.336 23.9179 13.3527L26.1262 14.1694C26.029 14.0916 25.9346 14.0443 25.8318 13.9943C25.6568 13.9055 25.479 13.8138 25.2734 13.5749C25.0151 13.2694 24.8401 13.2082 24.6846 13.1499C24.6012 13.1193 24.5234 13.0888 24.4457 13.0305C24.2707 12.8971 24.2068 12.7416 24.2179 12.6527C24.2234 12.6055 24.254 12.586 24.2651 12.5805C24.3179 12.5638 24.3429 12.611 24.3623 12.6527C24.3873 12.7055 24.429 12.7777 24.5234 12.8332C24.5707 12.8582 24.6318 12.8749 24.7096 12.8999C24.9123 12.961 25.2012 13.0443 25.4429 13.3332C25.5984 13.5249 25.7957 13.6082 26.0012 13.7055C26.2123 13.8027 26.4262 13.8971 26.6179 14.1138L26.5707 14.161C26.3846 13.9582 26.1734 13.861 25.9707 13.7721C25.7596 13.6749 25.5568 13.586 25.3957 13.3832C25.1679 13.1082 24.8929 13.0305 24.6929 12.9693C24.6151 12.9443 24.5484 12.9277 24.4957 12.9027C24.3762 12.8416 24.3346 12.7527 24.304 12.6916C24.2985 12.6805 24.2929 12.661 24.2873 12.6555C24.2873 12.661 24.2818 12.6666 24.2818 12.6805C24.2818 12.7332 24.3235 12.861 24.4846 12.9805C24.5568 13.0332 24.629 13.0582 24.7068 13.0888C24.8679 13.1499 25.054 13.2138 25.3234 13.5332C25.5207 13.761 25.6957 13.8499 25.8623 13.936C26.0068 14.0082 26.1512 14.0805 26.2957 14.236L27.7596 14.7749L27.7346 14.836L26.3818 14.3332L26.3873 14.3388L26.3346 14.3805C26.3096 14.3444 26.2818 14.3138 26.2568 14.2832L23.8985 13.4082C23.8929 13.4082 23.8568 13.3971 23.8512 13.4082C23.8457 13.4194 23.8818 13.4388 23.8873 13.4443L27.6068 15.1555L27.5707 15.2221Z" fill="#85340A"/>
<path d="M27.8045 14.8554L24.8045 12.0721C24.8045 12.0721 24.7517 12.0193 24.7156 12.0554C24.6795 12.0915 24.7323 12.1443 24.7323 12.1443L27.5156 15.1443L27.8045 14.8554ZM26.999 13.7943C26.8018 13.2665 26.3629 13.111 26.2073 12.6249C26.0573 12.1388 25.6906 11.9832 25.5545 11.8276C25.4212 11.6721 25.5018 11.511 25.4351 11.511C25.3684 11.5054 25.3156 11.6971 25.4601 11.9443C25.6045 12.1832 25.8323 12.1832 26.024 12.7721C26.2156 13.361 26.5462 13.3776 26.6962 13.9249" fill="#F6B40E"/>
<path d="M27.4936 15.1667L24.7075 12.1667C24.7075 12.1667 24.6908 12.15 24.6769 12.125C24.6603 12.0889 24.6658 12.0528 24.688 12.0278C24.7297 11.9861 24.7908 12.0111 24.8269 12.0445L26.5547 13.6472C26.4936 13.5389 26.4214 13.4556 26.3519 13.3722C26.2269 13.2222 26.0936 13.0722 25.9991 12.7722C25.8797 12.3945 25.7408 12.2695 25.6158 12.1556C25.5491 12.0945 25.4908 12.0417 25.4353 11.9528C25.3214 11.7667 25.3214 11.5917 25.3686 11.5139C25.3936 11.4722 25.4214 11.4667 25.4408 11.4667C25.4936 11.4722 25.5019 11.5278 25.5019 11.575C25.5075 11.6361 25.513 11.7195 25.5797 11.8028C25.6158 11.8445 25.663 11.8861 25.7241 11.9361C25.8908 12.0695 26.1214 12.2528 26.2353 12.6195C26.3075 12.8528 26.4519 13.0083 26.6075 13.1778C26.763 13.3445 26.9241 13.5195 27.0269 13.7889L26.9658 13.8139C26.8686 13.5556 26.713 13.3889 26.563 13.225C26.4075 13.0583 26.2575 12.8945 26.1797 12.6417C26.0714 12.3 25.8491 12.1195 25.688 11.9945C25.6269 11.9472 25.5741 11.8972 25.5325 11.8556C25.4491 11.7528 25.4436 11.6583 25.4353 11.5917C25.4353 11.5806 25.4353 11.5611 25.4297 11.55C25.4241 11.5556 25.4241 11.5611 25.4186 11.575C25.3936 11.6222 25.388 11.7611 25.4908 11.9278C25.538 12.0056 25.5936 12.0528 25.6575 12.1139C25.7825 12.2278 25.9269 12.3667 26.0603 12.7611C26.1491 13.05 26.2825 13.1945 26.4019 13.3361C26.5103 13.4611 26.613 13.5833 26.6853 13.775L27.8325 14.8361L27.7853 14.8778L26.7297 13.9V13.9056L26.663 13.9222C26.6519 13.8806 26.638 13.8445 26.6269 13.8083L24.7853 12.0917C24.7797 12.0861 24.7491 12.0611 24.7436 12.075C24.7436 12.075 24.738 12.0806 24.7436 12.0917C24.7491 12.1028 24.7603 12.1167 24.7603 12.1167L27.5436 15.1167L27.4936 15.1667Z" fill="#85340A"/>
<path d="M26.1951 15.2582C25.6479 15.2888 25.409 15.5943 24.9174 15.5332C25.3062 15.6665 25.6146 15.3471 26.1896 15.3665L26.1951 15.2582ZM27.6174 14.9026L25.0618 16.0721L27.6951 15.0943" fill="#85340A"/>
<path d="M26.2073 14.6749C25.6962 14.4943 25.3545 14.686 24.924 14.4415C25.2351 14.711 25.6379 14.5304 26.1656 14.7721L26.2073 14.6749ZM27.6545 14.8971L24.8462 14.9999L27.6545 15.1026" fill="#85340A"/>
<path d="M26.4428 14.1473C26.04 13.7806 25.6511 13.8306 25.3456 13.439C25.5261 13.8112 25.9706 13.8001 26.365 14.2195L26.4428 14.1473ZM27.6956 14.9029L25.0623 13.9195L27.6178 15.089" fill="#85340A"/>
<path d="M26.863 13.7473C26.6296 13.2556 26.2519 13.1529 26.1185 12.6723C26.1491 13.0862 26.5574 13.2417 26.7602 13.7834L26.863 13.7473ZM27.7324 14.9223L25.6741 13.0084L27.588 15.0667" fill="#85340A"/>
<path d="M27.8511 14.9221L26.1399 11.2027C26.1399 11.2027 26.1094 11.1305 26.0622 11.1499C26.0149 11.1694 26.0455 11.2388 26.0455 11.2388L27.4677 15.0777L27.8511 14.9221ZM27.5094 13.6332C27.5261 13.0693 27.1788 12.7582 27.2261 12.2527C27.2733 11.7499 26.9927 11.461 26.9316 11.2638C26.8649 11.0666 27.0038 10.9527 26.9427 10.9221C26.8816 10.8916 26.7566 11.0471 26.7983 11.3305C26.8399 11.6138 27.0511 11.6916 27.0011 12.3082C26.9538 12.9249 27.2538 13.0693 27.1816 13.6332" fill="#F6B40E"/>
<path d="M27.4372 15.0888L26.015 11.25C26.015 11.25 26.0039 11.225 26.0039 11.2027C26.0039 11.1611 26.015 11.1305 26.0511 11.1194C26.1039 11.0944 26.1539 11.1361 26.1706 11.1916L27.1539 13.3277C27.1428 13.2083 27.1067 13.1 27.0706 12.9972C27.0095 12.8111 26.9456 12.6194 26.9733 12.3083C27.0039 11.9111 26.9261 11.7389 26.8595 11.5889C26.8234 11.5111 26.7872 11.4333 26.7761 11.3361C26.7456 11.1194 26.8067 10.9639 26.8845 10.9111C26.9261 10.8805 26.9567 10.8861 26.9678 10.9C27.015 10.925 26.9984 10.9777 26.9845 11.0194C26.9678 11.0805 26.9372 11.1583 26.9733 11.2583C26.99 11.3055 27.0206 11.3666 27.0567 11.4333C27.1595 11.6194 27.3039 11.8777 27.2678 12.2611C27.2428 12.5083 27.3206 12.7055 27.4011 12.9139C27.4789 13.1305 27.5622 13.3527 27.5511 13.6389H27.4845C27.4956 13.3639 27.4122 13.1472 27.3345 12.9361C27.2511 12.7194 27.1789 12.5111 27.2011 12.2527C27.2317 11.8916 27.0984 11.6472 26.9984 11.4666C26.9622 11.3944 26.9261 11.3333 26.9095 11.2805C26.8678 11.1555 26.9039 11.0583 26.9206 10.9972C26.9261 10.9861 26.9317 10.9666 26.9317 10.9555C26.9261 10.9555 26.9206 10.9611 26.915 10.9666C26.8734 11.0027 26.8122 11.1222 26.8428 11.3194C26.8539 11.4083 26.8845 11.475 26.9261 11.5527C26.9983 11.7083 27.0817 11.8889 27.0456 12.3027C27.0206 12.6027 27.0817 12.7889 27.1428 12.9694C27.1956 13.125 27.2456 13.275 27.24 13.4861L27.8872 14.9027L27.8261 14.9333L27.2261 13.625V13.6305L27.1595 13.625C27.165 13.5833 27.1706 13.5416 27.1706 13.5055L26.1206 11.2194C26.115 11.2139 26.1039 11.1777 26.0845 11.1833C26.0845 11.1833 26.0789 11.1889 26.0789 11.2C26.0789 11.2111 26.0845 11.2305 26.0845 11.2305L27.5067 15.0694L27.4372 15.0888Z" fill="#85340A"/>
<path d="M27.8634 15L27.7079 10.9083C27.7079 10.9083 27.7079 10.8305 27.6551 10.8305C27.6023 10.8305 27.6023 10.9083 27.6023 10.9083L27.444 15H27.8634ZM28.044 13.6805C28.2773 13.1638 28.0801 12.7444 28.3134 12.2944C28.5467 11.8444 28.4023 11.4722 28.4162 11.2694C28.4329 11.0666 28.6023 11.0055 28.5606 10.9583C28.519 10.9111 28.344 11.0055 28.2717 11.275C28.2051 11.55 28.369 11.7083 28.0856 12.2583C27.8023 12.8111 28.0245 13.0555 27.744 13.5472" fill="#F6B40E"/>
<path d="M27.8355 15L27.7828 13.5612C27.7828 13.5612 27.7828 13.5667 27.7772 13.5667L27.7161 13.5306C27.7411 13.4945 27.7578 13.4584 27.7689 13.4223L27.6717 10.9084C27.6717 10.9028 27.6661 10.8667 27.655 10.8667C27.6439 10.8667 27.6383 10.9028 27.6383 10.9084L27.48 15H27.4133L27.5689 10.9084C27.5689 10.9084 27.5689 10.8834 27.5744 10.8612C27.5856 10.825 27.6161 10.8 27.6522 10.8C27.7133 10.8 27.7355 10.8612 27.7355 10.9084L27.8244 13.2612C27.8605 13.1417 27.8661 13.0334 27.8717 12.9195C27.8828 12.7223 27.9022 12.5223 28.0467 12.2417C28.2272 11.8889 28.2217 11.7028 28.2133 11.5334C28.2078 11.4445 28.2078 11.3667 28.23 11.2639C28.2828 11.0528 28.405 10.9334 28.4939 10.9112C28.5411 10.9 28.5661 10.9167 28.5772 10.9278C28.6133 10.9695 28.5772 11.0112 28.5467 11.0473C28.505 11.0945 28.4494 11.1556 28.4439 11.2639C28.4383 11.3167 28.4494 11.3834 28.455 11.4556C28.48 11.6723 28.5078 11.9584 28.3355 12.3028C28.2217 12.5195 28.2161 12.7362 28.2022 12.9556C28.1967 13.1834 28.1855 13.4223 28.0633 13.6806L28.0022 13.65C28.1161 13.3973 28.1272 13.1695 28.1355 12.9473C28.1411 12.7139 28.1522 12.4973 28.2744 12.2639C28.4411 11.9473 28.4133 11.6639 28.3883 11.4612C28.3828 11.3834 28.3717 11.3112 28.3772 11.25C28.3883 11.1167 28.455 11.0473 28.4967 10.9917C28.5022 10.9806 28.5133 10.9667 28.5217 10.9612C28.5161 10.9612 28.5105 10.9612 28.4967 10.9667C28.4439 10.9834 28.3467 11.075 28.2994 11.2667C28.2744 11.3556 28.2828 11.4278 28.2828 11.5139C28.2883 11.6889 28.2994 11.8806 28.1078 12.2528C27.9689 12.5223 27.9578 12.7139 27.9411 12.9056C27.93 13.0667 27.9161 13.2223 27.8328 13.4167L27.8939 14.9778L27.8355 15Z" fill="#85340A"/>
<path d="M27.8512 15.0777L29.2735 11.2388C29.2735 11.2388 29.304 11.1666 29.2568 11.1499C29.2096 11.1333 29.179 11.2027 29.179 11.2027L27.4679 14.9221L27.8512 15.0777ZM28.5235 13.9249C28.9373 13.5416 28.9123 13.0721 29.304 12.7499C29.6929 12.4249 29.7012 12.0249 29.7901 11.8444C29.8873 11.6583 30.0596 11.6694 30.0429 11.611C30.0179 11.5499 29.8207 11.5694 29.654 11.7971C29.4873 12.0249 29.5762 12.236 29.1068 12.6305C28.6318 13.0333 28.7457 13.3444 28.2957 13.6916" fill="#F6B40E"/>
<path d="M27.8825 15.089L27.8214 15.064L28.3186 13.714L28.3131 13.7196L28.2714 13.6668C28.3075 13.6418 28.3381 13.614 28.3686 13.589L29.2436 11.2307C29.2436 11.2251 29.2547 11.189 29.2436 11.1834C29.2325 11.1779 29.2131 11.214 29.2075 11.2196L27.4964 14.939L27.4353 14.9084L29.1464 11.189C29.1464 11.1834 29.1714 11.1362 29.2075 11.1223C29.2242 11.1168 29.2436 11.1168 29.2686 11.1223C29.3214 11.1473 29.3214 11.2057 29.3047 11.2557L28.4881 13.464C28.5659 13.3668 28.6131 13.2723 28.6631 13.1696C28.752 12.9946 28.8436 12.8168 29.0825 12.6112C29.3881 12.3529 29.4492 12.1779 29.5075 12.0223C29.5381 11.939 29.5686 11.8612 29.627 11.7834C29.7603 11.6084 29.9159 11.5446 30.0047 11.5557C30.052 11.5612 30.0714 11.5918 30.077 11.6029C30.0936 11.6557 30.0464 11.6807 30.0047 11.7001C29.952 11.7251 29.8797 11.7668 29.8242 11.8612C29.7992 11.9084 29.7825 11.9696 29.7575 12.0473C29.6964 12.2501 29.6131 12.539 29.3242 12.7807C29.1325 12.9362 29.0492 13.1279 28.952 13.339C28.8547 13.5501 28.7603 13.764 28.5436 13.9557L28.4964 13.9084C28.6992 13.7223 28.7964 13.5112 28.8853 13.3084C28.9825 13.0973 29.0714 12.8946 29.2742 12.7334C29.5492 12.5057 29.627 12.2307 29.6881 12.0307C29.7131 11.9529 29.7297 11.8862 29.7547 11.8334C29.8159 11.714 29.9047 11.6723 29.9659 11.6418C29.977 11.6362 29.9964 11.6307 30.002 11.6251C29.9964 11.6251 29.9909 11.6196 29.977 11.6196C29.9242 11.6196 29.7964 11.6612 29.677 11.8223C29.6242 11.8946 29.5992 11.9668 29.5686 12.0446C29.5075 12.2057 29.4436 12.3918 29.1242 12.6612C28.8964 12.8584 28.8075 13.0334 28.7214 13.2001C28.6492 13.3446 28.577 13.489 28.4214 13.6334L27.8825 15.089Z" fill="#85340A"/>
<path d="M27.804 15.1444L30.5874 12.1444C30.5874 12.1444 30.6401 12.0916 30.604 12.0555C30.5679 12.0194 30.5151 12.0721 30.5151 12.0721L27.5151 14.8555L27.804 15.1444ZM28.8651 14.3388C29.3929 14.1416 29.5485 13.7027 30.0346 13.5471C30.5207 13.3971 30.6763 13.0305 30.8318 12.8944C30.9874 12.761 31.1485 12.8416 31.1485 12.7749C31.154 12.7083 30.9624 12.6555 30.7151 12.7999C30.4763 12.9444 30.4763 13.1721 29.8874 13.3638C29.2985 13.5555 29.2818 13.886 28.7346 14.036" fill="#F6B40E"/>
<path d="M27.8265 15.1667L27.7793 15.1195L28.7571 14.0639H28.7515L28.7348 13.9973C28.7765 13.9861 28.8126 13.9723 28.8487 13.9611L30.5598 12.1139C30.5654 12.1084 30.5904 12.0778 30.5765 12.0723H30.5709C30.5598 12.0723 30.5404 12.0834 30.5348 12.0889L27.5404 14.8806L27.4932 14.8334L30.4932 12.05C30.4987 12.0445 30.5348 12.0084 30.5765 12.0084C30.5932 12.0084 30.6126 12.0139 30.6293 12.0334C30.6709 12.075 30.6459 12.1361 30.6126 12.1723L29.0098 13.9C29.1182 13.8389 29.2015 13.7667 29.2848 13.6973C29.4348 13.5723 29.5848 13.4389 29.8848 13.3445C30.2626 13.225 30.3959 13.0861 30.5015 12.9611C30.5626 12.8945 30.6154 12.8361 30.7043 12.7806C30.8904 12.6667 31.0654 12.6667 31.1432 12.7139C31.1848 12.7389 31.1904 12.7667 31.1904 12.7861C31.1848 12.8389 31.1293 12.8473 31.0821 12.8473C31.0209 12.8528 30.9376 12.8584 30.8543 12.925C30.8126 12.9611 30.7709 13.0084 30.7209 13.0695C30.5876 13.2361 30.4043 13.4667 30.0376 13.5806C29.8043 13.6528 29.6487 13.7973 29.4793 13.9528C29.3126 14.1084 29.1376 14.2695 28.8682 14.3723L28.8432 14.3111C29.1015 14.2139 29.2682 14.0584 29.4321 13.9084C29.5987 13.7528 29.7626 13.6028 30.0154 13.525C30.3571 13.4167 30.5376 13.1945 30.6626 13.0334C30.7098 12.9723 30.7598 12.9195 30.8015 12.8778C30.9043 12.7945 30.9987 12.7889 31.0654 12.7806C31.0765 12.7806 31.0959 12.7806 31.1071 12.775C31.1015 12.7695 31.0959 12.7695 31.0821 12.7639C31.0348 12.7389 30.8959 12.7334 30.7293 12.8361C30.6515 12.8834 30.6043 12.9389 30.5432 13.0028C30.4293 13.1278 30.2904 13.2723 29.8959 13.4056C29.6071 13.4945 29.4626 13.6278 29.3209 13.7473C29.1959 13.8556 29.0737 13.9584 28.8821 14.0306L27.8265 15.1667Z" fill="#85340A"/>
<path d="M27.4014 13.5361C27.3708 12.9889 27.0653 12.75 27.1264 12.2584C26.9931 12.6473 27.3125 12.9556 27.2931 13.5306L27.4014 13.5361ZM27.757 14.9584L26.5875 12.4028L27.5653 15.0361" fill="#85340A"/>
<path d="M27.9847 13.5471C28.1652 13.036 27.9736 12.6944 28.218 12.2638C27.9486 12.5749 28.1291 12.9777 27.8874 13.5055L27.9847 13.5471ZM27.7624 14.9944L27.6597 12.186L27.5569 14.9944" fill="#85340A"/>
<path d="M28.5128 13.7832C28.8794 13.3804 28.8294 12.9915 29.2211 12.686C28.8489 12.8665 28.86 13.311 28.4406 13.7054L28.5128 13.7832ZM27.7572 15.036L28.735 12.4026L27.5656 14.9582" fill="#85340A"/>
<path d="M28.9123 14.2029C29.404 13.9695 29.5068 13.5918 29.9873 13.4584C29.5735 13.489 29.4179 13.8973 28.8762 14.1001L28.9123 14.2029ZM27.7373 15.0723L29.6512 13.014L27.5929 14.9279" fill="#85340A"/>
<path d="M27.7377 15.1915L31.4572 13.4804C31.4572 13.4804 31.5294 13.4498 31.5099 13.4026C31.4933 13.3554 31.4211 13.3859 31.4211 13.3859L27.5822 14.8082L27.7377 15.1915ZM29.0266 14.8498C29.5905 14.8665 29.9016 14.5193 30.4072 14.5665C30.9127 14.6137 31.1988 14.3332 31.3961 14.2721C31.5933 14.2054 31.7072 14.3443 31.7377 14.2832C31.7683 14.2221 31.6127 14.0971 31.3294 14.1387C31.0461 14.1804 30.9683 14.3915 30.3516 14.3415C29.7349 14.2943 29.5905 14.5943 29.0266 14.522" fill="#F6B40E"/>
<path d="M27.7486 15.2223L27.718 15.1612L29.0263 14.5612H29.0208L29.0263 14.4945C29.068 14.5 29.1097 14.5056 29.1458 14.5056L31.4319 13.4556C31.4375 13.45 31.4736 13.4389 31.468 13.4195C31.468 13.4139 31.468 13.4139 31.4625 13.4139C31.4513 13.4084 31.4263 13.4139 31.4208 13.4195L27.5819 14.8417L27.5569 14.7806L31.3958 13.3584C31.4013 13.3584 31.4486 13.3417 31.4847 13.3528C31.5013 13.3584 31.5152 13.3778 31.5263 13.3945C31.5375 13.425 31.5319 13.4612 31.4958 13.4917C31.4791 13.5084 31.4541 13.5167 31.4541 13.5167L29.318 14.5C29.4374 14.4889 29.5458 14.4528 29.6486 14.4167C29.8347 14.3556 30.0263 14.2917 30.3375 14.3195C30.7402 14.35 30.9069 14.2723 31.0569 14.2056C31.1347 14.1695 31.2125 14.1334 31.3097 14.1223C31.5263 14.0917 31.6819 14.1528 31.7347 14.2306C31.7652 14.2723 31.7513 14.3028 31.7458 14.3139C31.7208 14.3612 31.668 14.3445 31.6263 14.3306C31.5652 14.3139 31.4875 14.2834 31.3875 14.3195C31.3402 14.3362 31.2791 14.3667 31.2125 14.4028C31.0263 14.5056 30.768 14.65 30.3847 14.6139C30.1374 14.5889 29.9402 14.6667 29.7319 14.7473C29.5152 14.825 29.293 14.9084 29.0069 14.8973V14.8334C29.2819 14.8445 29.4986 14.7612 29.7097 14.6834C29.9263 14.6056 30.1347 14.5278 30.393 14.55C30.7541 14.5806 30.9986 14.4473 31.1791 14.3473C31.2513 14.3112 31.3125 14.275 31.3652 14.2584C31.4902 14.2167 31.5875 14.2528 31.6486 14.2695C31.6597 14.275 31.6791 14.2806 31.6902 14.2806C31.6902 14.275 31.6847 14.2695 31.6791 14.2639C31.643 14.2223 31.5236 14.1612 31.3263 14.1917C31.2375 14.2028 31.1708 14.2334 31.093 14.275C30.9375 14.3473 30.7569 14.4306 30.343 14.3945C30.043 14.3695 29.8569 14.4306 29.6763 14.4917C29.5208 14.5445 29.3708 14.5945 29.1597 14.5889L27.7486 15.2223Z" fill="#85340A"/>
<path d="M27.66 15.2028L31.7517 15.0472C31.7517 15.0472 31.8295 15.0472 31.8295 14.9944C31.8295 14.9417 31.7517 14.9417 31.7517 14.9417L27.66 14.7833V15.2028ZM28.9795 15.3833C29.4961 15.6167 29.9156 15.4194 30.3656 15.6528C30.8156 15.8861 31.1878 15.7417 31.3906 15.7555C31.5934 15.7722 31.6545 15.9417 31.7017 15.9C31.7489 15.8583 31.6545 15.6833 31.385 15.6111C31.11 15.5444 30.9517 15.7083 30.4017 15.425C29.8489 15.1417 29.6045 15.3639 29.1128 15.0833" fill="#F6B40E"/>
<path d="M31.685 15.9416C31.6545 15.9416 31.6239 15.9166 31.6017 15.8944C31.5545 15.8527 31.4934 15.7972 31.385 15.7916C31.3323 15.7861 31.2656 15.7972 31.1934 15.8027C30.9767 15.8277 30.6906 15.8639 30.3461 15.6833C30.1295 15.5694 29.9128 15.5639 29.6934 15.55C29.4656 15.5444 29.2267 15.5333 28.9684 15.4111L28.9989 15.35C29.2517 15.4639 29.4795 15.475 29.7017 15.4833C29.935 15.4889 30.1517 15.5 30.385 15.6222C30.7017 15.7889 30.985 15.7611 31.1878 15.7361C31.2656 15.7305 31.3378 15.7194 31.3906 15.725C31.5239 15.7361 31.5934 15.8027 31.6489 15.8444C31.66 15.85 31.6739 15.8611 31.6795 15.8694C31.6795 15.8639 31.6795 15.8583 31.6739 15.8444C31.6573 15.7916 31.5656 15.6944 31.3739 15.6472C31.285 15.6222 31.2128 15.6305 31.1267 15.6305C30.9517 15.6361 30.76 15.6472 30.3878 15.4555C30.1184 15.3166 29.9267 15.3055 29.735 15.2889C29.5739 15.2777 29.4184 15.2639 29.2239 15.1805L27.6628 15.2416V15.175L29.1017 15.1222C29.1017 15.1222 29.0961 15.1222 29.0961 15.1166L29.1323 15.0555C29.1684 15.0805 29.2045 15.0972 29.2406 15.1083L31.7545 15.0111C31.76 15.0111 31.7961 15.0055 31.7961 14.9944C31.7961 14.9944 31.7961 14.9889 31.7795 14.9833C31.7684 14.9777 31.7489 14.9777 31.7489 14.9777L27.66 14.8194V14.7527L31.7517 14.9083C31.7517 14.9083 31.7767 14.9083 31.7989 14.9139C31.835 14.925 31.86 14.9555 31.86 14.9916C31.86 15.0527 31.7989 15.075 31.7517 15.075L29.3989 15.1639C29.5184 15.2 29.6267 15.2055 29.7406 15.2111C29.9378 15.2222 30.1378 15.2416 30.4184 15.3861C30.7711 15.5666 30.9573 15.5611 31.1267 15.5527C31.2156 15.5472 31.2934 15.5472 31.3961 15.5694C31.6073 15.6222 31.7267 15.7444 31.7489 15.8333C31.76 15.8805 31.7434 15.9055 31.7323 15.9166C31.71 15.9361 31.6989 15.9416 31.685 15.9416Z" fill="#85340A"/>
<path d="M27.5822 15.1918L31.421 16.614C31.421 16.614 31.4932 16.6446 31.5099 16.5974C31.5266 16.5501 31.4571 16.5196 31.4571 16.5196L27.7377 14.8085L27.5822 15.1918ZM28.7349 15.864C29.1183 16.2779 29.5877 16.2529 29.9099 16.6446C30.2349 17.0335 30.6349 17.0418 30.8155 17.1307C31.0016 17.2279 30.9905 17.4001 31.0488 17.3835C31.1099 17.3585 31.0905 17.1612 30.8627 16.9946C30.6349 16.8279 30.4238 16.9168 30.0294 16.4474C29.6266 15.9724 29.3155 16.0862 28.9683 15.6362" fill="#F6B40E"/>
<path d="M31.0372 17.4112C31.0011 17.4112 30.9761 17.3696 30.9595 17.3335C30.9345 17.2807 30.8928 17.2085 30.7984 17.1529C30.7511 17.1279 30.69 17.1112 30.6122 17.0862C30.4095 17.0251 30.1206 16.9418 29.8789 16.6529C29.7234 16.4612 29.5317 16.3779 29.3206 16.2807C29.1095 16.1834 28.8956 16.089 28.7039 15.8723L28.7511 15.8251C28.9373 16.0279 29.1484 16.1251 29.3511 16.214C29.5623 16.3112 29.7595 16.4001 29.9261 16.6029C30.1539 16.8779 30.4289 16.9557 30.6289 17.0168C30.7067 17.0418 30.7734 17.0584 30.8261 17.0835C30.9456 17.1446 30.9872 17.2334 31.0178 17.2946C31.0234 17.3057 31.0289 17.3251 31.0345 17.3307C31.0345 17.3251 31.04 17.3196 31.04 17.3057C31.04 17.2529 30.9984 17.1251 30.8372 17.0057C30.765 16.9529 30.6928 16.9279 30.615 16.8973C30.4539 16.8362 30.2678 16.7723 29.9984 16.4529C29.8011 16.2251 29.6261 16.1362 29.4595 16.0501C29.315 15.9779 29.1706 15.9057 29.0261 15.7501L27.5623 15.2112L27.5873 15.1501L28.9373 15.6473L28.9317 15.6418L28.9845 15.6001C29.0095 15.6362 29.0373 15.6668 29.0623 15.6973L31.4206 16.5723C31.4261 16.5723 31.4622 16.5834 31.4678 16.5723C31.4734 16.5612 31.4372 16.5418 31.4317 16.5362L27.7123 14.8335L27.7428 14.7723L31.4622 16.4835C31.4678 16.4835 31.515 16.5084 31.5289 16.5446C31.5345 16.5612 31.5345 16.5807 31.5289 16.6057C31.5039 16.6584 31.4456 16.6584 31.3956 16.6418L29.1873 15.8251C29.2845 15.9029 29.3789 15.9501 29.4817 16.0001C29.6567 16.089 29.8345 16.1807 30.04 16.4196C30.2984 16.7251 30.4734 16.7862 30.6289 16.8446C30.7122 16.8751 30.79 16.9057 30.8678 16.964C31.0428 17.0973 31.1067 17.2529 31.0956 17.3418C31.09 17.389 31.0595 17.4085 31.0484 17.414C31.0567 17.4112 31.0428 17.4112 31.0372 17.4112Z" fill="#85340A"/>
<path d="M27.5151 15.1446L30.5152 17.9279C30.5152 17.9279 30.5679 17.9807 30.604 17.9446C30.6402 17.9085 30.5874 17.8557 30.5874 17.8557L27.804 14.8557L27.5151 15.1446ZM28.3207 16.2057C28.5179 16.7335 28.9568 16.889 29.1124 17.3752C29.2624 17.8613 29.629 18.0168 29.7651 18.1724C29.8985 18.3279 29.8179 18.489 29.8846 18.489C29.9513 18.4946 30.004 18.3029 29.8596 18.0557C29.7151 17.8085 29.4874 17.8168 29.2957 17.2279C29.104 16.639 28.7735 16.6224 28.6235 16.0752" fill="#F6B40E"/>
<path d="M29.8848 18.5278C29.8793 18.5278 29.8793 18.5278 29.8848 18.5278C29.8237 18.5223 29.8182 18.4667 29.8182 18.4195C29.8126 18.3584 29.8071 18.275 29.7404 18.1917C29.7043 18.15 29.6571 18.1084 29.5959 18.0584C29.4293 17.925 29.1987 17.7417 29.0848 17.375C29.0126 17.1417 28.8682 16.9862 28.7126 16.8167C28.5571 16.65 28.3959 16.475 28.2932 16.2056L28.3543 16.1806C28.4515 16.4389 28.6071 16.6056 28.7571 16.7695C28.9126 16.9362 29.0626 17.1 29.1404 17.3528C29.2487 17.6945 29.4709 17.875 29.6321 18C29.6932 18.0473 29.7459 18.0973 29.7876 18.1389C29.8709 18.2417 29.8765 18.3362 29.8848 18.4028C29.8848 18.4139 29.8848 18.4334 29.8904 18.4445C29.8959 18.4389 29.8959 18.4334 29.9015 18.4195C29.9265 18.3723 29.9321 18.2334 29.8293 18.0667C29.7821 17.9889 29.7265 17.9417 29.6626 17.8806C29.5376 17.7667 29.3932 17.6278 29.2598 17.2334C29.1709 16.9445 29.0376 16.8 28.9182 16.6584C28.8098 16.5334 28.7071 16.4112 28.6348 16.2195L27.4932 15.1556L27.5404 15.1084L28.5959 16.0862V16.0806L28.6626 16.0639C28.6737 16.1056 28.6876 16.1417 28.6987 16.1834L30.5459 17.8945C30.5515 17.9 30.5821 17.925 30.5876 17.9112C30.5987 17.9 30.5765 17.875 30.571 17.8695L27.7793 14.8806L27.8265 14.8334L30.6098 17.8334C30.6098 17.8334 30.6265 17.85 30.6404 17.875C30.6571 17.9112 30.6515 17.9473 30.6293 17.9723C30.5876 18.0139 30.5265 17.9889 30.4904 17.9556L28.7626 16.3528C28.8237 16.4612 28.8959 16.5445 28.9654 16.6278C29.0904 16.7778 29.2237 16.9278 29.3182 17.2278C29.4376 17.6056 29.5765 17.7389 29.7015 17.8445C29.7682 17.9056 29.8265 17.9584 29.8821 18.0473C29.9959 18.2334 29.9959 18.4084 29.9487 18.4862C29.9265 18.5223 29.8987 18.5278 29.8848 18.5278Z" fill="#85340A"/>
<path d="M29.1235 14.7418C29.6708 14.7112 29.9097 14.4056 30.4013 14.4668C30.0124 14.3334 29.7041 14.6529 29.1291 14.6334L29.1235 14.7418ZM27.7013 15.0973L30.2569 13.9279L27.6235 14.9056" fill="#85340A"/>
<path d="M29.1126 15.3251C29.6237 15.5057 29.9654 15.314 30.396 15.5585C30.0849 15.289 29.6821 15.4696 29.1543 15.2279L29.1126 15.3251ZM27.6654 15.1029L30.4738 15.0001L27.6654 14.8973" fill="#85340A"/>
<path d="M28.8763 15.8527C29.2791 16.2194 29.668 16.1694 29.9735 16.561C29.793 16.1888 29.3485 16.1999 28.9541 15.7805L28.8763 15.8527ZM27.6235 15.0971L30.2569 16.0749L27.7013 14.9055" fill="#85340A"/>
<path d="M28.457 16.2529C28.6903 16.7446 29.0681 16.8474 29.2014 17.3279C29.1709 16.914 28.7625 16.7585 28.5597 16.2168L28.457 16.2529ZM27.5875 15.0779L29.6459 16.9918L27.732 14.9335" fill="#85340A"/>
<path d="M27.6598 16.6667C28.5803 16.6667 29.3265 15.9205 29.3265 15C29.3265 14.0796 28.5803 13.3334 27.6598 13.3334C26.7394 13.3334 25.9932 14.0796 25.9932 15C25.9932 15.9205 26.7394 16.6667 27.6598 16.6667Z" fill="#F6B40E"/>
<path d="M27.6591 16.711C26.7174 16.711 25.948 15.9444 25.948 14.9999C25.948 14.0555 26.7147 13.2888 27.6591 13.2888C28.6036 13.2888 29.3702 14.0555 29.3702 14.9999C29.3702 15.9416 28.6008 16.711 27.6591 16.711ZM27.6591 13.3805C26.7647 13.3805 26.0397 14.1055 26.0397 14.9999C26.0397 15.8944 26.7647 16.6194 27.6591 16.6194C28.5536 16.6194 29.2786 15.8944 29.2786 14.9999C29.2786 14.1055 28.5536 13.3805 27.6591 13.3805Z" fill="#85340A"/>
<path d="M28.2294 14.6473C28.1156 14.6473 28.0072 14.6946 27.9406 14.7973C28.0656 14.9112 28.3545 14.9223 28.5461 14.7862C28.4628 14.6946 28.3433 14.6473 28.2294 14.6473ZM28.2239 14.6696C28.3322 14.6696 28.4406 14.7168 28.4517 14.7723C28.3267 14.9168 28.1156 14.8973 27.9906 14.7973C28.0489 14.7057 28.1406 14.6696 28.2239 14.6696Z" fill="#843511"/>
<path d="M28.2491 14.561C28.0824 14.561 28.0463 14.5971 27.9657 14.6638C27.888 14.7305 27.8518 14.7166 27.8407 14.7305C27.8296 14.7416 27.8407 14.7833 27.8657 14.7666C27.8907 14.7499 27.9435 14.7305 28.0213 14.6638C28.0991 14.5971 28.1768 14.5971 28.2491 14.5971C28.4768 14.5971 28.6102 14.7888 28.6324 14.7777C28.663 14.7722 28.5074 14.561 28.2491 14.561Z" fill="#85340A"/>
<path d="M28.7099 14.6388C28.4155 14.3805 28.0432 14.3444 27.8405 14.5361C27.7932 14.6027 27.7571 14.675 27.7432 14.7527C27.7182 14.8972 27.7599 15.0583 27.8766 15.2194C27.8655 15.2194 27.8405 15.2305 27.8238 15.2444C27.721 15.0527 27.6849 14.8472 27.721 14.6611C27.7266 14.6138 27.746 14.5638 27.7627 14.5166C28.0432 14.2805 28.4266 14.2555 28.7099 14.6388Z" fill="#85340A"/>
<path d="M28.2234 14.8805C28.2863 14.8805 28.3373 14.8295 28.3373 14.7666C28.3373 14.7037 28.2863 14.6527 28.2234 14.6527C28.1605 14.6527 28.1095 14.7037 28.1095 14.7666C28.1095 14.8295 28.1605 14.8805 28.2234 14.8805Z" fill="#85340A"/>
<path d="M28.56 14.8443C28.3433 15.011 28.1211 14.9999 27.9961 14.9221C27.8711 14.8443 27.8711 14.8193 27.8933 14.8193C27.9183 14.8193 27.9461 14.8443 28.0489 14.8971C28.1461 14.9527 28.3016 14.9527 28.56 14.8443Z" fill="#85340A"/>
<path d="M27.4075 15.2277C27.3547 15.2388 27.3103 15.2888 27.3103 15.3415C27.3103 15.4082 27.3631 15.4554 27.4242 15.4554C27.4603 15.4554 27.4964 15.4388 27.5214 15.4082C27.5631 15.4443 27.6297 15.4443 27.6603 15.4443C27.6659 15.4443 27.6714 15.4443 27.677 15.4443C27.7075 15.4443 27.7742 15.4388 27.8158 15.4082C27.8408 15.4388 27.8686 15.4554 27.9131 15.4554C27.9797 15.4554 28.027 15.4082 28.027 15.3415C28.027 15.2888 27.9908 15.2388 27.9297 15.2277C27.9603 15.2388 27.977 15.2693 27.977 15.2999C27.977 15.3415 27.9408 15.3777 27.8992 15.3777C27.8575 15.3777 27.827 15.3471 27.8214 15.3054C27.8103 15.3304 27.7603 15.4082 27.6603 15.4082C27.5631 15.4027 27.5159 15.3304 27.4992 15.3054C27.4992 15.3471 27.4631 15.3777 27.4214 15.3777C27.3797 15.3777 27.3436 15.3415 27.3436 15.2999C27.3547 15.2693 27.3714 15.2388 27.4075 15.2277Z" fill="#85340A"/>
<path d="M27.5269 15.5693C27.4019 15.5693 27.3463 15.6832 27.2324 15.761C27.2991 15.736 27.3463 15.6832 27.4352 15.636C27.5241 15.5832 27.6019 15.6471 27.6519 15.6471C27.7046 15.6471 27.7769 15.586 27.8685 15.636C27.9574 15.6888 28.013 15.7388 28.0713 15.761C27.9574 15.6832 27.9047 15.5693 27.7769 15.5693C27.7519 15.5693 27.6991 15.5804 27.6519 15.611C27.6074 15.5888 27.5574 15.5693 27.5269 15.5693Z" fill="#85340A"/>
<path d="M27.4851 15.7251C27.4379 15.7251 27.3657 15.7362 27.2684 15.7668C27.4962 15.714 27.5518 15.7918 27.6518 15.7918C27.7545 15.7918 27.8073 15.714 28.0351 15.7668C27.7768 15.689 27.7295 15.7418 27.6518 15.7418C27.6129 15.739 27.5712 15.7196 27.4851 15.7251Z" fill="#85340A"/>
<path d="M27.2871 15.7612C27.276 15.7612 27.2565 15.7612 27.2399 15.7612C27.5093 15.7862 27.3788 15.9418 27.6593 15.9418C27.9426 15.9418 27.8149 15.7862 28.0843 15.7612C27.801 15.7362 27.8926 15.9001 27.6593 15.9001C27.4426 15.9057 27.5093 15.7612 27.2871 15.7612Z" fill="#85340A"/>
<path d="M27.8928 16.1833C27.8928 16.0583 27.79 15.9555 27.665 15.9555C27.54 15.9555 27.4373 16.0583 27.4373 16.1833C27.4623 16.0749 27.5567 16.0027 27.665 16.0027C27.7678 15.9972 27.8622 16.0749 27.8928 16.1833Z" fill="#85340A"/>
<path d="M26.6215 14.6388C26.9159 14.3805 27.2881 14.3444 27.4909 14.5361C27.5381 14.6027 27.5742 14.675 27.5881 14.7527C27.6131 14.8972 27.5715 15.0583 27.4548 15.2194C27.4659 15.2194 27.4909 15.2305 27.5076 15.2444C27.6104 15.0527 27.6465 14.8472 27.6104 14.6611C27.6048 14.6138 27.5854 14.5638 27.5687 14.5166C27.2881 14.2805 26.9048 14.2555 26.6215 14.6388Z" fill="#85340A"/>
<path d="M27.085 14.561C27.2517 14.561 27.2878 14.5971 27.3683 14.6638C27.4461 14.7305 27.4822 14.7166 27.4933 14.7305C27.5045 14.7416 27.4933 14.7833 27.4683 14.7666C27.4433 14.7499 27.3906 14.7305 27.3128 14.6638C27.235 14.5971 27.1572 14.5971 27.085 14.5971C26.8572 14.5971 26.7239 14.7888 26.7017 14.7777C26.6767 14.7722 26.8267 14.561 27.085 14.561Z" fill="#85340A"/>
<path d="M27.0772 14.6473C26.9633 14.6473 26.855 14.6946 26.7883 14.7973C26.9133 14.9112 27.2022 14.9223 27.3939 14.7862C27.3133 14.6946 27.1939 14.6473 27.0772 14.6473ZM27.0772 14.6696C27.1856 14.6696 27.2939 14.7168 27.305 14.7723C27.18 14.9168 26.9689 14.8973 26.8439 14.7973C26.8994 14.7057 26.9883 14.6696 27.0772 14.6696Z" fill="#843511"/>
<path d="M27.0906 14.8805C27.1535 14.8805 27.2045 14.8295 27.2045 14.7666C27.2045 14.7037 27.1535 14.6527 27.0906 14.6527C27.0277 14.6527 26.9767 14.7037 26.9767 14.7666C26.9767 14.8295 27.0277 14.8805 27.0906 14.8805Z" fill="#85340A"/>
<path d="M26.7771 14.8443C26.9938 15.011 27.216 14.9999 27.341 14.9221C27.466 14.8443 27.466 14.8193 27.4438 14.8193C27.4188 14.8193 27.391 14.8443 27.2882 14.8971C27.1854 14.9527 27.0354 14.9527 26.7771 14.8443Z" fill="#85340A"/>
</g>
<defs>
<clipPath id="clip0_93_20074">
<rect width="53.3333" height="30" fill="white" transform="translate(0.993164)"/>
</clipPath>
</defs>
</svg>
