<svg width="54" height="30" viewBox="0 0 54 30" fill="none" xmlns="http://www.w3.org/2000/svg">
<g clip-path="url(#clip0_93_20142)">
<path d="M0.325195 0H53.6585V30H0.325195V0Z" fill="#418FDE"/>
<path d="M0.325195 20H53.6585V21.6639H0.325195V23.3278H53.6585V25H0.325195V20Z" fill="#FFD100"/>
<path d="M8.35338 5.625L7.30616 2.25L6.26727 5.625L2.89227 6.66389L6.26727 7.71111L7.30616 11.0861L8.35338 7.71111L11.7284 6.66389L8.35338 5.625Z" fill="#EF3340"/>
<path d="M7.30523 11.6501L6.13023 7.83897L2.3219 6.66397L6.13023 5.48897L7.30523 1.67786L8.48023 5.48897L12.2913 6.66397L8.48023 7.83897L7.30523 11.6501ZM3.45523 6.66397L6.39968 7.57508L7.31079 10.5195L8.2219 7.57508L11.1663 6.66397L8.2219 5.75286L7.31079 2.80841L6.39968 5.75286L3.45523 6.66397Z" fill="white"/>
</g>
<defs>
<clipPath id="clip0_93_20142">
<rect width="53.3333" height="30" fill="white" transform="translate(0.325195)"/>
</clipPath>
</defs>
</svg>
