<svg width="55" height="32" viewBox="0 0 55 32" fill="none" xmlns="http://www.w3.org/2000/svg">
<path d="M54.3883 2H0.943848V32H54.3883V2Z" fill="#012169"/>
<path d="M0.943359 2L27.6656 15.3611L0.943359 2ZM27.6656 2L0.943359 15.3611L27.6656 2Z" fill="black"/>
<path d="M27.0684 16.5555L14.3045 10.175L1.54064 16.5555L0.346191 14.1667L11.3156 8.68054L0.346191 3.19443L1.54064 0.805542L14.3045 7.1861L27.0684 0.805542L28.2629 3.19443L17.2934 8.68054L28.2629 14.1667L27.0684 16.5555Z" fill="white"/>
<path d="M0.943115 2L27.6653 15.3611L0.943115 2ZM27.6653 2L0.943115 15.3611L27.6653 2Z" fill="black"/>
<path d="M27.2684 16.1583L14.3045 9.67776L1.34059 16.1583L0.546143 14.5639L12.3128 8.68054L0.546143 2.7972L1.34059 1.20276L14.3045 7.68331L27.2684 1.20276L28.0628 2.7972L16.2961 8.68054L28.0628 14.5639L27.2684 16.1583Z" fill="#E4002B"/>
<path d="M14.305 2V15.3611V2ZM0.943848 8.68056H27.6661H0.943848Z" fill="black"/>
<path d="M16.53 15.3611H12.08V10.9056H0.943848V6.45555H12.08V2H16.53V6.45555H27.6661V10.9056H16.53V15.3611Z" fill="white"/>
<path d="M14.305 2V15.3611V2ZM0.943848 8.68056H27.6661H0.943848Z" fill="black"/>
<path d="M15.6411 15.3611H12.9688V10.0167H0.943848V7.34444H12.9688V2H15.6411V7.34444H27.6661V10.0167H15.6411V15.3611Z" fill="#E4002B"/>
<path d="M14.3043 18.0333L15.0766 20.4389L17.4349 19.5444L16.0349 21.65L18.2071 22.9389L15.6932 23.1555L16.0404 25.6555L14.3043 23.8222L12.5627 25.65L12.9099 23.15L10.396 22.9333L12.5682 21.6444L11.1682 19.5389L13.5266 20.4333L14.3043 18.0333Z" fill="white"/>
<path d="M41.0266 22.3584L41.3933 23.5028L42.5155 23.0778L41.8516 24.0806L42.8878 24.6945L41.6905 24.8001L41.8544 25.9889L41.0266 25.1195L40.1989 25.9917L40.3628 24.8028L39.1655 24.6973L40.2016 24.0834L39.5378 23.0806L40.66 23.5056L41.0266 22.3584Z" fill="white"/>
<path d="M34.3465 11.7833L34.7131 12.9278L35.8353 12.5028L35.1715 13.5055L36.2076 14.1194L35.0103 14.225L35.1742 15.4139L34.3465 14.5417L33.5187 15.4139L33.6826 14.225L32.4854 14.1194L33.5215 13.5055L32.8576 12.5028L33.9798 12.9278L34.3465 11.7833Z" fill="white"/>
<path d="M41.0266 4.54724L41.3933 5.69169L42.5155 5.26669L41.8516 6.26946L42.8878 6.88335L41.6905 6.98891L41.8544 8.1778L41.0266 7.30558L40.1989 8.1778L40.3628 6.98891L39.1655 6.88335L40.2016 6.26946L39.5378 5.26669L40.66 5.69169L41.0266 4.54724Z" fill="white"/>
<path d="M46.9632 10L47.3298 11.1444L48.4521 10.7194L47.7882 11.7222L48.8243 12.3361L47.6271 12.4417L47.7909 13.6306L46.9632 12.7583L46.1354 13.6306L46.2993 12.4417L45.1021 12.3361L46.1382 11.7222L45.4743 10.7194L46.5965 11.1444L46.9632 10Z" fill="white"/>
<path d="M43.6988 15.3612L43.9905 16.0751L44.7599 16.1306L44.171 16.6279L44.3544 17.3751L43.6988 16.9695L43.0433 17.3751L43.2266 16.6279L42.6377 16.1306L43.4071 16.0751L43.6988 15.3612Z" fill="white"/>
</svg>
