<svg width="54" height="30" viewBox="0 0 54 30" fill="none" xmlns="http://www.w3.org/2000/svg">
<g clip-path="url(#clip0_93_20147)">
<path d="M53.699 -2.80566H0.28241V32.8054H53.699V-2.80566Z" fill="#00267F"/>
<path d="M35.8943 -2.80566H18.0887V32.8054H35.8943V-2.80566Z" fill="#FFC726"/>
<path d="M26.9912 6.375C26.4106 7.95278 25.8245 9.59444 24.5578 10.8556C24.9495 10.7278 25.6356 10.6111 26.0745 10.6194V17.2583L24.2023 17.5361C24.1356 17.5278 24.1134 17.425 24.1134 17.2833C23.9328 15.2222 23.4439 13.4917 22.8856 11.7C22.8467 11.4556 22.1328 10.5222 22.6828 10.6861C22.7495 10.6972 23.48 10.9917 23.3662 10.85C22.3689 9.81667 20.9134 9.07222 19.4939 8.85278C19.3689 8.81944 19.2939 8.88611 19.4078 9.02778C21.2912 11.9167 22.8606 15.3278 22.8467 19.3778C23.5773 19.3778 25.3467 18.9472 26.08 18.9472V23.6306H27.0023L27.2134 10.55L26.9912 6.375Z" fill="black"/>
<path d="M26.9911 6.375C27.5716 7.95278 28.1577 9.59444 29.4244 10.8556C29.0327 10.7278 28.3466 10.6111 27.9077 10.6194V17.2583L29.7799 17.5361C29.8466 17.5278 29.8688 17.425 29.8688 17.2833C30.0494 15.2222 30.5383 13.4917 31.0966 11.7C31.1355 11.4556 31.8494 10.5222 31.2994 10.6861C31.2327 10.6972 30.5022 10.9917 30.616 10.85C31.6133 9.81667 33.0688 9.07222 34.4883 8.85278C34.6133 8.81944 34.6883 8.88611 34.5744 9.02778C32.6938 11.9194 31.1244 15.3306 31.1383 19.3806C30.4077 19.3806 28.6383 18.95 27.9049 18.95V23.6333H26.9827L26.7716 10.5528L26.9911 6.375Z" fill="black"/>
</g>
<defs>
<clipPath id="clip0_93_20147">
<rect width="53.3333" height="30" fill="white" transform="translate(0.324219)"/>
</clipPath>
</defs>
</svg>
