<svg width="54" height="30" viewBox="0 0 54 30" fill="none" xmlns="http://www.w3.org/2000/svg">
<g clip-path="url(#clip0_93_5168)">
<path d="M58.0266 -0.107544H-4.03455V30.923H58.0266V-0.107544Z" fill="#002395"/>
<path d="M12.4125 -0.107544H43.443V30.923L12.4125 -0.107544Z" fill="#FECB00"/>
<path d="M5.09572 1.92248L6.82627 -3.40808L8.55682 1.92248L4.01794 -1.37475H9.62627L5.09572 1.92248Z" fill="white"/>
<path d="M8.97365 5.80223L10.7042 0.47168L12.4348 5.80223L7.89587 2.50501H13.5042L8.97365 5.80223Z" fill="white"/>
<path d="M12.8539 9.68114L14.5845 4.35059L16.315 9.68114L11.7761 6.38392H17.3845L12.8539 9.68114Z" fill="white"/>
<path d="M16.7318 13.5581L18.4624 8.22754L20.1929 13.5581L15.6541 10.2636H21.2624L16.7318 13.5581Z" fill="white"/>
<path d="M20.6123 17.4381L22.3429 12.1075L24.0734 17.4381L19.5317 14.1409H25.1401L20.6123 17.4381Z" fill="white"/>
<path d="M24.4903 21.3168L26.2208 15.9862L27.9514 21.3168L23.4125 18.0195H29.0208L24.4903 21.3168Z" fill="white"/>
<path d="M28.3679 25.197L30.0985 19.8665L31.8291 25.197L27.2902 21.8998H32.8985L28.3679 25.197Z" fill="white"/>
<path d="M32.2482 29.074L33.9787 23.7434L35.7093 29.074L31.1704 25.7768H36.7787L32.2482 29.074Z" fill="white"/>
<path d="M36.1261 32.9529L37.8567 27.6223L39.5872 32.9529L35.0483 29.6556H40.6567L36.1261 32.9529Z" fill="white"/>
</g>
<defs>
<clipPath id="clip0_93_5168">
<rect width="53.3333" height="30" fill="white" transform="translate(0.329102)"/>
</clipPath>
</defs>
</svg>
