<svg width="55" height="30" viewBox="0 0 55 30" fill="none" xmlns="http://www.w3.org/2000/svg">
<g clip-path="url(#clip0_93_20534)">
<path d="M54.3197 0H0.986328V30H54.3197V0Z" fill="#009B3A"/>
<path d="M45.4385 15.0001L38.2941 19.5584L37.3913 20.1362L27.6524 26.3584L12.5385 16.7084L11.5941 16.1001L9.8663 15.0001L27.6524 3.64172L45.4385 15.0001Z" fill="#FEDF00"/>
<path d="M35.1532 15C35.1532 15.3583 35.1282 15.7083 35.0809 16.0528C35.0226 16.4583 34.9309 16.8556 34.8143 17.2361C33.8615 20.2861 31.0171 22.5 27.6532 22.5C23.5115 22.5 20.1532 19.1417 20.1532 15C20.1532 14.35 20.2365 13.7139 20.3921 13.1139C20.4921 12.7139 20.6309 12.3333 20.7921 11.9639C21.9559 9.33333 24.5865 7.5 27.6532 7.5C31.7948 7.5 35.1532 10.8583 35.1532 15Z" fill="#002776"/>
<path d="M35.0808 16.0528C35.0225 16.4583 34.9308 16.8555 34.8141 17.2361C31.778 14.5111 27.7669 12.8555 23.3669 12.8555C22.3558 12.8555 21.3558 12.9444 20.3919 13.1111C20.4919 12.7111 20.6308 12.3305 20.7919 11.9611C21.6308 11.8417 22.4947 11.7833 23.3697 11.7833C27.8252 11.7861 31.9141 13.3861 35.0808 16.0528Z" fill="white"/>
<path fill-rule="evenodd" clip-rule="evenodd" d="M21.2527 12.8085C21.4305 12.7835 21.5499 12.6112 21.5277 12.4168C21.5027 12.2196 21.3444 12.0779 21.1638 12.1001C20.986 12.1251 20.8666 12.2974 20.8888 12.4918C20.9138 12.6918 21.0805 12.8279 21.2527 12.8085ZM21.2416 12.6779C21.3416 12.6668 21.4138 12.5529 21.4027 12.4335C21.386 12.3085 21.2888 12.2196 21.1888 12.2307C21.0888 12.2418 21.0166 12.3557 21.0277 12.4751C21.0388 12.5946 21.136 12.6918 21.2416 12.6779Z" fill="#009B3A"/>
<path fill-rule="evenodd" clip-rule="evenodd" d="M21.8366 12.7444L21.9671 12.7333L21.9505 12.4722L22.2366 12.4555C22.3616 12.45 22.4505 12.3416 22.4449 12.2166C22.4394 12.0916 22.331 12.0027 22.206 12.0083L21.8005 12.0389L21.8366 12.7444ZM21.9449 12.3389L22.2199 12.3222C22.2727 12.3166 22.3088 12.275 22.3033 12.2278C22.2977 12.175 22.256 12.1389 22.2088 12.1444L21.9338 12.1611L21.9449 12.3389Z" fill="#009B3A"/>
<path d="M22.4446 12.7028C22.4391 12.6028 22.4196 12.375 22.2724 12.3861L22.0807 12.3972C22.3057 12.3806 22.3196 12.6056 22.3252 12.7056" fill="#009B3A"/>
<path fill-rule="evenodd" clip-rule="evenodd" d="M22.7419 12.6833L23.0808 12.6778C23.2474 12.6778 23.3836 12.5361 23.3836 12.3695V12.2695C23.3836 12.1028 23.2419 11.9667 23.0752 11.9667L22.7363 11.9722L22.7419 12.6833ZM22.8724 12.5528L23.0697 12.5472C23.178 12.5472 23.2613 12.4583 23.2613 12.35V12.2917C23.2613 12.1833 23.1724 12.1 23.0641 12.1L22.8669 12.1056L22.8724 12.5528Z" fill="#009B3A"/>
<path d="M23.6532 12.6778L24.2948 12.7028L24.3004 12.5722L23.7837 12.5556L23.7893 12.3722L24.2004 12.3833L24.2059 12.2583L23.7948 12.2472L23.8004 12.1056L24.2893 12.1222L24.2948 11.9917L23.6809 11.9667L23.6532 12.6778Z" fill="#009B3A"/>
<path d="M24.5587 12.7139L24.6782 12.725L24.7199 12.2361L24.8199 12.7361L24.9337 12.7472L25.1171 12.2722L25.0754 12.7611L25.1949 12.7722L25.2532 12.0583L25.0754 12.0417L24.8921 12.5167L24.7921 12.0167L24.6143 12L24.5587 12.7139Z" fill="#009B3A"/>
<path d="M26.0339 12.8805L26.5645 12.9694L26.5812 12.85L26.1756 12.7777L26.2062 12.6166L26.5395 12.675L26.5562 12.5555L26.2228 12.4972L26.2395 12.3833L26.6312 12.45L26.6478 12.3305L26.1312 12.2416L26.0339 12.8805Z" fill="#009B3A"/>
<path fill-rule="evenodd" clip-rule="evenodd" d="M27.3919 13.15L27.5225 13.1861L27.5891 12.9306L27.8641 13.0028C27.9836 13.0333 28.1086 12.9611 28.1391 12.8417C28.1697 12.7222 28.0975 12.5972 27.978 12.5667L27.5863 12.4667L27.3919 13.15ZM27.6225 12.7972L27.8891 12.8695C27.9363 12.8806 27.9891 12.8528 28.003 12.8028C28.0141 12.7556 27.9863 12.7028 27.9363 12.6889L27.6697 12.6167L27.6225 12.7972Z" fill="#009B3A"/>
<path fill-rule="evenodd" clip-rule="evenodd" d="M28.2718 13.3804L28.3968 13.4221L28.4746 13.1666L28.7496 13.2499C28.8691 13.286 28.9941 13.2193 29.0302 13.0999C29.0663 12.9804 28.9996 12.8554 28.8802 12.8193L28.494 12.6943L28.2718 13.3804ZM28.5163 13.0416L28.7774 13.1249C28.8246 13.1416 28.8774 13.1138 28.8913 13.0666C28.9079 13.0193 28.8802 12.9666 28.8329 12.9527L28.5718 12.8693L28.5163 13.0416Z" fill="#009B3A"/>
<path d="M28.8502 13.5666C28.8808 13.4721 28.9447 13.2582 28.803 13.2082L28.6197 13.1499C28.8335 13.2166 28.7697 13.4305 28.7335 13.5305" fill="#009B3A"/>
<path fill-rule="evenodd" clip-rule="evenodd" d="M29.434 13.7751C29.6007 13.8335 29.7923 13.739 29.8618 13.5557C29.9312 13.3723 29.8507 13.1696 29.684 13.1085C29.5173 13.0473 29.3257 13.1446 29.2562 13.3279C29.1896 13.5112 29.2673 13.714 29.434 13.7751ZM29.4812 13.6501C29.5757 13.6862 29.6951 13.6196 29.7368 13.5085C29.7784 13.389 29.7368 13.2696 29.6423 13.2335C29.5479 13.1973 29.4284 13.264 29.3868 13.3751C29.3368 13.489 29.3868 13.614 29.4812 13.6501Z" fill="#009B3A"/>
<path fill-rule="evenodd" clip-rule="evenodd" d="M30.2721 14.1137C30.4332 14.186 30.6304 14.0971 30.7054 13.9165C30.7832 13.7387 30.7165 13.5304 30.5499 13.4582C30.3832 13.3859 30.1915 13.4748 30.1165 13.6554C30.0443 13.8387 30.111 14.0415 30.2721 14.1137ZM30.3249 13.9943C30.4193 14.036 30.5387 13.9776 30.586 13.8637C30.6332 13.7498 30.5971 13.6248 30.5026 13.5832C30.4082 13.5415 30.2887 13.5998 30.2415 13.7137C30.1943 13.8276 30.2304 13.9526 30.3249 13.9943Z" fill="#009B3A"/>
<path d="M30.4646 13.8063L30.4247 13.898L30.6693 14.0043L30.7091 13.9126L30.4646 13.8063Z" fill="#009B3A"/>
<path d="M30.6164 13.8732L30.4736 14.2018L30.5653 14.2417L30.7082 13.9131L30.6164 13.8732Z" fill="#009B3A"/>
<path fill-rule="evenodd" clip-rule="evenodd" d="M30.8087 14.3583L30.9282 14.4167L31.0476 14.1778L31.3032 14.3028C31.4171 14.3556 31.5476 14.3139 31.606 14.2028C31.6643 14.0889 31.6171 13.9583 31.506 13.9L31.1421 13.7167L30.8087 14.3583ZM31.106 14.0583L31.3504 14.1833C31.3976 14.2083 31.4504 14.1889 31.4754 14.1417C31.5004 14.0944 31.481 14.0417 31.4338 14.0167L31.1893 13.8917L31.106 14.0583Z" fill="#009B3A"/>
<path d="M31.3504 14.6251C31.3976 14.5362 31.4921 14.3334 31.356 14.2612L31.1837 14.1723C31.3865 14.2723 31.2837 14.4751 31.2365 14.564" fill="#009B3A"/>
<path d="M31.6162 14.7668L32.1746 15.0834L32.2412 14.9696L31.7885 14.714L31.8774 14.5529L32.2357 14.7557L32.294 14.6473L31.9357 14.4446L32.0079 14.3196L32.4357 14.564L32.5023 14.4501L31.9662 14.1473L31.6162 14.7668Z" fill="#009B3A"/>
<path d="M32.6582 15.1139C32.6221 15.1723 32.6582 15.2389 32.7471 15.2973C32.8304 15.35 32.8887 15.35 32.9137 15.3084C32.9915 15.1834 32.5387 15.0056 32.6804 14.7917C32.7998 14.6084 33.0082 14.75 33.0859 14.7973C33.1637 14.8445 33.2887 14.975 33.1943 15.1195L33.0637 15.0361C33.1054 14.9695 33.0582 14.9111 32.9915 14.8639C32.9248 14.8223 32.8721 14.8056 32.8304 14.8639C32.7637 14.9639 33.2054 15.15 33.0693 15.3639C32.9693 15.5195 32.7943 15.4528 32.6776 15.375C32.5776 15.3084 32.4332 15.1611 32.5276 15.0111L32.6582 15.1139Z" fill="#009B3A"/>
<path d="M33.4278 15.625C33.3861 15.6833 33.4222 15.75 33.5055 15.8083C33.5889 15.8667 33.6472 15.8667 33.6722 15.8333C33.7555 15.7139 33.3139 15.5111 33.4639 15.3028C33.5944 15.125 33.7916 15.2778 33.8694 15.3333C33.9472 15.3861 34.0611 15.5167 33.9583 15.6611L33.8333 15.5722C33.875 15.5139 33.8333 15.4472 33.7666 15.4C33.7 15.3528 33.6472 15.3333 33.6055 15.3944C33.5333 15.4889 33.9694 15.7028 33.8194 15.9056C33.7111 16.0556 33.5389 15.9778 33.4278 15.9C33.3333 15.8333 33.1889 15.675 33.2972 15.5306L33.4278 15.625Z" fill="#009B3A"/>
<path fill-rule="evenodd" clip-rule="evenodd" d="M34.1526 16.4471C34.2887 16.561 34.5026 16.5248 34.6276 16.3693C34.7526 16.2137 34.736 15.9999 34.5971 15.886C34.461 15.7721 34.2471 15.8082 34.1221 15.9637C33.9971 16.1193 34.011 16.3332 34.1526 16.4471ZM34.2304 16.3387C34.3137 16.4054 34.4387 16.3804 34.5165 16.2804C34.5943 16.186 34.5887 16.0554 34.511 15.9887C34.4332 15.9221 34.3026 15.9471 34.2248 16.0471C34.1471 16.1471 34.1526 16.2749 34.2304 16.3387Z" fill="#009B3A"/>
<path d="M21.5285 13.3334L21.4285 13.6362L21.584 13.6834" fill="white"/>
<path d="M21.5274 13.3334L21.6274 13.6362L21.4718 13.6834" fill="white"/>
<path d="M21.8358 13.5529H21.5136V13.714" fill="white"/>
<path d="M21.8369 13.5529L21.5758 13.7446L21.4814 13.614" fill="white"/>
<path d="M21.2256 13.5529L21.4867 13.7446L21.5811 13.614" fill="white"/>
<path d="M21.2256 13.5529H21.5478V13.714" fill="white"/>
<path d="M21.7196 13.9111L21.6196 13.6083L21.464 13.6555" fill="white"/>
<path d="M21.7202 13.9111L21.459 13.7195L21.5535 13.5889" fill="white"/>
<path d="M21.3448 13.9111L21.6059 13.7195L21.5115 13.5889" fill="white"/>
<path d="M21.3448 13.9111L21.4448 13.6083L21.6003 13.6555" fill="white"/>
<path d="M22.1948 16.4833L22.0948 16.7861L22.2503 16.8333" fill="white"/>
<path d="M22.1942 16.4833L22.2942 16.7861L22.1386 16.8333" fill="white"/>
<path d="M22.4977 16.7084H22.1755V16.8695" fill="white"/>
<path d="M22.4975 16.7084L22.2364 16.9L22.1419 16.7695" fill="white"/>
<path d="M21.8866 16.7084L22.1477 16.9L22.2422 16.7695" fill="white"/>
<path d="M21.8866 16.7084H22.2088V16.8695" fill="white"/>
<path d="M22.3859 17.0668L22.2859 16.764L22.1303 16.8112" fill="white"/>
<path d="M22.387 17.0665L22.1259 16.8749L22.2203 16.7443" fill="white"/>
<path d="M22.0029 17.0665L22.264 16.8749L22.1695 16.7443" fill="white"/>
<path d="M22.0029 17.0668L22.1029 16.764L22.2584 16.8112" fill="white"/>
<path d="M21.2778 17.2139L21.1945 17.4695L21.3195 17.5112" fill="white"/>
<path d="M21.278 17.2139L21.3613 17.4695L21.2363 17.5112" fill="white"/>
<path d="M21.5283 17.4H21.2616V17.5361" fill="white"/>
<path d="M21.528 17.4L21.3141 17.5555L21.2363 17.4472" fill="white"/>
<path d="M21.0219 17.4L21.2358 17.5555L21.3135 17.4472" fill="white"/>
<path d="M21.0219 17.4H21.2885V17.5361" fill="white"/>
<path d="M21.4339 17.6971L21.3506 17.4416L21.2256 17.4833" fill="white"/>
<path d="M21.4337 17.6973L21.2198 17.5417L21.2976 17.4334" fill="white"/>
<path d="M21.1163 17.6973L21.3302 17.5417L21.2524 17.4334" fill="white"/>
<path d="M21.1163 17.6971L21.1996 17.4416L21.3246 17.4833" fill="white"/>
<path d="M22.9276 16.197L22.8803 16.3387L22.9526 16.3637" fill="white"/>
<path d="M22.9282 16.197L22.9754 16.3387L22.9032 16.3637" fill="white"/>
<path d="M23.0747 16.2974H22.9192V16.3751" fill="white"/>
<path d="M23.0754 16.2974L22.9504 16.3862L22.9032 16.3279" fill="white"/>
<path d="M22.7839 16.2974L22.9089 16.3862L22.9562 16.3279" fill="white"/>
<path d="M22.7839 16.2974H22.9395V16.3751" fill="white"/>
<path d="M23.0163 16.4694L22.9691 16.3277L22.8969 16.3527" fill="white"/>
<path d="M23.0169 16.4692L22.8919 16.3804L22.9391 16.322" fill="white"/>
<path d="M22.836 16.4692L22.961 16.3804L22.9138 16.322" fill="white"/>
<path d="M22.836 16.4694L22.8833 16.3277L22.9555 16.3527" fill="white"/>
<path d="M23.7525 17.2861L23.6692 17.5416L23.7942 17.5833" fill="white"/>
<path d="M23.7527 17.2861L23.836 17.5416L23.711 17.5833" fill="white"/>
<path d="M24.0113 17.4696H23.7446V17.6057" fill="white"/>
<path d="M24.0115 17.4696L23.7976 17.6251L23.7198 17.5168" fill="white"/>
<path d="M23.4971 17.4696L23.711 17.6251L23.7887 17.5168" fill="white"/>
<path d="M23.4971 17.4696H23.7637V17.6057" fill="white"/>
<path d="M23.9141 17.7665L23.8308 17.511L23.7057 17.5527" fill="white"/>
<path d="M23.9147 17.7666L23.7008 17.6111L23.7786 17.5027" fill="white"/>
<path d="M23.6006 17.7666L23.8145 17.6111L23.7367 17.5027" fill="white"/>
<path d="M23.6006 17.7665L23.6839 17.511L23.8089 17.5527" fill="white"/>
<path d="M23.5277 18.0834L23.461 18.2861L23.561 18.3223" fill="white"/>
<path d="M23.5279 18.0834L23.5946 18.2861L23.4946 18.3223" fill="white"/>
<path d="M23.7358 18.2333H23.5219V18.3417" fill="white"/>
<path d="M23.736 18.2333L23.5637 18.3583L23.4971 18.2694" fill="white"/>
<path d="M23.3258 18.2333L23.498 18.3583L23.5647 18.2694" fill="white"/>
<path d="M23.3258 18.2333H23.5397V18.3417" fill="white"/>
<path d="M23.658 18.4695L23.5913 18.2667L23.4913 18.3028" fill="white"/>
<path d="M23.6586 18.4696L23.4863 18.3446L23.553 18.2557" fill="white"/>
<path d="M23.4032 18.4696L23.5754 18.3446L23.5087 18.2557" fill="white"/>
<path d="M23.4032 18.4695L23.4698 18.2667L23.5698 18.3028" fill="white"/>
<path d="M29.9803 12.3501L29.8803 12.6529L30.0358 12.7001" fill="white"/>
<path d="M29.9811 12.3501L30.0811 12.6529L29.9255 12.7001" fill="white"/>
<path d="M30.2833 12.5721H29.961V12.7332" fill="white"/>
<path d="M30.284 12.5721L30.0229 12.7637L29.9285 12.6332" fill="white"/>
<path d="M29.6784 12.5721L29.9395 12.7637L30.034 12.6332" fill="white"/>
<path d="M29.6784 12.5721H30.0007V12.7332" fill="white"/>
<path d="M30.1695 12.9335L30.0695 12.6307L29.9139 12.6779" fill="white"/>
<path d="M30.17 12.9332L29.9089 12.7416L30.0033 12.611" fill="white"/>
<path d="M29.7889 12.9332L30.05 12.7416L29.9556 12.611" fill="white"/>
<path d="M29.7889 12.9335L29.8889 12.6307L30.0445 12.6779" fill="white"/>
<path d="M32.9087 17.3084L32.8087 17.6112L32.9643 17.6584" fill="white"/>
<path d="M32.9086 17.3084L33.0086 17.6112L32.853 17.6584" fill="white"/>
<path d="M33.2108 17.5361H32.8886V17.6972" fill="white"/>
<path d="M33.212 17.5361L32.9509 17.7277L32.8564 17.5972" fill="white"/>
<path d="M32.6064 17.5361L32.8675 17.7277L32.962 17.5972" fill="white"/>
<path d="M32.6064 17.5361H32.9286V17.6972" fill="white"/>
<path d="M33.1003 17.8918L33.0003 17.589L32.8448 17.6362" fill="white"/>
<path d="M33.1 17.8916L32.8389 17.6999L32.9334 17.5694" fill="white"/>
<path d="M32.7198 17.8916L32.9809 17.6999L32.8865 17.5694" fill="white"/>
<path d="M32.7198 17.8918L32.8198 17.589L32.9753 17.6362" fill="white"/>
<path d="M33.9504 17.4887L33.8837 17.6915L33.9837 17.7276" fill="white"/>
<path d="M33.9505 17.4887L34.0172 17.6915L33.9172 17.7276" fill="white"/>
<path d="M34.1527 17.6363H33.9388V17.7446" fill="white"/>
<path d="M34.1528 17.6363L33.9806 17.7613L33.9139 17.6724" fill="white"/>
<path d="M33.7412 17.6363L33.9135 17.7613L33.9801 17.6724" fill="white"/>
<path d="M33.7412 17.6363H33.9551V17.7446" fill="white"/>
<path d="M34.0755 17.8751L34.0089 17.6723L33.9089 17.7084" fill="white"/>
<path d="M34.0754 17.875L33.9031 17.75L33.9698 17.6611" fill="white"/>
<path d="M33.8257 17.875L33.9979 17.75L33.9313 17.6611" fill="white"/>
<path d="M33.8257 17.8751L33.8924 17.6723L33.9924 17.7084" fill="white"/>
<path d="M33.2112 18.0304L33.1279 18.286L33.2529 18.3276" fill="white"/>
<path d="M33.2109 18.0304L33.2942 18.286L33.1692 18.3276" fill="white"/>
<path d="M33.4695 18.2139H33.2028V18.35" fill="white"/>
<path d="M33.4701 18.2139L33.2562 18.3695L33.1785 18.2612" fill="white"/>
<path d="M32.9557 18.2139L33.1696 18.3695L33.2474 18.2612" fill="white"/>
<path d="M32.9557 18.2139H33.2224V18.35" fill="white"/>
<path d="M33.3722 18.5112L33.2889 18.2557L33.1639 18.2973" fill="white"/>
<path d="M33.3728 18.5111L33.1589 18.3556L33.2367 18.2473" fill="white"/>
<path d="M33.0587 18.5111L33.2726 18.3556L33.1949 18.2473" fill="white"/>
<path d="M33.0587 18.5112L33.1421 18.2557L33.2671 18.2973" fill="white"/>
<path d="M31.4091 19.6L31.3257 19.8556L31.4507 19.8973" fill="white"/>
<path d="M31.4079 19.6L31.4912 19.8556L31.3662 19.8973" fill="white"/>
<path d="M31.6636 19.7861H31.3969V19.9222" fill="white"/>
<path d="M31.6637 19.7861L31.4498 19.9416L31.3721 19.8333" fill="white"/>
<path d="M31.1532 19.7861L31.3671 19.9416L31.4448 19.8333" fill="white"/>
<path d="M31.1532 19.7861H31.4198V19.9222" fill="white"/>
<path d="M31.5647 20.0833L31.4814 19.8277L31.3564 19.8694" fill="white"/>
<path d="M31.5644 20.0832L31.3506 19.9277L31.4283 19.8193" fill="white"/>
<path d="M31.2471 20.0832L31.461 19.9277L31.3832 19.8193" fill="white"/>
<path d="M31.2471 20.0833L31.3304 19.8277L31.4554 19.8694" fill="white"/>
<path d="M31.3974 20.4111L31.3307 20.6138L31.4307 20.65" fill="white"/>
<path d="M31.398 20.4111L31.4646 20.6138L31.3646 20.65" fill="white"/>
<path d="M31.6005 20.553H31.3866V20.6613" fill="white"/>
<path d="M31.6002 20.553L31.428 20.678L31.3613 20.5891" fill="white"/>
<path d="M31.1945 20.553L31.3667 20.678L31.4334 20.5891" fill="white"/>
<path d="M31.1945 20.553H31.4084V20.6613" fill="white"/>
<path d="M31.5231 20.7974L31.4564 20.5946L31.3564 20.6307" fill="white"/>
<path d="M31.5228 20.7973L31.3506 20.6723L31.4172 20.5834" fill="white"/>
<path d="M31.2719 20.7973L31.4442 20.6723L31.3775 20.5834" fill="white"/>
<path d="M31.2719 20.7974L31.3386 20.5946L31.4386 20.6307" fill="white"/>
<path d="M32.1527 19.0584L32.086 19.2612L32.186 19.2973" fill="white"/>
<path d="M32.153 19.0584L32.2197 19.2612L32.1197 19.2973" fill="white"/>
<path d="M32.3558 19.2084H32.1419V19.3167" fill="white"/>
<path d="M32.3551 19.2084L32.1829 19.3334L32.1162 19.2445" fill="white"/>
<path d="M31.9507 19.2084L32.1229 19.3334L32.1896 19.2445" fill="white"/>
<path d="M31.9507 19.2084H32.1646V19.3167" fill="white"/>
<path d="M32.278 19.4471L32.2113 19.2443L32.1113 19.2804" fill="white"/>
<path d="M32.2786 19.4472L32.1064 19.3222L32.1731 19.2333" fill="white"/>
<path d="M32.0282 19.4472L32.2004 19.3222L32.1337 19.2333" fill="white"/>
<path d="M32.0282 19.4471L32.0948 19.2443L32.1948 19.2804" fill="white"/>
<path d="M32.7525 18.6307L32.6692 18.8862L32.7942 18.9279" fill="white"/>
<path d="M32.7527 18.6307L32.836 18.8862L32.711 18.9279" fill="white"/>
<path d="M33.0113 18.8166H32.7447V18.9527" fill="white"/>
<path d="M33.0115 18.8166L32.7976 18.9721L32.7198 18.8638" fill="white"/>
<path d="M32.4971 18.8166L32.711 18.9721L32.7887 18.8638" fill="white"/>
<path d="M32.4971 18.8166H32.7637V18.9527" fill="white"/>
<path d="M32.9141 19.1139L32.8307 18.8583L32.7057 18.9" fill="white"/>
<path d="M32.9146 19.1139L32.7007 18.9584L32.7785 18.85" fill="white"/>
<path d="M32.6006 19.1139L32.8144 18.9584L32.7367 18.85" fill="white"/>
<path d="M32.6006 19.1139L32.6839 18.8583L32.8089 18.9" fill="white"/>
<path d="M31.3783 18.9166L31.3116 19.1194L31.4116 19.1555" fill="white"/>
<path d="M31.3781 18.9166L31.4448 19.1194L31.3448 19.1555" fill="white"/>
<path d="M31.5801 19.0666H31.3662V19.1749" fill="white"/>
<path d="M31.5812 19.0666L31.409 19.1916L31.3423 19.1083" fill="white"/>
<path d="M31.1692 19.0666L31.3414 19.1916L31.4081 19.1027" fill="white"/>
<path d="M31.1692 19.0666H31.3831V19.1749" fill="white"/>
<path d="M31.5027 19.3028L31.436 19.1L31.336 19.1361" fill="white"/>
<path d="M31.503 19.3028L31.3307 19.1778L31.3974 19.0889" fill="white"/>
<path d="M31.2529 19.3028L31.4251 19.1778L31.3584 19.0889" fill="white"/>
<path d="M31.2529 19.3028L31.3195 19.1L31.4195 19.1361" fill="white"/>
<path d="M24.7944 15.0361L24.711 15.2916L24.836 15.3333" fill="white"/>
<path d="M24.7945 15.0361L24.8779 15.2916L24.7529 15.3333" fill="white"/>
<path d="M25.0531 15.225H24.7864V15.3611" fill="white"/>
<path d="M25.0533 15.225L24.8394 15.3806L24.7616 15.2723" fill="white"/>
<path d="M24.5389 15.225L24.7528 15.3806L24.8306 15.2723" fill="white"/>
<path d="M24.5389 15.225H24.8056V15.3611" fill="white"/>
<path d="M24.9496 15.5249L24.8663 15.2693L24.7413 15.311" fill="white"/>
<path d="M24.9502 15.5252L24.7363 15.3696L24.8141 15.2613" fill="white"/>
<path d="M24.6419 15.5252L24.8558 15.3696L24.778 15.2613" fill="white"/>
<path d="M24.6419 15.5249L24.7252 15.2693L24.8502 15.311" fill="white"/>
<path d="M29.6945 14.4111L29.6279 14.6139L29.7279 14.65" fill="white"/>
<path d="M29.6943 14.4111L29.761 14.6139L29.661 14.65" fill="white"/>
<path d="M29.8976 14.553H29.6837V14.6613" fill="white"/>
<path d="M29.8978 14.553L29.7255 14.678L29.6589 14.5891" fill="white"/>
<path d="M29.4912 14.553L29.6635 14.678L29.7301 14.5891" fill="white"/>
<path d="M29.4912 14.553H29.7051V14.6613" fill="white"/>
<path d="M29.8198 14.7974L29.7532 14.5946L29.6532 14.6307" fill="white"/>
<path d="M29.8192 14.7973L29.6469 14.6723L29.7136 14.5834" fill="white"/>
<path d="M29.5695 14.7973L29.7417 14.6723L29.675 14.5834" fill="white"/>
<path d="M29.5695 14.7974L29.6362 14.5946L29.7362 14.6307" fill="white"/>
<path d="M27.6535 18.0473L27.5535 18.3501L27.709 18.3973" fill="white"/>
<path d="M27.6524 18.0473L27.7524 18.3501L27.5968 18.3973" fill="white"/>
<path d="M27.9559 18.2667H27.6336V18.4278" fill="white"/>
<path d="M27.9561 18.2667L27.695 18.4584L27.6006 18.3278" fill="white"/>
<path d="M27.3506 18.2667L27.6117 18.4584L27.7062 18.3278" fill="white"/>
<path d="M27.3506 18.2667H27.6728V18.4278" fill="white"/>
<path d="M27.8446 18.6248L27.7446 18.322L27.589 18.3692" fill="white"/>
<path d="M27.8452 18.6252L27.584 18.4335L27.6785 18.303" fill="white"/>
<path d="M27.461 18.6252L27.7221 18.4335L27.6277 18.303" fill="white"/>
<path d="M27.461 18.6248L27.561 18.322L27.7166 18.3692" fill="white"/>
<path d="M28.5221 16.6083L28.4388 16.8638L28.5637 16.9055" fill="white"/>
<path d="M28.523 16.6083L28.6063 16.8638L28.4813 16.9055" fill="white"/>
<path d="M28.7783 16.7973H28.5116V16.9334" fill="white"/>
<path d="M28.778 16.7973L28.5641 16.9529L28.4863 16.8445" fill="white"/>
<path d="M28.267 16.7973L28.4809 16.9529L28.5586 16.8445" fill="white"/>
<path d="M28.267 16.7973H28.5336V16.9334" fill="white"/>
<path d="M28.6781 17.0945L28.5947 16.8389L28.4697 16.8806" fill="white"/>
<path d="M28.6779 17.0945L28.464 16.939L28.5418 16.8306" fill="white"/>
<path d="M28.3614 17.0945L28.5753 16.939L28.4975 16.8306" fill="white"/>
<path d="M28.3614 17.0945L28.4447 16.8389L28.5697 16.8806" fill="white"/>
<path d="M27.6528 15.9334L27.5695 16.189L27.6945 16.2306" fill="white"/>
<path d="M27.653 15.9334L27.7363 16.189L27.6113 16.2306" fill="white"/>
<path d="M27.9086 16.1193H27.6419V16.2554" fill="white"/>
<path d="M27.908 16.1193L27.6941 16.2749L27.6163 16.1665" fill="white"/>
<path d="M27.3969 16.1193L27.6108 16.2749L27.6885 16.1665" fill="white"/>
<path d="M27.3969 16.1193H27.6635V16.2554" fill="white"/>
<path d="M27.8089 16.4222L27.7256 16.1666L27.6006 16.2083" fill="white"/>
<path d="M27.8087 16.4222L27.5948 16.2667L27.6726 16.1583" fill="white"/>
<path d="M27.4971 16.4222L27.711 16.2667L27.6332 16.1583" fill="white"/>
<path d="M27.4971 16.4222L27.5804 16.1666L27.7054 16.2083" fill="white"/>
<path d="M26.8974 16.6611L26.8307 16.8638L26.9307 16.9" fill="white"/>
<path d="M26.898 16.6611L26.9646 16.8638L26.8646 16.9" fill="white"/>
<path d="M27.1005 16.8084H26.8866V16.9167" fill="white"/>
<path d="M27.1002 16.8084L26.928 16.9334L26.8613 16.8445" fill="white"/>
<path d="M26.6945 16.8084L26.8667 16.9334L26.9334 16.8445" fill="white"/>
<path d="M26.6945 16.8084H26.9084V16.9167" fill="white"/>
<path d="M27.023 17.0528L26.9564 16.85L26.8564 16.8861" fill="white"/>
<path d="M27.0228 17.0528L26.8506 16.9278L26.9173 16.8389" fill="white"/>
<path d="M26.7719 17.0528L26.9441 16.9278L26.8774 16.8389" fill="white"/>
<path d="M26.7719 17.0528L26.8385 16.85L26.9385 16.8861" fill="white"/>
<path d="M27.2786 17.2443L27.2314 17.386L27.3036 17.411" fill="white"/>
<path d="M27.2779 17.2443L27.3251 17.386L27.2529 17.411" fill="white"/>
<path d="M27.4192 17.35H27.2636V17.4278" fill="white"/>
<path d="M27.4193 17.35L27.2943 17.4389L27.2471 17.3806" fill="white"/>
<path d="M27.1279 17.35L27.2529 17.4389L27.3001 17.3806" fill="white"/>
<path d="M27.1279 17.35H27.2834V17.4278" fill="white"/>
<path d="M27.3665 17.525L27.3193 17.3834L27.2471 17.4084" fill="white"/>
<path d="M27.3663 17.525L27.2413 17.4361L27.2885 17.3777" fill="white"/>
<path d="M27.1837 17.525L27.3087 17.4361L27.2615 17.3777" fill="white"/>
<path d="M27.1837 17.525L27.231 17.3834L27.3032 17.4084" fill="white"/>
<path d="M29.8971 19.7861L29.8138 20.0416L29.9388 20.0833" fill="white"/>
<path d="M29.8981 19.7861L29.9814 20.0416L29.8564 20.0833" fill="white"/>
<path d="M30.1533 19.9696H29.8866V20.1057" fill="white"/>
<path d="M30.153 19.9696L29.9391 20.1252L29.8613 20.0168" fill="white"/>
<path d="M29.6419 19.9696L29.8558 20.1252L29.9336 20.0168" fill="white"/>
<path d="M29.6419 19.9696H29.9086V20.1057" fill="white"/>
<path d="M30.0589 20.2668L29.9756 20.0113L29.8506 20.053" fill="white"/>
<path d="M30.0587 20.2666L29.8448 20.1111L29.9226 20.0027" fill="white"/>
<path d="M29.7412 20.2666L29.9551 20.1111L29.8774 20.0027" fill="white"/>
<path d="M29.7412 20.2668L29.8246 20.0113L29.9496 20.053" fill="white"/>
<path d="M30.5385 19.1723L30.4718 19.3751L30.5718 19.4112" fill="white"/>
<path d="M30.5386 19.1723L30.6053 19.3751L30.5053 19.4112" fill="white"/>
<path d="M30.7421 19.322H30.5282V19.4304" fill="white"/>
<path d="M30.7418 19.322L30.5695 19.447L30.5029 19.3581" fill="white"/>
<path d="M30.336 19.322L30.5083 19.447L30.5749 19.3581" fill="white"/>
<path d="M30.336 19.322H30.5499V19.4304" fill="white"/>
<path d="M30.6637 19.5585L30.5971 19.3557L30.4971 19.3918" fill="white"/>
<path d="M30.6635 19.5585L30.4912 19.4335L30.5579 19.3446" fill="white"/>
<path d="M30.4139 19.5585L30.5861 19.4335L30.5195 19.3446" fill="white"/>
<path d="M30.4139 19.5585L30.4806 19.3557L30.5806 19.3918" fill="white"/>
<path d="M29.308 18.9887L29.2413 19.1915L29.3413 19.2276" fill="white"/>
<path d="M29.3077 18.9887L29.3744 19.1915L29.2744 19.2276" fill="white"/>
<path d="M29.5111 19.1363H29.2972V19.2446" fill="white"/>
<path d="M29.5108 19.1363L29.3386 19.2613L29.2719 19.1724" fill="white"/>
<path d="M29.1006 19.1363L29.2728 19.2613L29.3395 19.1724" fill="white"/>
<path d="M29.1006 19.1363H29.3145V19.2446" fill="white"/>
<path d="M29.4336 19.3751L29.3669 19.1723L29.2669 19.2084" fill="white"/>
<path d="M29.4339 19.375L29.2617 19.25L29.3283 19.1611" fill="white"/>
<path d="M29.1837 19.375L29.356 19.25L29.2893 19.1611" fill="white"/>
<path d="M29.1837 19.3751L29.2504 19.1723L29.3504 19.2084" fill="white"/>
<path d="M24.6422 18.6611L24.5422 18.9638L24.6978 19.0111" fill="white"/>
<path d="M24.6416 18.6611L24.7416 18.9638L24.586 19.0111" fill="white"/>
<path d="M24.9501 18.8807H24.6279V19.0418" fill="white"/>
<path d="M24.9503 18.8807L24.6892 19.0723L24.5948 18.9418" fill="white"/>
<path d="M24.336 18.8807L24.5971 19.0723L24.6916 18.9418" fill="white"/>
<path d="M24.336 18.8807H24.6583V19.0418" fill="white"/>
<path d="M24.8313 19.2388L24.7313 18.936L24.5758 18.9833" fill="white"/>
<path d="M24.8306 19.2388L24.5695 19.0472L24.6639 18.9166" fill="white"/>
<path d="M24.4557 19.2388L24.7169 19.0472L24.6224 18.9166" fill="white"/>
<path d="M24.4557 19.2388L24.5557 18.936L24.7113 18.9833" fill="white"/>
<path d="M27.6524 20.7613L27.6163 20.8613L27.6691 20.878" fill="white"/>
<path d="M27.6533 20.7613L27.6894 20.8613L27.6366 20.878" fill="white"/>
<path d="M27.7532 20.8334H27.6449V20.8862" fill="white"/>
<path d="M27.7531 20.8334L27.6642 20.9L27.6336 20.8584" fill="white"/>
<path d="M27.5535 20.8334L27.6424 20.9L27.6729 20.8584" fill="white"/>
<path d="M27.5535 20.8334H27.6618V20.8862" fill="white"/>
<path d="M27.7192 20.9527L27.6831 20.8527L27.6303 20.8693" fill="white"/>
<path d="M27.7192 20.9529L27.6303 20.8863L27.6609 20.8446" fill="white"/>
<path d="M27.586 20.9529L27.6749 20.8863L27.6444 20.8446" fill="white"/>
<path d="M27.586 20.9527L27.6221 20.8527L27.6749 20.8693" fill="white"/>
</g>
<defs>
<clipPath id="clip0_93_20534">
<rect width="53.3333" height="30" fill="white" transform="translate(0.986328)"/>
</clipPath>
</defs>
</svg>
