<svg width="54" height="30" viewBox="0 0 54 30" fill="none" xmlns="http://www.w3.org/2000/svg">
<g clip-path="url(#clip0_93_9710)">
<path d="M56.992 0H-3.008V30H56.992V0Z" fill="#F7E017"/>
<path d="M-3.008 2.08331V15.4166L56.992 21.6666V14.5833L-3.008 2.08331Z" fill="white"/>
<path d="M-3.008 9.16669V15.4167L56.992 27.9167V21.6667L-3.008 9.16669Z" fill="black"/>
<path d="M25.9802 23.739C25.1719 23.6306 24.433 23.3751 23.9219 23.0223C23.8219 22.9556 23.7302 22.8973 23.7136 22.8973C23.6969 22.8973 23.6858 22.9723 23.6858 23.0668C23.6858 23.3334 23.5774 23.4668 23.3108 23.539C23.0524 23.6056 22.6608 23.4723 22.3441 23.2056C22.0136 22.9334 21.6358 22.7251 21.3136 22.6418C21.0524 22.5695 20.6969 22.5834 20.4413 22.6695C20.3247 22.7112 20.1913 22.7668 20.1413 22.7945C20.0941 22.8223 20.0413 22.8501 20.0247 22.8501C19.9802 22.8501 19.9858 22.5668 20.033 22.4751C20.0969 22.3529 20.2497 22.2362 20.4247 22.1695C20.5163 22.1362 20.5858 22.0945 20.5858 22.0723C20.5858 22.0501 20.558 21.9862 20.5191 21.9195C20.3969 21.7084 20.4469 21.5029 20.6552 21.339C20.8719 21.1723 21.2386 21.1473 21.5608 21.2668C21.6441 21.2973 21.7191 21.3251 21.7274 21.3251C21.7691 21.3251 21.7441 21.2668 21.6274 21.0945C21.4941 20.8973 21.4663 20.7973 21.4802 20.564C21.5024 20.2695 21.7441 20.0223 22.0441 20.0001C22.2858 19.9834 22.4358 20.064 22.7941 20.4057C23.8663 21.4251 25.0247 21.9834 26.383 22.139C26.7247 22.1779 27.4108 22.1556 27.8163 22.0973C29.0358 21.914 30.2663 21.3029 31.2247 20.3973C31.4913 20.1473 31.6219 20.0807 31.8385 20.0807C32.0274 20.0807 32.1608 20.1445 32.2969 20.289C32.4219 20.4279 32.4635 20.5557 32.4524 20.764C32.4441 20.8973 32.4219 20.964 32.3441 21.0945C32.2274 21.2862 32.2469 21.3029 32.4774 21.214C32.7913 21.0945 33.1774 21.1473 33.3858 21.3473C33.5691 21.5223 33.5858 21.6973 33.4441 21.9362C33.3913 22.0223 33.3497 22.1029 33.3497 22.114C33.3497 22.139 33.3913 22.1473 33.5802 22.1806C33.8302 22.2223 33.9719 22.4056 33.9719 22.689C33.9719 22.7723 33.9608 22.8445 33.9469 22.8445C33.933 22.8445 33.8385 22.8112 33.7385 22.7695C33.4469 22.6473 33.2802 22.6195 32.9413 22.6195C32.683 22.6195 32.5969 22.6334 32.4135 22.6918C32.1385 22.7834 31.8413 22.9529 31.5997 23.1723C31.333 23.4112 31.1663 23.4862 30.908 23.4806C30.6663 23.4779 30.5024 23.4112 30.4163 23.2723C30.3691 23.1973 30.3608 23.1556 30.3747 22.989C30.383 22.8806 30.3774 22.7945 30.3691 22.7945C30.3608 22.7945 30.2635 22.8529 30.1608 22.9279C29.8858 23.1195 29.708 23.2112 29.3886 23.3362C28.4413 23.7112 27.0441 23.8779 25.9802 23.739Z" fill="#CF1126"/>
<path d="M26.4193 21.8832C24.811 21.7277 23.2721 20.8915 22.3415 19.561C21.3249 18.1777 21.0082 16.3471 21.3165 14.6777C21.4832 13.9165 21.8138 13.1582 22.3804 12.611C21.9304 13.5693 21.7749 14.6693 22.0193 15.7082C22.3943 17.7832 24.1443 19.536 26.2415 19.8415C27.0693 20.0832 27.9304 19.8277 28.7221 19.5693C30.4665 18.9527 31.7999 17.2943 31.9638 15.4388C32.0999 14.4332 31.9471 13.3915 31.4971 12.4832C31.7554 12.6193 32.0804 13.1527 32.2721 13.5138C32.9388 14.8054 32.9693 16.3554 32.5749 17.7304C32.0415 19.486 30.6999 21.0221 28.9276 21.5804C28.1193 21.8443 27.2665 21.9249 26.4193 21.8832Z" fill="#CF1126"/>
<path d="M18.3249 19.5781C18.2193 19.5614 18.1054 19.667 18.1415 19.7753C18.2165 19.8837 18.3499 19.9364 18.4665 19.992C18.7499 20.1059 19.0582 20.1503 19.3638 20.142C19.2582 20.142 19.4026 20.142 19.4388 20.142C19.6804 20.142 19.9193 20.1003 20.1415 20.017C20.2665 19.9698 20.4304 19.9337 20.4804 19.792C20.5304 19.7003 20.4388 19.6114 20.3471 19.6281C20.2193 19.6587 20.0999 19.717 19.9721 19.7503C19.6971 19.8281 19.4082 19.8587 19.1276 19.8337C18.9193 19.8087 18.7193 19.742 18.5276 19.6614C18.461 19.6309 18.3999 19.5892 18.3249 19.5781Z" fill="#CF1126"/>
<path d="M18.4417 19.1471C18.3334 19.1304 18.2417 19.2554 18.2889 19.3499C18.3722 19.4665 18.5111 19.5332 18.6389 19.5887C18.8639 19.6776 19.1056 19.7137 19.3472 19.7082C19.2556 19.7082 19.3806 19.7082 19.4139 19.7082C19.6195 19.7082 19.8222 19.6665 20.0111 19.5915C20.1278 19.5443 20.2695 19.5026 20.3139 19.3749C20.3528 19.3026 20.3222 19.2026 20.2333 19.1999C20.1528 19.1971 20.0833 19.2471 20.0083 19.2721C19.7361 19.386 19.4417 19.4304 19.15 19.4054C18.9667 19.3804 18.7945 19.3137 18.6278 19.2387C18.5667 19.2026 18.5139 19.1582 18.4417 19.1471Z" fill="#CF1126"/>
<path d="M18.5862 18.7332C18.4946 18.7193 18.4335 18.8249 18.4501 18.9082C18.4612 18.9805 18.5307 19.0305 18.5835 19.0749C18.8029 19.2388 19.0862 19.3082 19.3585 19.2971C19.2529 19.2971 19.5001 19.2971 19.4251 19.2971C19.5946 19.2971 19.7668 19.2555 19.9251 19.1805C20.0307 19.136 20.1501 19.086 20.1862 18.9638C20.2029 18.9082 20.2168 18.8305 20.1529 18.7971C20.0862 18.761 20.0224 18.8193 19.964 18.8388C19.764 18.9388 19.5418 18.9971 19.3168 18.9971C19.1196 19.0055 18.9418 18.9221 18.7696 18.836C18.7029 18.7999 18.6557 18.7443 18.5862 18.7332Z" fill="#CF1126"/>
<path d="M17.0553 12.614C16.9192 12.7501 17.022 13.0001 17.0192 13.1779C17.0887 13.7279 17.1776 14.2835 17.3803 14.8001C17.6303 15.3057 18.1637 15.5751 18.4859 16.0196C18.6026 16.2362 18.5609 16.4946 18.5859 16.7279C18.6081 17.3696 18.5998 18.0085 18.5859 18.6501C18.8748 18.7973 19.1914 18.9418 19.5248 18.8835C19.7192 18.8362 20.0887 18.8085 20.1303 18.6112C20.1137 17.5057 20.1053 16.4029 20.0887 15.2973C19.9776 14.9585 19.6303 14.7835 19.3776 14.5668C19.1664 14.3585 18.9692 14.1335 18.7859 13.8946C18.6776 13.7112 18.2498 13.6446 18.4026 13.9668C18.4942 14.2473 18.722 14.4501 18.7803 14.7418C18.7914 14.9001 18.9859 15.1973 18.822 15.289C18.7164 15.114 18.5692 14.964 18.3748 14.8723C18.1914 14.7335 17.8831 14.6779 17.8164 14.4335C17.7664 14.089 17.5914 13.7751 17.3637 13.5168C17.422 13.2085 17.3637 12.8196 17.097 12.6196L17.0553 12.614Z" fill="#CF1126"/>
<path d="M17.4667 12.6749C17.3417 12.6971 17.3473 12.8526 17.4028 12.9332C17.4667 13.111 17.4806 13.3026 17.45 13.4915C17.6695 13.7499 17.8361 14.0554 17.8917 14.3915C17.8917 14.5165 18.025 14.5638 18.1111 14.6249C18.3139 14.7526 18.5417 14.8499 18.7223 15.0082C18.7611 15.0499 18.7889 15.0915 18.7639 15.0082C18.7361 14.9026 18.7223 14.7832 18.6389 14.7054C18.5278 14.586 18.3806 14.4721 18.2167 14.4332C18.2056 14.261 18.1223 14.1026 18.0473 13.9526C17.9639 13.8054 17.875 13.6526 17.7334 13.5554C17.7361 13.2999 17.7334 13.0332 17.625 12.7999C17.5917 12.7499 17.5445 12.6776 17.4667 12.6749Z" fill="#CF1126"/>
<path d="M17.8145 12.775C17.7256 12.8 17.7423 12.9083 17.7728 12.9694C17.8145 13.15 17.8173 13.3361 17.8173 13.5194C17.9756 13.6444 18.0756 13.8277 18.1645 14.0027C18.2228 14.1194 18.2728 14.2444 18.2978 14.375C18.4284 14.4166 18.5395 14.4944 18.6395 14.5861C18.5978 14.4666 18.5117 14.375 18.4506 14.2666C18.3839 14.1527 18.3256 14.0333 18.295 13.9027C18.17 13.7694 18.1034 13.5861 18.1339 13.4027C18.1395 13.2027 18.0756 12.9972 17.9423 12.85C17.9034 12.8166 17.8617 12.7805 17.8145 12.775Z" fill="#CF1126"/>
<path d="M18.2092 12.8333C18.162 12.8416 18.1342 12.886 18.1092 12.9222C18.1009 12.9583 18.1425 12.9972 18.1509 13.0388C18.2064 13.1777 18.2259 13.3277 18.2092 13.4721C18.2036 13.5777 18.2425 13.6777 18.2953 13.7666C18.312 13.6999 18.3703 13.6555 18.437 13.6499C18.462 13.6444 18.4953 13.6583 18.4814 13.6194C18.4647 13.4194 18.437 13.2194 18.3647 13.0333C18.3397 12.9666 18.3064 12.8972 18.2481 12.8499C18.237 12.8388 18.2231 12.8277 18.2092 12.8333Z" fill="#CF1126"/>
<path d="M35.6589 19.5781C35.7645 19.5614 35.8784 19.667 35.8423 19.7753C35.7673 19.8837 35.6339 19.9364 35.5173 19.992C35.2339 20.1059 34.9256 20.1503 34.62 20.142C34.7256 20.142 34.5839 20.142 34.5451 20.142C34.3034 20.142 34.0645 20.1003 33.8423 20.017C33.7173 19.9698 33.5534 19.9337 33.5034 19.792C33.4534 19.7003 33.5451 19.6114 33.6367 19.6281C33.7645 19.6587 33.8812 19.717 34.0117 19.7503C34.2867 19.8281 34.5756 19.8587 34.8562 19.8337C35.0645 19.8087 35.2645 19.742 35.4561 19.6614C35.5228 19.6309 35.5839 19.5892 35.6589 19.5781Z" fill="#CF1126"/>
<path d="M35.5416 19.1471C35.65 19.1304 35.7416 19.2554 35.6972 19.3499C35.6139 19.4665 35.475 19.5332 35.3472 19.5887C35.1222 19.6776 34.8805 19.7137 34.6389 19.7082C34.7305 19.7082 34.6055 19.7082 34.5722 19.7082C34.3666 19.7082 34.1638 19.6665 33.975 19.5915C33.8583 19.5443 33.7166 19.5026 33.6722 19.3749C33.6361 19.3026 33.6638 19.2026 33.75 19.1999C33.8305 19.1971 33.9 19.2471 33.975 19.2721C34.2472 19.386 34.5416 19.4304 34.8333 19.4054C35.0166 19.3804 35.1889 19.3137 35.3555 19.2387C35.4166 19.2026 35.4722 19.1582 35.5416 19.1471Z" fill="#CF1126"/>
<path d="M35.3973 18.7332C35.4889 18.7193 35.5528 18.8249 35.5334 18.9082C35.5223 18.9805 35.4528 19.0305 35.4 19.0749C35.1806 19.2388 34.8973 19.3082 34.625 19.2971C34.7306 19.2971 34.4834 19.2971 34.5584 19.2971C34.3889 19.2971 34.2167 19.2555 34.0584 19.1805C33.9528 19.136 33.8334 19.086 33.7973 18.9638C33.7806 18.9082 33.7667 18.8305 33.8306 18.7971C33.8973 18.761 33.9612 18.8193 34.0195 18.8388C34.2195 18.9388 34.4417 18.9971 34.6667 18.9971C34.8639 19.0055 35.0417 18.9221 35.2139 18.836C35.2806 18.7999 35.3278 18.7443 35.3973 18.7332Z" fill="#CF1126"/>
<path d="M36.9303 12.614C37.0664 12.7501 36.9637 13.0001 36.9692 13.1779C36.897 13.7279 36.8109 14.2835 36.6053 14.8001C36.3553 15.3057 35.822 15.5751 35.4998 16.0196C35.3831 16.2362 35.4248 16.4946 35.3998 16.7279C35.3776 17.3696 35.3887 18.0085 35.3998 18.6501C35.1137 18.7973 34.7942 18.9418 34.4609 18.8835C34.2637 18.8362 33.897 18.8085 33.8553 18.6112C33.872 17.5057 33.8803 16.4029 33.897 15.2973C34.0109 14.9585 34.3553 14.7835 34.6109 14.5668C34.822 14.3585 35.0192 14.1335 35.2026 13.8946C35.3109 13.7112 35.7414 13.6446 35.5859 13.9668C35.4942 14.2473 35.2637 14.4501 35.2081 14.7418C35.197 14.9001 35.0026 15.1973 35.1665 15.289C35.272 15.114 35.4192 14.964 35.6137 14.8723C35.797 14.7335 36.1053 14.6779 36.172 14.4335C36.222 14.089 36.397 13.7751 36.6248 13.5168C36.5664 13.2085 36.6248 12.8196 36.8914 12.6196L36.9303 12.614Z" fill="#CF1126"/>
<path d="M36.5172 12.6749C36.6422 12.6971 36.6394 12.8526 36.5811 12.9332C36.5172 13.111 36.5033 13.3026 36.5366 13.4915C36.3172 13.7499 36.1505 14.0554 36.095 14.3915C36.095 14.5165 35.9616 14.5638 35.8728 14.6249C35.67 14.7526 35.445 14.8499 35.2616 15.0082C35.2228 15.0499 35.195 15.0915 35.22 15.0082C35.2478 14.9026 35.2616 14.7832 35.345 14.7054C35.4561 14.586 35.6033 14.4721 35.7644 14.4332C35.7755 14.261 35.8589 14.1026 35.9339 13.9526C36.0172 13.8054 36.1061 13.6526 36.2478 13.5554C36.245 13.2999 36.2478 13.0332 36.3561 12.7999C36.3922 12.7499 36.4394 12.6776 36.5172 12.6749Z" fill="#CF1126"/>
<path d="M36.1698 12.775C36.2587 12.8 36.242 12.9083 36.2115 12.9694C36.1698 13.15 36.167 13.3361 36.167 13.5194C36.0087 13.6444 35.9087 13.8277 35.8226 14.0027C35.7643 14.1194 35.7143 14.2444 35.6893 14.375C35.5587 14.4166 35.4476 14.4944 35.3476 14.5861C35.3893 14.4666 35.4754 14.375 35.5365 14.2666C35.6031 14.1527 35.6615 14.0333 35.692 13.9027C35.817 13.7694 35.8837 13.5861 35.8531 13.4027C35.8504 13.2027 35.9115 12.9972 36.0448 12.85C36.0781 12.8166 36.1198 12.7805 36.1698 12.775Z" fill="#CF1126"/>
<path d="M35.7755 12.8333C35.8228 12.8416 35.8506 12.886 35.8756 12.9222C35.8839 12.9583 35.8422 12.9972 35.8339 13.0388C35.7811 13.1777 35.7589 13.3277 35.7755 13.4721C35.7811 13.5777 35.7422 13.6777 35.6894 13.7666C35.6728 13.6999 35.6144 13.6555 35.5478 13.6499C35.5228 13.6444 35.4894 13.6583 35.5033 13.6194C35.52 13.4194 35.5478 13.2194 35.62 13.0333C35.645 12.9666 35.6783 12.8972 35.7367 12.8499C35.745 12.8388 35.7644 12.8277 35.7755 12.8333Z" fill="#CF1126"/>
<path d="M26.814 19.8334C26.2501 19.7807 25.7418 19.3696 25.5723 18.8334C25.5807 18.7418 25.6973 18.8834 25.7529 18.8973C25.8584 18.9557 25.964 19.0029 26.0807 19.0112C26.2307 19.0751 26.3223 19.2196 26.464 19.2973C26.5307 19.3473 26.764 19.4473 26.7168 19.2834C26.6612 19.2001 26.6251 19.0918 26.6723 18.9918C26.7529 18.8168 26.8723 18.6668 26.9945 18.5251C27.0862 18.4946 27.1445 18.6723 27.2056 18.7334C27.2945 18.8696 27.4029 19.0362 27.3473 19.2084C27.2973 19.2723 27.264 19.4584 27.3973 19.3973C27.564 19.3223 27.7029 19.2001 27.8418 19.0834C27.964 19.0001 28.1223 18.9918 28.2473 18.9168C28.3056 18.9001 28.4306 18.7834 28.4556 18.8501C28.3834 19.039 28.2668 19.2057 28.1418 19.3584C27.9362 19.5918 27.6668 19.7612 27.3584 19.8112C27.1806 19.839 26.9945 19.8446 26.814 19.8334Z" fill="#CF1126"/>
<path d="M27.4723 19.1747C27.4834 19.0608 27.4612 18.9442 27.4 18.8442C27.3139 18.6664 27.1889 18.5025 27.0667 18.3442C26.95 18.2775 26.8889 18.4997 26.8139 18.5608C26.6917 18.7386 26.5473 18.9219 26.5389 19.1442C26.4723 19.2497 26.3473 19.0608 26.2945 18.9969C26.1889 18.8497 26.1139 18.6803 26.1278 18.4969C26.1139 18.2053 26.1723 17.9136 26.2778 17.6386C26.3584 17.4053 26.4917 17.1803 26.4778 16.9247C26.4862 16.733 26.45 16.5219 26.2945 16.3969C26.1473 16.2803 26.3889 16.2553 26.4639 16.3192C26.5973 16.3275 26.6695 16.5442 26.7889 16.4942C26.8389 16.383 26.8473 16.2442 26.9473 16.1553C27.0417 16.0219 27.1473 16.2136 27.1806 16.3025C27.2473 16.383 27.1778 16.5747 27.2889 16.5775C27.4223 16.4858 27.5195 16.3275 27.6889 16.2942C27.7584 16.258 27.8778 16.2914 27.7862 16.3692C27.6612 16.4858 27.5528 16.6358 27.5278 16.8108C27.4889 17.0303 27.5445 17.2553 27.6417 17.458C27.825 17.8497 27.9695 18.2914 27.875 18.7247C27.8334 18.9164 27.7 19.0831 27.5417 19.1969C27.5139 19.2025 27.4806 19.2025 27.4723 19.1747Z" fill="#CF1126"/>
<path d="M27.2728 16.2333C27.2089 16.1249 27.1395 16.0166 27.0339 15.9416C26.9339 15.9416 26.87 16.0666 26.8034 16.1333C26.7589 16.2194 26.6978 16.3666 26.5839 16.2527C26.4006 16.1444 26.3672 15.9055 26.3672 15.711C26.3561 15.3944 26.4839 15.0971 26.5978 14.811C26.67 14.6333 26.6506 14.4277 26.6061 14.2444C26.5506 14.0333 26.3811 13.886 26.2478 13.7194C26.2561 13.6555 26.4228 13.6888 26.4867 13.7027C26.6284 13.7416 26.7117 13.861 26.8173 13.9499C26.8923 13.9277 26.8617 13.7805 26.8978 13.7083C26.9006 13.6083 27.0311 13.4777 27.0867 13.6194C27.17 13.711 27.0839 13.8916 27.1923 13.9444C27.2923 13.9055 27.3423 13.7972 27.4395 13.7472C27.5311 13.6833 27.6645 13.6777 27.7645 13.7249C27.7978 13.8166 27.6561 13.8972 27.6145 13.9749C27.445 14.1833 27.3839 14.4721 27.4617 14.7305C27.52 14.9333 27.62 15.1221 27.6561 15.3305C27.6978 15.5694 27.6978 15.8138 27.6339 16.0471C27.5978 16.1888 27.4756 16.2805 27.3506 16.3388C27.3089 16.3138 27.2923 16.2721 27.2728 16.2333Z" fill="#CF1126"/>
<path d="M26.6423 13.6195C26.5006 13.514 26.4534 13.4195 26.4534 13.2223C26.4534 13.1223 26.4701 13.0695 26.5367 12.9806C26.6339 12.8473 26.6173 12.8056 26.4784 12.8417C26.2589 12.9056 26.1534 12.8473 26.1451 12.6584C26.1423 12.5667 26.1617 12.5279 26.2812 12.3779C26.3812 12.2612 26.4145 12.2001 26.3978 12.1779C26.3756 12.1556 26.2589 12.2612 26.0228 12.5029C25.8312 12.6945 25.6201 12.8945 25.5478 12.9445C25.1395 13.2195 24.7478 13.2667 24.5673 13.0529C24.4756 12.9445 24.4812 12.8806 24.5895 12.814C24.6395 12.7834 24.7173 12.714 24.7728 12.6584C24.8978 12.5279 25.2589 12.2667 25.4423 12.1751C25.5895 12.1001 25.6256 12.0501 25.5284 12.0501C25.4034 12.0501 25.0062 12.3084 24.7034 12.589C24.6173 12.6723 24.4867 12.764 24.4201 12.7945C24.2701 12.8612 23.9728 12.8862 23.8395 12.839C23.7478 12.8084 23.5756 12.6473 23.5756 12.589C23.5756 12.5723 23.6145 12.539 23.6645 12.514C23.7089 12.489 23.7978 12.4251 23.8534 12.3806C24.0951 12.1695 24.5534 11.9529 24.9173 11.8723C25.0339 11.8473 24.9923 11.789 24.8617 11.7973C24.6117 11.8084 24.1145 12.039 23.8201 12.2862C23.4728 12.5723 22.9478 12.5445 22.7812 12.2334C22.7506 12.1806 22.7367 12.1279 22.7423 12.1195C22.7506 12.1112 22.8534 12.0834 22.9728 12.0529C23.1006 12.0195 23.3506 11.9167 23.5951 11.7945C23.9728 11.6056 24.0867 11.564 24.3478 11.5223C24.4645 11.5001 24.4728 11.4473 24.3562 11.4334C24.2089 11.4167 23.9867 11.4917 23.5839 11.6834C23.0728 11.9334 22.9312 11.9806 22.6589 11.964C22.4117 11.9473 22.2756 11.8834 22.0756 11.6973C21.9478 11.5723 21.759 11.2584 21.7978 11.2223C21.8062 11.214 21.8673 11.2223 21.9312 11.2445C22.0006 11.2667 22.209 11.2806 22.4562 11.2806C22.8006 11.2806 22.8951 11.2723 23.0812 11.2167C23.3895 11.1306 23.8006 10.9223 24.0812 10.7084C24.6201 10.3084 25.0562 10.1445 25.6145 10.1417C26.1312 10.1362 26.4562 10.2584 26.7478 10.5529C26.8478 10.6529 26.9312 10.7167 26.9451 10.7029C26.9562 10.6917 26.9728 10.514 26.9784 10.314C26.9784 10.314 27.1284 10.2973 27.1617 10.3417C27.1617 10.6667 27.1645 10.6917 27.2117 10.6917C27.2423 10.6917 27.2756 10.6584 27.2951 10.6112C27.3423 10.5029 27.5034 10.3612 27.6784 10.2695C28.0534 10.0779 28.7089 10.0751 29.2312 10.2556C29.4534 10.3362 29.6978 10.4723 29.9312 10.6529C30.1645 10.8334 30.6423 11.0751 30.9256 11.1529C31.2117 11.2362 31.7173 11.2529 31.9756 11.1945C32.0839 11.1695 32.1839 11.1501 32.195 11.1501C32.2895 11.1501 32.1284 11.4667 31.9367 11.6529C31.5867 11.9945 31.1339 11.9917 30.495 11.6501C30.0978 11.439 29.6201 11.3167 29.6201 11.439C29.6201 11.464 29.6451 11.4806 29.6839 11.4806C29.8201 11.4806 30.0867 11.5723 30.4617 11.7529C30.8673 11.9445 31.0923 12.0251 31.2256 12.0251C31.3201 12.0251 31.3256 12.089 31.2339 12.2167C31.1395 12.3584 30.9756 12.4279 30.7423 12.4279C30.5228 12.4279 30.4006 12.3779 30.2006 12.2167C29.8728 11.9417 29.0506 11.6362 29.0812 11.8001C29.0895 11.8334 29.1256 11.8529 29.2089 11.8667C29.4978 11.9084 29.8312 12.0723 30.1756 12.3306C30.2812 12.4084 30.3923 12.489 30.4173 12.5056C30.4645 12.5362 30.4673 12.5445 30.4312 12.6112C30.3673 12.7279 30.2145 12.8167 30.0423 12.8306C29.8256 12.8529 29.6339 12.789 29.4367 12.6223C29.0256 12.2779 28.6339 12.0279 28.5089 12.0279C28.4034 12.0279 28.4562 12.0862 28.6339 12.1779C28.8728 12.3029 29.1145 12.4751 29.2923 12.6362C29.3756 12.7167 29.4728 12.7917 29.5062 12.8084C29.5812 12.8501 29.5784 12.9084 29.4951 13.0167C29.4117 13.1251 29.2701 13.1751 29.0895 13.1529C28.7312 13.114 28.4478 12.9417 28.0062 12.4834C27.8339 12.3029 27.6812 12.1584 27.6645 12.1584C27.6062 12.1584 27.6395 12.239 27.7562 12.3667C27.8978 12.5251 27.9228 12.614 27.8728 12.7417C27.8284 12.8556 27.7478 12.8834 27.5839 12.839C27.4173 12.7917 27.3923 12.8334 27.5006 12.9667C27.6645 13.1667 27.6395 13.414 27.4423 13.5834C27.3784 13.6362 27.3173 13.6779 27.3006 13.6779C27.2839 13.6779 27.2367 13.6334 27.2034 13.5779C27.0784 13.3862 26.9673 13.3862 26.8423 13.5834C26.8006 13.6501 26.7617 13.7084 26.7617 13.7029C26.7728 13.714 26.7117 13.6723 26.6423 13.6195Z" fill="#CF1126"/>
<path d="M27.2726 9.70831L27.0587 9.88054L26.867 9.73331V10.8889L27.2698 10.8944L27.2726 9.70831Z" fill="#CF1126"/>
<path d="M25.9473 8.51386C25.9057 9.05831 25.7668 9.44442 25.5723 9.86387L26.0334 9.43331L26.3557 9.81664L26.7057 9.42775L27.0612 9.75553L27.4029 9.41386L27.7584 9.83053L28.0668 9.48886L28.589 9.86387C28.4001 9.44164 28.1445 9.08886 28.1751 8.49719C27.6668 8.86664 26.4612 8.93331 25.9473 8.51386Z" fill="#CF1126"/>
<path d="M26.8671 8.23322C26.6782 8.23599 26.4838 8.23599 26.3088 8.27488C26.1865 8.29988 26.0754 8.33877 25.9838 8.40266C26.0004 8.75822 27.6921 8.90545 28.1476 8.411C28.0504 8.34155 27.9338 8.29988 27.806 8.27488C27.6365 8.24155 27.4476 8.23599 27.2726 8.23599C27.2726 8.33322 27.2726 8.43044 27.2726 8.52766H26.8671V8.23322Z" fill="#CF1126"/>
<path d="M27.198 6.41669L26.9341 6.42224V8.48058H27.2007L27.198 6.41669Z" fill="#CF1126"/>
<path d="M27.1975 6.46649L27.0975 7.44982L28.1086 7.94426L27.5975 7.25538L28.2975 7.03038L27.1975 6.46649Z" fill="#CF1126"/>
<path d="M27.0836 6.21405C26.9281 6.21405 26.817 6.27238 26.817 6.33905C26.817 6.40572 26.9308 6.46405 27.0836 6.46405C27.2364 6.46405 27.3503 6.40572 27.3503 6.33905C27.3503 6.27238 27.2392 6.21405 27.0836 6.21405Z" fill="#CF1126"/>
<path d="M26.617 23.4918C26.7837 23.439 26.8781 23.339 26.9476 23.1418C26.9809 23.0445 27.0059 22.9445 26.9976 22.9168C26.9865 22.8529 26.9115 22.8584 26.8309 22.9251C26.7781 22.9695 26.767 22.9918 26.7865 23.089C26.8281 23.3223 26.7448 23.3806 26.3031 23.4251C26.2615 23.4279 26.1337 23.4223 26.0198 23.4084C25.8115 23.3834 25.7365 23.4056 25.8115 23.4668C25.8337 23.489 25.8948 23.5112 25.9392 23.5251C26.0587 23.5529 26.492 23.5334 26.617 23.4918Z" fill="#F7E017"/>
<path d="M27.5341 23.4554C27.5591 23.4332 27.648 23.3915 27.7258 23.3693C27.8341 23.3359 27.8897 23.2971 27.9341 23.2332C28.0619 23.0415 28.0397 22.8748 27.8508 22.6498C27.7452 22.5276 27.7008 22.5331 27.6174 22.6665C27.5452 22.7832 27.5452 22.7915 27.6508 22.8165C27.7063 22.8276 27.7563 22.8693 27.7841 22.922C27.898 23.1137 27.8647 23.2359 27.698 23.2359C27.548 23.2359 27.5063 23.2582 27.4647 23.3554C27.4424 23.4054 27.4258 23.461 27.4258 23.4776C27.4258 23.5082 27.4841 23.4998 27.5341 23.4554Z" fill="#F7E017"/>
<path d="M27.2337 23.2387C27.2642 23.1637 27.2726 23.0221 27.267 22.7415C27.267 22.5304 27.2531 22.3443 27.2448 22.3387C27.2198 22.3137 27.0948 22.3943 27.0781 22.4443C27.0698 22.4693 27.0809 22.5304 27.1059 22.5832C27.1448 22.6582 27.1476 22.7304 27.1392 23.0221C27.1337 23.3832 27.1587 23.4471 27.2337 23.2387Z" fill="#F7E017"/>
<path d="M26.5309 23.0585C26.5476 22.9891 26.5642 22.8502 26.5726 22.7446C26.5809 22.6391 26.6003 22.5113 26.617 22.4557C26.6587 22.3085 26.617 22.2724 26.5031 22.3557L26.4198 22.4196L26.4364 22.628C26.4531 22.8168 26.4226 23.1613 26.3809 23.2974C26.367 23.3363 26.3837 23.3224 26.4364 23.2668C26.4726 23.2196 26.5142 23.1279 26.5309 23.0585Z" fill="#F7E017"/>
<path d="M25.9052 23.1584C26.058 23.0306 26.0385 22.8139 26.0719 22.6361C26.0691 22.5195 26.1469 22.3778 26.0969 22.275C25.9552 22.3 25.8663 22.4389 25.9385 22.5695C25.9413 22.725 25.9385 22.8945 25.858 23.0306C25.7913 23.1223 25.5858 23.0973 25.5969 22.9723C25.6469 22.7806 25.4191 22.8723 25.3302 22.9223C25.2608 22.9723 25.1135 22.9723 25.1635 22.8528C25.1302 22.6889 24.9219 22.7945 24.808 22.7889C24.6997 22.7889 24.7997 22.5723 24.6441 22.6084C24.3608 22.5861 24.0497 22.6139 23.8024 22.4389C23.6608 22.3667 23.683 22.1973 23.758 22.0834C23.8441 21.9278 23.8747 21.7417 24.0163 21.6195C24.158 21.4861 23.883 21.5417 23.8219 21.5861C23.683 21.6611 23.8135 21.8528 23.6997 21.9611C23.633 22.075 23.5497 22.2223 23.3969 22.2028C23.1802 22.1611 23.0524 21.9584 22.8969 21.825C22.7635 21.8 22.8385 22.0417 22.908 22.0973C23.0469 22.2028 23.2052 22.275 23.3719 22.3167C23.533 22.2917 23.5413 22.5056 23.6802 22.5361C23.9385 22.6584 24.2274 22.6917 24.5052 22.7084C24.6163 22.7167 24.5552 22.9111 24.6969 22.875C24.7774 22.8973 24.958 22.8445 24.9719 22.9389C24.8469 23.0861 25.0885 23.0806 25.1802 23.0556C25.2913 23.0389 25.4385 22.9917 25.4719 23.15C25.5691 23.25 25.7441 23.2389 25.8608 23.1806C25.8747 23.1834 25.8885 23.1695 25.9052 23.1584Z" fill="#F7E017"/>
<path d="M23.411 21.8998C23.4555 21.8415 23.5277 21.7193 23.5638 21.6359C23.6027 21.5498 23.661 21.4471 23.6888 21.4165C23.7638 21.3359 23.7221 21.2859 23.6027 21.3165C23.5388 21.3276 23.5138 21.3526 23.5027 21.4082C23.4694 21.5832 23.4027 21.7665 23.3444 21.8498C23.2388 22.0026 23.2388 22.0082 23.2805 22.0082C23.3138 22.0026 23.3666 21.9582 23.411 21.8998Z" fill="#F7E017"/>
<path d="M21.8553 20.9225C21.7386 20.9225 21.7331 20.9975 21.847 21.0336C21.8997 21.0558 21.947 21.1003 21.9831 21.1753C22.097 21.3947 22.1581 21.4336 22.4553 21.4586L22.6442 21.4753L22.6525 21.5919C22.6581 21.6558 22.6747 21.7086 22.6858 21.7086C22.697 21.7086 22.772 21.6753 22.8497 21.6364C22.9858 21.5669 23.122 21.403 23.122 21.303C23.122 21.2364 23.0081 21.1669 22.9108 21.1669C22.8664 21.1669 22.7831 21.203 22.7164 21.2503C22.5081 21.4058 22.2831 21.3725 22.1581 21.1753C22.0497 21.0086 21.947 20.9225 21.8553 20.9225ZM22.8692 21.3253C22.9247 21.3253 22.9386 21.3669 22.9081 21.4475C22.8858 21.5003 22.822 21.5003 22.7997 21.4503C22.7803 21.3864 22.8136 21.3253 22.8692 21.3253Z" fill="#F7E017"/>
<path d="M30.7749 21.0722C30.6999 21.075 30.6749 21.0944 30.6277 21.1639C30.5499 21.2805 30.5416 21.5361 30.6166 21.625C30.661 21.6778 30.6694 21.6833 30.7666 21.6416C30.8999 21.5861 30.9249 21.5861 30.9249 21.6583C30.9249 21.8416 30.6583 22.1972 30.3833 22.3889C30.3083 22.4389 30.2416 22.4972 30.2333 22.5139C30.211 22.5666 30.3166 22.5555 30.4416 22.4889C30.6138 22.4028 30.8388 22.1722 30.9333 21.9889C31.0083 21.8416 31.0166 21.7944 31.0249 21.5444C31.0333 21.3111 31.0249 21.2444 30.9888 21.1639C30.9416 21.075 30.9305 21.0667 30.8166 21.0667C30.7999 21.0722 30.786 21.0722 30.7749 21.0722ZM30.786 21.2333C30.8444 21.2333 30.8527 21.2444 30.861 21.3278C30.8638 21.3944 30.8527 21.4361 30.8138 21.475C30.7638 21.5194 30.761 21.5194 30.7138 21.45C30.6499 21.35 30.6916 21.2333 30.786 21.2333Z" fill="#F7E017"/>
<path d="M29.5224 23.0112C29.7641 22.8917 29.9085 22.7584 30.003 22.5612C30.0447 22.4695 30.0808 22.3834 30.0808 22.3639C30.0808 22.3306 29.9613 22.2723 29.8891 22.2723C29.8169 22.2723 29.8002 22.2223 29.8335 22.0834C29.8641 21.9501 29.8252 21.7834 29.7669 21.7834C29.7447 21.7834 29.7085 21.8167 29.6835 21.8528C29.6447 21.9112 29.6419 21.9362 29.6724 22.0223C29.7141 22.1473 29.6808 22.2417 29.5669 22.3251C29.5141 22.3639 29.4835 22.4084 29.4835 22.4501C29.4835 22.4889 29.4863 22.5167 29.4919 22.5167C29.4947 22.5167 29.5585 22.4862 29.6252 22.4501L29.7474 22.3834L29.8169 22.4362C29.8558 22.4667 29.8891 22.5195 29.8891 22.5501C29.8891 22.7001 29.4641 22.9473 29.178 22.9695C29.0224 22.9834 29.0002 22.9778 28.9447 22.9251C28.903 22.8834 28.8919 22.8445 28.9002 22.7917C28.9085 22.7501 28.9252 22.6778 28.9335 22.6334C28.9585 22.5028 28.903 22.5195 28.8085 22.6695C28.728 22.7945 28.703 22.9278 28.7502 23.0001C28.7891 23.0584 29.028 23.1112 29.1947 23.1001C29.3058 23.0945 29.4085 23.0667 29.5224 23.0112Z" fill="#F7E017"/>
<path d="M31.1468 22.1057C31.3024 21.9502 31.3635 21.7696 31.3663 21.4807V21.264L31.4913 21.2057C31.658 21.1279 31.8135 20.9724 31.8135 20.8863C31.8135 20.7974 31.7718 20.8029 31.6996 20.8974C31.6468 20.9696 31.5774 21.0113 31.3246 21.1279C31.2607 21.1585 31.2579 21.1752 31.2413 21.4446C31.2246 21.7585 31.1829 21.8696 31.0079 22.0835C30.9024 22.2113 30.8996 22.2307 30.9691 22.2307C31.0024 22.2196 31.0829 22.1668 31.1468 22.1057Z" fill="#F7E017"/>
<path d="M29.4804 21.9278C29.4915 21.8833 29.4082 21.8528 29.3721 21.8861C29.3554 21.9028 29.3499 21.9278 29.3638 21.9444C29.3888 21.9889 29.461 21.975 29.4804 21.9278Z" fill="#F7E017"/>
<path d="M31.7802 21.3335C31.7968 21.2863 31.7079 21.2585 31.6746 21.2918C31.6579 21.3085 31.6524 21.3335 31.6663 21.3502C31.6885 21.3918 31.7663 21.378 31.7802 21.3335Z" fill="#F7E017"/>
<path d="M29.009 19.7193C28.9506 19.7499 28.9173 19.811 28.8756 19.861C28.8451 19.8832 28.8701 19.8971 28.8867 19.9193C28.9923 20.0304 29.0367 20.186 29.0867 20.3276C29.1367 20.4943 29.2006 20.6776 29.1451 20.8526C29.1228 20.9193 29.0701 20.9915 28.9951 20.9665C28.8701 20.9582 28.7451 20.9249 28.6173 20.9249C28.5034 20.9276 28.4173 21.0332 28.3006 21.0193C28.2256 21.0249 28.2312 20.8693 28.1645 20.911C28.1312 20.9887 28.1478 21.0804 28.1423 21.1693C28.1534 21.1832 28.1923 21.1693 28.2145 21.1749H28.4395C28.4562 21.2526 28.4534 21.3415 28.5117 21.4026C28.5923 21.4332 28.6784 21.4054 28.7534 21.3776C28.8339 21.3387 28.8451 21.2443 28.8673 21.1693C28.8923 21.0915 28.9978 21.111 29.059 21.0776C29.2117 21.0304 29.3117 20.8721 29.3034 20.7193C29.2951 20.4804 29.2034 20.2554 29.1312 20.0304C29.0978 19.9304 29.0728 19.8276 29.0312 19.7304C29.0312 19.7249 29.0173 19.7165 29.009 19.7193ZM28.6284 21.0832C28.7117 21.0776 28.7506 21.1832 28.7339 21.2499C28.7006 21.3443 28.5867 21.2832 28.5645 21.2165C28.5228 21.1582 28.5451 21.0749 28.6284 21.0832Z" fill="#F7E017"/>
<path d="M25.4897 20.2999C25.4508 20.2999 25.4092 20.311 25.3675 20.3415C25.1481 20.4943 25.087 20.6776 25.2397 20.7499C25.3508 20.8026 25.3231 20.8665 25.1481 20.9526C24.8981 21.0776 24.6814 21.061 24.2592 20.8888C24.1536 20.8471 24.1314 20.8638 24.1536 20.9554C24.1758 21.0471 24.262 21.0971 24.4703 21.1471C24.6953 21.1971 24.9675 21.1804 25.1397 21.1054C25.2231 21.0693 25.3286 20.9915 25.412 20.8971L25.5508 20.7471L25.7092 20.7693C25.9064 20.7943 25.9092 20.7943 25.9092 20.8888C25.9092 20.9638 25.9147 20.9638 26.0925 20.9804C26.1925 20.9888 26.3258 20.9971 26.387 20.9971C26.4675 20.9971 26.512 21.0082 26.537 21.0471C26.5703 21.0971 26.5897 21.0971 26.887 21.0721C27.162 21.0471 27.2175 21.0499 27.337 21.0943C27.4231 21.1249 27.5203 21.136 27.5953 21.1276C27.8036 21.1026 28.0953 20.9304 28.137 20.8054C28.1425 20.7888 28.2203 20.7638 28.3092 20.7471C28.5203 20.7054 28.5286 20.6582 28.3342 20.6332C28.2481 20.6221 28.1175 20.5915 28.0481 20.5638C27.9758 20.536 27.8758 20.5082 27.8258 20.5082C27.7175 20.5082 27.6175 20.5749 27.6175 20.6471C27.6175 20.6943 27.6342 20.6971 27.7592 20.6832C27.8758 20.6721 27.9147 20.6804 27.9758 20.7304C28.0175 20.7638 28.0453 20.7999 28.0342 20.8138C28.0064 20.861 27.7592 20.9721 27.6481 20.9888C27.5731 21.0026 27.5147 20.9943 27.4564 20.9638C27.3592 20.9138 27.2203 20.9054 27.1925 20.9471C27.1814 20.9693 27.1508 20.9554 27.1092 20.9138L27.0425 20.8499L26.8953 20.9138C26.7453 20.9776 26.6897 20.9721 26.6897 20.9026C26.6897 20.8693 26.6481 20.8638 26.4286 20.8804C26.187 20.8971 26.162 20.8915 26.1147 20.8415C26.0731 20.7971 26.0731 20.7776 26.1036 20.7304C26.1314 20.6832 26.1314 20.6665 26.1036 20.6415C26.0731 20.6165 26.0397 20.6165 25.9453 20.6415C25.7036 20.7054 25.637 20.6721 25.637 20.4804C25.6397 20.3693 25.5731 20.3026 25.4897 20.2999ZM25.4314 20.4749C25.4425 20.4749 25.4564 20.4832 25.4731 20.4999C25.4953 20.5221 25.5064 20.5582 25.4981 20.5832C25.4758 20.6415 25.3731 20.636 25.3508 20.5776C25.337 20.5499 25.3536 20.5193 25.3842 20.4999C25.4064 20.4832 25.4175 20.4749 25.4314 20.4749Z" fill="#F7E017"/>
<path d="M24.9942 20.6501C25.1414 20.5584 25.1414 20.5612 25.1608 20.3029C25.1747 20.1196 25.1747 20.1084 25.1219 20.1084C25.0497 20.1084 25.0136 20.1862 25.0136 20.339C25.0136 20.4334 24.9969 20.4807 24.9469 20.5307C24.8247 20.6501 24.5219 20.5973 24.4803 20.4473C24.4692 20.3918 24.4858 20.3473 24.5469 20.2584C24.6803 20.0696 24.6525 20.0251 24.4886 20.1668C24.3775 20.2668 24.3553 20.2668 24.3775 20.1834C24.3997 20.1057 24.3553 20.0751 24.2664 20.0946C24.2192 20.1084 24.1942 20.1362 24.183 20.1918C24.1692 20.2473 24.1442 20.2807 24.1025 20.289C24.0275 20.3112 23.9025 20.239 23.9025 20.1751C23.9025 20.1279 24.0914 19.9001 24.3303 19.6501C24.4219 19.5557 24.4969 19.4668 24.4969 19.4557C24.4969 19.4446 24.4469 19.4307 24.3886 19.4307C24.2997 19.4307 24.2803 19.439 24.2803 19.4807C24.2803 19.5112 24.1608 19.6696 24.008 19.8362C23.6942 20.1862 23.6719 20.2584 23.8247 20.3529C23.9497 20.4279 24.108 20.4223 24.233 20.3362L24.333 20.2696V20.3946C24.333 20.5529 24.3664 20.6112 24.4914 20.6779C24.6497 20.7584 24.8414 20.7501 24.9942 20.6501Z" fill="#F7E017"/>
<path d="M31.522 18.489C31.4053 18.5585 31.497 18.7001 31.5136 18.7973C31.4692 18.9279 31.297 18.964 31.1775 18.989C31.0025 19.0168 30.8803 19.164 30.8136 19.3168C30.7747 19.4168 30.6914 19.5724 30.597 19.4224C30.5136 19.339 30.3636 19.2724 30.2664 19.3724C30.1914 19.4446 30.1747 19.5474 30.147 19.639C30.1053 19.5696 30.0831 19.4612 29.9914 19.439C29.8442 19.4612 29.897 19.6418 29.9664 19.7224C30.0303 19.8112 30.0914 19.9307 30.0303 20.0362C29.9747 20.1668 29.7886 20.2501 29.6747 20.1418C29.5692 20.089 29.6414 19.8918 29.5358 19.8835C29.4858 19.9196 29.4831 20.1196 29.4025 20.014C29.3442 19.9168 29.3719 19.789 29.3025 19.7057C29.2192 19.714 29.1525 19.8612 29.1775 19.939C29.2914 20.089 29.3358 20.2807 29.3775 20.4612C29.4053 20.5335 29.3719 20.6779 29.4414 20.7057C29.4858 20.589 29.4442 20.4612 29.4831 20.3446C29.5914 20.3307 29.7136 20.3807 29.8275 20.3529C29.9886 20.3307 30.1192 20.1946 30.172 20.0446C30.1886 19.9335 30.1692 19.8251 30.1636 19.7112C30.2942 19.7335 30.4247 19.7335 30.5497 19.7751C30.6136 19.8724 30.5275 20.0001 30.5136 20.1029C30.447 20.3168 30.2831 20.4668 30.122 20.6085C30.0553 20.6501 30.047 20.7557 30.147 20.6974C30.3636 20.6057 30.522 20.4112 30.6136 20.1974C30.6803 20.0362 30.6247 19.8557 30.672 19.689C30.7386 19.564 30.8942 19.589 31.0108 19.589C31.1303 19.5835 31.2303 19.4418 31.1942 19.3279C31.1581 19.1946 31.2997 19.1279 31.3997 19.0779C31.5275 19.0112 31.6303 18.8779 31.6192 18.7279C31.6192 18.6418 31.6247 18.4946 31.522 18.489ZM31.0581 19.2668C31.197 19.3029 31.0331 19.5724 30.9581 19.4001C30.9386 19.339 30.9914 19.2668 31.0581 19.2668ZM30.4164 19.4585C30.5942 19.4474 30.5331 19.714 30.3775 19.5918C30.2997 19.5529 30.3247 19.4529 30.4164 19.4585Z" fill="#F7E017"/>
<path d="M23.8693 20.4806C23.8721 20.4556 23.8609 20.4333 23.8359 20.4333C23.7859 20.4333 23.7582 20.4806 23.7776 20.5167C23.8054 20.5528 23.8582 20.5333 23.8693 20.4806Z" fill="#F7E017"/>
<path d="M25.9886 20.2417C25.9886 20.2056 25.9748 20.189 25.9442 20.1973C25.872 20.2084 25.8636 20.3028 25.9359 20.3028C25.972 20.2973 25.9886 20.2806 25.9886 20.2417Z" fill="#F7E017"/>
<path d="M23.367 18.9693C23.2837 18.9527 23.2309 19.0249 23.2003 19.0916C23.1365 19.1999 23.0587 19.3082 22.9476 19.3638C22.8642 19.386 22.7781 19.3555 22.7059 19.3138C22.6226 19.2721 22.6392 19.1721 22.6059 19.1027C22.542 19.0555 22.4392 19.1249 22.4392 19.1971C22.4309 19.2971 22.5253 19.3555 22.6003 19.3943C22.667 19.436 22.7642 19.4582 22.7892 19.5416C22.7892 19.611 22.8142 19.6916 22.8976 19.661C22.992 19.661 23.0142 19.7721 22.9753 19.8444C22.9392 19.9221 22.9087 20.011 22.9309 20.0999C22.9753 20.136 23.0226 20.036 23.0559 20.0082C23.0781 19.9805 23.1003 19.9499 23.1226 19.9193C23.2892 19.9277 23.4559 19.9499 23.6226 19.9444C23.7448 19.9388 23.8448 19.8694 23.9198 19.7832C24.0281 19.6693 24.1142 19.5416 24.2365 19.4443C24.3254 19.4221 24.2781 19.261 24.1865 19.3082C24.1031 19.336 24.0781 19.4332 24.0226 19.4916C23.9281 19.6082 23.8254 19.7249 23.7059 19.8166C23.6198 19.8555 23.5142 19.8388 23.4226 19.8166C23.3865 19.7832 23.4976 19.7582 23.5142 19.7221C23.567 19.6693 23.6281 19.6221 23.6615 19.5499C23.6309 19.486 23.5448 19.4832 23.4837 19.4805C23.3281 19.4971 23.2115 19.6277 23.0587 19.6388C22.942 19.6443 23.0003 19.5138 23.0559 19.4721C23.1615 19.3471 23.2726 19.236 23.3809 19.1138C23.4087 19.0749 23.5226 19.0416 23.4503 18.9888C23.4198 18.9693 23.3976 18.9693 23.367 18.9693ZM23.442 19.5916C23.5226 19.6332 23.392 19.7082 23.3365 19.6971C23.267 19.7193 23.267 19.6471 23.3281 19.6305C23.367 19.6166 23.4059 19.5943 23.442 19.5916ZM23.2031 19.7582C23.2476 19.7582 23.342 19.7999 23.2531 19.8249C23.1976 19.8694 23.1253 19.7805 23.2031 19.7582Z" fill="#F7E017"/>
<path d="M25.0833 19.8637C25.0833 19.8053 24.9777 19.8137 24.9666 19.872C24.9583 19.9081 24.9694 19.9192 25.0222 19.9137C25.0555 19.9081 25.0833 19.8859 25.0833 19.8637Z" fill="#F7E017"/>
<path d="M29.7498 19.45C29.7609 19.3917 29.6831 19.3556 29.6414 19.3973C29.5998 19.4389 29.6387 19.5167 29.697 19.5056C29.722 19.5 29.7442 19.475 29.7498 19.45Z" fill="#F7E017"/>
<path d="M22.4829 18.8809C22.5579 18.817 22.5579 18.8142 22.5245 18.6781C22.4801 18.4864 22.4829 18.4642 22.5579 18.4448C22.6495 18.4198 22.8884 18.5503 22.9412 18.6475C22.9829 18.7253 22.9829 18.7309 22.9134 18.7975C22.8384 18.8642 22.8384 18.9475 22.9134 18.9475C22.9773 18.9475 23.1467 18.7837 23.1467 18.7253C23.1467 18.6475 22.9579 18.4531 22.8106 18.3837C22.719 18.342 22.6273 18.3198 22.519 18.3198C22.3273 18.3198 22.3023 18.3614 22.3523 18.5809C22.4162 18.842 22.3301 18.8781 22.119 18.6809C21.9606 18.5337 21.9023 18.3809 21.9023 18.1448C21.9023 17.8864 22.0023 17.7614 22.2245 17.7337C22.3717 17.7114 22.3662 17.6781 22.2162 17.6587C21.9967 17.6253 21.8079 17.7725 21.7356 18.0392C21.6579 18.3309 21.8356 18.6864 22.1579 18.8725C22.3217 18.9587 22.3884 18.9642 22.4829 18.8809Z" fill="#F7E017"/>
<path d="M31.1889 18.5585C31.2056 18.5418 31.2222 18.5001 31.2222 18.4696C31.2222 18.4418 31.2528 18.3696 31.2889 18.3196C31.3278 18.2696 31.3556 18.214 31.3556 18.2029C31.3556 18.1529 31.2722 18.1529 31.2056 18.2085C31.1389 18.2612 31.0861 18.2612 31.0861 18.214C31.0861 18.2001 31.1195 18.1724 31.1583 18.1557C31.2583 18.1057 31.2667 18.0585 31.1833 18.0224C31.075 17.9724 30.9667 18.064 30.9584 18.2112C30.95 18.3112 30.9584 18.3279 31.0333 18.3696C31.1056 18.4112 31.1167 18.4335 31.1056 18.4918C31.0778 18.589 31.1195 18.6196 31.1889 18.5585Z" fill="#F7E017"/>
<path d="M32.0031 18.4669C32.0615 18.4113 32.1115 18.3502 32.1115 18.328C32.1115 18.3057 32.1615 18.253 32.2281 18.2085C32.4059 18.078 32.4476 17.9502 32.3642 17.7502C32.3309 17.6696 32.2365 17.5613 32.0226 17.3696C31.8587 17.2196 31.7059 17.0974 31.6892 17.0974C31.6309 17.0974 31.6392 17.3113 31.7003 17.3307C31.8087 17.3641 31.8698 17.4085 32.0365 17.5613C32.2337 17.7363 32.3198 17.903 32.2753 17.9946C32.2309 18.0835 32.167 18.0585 31.992 17.8696C31.9003 17.7724 31.8142 17.6946 31.792 17.6946C31.7698 17.6946 31.7587 17.7307 31.7587 17.778C31.7587 17.8419 31.792 17.8974 31.8809 17.9974C32.0281 18.1585 32.0392 18.2557 31.9309 18.3419C31.8948 18.3724 31.8531 18.4002 31.8392 18.4002C31.8309 18.4002 31.7976 18.3502 31.767 18.2919C31.7031 18.1669 31.3337 17.7752 31.2781 17.7752C31.2531 17.7752 31.242 17.8085 31.242 17.8696C31.242 17.9446 31.2587 17.9752 31.317 18.003C31.392 18.0391 31.5753 18.2224 31.7559 18.4446C31.8087 18.5085 31.8615 18.5613 31.8726 18.5613C31.8892 18.5641 31.9476 18.5224 32.0031 18.4669Z" fill="#F7E017"/>
<path d="M32.3669 17.4223C32.3419 17.3445 31.8419 16.8306 31.7919 16.8306C31.7669 16.8306 31.7586 16.864 31.7614 16.9445C31.7697 17.0445 31.778 17.0612 31.8475 17.0778C31.8892 17.0917 32.0225 17.1945 32.1391 17.3084C32.2558 17.4251 32.3614 17.5084 32.3697 17.5001C32.3836 17.4917 32.378 17.4528 32.3669 17.4223Z" fill="#F7E017"/>
<path d="M29.3886 23.2053C29.3886 23.2442 29.3553 23.272 29.3136 23.272C29.272 23.272 29.2386 23.2414 29.2386 23.2053C29.2386 23.1692 29.272 23.1387 29.3136 23.1387C29.3553 23.1359 29.3886 23.1664 29.3886 23.2053Z" fill="#F7E017"/>
<path d="M29.6499 23.1165C29.6499 23.1554 29.6165 23.1832 29.5749 23.1832C29.5332 23.1832 29.4999 23.1526 29.4999 23.1165C29.4999 23.0804 29.5332 23.0499 29.5749 23.0499C29.6165 23.0499 29.6499 23.0804 29.6499 23.1165Z" fill="#F7E017"/>
</g>
<defs>
<clipPath id="clip0_93_9710">
<rect width="53.3333" height="30" fill="white" transform="translate(0.325195)"/>
</clipPath>
</defs>
</svg>
