<svg width="54" height="30" viewBox="0 0 54 30" fill="none" xmlns="http://www.w3.org/2000/svg">
<g clip-path="url(#clip0_93_11483)">
<path d="M53.6605 0H0.327148V30H53.6605V0Z" fill="#009E49"/>
<path d="M53.6605 0H0.327148V15H53.6605V0Z" fill="#EF2B2D"/>
<path d="M26.9939 10L25.4495 14.7556L27.83 15.5306" fill="#FCD116"/>
<path d="M26.9938 10L28.5383 14.7556L26.1577 15.5306" fill="#FCD116"/>
<path d="M31.7491 13.4556H26.7491V15.9556" fill="#FCD116"/>
<path d="M31.7496 13.4556L27.7052 16.3945L26.2357 14.3695" fill="#FCD116"/>
<path d="M29.9323 19.0445L28.3879 14.2889L26.0073 15.0639" fill="#FCD116"/>
<path d="M29.9324 19.0445L25.8879 16.1056L27.3574 14.0806" fill="#FCD116"/>
<path d="M24.0548 19.0445L28.0992 16.1056L26.6298 14.0806" fill="#FCD116"/>
<path d="M24.0548 19.0445L25.5993 14.2889L27.9798 15.0639" fill="#FCD116"/>
<path d="M22.2384 13.4556L26.2829 16.3945L27.7523 14.3695" fill="#FCD116"/>
<path d="M22.2384 13.4556H27.2384V15.9556" fill="#FCD116"/>
</g>
<defs>
<clipPath id="clip0_93_11483">
<rect width="53.3333" height="30" fill="white" transform="translate(0.327148)"/>
</clipPath>
</defs>
</svg>
