<svg width="54" height="30" viewBox="0 0 54 30" fill="none" xmlns="http://www.w3.org/2000/svg">
<g clip-path="url(#clip0_93_11496)">
<path d="M0.658203 0H53.9915V30H0.658203V0Z" fill="#CE1126"/>
<path d="M-4.67499 -3V33L59.325 -3V33L-4.67499 -3Z" fill="#1EB53A"/>
<path d="M61.4584 36.5307L27.3251 17.3307L-6.80823 36.5307V-6.53593L27.3251 12.6641L61.4584 -6.53593V36.5307ZM31.4695 15.0002L57.1918 29.4696V0.530741L31.4695 15.0002ZM-2.54156 0.530741V29.4669L23.1807 15.003L-2.54156 0.530741Z" fill="white"/>
<path d="M27.325 23.5C32.0194 23.5 35.825 19.6944 35.825 15C35.825 10.3056 32.0194 6.5 27.325 6.5C22.6306 6.5 18.825 10.3056 18.825 15C18.825 19.6944 22.6306 23.5 27.325 23.5Z" fill="white"/>
<path d="M27.8496 9.68885H28.8996L28.3746 10.6L28.8996 11.5111H27.8496L27.3246 12.4194L26.7996 11.5083H25.7496L26.2746 10.5972L25.7496 9.68607H26.7996L27.3246 8.77496L27.8496 9.68885Z" fill="#CE1126"/>
<path d="M27.3246 12.6001L26.7496 11.6001H25.5941L26.1691 10.6001L25.5941 9.60006H26.7496L27.3246 8.60006L27.8996 9.60006H29.0552L28.4802 10.6001L29.0552 11.6001H27.8996L27.3246 12.6001ZM25.9052 11.4195H26.8496L27.3246 12.2389L27.7996 11.4195H28.7441L28.2691 10.6001L28.7441 9.78062H27.7996L27.3246 8.96117L26.8496 9.78062H25.9052L26.3802 10.6001L25.9052 11.4195Z" fill="#1EB53A"/>
<path d="M24.0388 16.2889H25.0888L24.5638 17.2L25.0888 18.1111H24.0388L23.5138 19.0222L22.9888 18.1111H21.9388L22.4638 17.2L21.9388 16.2889H22.9888L23.5138 15.3778L24.0388 16.2889Z" fill="#CE1126"/>
<path d="M23.5138 19.2001L22.9388 18.2001H21.7832L22.3582 17.2001L21.7832 16.2001H22.9388L23.5138 15.2001L24.0888 16.2001H25.2443L24.6693 17.2001L25.2443 18.2001H24.0888L23.5138 19.2001ZM22.0943 18.0196H23.0388L23.5138 18.839L23.9888 18.0196H24.9332L24.4582 17.2001L24.9332 16.3807H23.9888L23.5138 15.5612L23.0388 16.3807H22.0943L22.5693 17.2001L22.0943 18.0196Z" fill="#1EB53A"/>
<path d="M31.6605 16.2889H32.7105L32.1855 17.2L32.7105 18.1111H31.6605L31.1355 19.0222L30.6105 18.1111H29.5605L30.0855 17.2L29.5605 16.2889H30.6105L31.1355 15.3778L31.6605 16.2889Z" fill="#CE1126"/>
<path d="M31.1355 19.2001L30.5605 18.2001H29.4049L29.9799 17.2001L29.4049 16.2001H30.5605L31.1355 15.2001L31.7105 16.2001H32.866L32.291 17.2001L32.866 18.2001H31.7105L31.1355 19.2001ZM29.7132 18.0196H30.6577L31.1327 18.839L31.6077 18.0196H32.5521L32.0771 17.2001L32.5521 16.3807H31.6077L31.1327 15.5612L30.6577 16.3807H29.7132L30.1882 17.2001L29.7132 18.0196Z" fill="#1EB53A"/>
</g>
<defs>
<clipPath id="clip0_93_11496">
<rect width="53.3333" height="30" fill="white" transform="translate(0.658203)"/>
</clipPath>
</defs>
</svg>
