<svg width="54" height="30" viewBox="0 0 54 30" fill="none" xmlns="http://www.w3.org/2000/svg">
<g clip-path="url(#clip0_93_9767)">
<path d="M0.657227 0H53.9906V30H0.657227V0Z" fill="#032EA1"/>
<path d="M0.657227 7.5H53.9906V22.5H0.657227V7.5Z" fill="#E00025"/>
<path d="M23.1013 14.0638H31.6374V17.35H23.1013V14.0638Z" fill="white"/>
<path d="M31.6326 17.3804H23.1021L23.066 17.3443V14.0637L23.1021 14.0276H31.6382L31.6743 14.0637V17.3498L31.6326 17.3804ZM23.1326 17.3109H31.5937V14.0998H23.1326V17.3109Z" fill="black"/>
<path d="M31.1902 15.8778H31.4569V17.1139H31.1902V15.8778ZM23.1013 15.2639H31.6374V15.6445H23.1013V15.2639ZM23.1013 14.7473H31.6374V15.0834H23.1013V14.7473Z" fill="white"/>
<path d="M31.4632 17.1472H31.1965L31.1604 17.1111V15.8749L31.1965 15.8388H31.4632L31.4993 15.8749V17.1111L31.4632 17.1472ZM31.2299 17.0777H31.4271V15.9111H31.2299V17.0777ZM31.6326 15.6833H23.1021L23.066 15.6472V15.2666L23.1021 15.2305H31.6382L31.6743 15.2666V15.6472L31.6326 15.6833ZM23.1326 15.6083H31.5937V15.2999H23.1326V15.6083ZM31.6326 15.1222H23.1021L23.066 15.0861V14.7472L23.1021 14.7111H31.6382L31.6743 14.7472V15.0833L31.6326 15.1222ZM23.1326 15.0472H31.5937V14.7833H23.1326V15.0472Z" fill="black"/>
<path d="M23.1013 14.2302H31.6374V14.558H23.1013V14.2302Z" fill="white"/>
<path d="M31.6326 14.5916H23.1021L23.066 14.5555V14.2278L23.1021 14.1917H31.6382L31.6743 14.2278V14.5555L31.6326 14.5916ZM23.1326 14.5222H31.5993V14.2639H23.1326V14.5222Z" fill="black"/>
<path d="M25.3458 15.8777H25.6125V17.1139H25.3458V15.8777ZM29.0208 15.8777H29.2875V17.1139H29.0208V15.8777ZM23.1653 15.8777H23.432V17.1139H23.1653V15.8777ZM23.6903 15.8777H23.957V17.1139H23.6903V15.8777ZM24.2542 15.8777H24.5208V17.1139H24.2542V15.8777ZM24.8153 15.8777H25.082V17.1139H24.8153V15.8777ZM29.532 15.8777H29.7986V17.1139H29.532V15.8777ZM30.0931 15.8777H30.3597V17.1139H30.0931V15.8777ZM30.657 15.8777H30.9236V17.1139H30.657V15.8777Z" fill="white"/>
<path d="M30.9244 17.1474H30.6577L30.6216 17.1113V15.8752L30.6577 15.8391H30.9244L30.9605 15.8752V17.1113L30.9244 17.1474ZM30.6911 17.078H30.8883V15.9113H30.6911V17.078ZM30.3605 17.1474H30.0938L30.0577 17.1113V15.8752L30.0938 15.8391H30.3605L30.3966 15.8752V17.1113L30.3605 17.1474ZM30.1272 17.078H30.3244V15.9113H30.1272V17.078ZM29.7994 17.1474H29.5327L29.4966 17.1113V15.8752L29.5327 15.8391H29.7994L29.8355 15.8752V17.1113L29.7994 17.1474ZM29.5661 17.078H29.7633V15.9113H29.5661V17.078ZM29.2883 17.1474H29.0216L28.9855 17.1113V15.8752L29.0216 15.8391H29.2883L29.3244 15.8752V17.1113L29.2883 17.1474ZM29.0549 17.078H29.2522V15.9113H29.0549V17.078ZM25.6133 17.1474H25.3466L25.3105 17.1113V15.8752L25.3466 15.8391H25.6133L25.6494 15.8752V17.1113L25.6133 17.1474ZM25.3827 17.078H25.5799V15.9113H25.3827V17.078ZM25.0883 17.1474H24.8216L24.7855 17.1113V15.8752L24.8216 15.8391H25.0883L25.1244 15.8752V17.1113L25.0883 17.1474ZM24.8549 17.078H25.0522V15.9113H24.8549V17.078ZM24.5272 17.1474H24.2605L24.2244 17.1113V15.8752L24.2605 15.8391H24.5272L24.5633 15.8752V17.1113L24.5272 17.1474ZM24.2911 17.078H24.4883V15.9113H24.2911V17.078ZM23.9633 17.1474H23.6966L23.6605 17.1113V15.8752L23.6966 15.8391H23.9633L23.9994 15.8752V17.1113L23.9633 17.1474ZM23.7299 17.078H23.9272V15.9113H23.7299V17.078ZM23.4327 17.1474H23.1661L23.1299 17.1113V15.8752L23.1661 15.8391H23.4327L23.4688 15.8752V17.1113L23.4327 17.1474ZM23.2049 17.078H23.4022V15.9113H23.2049V17.078Z" fill="black"/>
<path d="M19.7578 17.5164C19.8884 17.4498 20.0384 17.2914 20.0911 17.1192H34.5717C34.6245 17.2914 34.7745 17.4525 34.905 17.5164H19.7578Z" fill="white"/>
<path d="M35.0538 17.5555H19.6094L19.7455 17.4861C19.8677 17.425 20.0122 17.275 20.0594 17.1111L20.0677 17.0833H34.6038L34.6122 17.1111C34.6594 17.275 34.8038 17.425 34.9261 17.4861L35.0538 17.5555ZM19.8788 17.4833H34.7816C34.6844 17.4083 34.5899 17.2916 34.5427 17.1555H20.1177C20.0705 17.2916 19.9788 17.4055 19.8788 17.4833Z" fill="black"/>
<path d="M27.1461 9.06108C27.1461 9.06108 27.1378 8.75275 27.3156 8.74719C27.4933 8.75275 27.485 9.06108 27.485 9.06108H27.1461ZM26.2072 13.1527V12.7361C26.2017 12.5305 26.0017 12.5166 25.9961 12.3611C25.9961 12.3611 25.9684 12.1361 26.0295 12.0277C26.11 12.3333 26.26 12.275 26.26 12.15C26.26 12.0416 26.1767 11.9389 26.0017 11.6777C25.9461 11.5944 25.9822 11.325 26.0572 11.2333C26.085 11.4639 26.1239 11.575 26.2211 11.575C26.2822 11.575 26.3295 11.5361 26.3295 11.4194C26.3295 11.275 26.2322 11.2 26.1795 11.0639C26.1239 10.9083 26.16 10.75 26.2545 10.6611C26.2961 10.8861 26.2822 10.9805 26.385 10.9805C26.5878 10.9139 26.385 10.6194 26.3434 10.55C26.2906 10.4666 26.41 10.2916 26.41 10.2916C26.4767 10.4944 26.4933 10.5111 26.5656 10.4944C26.6545 10.4722 26.6406 10.3389 26.5322 10.2361C26.4656 10.1694 26.4711 10.0722 26.5461 9.99164C26.6211 10.1333 26.7156 10.1277 26.7183 10.0444L26.6572 9.71664H27.9517L27.885 10.0361C27.8656 10.125 27.9878 10.1472 28.0683 9.99719C28.1433 10.0777 28.1489 10.175 28.0822 10.2416C27.9739 10.35 27.9656 10.475 28.0489 10.5C28.1183 10.5194 28.1378 10.5 28.2045 10.2972C28.2045 10.2972 28.3072 10.4139 28.2711 10.5555C28.2295 10.6305 28.0239 10.925 28.2295 10.9861C28.3322 10.9861 28.3183 10.8972 28.36 10.6666C28.4545 10.7555 28.4961 10.9139 28.435 11.0694C28.3878 11.2 28.285 11.275 28.285 11.425C28.285 11.5416 28.3378 11.5805 28.3933 11.5805C28.4906 11.5805 28.5239 11.4694 28.5572 11.2389C28.6322 11.3333 28.6711 11.6 28.6128 11.6833C28.4406 11.9472 28.3545 12.05 28.3545 12.1555C28.3545 12.2833 28.5045 12.3389 28.585 12.0333C28.6461 12.1361 28.6183 12.3666 28.6183 12.3666C28.6128 12.5166 28.4128 12.5305 28.4072 12.7416V13.1583H26.21V13.1527H26.2072ZM26.7517 9.70275L26.7239 9.46941H27.91L27.8822 9.70275H26.7517ZM26.8322 9.46386L26.81 9.27219H27.8322L27.81 9.46386H26.8322ZM26.9906 9.26386L26.9711 9.07219H27.6517L27.6322 9.26386H26.9906ZM29.4711 17.5166C29.3211 17.4611 29.0961 17.2972 29.0961 17.1361V15.3139L29.2933 15.0611H25.3378L25.5267 15.3139V17.1389C25.5267 17.2972 25.3767 17.4611 25.2211 17.5194H29.4711V17.5166Z" fill="white"/>
<path d="M25.027 17.5555L25.2104 17.4861C25.3465 17.4333 25.4909 17.2833 25.4909 17.1389V15.3305L25.2659 15.0305H29.3715L29.1382 15.3305V17.1389C29.1382 17.275 29.3409 17.4305 29.4909 17.4861L29.6743 17.5555H25.027ZM25.4076 15.0972L25.5632 15.3028V17.1361C25.5632 17.2666 25.4743 17.4 25.3604 17.4778H29.3215C29.1909 17.3944 29.0632 17.2666 29.0632 17.1361V15.3028L29.2215 15.1H25.4076V15.0972ZM28.4576 13.1916H26.1743V12.7416C26.1687 12.6444 26.1215 12.5972 26.0659 12.55C26.0132 12.5028 25.9632 12.4555 25.9632 12.3722C25.9632 12.3639 25.9354 12.1333 25.9993 12.0194L26.0409 11.9444L26.0632 12.0278C26.1048 12.1916 26.1604 12.2305 26.1909 12.225C26.2104 12.2194 26.2243 12.1972 26.2243 12.1583C26.2243 12.0778 26.1687 12 26.0604 11.8361C26.0326 11.7972 26.0048 11.7528 25.9715 11.7055C25.9104 11.6083 25.9437 11.325 26.027 11.2194L26.0798 11.1528L26.0882 11.2361C26.1159 11.4666 26.1493 11.5444 26.2159 11.5444C26.2354 11.5444 26.2909 11.5444 26.2909 11.4278C26.2909 11.3472 26.2576 11.2916 26.2159 11.225C26.1937 11.1833 26.1632 11.1416 26.1465 11.0833C26.0854 10.925 26.1243 10.7472 26.2298 10.6416L26.277 10.5944L26.2854 10.6611C26.2937 10.7083 26.2993 10.75 26.3048 10.7833C26.327 10.925 26.3326 10.9472 26.3743 10.9472C26.402 10.9389 26.4215 10.925 26.427 10.9C26.4604 10.8166 26.3604 10.6611 26.3187 10.5916C26.3132 10.5833 26.3104 10.5722 26.3048 10.5694C26.2437 10.4666 26.3604 10.2916 26.3743 10.2694L26.4159 10.2083L26.4382 10.2778C26.4993 10.4666 26.5076 10.4666 26.5493 10.45C26.5632 10.4444 26.5715 10.4361 26.577 10.4222C26.5854 10.3833 26.5687 10.3194 26.502 10.2528C26.4215 10.1722 26.427 10.05 26.5104 9.95831L26.5437 9.91942L26.5659 9.96665C26.602 10.0361 26.6409 10.0611 26.6604 10.0555C26.6687 10.0555 26.6743 10.0416 26.6743 10.0333L26.6076 9.66665H26.6909L26.6632 9.42776H26.7715L26.7437 9.23053H26.9354L26.9159 9.02776H27.0882C27.0882 8.96665 27.102 8.83609 27.1715 8.76109C27.2048 8.72776 27.2465 8.70831 27.2937 8.70831C27.3409 8.70831 27.3826 8.72776 27.4159 8.76109C27.4854 8.83609 27.4965 8.96665 27.4993 9.02776H27.6715L27.652 9.23053H27.8409L27.8132 9.42776H27.9215L27.8937 9.66665H27.9771L27.9215 10.0278C27.9215 10.0361 27.9159 10.05 27.9298 10.0555C27.952 10.0639 27.9993 10.0416 28.0382 9.96665L28.0604 9.91942L28.0937 9.95831C28.1826 10.0528 28.1826 10.175 28.1021 10.2528C28.0354 10.3194 28.0187 10.3833 28.0271 10.4222C28.0326 10.4361 28.0409 10.4444 28.0548 10.45C28.0909 10.4583 28.1076 10.4639 28.1687 10.2778L28.1882 10.2166L28.2298 10.2639C28.2354 10.2694 28.3465 10.4 28.3048 10.5555L28.2993 10.5639C28.2937 10.5694 28.2909 10.5778 28.2854 10.5861C28.2493 10.6472 28.1493 10.8111 28.1771 10.8944C28.1854 10.9166 28.1993 10.9333 28.2298 10.9416C28.2659 10.9416 28.2771 10.9194 28.2993 10.7778C28.3048 10.7389 28.3076 10.7028 28.3187 10.6555L28.3271 10.5889L28.3743 10.6361C28.4882 10.7389 28.5187 10.9166 28.4576 11.0778C28.4382 11.1305 28.4104 11.175 28.3882 11.2194C28.3521 11.2861 28.3132 11.3416 28.3132 11.4222C28.3132 11.5389 28.3687 11.5389 28.3882 11.5389C28.4548 11.5389 28.4854 11.4583 28.5159 11.2305L28.5243 11.1472L28.5771 11.2139C28.6659 11.3222 28.6993 11.6028 28.6326 11.7C28.5993 11.7528 28.5715 11.7944 28.5437 11.8305C28.4354 11.9944 28.3798 12.075 28.3798 12.1528C28.3798 12.1861 28.3937 12.2139 28.4132 12.2194C28.4354 12.225 28.4937 12.1861 28.5409 12.0222L28.5632 11.9389L28.6048 12.0139C28.6715 12.125 28.6409 12.3555 28.6409 12.3666C28.6354 12.4472 28.5854 12.4972 28.5382 12.5444C28.4854 12.5972 28.4354 12.6416 28.4298 12.7361V13.1916H28.4576ZM26.2465 13.1166H28.3826V12.7361C28.3882 12.6083 28.4576 12.5444 28.5132 12.4889C28.5604 12.4472 28.5937 12.4139 28.5965 12.3583C28.6021 12.3166 28.6048 12.2278 28.5965 12.1472C28.5354 12.2833 28.4659 12.2916 28.4326 12.2889C28.3771 12.2805 28.3354 12.2278 28.3354 12.1528C28.3354 12.0555 28.3909 11.9639 28.5076 11.7916C28.5354 11.7528 28.5632 11.7083 28.5965 11.6611C28.6298 11.6139 28.6243 11.4639 28.5909 11.3555C28.5632 11.5055 28.5215 11.6139 28.4076 11.6139C28.3659 11.6139 28.2632 11.5944 28.2632 11.4222C28.2632 11.3194 28.3048 11.25 28.3465 11.1833C28.3687 11.1444 28.3937 11.1028 28.4132 11.0555C28.4493 10.9472 28.4409 10.8361 28.3937 10.75C28.3937 10.7639 28.3882 10.7778 28.3882 10.7916C28.3659 10.9333 28.3548 11.0166 28.2437 11.0166H28.2354C28.1826 10.9972 28.1465 10.9694 28.1326 10.9222C28.0909 10.8055 28.1937 10.6305 28.2465 10.5528C28.2521 10.5472 28.2548 10.5389 28.2548 10.5333C28.2687 10.4666 28.2493 10.4111 28.2326 10.3694C28.1854 10.5 28.1493 10.5472 28.0604 10.5194C28.0187 10.5111 27.9909 10.4778 27.9798 10.4389C27.9604 10.3694 27.9993 10.275 28.0743 10.2C28.1159 10.1583 28.1215 10.1028 28.0882 10.0444C28.0354 10.1194 27.9659 10.1389 27.9243 10.1194C27.8826 10.1055 27.8576 10.0583 27.8687 10.0111L27.9243 9.73331H26.7159L26.7687 10.025V10.0305C26.7632 10.0833 26.7354 10.1139 26.6937 10.125C26.6465 10.1333 26.5965 10.1055 26.552 10.0444C26.5187 10.1 26.5243 10.1555 26.5659 10.2C26.6409 10.275 26.677 10.3694 26.6604 10.4389C26.652 10.4805 26.6243 10.5083 26.5798 10.5194C26.4909 10.5416 26.452 10.5 26.4076 10.375C26.3798 10.4305 26.3604 10.4972 26.3798 10.5305C26.3854 10.5361 26.3882 10.5444 26.3937 10.5528C26.4465 10.6361 26.5493 10.8055 26.5048 10.9222C26.4854 10.9639 26.452 10.9972 26.402 11.0166H26.3937C26.2826 11.0166 26.2659 10.9333 26.2493 10.7916C26.2493 10.7778 26.2437 10.7639 26.2437 10.75C26.1909 10.8333 26.1826 10.9528 26.2243 11.0555C26.2437 11.1028 26.2659 11.1444 26.2909 11.1833C26.3326 11.2528 26.3743 11.325 26.3743 11.4222C26.3743 11.5944 26.2715 11.6139 26.2298 11.6139C26.1187 11.6139 26.0743 11.5111 26.0465 11.3555C26.0132 11.4639 26.0104 11.6139 26.0382 11.6611C26.0715 11.7083 26.0993 11.7555 26.1215 11.7916C26.2382 11.9639 26.2937 12.0555 26.2937 12.1528C26.2937 12.2222 26.2576 12.2805 26.1965 12.2889C26.1632 12.2944 26.0882 12.2833 26.0326 12.1472C26.0243 12.2278 26.027 12.3166 26.0326 12.3583C26.0326 12.4139 26.0687 12.4472 26.1159 12.4889C26.1715 12.5416 26.2437 12.6055 26.2465 12.7333V13.1166ZM26.7854 9.66665H27.8493L27.8687 9.50276H26.7632L26.7854 9.66665ZM26.8659 9.42776H27.7687L27.7826 9.30554H26.8437L26.8659 9.42776ZM27.0298 9.22498H27.6076L27.6159 9.10276H27.0159L27.0298 9.22498ZM27.1826 9.02776H27.4465C27.4409 8.96665 27.427 8.86942 27.3798 8.81665C27.3604 8.7972 27.3382 8.78887 27.3104 8.78887C27.2826 8.78887 27.2632 8.7972 27.2437 8.8222C27.202 8.86942 27.1882 8.96665 27.1826 9.02776Z" fill="black"/>
<path d="M26.0403 15.8777H26.307V17.1139H26.0403V15.8777ZM28.3125 15.8777H28.5792V17.1139H28.3125V15.8777Z" fill="white"/>
<path d="M28.5855 17.1474H28.3188L28.2827 17.1113V15.8752L28.3188 15.8391H28.5855L28.6216 15.8752V17.1113L28.5855 17.1474ZM28.3522 17.078H28.5494V15.9113H28.3522V17.078ZM26.3077 17.1474H26.0411L26.0049 17.1113V15.8752L26.0411 15.8391H26.3077L26.3438 15.8752V17.1113L26.3077 17.1474ZM26.0772 17.078H26.2744V15.9113H26.0772V17.078Z" fill="black"/>
<path d="M25.2661 12.989V15.0612H29.3161V14.6168L29.3217 12.989C29.1578 13.0557 29.1244 13.2057 29.1244 13.2057V14.0862H25.4689V13.2057C25.4717 13.2057 25.43 13.0557 25.2661 12.989Z" fill="white"/>
<path d="M29.3542 15.0972H25.2292V12.9361L25.2764 12.9556C25.4597 13.025 25.5014 13.1889 25.507 13.1945V13.2028V14.05H29.0931V13.1972C29.0931 13.1917 29.1264 13.0278 29.3097 12.9528L29.3625 12.9333L29.3542 15.0972ZM25.3042 15.0278H29.2847V14.6167L29.2903 13.0472C29.1959 13.1028 29.1736 13.1917 29.1681 13.2056V14.1195H25.4403V13.2056C25.4347 13.1861 25.4042 13.0972 25.3042 13.0417V15.0278Z" fill="black"/>
<path d="M28.7687 17.5165C28.6382 17.461 28.3465 17.2971 28.3465 17.136V15.0971C28.3743 14.986 28.5298 14.9137 28.6271 14.8443H25.9409C26.0687 14.911 26.2132 14.9665 26.2632 15.0971V17.1387C26.2632 17.2971 26.0326 17.461 25.902 17.5193H28.7687V17.5165Z" fill="white"/>
<path d="M25.7292 17.5556L25.8847 17.4861C26.0209 17.425 26.2236 17.275 26.2236 17.1389V15.1056C26.182 15.0111 26.082 14.9611 25.9764 14.9028C25.957 14.8945 25.9403 14.8834 25.9236 14.875L25.7959 14.8083H28.7403L28.6459 14.875C28.6236 14.8945 28.5931 14.9084 28.5653 14.9278C28.482 14.9806 28.3959 15.0306 28.3764 15.1056V17.1389C28.3764 17.2667 28.6153 17.4167 28.7736 17.4861L28.9292 17.5556H25.7292ZM26.0903 14.8833C26.1792 14.9306 26.2597 14.9917 26.2959 15.0861L26.3014 15.0917V17.1389C26.3014 17.2695 26.1709 17.4028 26.0431 17.4806H28.6209C28.4903 17.4056 28.3125 17.2778 28.3125 17.1389V15.0917C28.3347 14.9972 28.4209 14.9361 28.5097 14.8861H26.0903V14.8833Z" fill="black"/>
<path d="M29.1291 14.8693V13.4026H28.7597V13.2582H25.8458V13.4026H25.4763V14.8693H29.1291ZM28.1874 17.5165C28.0569 17.461 27.868 17.2971 27.868 17.136V15.3971L27.9763 15.2387H26.6485L26.7569 15.3971V17.1387C26.7569 17.2971 26.568 17.461 26.4374 17.5193H28.1874V17.5165Z" fill="white"/>
<path d="M26.2688 17.5554L26.4244 17.4859C26.5522 17.4304 26.7188 17.2804 26.7188 17.1387V15.4081L26.5827 15.2026H28.0466L27.905 15.4081V17.1387C27.905 17.2804 28.0772 17.4304 28.1994 17.4859L28.3549 17.5554H26.2688ZM26.7161 15.2776L26.7911 15.3887V17.1415C26.7911 17.272 26.6827 17.4054 26.5661 17.4831H28.0577C27.9438 17.3998 27.8327 17.272 27.8327 17.1415V15.3887L27.9077 15.2776H26.7161ZM29.1661 14.9054H25.4438V13.3637H25.8133V13.2192H28.7994V13.3637H29.1688V14.9054H29.1661ZM25.5161 14.8304H29.0938V13.4331H28.7244V13.2887H25.88V13.4331H25.5105V14.8304H25.5161Z" fill="black"/>
<path d="M26.9763 15.239H27.6458V17.5168H26.9763V15.239Z" fill="white"/>
<path d="M27.6855 17.5553H26.941V15.2025H27.6855V17.5553ZM27.0105 17.4803H27.6105V15.2775H27.0105V17.4803Z" fill="black"/>
<path d="M27.9985 14.7362C27.9985 14.5862 28.4346 14.5807 28.6596 14.4501H25.9651C26.1901 14.5779 26.6179 14.5918 26.6179 14.7362L26.7068 15.0279L27.8235 15.0751L27.9985 14.7362Z" fill="white"/>
<path d="M27.8268 15.1114L26.7101 15.0641L26.6768 15.0419L26.5824 14.7419C26.5824 14.6808 26.4268 14.6447 26.2907 14.6058C26.1685 14.5725 26.0463 14.5391 25.949 14.4891L25.9685 14.4225H28.6629L28.6824 14.4891C28.5879 14.5447 28.4574 14.5725 28.3351 14.6058C28.1935 14.6419 28.0407 14.6808 28.0351 14.7419L28.0296 14.7558L27.8518 15.0947L27.8268 15.1114ZM26.7324 14.9947L27.8018 15.0364L27.9601 14.728C27.9685 14.6197 28.1296 14.578 28.3129 14.5308C28.3685 14.5169 28.4213 14.503 28.4713 14.4891H26.1407C26.1935 14.503 26.249 14.5169 26.299 14.5308C26.4824 14.578 26.6379 14.6197 26.6463 14.728L26.7324 14.9947Z" fill="black"/>
<path d="M28.5298 13.1528C28.5298 12.7862 28.5437 12.6417 28.6576 12.6417V13.8084C28.3798 13.9056 28.1854 14.2639 28.1854 14.2639H26.4465C26.4465 14.2639 26.2493 13.9112 25.9743 13.8084V12.6417C26.116 12.6417 26.116 12.7917 26.116 13.1528H28.5298ZM28.6548 13.0028C28.6548 12.5806 29.0215 12.5334 29.0215 12.5334V12.9084C28.8798 12.9028 28.816 13.0251 28.816 13.2139C28.816 13.3973 28.9298 13.4028 28.9298 13.4028V14.4667H28.6576V13.0028H28.6548Z" fill="white"/>
<path d="M28.9595 14.497H28.6179V13.8636C28.3845 13.9803 28.2151 14.2748 28.2095 14.2803L28.2012 14.2998H26.4206L26.4123 14.2803C26.4123 14.2748 26.2151 13.9386 25.9567 13.8442L25.9345 13.8359V12.6081H25.9706C26.1401 12.6081 26.1484 12.7664 26.1484 13.1192H28.4956C28.4956 12.797 28.5095 12.6081 28.6595 12.6081H28.6956V12.7164C28.8095 12.5275 29.0151 12.4998 29.0179 12.4998L29.0595 12.4942V12.9498H29.0234C28.9817 12.9498 28.9484 12.9581 28.9262 12.9831C28.8845 13.0248 28.8567 13.1109 28.8567 13.2164C28.8567 13.3664 28.9317 13.3664 28.9317 13.3664H28.9651V14.497H28.9595ZM28.6929 14.4275H28.8901V13.4303C28.8484 13.4109 28.7762 13.3636 28.7762 13.2136C28.7762 13.0831 28.8095 12.9831 28.8651 12.9275C28.8984 12.8998 28.9345 12.8803 28.979 12.8748V12.5803C28.8901 12.6081 28.6873 12.697 28.6873 13.0025L28.6929 14.4275ZM26.4623 14.2303H28.1651C28.2067 14.1553 28.3845 13.8886 28.6234 13.7886V12.6942C28.5817 12.7303 28.5679 12.8525 28.5679 13.1525V13.1886H26.0734V13.1525C26.0734 12.8442 26.0678 12.7164 26.004 12.6886V13.7914C26.2401 13.8886 26.4178 14.1553 26.4623 14.2303Z" fill="black"/>
<path d="M25.968 13.0028C25.968 12.5806 25.6013 12.5334 25.6013 12.5334V12.9084C25.743 12.9028 25.8069 13.0251 25.8069 13.2139C25.8069 13.3973 25.6958 13.4028 25.6958 13.4028V14.4667H25.968V13.0028Z" fill="white"/>
<path d="M26.0021 14.4974H25.6604V13.364H25.6938C25.6993 13.364 25.7688 13.3557 25.7688 13.214C25.7688 13.1057 25.7465 13.0224 25.6993 12.9807C25.6715 12.9585 25.6382 12.9446 25.6021 12.9474H25.566V12.4918L25.6076 12.4974C25.6132 12.4974 26.0021 12.5529 26.0021 13.0029V14.4974ZM25.7354 14.4279H25.9326V13.0029C25.9326 12.6974 25.7299 12.6057 25.641 12.5807V12.8752C25.6826 12.8807 25.7243 12.8974 25.7521 12.9279C25.8132 12.9835 25.841 13.0835 25.841 13.214C25.841 13.364 25.7715 13.4113 25.7299 13.4307V14.4279H25.7354Z" fill="black"/>
<path d="M28.4551 12.2916H26.1718V12.2304H28.4551V12.2916ZM28.4356 11.611H26.219V11.5499H28.4356V11.611ZM28.2468 11.0166H26.3801V10.9554H28.2468V11.0166ZM28.1023 10.5277H26.5329V10.4666H28.1023V10.5277ZM27.9718 10.1304H26.6856V10.0693H27.969V10.1304H27.9718Z" fill="black"/>
<path d="M28.0268 15.0055H26.6018V14.5083H25.4824V14.4388H29.1352V14.5083H28.0296V15.0055H28.0268ZM26.6713 14.9333H27.9518V14.5055H26.6713V14.9333Z" fill="black"/>
<path d="M26.4651 13.3695C26.6901 13.6361 26.6679 14.0973 26.6679 14.3639H27.9651C27.9596 14.0973 27.9429 13.6361 28.1679 13.3695H26.4651ZM27.1957 10.2834L27.0179 10.1889V9.92504C27.0929 9.94726 27.1735 9.95837 27.1818 10.0695C27.204 9.90559 27.2513 9.91115 27.3263 9.85004C27.3957 9.9167 27.4429 9.90559 27.4679 10.0695C27.4763 9.95281 27.5568 9.9417 27.6318 9.92504V10.1889L27.454 10.2834H27.1957Z" fill="white"/>
<path d="M28.005 14.3998H26.63V14.3109C26.6356 14.0387 26.6383 13.6304 26.4383 13.3915L26.3911 13.3304H28.2467L28.1994 13.3915C27.9967 13.6359 28.0022 14.0443 28.0078 14.3109L28.005 14.3998ZM26.705 14.3304H27.9328V14.3165C27.9272 14.0526 27.9244 13.6748 28.0967 13.4082H26.5356C26.7078 13.6721 26.705 14.0554 26.6994 14.3165L26.705 14.3304ZM27.1883 10.3221L26.9828 10.2137V9.88039L27.03 9.89428C27.0383 9.89428 27.0439 9.89983 27.0522 9.89983C27.0883 9.90817 27.1411 9.92206 27.1744 9.96095C27.1939 9.90817 27.2217 9.88595 27.2578 9.85817C27.2717 9.84983 27.2856 9.83872 27.2994 9.82484L27.3217 9.80261L27.3439 9.82484C27.3578 9.83872 27.3717 9.84706 27.3856 9.85817C27.4217 9.88595 27.4522 9.91095 27.4689 9.96095C27.5022 9.92206 27.5494 9.91372 27.5911 9.89983C27.5994 9.89983 27.605 9.89428 27.6133 9.89428L27.6606 9.88039V10.2137L27.455 10.3221H27.1883ZM27.0578 10.1721L27.2078 10.2526H27.4467L27.5967 10.1721V9.98039C27.5411 9.99983 27.5133 10.0137 27.5078 10.0832L27.4383 10.0887C27.4189 9.97761 27.3967 9.95817 27.355 9.92483C27.3467 9.91928 27.3411 9.9165 27.3328 9.90539C27.3244 9.91095 27.3189 9.91372 27.3106 9.92483C27.2689 9.95817 27.2439 9.97761 27.2272 10.0887L27.1578 10.0832C27.1522 10.0165 27.1244 9.99983 27.0689 9.98039V10.1721H27.0578Z" fill="black"/>
<path d="M27.1871 10.7167L26.8927 10.514V10.2695C26.9955 10.2917 27.1121 10.3029 27.1233 10.4279C27.1594 10.2445 27.226 10.1501 27.326 10.0806C27.4288 10.1501 27.4955 10.2445 27.5288 10.4279C27.5371 10.3001 27.6566 10.2917 27.7594 10.2695V10.514L27.4649 10.7167H27.1871Z" fill="white"/>
<path d="M27.4736 10.7527H27.1736L26.8542 10.5333V10.2277L26.8959 10.236C26.9042 10.2416 26.9181 10.2416 26.9292 10.2444C26.9903 10.2583 27.0653 10.2722 27.1125 10.3249C27.1486 10.2083 27.2097 10.1222 27.3042 10.0583L27.3236 10.0444L27.3431 10.0583C27.4375 10.1249 27.4986 10.2027 27.5347 10.3249C27.582 10.2777 27.6514 10.2583 27.7181 10.2444C27.7264 10.2388 27.7403 10.2388 27.7514 10.236L27.7931 10.2277V10.5333L27.4736 10.7527ZM27.1959 10.6777H27.4542L27.7264 10.4888V10.311C27.632 10.3305 27.5709 10.3499 27.5681 10.4333L27.4986 10.4388C27.4709 10.2888 27.4181 10.1999 27.3292 10.1305C27.2403 10.1999 27.1875 10.2888 27.1597 10.4388L27.0903 10.4333C27.082 10.3527 27.0236 10.336 26.932 10.311V10.4888L27.1959 10.6777Z" fill="black"/>
<path d="M27.1655 11.3862L26.8238 11.0862V10.7334C26.9405 10.7723 27.0766 10.7862 27.0905 10.9667C27.1321 10.7001 27.2071 10.564 27.3238 10.4556C27.4405 10.5584 27.5155 10.7001 27.5571 10.9667C27.571 10.7778 27.7016 10.764 27.8238 10.7278V11.0834L27.4821 11.3834H27.1655V11.3862ZM27.7933 11.7834L27.4849 12.2112H27.1377L26.8294 11.7834H27.7933ZM26.6544 12.4973C26.8099 12.5806 26.8655 12.7501 26.8794 13.064H27.746C27.7655 12.7501 27.821 12.5806 27.971 12.4973H26.6544Z" fill="white"/>
<path d="M27.7788 13.103H26.8455V13.0696C26.826 12.7502 26.7705 12.6058 26.6399 12.5308L26.5177 12.4641H28.1205L27.9982 12.5308C27.8621 12.6058 27.8066 12.7502 27.7927 13.0696L27.7788 13.103ZM26.9121 13.0308H27.7094C27.7232 12.8141 27.7621 12.6474 27.8649 12.5391H26.7594C26.8649 12.6419 26.8955 12.8169 26.9121 13.0308ZM27.501 12.2446H27.1177L26.7566 11.7474H27.8621L27.501 12.2446ZM27.1538 12.1724H27.4621L27.7205 11.8196H26.8955L27.1538 12.1724ZM27.151 11.4224L26.7899 11.103V10.6808L26.8371 10.6947C26.851 10.7002 26.8594 10.703 26.8733 10.703C26.9483 10.7224 27.0316 10.7447 27.0844 10.8196C27.126 10.6419 27.1955 10.5252 27.3038 10.4252L27.326 10.4058L27.3482 10.4252C27.4566 10.5196 27.526 10.6419 27.5677 10.8196C27.6205 10.7447 27.7038 10.7224 27.7788 10.703C27.7927 10.6974 27.801 10.6974 27.8149 10.6947L27.8621 10.6808V11.103L27.501 11.4224H27.151ZM26.8594 11.0724L27.1788 11.353H27.4732L27.7927 11.0724V10.7808C27.6899 10.8085 27.6094 10.8335 27.601 10.9724L27.5316 10.978C27.4982 10.753 27.4371 10.6169 27.3344 10.5141C27.2316 10.6169 27.1705 10.7585 27.1371 10.978L27.0677 10.9724C27.0594 10.8308 26.9788 10.8085 26.876 10.7808V11.0724H26.8594Z" fill="black"/>
<path d="M27.9849 11.7833V11.3555C27.8405 11.3972 27.746 11.4833 27.7044 11.5999C27.7044 11.4583 27.5155 11.1305 27.3155 10.9666C27.1099 11.1499 26.9211 11.4444 26.9266 11.5999C26.8933 11.4888 26.7905 11.3944 26.6461 11.3555V11.7833H27.9849Z" fill="white"/>
<path d="M27.9847 11.8221H26.6403L26.6042 11.7832V11.3554L26.6514 11.3221C26.7597 11.3499 26.8542 11.411 26.9097 11.4916C26.9653 11.3193 27.1347 11.0888 27.2931 10.9443H27.3403C27.5125 11.086 27.6681 11.3277 27.7236 11.4971C27.7792 11.4166 27.8681 11.3554 27.982 11.3277L28.0292 11.361V11.7888L27.9847 11.8221ZM26.6709 11.7471H27.9459V11.4054C27.8375 11.4471 27.7681 11.5166 27.7292 11.611L27.6597 11.5971C27.6597 11.4693 27.4903 11.1749 27.307 11.011C27.1153 11.1943 26.9459 11.461 26.9514 11.5916L26.882 11.5999C26.8542 11.511 26.7736 11.436 26.6709 11.3943V11.7471Z" fill="black"/>
<path d="M28.0523 12.4973V12.0696C27.894 12.1112 27.7884 12.1973 27.744 12.314C27.744 12.1723 27.5384 11.8446 27.3162 11.6807C27.0912 11.864 26.8856 12.1584 26.8884 12.314C26.8523 12.2029 26.7384 12.1084 26.5801 12.0696V12.4973H28.0523Z" fill="white"/>
<path d="M28.0513 12.5335H26.5735L26.5374 12.4974V12.0697L26.5846 12.0363C26.7124 12.0696 26.8096 12.1308 26.8707 12.2085C26.9319 12.0308 27.1152 11.8002 27.293 11.6558H27.3346C27.5263 11.7974 27.7013 12.0447 27.7568 12.2141C27.818 12.1308 27.9152 12.0696 28.043 12.0363L28.0902 12.0697V12.4974L28.0513 12.5335ZM26.6069 12.4641H28.0124V12.1224C27.8902 12.1641 27.8096 12.2335 27.7735 12.3335L27.7041 12.3196C27.7041 12.1919 27.5152 11.8919 27.3152 11.7335C27.1041 11.9169 26.918 12.1891 26.9207 12.3196L26.8513 12.3335C26.818 12.2446 26.7346 12.1641 26.6124 12.128V12.4641H26.6069Z" fill="black"/>
<path d="M28.2294 13.3779V12.8863C28.0266 12.939 27.9072 13.0835 27.8461 13.1724C27.8461 12.9057 27.5461 12.4974 27.3127 12.3668C27.0738 12.5029 26.7794 12.9252 26.7794 13.1724C26.7127 13.089 26.5905 12.939 26.3961 12.8863V13.3779H28.2294Z" fill="white"/>
<path d="M28.2292 13.4112H26.3903L26.3542 13.3751V12.8834L26.4014 12.8501C26.5597 12.8917 26.6736 12.9917 26.7542 13.0806C26.8097 12.814 27.0764 12.4584 27.2931 12.3306H27.3292C27.5458 12.4584 27.8153 12.8084 27.8681 13.0806C27.9708 12.964 28.0875 12.8834 28.2208 12.8501L28.2681 12.8834V13.3751L28.2292 13.4112ZM26.4292 13.3417H28.1958V12.9334C28.0736 12.9751 27.9708 13.0612 27.8736 13.1917L27.807 13.1695C27.807 12.9306 27.5292 12.5473 27.3097 12.4056C27.0931 12.5417 26.8125 12.9362 26.8125 13.1695L26.7459 13.1917C26.6792 13.1084 26.5764 12.989 26.4236 12.9334V13.3417H26.4292Z" fill="black"/>
<path d="M28.1206 14.4693V13.9638C27.9429 14.0332 27.8901 14.2027 27.8345 14.3165C27.8567 13.7999 27.5429 13.2471 27.3095 13.1082C27.0706 13.2499 26.7567 13.811 26.7845 14.3165C26.729 14.2054 26.6762 14.0304 26.4984 13.9638V14.4693H28.1206Z" fill="white"/>
<path d="M28.1215 14.5084H26.4992L26.4631 14.4723V13.9667L26.5104 13.9334C26.6326 13.9806 26.6992 14.0751 26.7437 14.164C26.777 13.6806 27.0715 13.2084 27.2881 13.0806H27.3243C27.5409 13.2084 27.8298 13.6723 27.8687 14.164C27.9159 14.0751 27.9798 13.9806 28.1076 13.9334L28.1548 13.9667V14.4723L28.1215 14.5084ZM26.5381 14.439H28.0909V14.0279C27.9881 14.089 27.9409 14.1917 27.8993 14.2917C27.8909 14.3112 27.8854 14.3279 27.877 14.3445L27.8076 14.3251C27.827 13.8279 27.5298 13.3084 27.3159 13.164C27.0965 13.314 26.7992 13.8473 26.8242 14.3251L26.7548 14.3445C26.7465 14.3251 26.7354 14.3084 26.727 14.289C26.6854 14.1945 26.6381 14.0917 26.5381 14.0362V14.4445V14.439Z" fill="black"/>
<path d="M27.9995 15.2387V14.7331C27.8161 14.7748 27.8023 14.8442 27.7467 14.9581C27.7689 14.6498 27.5495 14.3026 27.3161 14.1609C27.0773 14.3026 26.8606 14.6526 26.8856 14.9581C26.83 14.847 26.8189 14.7748 26.6328 14.7331V15.2387H27.9995Z" fill="white"/>
<path d="M28.0374 15.2779H26.5901V14.6862L26.6318 14.6946C26.7596 14.7224 26.8096 14.764 26.8485 14.8168C26.8846 14.5251 27.0929 14.2446 27.2929 14.1223L27.3124 14.114L27.3318 14.1223C27.5346 14.2446 27.7402 14.5251 27.7763 14.8168C27.8124 14.7612 27.8707 14.7224 27.9929 14.689L28.0346 14.6807V15.2779H28.0374ZM26.6568 15.2029H27.9596V14.7807C27.8513 14.814 27.8318 14.8557 27.7902 14.9362C27.7846 14.9501 27.7763 14.9585 27.7707 14.9724L27.6902 15.1279L27.704 14.9557C27.7235 14.664 27.5152 14.3362 27.3068 14.2001C27.0957 14.3362 26.8901 14.664 26.9096 14.9557L26.9235 15.1279L26.8429 14.9724C26.8346 14.9585 26.829 14.9446 26.8207 14.9307C26.7846 14.8557 26.7652 14.814 26.6568 14.7807V15.2029Z" fill="black"/>
<path d="M20.0901 17.1194V15.5861C20.0373 15.3889 19.8734 15.2194 19.7484 15.1833V13.8333L20.029 13.9833L20.3484 15.3944V17.1139H20.0901V17.1194Z" fill="white"/>
<path d="M20.3878 17.1555H20.06V15.5888C20.0128 15.4055 19.8572 15.2472 19.7461 15.2194L19.7183 15.211V13.7722L20.0655 13.961L20.3878 15.3944V17.1555ZM20.1294 17.086H20.3183V15.4027L20.0044 14.011L19.7933 13.8944V15.161C19.9239 15.2138 20.085 15.3805 20.1322 15.5777V15.586V17.086H20.1294Z" fill="black"/>
<path d="M20.0901 17.1275V15.5914C20.0373 15.3942 19.8734 15.2248 19.7484 15.1886V13.7442C19.9373 13.7442 20.029 13.9886 20.029 13.9886L20.3484 15.3998V17.1164L20.0901 17.1275Z" fill="white"/>
<path d="M20.0568 17.1669V15.5975C20.0096 15.4141 19.854 15.2558 19.7429 15.228L19.7151 15.2197V13.7141H19.7513C19.9624 13.7141 20.0596 13.9724 20.0652 13.9808V13.9863L20.3874 15.4058V17.1586L20.0568 17.1669ZM19.7874 15.1586C19.9179 15.2113 20.079 15.378 20.1263 15.5752V15.5836V17.0836L20.3152 17.0752V15.3974L19.9957 13.9919C19.9874 13.9724 19.9151 13.803 19.7846 13.7752V15.1586H19.7874Z" fill="black"/>
<path d="M19.8927 17.5167C20.0233 17.4611 20.2121 17.2973 20.2121 17.1362V15.2195L20.1233 15.0612H23.3871L23.2594 15.2195V17.1362C23.2594 17.2945 23.3899 17.4584 23.5177 17.5167H19.8927Z" fill="white"/>
<path d="M23.6847 17.5554H19.7263L19.8819 17.4859C20.0097 17.4304 20.1763 17.2804 20.1763 17.1387V15.2304L20.0652 15.0276H23.468L23.2985 15.2331V17.1387C23.2985 17.2887 23.4208 17.4331 23.5374 17.4859L23.6847 17.5554ZM20.0263 17.4831H23.4013C23.3041 17.3998 23.2291 17.272 23.2291 17.1415V15.2137L23.318 15.1054H20.1902L20.2569 15.2165V17.1443C20.2458 17.272 20.1374 17.3998 20.0263 17.4831Z" fill="black"/>
<path d="M22.8595 17.5167C22.7289 17.4612 22.54 17.2973 22.54 17.1362V15.3139L22.8122 15.0612H20.5956L20.8678 15.3139V17.1389C20.8678 17.2973 20.6789 17.4612 20.5483 17.5195H22.8595V17.5167Z" fill="white"/>
<path d="M23.0272 17.5554H20.3799L20.5355 17.4859C20.6633 17.4304 20.8299 17.2804 20.8299 17.1387V15.3331L20.5022 15.0276H22.9077L22.5799 15.3331V17.1387C22.5799 17.2804 22.7522 17.4304 22.8744 17.4859L23.0272 17.5554ZM20.6772 17.4831H22.7299C22.6188 17.3998 22.5049 17.272 22.5049 17.1415V15.3054L22.7216 15.1026H20.6883L20.9049 15.3054V17.1443C20.9022 17.272 20.7911 17.3998 20.6772 17.4831Z" fill="black"/>
<path d="M22.5458 17.5168C22.4152 17.4612 22.2263 17.2974 22.2263 17.1362V15.4918L22.4041 15.239H20.993L21.1708 15.4918V17.139C21.1708 17.2974 20.9819 17.4612 20.8513 17.5196H22.5458V17.5168Z" fill="white"/>
<path d="M22.716 17.5553H20.691L20.8466 17.4858C20.9744 17.4303 21.141 17.2803 21.141 17.1386V15.5025L20.9299 15.2025H22.4772L22.266 15.5025V17.1386C22.266 17.2803 22.4383 17.4303 22.5605 17.4858L22.716 17.5553ZM20.9855 17.4831H22.416C22.3049 17.3997 22.191 17.272 22.191 17.1414V15.4831L22.3355 15.2775H21.066L21.2105 15.4831V17.1414C21.2133 17.272 21.1049 17.3997 20.9855 17.4831Z" fill="black"/>
<path d="M21.3654 15.239H22.0404V17.5168H21.3654V15.239Z" fill="white"/>
<path d="M22.0745 17.5553H21.3301V15.2025H22.0745V17.5553ZM21.4051 17.4831H22.0051V15.2775H21.4051V17.4831Z" fill="black"/>
<path d="M20.4461 15.8776H20.7128V17.1137H20.4461V15.8776ZM22.7545 15.8776H23.0211V17.1137H22.7545V15.8776ZM20.2211 13.7915H20.5461V15.0609H20.2239V13.7915H20.2211ZM20.2211 13.5526H20.5461V13.7859H20.2239V13.5526H20.2211Z" fill="white"/>
<path d="M23.0262 17.1473H22.7595L22.7234 17.1112V15.8751L22.7595 15.839H23.0262L23.0623 15.8751V17.1112L23.0262 17.1473ZM22.7901 17.0779H22.9873V15.9112H22.7901V17.0779ZM20.7178 17.1473H20.4512L20.4151 17.1112V15.8751L20.4512 15.839H20.7178L20.754 15.8751V17.1112L20.7178 17.1473ZM20.4845 17.0779H20.6817V15.9112H20.4845V17.0779ZM20.5456 15.0945H20.2234L20.1845 15.0556V13.5501L20.2206 13.514H20.5456L20.5817 13.5501V13.7834L20.5873 13.789V15.0584L20.5456 15.0945ZM20.254 15.0223H20.5067V13.8279H20.254V15.0223ZM20.254 13.7473H20.5012V13.5834H20.254V13.7473Z" fill="black"/>
<path d="M22.8846 14.0638H23.3485V15.0444H22.8846V14.0638Z" fill="white"/>
<path d="M23.3493 15.0804H22.8854L22.8493 15.0443V14.0637L22.8854 14.0276H23.3493L23.3854 14.0637V15.0443L23.3493 15.0804ZM22.9215 15.0054H23.3049V14.1054H22.9215V15.0054Z" fill="black"/>
<path d="M20.5405 15.0475V12.8781C20.6349 12.8781 20.6488 13.1975 20.8599 13.1975C20.971 13.1975 20.9571 13.067 20.896 12.9587C20.8405 12.8642 20.7738 12.7337 20.8627 12.4892C20.9294 12.6781 21.096 12.7364 21.0655 12.6198C21.0099 12.417 20.8544 12.3864 20.971 12.0725C21.0127 12.3364 21.1766 12.3198 21.1405 12.1698C21.0932 12.0003 20.9988 11.9309 21.1182 11.6864C21.1849 11.9587 21.2738 11.9448 21.2738 11.7753C21.2738 11.5225 21.2655 11.2559 21.5877 11.1531C21.5877 11.1531 21.6071 10.9225 21.7238 10.9225C21.8405 10.9225 21.8599 11.1531 21.8599 11.1531C22.1821 11.2503 22.1738 11.5225 22.1738 11.7753C22.1738 11.9448 22.2627 11.9642 22.3294 11.6864C22.446 11.9253 22.3516 11.9948 22.3071 12.1698C22.2655 12.3198 22.4349 12.3337 22.4766 12.0725C22.5932 12.3864 22.4405 12.4198 22.3821 12.6198C22.3488 12.7364 22.5238 12.6753 22.5849 12.4892C22.6794 12.7337 22.6071 12.8642 22.5516 12.9587C22.4905 13.067 22.4766 13.1975 22.5877 13.1975C22.7988 13.1975 22.8127 12.8781 22.9071 12.8781V15.0475H20.5405ZM20.0294 13.4059V15.0614H20.2182V13.4059C20.1516 13.3698 20.0877 13.3642 20.0294 13.4059Z" fill="white"/>
<path d="M20.2543 15.0972H19.9904V13.3889L20.0043 13.3806C20.071 13.3333 20.146 13.3278 20.2293 13.3722L20.2488 13.3806V15.1H20.2543V15.0972ZM20.0682 15.0278H20.1849V13.425C20.1293 13.4028 20.0904 13.4111 20.0682 13.425V15.0278ZM22.9404 15.0833H20.5015V12.8417H20.5376C20.5988 12.8417 20.6265 12.9028 20.6599 12.9722C20.7015 13.0611 20.7488 13.1611 20.8571 13.1611C20.8849 13.1611 20.8932 13.1472 20.8932 13.1417C20.9126 13.1083 20.8988 13.0389 20.8599 12.9722C20.7932 12.8611 20.7321 12.7194 20.8265 12.4694L20.8626 12.375L20.896 12.4694C20.9321 12.5778 21.0043 12.6278 21.0321 12.6333C21.0321 12.6278 21.0321 12.625 21.0265 12.6194C21.0126 12.5583 20.9849 12.5167 20.9599 12.475C20.9043 12.3778 20.8488 12.2833 20.9321 12.0528L20.9793 11.9222L21.0015 12.0583C21.021 12.1806 21.0682 12.2222 21.0849 12.2306C21.0904 12.2306 21.0932 12.2306 21.0932 12.2306C21.0988 12.225 21.1015 12.2028 21.0932 12.1694C21.0849 12.1333 21.071 12.0944 21.0571 12.0611C21.0154 11.9528 20.9765 11.8583 21.071 11.6583L21.1126 11.5694L21.1349 11.6667C21.1626 11.7889 21.1904 11.8306 21.2043 11.8444C21.2099 11.8361 21.2182 11.8056 21.2182 11.7611V11.7417C21.2182 11.4972 21.2182 11.225 21.5376 11.1139C21.546 11.0472 21.5793 10.875 21.7071 10.875C21.8349 10.875 21.8654 11.0472 21.8765 11.1139C22.196 11.225 22.196 11.4972 22.196 11.7417V11.7611C22.196 11.8083 22.2015 11.8306 22.2099 11.8444C22.2238 11.8306 22.2515 11.7889 22.2793 11.6667L22.3015 11.5694L22.3432 11.6583C22.4376 11.8556 22.3987 11.95 22.3571 12.0611C22.3432 12.0944 22.3293 12.1278 22.3182 12.1694C22.3099 12.2028 22.3126 12.225 22.3182 12.2306C22.3182 12.2306 22.3237 12.2361 22.3265 12.2306C22.3487 12.2222 22.3932 12.1778 22.4099 12.0583L22.4321 11.9222L22.4793 12.0528C22.5626 12.2833 22.5126 12.375 22.4515 12.4806C22.4293 12.5222 22.3987 12.5639 22.3849 12.625C22.3849 12.6306 22.3793 12.6389 22.3793 12.6389C22.4071 12.6333 22.4765 12.5833 22.5154 12.475L22.5487 12.3806L22.5876 12.475C22.6904 12.7417 22.6071 12.8861 22.5543 12.9778C22.5182 13.0444 22.5015 13.1139 22.521 13.1472C22.5265 13.1528 22.5293 13.1667 22.5571 13.1667C22.6599 13.1667 22.7126 13.0694 22.7543 12.9778C22.7876 12.9083 22.821 12.8472 22.8765 12.8472H22.9126V15.0833H22.9404ZM20.5738 15.0083H22.8654V12.9556C22.8571 12.9694 22.8515 12.9889 22.8432 12.9972C22.796 13.0917 22.7321 13.2278 22.5793 13.2278C22.5321 13.2278 22.496 13.2083 22.4765 13.175C22.4404 13.1083 22.4682 13.0056 22.5099 12.9361C22.5515 12.8667 22.6071 12.7639 22.5654 12.5806C22.5099 12.6694 22.4293 12.7222 22.3765 12.7028C22.3432 12.6944 22.321 12.6611 22.3349 12.6C22.3543 12.5333 22.3821 12.4833 22.4099 12.4361C22.4515 12.3667 22.4849 12.3056 22.4654 12.1917C22.4432 12.2472 22.4099 12.2861 22.3682 12.3C22.3404 12.3083 22.3071 12.3056 22.2849 12.2861C22.2571 12.2583 22.2487 12.2111 22.2626 12.1556C22.271 12.1139 22.2904 12.075 22.2987 12.0444C22.3321 11.9639 22.3543 11.9028 22.321 11.7972C22.2876 11.8917 22.246 11.9389 22.1987 11.9333C22.171 11.9278 22.1237 11.9056 22.1237 11.775V11.7556C22.1237 11.5111 22.1237 11.2778 21.8321 11.1889L21.8099 11.1806V11.1583C21.8043 11.0917 21.7737 10.9611 21.7126 10.9611C21.6515 10.9611 21.6182 11.0917 21.6154 11.1583V11.1806L21.5932 11.1889C21.3015 11.2778 21.3015 11.5111 21.3015 11.7556V11.775C21.3015 11.9056 21.2543 11.9306 21.2265 11.9333C21.1793 11.9389 21.1376 11.8917 21.1043 11.7972C21.071 11.9056 21.0988 11.9667 21.1265 12.0444C21.1404 12.0778 21.1543 12.1139 21.1626 12.1556C21.1765 12.2111 21.171 12.2583 21.1404 12.2861C21.1182 12.3056 21.0876 12.3139 21.0571 12.3C21.021 12.2861 20.9821 12.2472 20.9599 12.1917C20.9404 12.3028 20.9738 12.3639 21.0154 12.4361C21.0376 12.4778 21.071 12.5306 21.0904 12.6C21.1099 12.6611 21.0821 12.6944 21.0487 12.7028C20.996 12.7167 20.9182 12.6694 20.8599 12.5806C20.8126 12.7639 20.8738 12.8667 20.9154 12.9361C20.9571 13.0056 20.9849 13.1083 20.9488 13.175C20.9293 13.2083 20.8932 13.2278 20.846 13.2278C20.696 13.2278 20.6293 13.0972 20.5821 12.9972C20.5765 12.9833 20.5682 12.9694 20.5599 12.9556V15.0083H20.5738Z" fill="black"/>
<path d="M20.0403 14.4806C20.2736 14.5973 20.5042 14.7389 20.5653 15.0667H20.0403V14.4806ZM23.2736 13.9834V15.0667H23.4292V13.9834C23.382 13.9584 23.3153 13.9556 23.2736 13.9834Z" fill="white"/>
<path d="M23.4632 15.0972H23.2382V13.9639L23.2521 13.9555C23.3076 13.9194 23.3882 13.9222 23.441 13.95L23.4604 13.9583V15.0972H23.4632ZM23.3104 15.0277H23.391V14.0055C23.3632 13.9972 23.3299 13.9972 23.3104 14.0055V15.0277ZM20.6021 15.0972H20.0021V14.4166L20.0549 14.4444C20.2937 14.5666 20.5382 14.7166 20.5993 15.0527L20.6021 15.0972ZM20.0715 15.0277H20.5132C20.4521 14.775 20.2743 14.6472 20.0715 14.5416V15.0277Z" fill="black"/>
<path d="M23.4294 14.4693C23.196 14.586 22.9655 14.7276 22.9044 15.0554H23.4294V14.4693Z" fill="white"/>
<path d="M23.4654 15.0945H22.8654L22.8738 15.0528C22.9349 14.7139 23.1738 14.5667 23.4182 14.4445L23.471 14.4167V15.0972H23.4654V15.0945ZM22.9515 15.0195H23.3932V14.5334C23.1904 14.6389 23.0126 14.7667 22.9515 15.0195Z" fill="black"/>
<path d="M21.8878 11.9472L22.024 11.8361V11.6917C21.9712 11.6972 21.949 11.7139 21.9128 11.7611C21.8795 11.6639 21.8156 11.5889 21.7212 11.5417C21.6267 11.5889 21.5628 11.6584 21.5295 11.7584C21.4934 11.7111 21.4628 11.6972 21.4184 11.6917V11.8361L21.5545 11.9472H21.8878Z" fill="white"/>
<path d="M21.8956 11.9861H21.5289L21.3706 11.85V11.6472L21.4067 11.6528C21.4484 11.6583 21.4762 11.6667 21.5039 11.6917C21.5401 11.6167 21.6067 11.55 21.6928 11.5083L21.7067 11.5L21.7206 11.5083C21.8039 11.55 21.8706 11.6167 21.9095 11.6972C21.9373 11.675 21.9651 11.6583 22.0067 11.6583L22.0428 11.6528V11.8556L21.8956 11.9861ZM21.5567 11.9111H21.8706L21.9817 11.8167V11.7333C21.9678 11.7417 21.9539 11.7556 21.9345 11.7806L21.8928 11.8361L21.8706 11.7694C21.8428 11.6889 21.7901 11.625 21.7123 11.5778C21.6317 11.625 21.5817 11.6861 21.5539 11.7667L21.5317 11.8333L21.4901 11.7778C21.4706 11.7556 21.4567 11.7389 21.4428 11.7361V11.8194L21.5567 11.9111Z" fill="black"/>
<path d="M21.9569 12.314L22.018 12.1778V11.9862C21.9652 11.9917 21.943 12.0084 21.9069 12.0556C21.8735 11.9584 21.8096 11.8834 21.7152 11.8306C21.6207 11.8778 21.5569 11.9528 21.5235 12.0501C21.4874 12.0028 21.4569 11.989 21.4124 11.9834V12.1751L21.4791 12.3112H21.9569V12.314Z" fill="white"/>
<path d="M21.4512 12.353L21.3706 12.1892V11.9503L21.4067 11.9558C21.4484 11.9614 21.4762 11.9697 21.5039 11.9947C21.5401 11.9142 21.6067 11.853 21.6928 11.8058L21.7123 11.7975L21.7317 11.8058C21.8151 11.8475 21.8817 11.9142 21.9206 11.9947C21.9484 11.9725 21.9762 11.9558 22.0178 11.953L22.0539 11.9475V12.1864L21.9789 12.3503L21.4512 12.353ZM21.4456 12.1697L21.4984 12.278H21.9401L21.9928 12.1697V12.0336C21.9789 12.0419 21.9651 12.0558 21.9456 12.0808L21.9039 12.1364L21.8817 12.0697C21.8539 11.9892 21.8012 11.9197 21.7234 11.878C21.6428 11.9253 21.5928 11.9864 21.5651 12.0669L21.5428 12.1336L21.5012 12.078C21.4817 12.0558 21.4678 12.0419 21.4539 12.0308L21.4456 12.1697Z" fill="black"/>
<path d="M21.9661 12.8113L22.1689 12.5641V12.3197C22.0939 12.328 22.0578 12.3558 21.9995 12.4419C21.9523 12.2724 21.8495 12.2391 21.7134 12.1558C21.5773 12.2363 21.4745 12.2669 21.4273 12.4335C21.3717 12.3502 21.3328 12.3252 21.2578 12.3224V12.5669L21.4606 12.8141H21.9661V12.8113Z" fill="white"/>
<path d="M21.9847 12.8474H21.4458L21.2263 12.5752V12.2807L21.268 12.2863C21.3347 12.2946 21.3791 12.314 21.4235 12.3613C21.4708 12.2529 21.5513 12.2113 21.6402 12.1585C21.6597 12.1502 21.6763 12.1363 21.7013 12.1252L21.7208 12.1168L21.7402 12.1252C21.7597 12.1335 21.7763 12.1446 21.793 12.1529C21.8874 12.2057 21.9708 12.2502 22.018 12.364C22.0652 12.3113 22.1069 12.289 22.1735 12.2835L22.2152 12.2779V12.5724L21.9847 12.8474ZM21.4791 12.7779H21.9485L22.1319 12.5529V12.364C22.0958 12.3779 22.0652 12.4057 22.0291 12.4613L21.9874 12.5279L21.9652 12.4529C21.9291 12.3224 21.8569 12.2835 21.7485 12.2196C21.7402 12.214 21.7263 12.2057 21.7152 12.2002C21.7013 12.2085 21.6874 12.2196 21.6735 12.2224C21.5708 12.2779 21.5013 12.3168 21.468 12.4418L21.4458 12.5168L21.4041 12.4502C21.368 12.3946 21.3374 12.3696 21.3013 12.3613V12.5502L21.4791 12.7779Z" fill="black"/>
<path d="M22.0267 13.2971C22.0267 13.2971 22.26 13.0915 22.2739 12.9777V12.7221C22.185 12.7304 22.0961 12.7554 22.0294 12.8638C21.9739 12.6471 21.885 12.586 21.7156 12.4832C21.5461 12.586 21.4572 12.6471 21.4017 12.8638C21.335 12.7554 21.2461 12.7332 21.1572 12.7221V12.9804C21.185 13.0915 21.4044 13.2999 21.4044 13.2999H22.0267V13.2971Z" fill="white"/>
<path d="M22.04 13.3361H21.3873L21.3789 13.3278C21.3567 13.3055 21.1484 13.1111 21.1206 12.9889V12.9805V12.6805L21.1623 12.6861C21.2428 12.6944 21.3206 12.7139 21.3873 12.7833C21.4484 12.6111 21.5428 12.55 21.6956 12.45L21.715 12.4417L21.7345 12.45C21.8928 12.5472 21.9817 12.6139 22.0428 12.7833C22.1095 12.7139 22.1928 12.6944 22.2678 12.6861L22.3095 12.6805V12.9805C22.2956 13.1083 22.0762 13.3028 22.0456 13.3278L22.04 13.3361ZM21.4178 13.2667H22.0123C22.1012 13.1861 22.2317 13.05 22.2428 12.9805V12.7639C22.1678 12.7778 22.1123 12.8055 22.065 12.8805L22.0234 12.95L22.0012 12.8694C21.9484 12.6778 21.8734 12.6222 21.7206 12.5222C21.565 12.6194 21.49 12.6778 21.44 12.8694L21.4178 12.95L21.3762 12.8805C21.3289 12.8055 21.2734 12.7778 21.1984 12.7639V12.975C21.215 13.0583 21.3512 13.2055 21.4178 13.2667Z" fill="black"/>
<path d="M22.1263 14.203C22.1263 14.203 22.4485 13.8474 22.4541 13.7058V13.303C22.3319 13.3224 22.2208 13.4002 22.1319 13.5697C22.0569 13.2308 21.9402 12.9974 21.7152 12.8391C21.4902 13.003 21.3735 13.2363 21.2985 13.5697C21.2097 13.4002 21.0958 13.3224 20.9763 13.303V13.7058C20.9985 13.8474 21.3041 14.203 21.3041 14.203H22.1263Z" fill="white"/>
<path d="M22.1429 14.2361H21.2846L21.2763 14.2222C21.2429 14.1861 20.9624 13.8528 20.9374 13.7056V13.7V13.2555L20.979 13.2611C21.0957 13.275 21.1985 13.35 21.2846 13.4722C21.3679 13.1528 21.4957 12.9528 21.6957 12.8028L21.7179 12.7889L21.7402 12.8028C21.9429 12.9472 22.0679 13.1555 22.1513 13.4722C22.2346 13.35 22.3402 13.2805 22.4568 13.2611L22.4985 13.2555V13.7C22.4902 13.85 22.1929 14.1833 22.1596 14.2194L22.1429 14.2361ZM21.3179 14.1667H22.1096C22.2318 14.0306 22.4152 13.7917 22.4179 13.7028V13.3417C22.3207 13.3694 22.229 13.4528 22.1596 13.5806L22.1124 13.6639L22.0902 13.5694C22.0152 13.2305 21.8985 13.0222 21.7068 12.875C21.5152 13.025 21.4013 13.2305 21.3235 13.5694L21.3013 13.6639L21.254 13.5806C21.1846 13.4528 21.0985 13.3694 20.9957 13.3417V13.6972C21.029 13.8056 21.229 14.0583 21.3179 14.1667Z" fill="black"/>
<path d="M22.1263 14.7336C22.1263 14.7336 22.4041 14.453 22.4541 14.3308V13.928C22.3319 13.9475 22.2208 14.0252 22.1319 14.1947C22.0569 13.8558 21.9402 13.6641 21.7152 13.5058C21.4902 13.6697 21.3735 13.8614 21.2985 14.1947C21.2097 14.0252 21.0958 13.9475 20.9763 13.928V14.3308C21.0458 14.453 21.3041 14.7336 21.3041 14.7336H22.1263Z" fill="white"/>
<path d="M22.141 14.7697H21.2882L21.2799 14.7613C21.2715 14.753 21.016 14.4752 20.9465 14.353L20.941 14.3447V13.8891L20.9826 13.8947C21.0993 13.9086 21.2021 13.9836 21.2882 14.1058C21.3688 13.8141 21.4854 13.6336 21.6993 13.478L21.7215 13.4641L21.7438 13.478C21.9549 13.6336 22.0771 13.8169 22.1549 14.1058C22.2382 13.9836 22.3438 13.9141 22.4604 13.8947L22.5021 13.8891V14.3447L22.4965 14.3502C22.441 14.478 22.1743 14.753 22.1576 14.7613L22.141 14.7697ZM21.3188 14.7002H22.1104C22.191 14.6169 22.3743 14.4197 22.4188 14.3252V13.9724C22.3215 14.0002 22.2299 14.0836 22.1604 14.2113L22.1132 14.2947L22.091 14.2002C22.0215 13.8863 21.9132 13.703 21.7076 13.5474C21.5021 13.703 21.3938 13.8891 21.3243 14.2002L21.3021 14.2947L21.2549 14.2113C21.1854 14.0836 21.0993 14.0002 20.9965 13.9724V14.3252C21.0771 14.428 21.2715 14.6474 21.3188 14.7002Z" fill="black"/>
<path d="M22.2379 15.0471C22.1573 14.6943 22.0879 14.4388 21.699 14.1749C21.3101 14.4388 21.2434 14.6999 21.1601 15.0471H22.2379Z" fill="white"/>
<path d="M22.2854 15.0808H21.1188L21.1271 15.0391C21.2021 14.7114 21.2688 14.4252 21.6799 14.1447L21.6993 14.1308L21.7188 14.1447C22.1299 14.4225 22.1966 14.7086 22.2716 15.0391L22.2854 15.0808ZM21.2077 15.0086H22.191C22.1104 14.6752 22.0354 14.4502 21.6993 14.2169C21.366 14.453 21.2882 14.678 21.2077 15.0086Z" fill="black"/>
<path d="M22.435 15.2389V14.7333C22.2572 14.8028 22.1017 14.9028 22.0406 15.0194C21.9739 14.7389 21.8489 14.6111 21.6934 14.4417C21.535 14.6111 21.4295 14.7361 21.3656 15.0194C21.3045 14.9083 21.1489 14.8028 20.9711 14.7333V15.2389H22.435Z" fill="white"/>
<path d="M22.4706 15.2778H20.9345V14.6834L20.9817 14.7028C21.1456 14.7695 21.2734 14.8473 21.3484 14.9362C21.4151 14.7056 21.5178 14.5834 21.6678 14.4195L21.6956 14.3917L21.7484 14.4473C21.879 14.5889 21.9928 14.7112 22.0567 14.9334C22.1317 14.8445 22.2595 14.7639 22.4234 14.7001L22.4706 14.6806V15.2778ZM21.0095 15.2028H22.4012V14.7862C22.2428 14.8556 22.1206 14.9445 22.079 15.0334L22.0317 15.1223L22.0095 15.0278C21.9484 14.7695 21.8373 14.6473 21.6956 14.4973C21.554 14.6528 21.4623 14.7751 21.4012 15.0278L21.379 15.1223L21.3317 15.0334C21.2901 14.9501 21.1678 14.8556 21.0095 14.7862V15.2028Z" fill="black"/>
<path d="M34.5567 17.1194V15.5861C34.6095 15.3889 34.7733 15.2194 34.8983 15.1833V13.8333L34.6178 13.9833L34.2983 15.3944V17.1139H34.5567V17.1194Z" fill="white"/>
<path d="M34.5934 17.1555H34.2601V15.3888L34.5823 13.9639L34.9295 13.775V15.2139L34.9017 15.2222C34.7878 15.2555 34.6351 15.4138 34.5878 15.5916V17.1527H34.5934V17.1555ZM34.3323 17.0861H34.5212V15.5805C34.574 15.3833 34.7323 15.2139 34.8601 15.1639V13.8972L34.649 14.0139L34.3351 15.4055V17.0861H34.3323Z" fill="black"/>
<path d="M34.5567 17.1275V15.5914C34.6095 15.3942 34.7733 15.2248 34.8983 15.1886V13.7442C34.7095 13.7442 34.6178 13.9886 34.6178 13.9886L34.2983 15.3998V17.1164L34.5567 17.1275Z" fill="white"/>
<path d="M34.5934 17.1667L34.2601 17.1528V15.3945L34.5823 13.9778C34.5879 13.9695 34.6851 13.7111 34.8962 13.7111H34.9323V15.2167L34.9045 15.225C34.7906 15.2583 34.6379 15.4167 34.5906 15.5945L34.5934 17.1667ZM34.3323 17.0806L34.5212 17.0889V15.5806C34.574 15.3833 34.7323 15.2139 34.8601 15.1639V13.7806C34.7295 13.8083 34.6573 13.9778 34.649 13.9972L34.3295 15.4028V17.0806H34.3323Z" fill="black"/>
<path d="M34.7577 17.5167C34.6272 17.4611 34.4383 17.2973 34.4383 17.1362V15.2195L34.5272 15.0612H31.2605L31.3883 15.2195V17.1362C31.3883 17.2945 31.2577 17.4584 31.1299 17.5167H34.7577Z" fill="white"/>
<path d="M34.9214 17.5557H30.9603L31.1158 17.4863C31.2297 17.4335 31.3547 17.289 31.3547 17.139V15.2363L31.1853 15.0307H34.588L34.4742 15.2335V17.139C34.4742 17.2807 34.6464 17.4307 34.7686 17.4863L34.9214 17.5557ZM31.2519 17.4835H34.6269C34.513 17.4001 34.4019 17.2724 34.4019 17.1418V15.214L34.4686 15.1029H31.3408L31.4297 15.2113V17.139C31.4269 17.2724 31.3464 17.4001 31.2519 17.4835Z" fill="black"/>
<path d="M31.7903 17.5167C31.9209 17.4612 32.1098 17.2973 32.1098 17.1362V15.3139L31.8376 15.0612H34.0542L33.782 15.3139V17.1389C33.782 17.2973 33.9709 17.4612 34.1015 17.5195H31.7903V17.5167Z" fill="white"/>
<path d="M34.2707 17.5554H31.6235L31.779 17.4859C31.9068 17.4304 32.0735 17.2804 32.0735 17.1387V15.3331L31.7457 15.0276H34.1513L33.8235 15.3331V17.1387C33.8235 17.2804 33.9957 17.4304 34.1179 17.4859L34.2707 17.5554ZM31.9207 17.4831H33.9735C33.8596 17.3998 33.7485 17.272 33.7485 17.1415V15.3054L33.9651 15.1026H31.9318L32.1485 15.3054V17.1443C32.1429 17.272 32.0346 17.3998 31.9207 17.4831Z" fill="black"/>
<path d="M32.1013 17.5168C32.2319 17.4612 32.4208 17.2974 32.4208 17.1362V15.4918L32.243 15.239H33.6541L33.4763 15.4918V17.139C33.4763 17.2974 33.6652 17.4612 33.7958 17.5196H32.1013V17.5168Z" fill="white"/>
<path d="M33.9595 17.5553H31.9345L32.0901 17.4858C32.2178 17.4303 32.3845 17.2803 32.3845 17.1386V15.5025L32.1734 15.2025H33.7206L33.5095 15.5025V17.1386C33.5095 17.2803 33.6817 17.4303 33.804 17.4858L33.9595 17.5553ZM32.2317 17.4831H33.6623C33.5484 17.3997 33.4373 17.272 33.4373 17.1414V15.4831L33.5817 15.2775H32.3123L32.4567 15.4831V17.1414C32.4567 17.272 32.3428 17.3997 32.2317 17.4831Z" fill="black"/>
<path d="M33.2823 15.239H32.6073V17.5168H33.2823V15.239Z" fill="white"/>
<path d="M33.3185 17.5553H32.574V15.2025H33.3185V17.5553ZM32.6435 17.4831H33.2435V15.2775H32.6435V17.4831Z" fill="black"/>
<path d="M34.2021 15.8776H33.9354V17.1137H34.2021V15.8776ZM31.8937 15.8776H31.6271V17.1137H31.8937V15.8776ZM34.4299 13.7915H34.1076V15.0609H34.4299V13.7915ZM34.4299 13.5526H34.1076V13.7859H34.4299V13.5526Z" fill="white"/>
<path d="M34.2013 17.1473H33.9346L33.8985 17.1112V15.8751L33.9346 15.839H34.2013L34.2374 15.8751V17.1112L34.2013 17.1473ZM33.9652 17.0779H34.1624V15.9112H33.9652V17.0779ZM31.8929 17.1473H31.6263L31.5901 17.1112V15.8751L31.6263 15.839H31.8929L31.929 15.8751V17.1112L31.8929 17.1473ZM31.6596 17.0779H31.8568V15.9112H31.6596V17.0779ZM34.429 15.0945H34.1068L34.0707 15.0584V13.789L34.0763 13.7834V13.5501L34.1124 13.514H34.4346L34.4707 13.5501V15.0556L34.429 15.0945ZM34.1402 15.0223H34.3929V13.8279H34.1402V15.0223ZM34.1429 13.7473H34.3902V13.5834H34.1429V13.7473Z" fill="black"/>
<path d="M31.7622 14.0638H31.2983V15.0444H31.7622V14.0638Z" fill="white"/>
<path d="M31.7631 15.0804H31.2992L31.2631 15.0443V14.0637L31.2992 14.0276H31.7631L31.7992 14.0637V15.0443L31.7631 15.0804ZM31.3408 15.0054H31.7242V14.1054H31.3408V15.0054Z" fill="black"/>
<path d="M34.1104 15.0475V12.8781C34.0159 12.8781 34.0021 13.1975 33.7909 13.1975C33.6771 13.1975 33.6937 13.067 33.7548 12.9587C33.8104 12.8642 33.877 12.7337 33.7882 12.4892C33.7215 12.6781 33.5548 12.7364 33.5854 12.6198C33.6409 12.417 33.7965 12.3864 33.6798 12.0725C33.6382 12.3364 33.4743 12.3198 33.5104 12.1698C33.5576 12.0003 33.652 11.9309 33.5326 11.6864C33.4659 11.9587 33.377 11.9448 33.377 11.7753C33.377 11.5225 33.3854 11.2559 33.0632 11.1531C33.0632 11.1531 33.0437 10.9225 32.927 10.9225C32.8104 10.9225 32.7909 11.1531 32.7909 11.1531C32.4687 11.2503 32.477 11.5225 32.477 11.7753C32.477 11.9448 32.3882 11.9642 32.3215 11.6864C32.2048 11.9253 32.2993 11.9948 32.3437 12.1698C32.3854 12.3198 32.2159 12.3337 32.1743 12.0725C32.0576 12.3864 32.2104 12.4198 32.2687 12.6198C32.302 12.7364 32.127 12.6753 32.0659 12.4892C31.9715 12.7337 32.0437 12.8642 32.0993 12.9587C32.1604 13.067 32.1743 13.1975 32.0632 13.1975C31.852 13.1975 31.8382 12.8781 31.7437 12.8781V15.0475H34.1104ZM34.6187 13.4059V15.0614H34.4298V13.4059C34.4965 13.3698 34.5632 13.3642 34.6187 13.4059Z" fill="white"/>
<path d="M34.6547 15.097H34.3935V13.3775L34.413 13.3692C34.5019 13.3275 34.5769 13.3275 34.638 13.3775L34.6519 13.3859V15.097H34.6547ZM34.4685 15.0275H34.5852V13.4248C34.563 13.4109 34.5241 13.4025 34.4685 13.4248V15.0275ZM31.7102 15.0831V12.8414H31.7463C31.8074 12.8414 31.8352 12.9025 31.8685 12.972C31.9102 13.0609 31.9574 13.1609 32.0658 13.1609C32.0935 13.1609 32.1019 13.147 32.1019 13.1414C32.1213 13.1081 32.1074 13.0386 32.0685 12.972C32.0158 12.8831 31.9324 12.7386 32.0352 12.4692L32.0713 12.3748L32.1046 12.4692C32.1408 12.5775 32.213 12.6275 32.2408 12.6331C32.2408 12.6275 32.2408 12.6248 32.2352 12.6192C32.2213 12.5581 32.1935 12.5164 32.1685 12.4748C32.113 12.3775 32.0546 12.2831 32.1408 12.047L32.188 11.9164L32.2102 12.0525C32.2296 12.1748 32.2769 12.2164 32.2935 12.2248C32.2991 12.2248 32.3019 12.2248 32.3019 12.2248C32.3074 12.2192 32.3102 12.197 32.3019 12.1636C32.2935 12.1275 32.2796 12.0886 32.2658 12.0553C32.2241 11.947 32.1852 11.8498 32.2796 11.6525L32.3213 11.5636L32.3435 11.6609C32.3713 11.7831 32.3991 11.8248 32.413 11.8386C32.4185 11.8303 32.4269 11.7998 32.4269 11.7553V11.7359C32.4269 11.4914 32.4269 11.2192 32.7463 11.1081C32.7546 11.0414 32.7935 10.8692 32.9158 10.8692C33.038 10.8692 33.0741 11.0414 33.0852 11.1081C33.4047 11.2192 33.4047 11.4914 33.4047 11.7359V11.7553C33.4047 11.8025 33.4102 11.8248 33.4185 11.8386C33.4324 11.8248 33.4602 11.7831 33.488 11.6609L33.5102 11.5636L33.5519 11.6525C33.6463 11.8498 33.6074 11.9442 33.5658 12.0553C33.5519 12.0886 33.538 12.122 33.5297 12.1636C33.5213 12.197 33.5241 12.2192 33.5297 12.2248C33.5297 12.2248 33.5352 12.2303 33.538 12.2248C33.5602 12.2164 33.6046 12.172 33.6213 12.0525L33.6435 11.9164L33.6908 12.047C33.7741 12.2775 33.7241 12.3692 33.663 12.4692C33.6408 12.5109 33.6102 12.5525 33.5963 12.6136C33.5963 12.6192 33.5908 12.6275 33.5908 12.6275C33.6185 12.622 33.688 12.572 33.7269 12.4636L33.7602 12.3692L33.7963 12.4636C33.8908 12.7109 33.8297 12.8525 33.763 12.9664C33.7269 13.0331 33.7102 13.1025 33.7296 13.1359C33.7352 13.1414 33.738 13.1553 33.7658 13.1553C33.8685 13.1553 33.9213 13.0581 33.963 12.9664C33.9963 12.897 34.0297 12.8359 34.0852 12.8359H34.1213V15.0775L31.7102 15.0831ZM31.7824 12.9609V15.0136H34.0741V12.9609C34.0658 12.9748 34.0602 12.9942 34.0519 13.0025C34.0046 13.097 33.938 13.2331 33.7908 13.2331C33.7435 13.2331 33.7074 13.2136 33.688 13.1803C33.6519 13.1136 33.6797 13.0109 33.7213 12.9414C33.763 12.872 33.8185 12.7692 33.7769 12.5859C33.7213 12.6748 33.6408 12.7275 33.588 12.7081C33.5547 12.6998 33.5324 12.6664 33.5463 12.6053C33.5658 12.5359 33.5935 12.4886 33.6213 12.4414C33.663 12.372 33.6963 12.3109 33.6769 12.197C33.6546 12.2525 33.6213 12.2914 33.5796 12.3053C33.5519 12.3136 33.5185 12.3109 33.4963 12.2914C33.4685 12.2636 33.4602 12.2164 33.4741 12.1609C33.4824 12.1192 33.5019 12.0803 33.5102 12.0498C33.5435 11.9692 33.5658 11.9081 33.5324 11.8025C33.4991 11.897 33.4574 11.9442 33.4102 11.9386C33.3824 11.9331 33.3352 11.9109 33.3352 11.7803V11.7609C33.3352 11.5164 33.3352 11.2831 33.0435 11.1942L33.0213 11.1859V11.1636C33.0158 11.097 32.9852 10.9664 32.9241 10.9664C32.863 10.9664 32.8296 11.097 32.8269 11.1636V11.1859L32.8047 11.1942C32.513 11.2831 32.513 11.5164 32.513 11.7609V11.7803C32.513 11.9109 32.4658 11.9359 32.438 11.9386C32.3908 11.9442 32.3491 11.897 32.3158 11.8025C32.2824 11.9109 32.3102 11.972 32.338 12.0498C32.3519 12.0831 32.3658 12.1192 32.3741 12.1609C32.388 12.2164 32.3824 12.2636 32.3519 12.2914C32.3296 12.3109 32.2991 12.3192 32.2685 12.3053C32.2324 12.2914 32.1935 12.2525 32.1713 12.197C32.1519 12.3109 32.1852 12.3692 32.2269 12.4414C32.2491 12.4831 32.2824 12.5359 32.3019 12.6053C32.3213 12.6664 32.2935 12.6998 32.2602 12.7081C32.2074 12.722 32.1296 12.6748 32.0713 12.5859C32.0296 12.7692 32.0852 12.8664 32.1269 12.9414C32.1685 13.0109 32.1963 13.1136 32.1602 13.1803C32.1408 13.2136 32.1046 13.2331 32.0574 13.2331C31.9074 13.2331 31.8408 13.1025 31.7963 13.0025C31.7963 12.9886 31.7908 12.9748 31.7824 12.9609Z" fill="black"/>
<path d="M34.6127 14.4806C34.3794 14.5973 34.1488 14.7389 34.0877 15.0667H34.6127V14.4806ZM31.3738 13.9834V15.0667H31.2183V13.9834C31.271 13.9584 31.3349 13.9556 31.3738 13.9834Z" fill="white"/>
<path d="M31.4124 15.097H31.1874V13.9526L31.2068 13.9443C31.2596 13.922 31.3429 13.9109 31.3957 13.9498L31.4096 13.9581V15.097H31.4124ZM31.2568 15.0276H31.3374V14.0054C31.3152 13.997 31.2846 13.997 31.2568 14.0054V15.0276ZM34.6513 15.097H34.0513L34.0596 15.0554C34.1207 14.7165 34.3596 14.5693 34.604 14.447L34.6568 14.4193V15.0998H34.6513V15.097ZM34.1346 15.0276H34.5763V14.5415C34.3735 14.647 34.1957 14.7748 34.1346 15.0276Z" fill="black"/>
<path d="M31.2243 14.4693C31.4576 14.586 31.6882 14.7276 31.7493 15.0554H31.2243V14.4693Z" fill="white"/>
<path d="M31.7874 15.0945H31.1874V14.4139L31.2402 14.4417C31.479 14.5639 31.7235 14.7139 31.7846 15.05L31.7874 15.0945ZM31.2568 15.0195H31.6985C31.6374 14.7667 31.4596 14.6389 31.2568 14.5334V15.0195Z" fill="black"/>
<path d="M32.7661 11.9472L32.6299 11.8361V11.6917C32.6827 11.6972 32.7049 11.7139 32.7438 11.7611C32.7772 11.6639 32.8411 11.5889 32.9355 11.5417C33.0299 11.5889 33.0938 11.6584 33.1272 11.7584C33.1633 11.7111 33.1938 11.6972 33.2411 11.6917V11.8361L33.1049 11.9472H32.7661Z" fill="white"/>
<path d="M33.1182 11.9859H32.7515L32.5932 11.8498V11.647L32.6293 11.6525C32.671 11.6581 32.6988 11.6664 32.7265 11.6914C32.7626 11.6109 32.8293 11.5498 32.9154 11.5025L32.9293 11.4942L32.9432 11.5025C33.0265 11.5442 33.0932 11.6109 33.1321 11.6859C33.1599 11.6636 33.1876 11.6525 33.2293 11.647L33.2654 11.6414V11.8442L33.1182 11.9859ZM32.7793 11.9109H33.0932L33.2071 11.8164V11.7331C33.1876 11.7414 33.1738 11.7525 33.1599 11.7748L33.1182 11.8303L33.096 11.7636C33.0738 11.6831 33.0154 11.622 32.9376 11.5748C32.8571 11.6164 32.8071 11.6831 32.7793 11.7664L32.7571 11.8331L32.7154 11.7775C32.696 11.7553 32.6821 11.7386 32.6682 11.7303V11.8136L32.7793 11.9109Z" fill="black"/>
<path d="M32.6911 12.314L32.6299 12.1778V11.9862C32.6827 11.9917 32.7049 12.0084 32.7438 12.0556C32.7772 11.9584 32.8411 11.8834 32.9355 11.8306C33.0299 11.8778 33.0938 11.9528 33.1272 12.0501C33.1633 12.0028 33.1938 11.989 33.2411 11.9834V12.1751L33.1744 12.3112H32.6911V12.314Z" fill="white"/>
<path d="M33.2017 12.3526H32.6712L32.5962 12.1888V11.9499L32.6323 11.9554C32.674 11.961 32.7017 11.9693 32.7295 11.9971C32.7656 11.9165 32.8323 11.8526 32.9184 11.8082L32.9379 11.7999L32.9573 11.8082C33.0406 11.8499 33.1073 11.9165 33.1462 11.9971C33.174 11.9749 33.2017 11.9638 33.2434 11.9582L33.2795 11.9526V12.1915L33.2017 12.3526ZM32.7156 12.2776H33.1573L33.2101 12.1693V12.0332C33.1906 12.0415 33.1767 12.0526 33.1629 12.0804L33.1212 12.136L33.099 12.0693C33.0767 11.9888 33.0184 11.9249 32.9406 11.8804C32.8601 11.9276 32.8101 11.9915 32.7823 12.0721L32.7601 12.1388L32.7184 12.0832C32.699 12.061 32.6851 12.0471 32.6712 12.036V12.1721L32.7156 12.2776Z" fill="black"/>
<path d="M32.682 12.8113L32.4792 12.5641V12.3197C32.5542 12.328 32.5931 12.3558 32.6486 12.4419C32.6959 12.2724 32.7986 12.2391 32.9347 12.1558C33.0709 12.2363 33.1736 12.2669 33.2209 12.4335C33.2764 12.3502 33.3153 12.3252 33.3903 12.3224V12.5669L33.1875 12.8141H32.682V12.8113Z" fill="white"/>
<path d="M33.2018 12.847H32.6685L32.449 12.5748V12.2803L32.4907 12.2859C32.5574 12.2942 32.599 12.3136 32.6463 12.3664C32.699 12.2581 32.7768 12.2109 32.8713 12.1553C32.8907 12.147 32.9046 12.1359 32.924 12.1275L32.9435 12.1192L32.9629 12.1275C32.9851 12.1414 33.0046 12.1498 33.024 12.1609C33.1129 12.2136 33.1935 12.2553 33.2407 12.3636C33.2824 12.3164 33.3296 12.2942 33.3963 12.2886L33.4379 12.2831V12.5775L33.2018 12.847ZM32.7018 12.7775H33.1713L33.3546 12.5525V12.3636C33.3185 12.372 33.2879 12.397 33.2518 12.4525L33.2101 12.5192L33.1879 12.4442C33.1546 12.3164 33.0851 12.2803 32.9824 12.2248C32.9685 12.2164 32.9546 12.2109 32.9407 12.2025C32.9268 12.2081 32.9185 12.2164 32.9074 12.222C32.799 12.2831 32.7296 12.3248 32.6907 12.4553L32.6685 12.5303L32.6268 12.4636C32.5907 12.4081 32.5601 12.3803 32.524 12.3664V12.5553L32.7018 12.7775Z" fill="black"/>
<path d="M32.6272 13.2971C32.6272 13.2971 32.3938 13.0915 32.3799 12.9777V12.7221C32.4688 12.7304 32.5577 12.7554 32.6244 12.8638C32.6799 12.6471 32.7688 12.586 32.9383 12.4832C33.1077 12.586 33.1966 12.6471 33.2522 12.8638C33.3188 12.7554 33.4077 12.7332 33.4966 12.7221V12.9804C33.4688 13.0915 33.2494 13.2999 33.2494 13.2999H32.6272V13.2971Z" fill="white"/>
<path d="M32.6096 13.3361L32.6013 13.3278C32.579 13.3055 32.354 13.1083 32.3401 12.9861V12.6805L32.3818 12.6861C32.4624 12.6944 32.5401 12.7139 32.6068 12.7833C32.6679 12.6111 32.7624 12.55 32.9151 12.45L32.9346 12.4417L32.954 12.45C33.1124 12.5472 33.2013 12.6083 33.2624 12.7833C33.329 12.7139 33.4124 12.6944 33.4874 12.6861L33.529 12.6805V12.9889C33.4957 13.1055 33.2957 13.3028 33.2707 13.3278L33.2624 13.3361H32.6096ZM32.4096 12.7639V12.9833C32.4179 13.05 32.5513 13.1889 32.6346 13.2639H33.229C33.2957 13.2028 33.4318 13.0583 33.4596 12.9778V12.7667C33.3846 12.7805 33.329 12.8083 33.2818 12.8833L33.2401 12.9528L33.2179 12.8722C33.1651 12.6805 33.0901 12.625 32.9374 12.525C32.7818 12.6222 32.7068 12.6805 32.6568 12.8722L32.6346 12.9528L32.5929 12.8833C32.5401 12.8055 32.4846 12.7778 32.4096 12.7639Z" fill="black"/>
<path d="M32.5217 14.203C32.5217 14.203 32.1995 13.8474 32.1939 13.7058V13.303C32.3161 13.3224 32.4272 13.4002 32.5161 13.5697C32.5911 13.2308 32.7078 12.9974 32.9328 12.8391C33.1578 13.003 33.2745 13.2363 33.3495 13.5697C33.4384 13.4002 33.5522 13.3224 33.6717 13.303V13.7058C33.6495 13.8474 33.3439 14.203 33.3439 14.203H32.5217Z" fill="white"/>
<path d="M32.5073 14.2359L32.499 14.222C32.4657 14.1859 32.1657 13.8526 32.1601 13.7026V13.2526L32.2018 13.2581C32.3184 13.272 32.4212 13.347 32.5073 13.4692C32.5907 13.1498 32.7184 12.9498 32.9184 12.7998L32.9407 12.7859L32.9629 12.7998C33.1657 12.9442 33.2907 13.1526 33.374 13.4692C33.4573 13.347 33.5629 13.2776 33.6795 13.2581L33.7212 13.2526V13.7081C33.699 13.8526 33.4157 14.1859 33.3823 14.2248L33.374 14.2387H32.5073V14.2359ZM32.2268 13.3442V13.7053C32.2323 13.7942 32.4157 14.0276 32.5351 14.1637H33.3268C33.4157 14.0553 33.6184 13.8026 33.6351 13.6998V13.3442C33.5379 13.372 33.4462 13.4553 33.3768 13.5831L33.3295 13.6664L33.3073 13.572C33.2323 13.2331 33.1157 13.0248 32.924 12.8776C32.7323 13.0276 32.6184 13.2331 32.5407 13.572L32.5184 13.6664L32.4712 13.5831C32.4157 13.4526 32.3295 13.372 32.2268 13.3442Z" fill="black"/>
<path d="M32.5217 14.7336C32.5217 14.7336 32.2439 14.453 32.1939 14.3308V13.928C32.3161 13.9475 32.4272 14.0252 32.5161 14.1947C32.5911 13.8558 32.7078 13.6641 32.9328 13.5058C33.1578 13.6697 33.2745 13.8614 33.3495 14.1947C33.4384 14.0252 33.5522 13.9475 33.6717 13.928V14.3308C33.6022 14.453 33.3439 14.7336 33.3439 14.7336H32.5217Z" fill="white"/>
<path d="M32.5071 14.7697L32.4988 14.7613C32.4905 14.753 32.2182 14.4752 32.1599 14.3502L32.1544 14.3447V13.8891L32.196 13.8947C32.3127 13.9086 32.4155 13.9836 32.5016 14.1058C32.5821 13.8141 32.6988 13.6336 32.9127 13.478L32.9349 13.4641L32.9571 13.478C33.1738 13.6336 33.2905 13.8169 33.3682 14.1058C33.4516 13.9836 33.5571 13.9141 33.6738 13.8947L33.7155 13.8891V14.3447L33.7099 14.353C33.6405 14.4752 33.3877 14.7502 33.3766 14.7613L33.3682 14.7697H32.5071ZM32.2266 14.3252C32.2738 14.4197 32.4571 14.6169 32.5349 14.7002H33.3266C33.3738 14.6474 33.571 14.428 33.6349 14.3252V13.9724C33.5377 14.0002 33.446 14.0836 33.3766 14.2113L33.3294 14.2947L33.3071 14.2002C33.2377 13.8863 33.1294 13.703 32.9238 13.5474C32.721 13.703 32.6099 13.8891 32.5405 14.2002L32.5182 14.2947L32.471 14.2113C32.4016 14.0836 32.3155 14.0002 32.2127 13.9724V14.3252H32.2266Z" fill="black"/>
<path d="M32.4101 15.0471C32.4907 14.6943 32.5601 14.4388 32.949 14.1749C33.3379 14.4388 33.4045 14.6999 33.4879 15.0471H32.4101Z" fill="white"/>
<path d="M33.5292 15.0808H32.3625L32.3709 15.0391C32.4459 14.7114 32.5125 14.4252 32.9237 14.1447L32.9431 14.1308L32.9626 14.1447C33.3737 14.4225 33.4403 14.7086 33.5153 15.0391L33.5292 15.0808ZM32.457 15.0086H33.4403C33.3598 14.6752 33.2848 14.4502 32.9487 14.2169C32.6098 14.453 32.5376 14.678 32.457 15.0086Z" fill="black"/>
<path d="M32.2131 15.2389V14.7333C32.3909 14.8028 32.5464 14.9028 32.6075 15.0194C32.6742 14.7389 32.7992 14.6111 32.9547 14.4417C33.1131 14.6111 33.2159 14.7361 33.2825 15.0194C33.3436 14.9083 33.4992 14.8028 33.677 14.7333V15.2389H32.2131Z" fill="white"/>
<path d="M33.7125 15.2781H32.1764V14.6837L32.2236 14.7031C32.3875 14.7698 32.5153 14.8476 32.5903 14.9364C32.6569 14.7114 32.7736 14.5892 32.8986 14.4503L32.9514 14.3948L32.9792 14.4226C33.1292 14.5864 33.2264 14.7031 33.2986 14.9392C33.3736 14.8503 33.5014 14.7698 33.6653 14.7059L33.7125 14.6864V15.2781ZM32.2514 15.2031H33.6431V14.7864C33.4847 14.8559 33.3625 14.9448 33.3208 15.0337L33.2736 15.1226L33.2514 15.0281C33.1903 14.7698 33.1014 14.6531 32.9569 14.4976C32.8153 14.6531 32.7042 14.7753 32.6431 15.0281L32.6208 15.1226L32.5736 15.0337C32.5264 14.9503 32.4097 14.8559 32.2458 14.7864V15.2031H32.2514Z" fill="black"/>
<path d="M19.3788 17.4973V17.9611H35.2677V17.4973H19.3788ZM19.0871 17.9667V18.5723H35.5538V17.9667H19.0871ZM35.5538 18.5723L19.0871 18.5778L18.6038 18.5723V19.3695H36.0316V18.5723H35.5538ZM18.1205 19.3723V20.3111H36.5177V19.3723H18.1205ZM36.526 20.3111H18.126H17.6427V21.25H37.0121V20.3111H36.526Z" fill="white"/>
<path d="M37.0458 21.2861H17.6013V20.2722H18.0874V19.3333H18.5708V18.5305L19.0541 18.5361V17.9278H19.3402V17.4583H35.3069V17.9278H35.593V18.5333H36.0763V19.3361H36.5596V20.275H37.043V21.2889H37.0458V21.2861ZM17.6763 21.2111H36.9735V20.3444H17.6763V21.2111ZM18.1597 20.2722H36.4874V19.4055H18.1597V20.2722ZM18.643 19.3305H36.0013V18.6028H35.5569L19.0902 18.6083L18.6458 18.6028V19.3305H18.643ZM19.1263 18.5333H35.5235V18H19.1263V18.5333ZM19.4152 17.925H35.2346V17.5361H19.4152V17.925Z" fill="black"/>
<path d="M21.1042 17.5027H22.3042V21.2472H21.1042V17.5027Z" fill="white"/>
<path d="M22.3401 21.2861H21.0595V17.4611H22.3401V21.2861ZM21.1401 21.2055H22.2595V17.5388H21.1401V21.2055Z" fill="black"/>
<path d="M21.3654 17.5027H22.0349V21.2472H21.3654V17.5027Z" fill="white"/>
<path d="M22.0745 21.2861H21.3301V17.4611H22.0745V21.2861ZM21.4079 21.2055H21.9995V17.5388H21.4079V21.2055Z" fill="black"/>
<path d="M26.7051 17.5027H27.9051V21.2472H26.7051V17.5027Z" fill="white"/>
<path d="M27.943 21.2861H26.6624V17.4611H27.943V21.2861ZM26.743 21.2055H27.8624V17.5388H26.743V21.2055Z" fill="black"/>
<path d="M26.9763 17.5027H27.6458V21.2472H26.9763V17.5027Z" fill="white"/>
<path d="M27.6855 21.2861H26.941V17.4611H27.6855V21.2861ZM27.016 21.2055H27.6077V17.5388H27.016V21.2055Z" fill="black"/>
<path d="M32.3352 17.5027H33.5352V21.2472H32.3352V17.5027Z" fill="white"/>
<path d="M33.5773 21.2861H32.2968V17.4611H33.5773V21.2861ZM32.3773 21.2055H33.4968V17.5388H32.3773V21.2055Z" fill="black"/>
<path d="M32.6013 17.5027H33.2708V21.2472H32.6013V17.5027Z" fill="white"/>
<path d="M33.3104 21.2861H32.5659V17.4611H33.3104V21.2861ZM32.6409 21.2055H33.2326V17.5388H32.6409V21.2055Z" fill="black"/>
<path d="M27.6235 20.8138H26.9763V20.7444H27.6235V20.8138ZM33.2818 20.8138H32.5874V20.7444H33.2818V20.8138ZM22.0513 20.8138H21.3568V20.7444H22.0513V20.8138ZM27.6235 20.3444H26.9763V20.2749H27.6235V20.3444ZM33.2818 20.3444H32.5874V20.2749H33.2818V20.3444ZM22.0513 20.3444H21.3568V20.2749H22.0513V20.3444ZM27.6235 19.8749H26.9763V19.8055H27.6235V19.8749ZM33.2818 19.8749H32.5874V19.8055H33.2818V19.8749ZM22.0513 19.8749H21.3568V19.8055H22.0513V19.8749ZM33.2818 19.4055H32.5874V19.3361H33.2818V19.4055ZM27.6235 19.4055H26.9763V19.3361H27.6235V19.4055ZM22.0513 19.4055H21.3568V19.3361H22.0513V19.4055ZM33.2818 18.9388H32.5874V18.8694H33.2818V18.9388ZM22.0513 18.9388H21.3568V18.8694H22.0513V18.9388ZM27.6235 18.9388H26.9763V18.8694H27.6235V18.9388ZM33.2818 18.4694H32.5874V18.3999H33.2818V18.4694ZM22.0513 18.4694H21.3568V18.3999H22.0513V18.4694ZM27.6235 18.4694H26.9763V18.3999H27.6235V18.4694ZM33.2818 17.9999H32.5874V17.9305H33.2818V17.9999ZM22.0513 17.9999H21.3568V17.9305H22.0513V17.9999ZM27.6235 17.9999H26.9763V17.9305H27.6235V17.9999ZM34.5707 17.1555H20.0901V17.0861H34.5707V17.1555Z" fill="black"/>
</g>
<defs>
<clipPath id="clip0_93_9767">
<rect width="53.3333" height="30" fill="white" transform="translate(0.657227)"/>
</clipPath>
</defs>
</svg>
