<svg width="55" height="30" viewBox="0 0 55 30" fill="none" xmlns="http://www.w3.org/2000/svg">
<g clip-path="url(#clip0_93_11509)">
<path d="M0.837952 -2.88078H54.4768V32.8776H0.837952V-2.88078Z" fill="#CE1126"/>
<path d="M0.837952 -2.88078H18.7185V32.8776H0.837952V-2.88078Z" fill="#007A5E"/>
<path d="M36.5963 -2.88078H54.4768V32.8776H36.5963V-2.88078Z" fill="#FCD116"/>
<path d="M27.6815 10.9779L26.4426 14.7862L28.3482 15.4084" fill="#FCD116"/>
<path d="M27.6822 10.9779L28.9211 14.7862L27.0155 15.4084" fill="#FCD116"/>
<path d="M31.4908 13.7442H27.4852V15.747" fill="#FCD116"/>
<path d="M31.4901 13.7442L28.2484 16.0998L27.0734 14.4775" fill="#FCD116"/>
<path d="M30.037 18.225L28.7981 14.4167L26.8925 15.0389" fill="#FCD116"/>
<path d="M30.0378 18.225L26.7961 15.8695L27.9739 14.2472" fill="#FCD116"/>
<path d="M25.3267 18.225L28.5684 15.8695L27.3906 14.2472" fill="#FCD116"/>
<path d="M25.3267 18.225L26.5656 14.4167L28.4712 15.0389" fill="#FCD116"/>
<path d="M23.8735 13.7442L27.1151 16.0998L28.2929 14.4775" fill="#FCD116"/>
<path d="M23.8735 13.7442H27.879V15.747" fill="#FCD116"/>
</g>
<defs>
<clipPath id="clip0_93_11509">
<rect width="53.3333" height="30" fill="white" transform="translate(0.990234)"/>
</clipPath>
</defs>
</svg>
