<svg width="54" height="30" viewBox="0 0 54 30" fill="none" xmlns="http://www.w3.org/2000/svg">
<g clip-path="url(#clip0_93_20832)">
<path d="M0.276855 0H13.638L14.188 0.619444H39.8074L40.3602 0H53.7213V30H40.3602L39.8102 29.3806H14.188L13.638 30H0.276855V0Z" fill="#D52B1E"/>
<path d="M13.6372 0H40.3594V30H13.6372V0ZM27.4983 27.6889L27.2483 22.2944C27.2344 21.9667 27.4594 21.6889 27.7511 21.675C27.79 21.6722 27.8261 21.675 27.865 21.6833L32.6483 22.6278L32.0039 20.6278C31.9511 20.4639 31.9955 20.2806 32.115 20.1722L37.3539 15.4083L36.1733 14.7889C36.0094 14.7028 35.9261 14.4889 35.9844 14.2944L37.0205 10.7194L34.0039 11.4389C33.8344 11.4778 33.665 11.3778 33.5983 11.2028L33.015 9.65833L30.6594 12.4944C30.5233 12.6583 30.2928 12.6639 30.1483 12.5111C30.0594 12.4167 30.0178 12.275 30.0428 12.1389L31.1789 5.56389L29.3594 6.74444C29.1872 6.85833 28.965 6.79167 28.865 6.6C28.8622 6.59167 28.8567 6.58333 28.8539 6.575L26.9983 2.5L25.1511 6.575C25.0622 6.775 24.8455 6.85833 24.665 6.75556C24.6566 6.75278 24.6511 6.74722 24.6428 6.74167L22.8233 5.56111L23.9594 12.1389C23.9983 12.3583 23.8678 12.5722 23.6733 12.6139C23.5511 12.6389 23.4261 12.5944 23.3428 12.4944L20.9872 9.65833L20.4039 11.2028C20.3372 11.3806 20.165 11.4806 19.9983 11.4389L16.9817 10.7194L18.0178 14.2944C18.0733 14.4889 17.9928 14.7 17.8289 14.7889L16.6483 15.4083L21.8872 20.1722C22.0066 20.2806 22.0511 20.4667 21.9983 20.6278L21.3539 22.6278L26.1372 21.6833C26.4261 21.6278 26.6983 21.8444 26.7483 22.1667C26.7539 22.2083 26.7566 22.2528 26.7566 22.2944L26.5066 27.6889H27.4983Z" fill="white"/>
</g>
<defs>
<clipPath id="clip0_93_20832">
<rect width="53.3333" height="30" fill="white" transform="translate(0.332031)"/>
</clipPath>
</defs>
</svg>
