<svg width="54" height="30" viewBox="0 0 54 30" fill="none" xmlns="http://www.w3.org/2000/svg">
<g clip-path="url(#clip0_93_11523)">
<path d="M0.322266 0H53.6556V30H0.322266V0Z" fill="#003893"/>
<path d="M0.322266 15H53.6556V22.5H0.322266V15Z" fill="white"/>
<path d="M0.322266 17.5H53.6556V20H0.322266V17.5Z" fill="#CF2027"/>
<path d="M20.6135 9.75L20.1497 11.175L20.8635 11.4056" fill="#F7D116"/>
<path d="M20.6141 9.75L21.078 11.175L20.3641 11.4056" fill="#F7D116"/>
<path d="M22.0387 10.7859H20.5387V11.5359" fill="#F7D116"/>
<path d="M22.0392 10.7859L20.8253 11.6665L20.3864 11.0609" fill="#F7D116"/>
<path d="M21.4951 12.4639L21.0312 11.0389L20.3173 11.2695" fill="#F7D116"/>
<path d="M21.4943 12.464L20.2804 11.5834L20.7193 10.9779" fill="#F7D116"/>
<path d="M19.7328 12.464L20.9467 11.5834L20.5078 10.9779" fill="#F7D116"/>
<path d="M19.7328 12.4639L20.1967 11.0389L20.9106 11.2695" fill="#F7D116"/>
<path d="M19.189 10.7859L20.4029 11.6665L20.8418 11.0609" fill="#F7D116"/>
<path d="M19.189 10.7859H20.689V11.5359" fill="#F7D116"/>
<path d="M20.6135 24.75L20.1497 26.175L20.8635 26.4056" fill="#F7D116"/>
<path d="M20.6141 24.75L21.078 26.175L20.3641 26.4056" fill="#F7D116"/>
<path d="M22.0387 25.7859H20.5387V26.5359" fill="#F7D116"/>
<path d="M21.4951 27.4639L21.0312 26.0389L20.3173 26.2695" fill="#F7D116"/>
<path d="M19.7328 27.464L20.9467 26.5834L20.5078 25.9779" fill="#F7D116"/>
<path d="M19.189 25.7859L20.4029 26.6665L20.8418 26.0609" fill="#F7D116"/>
<path d="M29.1749 15.9693H27.6749V16.7193" fill="#F7D116"/>
<path d="M29.1749 15.9693L27.961 16.8498L27.5222 16.2443" fill="#F7D116"/>
<path d="M28.6279 17.6443L28.164 16.2193L27.4501 16.4499" fill="#F7D116"/>
<path d="M26.8641 17.6445L28.078 16.764L27.6391 16.1584" fill="#F7D116"/>
<path d="M26.3194 15.9693L27.5333 16.8498L27.9722 16.2443" fill="#F7D116"/>
<path d="M27.7506 14.9307L27.2867 16.3557L28.0006 16.5862" fill="#F7D116"/>
<path d="M14.9088 20.6052H13.4088V21.3552" fill="#F7D116"/>
<path d="M14.3639 22.2802L13.9 20.8552L13.1861 21.0858" fill="#F7D116"/>
<path d="M12.5995 22.2808L13.8134 21.4002L13.3745 20.7947" fill="#F7D116"/>
<path d="M12.0533 20.6052L13.2671 21.4858L13.706 20.8802" fill="#F7D116"/>
<path d="M13.4782 19.5693L13.0143 20.9943L13.7282 21.2249" fill="#F7D116"/>
<path d="M25.9023 26.0302L25.4384 24.6052L24.7245 24.8358" fill="#F7D116"/>
<path d="M25.9029 26.0305L24.689 25.1499L25.1279 24.5443" fill="#F7D116"/>
<path d="M24.1393 26.0305L25.3532 25.1499L24.9143 24.5443" fill="#F7D116"/>
<path d="M23.5946 24.3552L24.8085 25.2358L25.2474 24.6302" fill="#F7D116"/>
<path d="M25.025 23.3193L24.5611 24.7443L25.275 24.9749" fill="#F7D116"/>
<path d="M26.4501 24.3552H24.9501V25.1052" fill="#F7D116"/>
<path d="M17.0895 13.8943L16.6256 12.4693L15.9117 12.6998" fill="#F7D116"/>
<path d="M15.3251 13.8942L16.539 13.0137L16.1001 12.4109" fill="#F7D116"/>
<path d="M14.7776 12.2193L15.9914 13.0998L16.4303 12.4943" fill="#F7D116"/>
<path d="M16.203 11.1807L15.7391 12.6057L16.453 12.8362" fill="#F7D116"/>
<path d="M17.6331 12.2193H16.1331V12.9693" fill="#F7D116"/>
<path d="M15.3251 26.0305L16.539 25.1499L16.1001 24.5443" fill="#F7D116"/>
<path d="M15.3251 26.0302L15.789 24.6052L16.5029 24.8358" fill="#F7D116"/>
<path d="M14.7776 24.3552L15.9914 25.2358L16.4303 24.6302" fill="#F7D116"/>
<path d="M16.203 23.3193L15.7391 24.7443L16.453 24.9749" fill="#F7D116"/>
<path d="M17.6331 24.3552H16.1331V25.1052" fill="#F7D116"/>
<path d="M17.0895 26.0302L16.6256 24.6052L15.9117 24.8358" fill="#F7D116"/>
<path d="M24.1393 13.8945L25.3532 13.014L24.9143 12.4084" fill="#F7D116"/>
<path d="M23.5946 12.2193L24.8085 13.0998L25.2474 12.4943" fill="#F7D116"/>
<path d="M25.025 11.1807L24.5611 12.6057L25.275 12.8362" fill="#F7D116"/>
<path d="M26.4501 12.2193H24.9501V12.9693" fill="#F7D116"/>
<path d="M25.9023 13.8943L25.4384 12.4693L24.7245 12.6998" fill="#F7D116"/>
<path d="M12.0533 15.9693L13.2671 16.8498L13.706 16.2443" fill="#F7D116"/>
<path d="M12.0533 15.9693H13.5533V16.7193" fill="#F7D116"/>
<path d="M13.4782 14.9307L13.0143 16.3557L13.7282 16.5862" fill="#F7D116"/>
<path d="M14.9088 15.9693H13.4088V16.7193" fill="#F7D116"/>
<path d="M14.3639 17.6443L13.9 16.2193L13.1861 16.4499" fill="#F7D116"/>
<path d="M12.5995 17.6445L13.8134 16.764L13.3745 16.1584" fill="#F7D116"/>
<path d="M26.3194 20.6052L27.5333 21.4858L27.9722 20.8802" fill="#F7D116"/>
<path d="M27.7506 19.5693L27.2867 20.9943L28.0006 21.2249" fill="#F7D116"/>
<path d="M29.1749 20.6052H27.6749V21.3552" fill="#F7D116"/>
<path d="M28.6279 22.2802L28.164 20.8552L27.4501 21.0858" fill="#F7D116"/>
<path d="M26.8641 22.2808L28.078 21.4002L27.6391 20.7947" fill="#F7D116"/>
</g>
<defs>
<clipPath id="clip0_93_11523">
<rect width="53.3333" height="30" fill="white" transform="translate(0.322266)"/>
</clipPath>
</defs>
</svg>
