<svg width="55" height="30" viewBox="0 0 55 30" fill="none" xmlns="http://www.w3.org/2000/svg">
<g clip-path="url(#clip0_93_12080)">
<path d="M54.3265 0H0.993164V30H54.3265V0Z" fill="#FFC61E"/>
<path d="M54.3265 7.5H0.993164V30H54.3265V7.5Z" fill="white"/>
<path d="M54.3265 15H0.993164V30H54.3265V15Z" fill="#CE1126"/>
<path d="M54.3265 22.5H0.993164V30H54.3265V22.5Z" fill="#3A75C4"/>
<path d="M0.993164 30L23.4932 15L0.993164 0V30Z" fill="#3D8E33"/>
<path d="M14.7181 14.9999C14.7181 18.3554 11.9987 21.0749 8.64311 21.0749C5.28756 21.0749 2.56812 18.3554 2.56812 14.9999C2.56812 11.6443 5.28756 8.92488 8.64311 8.92488C11.9987 8.92488 14.7181 11.6443 14.7181 14.9999Z" fill="white"/>
<path d="M17.4178 14.9999C17.4178 18.3554 14.6984 21.0749 11.3428 21.0749C7.98727 21.0749 5.26782 18.3554 5.26782 14.9999C5.26782 11.6443 7.98727 8.92488 11.3428 8.92488C14.6984 8.92488 17.4178 11.6443 17.4178 14.9999Z" fill="#3D8E33"/>
<path d="M8.92334 19H9.73723L9.98723 18.225L10.2372 19H11.0511L10.39 19.4806L10.64 20.2556L9.9789 19.775L9.31778 20.2556L9.56778 19.4806L8.92334 19Z" fill="white"/>
<path d="M8.92334 10.3057H9.73723L9.98723 9.53074L10.2372 10.3057H11.0511L10.39 10.7863L10.64 11.5613L9.9789 11.0807L9.31778 11.5613L9.56778 10.7863L8.92334 10.3057Z" fill="white"/>
<path d="M8.92334 13.2057H9.73723L9.98723 12.4307L10.2372 13.2057H11.0511L10.39 13.6862L10.64 14.4612L9.9789 13.9807L9.31778 14.4612L9.56778 13.6862L8.92334 13.2057Z" fill="white"/>
<path d="M8.92334 16.1001H9.73723L9.98723 15.3251L10.2372 16.1001H11.0511L10.39 16.5807L10.64 17.3557L9.9789 16.8751L9.31778 17.3557L9.56778 16.5807L8.92334 16.1001Z" fill="white"/>
</g>
<defs>
<clipPath id="clip0_93_12080">
<rect width="53.3333" height="30" fill="white" transform="translate(0.993164)"/>
</clipPath>
</defs>
</svg>
