<svg width="54" height="30" viewBox="0 0 54 30" fill="none" xmlns="http://www.w3.org/2000/svg">
<g clip-path="url(#clip0_93_39407)">
<path d="M53.9906 0H0.657227V30H53.9906V0Z" fill="#002B7F"/>
<path d="M0.657227 18.75H53.9906V22.5H0.657227V18.75Z" fill="#F9E814"/>
<path d="M10.6571 6.66394L9.62659 9.83339L11.2127 10.3473L10.6571 6.66394Z" fill="white"/>
<path d="M10.6569 6.66394L11.6874 9.83338L10.1013 10.3501L10.6569 6.66394Z" fill="white"/>
<path d="M13.827 8.9696H10.4937V10.6335L13.827 8.9696Z" fill="white"/>
<path d="M13.8269 8.9696L11.1324 10.9307L10.1519 9.58072L13.8269 8.9696Z" fill="white"/>
<path d="M7.48706 8.9696L10.1815 10.9307L11.1621 9.58072L7.48706 8.9696Z" fill="white"/>
<path d="M7.48706 8.9696H10.8232V10.6335L7.48706 8.9696Z" fill="white"/>
<path d="M12.6183 12.6943L11.5877 9.5249L10.0016 10.0388L12.6183 12.6943Z" fill="white"/>
<path d="M12.6182 12.6945L9.92377 10.7334L10.9043 9.38336L12.6182 12.6945Z" fill="white"/>
<path d="M8.69574 12.6945L11.3902 10.7334L10.4096 9.38336L8.69574 12.6945Z" fill="white"/>
<path d="M8.69574 12.6943L9.7263 9.5249L11.3124 10.0388L8.69574 12.6943Z" fill="white"/>
<path d="M5.65696 2.5L4.88196 4.88056L6.07085 5.26667L5.65696 2.5Z" fill="white"/>
<path d="M5.6576 2.5L6.4326 4.88056L5.24371 5.26667L5.6576 2.5Z" fill="white"/>
<path d="M8.03754 4.2251H5.53754V5.4751L8.03754 4.2251Z" fill="white"/>
<path d="M8.03802 4.2251L6.01303 5.69454L5.27692 4.68343L8.03802 4.2251Z" fill="white"/>
<path d="M3.27692 4.2251L5.30192 5.69454L6.03803 4.68343L3.27692 4.2251Z" fill="white"/>
<path d="M3.27692 4.2251H5.77692V5.4751L3.27692 4.2251Z" fill="white"/>
<path d="M7.12642 7.02515L6.35143 4.64459L5.16254 5.0307L7.12642 7.02515Z" fill="white"/>
<path d="M7.12632 7.02493L5.10132 5.55548L5.83743 4.54437L7.12632 7.02493Z" fill="white"/>
<path d="M4.18781 7.02496L6.21281 5.55552L5.4767 4.54163L4.18781 7.02496Z" fill="white"/>
<path d="M4.18781 7.02515L4.96281 4.64459L6.1517 5.0307L4.18781 7.02515Z" fill="white"/>
</g>
<defs>
<clipPath id="clip0_93_39407">
<rect width="53.3333" height="30" fill="white" transform="translate(0.657227)"/>
</clipPath>
</defs>
</svg>
