<svg width="55" height="30" viewBox="0 0 55 30" fill="none" xmlns="http://www.w3.org/2000/svg">
<g clip-path="url(#clip0_93_39430)">
<path d="M-2.3439 0H57.6561V30H-2.3439V0Z" fill="#006B3F"/>
<path d="M-2.3439 11.25H57.6561V16.25H-2.3439V11.25Z" fill="#FCD116"/>
<path d="M-2.3439 13.75H57.6561V18.75H-2.3439V13.75Z" fill="white"/>
<path d="M-2.3439 13.75H57.6561V16.25H-2.3439V13.75Z" fill="black"/>
<path d="M23.9061 0H28.9061V30H23.9061V0Z" fill="#FCD116"/>
<path d="M26.4061 0H31.4061V30H26.4061V0Z" fill="white"/>
<path d="M26.4061 0H28.9061V30H26.4061V0Z" fill="black"/>
<path d="M27.6561 22.5C31.7982 22.5 35.1561 19.1421 35.1561 15C35.1561 10.8579 31.7982 7.5 27.6561 7.5C23.514 7.5 20.1561 10.8579 20.1561 15C20.1561 19.1421 23.514 22.5 27.6561 22.5Z" fill="#D41C30"/>
<path d="M27.4164 9.0804L27.6553 8.39429L27.8748 9.06929L28.6109 9.0804L28.0303 9.52484L28.2942 10.2748L27.6581 9.81095L27.0359 10.2498L27.2748 9.51929L26.7053 9.08873L27.4164 9.0804Z" fill="#006B3F"/>
<path d="M28.3418 10.339L27.6556 9.83897L26.9862 10.314L27.2473 9.52786L26.6362 9.06397L27.4001 9.05285L27.6612 8.31396L27.8973 9.04452L28.6834 9.05563L28.064 9.53063L28.3418 10.339ZM27.6556 9.78063L28.2418 10.2112L28.0029 9.51674L28.539 9.10563L27.8584 9.09452L27.6584 8.47508L27.439 9.10563L26.7834 9.11674L27.3084 9.51674L27.089 10.1917L27.6556 9.78063Z" fill="black"/>
<path d="M27.8951 20.9195L27.6563 21.6056L27.4368 20.9306L26.7007 20.9195L27.2813 20.475L27.0174 19.725L27.6535 20.1889L28.2785 19.75L28.0396 20.4806L28.609 20.9111L27.8951 20.9195Z" fill="#006B3F"/>
<path d="M27.6564 21.6861L27.4203 20.9555L26.6342 20.9444L27.2536 20.4694L26.9675 19.6583L27.6536 20.1583L28.323 19.6833L28.0619 20.4694L28.673 20.9333L27.9091 20.9444L27.6564 21.6861ZM26.7758 20.8944L27.4564 20.9055L27.6564 21.525L27.8758 20.8944L28.5314 20.8833L28.0064 20.4833L28.2258 19.8083L27.6508 20.2194L27.0647 19.7889L27.3036 20.4833L26.7758 20.8944Z" fill="black"/>
<path d="M30.9413 10.0693L31.5413 9.65546L31.3219 10.3305L31.908 10.7693L31.1775 10.7832L30.9469 11.5471L30.708 10.7971L29.9441 10.786L30.5691 10.336L30.3636 9.6499L30.9413 10.0693Z" fill="#006B3F"/>
<path d="M30.9448 11.6361L30.6837 10.825L29.8643 10.8138L30.5337 10.3277L30.3143 9.59161L30.9393 10.0305L31.5837 9.58606L31.3476 10.3166L31.9781 10.7861L31.192 10.8055L30.9448 11.6361ZM30.0198 10.7694L30.7254 10.7805L30.9448 11.4694L31.1559 10.7638L31.8309 10.75L31.2865 10.3444L31.4865 9.72495L30.9365 10.1055L30.4004 9.7305L30.5893 10.3611L30.0198 10.7694Z" fill="black"/>
<path d="M24.37 19.9305L23.77 20.3444L23.9894 19.6694L23.4061 19.2305L24.1367 19.2166L24.3672 18.4527L24.6061 19.2027L25.37 19.2138L24.745 19.6638L24.9505 20.3499L24.37 19.9305Z" fill="#006B3F"/>
<path d="M23.7248 20.4111L23.9609 19.6805L23.3303 19.2111L24.1164 19.1916L24.3664 18.3666L24.6275 19.1778L25.447 19.1889L24.7775 19.675L24.997 20.4111L24.372 19.9722L23.7248 20.4111ZM23.4803 19.2555L24.0248 19.6611L23.8192 20.2805L24.3692 19.9L24.9053 20.275L24.7164 19.6444L25.2914 19.2305L24.5859 19.2194L24.3664 18.5305L24.1553 19.2361L23.4803 19.2555Z" fill="black"/>
<path d="M33.2111 12.939L33.9361 12.9529L33.3611 13.3668L33.575 14.0668L32.975 13.6529L32.3389 14.1334L32.5833 13.389L31.9694 12.9334L32.7389 12.939L32.975 12.264L33.2111 12.939Z" fill="#006B3F"/>
<path d="M32.2954 14.211L32.5592 13.4054L31.8981 12.9165L32.7231 12.9221L32.9787 12.1971L33.2287 12.9221L34.0148 12.9415L33.3954 13.3915L33.6259 14.1415L32.9815 13.6971L32.2954 14.211ZM32.0565 12.9637L32.6204 13.3832L32.3954 14.0693L32.9815 13.6249L33.537 14.011L33.337 13.361L33.8676 12.9749L33.1981 12.961L32.987 12.3415L32.7731 12.961L32.0565 12.9637Z" fill="black"/>
<path d="M22.1 17.0611L21.375 17.0472L21.95 16.6333L21.7361 15.9333L22.3361 16.3472L22.9723 15.8666L22.7278 16.6111L23.3417 17.0666L22.5723 17.0611L22.3361 17.7361L22.1 17.0611Z" fill="#006B3F"/>
<path d="M22.3312 17.8055L22.0812 17.0805L21.2951 17.0611L21.9146 16.6111L21.684 15.8611L22.3285 16.3055L23.0146 15.7861L22.7507 16.5916L23.4118 17.0805L22.5868 17.075L22.3312 17.8055ZM21.4451 17.0194L22.1146 17.0333L22.3257 17.6527L22.5396 17.0333L23.2507 17.0389L22.6868 16.6194L22.9118 15.9333L22.3257 16.3777L21.7701 15.9916L21.9701 16.6416L21.4451 17.0194Z" fill="black"/>
<path d="M33.362 16.6L33.9425 17.0389H33.2314L32.9953 17.7333L32.7564 17.0444L31.962 17.0583L32.6009 16.5972L32.3703 15.8666L32.9898 16.3222L33.5759 15.9166L33.362 16.6Z" fill="#006B3F"/>
<path d="M32.9918 17.811L32.7307 17.0721L31.8695 17.0915L32.5584 16.5971L32.314 15.811L32.9779 16.2999L33.6084 15.861L33.3834 16.5915L34.0084 17.0665H33.2445L32.9918 17.811ZM32.7695 17.0193L32.9945 17.6554L33.214 17.0165H33.8695L33.3334 16.611L33.5279 15.986L32.989 16.361L32.414 15.9415L32.6251 16.6165L32.039 17.0415L32.7695 17.0193Z" fill="black"/>
<path d="M21.9502 13.4001L21.3696 12.9612H22.0807L22.3168 12.2667L22.5557 12.9556L23.3502 12.9417L22.7113 13.4028L22.9418 14.1334L22.3224 13.6778L21.7363 14.0834L21.9502 13.4001Z" fill="#006B3F"/>
<path d="M22.9949 14.189L22.3311 13.7001L21.7005 14.139L21.9255 13.4084L21.3005 12.9334H22.0644L22.32 12.189L22.5811 12.9279L23.4422 12.9084L22.7533 13.4029L22.9949 14.189ZM22.3255 13.639L22.9005 14.0584L22.6894 13.3834L23.2755 12.9584L22.5394 12.9723L22.3144 12.3362L22.0949 12.9751H21.4394L21.9755 13.3806L21.7811 14.0056L22.3255 13.639Z" fill="black"/>
<path d="M31.3305 19.65L31.5416 20.3445L30.9666 19.925L30.3666 20.3445L30.5777 19.6445L29.9221 19.1889L30.7082 19.2L30.9527 18.475L31.1888 19.2056L31.9027 19.2195L31.3305 19.65Z" fill="#006B3F"/>
<path d="M30.3195 20.4112L30.5445 19.6612L29.839 19.1723L30.689 19.1779L30.9501 18.3973L31.2056 19.1862L31.9751 19.2001L31.364 19.6612L31.589 20.4112L30.9695 19.9612L30.3195 20.4112ZM30.0001 19.2196L30.6056 19.639L30.4112 20.2835L30.9667 19.8946L31.4973 20.2807L31.3084 19.6418L31.8334 19.2473L31.1723 19.2335L30.9584 18.5584L30.7334 19.2279L30.0001 19.2196Z" fill="black"/>
<path d="M23.9816 10.3499L23.7705 9.65546L24.3455 10.0749L24.9455 9.65546L24.7344 10.3555L25.3899 10.811L24.6038 10.7999L24.3594 11.5249L24.1233 10.7943L23.4094 10.7805L23.9816 10.3499Z" fill="#006B3F"/>
<path d="M24.362 11.6055L24.1064 10.8166L23.337 10.8027L23.9481 10.3416L23.7231 9.59161L24.3425 10.0416L24.987 9.58606L24.762 10.3361L25.4675 10.825L24.6175 10.8194L24.362 11.6055ZM23.487 10.7555L24.1481 10.7694L24.362 11.4444L24.587 10.775L25.312 10.7805L24.7064 10.3611L24.9009 9.71661L24.3453 10.1055L23.8148 9.71939L24.0036 10.3583L23.487 10.7555Z" fill="black"/>
<path d="M28.8428 19.1927C29.0907 19.1753 29.2226 18.1737 29.1373 16.9554C29.052 15.7372 28.7819 14.7637 28.534 14.7811C28.286 14.7984 28.1542 15.8001 28.2395 17.0183C28.3248 18.2365 28.5949 19.21 28.8428 19.1927Z" fill="#006B3F"/>
<path d="M28.8309 19.2501C28.792 19.2501 28.7448 19.2362 28.7059 19.2001C28.4698 19.0001 28.2503 18.1112 28.1698 17.0362C28.1059 16.1251 28.1448 14.7556 28.5142 14.7223C28.5642 14.7167 28.6087 14.7334 28.6531 14.7723C28.8892 14.9723 29.1087 15.8612 29.1892 16.9362C29.2531 17.8473 29.2142 19.2167 28.8448 19.2501C28.842 19.2501 28.8364 19.2501 28.8309 19.2501ZM28.5364 14.839C28.3753 14.8528 28.2059 15.714 28.3003 17.0251C28.3809 18.1806 28.6142 18.9556 28.7892 19.1056C28.8003 19.1167 28.8198 19.1251 28.8337 19.1251C28.9892 19.1112 29.1587 18.2501 29.0698 16.939C28.9892 15.7834 28.7559 15.0084 28.5809 14.8584C28.567 14.8556 28.5503 14.839 28.5364 14.839Z" fill="black"/>
<path d="M29.2796 19.1854C29.5413 19.167 29.684 18.1646 29.5983 16.9465C29.5127 15.7284 29.2312 14.7558 28.9695 14.7742C28.7078 14.7926 28.5651 15.795 28.6507 17.0131C28.7363 18.2312 29.0179 19.2038 29.2796 19.1854Z" fill="#006B3F"/>
<path d="M29.2697 19.2446C29.2253 19.2446 29.1808 19.2251 29.1392 19.189C28.8947 18.9834 28.6642 18.0946 28.5892 17.0279C28.5086 15.9029 28.6086 14.7418 28.9586 14.7084C29.0086 14.7029 29.0586 14.7223 29.1086 14.764C29.3531 14.9696 29.5836 15.8584 29.6586 16.9251C29.7392 18.0501 29.6392 19.2112 29.2892 19.2446C29.2808 19.2446 29.2753 19.2446 29.2697 19.2446ZM28.9697 14.8362C28.8003 14.8557 28.6142 15.6973 28.7142 17.0223C28.7947 18.1612 29.0336 18.9418 29.2197 19.0973C29.2392 19.1168 29.2586 19.1223 29.2753 19.1223C29.4447 19.1029 29.6308 18.2612 29.5308 16.9362C29.4503 15.7973 29.2114 15.0168 29.0253 14.8612C29.0058 14.8446 28.9864 14.8362 28.9697 14.8362Z" fill="black"/>
<path d="M29.0811 19.5324C29.2908 19.5179 29.3856 18.4144 29.2929 17.0677C29.2002 15.7209 28.9551 14.6408 28.7454 14.6552C28.5358 14.6696 28.4409 15.7731 28.5336 17.1199C28.6263 18.4667 28.8714 19.5468 29.0811 19.5324Z" fill="#006B3F"/>
<path d="M29.0812 19.5944C29.0562 19.5944 29.0201 19.5832 28.9867 19.5555C28.7367 19.3444 28.5478 18.1555 28.4756 17.136C28.4145 16.2721 28.3895 14.6305 28.7395 14.5916C28.7645 14.586 28.8034 14.5916 28.8451 14.6277C29.0951 14.8388 29.2839 16.0277 29.3562 17.0471C29.4173 17.911 29.4423 19.5527 29.0923 19.5916C29.0867 19.5944 29.0867 19.5944 29.0812 19.5944ZM28.7506 14.7194C28.6395 14.7499 28.4895 15.5999 28.6006 17.1305C28.7062 18.6444 28.9701 19.4555 29.0812 19.4694C29.1923 19.4444 29.3423 18.5888 29.2312 17.0582C29.1256 15.5499 28.8673 14.736 28.7506 14.7194Z" fill="black"/>
<path d="M25.4441 18.1307C25.8302 18.1168 25.658 17.9113 25.8552 17.8002C26.0497 17.6891 26.3247 17.7641 26.4052 17.9002C26.4858 18.0363 26.4191 18.1696 26.5302 18.1696C26.6358 18.1696 29.5247 18.0502 29.6302 18.1641C29.7358 18.2779 29.7497 18.5029 29.6441 18.5891C29.533 18.678 25.883 18.7196 25.7552 18.6252C25.6302 18.5363 25.4441 18.1502 25.4441 18.1307Z" fill="#9C4A00"/>
<path d="M27.2064 18.6999C26.4508 18.6999 25.8008 18.6805 25.7453 18.6388C25.6203 18.5499 25.4314 18.1583 25.4314 18.1249V18.111H25.4453C25.6703 18.0999 25.6953 18.0305 25.7258 17.9472C25.7453 17.8916 25.7703 17.8333 25.8508 17.7833C26.0564 17.6694 26.337 17.7444 26.4258 17.8888C26.4647 17.9527 26.4703 18.0138 26.4758 18.0638C26.487 18.1277 26.4897 18.1527 26.5314 18.1527C26.5508 18.1527 26.6564 18.1472 26.8175 18.1416C28.7369 18.0777 29.5814 18.0805 29.6481 18.1527C29.7092 18.2222 29.7481 18.3333 29.737 18.4333C29.7314 18.5083 29.7008 18.5694 29.6564 18.6027C29.5814 18.661 28.2869 18.6999 27.2064 18.6999ZM25.4675 18.1444C25.4981 18.2249 25.6564 18.5333 25.762 18.6138C25.812 18.6527 26.6258 18.6694 27.6981 18.6583C28.7481 18.6472 29.5786 18.6138 29.6342 18.5722C29.6731 18.5416 29.6953 18.486 29.6981 18.4222C29.7036 18.3277 29.6731 18.2277 29.6175 18.1666C29.5619 18.1055 28.6231 18.1055 26.812 18.1666C26.6481 18.1722 26.5481 18.1777 26.5258 18.1777C26.4508 18.1777 26.4453 18.1166 26.437 18.0583C26.4314 18.0138 26.4231 17.9527 26.387 17.8972C26.3064 17.7666 26.0425 17.6972 25.8564 17.8027C25.787 17.8416 25.7675 17.8916 25.7453 17.9472C25.7258 18.0388 25.6925 18.1305 25.4675 18.1444Z" fill="black"/>
<path d="M27.4867 18.4112C27.4811 18.7001 27.9061 18.6167 27.9117 18.8612C27.8978 19.1167 27.1978 18.8751 27.1867 18.4112C27.2172 17.9473 27.9061 17.7112 27.9117 17.9806C27.92 18.1945 27.495 18.1195 27.4867 18.4112Z" fill="#FCD116"/>
<path d="M27.7697 18.9806H27.7669C27.5363 18.975 27.1808 18.7445 27.178 18.4111C27.1975 18.0611 27.5725 17.85 27.7725 17.85H27.778C27.878 17.85 27.9336 17.9 27.9391 17.9806C27.9447 18.0945 27.8391 18.1417 27.7391 18.1806C27.628 18.225 27.5141 18.275 27.5086 18.4167C27.503 18.5556 27.6141 18.6028 27.7225 18.6528C27.8225 18.6973 27.9336 18.7417 27.9336 18.8667C27.9252 18.9361 27.8669 18.9806 27.7697 18.9806ZM27.7697 17.875C27.5808 17.875 27.2252 18.075 27.2058 18.4056C27.2113 18.7361 27.5697 18.9417 27.7669 18.9445C27.8113 18.9445 27.8919 18.9334 27.8975 18.8556C27.8919 18.75 27.8086 18.7167 27.7086 18.6695C27.5975 18.6195 27.4697 18.5695 27.4725 18.4056H27.4863H27.4725C27.478 18.2417 27.6086 18.1917 27.7225 18.1417C27.8225 18.1028 27.9086 18.0667 27.903 17.9723C27.8947 17.8889 27.8197 17.8806 27.7697 17.875Z" fill="black"/>
<path d="M27.7421 18.4139C27.7365 18.7028 28.1615 18.6195 28.1671 18.8639C28.1532 19.1195 27.4532 18.8778 27.4421 18.4139C27.4726 17.9501 28.1615 17.7139 28.1671 17.9834C28.1754 18.2001 27.7449 18.1251 27.7421 18.4139Z" fill="#FCD116"/>
<path d="M28.0258 18.9806H28.0203C27.7897 18.975 27.4341 18.7445 27.4314 18.4111C27.4508 18.0611 27.8258 17.85 28.0258 17.85H28.0314C28.1314 17.85 28.1869 17.9 28.1925 17.9806C28.198 18.0945 28.0925 18.1417 27.9925 18.1806C27.8814 18.225 27.7675 18.275 27.7619 18.4167C27.7564 18.5556 27.8619 18.6028 27.9758 18.6528C28.0758 18.6973 28.1869 18.7417 28.1869 18.8667C28.1758 18.9389 28.1203 18.9806 28.0258 18.9806ZM28.0203 17.8806C27.8314 17.8806 27.4758 18.0806 27.4564 18.4111C27.4619 18.7417 27.8203 18.9473 28.0175 18.95C28.0619 18.95 28.1425 18.9389 28.148 18.8611C28.1425 18.7556 28.0591 18.7223 27.9591 18.675C27.848 18.625 27.7203 18.575 27.723 18.4111C27.7286 18.2473 27.8591 18.1973 27.973 18.1473C28.073 18.1084 28.1591 18.0723 28.1536 17.9778C28.1508 17.8945 28.0703 17.8806 28.0203 17.8806C28.0258 17.8806 28.0258 17.8806 28.0203 17.8806Z" fill="black"/>
<path d="M28.012 18.4057C28.0064 18.6946 28.4314 18.6113 28.437 18.8557C28.4231 19.1113 27.7231 18.8696 27.712 18.4057C27.7425 17.9418 28.4314 17.7057 28.437 17.9752C28.4453 18.189 28.0175 18.114 28.012 18.4057Z" fill="#FCD116"/>
<path d="M28.2956 18.9695H28.29C28.0595 18.9639 27.7039 18.7334 27.7011 18.4C27.7206 18.05 28.0956 17.8389 28.2956 17.8389H28.3012C28.4012 17.8389 28.4567 17.8889 28.4623 17.9695C28.4678 18.0834 28.3623 18.1306 28.2623 18.1695C28.1512 18.2139 28.0373 18.2639 28.0317 18.4056C28.0261 18.5445 28.1317 18.5917 28.2456 18.6417C28.3456 18.6862 28.4567 18.7306 28.4567 18.8556C28.4456 18.9306 28.3928 18.9695 28.2956 18.9695ZM28.2928 17.8695C28.1039 17.8695 27.7484 18.0695 27.7289 18.4C27.7345 18.7306 28.0928 18.9362 28.29 18.9389C28.3345 18.9389 28.415 18.9278 28.4206 18.85C28.415 18.7445 28.3317 18.7112 28.2317 18.6639C28.1206 18.6139 27.9928 18.5639 27.9956 18.4C28.0011 18.2362 28.1317 18.1862 28.2456 18.1362C28.3456 18.0973 28.4317 18.0612 28.4262 17.9667C28.4206 17.8862 28.3428 17.8695 28.2928 17.8695C28.2956 17.8695 28.2956 17.8695 28.2928 17.8695Z" fill="black"/>
<path d="M28.262 18.4057C28.2564 18.6946 28.6814 18.6113 28.687 18.8557C28.6731 19.1113 27.9731 18.8696 27.962 18.4057C27.9926 17.9418 28.6814 17.7057 28.687 17.9752C28.6953 18.1946 28.2703 18.114 28.262 18.4057Z" fill="#FCD116"/>
<path d="M28.5452 18.9752H28.5396C28.3091 18.9696 27.9535 18.739 27.9507 18.4057C27.9702 18.0557 28.3452 17.8446 28.5452 17.8446H28.5507C28.6507 17.8446 28.7063 17.8946 28.7119 17.9752C28.7174 18.089 28.6119 18.1363 28.5119 18.1752C28.4007 18.2196 28.2869 18.2696 28.2813 18.4113C28.2757 18.5502 28.3813 18.5974 28.4952 18.6474C28.5952 18.6918 28.7063 18.7363 28.7063 18.8613C28.7007 18.9307 28.6424 18.9752 28.5452 18.9752ZM28.5452 17.8752C28.3563 17.8752 28.0007 18.0752 27.9813 18.4057C27.9869 18.7363 28.3452 18.9418 28.5424 18.9446C28.5924 18.9446 28.6674 18.9335 28.673 18.8557C28.6674 18.7502 28.5841 18.7168 28.4841 18.6696C28.373 18.6196 28.2452 18.5696 28.248 18.4057C28.2535 18.2418 28.3841 18.1918 28.498 18.1418C28.598 18.1029 28.6841 18.0668 28.6785 17.9724C28.6702 17.889 28.5952 17.8752 28.5452 17.8752Z" fill="black"/>
<path d="M29.7024 18.4219C29.7309 18.2869 29.647 18.1547 29.515 18.1268C29.3829 18.0988 29.2527 18.1857 29.2241 18.3207C29.1955 18.4558 29.2794 18.588 29.4115 18.6159C29.5435 18.6439 29.6738 18.557 29.7024 18.4219Z" fill="#9C4A00"/>
<path d="M29.4619 18.625C29.3924 18.625 29.3257 18.5944 29.2813 18.55C29.2313 18.5 29.2063 18.4361 29.2119 18.3639C29.2174 18.225 29.3257 18.1083 29.4674 18.1083C29.4674 18.1083 29.4674 18.1083 29.473 18.1083C29.5369 18.1083 29.6035 18.1389 29.648 18.1833C29.698 18.2333 29.723 18.2972 29.7174 18.3694C29.7174 18.5139 29.6008 18.625 29.4619 18.625ZM29.4674 18.1306C29.3424 18.1306 29.2313 18.2361 29.2313 18.3667C29.2313 18.4306 29.2507 18.4917 29.2952 18.5361C29.3396 18.5806 29.3952 18.6056 29.4591 18.6056C29.4591 18.6056 29.4591 18.6056 29.4646 18.6056C29.5896 18.6056 29.7008 18.5 29.7008 18.3694C29.7008 18.3056 29.6813 18.2444 29.6369 18.2C29.5869 18.1611 29.5313 18.1361 29.4674 18.1306Z" fill="black"/>
<path d="M28.0502 18.0206C28.1709 18.0091 28.2482 17.7856 28.2229 17.5214C28.1977 17.2571 28.0794 17.0523 27.9588 17.0638C27.8381 17.0754 27.7608 17.2989 27.786 17.5631C27.8113 17.8273 27.9296 18.0322 28.0502 18.0206Z" fill="#006B3F"/>
<path d="M28.0365 18.0806C27.9976 18.0806 27.9559 18.0668 27.9226 18.0362C27.8226 17.9612 27.7476 17.7862 27.7282 17.5751C27.6921 17.2695 27.7893 17.0195 27.9476 16.9945C27.9976 16.989 28.0421 17.0001 28.0865 17.0334C28.1865 17.1084 28.2615 17.2834 28.2809 17.4945C28.317 17.8001 28.2198 18.0501 28.0615 18.0751C28.0504 18.0806 28.0421 18.0806 28.0365 18.0806ZM27.9615 17.1251H27.9559C27.8921 17.1362 27.8171 17.3112 27.8448 17.564C27.8643 17.7584 27.9337 17.889 27.9948 17.9334C28.0087 17.9473 28.0309 17.9529 28.0393 17.9473C28.1032 17.9362 28.1782 17.7612 28.1504 17.5084C28.1309 17.314 28.0615 17.1834 28.0004 17.139C27.9921 17.1306 27.9754 17.1251 27.9615 17.1251Z" fill="black"/>
<path d="M27.678 17.9902C27.7986 17.9786 27.876 17.7551 27.8507 17.4909C27.8254 17.2267 27.7072 17.0218 27.5865 17.0334C27.4659 17.0449 27.3885 17.2684 27.4138 17.5326C27.439 17.7969 27.5573 18.0017 27.678 17.9902Z" fill="#006B3F"/>
<path d="M27.6669 18.0556C27.628 18.0556 27.5863 18.0417 27.553 18.0111C27.453 17.9361 27.378 17.7611 27.3585 17.55C27.3224 17.2444 27.4196 16.9944 27.578 16.9694C27.628 16.9639 27.6724 16.975 27.7169 17.0083C27.8169 17.0833 27.8919 17.2583 27.9113 17.4694C27.9474 17.775 27.8502 18.025 27.6919 18.05C27.6808 18.05 27.6752 18.0556 27.6669 18.0556ZM27.5946 17.0944H27.5891C27.5252 17.1056 27.4502 17.2806 27.478 17.5333C27.4974 17.7278 27.5669 17.8583 27.628 17.9028C27.6419 17.9167 27.6641 17.9222 27.6724 17.9167C27.7363 17.9056 27.8113 17.7306 27.7835 17.4778C27.7641 17.2833 27.6946 17.1528 27.6335 17.1083C27.6196 17.1 27.6058 17.0944 27.5946 17.0944Z" fill="black"/>
<path d="M27.4143 17.5207C27.535 17.5092 27.6123 17.2856 27.5871 17.0214C27.5618 16.7572 27.4435 16.5524 27.3229 16.5639C27.2022 16.5754 27.1249 16.799 27.1502 17.0632C27.1754 17.3274 27.2937 17.5322 27.4143 17.5207Z" fill="#006B3F"/>
<path d="M27.4057 17.5806C27.3668 17.5806 27.3251 17.5668 27.2918 17.5362C27.1918 17.4612 27.1168 17.2862 27.0973 17.0751C27.0612 16.7695 27.1584 16.5195 27.3168 16.4945C27.3668 16.489 27.4112 16.5001 27.4557 16.5334C27.5557 16.6084 27.6307 16.7834 27.6501 16.9945C27.6862 17.3001 27.589 17.5501 27.4307 17.5751C27.4196 17.5806 27.4112 17.5806 27.4057 17.5806ZM27.3251 16.6251C27.2612 16.6362 27.1862 16.8112 27.214 17.064C27.2334 17.2584 27.3029 17.389 27.364 17.4334C27.3779 17.4473 27.4001 17.4529 27.4084 17.4473C27.4723 17.4362 27.5473 17.2612 27.5195 17.0084C27.5001 16.814 27.4307 16.6834 27.3696 16.639C27.3557 16.6306 27.3418 16.6251 27.3251 16.6251Z" fill="black"/>
<path d="M27.7945 17.5483C27.9105 17.5371 27.9817 17.2916 27.9536 16.9999C27.9254 16.7082 27.8084 16.4809 27.6924 16.4921C27.5763 16.5033 27.5051 16.7488 27.5333 17.0405C27.5615 17.3322 27.6784 17.5595 27.7945 17.5483Z" fill="#006B3F"/>
<path d="M27.7814 17.6112C27.7508 17.6112 27.7175 17.6001 27.6758 17.5724C27.5702 17.4918 27.4952 17.2974 27.4702 17.0612C27.4397 16.7723 27.5008 16.4612 27.6758 16.4362C27.7064 16.4307 27.7508 16.4362 27.8064 16.4723C27.9119 16.5529 27.9869 16.7473 28.0119 16.9835C28.0425 17.2724 27.9814 17.5835 27.8064 17.6085C27.8008 17.6112 27.7925 17.6112 27.7814 17.6112ZM27.6952 16.5557C27.6397 16.5668 27.5591 16.7446 27.5897 17.0446C27.6147 17.2696 27.6897 17.4251 27.7508 17.4696C27.7619 17.4751 27.7702 17.4835 27.7869 17.4835C27.8369 17.4724 27.9175 17.2946 27.8869 16.9946C27.8619 16.7696 27.7869 16.614 27.7258 16.5696C27.7202 16.564 27.7064 16.5557 27.6952 16.5557Z" fill="black"/>
<path d="M28.3029 17.5172C28.419 17.506 28.4919 17.2766 28.4657 17.0048C28.4396 16.733 28.3243 16.5217 28.2082 16.5328C28.0922 16.544 28.0193 16.7734 28.0454 17.0452C28.0716 17.317 28.1869 17.5283 28.3029 17.5172Z" fill="#006B3F"/>
<path d="M28.2947 17.5804C28.2586 17.5804 28.2197 17.5665 28.1836 17.5415C28.0836 17.4665 28.0086 17.2804 27.9836 17.061C27.9531 16.786 28.0197 16.4971 28.1947 16.4665C28.2392 16.461 28.2836 16.4721 28.3309 16.5054C28.4309 16.5804 28.5059 16.7665 28.5309 16.986C28.5614 17.261 28.4947 17.5499 28.3197 17.5804C28.3114 17.5804 28.3003 17.5804 28.2947 17.5804ZM28.2114 16.5943C28.1503 16.6054 28.0809 16.7887 28.1114 17.0499C28.1309 17.2554 28.2059 17.3999 28.2614 17.4387C28.2753 17.4499 28.2864 17.4526 28.2975 17.4526C28.3586 17.4415 28.4281 17.2582 28.3975 16.9971C28.3781 16.7915 28.3031 16.6471 28.2475 16.6082C28.2364 16.5943 28.2197 16.5887 28.2114 16.5943Z" fill="black"/>
<path d="M28.0174 17.3477C28.1334 17.3366 28.2063 17.1072 28.1802 16.8353C28.154 16.5635 28.0387 16.3522 27.9227 16.3634C27.8066 16.3746 27.7337 16.604 27.7599 16.8758C27.786 17.1476 27.9013 17.3589 28.0174 17.3477Z" fill="#006B3F"/>
<path d="M28.012 17.411C27.9759 17.411 27.9371 17.3971 27.9009 17.3721C27.8009 17.2971 27.7259 17.111 27.7009 16.8916C27.6704 16.6166 27.7371 16.3277 27.9121 16.2971C27.9565 16.2916 28.0009 16.3027 28.0482 16.336C28.1482 16.411 28.2232 16.5971 28.2482 16.8166C28.2787 17.0916 28.212 17.3805 28.037 17.411C28.0259 17.411 28.0204 17.411 28.012 17.411ZM27.9315 16.4249C27.8704 16.436 27.8009 16.6194 27.8315 16.8805C27.8509 17.086 27.9259 17.2305 27.9815 17.2694C27.9954 17.2805 28.0065 17.2833 28.0176 17.2833C28.0787 17.2721 28.1482 17.0888 28.1176 16.8277C28.0982 16.6221 28.0232 16.4777 27.9676 16.4388C27.9509 16.4249 27.9426 16.4194 27.9315 16.4249Z" fill="black"/>
<path d="M27.6648 17.1029C27.7808 17.0918 27.8537 16.8624 27.8276 16.5905C27.8014 16.3187 27.6861 16.1074 27.5701 16.1186C27.454 16.1297 27.3812 16.3591 27.4073 16.631C27.4334 16.9028 27.5487 17.1141 27.6648 17.1029Z" fill="#006B3F"/>
<path d="M27.6557 17.1638C27.6196 17.1638 27.5807 17.1499 27.5446 17.1249C27.4446 17.0499 27.3696 16.8638 27.3446 16.6443C27.314 16.3693 27.3807 16.0804 27.5557 16.0499C27.6001 16.0443 27.6446 16.0554 27.6918 16.0888C27.7918 16.1638 27.8668 16.3499 27.8918 16.5693C27.9224 16.8443 27.8557 17.1332 27.6807 17.1638C27.6696 17.1638 27.6613 17.1638 27.6557 17.1638ZM27.5751 16.1749C27.5113 16.186 27.439 16.3693 27.4696 16.6304C27.489 16.836 27.564 16.9805 27.6196 17.0193C27.6335 17.0305 27.6446 17.0332 27.6557 17.0332C27.7168 17.0221 27.7863 16.8388 27.7557 16.5777C27.7363 16.3721 27.6613 16.2277 27.6057 16.1888C27.5946 16.1804 27.5863 16.1749 27.5751 16.1749Z" fill="black"/>
<path d="M27.3338 16.9532C27.4499 16.942 27.5228 16.7126 27.4966 16.4408C27.4705 16.169 27.3552 15.9577 27.2392 15.9689C27.1231 15.98 27.0502 16.2094 27.0764 16.4812C27.1025 16.7531 27.2178 16.9644 27.3338 16.9532Z" fill="#006B3F"/>
<path d="M27.3259 17.0141C27.2898 17.0141 27.2509 17.0002 27.2148 16.9752C27.1148 16.9002 27.0398 16.7141 27.0148 16.4946C26.9842 16.2196 27.0509 15.9307 27.2259 15.9002C27.2703 15.8946 27.3148 15.9057 27.362 15.9391C27.462 16.0141 27.537 16.2002 27.562 16.4196C27.5926 16.6946 27.5259 16.9835 27.3509 17.0141C27.3426 17.0141 27.3315 17.0141 27.3259 17.0141ZM27.2453 16.0307C27.1815 16.0418 27.1092 16.2252 27.1398 16.4863C27.1592 16.6918 27.2342 16.8363 27.2898 16.8752C27.3037 16.8863 27.3148 16.8891 27.3259 16.8891C27.387 16.8779 27.4565 16.6946 27.4259 16.4335C27.4065 16.2279 27.3315 16.0835 27.2759 16.0446C27.2676 16.0363 27.2565 16.0307 27.2453 16.0307Z" fill="black"/>
<path d="M26.9203 12.3637C26.9203 12.3637 26.1841 12.9998 26.2703 14.7193C26.3591 16.4498 27.8897 17.2637 27.8897 17.2637C27.8897 17.2637 28.2786 16.7748 28.2341 15.3831C28.123 13.347 27.4036 12.4526 27.4036 12.4526L26.9203 12.3637Z" fill="#9461C9"/>
<path d="M27.8921 17.2862L27.8809 17.2807C27.8671 17.2696 26.3448 16.4445 26.256 14.7251C26.1754 13.014 26.906 12.364 26.9115 12.3557L26.9171 12.3501L27.4115 12.439L27.4171 12.4445C27.4226 12.4557 28.1421 13.3695 28.2532 15.3834C28.2976 16.764 27.9087 17.2696 27.9087 17.2723L27.8921 17.2862ZM26.9254 12.3807C26.8615 12.4418 26.206 13.1001 26.2865 14.7195C26.3726 16.3446 27.7504 17.1696 27.8865 17.2446C27.9365 17.1696 28.2615 16.6446 28.2226 15.3807C28.1171 13.4445 27.4532 12.5307 27.3976 12.4612L26.9254 12.3807Z" fill="black"/>
<path d="M28.7874 17.6112C28.8096 17.3467 28.7297 17.1241 28.609 17.1139C28.4882 17.1038 28.3723 17.3099 28.35 17.5744C28.3278 17.8389 28.4077 18.0615 28.5284 18.0717C28.6492 18.0818 28.7651 17.8757 28.7874 17.6112Z" fill="#006B3F"/>
<path d="M28.5368 18.136C28.4813 18.136 28.4368 18.111 28.4007 18.0721C28.3146 17.9776 28.2757 17.7915 28.2896 17.586C28.3091 17.2804 28.4507 17.0498 28.6035 17.0554C28.6535 17.0554 28.698 17.0804 28.7341 17.1193C28.8202 17.2137 28.8591 17.3998 28.8452 17.6054C28.8257 17.911 28.6952 18.136 28.5368 18.136ZM28.6007 17.1804C28.5368 17.1804 28.4313 17.3415 28.4118 17.5943C28.398 17.7887 28.4424 17.9332 28.4924 17.9887C28.5063 18.0026 28.523 18.0137 28.5368 18.0137C28.6007 18.0137 28.7063 17.8526 28.7257 17.5998C28.7396 17.4054 28.6952 17.261 28.6452 17.2054C28.6313 17.1887 28.6174 17.1804 28.6007 17.1804Z" fill="black"/>
<path d="M28.4289 17.5206C28.4511 17.2561 28.3712 17.0335 28.2504 17.0234C28.1297 17.0132 28.0137 17.2194 27.9915 17.4838C27.9693 17.7483 28.0491 17.9709 28.1699 17.9811C28.2907 17.9912 28.4066 17.7851 28.4289 17.5206Z" fill="#006B3F"/>
<path d="M28.1804 18.0443C28.1804 18.0443 28.1749 18.0443 28.1804 18.0443C28.1249 18.0443 28.0804 18.0193 28.0443 17.9804C27.9582 17.8859 27.9193 17.6998 27.9332 17.4943C27.9526 17.1887 28.0943 16.9582 28.2471 16.9637C28.2971 16.9637 28.3415 16.9887 28.3777 17.0276C28.4638 17.1221 28.5027 17.3082 28.4888 17.5137C28.4693 17.8137 28.336 18.0443 28.1804 18.0443ZM28.2443 17.0859C28.1804 17.0859 28.0749 17.2471 28.0554 17.4998C28.0415 17.6943 28.086 17.8387 28.136 17.8943C28.1499 17.9082 28.1665 17.9193 28.1804 17.9193C28.2443 17.9193 28.3499 17.7582 28.3693 17.5054C28.3832 17.3109 28.3388 17.1665 28.2888 17.1109C28.2749 17.0943 28.261 17.0859 28.2443 17.0859Z" fill="black"/>
<path d="M28.2534 17.01C28.2757 16.7456 28.1958 16.5229 28.075 16.5128C27.9543 16.5026 27.8383 16.7088 27.8161 16.9733C27.7939 17.2377 27.8738 17.4604 27.9945 17.4705C28.1153 17.4807 28.2312 17.2745 28.2534 17.01Z" fill="#006B3F"/>
<path d="M28.0063 17.5362C28.0063 17.5362 28.0007 17.5362 28.0063 17.5362C27.9507 17.5362 27.9063 17.5112 27.8702 17.4723C27.784 17.3778 27.7452 17.1917 27.759 16.9862C27.7785 16.6806 27.9146 16.4556 28.0702 16.4556H28.0757C28.1257 16.4556 28.1701 16.4806 28.2063 16.5195C28.2924 16.614 28.3313 16.8001 28.3174 17.0056C28.2951 17.3056 28.1618 17.5362 28.0063 17.5362ZM28.0702 16.5751C28.0063 16.5751 27.9007 16.7362 27.8813 16.989C27.8674 17.1834 27.9118 17.3278 27.9618 17.3834C27.9757 17.3973 27.9924 17.4084 28.0063 17.4084C28.0701 17.4084 28.1757 17.2473 28.1952 16.9945C28.209 16.8001 28.1646 16.6556 28.1146 16.6001C28.1007 16.5862 28.0868 16.5751 28.0702 16.5751Z" fill="black"/>
<path d="M28.6196 17.0578C28.6438 16.7657 28.5693 16.5212 28.4531 16.5115C28.3369 16.5019 28.223 16.7308 28.1988 17.0228C28.1746 17.3148 28.2491 17.5594 28.3653 17.569C28.4815 17.5787 28.5954 17.3498 28.6196 17.0578Z" fill="#006B3F"/>
<path d="M28.3697 17.6306C28.3336 17.6306 28.2891 17.6195 28.2447 17.5695C28.1586 17.475 28.1141 17.2639 28.1308 17.0306C28.1502 16.7417 28.2669 16.45 28.4419 16.45C28.4419 16.45 28.4419 16.45 28.4474 16.45C28.478 16.45 28.5224 16.4611 28.5669 16.5111C28.653 16.6056 28.6974 16.8167 28.6808 17.05C28.6613 17.3361 28.5447 17.6306 28.3697 17.6306ZM28.4447 16.575C28.3947 16.575 28.2836 16.7389 28.2586 17.0389C28.2447 17.2695 28.2891 17.4278 28.3391 17.4833C28.3502 17.4945 28.3586 17.5028 28.3697 17.5028C28.4197 17.5028 28.5308 17.3389 28.5558 17.0389C28.5697 16.8083 28.5252 16.65 28.4752 16.5945C28.4669 16.5861 28.4558 16.575 28.4447 16.575Z" fill="black"/>
<path d="M29.1234 17.1556C29.1461 16.8835 29.0703 16.655 28.9541 16.6453C28.8379 16.6356 28.7253 16.8483 28.7026 17.1204C28.6799 17.3926 28.7557 17.621 28.8718 17.6307C28.988 17.6404 29.1006 17.4277 29.1234 17.1556Z" fill="#006B3F"/>
<path d="M28.8811 17.6888C28.8811 17.6888 28.8755 17.6888 28.8811 17.6888C28.831 17.6888 28.7866 17.6638 28.7505 17.6277C28.6644 17.5332 28.6255 17.3416 28.6394 17.1221C28.6588 16.8471 28.7699 16.5777 28.9449 16.5777H28.9505C28.9949 16.5777 29.0394 16.5971 29.0755 16.6388C29.1616 16.7333 29.2005 16.9249 29.1866 17.1444C29.1672 17.4194 29.0561 17.6888 28.8811 17.6888ZM28.9449 16.6999C28.8838 16.6999 28.7838 16.8694 28.7644 17.1305C28.7505 17.336 28.7949 17.4916 28.8449 17.5444C28.8561 17.5582 28.8699 17.5638 28.8811 17.5638C28.9422 17.5638 29.0422 17.3944 29.0616 17.1333C29.0755 16.9277 29.0311 16.7721 28.9811 16.7194C28.9699 16.711 28.9616 16.6999 28.9449 16.6999Z" fill="black"/>
<path d="M28.8723 16.9349C28.895 16.6627 28.8192 16.4343 28.703 16.4246C28.5869 16.4149 28.4743 16.6276 28.4515 16.8997C28.4288 17.1719 28.5046 17.4003 28.6208 17.41C28.737 17.4197 28.8496 17.207 28.8723 16.9349Z" fill="#006B3F"/>
<path d="M28.631 17.4751C28.581 17.4751 28.5366 17.4501 28.5005 17.414C28.4144 17.3196 28.3755 17.1279 28.3894 16.9085C28.4088 16.6335 28.5199 16.364 28.6949 16.364H28.7005C28.7449 16.364 28.7894 16.389 28.8255 16.4251C28.9116 16.5196 28.9505 16.7112 28.9366 16.9307C28.9172 17.2001 28.8061 17.4751 28.631 17.4751ZM28.7005 16.4862C28.6394 16.4862 28.5394 16.6557 28.5199 16.9168C28.506 17.1223 28.5505 17.2779 28.6005 17.3307C28.6116 17.3446 28.6255 17.3501 28.6366 17.3501C28.6977 17.3501 28.7977 17.1807 28.8172 16.9196C28.8311 16.714 28.7866 16.5585 28.7366 16.5057C28.7199 16.489 28.7116 16.4862 28.7005 16.4862Z" fill="black"/>
<path d="M28.5651 16.6291C28.5879 16.357 28.5121 16.1286 28.3959 16.1189C28.2797 16.1092 28.1671 16.3219 28.1444 16.594C28.1217 16.8661 28.1975 17.0946 28.3136 17.1043C28.4298 17.114 28.5424 16.9013 28.5651 16.6291Z" fill="#006B3F"/>
<path d="M28.3251 17.1695C28.3251 17.1695 28.3196 17.1695 28.3251 17.1695C28.2751 17.1695 28.2307 17.1445 28.1946 17.1084C28.1085 17.014 28.0696 16.8223 28.0835 16.6029C28.1029 16.3279 28.214 16.0584 28.389 16.0584H28.3946C28.439 16.0584 28.4835 16.0779 28.5196 16.1195C28.6057 16.214 28.6446 16.4056 28.6307 16.6251C28.6113 16.8945 28.5001 17.1695 28.3251 17.1695ZM28.3918 16.1806C28.3307 16.1806 28.2307 16.3501 28.2113 16.6112C28.1974 16.8167 28.2418 16.9723 28.2918 17.0251C28.3029 17.039 28.3168 17.0445 28.3279 17.0445C28.389 17.0445 28.489 16.8751 28.5085 16.614C28.5224 16.4084 28.4779 16.2529 28.4279 16.2001C28.4168 16.1862 28.4057 16.1806 28.3918 16.1806Z" fill="black"/>
<path d="M28.2685 16.4245C28.2912 16.1524 28.2154 15.9239 28.0992 15.9142C27.983 15.9045 27.8704 16.1173 27.8477 16.3894C27.825 16.6615 27.9008 16.8899 28.0169 16.8996C28.1331 16.9093 28.2457 16.6966 28.2685 16.4245Z" fill="#006B3F"/>
<path d="M28.0258 16.9638C27.9758 16.9638 27.9314 16.9388 27.8953 16.9026C27.8092 16.8082 27.7703 16.6165 27.7842 16.3971C27.8036 16.1221 27.9147 15.8527 28.0897 15.8527H28.0953C28.1397 15.8527 28.1842 15.8777 28.2203 15.9138C28.3064 16.0082 28.3453 16.1999 28.3314 16.4193C28.3119 16.6888 28.2008 16.9638 28.0258 16.9638ZM28.0953 15.9749C28.0342 15.9749 27.9342 16.1443 27.9147 16.4054C27.9008 16.611 27.9453 16.7665 27.9953 16.8193C28.0064 16.8332 28.0203 16.8388 28.0314 16.8388C28.0925 16.8388 28.1925 16.6693 28.2119 16.4082C28.2258 16.2027 28.1814 16.0471 28.1314 15.9943C28.1175 15.9804 28.1064 15.9749 28.0953 15.9749Z" fill="black"/>
<path d="M29.2254 17.0681C29.5393 16.9319 29.455 16.0412 29.0373 15.0787C28.6195 14.1161 28.0265 13.4462 27.7127 13.5824C27.3988 13.7186 27.4831 14.6093 27.9008 15.5719C28.3186 16.5344 28.9116 17.2043 29.2254 17.0681Z" fill="#D41C30"/>
<path d="M29.1426 17.1056C28.7982 17.1056 28.262 16.4612 27.8732 15.5556C27.5426 14.7917 27.4176 14.0556 27.5593 13.7251C27.5954 13.639 27.6482 13.5862 27.7148 13.5556C28.0509 13.4251 28.6454 14.1001 29.0704 15.0917C29.3954 15.8556 29.5259 16.5917 29.3843 16.9223C29.3482 17.0084 29.2954 17.0612 29.2287 17.0917C29.2009 17.1001 29.1704 17.1056 29.1426 17.1056ZM27.8065 13.589C27.7815 13.589 27.7565 13.5945 27.737 13.6029C27.6815 13.6223 27.637 13.6723 27.6065 13.7417C27.4704 14.0612 27.5954 14.7806 27.9204 15.5362C28.3204 16.4723 28.9148 17.1612 29.2148 17.0473C29.2704 17.0279 29.3148 16.9779 29.3454 16.9084C29.4815 16.589 29.3565 15.8695 29.0315 15.114C28.6565 14.2445 28.1204 13.589 27.8065 13.589Z" fill="black"/>
<path d="M28.2659 13.5483C28.2682 13.4164 28.1495 13.3073 28.0007 13.3046C27.8519 13.302 27.7294 13.4068 27.7271 13.5387C27.7247 13.6706 27.8434 13.7797 27.9922 13.7823C28.141 13.785 28.2635 13.6802 28.2659 13.5483Z" fill="#006B3F"/>
<path d="M28.0009 13.814H27.9953C27.8259 13.8084 27.6898 13.6834 27.6953 13.5334C27.7009 13.3834 27.8342 13.2584 28.0064 13.264C28.1759 13.2695 28.312 13.3945 28.3064 13.5445C28.3064 13.6195 28.2703 13.689 28.212 13.739C28.1509 13.789 28.0759 13.814 28.0009 13.814ZM27.9953 13.339C27.8703 13.339 27.7648 13.4279 27.7648 13.5334C27.7648 13.6445 27.8648 13.739 27.9953 13.739C28.0592 13.739 28.1203 13.7195 28.1648 13.6779C28.2092 13.6418 28.2342 13.5918 28.2342 13.539C28.2314 13.4362 28.1314 13.339 27.9953 13.339C28.0009 13.339 27.9953 13.339 27.9953 13.339Z" fill="black"/>
<path d="M28.2028 13.4417C28.3348 13.4417 28.4417 13.3348 28.4417 13.2028C28.4417 13.0709 28.3348 12.9639 28.2028 12.9639C28.0709 12.9639 27.964 13.0709 27.964 13.2028C27.964 13.3348 28.0709 13.4417 28.2028 13.4417Z" fill="#006B3F"/>
<path d="M28.2007 13.4807H28.1951C28.1201 13.4807 28.0507 13.4502 28.0007 13.3946C27.9507 13.339 27.9201 13.2696 27.9201 13.2001C27.9201 13.1251 27.9507 13.0557 28.0062 13.0057C28.0618 12.9557 28.1312 12.9251 28.2062 12.9307C28.2812 12.9307 28.3507 12.9613 28.4007 13.0168C28.4507 13.0724 28.4812 13.1418 28.4812 13.2113C28.4812 13.2863 28.4507 13.3557 28.3951 13.4057C28.3424 13.4502 28.2757 13.4807 28.2007 13.4807ZM28.2007 13.0057C28.1451 13.0057 28.0951 13.0251 28.0618 13.0613C28.0229 13.0974 28.0007 13.1474 28.0007 13.2001C28.0007 13.2557 28.0201 13.3057 28.0562 13.339C28.0951 13.3779 28.1451 13.4001 28.2007 13.4001C28.2562 13.4001 28.3062 13.3807 28.3451 13.3446C28.384 13.3085 28.4062 13.2585 28.4062 13.2057C28.4062 13.1501 28.3868 13.1001 28.3507 13.0668C28.3118 13.0251 28.2562 13.0057 28.2007 13.0057Z" fill="black"/>
<path d="M27.873 13.4361C28.005 13.4361 28.1119 13.3292 28.1119 13.1973C28.1119 13.0653 28.005 12.9584 27.873 12.9584C27.7411 12.9584 27.6342 13.0653 27.6342 13.1973C27.6342 13.3292 27.7411 13.4361 27.873 13.4361Z" fill="#006B3F"/>
<path d="M27.8756 13.4751H27.8701C27.7145 13.4695 27.5895 13.3445 27.5951 13.1945C27.6006 13.0389 27.7256 12.9195 27.8812 12.9251C27.9562 12.9251 28.0256 12.9556 28.0756 13.0112C28.1256 13.0667 28.1562 13.1362 28.1562 13.2056C28.1506 13.3556 28.0256 13.4751 27.8756 13.4751ZM27.8756 13.0001C27.7645 13.0001 27.6756 13.0862 27.6701 13.1945C27.6701 13.3056 27.7562 13.3945 27.8701 13.4001C27.8701 13.4001 27.8701 13.4001 27.8756 13.4001C27.9868 13.4001 28.0756 13.3139 28.0812 13.2056C28.0812 13.1501 28.0618 13.1001 28.0256 13.0667C27.9812 13.0195 27.9312 13.0001 27.8756 13.0001Z" fill="black"/>
<path d="M28.2009 12.9583C28.2031 12.8341 28.0905 12.7313 27.9494 12.7288C27.8083 12.7263 27.6921 12.825 27.6899 12.9492C27.6876 13.0735 27.8002 13.1762 27.9414 13.1787C28.0825 13.1813 28.1987 13.0826 28.2009 12.9583Z" fill="#006B3F"/>
<path d="M27.9454 13.2139H27.9399C27.8649 13.2139 27.7899 13.1833 27.7343 13.1333C27.6787 13.0833 27.6482 13.0139 27.6482 12.9444C27.6482 12.875 27.6843 12.8083 27.7371 12.7583C27.7926 12.7083 27.8676 12.6833 27.9426 12.6889C28.1038 12.6944 28.2315 12.8139 28.2288 12.9583C28.2288 13.0278 28.1927 13.0944 28.1399 13.1444C28.0927 13.1889 28.0204 13.2139 27.9454 13.2139ZM27.9454 12.7639C27.8899 12.7639 27.8343 12.7833 27.7954 12.8194C27.7565 12.8555 27.7343 12.9 27.7315 12.95C27.7315 13 27.751 13.0444 27.7926 13.0805C27.8315 13.1166 27.8871 13.1361 27.9426 13.1416C28.0038 13.1416 28.0565 13.1222 28.0982 13.0861C28.1371 13.05 28.1593 13.0055 28.1621 12.9555C28.1621 12.8555 28.0677 12.7694 27.9454 12.7639Z" fill="black"/>
<path d="M28.1751 12.6761C28.1774 12.5518 28.0648 12.4491 27.9236 12.4466C27.7825 12.444 27.6663 12.5427 27.6641 12.667C27.6619 12.7912 27.7745 12.8939 27.9156 12.8965C28.0567 12.899 28.1729 12.8003 28.1751 12.6761Z" fill="#006B3F"/>
<path d="M27.9202 12.9306H27.9146C27.7535 12.9251 27.6257 12.8056 27.6285 12.6612C27.6285 12.5917 27.6646 12.5251 27.7174 12.4751C27.7729 12.4251 27.8479 12.4001 27.9229 12.4056C28.0841 12.4112 28.2118 12.5306 28.2091 12.6751C28.2091 12.7445 28.1729 12.8112 28.1202 12.8612C28.0674 12.9056 27.9952 12.9306 27.9202 12.9306ZM27.9174 12.4862C27.8618 12.4862 27.8063 12.5056 27.7674 12.5417C27.7285 12.5778 27.7063 12.6223 27.7035 12.6723C27.7035 12.7723 27.7979 12.8584 27.9146 12.8612C27.9757 12.8612 28.0285 12.8417 28.0702 12.8056C28.1091 12.7695 28.1313 12.7251 28.1341 12.6751C28.1313 12.5695 28.0424 12.4862 27.9174 12.4862C27.9202 12.4862 27.9174 12.4862 27.9174 12.4862Z" fill="black"/>
<path d="M27.5613 13.2501C27.6933 13.2501 27.8002 13.1432 27.8002 13.0112C27.8002 12.8793 27.6933 12.7723 27.5613 12.7723C27.4294 12.7723 27.3224 12.8793 27.3224 13.0112C27.3224 13.1432 27.4294 13.2501 27.5613 13.2501Z" fill="#006B3F"/>
<path d="M27.567 13.286H27.5614C27.4864 13.286 27.417 13.2555 27.367 13.1999C27.317 13.1444 27.2864 13.0749 27.2864 13.0055C27.292 12.8499 27.417 12.7305 27.5726 12.736C27.7281 12.7416 27.8531 12.8666 27.8476 13.0166C27.8476 13.0916 27.817 13.161 27.7615 13.211C27.7059 13.2555 27.6365 13.286 27.567 13.286ZM27.5614 12.811C27.4503 12.811 27.3614 12.8971 27.3559 13.0055C27.3559 13.061 27.3753 13.111 27.4114 13.1444C27.4503 13.1833 27.5003 13.2055 27.5559 13.2055C27.6115 13.2055 27.6615 13.186 27.7003 13.1499C27.7392 13.1138 27.7615 13.0638 27.7615 13.011C27.767 12.8999 27.6809 12.811 27.5614 12.811C27.567 12.811 27.567 12.811 27.5614 12.811Z" fill="black"/>
<path d="M27.8716 12.7085C27.8739 12.5781 27.7689 12.4705 27.6369 12.4682C27.505 12.4658 27.3962 12.5696 27.3939 12.7C27.3916 12.8303 27.4966 12.9379 27.6285 12.9403C27.7604 12.9426 27.8693 12.8389 27.8716 12.7085Z" fill="#006B3F"/>
<path d="M27.6361 12.9751H27.6306C27.5556 12.9751 27.4861 12.9446 27.4361 12.889C27.3861 12.839 27.3556 12.7696 27.3556 12.6946C27.3611 12.5446 27.4861 12.4251 27.6417 12.4307C27.7972 12.4362 27.9222 12.5557 27.9167 12.7057C27.9167 12.8557 27.7917 12.9751 27.6361 12.9751ZM27.6361 12.5112C27.525 12.5112 27.4361 12.5973 27.4361 12.7001C27.4361 12.7501 27.4556 12.8001 27.4917 12.839C27.5306 12.8779 27.5806 12.9001 27.6361 12.9001C27.75 12.9001 27.8417 12.814 27.8417 12.7112C27.8417 12.6001 27.75 12.5112 27.6361 12.5112Z" fill="black"/>
<path d="M27.5059 12.7181C27.5082 12.5862 27.3895 12.4771 27.2407 12.4745C27.0919 12.4718 26.9694 12.5766 26.9671 12.7085C26.9647 12.8405 27.0834 12.9495 27.2322 12.9522C27.381 12.9548 27.5035 12.85 27.5059 12.7181Z" fill="#006B3F"/>
<path d="M27.2363 12.986H27.2308C27.1502 12.986 27.0752 12.9555 27.0169 12.8999C26.9586 12.8444 26.928 12.7749 26.928 12.7055C26.928 12.6305 26.9641 12.561 27.0225 12.511C27.0836 12.461 27.1586 12.436 27.2363 12.436C27.3169 12.436 27.3919 12.4666 27.4502 12.5221C27.5113 12.5777 27.5391 12.6471 27.5391 12.7166C27.5391 12.7916 27.503 12.861 27.4447 12.911C27.3919 12.961 27.3169 12.986 27.2363 12.986ZM27.2363 12.511C27.1752 12.511 27.1169 12.5305 27.0725 12.5721C27.028 12.6083 27.003 12.6583 27.003 12.711C27.003 12.7638 27.0225 12.8166 27.0669 12.8499C27.1113 12.8888 27.1669 12.911 27.2308 12.9138C27.2947 12.9138 27.3558 12.8944 27.4002 12.8527C27.4447 12.8166 27.4697 12.7666 27.4697 12.7138C27.4697 12.661 27.4502 12.6083 27.4058 12.5749C27.3613 12.5305 27.3058 12.511 27.2363 12.511C27.2419 12.511 27.2363 12.511 27.2363 12.511Z" fill="black"/>
<path d="M27.9878 12.3224C27.99 12.1982 27.8774 12.0954 27.7363 12.0929C27.5952 12.0904 27.479 12.1891 27.4768 12.3133C27.4745 12.4376 27.5871 12.5403 27.7283 12.5428C27.8694 12.5453 27.9856 12.4467 27.9878 12.3224Z" fill="#006B3F"/>
<path d="M27.736 12.5806H27.7304C27.5693 12.5751 27.4415 12.4556 27.4443 12.3112C27.4499 12.1667 27.5804 12.0501 27.7388 12.0556C27.8999 12.0612 28.0277 12.1806 28.0249 12.3251C28.0249 12.3945 27.9888 12.4612 27.936 12.5112C27.8804 12.5501 27.811 12.5806 27.736 12.5806ZM27.7304 12.1306C27.6165 12.1306 27.5193 12.2112 27.5165 12.3112C27.5165 12.4112 27.611 12.4973 27.7277 12.5001C27.7832 12.5001 27.8415 12.4806 27.8832 12.4445C27.9221 12.4084 27.9443 12.3639 27.9471 12.3139C27.9499 12.2139 27.8554 12.1362 27.7304 12.1306C27.736 12.1306 27.7304 12.1306 27.7304 12.1306Z" fill="black"/>
<path d="M27.635 12.3625C27.6373 12.2321 27.5322 12.1245 27.4003 12.1221C27.2684 12.1198 27.1596 12.2236 27.1573 12.354C27.155 12.4843 27.26 12.5919 27.3919 12.5943C27.5238 12.5966 27.6326 12.4928 27.635 12.3625Z" fill="#006B3F"/>
<path d="M27.3948 12.6305H27.3893C27.3143 12.6305 27.2448 12.5999 27.1948 12.5444C27.1448 12.4944 27.1143 12.4249 27.1143 12.3499C27.1143 12.2749 27.1448 12.2111 27.2004 12.1611C27.2559 12.1111 27.3254 12.0861 27.4004 12.0861C27.4754 12.0861 27.5448 12.1166 27.5948 12.1722C27.6448 12.2222 27.6754 12.2916 27.6754 12.3666C27.6754 12.4416 27.6448 12.5055 27.5893 12.5555C27.5365 12.6055 27.467 12.6305 27.3948 12.6305ZM27.3948 12.1638C27.3393 12.1638 27.2893 12.1833 27.2559 12.2194C27.217 12.2555 27.1948 12.3055 27.1948 12.3555C27.1948 12.4055 27.2143 12.4555 27.2504 12.4944C27.2893 12.5333 27.3393 12.5555 27.3948 12.5555C27.4504 12.5555 27.5004 12.5361 27.5393 12.4999C27.5781 12.4638 27.6004 12.4138 27.6004 12.3638C27.6004 12.3138 27.5809 12.2638 27.5448 12.2249C27.5059 12.1861 27.4504 12.1638 27.3948 12.1638Z" fill="black"/>
<path d="M26.8837 12.9638C27.0157 12.9638 27.1226 12.8568 27.1226 12.7249C27.1226 12.593 27.0157 12.486 26.8837 12.486C26.7518 12.486 26.6448 12.593 26.6448 12.7249C26.6448 12.8568 26.7518 12.9638 26.8837 12.9638Z" fill="#006B3F"/>
<path d="M26.8803 12.9998H26.8747C26.7997 12.9998 26.7303 12.9693 26.6803 12.9137C26.6303 12.8582 26.5997 12.7887 26.5997 12.7193C26.6053 12.5637 26.7303 12.4443 26.8858 12.4498C27.0414 12.4554 27.1664 12.5804 27.1608 12.7304C27.1608 12.8804 27.0358 12.9998 26.8803 12.9998ZM26.8803 12.5248C26.7691 12.5248 26.6803 12.6109 26.6747 12.7193C26.6747 12.7748 26.6941 12.8248 26.7303 12.8582C26.7691 12.8971 26.8191 12.9193 26.8747 12.9193C26.9886 12.9193 27.0803 12.8332 27.0803 12.7248C27.0858 12.6137 26.9941 12.5248 26.8803 12.5248C26.8858 12.5248 26.8858 12.5248 26.8803 12.5248Z" fill="black"/>
<path d="M27.2048 12.5514C27.2071 12.421 27.1021 12.3134 26.9702 12.3111C26.8383 12.3087 26.7295 12.4125 26.7271 12.5429C26.7248 12.6732 26.8299 12.7808 26.9618 12.7832C27.0937 12.7855 27.2025 12.6817 27.2048 12.5514Z" fill="#006B3F"/>
<path d="M26.9667 12.814H26.9612C26.8056 12.8085 26.6806 12.689 26.6862 12.539C26.6917 12.389 26.8167 12.2696 26.9723 12.2751C27.0473 12.2751 27.1167 12.3057 27.1667 12.3613C27.2167 12.4113 27.2473 12.4807 27.2473 12.5557C27.2473 12.6307 27.2167 12.6946 27.1612 12.7446C27.1112 12.789 27.0417 12.814 26.9667 12.814ZM26.9667 12.3502C26.8556 12.3502 26.7667 12.4363 26.7667 12.539C26.7667 12.6446 26.8528 12.7335 26.9667 12.739C27.0223 12.739 27.0723 12.7196 27.1112 12.6835C27.15 12.6474 27.1723 12.5974 27.1723 12.5474C27.1723 12.4974 27.1528 12.4474 27.1167 12.4085C27.075 12.3752 27.025 12.3502 26.9667 12.3502C26.9695 12.3502 26.9667 12.3502 26.9667 12.3502Z" fill="black"/>
<path d="M27.3073 12.3537C27.3096 12.2234 27.2046 12.1158 27.0727 12.1134C26.9408 12.1111 26.8319 12.2149 26.8296 12.3452C26.8273 12.4756 26.9323 12.5832 27.0643 12.5856C27.1962 12.5879 27.305 12.4841 27.3073 12.3537Z" fill="#006B3F"/>
<path d="M27.0698 12.6193H27.0642C26.9087 12.6138 26.7837 12.4943 26.7892 12.3443C26.7948 12.1943 26.9198 12.0749 27.0753 12.0804C27.1503 12.0804 27.2198 12.111 27.2698 12.1666C27.3198 12.2166 27.3503 12.286 27.3503 12.361C27.3448 12.4999 27.2198 12.6193 27.0698 12.6193ZM27.0698 12.1554C26.9587 12.1554 26.8698 12.2416 26.8698 12.3443C26.8698 12.4471 26.9559 12.5388 27.0698 12.5443C27.1836 12.5443 27.2753 12.4582 27.2753 12.3554C27.2753 12.3054 27.2559 12.2554 27.2198 12.2166C27.1753 12.1749 27.1253 12.1554 27.0698 12.1554Z" fill="black"/>
<path d="M29.562 17.0938C29.9565 16.92 29.8681 15.8527 29.3646 14.71C28.8611 13.5672 28.1331 12.7817 27.7386 12.9555C27.3441 13.1294 27.4325 14.1967 27.936 15.3394C28.4395 16.4822 29.1675 17.2676 29.562 17.0938Z" fill="#006B3F"/>
<path d="M29.4508 17.1861C29.0008 17.1861 28.3258 16.4111 27.8564 15.3167C27.4702 14.4167 27.3314 13.5361 27.5119 13.1278C27.5675 13.0083 27.6425 12.9278 27.7425 12.8917C28.1869 12.7305 28.9425 13.5472 29.4536 14.7417C29.8397 15.6417 29.9786 16.5222 29.798 16.9305C29.7425 17.05 29.6675 17.1305 29.5675 17.1667C29.5314 17.1805 29.4925 17.1861 29.4508 17.1861ZM27.8619 12.9944C27.8314 12.9944 27.8064 13 27.7814 13.0083C27.7175 13.0333 27.6619 13.0889 27.6258 13.1722C27.4619 13.5528 27.6008 14.3917 27.9702 15.2611C28.4897 16.4722 29.1952 17.1611 29.5258 17.0417C29.5897 17.0167 29.6452 16.9611 29.6814 16.8778C29.8452 16.4972 29.7064 15.6583 29.3369 14.7889C28.8508 13.6694 28.2175 12.9944 27.8619 12.9944Z" fill="black"/>
<path d="M29.4872 15.8265C29.5629 15.7929 29.5381 15.5713 29.4317 15.3315C29.3253 15.0917 29.1777 14.9245 29.102 14.9581C29.0262 14.9917 29.0511 15.2133 29.1575 15.4531C29.2638 15.6929 29.4115 15.8601 29.4872 15.8265Z" fill="#006B3F"/>
<path d="M29.4702 15.8888C29.4563 15.8888 29.4396 15.8832 29.4202 15.8777C29.3007 15.8332 29.1813 15.6416 29.1063 15.4777C28.9952 15.2332 28.9452 14.9638 29.0813 14.8971C29.1007 14.886 29.1368 14.8777 29.1813 14.8971C29.3007 14.9415 29.4202 15.1332 29.4952 15.2971C29.6063 15.5416 29.6563 15.811 29.5202 15.8777C29.5063 15.886 29.4924 15.8888 29.4702 15.8888ZM29.1313 15.0138C29.1174 15.0443 29.1174 15.1999 29.2174 15.4277C29.3174 15.6527 29.4285 15.7527 29.4619 15.7638C29.4757 15.7332 29.4757 15.5777 29.3757 15.3499C29.2757 15.1249 29.1674 15.0249 29.1313 15.0138Z" fill="black"/>
<path d="M29.2315 15.3888C29.8703 16.1693 29.7926 16.6638 29.7259 17.0832C29.5259 16.5971 29.4148 16.2971 28.7759 15.5193C28.137 14.7416 28.4565 14.1943 28.5009 13.9055C28.5926 14.1499 28.587 14.611 29.2315 15.3888Z" fill="#006B3F"/>
<path d="M29.7305 17.1362L29.7111 17.0918L29.6805 17.0224C29.4999 16.5835 29.3666 16.2668 28.7611 15.5279C28.2222 14.8724 28.3555 14.389 28.4416 14.0668C28.4555 14.0029 28.4722 13.9529 28.4805 13.9029L28.4916 13.8474L28.5111 13.8974C28.5305 13.9529 28.5472 14.0112 28.5666 14.0862C28.6361 14.3557 28.7416 14.7724 29.2472 15.3807C29.8916 16.1668 29.8083 16.6751 29.7416 17.0807L29.7305 17.1362ZM28.4944 13.9557C28.4833 13.9918 28.4749 14.0307 28.4638 14.0696C28.3777 14.3835 28.2499 14.864 28.7777 15.5057C29.3888 16.2501 29.5222 16.5668 29.7027 17.0057L29.7138 17.0307C29.7777 16.6168 29.8249 16.1418 29.2138 15.3946C28.7083 14.7807 28.5999 14.364 28.5277 14.089C28.5194 14.0446 28.5111 13.9946 28.4944 13.9557Z" fill="black"/>
<path d="M29.286 16.0194C29.9248 16.8 29.8471 17.2944 29.7804 17.7139C29.5804 17.2277 29.4693 16.9277 28.8304 16.15C28.1915 15.3722 28.5109 14.825 28.5554 14.5361C28.6443 14.7805 28.6443 15.2389 29.286 16.0194Z" fill="#006B3F"/>
<path d="M29.7868 17.764L29.7674 17.7196L29.7368 17.6501C29.5563 17.2112 29.423 16.8946 28.8174 16.1557C28.2785 15.5001 28.4118 15.0168 28.4979 14.6918C28.5118 14.6279 28.5285 14.5779 28.5368 14.5279L28.5479 14.4724L28.5674 14.5224C28.5868 14.5779 28.6035 14.6362 28.6229 14.7112C28.6924 14.9807 28.7979 15.3974 29.3035 16.0057C29.948 16.7918 29.8646 17.3001 29.798 17.7057L29.7868 17.764ZM28.5563 14.5862C28.5452 14.6224 28.5368 14.6612 28.5257 14.7001C28.4396 15.014 28.3118 15.4946 28.8396 16.1362C29.4507 16.8807 29.5841 17.1974 29.7646 17.6362L29.7757 17.6612C29.8396 17.2474 29.8868 16.7724 29.2757 16.0251C28.7702 15.4112 28.6618 14.9946 28.5896 14.7196C28.5813 14.6751 28.5674 14.6251 28.5563 14.5862Z" fill="black"/>
<path d="M29.3064 16.5251C29.9619 17.289 29.8925 17.789 29.8313 18.2112C29.6202 17.7307 29.5064 17.4307 28.8452 16.6668C28.1897 15.9029 28.5008 15.3473 28.5341 15.0557C28.6425 15.3001 28.6508 15.7612 29.3064 16.5251Z" fill="#006B3F"/>
<path d="M29.8415 18.2611L29.8221 18.2167L29.7915 18.1473C29.6026 17.7111 29.4609 17.4028 28.8415 16.6723C28.2915 16.0278 28.411 15.5417 28.4915 15.2167C28.5054 15.1528 28.5221 15.0973 28.5276 15.0528L28.5332 14.9973L28.5526 15.0473C28.5721 15.1028 28.5915 15.1611 28.6137 15.2361C28.6887 15.5056 28.8026 15.9167 29.3193 16.5167C29.9804 17.2861 29.9054 17.7973 29.8498 18.2056L29.8415 18.2611ZM28.5443 15.1111C28.5387 15.1473 28.5304 15.1861 28.5193 15.225C28.4387 15.5389 28.3193 16.0195 28.8582 16.6556C29.4832 17.3861 29.6221 17.7 29.8137 18.1361L29.8248 18.1556C29.8804 17.7417 29.9193 17.2667 29.2943 16.5361C28.7748 15.9306 28.6582 15.5167 28.5832 15.2473C28.5693 15.1945 28.561 15.15 28.5443 15.1111Z" fill="black"/>
<path d="M29.2106 15.4204C29.3483 15.3562 29.3 14.9615 29.1029 14.5388C28.9058 14.1161 28.6344 13.8255 28.4967 13.8897C28.3591 13.9539 28.4073 14.3486 28.6044 14.7713C28.8016 15.194 29.073 15.4846 29.2106 15.4204Z" fill="#006B3F"/>
<path d="M29.1671 15.4641C28.9726 15.4641 28.7115 15.103 28.5532 14.7391C28.3976 14.3946 28.3476 14.0752 28.4171 13.928C28.4365 13.8891 28.4671 13.8585 28.506 13.8474C28.7004 13.7974 28.9865 14.1835 29.156 14.5668C29.3115 14.9113 29.3615 15.2307 29.2921 15.378C29.2726 15.4168 29.2421 15.4474 29.2032 15.4585C29.1921 15.4613 29.1754 15.4641 29.1671 15.4641ZM28.5199 13.9196C28.5004 13.9252 28.4837 13.9391 28.4754 13.9641C28.4143 14.0891 28.4699 14.3946 28.6143 14.7141C28.8087 15.153 29.0699 15.4252 29.1838 15.3946C29.2032 15.3891 29.2199 15.3752 29.2282 15.3502C29.2893 15.2252 29.2338 14.9196 29.0893 14.6002C28.8949 14.1613 28.6365 13.8891 28.5199 13.9196Z" fill="black"/>
<path d="M28.8841 15.7243C29.0043 15.6699 28.9736 15.3426 28.8155 14.9931C28.6574 14.6437 28.4318 14.4045 28.3116 14.4589C28.1914 14.5133 28.2221 14.8406 28.3802 15.1901C28.5383 15.5395 28.7639 15.7787 28.8841 15.7243Z" fill="#006B3F"/>
<path d="M28.8443 15.7694C28.6693 15.7694 28.4443 15.4555 28.3137 15.1499C28.1943 14.8638 28.1637 14.6055 28.2276 14.4861C28.2471 14.4472 28.2832 14.4222 28.3221 14.4166C28.5026 14.3861 28.7415 14.7111 28.8776 15.0361C28.9971 15.3222 29.0276 15.5805 28.9637 15.6999C28.9443 15.7388 28.9082 15.7638 28.8693 15.7694C28.861 15.7638 28.8498 15.7694 28.8443 15.7694ZM28.3498 14.4888C28.3443 14.4888 28.3443 14.4888 28.3387 14.4888C28.3276 14.4888 28.3137 14.4944 28.2998 14.5194C28.2554 14.5999 28.2637 14.8138 28.3887 15.1138C28.5387 15.4749 28.7526 15.7027 28.8526 15.6833C28.8637 15.6833 28.8776 15.6777 28.8915 15.6527C28.936 15.5722 28.9276 15.3583 28.8026 15.0583C28.661 14.7138 28.4554 14.4888 28.3498 14.4888Z" fill="black"/>
<path d="M28.5608 16.0186C28.6821 15.9667 28.6582 15.6388 28.5074 15.2862C28.3566 14.9336 28.136 14.6898 28.0147 14.7416C27.8933 14.7935 27.9173 15.1214 28.0681 15.474C28.2189 15.8267 28.4395 16.0705 28.5608 16.0186Z" fill="#006B3F"/>
<path d="M28.5308 16.0695C28.3558 16.0695 28.1363 15.75 28.0113 15.4333C27.9002 15.1472 27.8724 14.8889 27.9419 14.7694C27.9669 14.7306 27.9974 14.7056 28.0419 14.7C28.2224 14.675 28.4558 15.0056 28.5808 15.3306C28.6919 15.6167 28.7197 15.875 28.6502 15.9944C28.6252 16.0333 28.5947 16.0583 28.5502 16.0639C28.5447 16.0639 28.5363 16.0695 28.5308 16.0695ZM28.0447 14.7806C28.0335 14.7806 28.0197 14.7861 28.0058 14.8111C27.9613 14.8861 27.9669 15.1056 28.0808 15.4056C28.2197 15.7667 28.4308 16 28.5308 15.9861C28.5419 15.9861 28.5558 15.9806 28.5697 15.9556C28.6141 15.8806 28.6085 15.6611 28.4947 15.3611C28.3613 15 28.1502 14.7639 28.0447 14.7806Z" fill="black"/>
<path d="M28.7941 14.7824C28.8889 14.7321 28.8544 14.4814 28.717 14.2227C28.5796 13.9639 28.3913 13.7949 28.2964 13.8453C28.2016 13.8956 28.2361 14.1463 28.3735 14.405C28.511 14.6638 28.6992 14.8328 28.7941 14.7824Z" fill="#006B3F"/>
<path d="M28.7554 14.8444C28.6054 14.8444 28.4165 14.6138 28.2998 14.3749C28.1943 14.161 28.1637 13.961 28.2137 13.861C28.2332 13.8222 28.2637 13.7972 28.3082 13.7916C28.4637 13.761 28.6693 14.0055 28.7887 14.261C28.8943 14.4749 28.9248 14.6749 28.8748 14.7749C28.8554 14.8138 28.8248 14.8388 28.7804 14.8444C28.7693 14.8444 28.7665 14.8444 28.7554 14.8444ZM28.3359 13.8888C28.3304 13.8888 28.3304 13.8888 28.3304 13.8888C28.3248 13.8888 28.3193 13.8888 28.3109 13.9027C28.2804 13.9638 28.2998 14.1222 28.3971 14.3222C28.5276 14.5916 28.7026 14.7472 28.7665 14.7333C28.7721 14.7333 28.7776 14.7333 28.7859 14.7194C28.8165 14.6583 28.7971 14.4999 28.6998 14.2999C28.5693 14.0444 28.4054 13.8888 28.3359 13.8888Z" fill="black"/>
<path d="M28.5061 14.9967C28.6039 14.9522 28.5848 14.6999 28.4635 14.4332C28.3422 14.1665 28.1647 13.9863 28.0669 14.0307C27.9691 14.0752 27.9882 14.3274 28.1095 14.5942C28.2308 14.8609 28.4083 15.0411 28.5061 14.9967Z" fill="#006B3F"/>
<path d="M28.4756 15.0557C28.32 15.0557 28.1395 14.8112 28.0395 14.5612C27.9506 14.3418 27.9283 14.1418 27.9839 14.0474C28.0033 14.0085 28.0395 13.9862 28.0784 13.9835C28.2339 13.964 28.4228 14.2196 28.5284 14.4779C28.6173 14.6974 28.6395 14.8974 28.5839 14.9918C28.5645 15.0307 28.5284 15.0529 28.4895 15.0557C28.4867 15.0557 28.4811 15.0557 28.4756 15.0557ZM28.1006 14.0807C28.1006 14.0807 28.095 14.0807 28.1006 14.0807C28.0895 14.0807 28.0867 14.0807 28.0756 14.0946C28.0395 14.1501 28.0506 14.314 28.1367 14.5196C28.2478 14.7946 28.4117 14.9585 28.4756 14.9501C28.4811 14.9501 28.4867 14.9501 28.495 14.9362C28.5311 14.8807 28.52 14.7168 28.4339 14.5112C28.3311 14.239 28.17 14.0807 28.1006 14.0807Z" fill="black"/>
<path d="M28.087 14.2111C28.2759 14.675 28.3509 15.0916 28.2564 15.1416C28.162 15.1916 27.9314 14.8555 27.7426 14.3916" fill="#006B3F"/>
<path d="M28.2359 15.1612C28.2248 15.1612 28.2164 15.1612 28.2053 15.1556C28.0859 15.1112 27.8914 14.8001 27.7248 14.4001L27.7498 14.389C27.9109 14.7779 28.1053 15.089 28.2136 15.1279C28.2275 15.1334 28.2386 15.1334 28.2442 15.1279C28.3192 15.089 28.2636 14.7029 28.0636 14.2167L28.0886 14.2056C28.2581 14.6167 28.3748 15.0917 28.2525 15.1501C28.2553 15.1612 28.2442 15.1612 28.2359 15.1612Z" fill="black"/>
<path d="M28.4746 14.4519C28.5724 14.4074 28.5533 14.1551 28.432 13.8884C28.3107 13.6217 28.1332 13.4415 28.0354 13.4859C27.9376 13.5304 27.9567 13.7826 28.078 14.0494C28.1993 14.3161 28.3768 14.4963 28.4746 14.4519Z" fill="#006B3F"/>
<path d="M28.4417 14.5111C28.2861 14.5111 28.1055 14.2666 28.0055 14.0166C27.9166 13.7972 27.8944 13.5972 27.95 13.5027C27.9694 13.4638 28.0055 13.4416 28.0444 13.4388C28.2055 13.4194 28.3889 13.675 28.4944 13.9333C28.5833 14.1527 28.6055 14.3527 28.55 14.4472C28.5305 14.4861 28.4944 14.5083 28.4555 14.5111C28.4555 14.5111 28.4444 14.5111 28.4417 14.5111ZM28.0666 13.5361C28.0611 13.5361 28.0555 13.5361 28.0472 13.55C28.0111 13.6055 28.0222 13.7694 28.1083 13.975C28.2194 14.25 28.3833 14.4138 28.4472 14.4055C28.4528 14.4055 28.4583 14.4055 28.4667 14.3916C28.5028 14.3361 28.4917 14.1722 28.4055 13.9666C28.2944 13.6888 28.1305 13.525 28.0666 13.5361Z" fill="black"/>
<path d="M28.1506 14.6102C28.2493 14.5679 28.2359 14.3153 28.1205 14.0459C28.0052 13.7765 27.8317 13.5924 27.7329 13.6347C27.6342 13.677 27.6477 13.9296 27.763 14.199C27.8783 14.4684 28.0519 14.6525 28.1506 14.6102Z" fill="#006B3F"/>
<path d="M28.1169 14.664C27.9613 14.664 27.7863 14.414 27.6919 14.1584C27.6058 13.9334 27.5919 13.739 27.653 13.639C27.678 13.6001 27.7086 13.5778 27.753 13.5751C27.9086 13.5612 28.0919 13.814 28.1919 14.0806C28.278 14.3056 28.2919 14.5001 28.2308 14.6001C28.2058 14.639 28.1752 14.6612 28.1308 14.664C28.1252 14.664 28.1197 14.664 28.1169 14.664ZM27.7613 13.6862C27.7502 13.6862 27.7475 13.6862 27.7363 13.7001C27.7002 13.7556 27.7058 13.9195 27.7863 14.1251C27.8919 14.4001 28.0558 14.5695 28.1169 14.5612C28.1225 14.5612 28.128 14.5612 28.1363 14.5473C28.1725 14.4917 28.1669 14.3278 28.0863 14.1223C27.9863 13.8501 27.8308 13.6862 27.7613 13.6862Z" fill="black"/>
<path d="M27.7561 13.5861C27.9422 13.8999 28.0422 14.1916 27.9755 14.2361C27.9144 14.2805 27.7144 14.0666 27.5311 13.7555" fill="#006B3F"/>
<path d="M27.9554 14.2554C27.9499 14.2554 27.9443 14.2554 27.9415 14.2554C27.8527 14.236 27.6777 14.036 27.5165 13.761L27.5415 13.7471C27.7165 14.0415 27.8804 14.211 27.9471 14.2276C27.9582 14.2276 27.961 14.2276 27.9665 14.2221C28.0165 14.186 27.936 13.9165 27.7415 13.586L27.7665 13.5721C27.9304 13.8526 28.061 14.1832 27.9804 14.2415C27.9804 14.2554 27.9693 14.2554 27.9554 14.2554Z" fill="black"/>
<path d="M27.8864 13.375C28.0726 13.6889 28.1726 13.9805 28.1059 14.025C28.0448 14.0694 27.8448 13.8556 27.6614 13.5444" fill="#006B3F"/>
<path d="M28.0871 14.05C28.0815 14.05 28.076 14.05 28.0732 14.05C27.9843 14.0305 27.8093 13.8305 27.6482 13.5555L27.6732 13.5416C27.8482 13.8361 28.0121 14.0055 28.0788 14.0222C28.0899 14.0222 28.0926 14.0222 28.0982 14.0166C28.1482 13.9805 28.0676 13.7111 27.8732 13.3805L27.8982 13.3666C28.0621 13.6472 28.1926 13.9777 28.1121 14.0361C28.1065 14.0444 28.0954 14.05 28.0871 14.05Z" fill="black"/>
<path d="M28.4565 13.4194C28.7121 13.8444 28.851 14.2444 28.7676 14.3083C28.6843 14.3721 28.4038 14.0777 28.1482 13.6527" fill="#006B3F"/>
<path d="M28.7363 14.3362C28.7307 14.3362 28.7252 14.3362 28.7169 14.3362C28.5919 14.3112 28.353 14.0362 28.1307 13.6667L28.1557 13.6528C28.3696 14.0139 28.6113 14.2889 28.7196 14.3139C28.7335 14.3195 28.7446 14.3139 28.7502 14.3084C28.8196 14.2584 28.7113 13.8889 28.4391 13.4389L28.4641 13.425C28.6946 13.8056 28.8752 14.2556 28.7696 14.3362C28.7613 14.3306 28.7502 14.3362 28.7363 14.3362Z" fill="black"/>
<path d="M28.0806 13.1943C28.2667 13.5388 28.3667 13.8582 28.3 13.9138C28.2389 13.9638 28.0389 13.7277 27.8556 13.3832" fill="#006B3F"/>
<path d="M28.2805 13.9362C28.2749 13.9362 28.2694 13.9362 28.2694 13.9362C28.1805 13.9223 28.0055 13.6973 27.8444 13.3917L27.8694 13.3779C28.0444 13.7029 28.2083 13.8973 28.2749 13.9084C28.286 13.9084 28.2888 13.9084 28.2944 13.9029C28.3444 13.864 28.2638 13.564 28.0694 13.2029L28.0944 13.189C28.2583 13.5001 28.3944 13.8584 28.3138 13.9251C28.3055 13.9306 28.2944 13.9362 28.2805 13.9362Z" fill="black"/>
<path d="M28.0619 12.6943C27.9369 12.8193 28.0563 13.0498 28.173 13.1332C28.298 13.2471 29.0091 13.9971 29.5119 13.3693C29.1119 13.361 28.3619 12.4193 28.0619 12.6943Z" fill="#9461C9"/>
<path d="M29.0416 13.6362C28.6777 13.6362 28.3277 13.3057 28.1916 13.1751C28.1777 13.164 28.1666 13.1557 28.161 13.1446C28.086 13.089 28.0054 12.964 27.9971 12.8501C27.9916 12.7862 28.011 12.7307 28.0527 12.6862C28.2277 12.5223 28.5527 12.7612 28.8666 12.9973C29.1027 13.1723 29.3416 13.3529 29.511 13.3585H29.5416L29.5221 13.3835C29.3971 13.539 29.2471 13.6223 29.0832 13.639C29.0693 13.6362 29.0555 13.6362 29.0416 13.6362ZM28.0693 12.7057C28.0332 12.7418 28.0193 12.7918 28.0249 12.8446C28.036 12.9501 28.111 13.0696 28.1804 13.1196C28.1916 13.1307 28.1999 13.139 28.2166 13.1501C28.3527 13.2807 28.7166 13.6251 29.0805 13.6001C29.2305 13.589 29.3666 13.514 29.4805 13.3807C29.3055 13.3612 29.0693 13.1862 28.8443 13.0168C28.5443 12.7946 28.2305 12.5612 28.0693 12.7057Z" fill="black"/>
<path d="M27.9749 12.3249C27.8499 12.4499 27.9693 12.6805 28.086 12.7638C28.211 12.8777 28.9221 13.6277 29.4249 12.9999C29.0193 12.9888 28.2693 12.0499 27.9749 12.3249Z" fill="#9461C9"/>
<path d="M28.9563 13.2639C28.5924 13.2639 28.2424 12.9334 28.1119 12.8028C28.098 12.7917 28.0869 12.7834 28.0813 12.7723C28.0063 12.7167 27.9258 12.5917 27.9174 12.4778C27.9119 12.4139 27.9313 12.3584 27.973 12.3139C28.148 12.15 28.473 12.3889 28.7869 12.625C29.023 12.8 29.2619 12.9806 29.4313 12.9861H29.4619L29.4424 13.0111C29.3174 13.1667 29.1674 13.25 29.0035 13.2667C28.9813 13.2639 28.9674 13.2639 28.9563 13.2639ZM27.9869 12.3361C27.9508 12.3723 27.9369 12.4223 27.9424 12.475C27.9535 12.5806 28.0285 12.7 28.098 12.75C28.1091 12.7611 28.1174 12.7695 28.1341 12.7806C28.2702 12.9111 28.6341 13.2556 28.998 13.2306C29.148 13.2195 29.2841 13.1445 29.398 13.0111C29.223 12.9917 28.9869 12.8167 28.7619 12.6473C28.4563 12.425 28.1452 12.1889 27.9869 12.3361Z" fill="black"/>
<path d="M27.8612 11.9693C27.7362 12.0943 27.8556 12.3249 27.9723 12.4082C28.0973 12.5221 28.8084 13.2721 29.3112 12.6443C28.9112 12.6388 28.1612 11.6943 27.8612 11.9693Z" fill="#9461C9"/>
<path d="M28.8421 12.911C28.4783 12.911 28.1283 12.5805 27.9922 12.4499C27.9783 12.4388 27.9672 12.4305 27.9616 12.4194C27.8866 12.3638 27.806 12.2388 27.7977 12.1249C27.7922 12.061 27.8116 12.0055 27.8533 11.961C28.0283 11.7971 28.3533 12.036 28.6672 12.2721C28.9033 12.4471 29.1421 12.6277 29.3116 12.6332H29.3421L29.3227 12.6582C29.1977 12.8138 29.0477 12.8971 28.8838 12.9138C28.8699 12.911 28.856 12.911 28.8421 12.911ZM27.8699 11.9805C27.8338 12.0166 27.8199 12.0666 27.8255 12.1194C27.8366 12.2249 27.9116 12.3444 27.981 12.3944C27.9922 12.4055 28.0005 12.4138 28.0172 12.4249C28.1533 12.5555 28.5172 12.8999 28.881 12.8749C29.031 12.8638 29.1671 12.7888 29.281 12.6555C29.106 12.636 28.8699 12.461 28.6449 12.2916C28.3449 12.0694 28.031 11.836 27.8699 11.9805Z" fill="black"/>
<path d="M27.6164 11.5638C27.4914 11.6888 27.6109 11.9194 27.7276 12.0027C27.8526 12.1166 28.5637 12.8666 29.0665 12.2388C28.6665 12.2305 27.9164 11.2888 27.6164 11.5638Z" fill="#9461C9"/>
<path d="M28.5955 12.5056C28.2316 12.5056 27.8816 12.175 27.7455 12.0445C27.7316 12.0333 27.7205 12.025 27.715 12.0139C27.64 11.9583 27.5594 11.8333 27.5511 11.7195C27.5455 11.6556 27.565 11.5945 27.6066 11.5556C27.7872 11.3917 28.1066 11.6306 28.4205 11.8667C28.6566 12.0417 28.8955 12.2222 29.065 12.2278H29.0955L29.0761 12.2528C28.9511 12.4083 28.8011 12.4917 28.6372 12.5083C28.6261 12.5056 28.6122 12.5056 28.5955 12.5056ZM27.6261 11.575C27.59 11.6111 27.5761 11.6611 27.5816 11.7139C27.5927 11.8195 27.6677 11.9389 27.7372 11.9889C27.7483 12 27.7566 12.0083 27.7733 12.0195C27.9094 12.15 28.2733 12.4945 28.6372 12.4695C28.7872 12.4583 28.9233 12.3833 29.0372 12.25C28.8622 12.2306 28.6261 12.0556 28.4011 11.8861C28.1011 11.6639 27.7872 11.4306 27.6261 11.575Z" fill="black"/>
<path d="M26.7412 11.1806C26.9967 10.9917 27.4606 10.9362 27.8273 11.1195C28.1328 11.2695 28.6328 11.875 29.0134 12.0139C28.7495 12.0639 28.5828 12.0195 28.4134 11.9389C28.0773 12.1834 27.9578 12.2195 27.6134 12.2695C27.1328 12.3389 26.7384 12.2139 26.5995 11.9639C26.455 11.7306 26.5189 11.3556 26.7412 11.1806Z" fill="#9461C9"/>
<path d="M27.3553 12.3055C26.9914 12.3055 26.6998 12.1861 26.5859 11.975C26.4359 11.7305 26.5053 11.3444 26.7303 11.1694C26.9692 10.9888 27.4414 10.9083 27.8303 11.1083C27.9664 11.1722 28.1414 11.3277 28.3248 11.4944C28.5609 11.7055 28.8053 11.925 29.0137 12.0055L29.0692 12.025L29.0137 12.0361C28.7442 12.0861 28.5775 12.0416 28.4137 11.9666C28.0831 12.2055 27.9581 12.2472 27.6137 12.2916C27.5248 12.3 27.4414 12.3055 27.3553 12.3055ZM26.7498 11.1888C26.5359 11.3583 26.4692 11.725 26.6109 11.9527C26.7498 12.2027 27.1414 12.3166 27.6109 12.2472C27.9553 12.1972 28.072 12.1611 28.4053 11.9222L28.4164 11.9166L28.4275 11.9222C28.5831 11.9972 28.7331 12.0361 28.9636 12.0027C28.7637 11.9083 28.5331 11.7083 28.3137 11.5083C28.1275 11.3444 27.9581 11.1944 27.8275 11.1277C27.4498 10.9444 26.9859 11.0138 26.7498 11.1888Z" fill="black"/>
<path d="M27.5002 11.5609C27.5014 11.4919 27.4042 11.4342 27.283 11.4321C27.1618 11.4299 27.0626 11.4841 27.0614 11.5531C27.0601 11.6221 27.1574 11.6798 27.2785 11.682C27.3997 11.6842 27.4989 11.63 27.5002 11.5609Z" fill="#D41C30"/>
<path d="M27.2863 11.7445C27.2807 11.7445 27.2807 11.7445 27.2752 11.7445C27.114 11.739 26.9946 11.6584 26.9946 11.5501C26.9946 11.4945 27.0307 11.439 27.0946 11.4112C27.1446 11.3806 27.214 11.3667 27.2807 11.3723C27.4418 11.3778 27.5613 11.4584 27.5613 11.5667C27.5613 11.6223 27.5252 11.6778 27.4613 11.7056C27.4168 11.7306 27.3502 11.7445 27.2863 11.7445ZM27.2752 11.489C27.2307 11.489 27.1863 11.5001 27.1557 11.514C27.1307 11.5278 27.1196 11.539 27.1196 11.5501C27.1196 11.5695 27.1807 11.614 27.2752 11.614C27.3196 11.614 27.364 11.6028 27.4002 11.589C27.4252 11.5751 27.4363 11.564 27.4363 11.5528C27.4363 11.5334 27.3752 11.489 27.2807 11.489H27.2752Z" fill="black"/>
<path d="M26.6779 12.2439C26.836 12.185 26.9351 12.0591 26.8992 11.9628C26.8633 11.8665 26.706 11.8362 26.5479 11.8951C26.3898 11.9541 26.2907 12.0799 26.3266 12.1762C26.3625 12.2725 26.5198 12.3028 26.6779 12.2439Z" fill="#FCD116"/>
<path d="M26.5194 12.3362C26.4944 12.3362 26.4694 12.3362 26.4444 12.3307C26.3583 12.3168 26.2944 12.2668 26.2694 12.2001C26.2194 12.0696 26.3333 11.9112 26.5306 11.839C26.6167 11.8085 26.7056 11.8001 26.7861 11.814C26.8722 11.8279 26.9361 11.8779 26.9611 11.9446C27.0111 12.0751 26.8972 12.2334 26.7 12.3057C26.6417 12.3251 26.5806 12.3362 26.5194 12.3362ZM26.7056 11.9251C26.6611 11.9251 26.6167 11.9362 26.5694 11.9501C26.4389 12.0001 26.3639 12.0946 26.3833 12.1501C26.3944 12.1751 26.4222 12.1946 26.4694 12.2001C26.525 12.2112 26.5944 12.2057 26.6556 12.1807C26.7861 12.1307 26.8611 12.0362 26.8417 11.9807C26.8306 11.9557 26.8028 11.9362 26.7556 11.9307C26.7417 11.9307 26.725 11.9251 26.7056 11.9251Z" fill="black"/>
<path d="M27.3489 11.5475C27.3495 11.5091 27.314 11.4774 27.2696 11.4766C27.2251 11.4758 27.1885 11.5062 27.1878 11.5446C27.1871 11.5829 27.2226 11.6147 27.2671 11.6154C27.3116 11.6162 27.3482 11.5858 27.3489 11.5475Z" fill="black"/>
<path d="M26.8 11.7249C26.8194 11.8193 26.7499 11.9554 26.5888 11.9999C26.4277 12.0638 26.3083 12.2138 26.2388 12.461C25.9944 11.8999 26.1499 11.6665 26.4083 11.6054C26.6305 11.536 26.7666 11.5443 26.8 11.7249Z" fill="#FCD116"/>
<path d="M26.2422 12.5139L26.2227 12.4694C26.0922 12.1639 26.0616 11.9333 26.1422 11.7805C26.1922 11.6861 26.281 11.6194 26.4033 11.5916C26.5588 11.5416 26.6588 11.5361 26.7283 11.5777C26.7727 11.6027 26.8033 11.6527 26.8172 11.7222C26.8366 11.8277 26.7616 11.9666 26.5977 12.0166C26.4366 12.0805 26.3283 12.2305 26.2588 12.4666L26.2422 12.5139ZM26.6172 11.5861C26.5672 11.5861 26.4977 11.6 26.4116 11.625C26.2977 11.65 26.2172 11.7055 26.1727 11.7944C26.1033 11.9333 26.1227 12.1389 26.2338 12.4083C26.3033 12.1944 26.4227 12.0472 26.5783 11.9833C26.7227 11.9389 26.7922 11.8194 26.7783 11.7277C26.7672 11.6666 26.7422 11.6277 26.7088 11.6083C26.6866 11.5889 26.656 11.5861 26.6172 11.5861Z" fill="black"/>
</g>
<defs>
<clipPath id="clip0_93_39430">
<rect width="53.3333" height="30" fill="white" transform="translate(0.989258)"/>
</clipPath>
</defs>
</svg>
