<svg width="55" height="30" viewBox="0 0 55 30" fill="none" xmlns="http://www.w3.org/2000/svg">
<g clip-path="url(#clip0_93_11664)">
<path d="M0.99707 0H54.3304V30H0.99707V0Z" fill="#E32118"/>
<path d="M0.99707 0H54.3304V20H0.99707V0Z" fill="white"/>
<path d="M0.99707 0H54.3304V10H0.99707V0Z" fill="#3E9A00"/>
<path d="M0.99707 0V30L16.4137 15L0.99707 0Z" fill="#0073CE"/>
<path d="M25.2639 11.986H30.0528V16.9999C30.0528 18.6888 27.9667 17.3721 27.6611 18.286C27.375 17.3721 25.2806 18.6999 25.2806 16.8971C25.275 15.1499 25.2639 11.986 25.2639 11.986Z" fill="white"/>
<path d="M27.686 18.2973H27.6304C27.5193 17.9362 27.1138 17.9445 26.6416 17.9528C26.2166 17.9612 25.7832 17.9667 25.5082 17.7028C25.3332 17.5306 25.2499 17.2667 25.2499 16.9028C25.2499 15.1751 25.2388 12.0195 25.2388 11.9862L25.2693 11.9556H30.0582L30.0888 11.9862V17.0001C30.0888 17.3334 30.011 17.5695 29.8499 17.7278C29.5832 17.9834 29.1499 17.9723 28.7277 17.9556C28.2527 17.9389 27.811 17.9278 27.686 18.2973ZM26.8471 17.8917C27.211 17.8917 27.5304 17.9278 27.6582 18.2056C27.8277 17.8695 28.261 17.8806 28.7193 17.8945C29.1277 17.9056 29.5527 17.9195 29.7943 17.6806C29.9443 17.5334 30.0166 17.3139 30.0166 16.9973V12.014H25.2943C25.2943 12.3445 25.3054 15.2612 25.3054 16.9001C25.3054 17.2501 25.3832 17.5001 25.5443 17.6584C25.7999 17.9084 26.2221 17.9028 26.636 17.8945C26.7082 17.8917 26.7777 17.8917 26.8471 17.8917Z" fill="black"/>
<path d="M28.0026 17.486C28.0026 17.486 27.9387 17.5499 27.8276 17.4972C27.7165 17.4472 27.7026 14.2833 27.7026 14.2833C27.9526 14.0083 28.1526 13.9194 28.1526 13.9194L28.3026 14.0444C27.7387 14.3333 27.7887 14.7444 27.8415 15.4583C27.8526 15.7222 27.8526 16.0583 27.9165 16.3833C28.0026 16.7972 28.1776 17.1444 28.1915 17.4083C28.1999 17.5749 28.0026 17.486 28.0026 17.486Z" fill="#73452B"/>
<path d="M27.9112 17.5277C27.8862 17.5277 27.8584 17.5249 27.825 17.5082C27.7139 17.4582 27.6973 14.6138 27.6973 14.2915V14.2888C27.9445 14.0138 28.1473 13.9249 28.15 13.9249H28.1528L28.3056 14.0527V14.0638C27.7667 14.3415 27.7945 14.7388 27.8417 15.3999L27.8445 15.4721C27.8473 15.5249 27.8473 15.5777 27.8528 15.6332C27.8612 15.8693 27.8723 16.136 27.9195 16.3943C27.9584 16.5777 28.0167 16.7554 28.0667 16.9082C28.1306 17.1082 28.1862 17.2749 28.1945 17.4221C28.1973 17.4638 28.1862 17.4943 28.1639 17.511C28.1139 17.5443 28.0223 17.511 28.0028 17.5027C27.9945 17.4999 27.9612 17.5277 27.9112 17.5277ZM27.7084 14.2915C27.7112 15.5638 27.75 17.461 27.8278 17.4971C27.9362 17.5471 27.9917 17.4888 27.9973 17.486L28 17.4832H28.0028C28.0028 17.4832 28.1084 17.5277 28.1556 17.4943C28.1751 17.4804 28.1862 17.4527 28.1806 17.4165C28.1723 17.2693 28.1167 17.1027 28.0528 16.9054C28 16.7527 27.9445 16.5749 27.9056 16.3915C27.8556 16.1277 27.8445 15.8638 27.8389 15.6277C27.8362 15.5721 27.8362 15.5193 27.8306 15.4665L27.8278 15.3943C27.7778 14.7304 27.7528 14.3332 28.2889 14.0527L28.15 13.936C28.1223 13.9471 27.9334 14.0388 27.7084 14.2915Z" fill="black"/>
<path d="M27.6141 13.8501H27.839C27.6502 15.6612 27.8141 16.7389 27.8141 17.2612C27.8141 17.4362 27.914 17.4973 27.9002 17.4973C27.6752 17.7473 27.5613 17.4862 27.5613 17.4862L27.6141 13.8501Z" fill="#73452B"/>
<path d="M27.719 17.6137C27.7106 17.6137 27.7051 17.6137 27.6967 17.6137C27.6079 17.5998 27.5606 17.497 27.5579 17.4887L27.6079 13.8526L27.6162 13.8443H27.8412L27.8495 13.8526C27.7079 15.2165 27.7634 16.1554 27.7995 16.7748C27.8106 16.9776 27.8217 17.1387 27.8217 17.2665C27.8217 17.4026 27.8829 17.4693 27.8995 17.4915C27.9079 17.4998 27.9106 17.5026 27.9078 17.5054V17.5082H27.9051C27.8384 17.5748 27.7745 17.6137 27.719 17.6137ZM27.569 17.4859C27.5717 17.497 27.619 17.5859 27.6967 17.597C27.7579 17.6082 27.8217 17.5748 27.8912 17.497L27.8884 17.4943C27.869 17.472 27.8051 17.3998 27.8051 17.2609C27.8051 17.1332 27.794 16.972 27.7829 16.7693C27.7467 16.1498 27.6884 15.2165 27.8273 13.8554H27.6134L27.569 17.4859Z" fill="black"/>
<path d="M27.2692 17.4861C27.0553 17.5861 27.0248 17.3889 27.0415 17.3611C27.5026 16.4223 27.7054 14.3611 27.2776 14.1361L27.3026 13.9361C27.4637 13.9861 27.6137 14.2 27.6137 14.2C27.6776 16.5139 27.6137 17.4584 27.5776 17.4973C27.3526 17.7334 27.2665 17.4667 27.2553 17.4417" fill="#A36629"/>
<path d="M27.4084 17.6C27.4 17.6 27.3945 17.6 27.3862 17.5972C27.325 17.5861 27.2889 17.5333 27.2695 17.4917C27.1612 17.5417 27.1056 17.5139 27.0695 17.4833C27.0278 17.4417 27.0195 17.375 27.0306 17.3583C27.2473 16.9195 27.425 16.1833 27.4806 15.4806C27.5417 14.7556 27.4584 14.2445 27.2695 14.1417L27.2667 14.1389L27.2917 13.9361L27.3 13.9333C27.4612 13.9833 27.6112 14.1889 27.6139 14.2V14.2028C27.675 16.4445 27.6167 17.4611 27.5723 17.5028C27.5167 17.5639 27.4612 17.6 27.4084 17.6ZM27.2584 17.4389C27.2584 17.4417 27.2612 17.4417 27.2612 17.45C27.2723 17.4806 27.3139 17.575 27.3889 17.5889C27.4417 17.6 27.5 17.5667 27.5723 17.4945C27.6028 17.4639 27.6723 16.5917 27.6084 14.2056C27.5945 14.1861 27.4556 14 27.3084 13.95L27.2862 14.1389C27.4806 14.2472 27.5612 14.75 27.5 15.4889C27.4389 16.1945 27.2639 16.9333 27.0473 17.3722C27.0445 17.3833 27.0473 17.4445 27.0862 17.4806C27.1278 17.5222 27.1862 17.5222 27.2695 17.4889C27.2667 17.4778 27.2584 17.4667 27.2584 17.4583C27.2584 17.4556 27.2556 17.45 27.2556 17.45L27.2584 17.4389Z" fill="black"/>
<path d="M27.2474 17.4442C27.2335 17.3608 27.2862 17.2275 27.3474 17.058C27.4418 16.8192 27.5585 16.5136 27.5418 16.2025H27.5529C27.5668 16.5219 27.4529 16.8219 27.3585 17.0664C27.2946 17.2358 27.2418 17.3664 27.2585 17.4497L27.2474 17.4442Z" fill="black"/>
<path d="M28.0084 17.486H27.9973C28.0195 17.236 27.9778 16.9638 27.8584 16.6388L27.8695 16.636C27.9862 16.9638 28.0306 17.236 28.0084 17.486Z" fill="black"/>
<path d="M28.3499 13.0001C28.4249 12.914 28.4249 12.914 28.5638 12.914C28.5888 12.7251 28.8999 12.7251 28.9277 12.964C29.1777 12.914 29.2277 13.064 29.1277 13.214C29.3638 13.1501 29.5777 13.214 29.5138 13.489C29.9388 13.6001 29.7777 13.9001 29.5888 13.964C29.5638 14.1529 29.3888 14.214 29.1499 14.139C28.8499 14.3529 28.6749 14.2779 28.5388 14.064C28.2027 14.114 28.1749 14.039 28.0249 13.8501C27.761 13.9612 27.7138 13.9612 27.4888 13.8251C27.4777 14.0001 27.4138 13.9501 27.2999 13.9362C27.311 14.1612 27.2249 14.2612 27.0249 14.1862C27.1749 14.4973 26.7888 14.6362 26.5999 14.3751C26.4249 14.3862 26.411 14.339 26.3249 14.2751C26.2499 14.5251 25.9749 14.489 25.9249 14.3501C25.5749 14.3001 25.6138 14.114 25.8999 14.1001C25.9249 13.9001 26.0999 13.939 26.211 13.9612C26.2221 13.8362 26.2971 13.8612 26.361 13.8862C26.3249 13.8001 26.3499 13.7473 26.461 13.7251C26.2999 13.5112 26.3971 13.4362 26.561 13.3612C26.4749 13.1612 26.6249 13.1723 26.736 13.1612C26.7249 12.9473 26.786 12.9112 27.011 12.8862C26.986 12.8112 27.0221 12.7473 27.1499 12.7473C27.0749 12.5334 27.1749 12.4834 27.3999 12.5223C27.436 12.214 28.0999 12.3612 28.0499 12.7862C28.2388 12.814 28.3027 12.8501 28.3499 13.0001Z" fill="#009A3B"/>
<path d="M26.8502 14.5197C26.7641 14.5197 26.6697 14.478 26.6002 14.3808C26.4613 14.3919 26.4252 14.3586 26.3725 14.3141C26.3613 14.303 26.3502 14.2947 26.3363 14.2836C26.2975 14.3919 26.2197 14.4586 26.1197 14.4641C26.0336 14.4669 25.9586 14.4224 25.928 14.3558C25.7363 14.3308 25.6724 14.2613 25.6724 14.2086C25.6752 14.1447 25.7669 14.1002 25.9002 14.0919C25.9086 14.0308 25.9308 13.9919 25.9669 13.9641C26.0336 13.9141 26.1391 13.9391 26.2113 13.953C26.2141 13.9086 26.2308 13.8808 26.253 13.8669C26.2836 13.8475 26.3197 13.8586 26.353 13.8752C26.3391 13.8363 26.3391 13.8086 26.3502 13.7808C26.3641 13.7502 26.4002 13.7308 26.4502 13.7169C26.3863 13.6308 26.3613 13.5641 26.3752 13.5058C26.3891 13.4419 26.453 13.4002 26.5502 13.353C26.5252 13.2891 26.5197 13.2419 26.5391 13.2113C26.5641 13.1669 26.6336 13.1613 26.6975 13.1558C26.7086 13.1558 26.7197 13.1558 26.728 13.153C26.7169 12.9419 26.7808 12.903 27.003 12.878C26.9919 12.8447 26.9947 12.8141 27.0141 12.7891C27.0363 12.7586 27.078 12.7391 27.1419 12.7391C27.1113 12.6502 27.1113 12.5891 27.1447 12.5475C27.1808 12.503 27.2613 12.4919 27.3947 12.5086C27.4141 12.3919 27.5225 12.328 27.6752 12.3475C27.8808 12.3725 28.0808 12.5391 28.0586 12.7725C28.2308 12.7947 28.303 12.8336 28.3558 12.978C28.4225 12.9002 28.4308 12.8947 28.5613 12.8947C28.5752 12.8002 28.6586 12.7586 28.7336 12.7586C28.7336 12.7586 28.7336 12.7586 28.7363 12.7586C28.8225 12.7586 28.9197 12.8197 28.9363 12.9419C29.0502 12.9197 29.128 12.9391 29.1641 12.9947C29.1975 13.0447 29.1891 13.1141 29.1419 13.1891C29.2891 13.1558 29.4113 13.1697 29.4752 13.2336C29.528 13.2863 29.5475 13.3641 29.5197 13.4697C29.7475 13.5336 29.7863 13.6419 29.7863 13.7058C29.7891 13.8169 29.6919 13.9197 29.5919 13.953C29.5808 14.028 29.5475 14.0836 29.4919 14.1169C29.4141 14.1697 29.2891 14.1725 29.1502 14.128C29.0086 14.228 28.8836 14.2697 28.778 14.2475C28.6891 14.228 28.6058 14.1641 28.5308 14.053C28.2197 14.0975 28.1697 14.0336 28.0502 13.8808C28.0391 13.8697 28.0308 13.8558 28.0197 13.8391C27.7613 13.953 27.7058 13.9475 27.4919 13.8169C27.4891 13.878 27.4725 13.9113 27.4558 13.928C27.4308 13.9475 27.4002 13.9391 27.3558 13.9308C27.3419 13.928 27.3252 13.9225 27.3058 13.9225C27.3141 14.0475 27.2863 14.128 27.2308 14.1697C27.1863 14.203 27.1197 14.2086 27.0363 14.178C27.1002 14.3252 27.0447 14.4224 26.9697 14.4669C26.9363 14.5086 26.8947 14.5197 26.8502 14.5197ZM26.603 14.3697C26.703 14.5113 26.8641 14.5336 26.9641 14.478C27.0363 14.4363 27.0891 14.3363 27.0197 14.1891L27.028 14.1808C27.1141 14.2141 27.1808 14.2141 27.228 14.1808C27.2808 14.1419 27.303 14.0613 27.2947 13.9363L27.303 13.928C27.3225 13.9308 27.3419 13.9363 27.3586 13.9363C27.4002 13.9447 27.4308 13.9475 27.4475 13.9336C27.4669 13.9197 27.478 13.8808 27.4808 13.8197L27.4919 13.8169C27.7141 13.953 27.7613 13.953 28.0252 13.8419H28.028L28.0308 13.8447C28.0419 13.8586 28.053 13.8752 28.0641 13.8891C28.1836 14.0419 28.228 14.1002 28.5363 14.053H28.5391L28.5419 14.0558C28.6169 14.1669 28.6947 14.2308 28.7808 14.2502C28.8808 14.2697 29.003 14.2308 29.1447 14.1308H29.1475H29.1502C29.2891 14.1752 29.4058 14.1725 29.4836 14.1225C29.5363 14.0891 29.5697 14.0336 29.5808 13.9613V13.9586H29.5836C29.678 13.928 29.7752 13.828 29.7725 13.7197C29.7697 13.6197 29.6752 13.5391 29.5086 13.4947L29.5058 13.4863C29.528 13.3808 29.5141 13.3058 29.4641 13.2586C29.4002 13.1947 29.2752 13.1836 29.1252 13.2225L29.1169 13.2113C29.1669 13.1363 29.178 13.0613 29.1475 13.0169C29.1141 12.9641 29.0363 12.9502 28.9252 12.9725L28.9169 12.9697C28.9058 12.8447 28.8113 12.7891 28.728 12.7891C28.728 12.7891 28.728 12.7891 28.7252 12.7891C28.653 12.7891 28.5752 12.8308 28.5641 12.9197V12.9225H28.553C28.4169 12.9225 28.4169 12.9225 28.3475 13.0086L28.3363 13.0058C28.2863 12.8641 28.2363 12.8225 28.0391 12.7947L28.0363 12.7863C28.0669 12.5308 27.8363 12.3891 27.6641 12.3697C27.553 12.3558 27.4141 12.3891 27.3975 12.528L27.3891 12.5308C27.2586 12.5086 27.178 12.5197 27.1447 12.5613C27.1141 12.6002 27.1141 12.6586 27.1475 12.7502L27.1391 12.7586C27.078 12.7586 27.0336 12.7725 27.0141 12.803C27.0002 12.8252 26.9947 12.8558 27.0058 12.8891L27.003 12.8975C26.7808 12.9225 26.7225 12.9586 26.7336 13.1669L26.7308 13.1752C26.7197 13.1752 26.7058 13.178 26.6947 13.178C26.6336 13.1808 26.5697 13.1891 26.5447 13.228C26.5252 13.2586 26.5336 13.303 26.5586 13.3669L26.5558 13.3752C26.4586 13.4197 26.3947 13.4613 26.3808 13.5225C26.3669 13.5752 26.3919 13.6419 26.4586 13.728L26.4558 13.7391C26.4002 13.7502 26.3669 13.7697 26.3502 13.8002C26.3391 13.8225 26.3419 13.8558 26.3586 13.8975L26.3502 13.9058C26.3113 13.8919 26.2725 13.8752 26.2447 13.8947C26.2252 13.9058 26.2141 13.9363 26.2086 13.978L26.2002 13.9808C26.128 13.9669 26.0252 13.9419 25.9613 13.9891C25.928 14.0113 25.9058 14.0558 25.8975 14.1141V14.1169H25.8947C25.7447 14.1252 25.678 14.178 25.6724 14.2225C25.6697 14.2669 25.7336 14.3308 25.9197 14.3586H25.9224V14.3613C25.9447 14.4252 26.0169 14.4669 26.0947 14.4669C26.0975 14.4669 26.0974 14.4669 26.103 14.4669C26.2002 14.4641 26.278 14.3947 26.3141 14.2863L26.3252 14.2836C26.3447 14.2947 26.3586 14.3086 26.3697 14.3197C26.4308 14.3502 26.4641 14.378 26.603 14.3697Z" fill="black"/>
<path d="M27.3719 13.1499H27.3608C27.3608 13.0415 27.3219 12.9582 27.2664 12.9443C27.2247 12.9332 27.183 12.9637 27.1469 13.0304L27.1358 13.0276C27.1275 12.9276 27.0914 12.9193 27.0525 12.9082C27.0414 12.9054 27.0275 12.8999 27.0164 12.8971L27.0191 12.886C27.0302 12.8887 27.0414 12.8943 27.0525 12.8971C27.0914 12.9082 27.1302 12.9165 27.1414 13.011C27.1941 12.9332 27.2414 12.9276 27.2664 12.936C27.3302 12.9499 27.3719 13.036 27.3719 13.1499Z" fill="black"/>
<path d="M27.8335 13.064C27.8002 13.014 27.7446 12.9862 27.6919 12.989C27.6669 12.989 27.6307 13.0001 27.6085 13.0417L27.5974 13.0334C27.6169 13.0001 27.6502 12.9779 27.6919 12.9779C27.7419 12.9751 27.7974 13.0001 27.8335 13.0417C27.8252 12.9167 27.9085 12.8723 27.9724 12.839C28.003 12.8195 28.0335 12.8056 28.0502 12.7834L28.0613 12.7917C28.0419 12.8167 28.0113 12.8334 27.978 12.8529C27.9113 12.8917 27.8307 12.9306 27.8474 13.064H27.8335Z" fill="black"/>
<path d="M28.2943 13.2778L28.2832 13.2694C28.3277 13.1972 28.3443 13.0556 28.3443 13H28.3554C28.3582 13.0472 28.3471 13.2 28.2943 13.2778Z" fill="black"/>
<path d="M28.8667 13.2777L28.8584 13.2666C28.9195 13.225 29.0223 13.2139 29.0834 13.2111C29.1028 13.2111 29.1195 13.2083 29.1195 13.2083C29.1195 13.2083 29.1195 13.2083 29.1167 13.2111H29.1195L29.1223 13.2083L29.125 13.2166C29.1223 13.225 29.1139 13.225 29.075 13.2277C29.0278 13.2305 28.9251 13.2361 28.8667 13.2777Z" fill="black"/>
<path d="M29.3695 13.9804L29.3583 13.9776C29.3583 13.9276 29.3583 13.797 29.2278 13.797V13.7859C29.3556 13.7859 29.3695 13.9026 29.3695 13.9609C29.4417 13.8831 29.5306 13.9276 29.5806 13.9526C29.5834 13.9554 29.5889 13.9554 29.5917 13.9609L29.5889 13.972C29.5861 13.972 29.5806 13.9692 29.5778 13.9637C29.525 13.9359 29.4333 13.8887 29.3695 13.9804Z" fill="black"/>
<path d="M29.1553 14.1389H29.1442C29.1442 14.0139 29.122 13.9806 29.0942 13.9445L29.1054 13.9361C29.1304 13.9723 29.1553 14.0111 29.1553 14.1389Z" fill="black"/>
<path d="M28.5443 14.0638H28.5332C28.5332 14.0249 28.5665 13.9694 28.6165 13.9471C28.6582 13.9249 28.7027 13.9333 28.7443 13.961L28.736 13.9721C28.6915 13.9388 28.6499 13.9471 28.6249 13.961C28.5749 13.9805 28.5443 14.0277 28.5443 14.0638Z" fill="black"/>
<path d="M28.0192 13.8498H28.0081C28.0081 13.8387 28.0081 13.8276 28.0053 13.811C27.997 13.7582 27.9914 13.686 28.0608 13.6526L28.0636 13.6637C27.9997 13.6887 28.0081 13.7582 28.0136 13.8054C28.0192 13.8248 28.0192 13.836 28.0192 13.8498Z" fill="black"/>
<path d="M26.594 14.3774L26.5829 14.3747C26.5968 14.308 26.6273 14.2747 26.6551 14.2497C26.6773 14.2302 26.6885 14.2163 26.6857 14.1886C26.6773 14.1358 26.6496 14.0941 26.6023 14.0802C26.5496 14.0608 26.4885 14.083 26.4329 14.1441L26.4246 14.1358C26.4885 14.0719 26.5523 14.0497 26.6079 14.0691C26.6579 14.083 26.6912 14.133 26.6968 14.1886C26.7051 14.2191 26.6857 14.2386 26.6635 14.2608C26.6357 14.2802 26.6051 14.3108 26.594 14.3774Z" fill="black"/>
<path d="M26.8585 14.2167C26.8363 14.1778 26.7613 14.1722 26.6891 14.1945L26.6863 14.1833C26.7613 14.1583 26.8391 14.1695 26.8696 14.2083L26.8585 14.2167Z" fill="black"/>
<path d="M26.722 13.7277C26.647 13.6888 26.522 13.6777 26.4776 13.7277L26.4692 13.7194C26.522 13.6666 26.6442 13.6777 26.7276 13.7194L26.722 13.7277Z" fill="black"/>
<path d="M26.9445 13.5141H26.9333C26.9028 13.4252 26.8222 13.428 26.7583 13.4308C26.7472 13.4308 26.7361 13.4308 26.7278 13.4308V13.4196C26.7361 13.4196 26.7472 13.4196 26.7583 13.4196C26.8195 13.4169 26.9056 13.4113 26.9417 13.503C27.0389 13.3558 27.1139 13.3391 27.1472 13.3391C27.1722 13.3391 27.1972 13.353 27.2083 13.378L27.1972 13.3808C27.1889 13.3613 27.1722 13.3502 27.1472 13.3502C27.1139 13.3474 27.0417 13.3641 26.9445 13.5141Z" fill="black"/>
<path d="M27.8221 13.5892C27.7165 13.4086 27.5443 13.3197 27.4554 13.3531L27.4526 13.342C27.5582 13.3003 27.7304 13.4086 27.8276 13.5697C27.8693 13.4642 27.9276 13.4614 27.986 13.4586C27.9998 13.4586 28.011 13.4559 28.0276 13.4559L28.0304 13.467C28.0165 13.4697 27.9998 13.4697 27.9887 13.4697C27.9276 13.4725 27.8776 13.4781 27.836 13.5864L27.8221 13.5892Z" fill="black"/>
<path d="M28.808 13.7278C28.8052 13.725 28.7997 13.7167 28.7969 13.7139C28.7441 13.6472 28.6497 13.525 28.5052 13.5945L28.5024 13.5833C28.6608 13.5111 28.758 13.6389 28.8108 13.7083C28.8136 13.7111 28.8136 13.7111 28.8191 13.7167C28.8941 13.6195 28.958 13.6195 29.033 13.6195V13.6306C28.958 13.6306 28.8969 13.6306 28.8274 13.7278H28.808Z" fill="black"/>
<path d="M26.9913 13.8889L26.9802 13.8806C26.9997 13.85 27.0302 13.8278 27.0691 13.8195C27.1024 13.8112 27.1358 13.8195 27.1663 13.8334C27.1636 13.7778 27.1802 13.7334 27.2163 13.7084C27.2386 13.6945 27.2691 13.6889 27.2913 13.7L27.2886 13.7112C27.2691 13.7 27.2469 13.7028 27.2274 13.7195C27.1941 13.7417 27.1774 13.7862 27.1858 13.8445L27.1747 13.8528C27.1441 13.8334 27.1108 13.8306 27.0774 13.8334C27.0413 13.8445 27.0108 13.8639 26.9913 13.8889Z" fill="black"/>
<path d="M27.4833 11.2835L27.2083 11.2946L27.0694 11.5418L26.9194 11.3057L26.6444 11.3168L26.7694 11.0696L26.6194 10.8335L26.9083 10.8223L27.0333 10.5751L27.1833 10.8112L27.4583 10.8001L27.3333 11.0473L27.4833 11.2835Z" fill="#FFD700"/>
<path d="M27.0524 11.5528L26.9108 11.3278L26.6469 11.3389L26.6274 11.3083L26.7469 11.0722L26.6052 10.8472L26.6247 10.8139L26.8997 10.8028L27.0191 10.5667H27.0552L27.1969 10.7917L27.458 10.7805L27.4774 10.8111L27.358 11.0472L27.4997 11.2722L27.4802 11.3055L27.2163 11.3166L27.0858 11.5528H27.0524ZM26.933 11.2833L27.0719 11.4972L27.1969 11.2722L27.4441 11.2611L27.308 11.0472L27.4191 10.8222L27.1691 10.8333L27.033 10.6194L26.9219 10.8444L26.658 10.8555L26.7941 11.0694L26.683 11.2944L26.933 11.2833Z" fill="black"/>
<path d="M26.3052 11.3753L26.0302 11.442L25.9552 11.7087L25.7552 11.5087L25.4913 11.5725L25.5663 11.3059L25.3774 11.1031L25.6386 11.0364L25.7136 10.7698L25.9136 10.9698L26.1886 10.9059L26.1024 11.1725L26.3052 11.3753Z" fill="#FFD700"/>
<path d="M25.9417 11.7222L25.75 11.5306L25.5 11.5944L25.475 11.5694L25.5473 11.3139L25.3667 11.1194L25.3778 11.0806L25.6278 11.0167L25.7 10.7611L25.7361 10.75L25.9278 10.9417L26.1917 10.8778L26.2167 10.9028L26.1334 11.1583L26.325 11.35L26.3139 11.3889L26.05 11.4528L25.9778 11.7083L25.9417 11.7222ZM25.7667 11.4833L25.95 11.6667L26.0167 11.4222L26.2667 11.3611L26.0834 11.1778L26.1611 10.9333L25.9139 10.9944L25.7306 10.8111L25.6639 11.0556L25.425 11.1167L25.5973 11.3L25.5306 11.5389L25.7667 11.4833Z" fill="black"/>
<path d="M25.1693 11.6055L24.9193 11.7305L24.9082 12.0083L24.672 11.8555L24.422 11.9805L24.447 11.7027L24.2109 11.5499L24.4609 11.4249L24.4859 11.1471L24.7109 11.2999L24.9609 11.1749L24.9498 11.4527L25.1693 11.6055Z" fill="#FFD700"/>
<path d="M24.8973 12.025L24.6695 11.8778L24.4306 11.9944L24.4 11.9722L24.4223 11.7083L24.1973 11.5611L24.2 11.5222L24.4389 11.4028L24.4612 11.1361L24.4945 11.1222L24.7084 11.2694L24.9473 11.1528L24.9778 11.175L24.9667 11.4417L25.1806 11.5889L25.1778 11.6278L24.9389 11.7444L24.9278 12.0111L24.8973 12.025ZM24.6723 11.8305L24.8889 11.9694L24.9 11.7194L25.1278 11.6083L24.925 11.4667L24.9362 11.2167L24.7084 11.3305L24.5028 11.1917L24.4806 11.4417L24.2556 11.5528L24.4723 11.6917L24.45 11.9417L24.6723 11.8305Z" fill="black"/>
<path d="M27.8442 11.2835L28.1192 11.2946L28.2442 11.5418L28.3942 11.3057L28.6692 11.3168L28.5442 11.0696L28.6942 10.8335L28.4192 10.8223L28.2803 10.5751L28.1303 10.8112L27.8553 10.8001L27.9803 11.0473L27.8442 11.2835Z" fill="#FFD700"/>
<path d="M28.2638 11.5528H28.2277L28.1083 11.3166L27.8444 11.3055L27.825 11.2722L27.9555 11.0472L27.8361 10.8111L27.8555 10.7805L28.1194 10.7917L28.2611 10.5667H28.2972L28.4277 10.8028L28.6888 10.8139L28.7083 10.8472L28.5666 11.0722L28.6861 11.3083L28.6666 11.3389L28.4027 11.3278L28.2638 11.5528ZM27.8805 11.2611L28.1305 11.2722L28.2416 11.4972L28.3777 11.2833L28.6277 11.2944L28.5166 11.0694L28.6527 10.8555L28.4055 10.8444L28.2805 10.6194L28.1416 10.8333L27.8916 10.8222L28.0027 11.0472L27.8805 11.2611Z" fill="black"/>
<path d="M29.0217 11.3753L29.2856 11.442L29.3606 11.7087L29.5606 11.5087L29.8217 11.5725L29.7467 11.3059L29.9467 11.1031L29.6717 11.0364L29.5967 10.7698L29.3967 10.9698L29.1356 10.9059L29.2106 11.1725L29.0217 11.3753Z" fill="#FFD700"/>
<path d="M29.3748 11.7222L29.3387 11.7111L29.2665 11.4556L29.0165 11.3917L29.0054 11.3528L29.1859 11.1611L29.1137 10.9056L29.1387 10.8806L29.3887 10.9445L29.5804 10.7528L29.6165 10.7639L29.6887 11.0195L29.9526 11.0833L29.9637 11.1222L29.7721 11.3167L29.8443 11.5722L29.8193 11.5972L29.5693 11.5333L29.3748 11.7222ZM29.0637 11.3611L29.3026 11.4222L29.3693 11.6667L29.5526 11.4833L29.7887 11.5445L29.722 11.3L29.9026 11.1167L29.6526 11.0556L29.5859 10.8111L29.4026 10.9945L29.1665 10.9333L29.2332 11.1778L29.0637 11.3611Z" fill="black"/>
<path d="M30.1467 11.6055L30.3967 11.7305L30.4078 12.0083L30.644 11.8555L30.894 11.9805L30.8828 11.7027L31.1078 11.5499L30.8578 11.4249L30.8467 11.1471L30.6106 11.2999L30.3606 11.1749L30.3856 11.4527L30.1467 11.6055Z" fill="#FFD700"/>
<path d="M30.4192 12.0252L30.3858 12.0057L30.3747 11.7391L30.1358 11.6224L30.1331 11.5835L30.3581 11.4363L30.3358 11.1696L30.3664 11.1474L30.6053 11.2641L30.8331 11.1168L30.8664 11.1363L30.8775 11.4029L31.1164 11.5224L31.1192 11.5613L30.9053 11.7085L30.9164 11.9752L30.8858 11.9974L30.6469 11.8807L30.4192 12.0252ZM30.1914 11.6057L30.4192 11.7168L30.4303 11.9668L30.6469 11.8279L30.8747 11.9418L30.8636 11.6918L31.0664 11.5529L30.8386 11.4418L30.8275 11.1918L30.6108 11.3307L30.3858 11.2196L30.4081 11.4696L30.1914 11.6057Z" fill="black"/>
<path d="M28.5081 18.2141L28.5331 18.6641C28.5331 18.6641 28.6581 18.6641 28.7692 18.628C28.8692 18.5891 28.9581 18.5141 28.9581 18.5141L28.947 18.278L28.5081 18.2141Z" fill="white"/>
<path d="M28.5306 18.6861L28.5084 18.6639L28.4834 18.2139L28.5084 18.1917L28.9612 18.2556L28.9751 18.5222L28.9667 18.5306C28.9639 18.5333 28.8778 18.6083 28.7723 18.6472C28.6612 18.6833 28.539 18.6861 28.5306 18.6861ZM28.5306 18.2361L28.5528 18.6389C28.5945 18.6389 28.6806 18.6306 28.7639 18.6C28.8417 18.5695 28.9139 18.5167 28.9362 18.5L28.9251 18.2889L28.5306 18.2361Z" fill="black"/>
<path d="M26.8302 18.2141L26.8052 18.653C26.8052 18.653 26.6941 18.653 26.5802 18.628C26.4802 18.603 26.3914 18.5419 26.3914 18.5419L26.2664 18.2419L26.8302 18.2141Z" fill="white"/>
<path d="M26.8052 18.6722C26.8024 18.6722 26.6886 18.6722 26.5774 18.6472C26.4719 18.6222 26.3858 18.5583 26.383 18.5583L26.3802 18.5556L26.2524 18.2472L26.2719 18.2167L26.8358 18.1917L26.858 18.2139L26.833 18.6528L26.8052 18.6722ZM26.4108 18.5222C26.4302 18.5333 26.5052 18.5833 26.5858 18.6056C26.6636 18.625 26.7469 18.6278 26.7858 18.6278L26.808 18.2333L26.3024 18.2556L26.4108 18.5222Z" fill="black"/>
<path d="M24.8106 16.9L24.4967 17.35L24.1467 16.7778L24.4106 16.5028L24.8106 16.9Z" fill="white"/>
<path d="M24.4943 17.3747C24.486 17.3747 24.4804 17.3719 24.4749 17.3636L24.1249 16.7886C24.1221 16.7802 24.1221 16.7691 24.1276 16.7636L24.3915 16.4886C24.3943 16.4858 24.4027 16.4802 24.4054 16.4802C24.4082 16.4802 24.4165 16.483 24.4193 16.4886L24.8249 16.8886C24.8332 16.8969 24.8332 16.908 24.8277 16.9136L24.5138 17.3636C24.5054 17.3691 24.5027 17.3747 24.4943 17.3747ZM24.1721 16.7775L24.4943 17.3108L24.7804 16.9025L24.4054 16.5302L24.1721 16.7775Z" fill="black"/>
<path d="M26.3804 19.114C26.3804 19.539 28.9554 19.539 28.9554 19.114V18.514C28.9554 18.8251 26.3804 18.764 26.3804 18.514V19.114Z" fill="white"/>
<path d="M27.6667 19.4559C27.3306 19.4559 27.0112 19.4253 26.7778 19.3781C26.5001 19.317 26.3584 19.2281 26.3584 19.1198V18.5198H26.4028C26.4028 18.5281 26.414 18.5948 26.8278 18.6559C27.0862 18.692 27.4306 18.7114 27.7778 18.7114C28.5723 18.7114 28.9362 18.6142 28.9362 18.5198H28.9806V19.1198C28.9806 19.3809 28.1556 19.4559 27.6667 19.4559ZM26.4028 18.5781V19.1114C26.4028 19.2809 26.9473 19.4087 27.6695 19.4087C28.389 19.4087 28.9362 19.2809 28.9362 19.1114V18.5864C28.7473 18.7336 28.0223 18.7448 27.7778 18.7448C27.4334 18.7448 27.0834 18.7253 26.8251 18.6892C26.5695 18.6559 26.4556 18.6142 26.4028 18.5781Z" fill="black"/>
<path d="M24.083 17.725C24.308 18.875 26.383 18.9 26.383 18.9V18.5138C26.333 18.3638 26.4219 18.3138 26.758 18.2638C26.8969 18.2527 26.833 18.05 26.833 18.05C26.833 18.05 25.933 18.2111 25.2969 17.9638C24.4358 17.6138 24.3108 16.9388 24.3108 16.9388C24.3108 16.9388 24.2441 17.4638 24.083 17.725Z" fill="white"/>
<path d="M26.3801 18.9222C26.3579 18.9222 24.2829 18.8833 24.0579 17.7305V17.7222L24.0606 17.7139C24.219 17.4583 24.2829 16.9417 24.2829 16.9333H24.3273C24.3273 16.9417 24.4634 17.6 25.3023 17.9417C25.9245 18.1861 26.8162 18.0278 26.8273 18.0278L26.8523 18.0417C26.8523 18.0444 26.8912 18.1667 26.844 18.2361C26.8245 18.2667 26.794 18.2805 26.7579 18.2861C26.569 18.3111 26.4356 18.3472 26.4023 18.4028C26.3884 18.4278 26.3884 18.4583 26.4023 18.5083V18.5167V18.9L26.3801 18.9222ZM24.1051 17.7305C24.319 18.7805 26.1384 18.8694 26.3579 18.8778V18.5167C26.3384 18.4555 26.3384 18.4167 26.3606 18.3778C26.4023 18.3139 26.5023 18.2778 26.7495 18.2389C26.7745 18.2361 26.7912 18.2278 26.8023 18.2083C26.8245 18.1722 26.8162 18.1083 26.8106 18.0694C26.6745 18.0917 25.8662 18.2055 25.2801 17.975C24.6134 17.7055 24.3801 17.2361 24.3079 17.0333C24.2884 17.2055 24.2245 17.5305 24.1051 17.7305Z" fill="black"/>
<path d="M31.2445 17.725C31.0306 18.875 28.9556 18.9 28.9556 18.9V18.5138C28.9917 18.3638 28.9056 18.3138 28.5695 18.2638C28.4306 18.2527 28.5056 18.05 28.5056 18.05C28.5056 18.05 29.4056 18.2111 30.0417 17.9638C30.8917 17.6138 30.9917 16.9388 30.9917 16.9388C30.9917 16.9388 31.0806 17.4638 31.2445 17.725Z" fill="white"/>
<path d="M28.9581 18.922L28.9359 18.8998V18.5054C28.947 18.4554 28.947 18.4276 28.9276 18.3998C28.8859 18.3387 28.7553 18.3109 28.5637 18.2831C28.5248 18.2804 28.4998 18.2637 28.4803 18.2331C28.4359 18.1609 28.4803 18.0415 28.4831 18.0387L28.4915 18.0192L28.5109 18.022C28.5192 18.022 29.4109 18.1804 30.0359 17.9359C30.8637 17.5943 30.9692 16.9359 30.9748 16.9276H31.0192C31.0192 16.9304 31.1081 17.4526 31.2664 17.7081L31.2692 17.7165V17.7248C31.0526 18.8859 28.9776 18.922 28.9581 18.922ZM28.9803 18.5137V18.8776C29.2026 18.8692 31.0192 18.7776 31.222 17.7304C31.1026 17.5304 31.022 17.2026 30.9942 17.0415C30.9303 17.2443 30.7137 17.7165 30.0553 17.9859C29.4692 18.2137 28.6553 18.0998 28.5248 18.0804C28.5137 18.1192 28.5026 18.1859 28.5248 18.2192C28.5359 18.2331 28.5498 18.2442 28.5748 18.2442C28.822 18.2804 28.9248 18.3165 28.9692 18.3831C28.9887 18.4109 28.9915 18.4581 28.9803 18.5137Z" fill="black"/>
<path d="M24.2358 17.2863C23.6608 16.9752 24.1163 16.6502 24.1636 15.7224C24.4524 16.3113 24.7386 16.3307 24.8191 16.7002C24.8302 16.7446 24.8386 16.8279 24.8108 16.8835C24.5469 16.8946 24.4247 16.4974 24.2969 16.9335L24.2358 17.2863Z" fill="white"/>
<path d="M24.2277 17.3055C23.8416 17.0944 23.9027 16.8749 24.0027 16.5027C24.0583 16.2999 24.1277 16.0499 24.1444 15.7194L24.1861 15.7111C24.3277 15.9999 24.4722 16.1527 24.5861 16.2749C24.7055 16.4027 24.8 16.5027 24.8444 16.6944C24.8555 16.7499 24.8639 16.8361 24.8361 16.8888L24.8333 16.8999H24.8194C24.7139 16.9027 24.6277 16.8472 24.5611 16.8027C24.5083 16.7666 24.4639 16.7361 24.4305 16.7499C24.3916 16.7638 24.3583 16.8249 24.3305 16.9388L24.2638 17.2888L24.2277 17.3055ZM24.1833 15.8055C24.1611 16.0972 24.0972 16.3305 24.0444 16.5166C23.9472 16.8805 23.8944 17.0638 24.2194 17.2527L24.2805 16.9333C24.3166 16.8027 24.3583 16.7333 24.4083 16.7166C24.4639 16.6972 24.5166 16.7305 24.5805 16.7777C24.6444 16.8194 24.7111 16.8666 24.7972 16.8666C24.8111 16.8166 24.8055 16.7472 24.7972 16.7083C24.7555 16.5277 24.6666 16.4305 24.55 16.3083C24.45 16.1972 24.3139 16.0583 24.1833 15.8055Z" fill="black"/>
<path d="M30.5054 16.9L30.8193 17.35L31.1693 16.775L30.9082 16.5L30.5054 16.9Z" fill="white"/>
<path d="M30.8222 17.3749C30.8139 17.3749 30.8083 17.3721 30.8028 17.3666L30.4889 16.9166C30.4805 16.9083 30.4861 16.8971 30.4916 16.8916L30.8972 16.4916C30.9 16.4888 30.9083 16.4833 30.9111 16.4833C30.9194 16.4833 30.9222 16.486 30.925 16.4916L31.1889 16.7666C31.1972 16.7749 31.1972 16.786 31.1916 16.7916L30.8416 17.3666C30.8361 17.3666 30.8278 17.3694 30.8222 17.3749ZM30.5333 16.8999L30.8194 17.3083L31.1416 16.7749L30.9055 16.5277L30.5333 16.8999Z" fill="black"/>
<path d="M31.075 17.2863C31.65 16.9752 31.1944 16.6502 31.1472 15.7224C30.8583 16.3113 30.5722 16.3307 30.4916 16.7002C30.4805 16.7446 30.4722 16.8279 30.5 16.8835C30.7611 16.8946 30.8861 16.4974 31.0138 16.9335L31.075 17.2863Z" fill="white"/>
<path d="M31.089 17.3054L31.0557 17.2915L30.989 16.9415C30.9584 16.8332 30.9251 16.7693 30.889 16.7582C30.8557 16.7471 30.8112 16.7776 30.7584 16.811C30.6918 16.8554 30.6056 16.911 30.5001 16.9082H30.4862L30.4834 16.8971C30.4584 16.8415 30.4612 16.7582 30.4751 16.7026C30.5168 16.511 30.614 16.411 30.7334 16.2832C30.8501 16.1582 30.9918 16.0082 31.1334 15.7193L31.1751 15.7276C31.1946 16.0526 31.2612 16.3082 31.3168 16.511C31.414 16.8749 31.4751 17.0971 31.089 17.3054ZM30.8695 16.711C30.8807 16.711 30.8918 16.711 30.9029 16.7193C30.9557 16.7387 30.9918 16.8054 31.0307 16.9332L31.0918 17.2554C31.4168 17.0665 31.3668 16.8804 31.2668 16.5193C31.214 16.3304 31.1529 16.0998 31.1279 15.8054C30.9918 16.0554 30.8612 16.1943 30.7557 16.3082C30.639 16.4332 30.5501 16.5248 30.5084 16.7082C30.5001 16.7443 30.4945 16.8165 30.5084 16.8665C30.5945 16.8665 30.6668 16.8165 30.7251 16.7776C30.7807 16.7387 30.8251 16.711 30.8695 16.711Z" fill="black"/>
<path d="M24.5913 17.7111L24.6552 17.7611L24.5163 17.9111C24.4608 17.9722 24.4497 18.0111 24.4858 18.0472C24.5358 18.0916 24.5691 18.0777 24.6163 18.0249L24.7663 17.8638L24.8163 17.9138L24.6663 18.0888C24.583 18.1833 24.508 18.1638 24.4441 18.1027C24.3886 18.0499 24.358 17.9749 24.4358 17.8861L24.5913 17.7111Z" fill="black"/>
<path d="M24.8442 17.9249L24.9081 17.9638L24.8969 18.2638L25.0358 18.0499L25.0997 18.086L24.8997 18.411L24.8247 18.3749L24.8358 18.0749L24.6969 18.2888L24.6331 18.2527L24.8442 17.9249Z" fill="black"/>
<path d="M24.9556 18.45L25.1306 18.1L25.1945 18.1361L25.0333 18.475L24.9556 18.45Z" fill="black"/>
<path d="M25.2302 18.15L25.0913 18.5139L25.2302 18.5639C25.358 18.6139 25.4191 18.5528 25.458 18.4444C25.4996 18.3333 25.4802 18.2528 25.3524 18.2L25.2302 18.15ZM25.283 18.2361C25.4107 18.2805 25.4219 18.3305 25.383 18.4194C25.3496 18.5055 25.3163 18.5361 25.1941 18.4722L25.283 18.2361Z" fill="black"/>
<path d="M25.6415 18.2889L25.4165 18.6278L25.5026 18.6528L25.5526 18.5667L25.7026 18.6028L25.7137 18.6889L25.7998 18.7001L25.7137 18.3001L25.6415 18.2889ZM25.6693 18.3751L25.6943 18.5251L25.5943 18.5139L25.6693 18.3751Z" fill="black"/>
<path d="M25.8552 18.3193L25.8413 18.7054L25.9885 18.7082C26.1246 18.711 26.1635 18.636 26.1691 18.5193C26.1719 18.3999 26.1274 18.3277 25.9885 18.3249L25.8552 18.3193ZM25.9302 18.386C26.0691 18.386 26.0913 18.4304 26.0885 18.5249C26.0857 18.6138 26.0635 18.6554 25.9274 18.636L25.9302 18.386Z" fill="black"/>
<path d="M27.1692 18.861V19.261H27.2553V19.111C27.2553 19.111 27.3303 19.1138 27.3942 19.0999C27.4442 19.0888 27.4775 19.0555 27.4803 18.9749C27.4803 18.8999 27.4359 18.8583 27.3609 18.8583L27.1692 18.861ZM27.2553 18.9249H27.3442C27.4192 18.9249 27.4053 19.036 27.347 19.036H27.2581L27.2553 18.9249Z" fill="black"/>
<path d="M27.6191 18.861L27.458 19.261H27.5441L27.5802 19.161H27.7414L27.7775 19.261H27.8636L27.7025 18.861H27.6191ZM27.6552 18.9499L27.7191 19.0999H27.608L27.6552 18.9499Z" fill="black"/>
<path d="M27.8694 19.1888L28.0833 18.9249H27.8944V18.861H28.1944V18.9249L27.9694 19.1888H28.1944V19.2638H27.8694V19.1888Z" fill="black"/>
<path d="M29.1304 18.4111L29.2054 18.4L29.2415 18.625C29.2554 18.7028 29.2193 18.7611 29.1637 18.7778C29.0998 18.8 29.0165 18.7805 29.0054 18.6722L29.0693 18.6611C29.0832 18.725 29.1109 18.7333 29.1415 18.7222C29.1637 18.7139 29.1776 18.6778 29.172 18.6361L29.1304 18.4111Z" fill="black"/>
<path d="M29.2581 18.3891L29.3331 18.3752L29.3664 18.5641C29.3803 18.6419 29.4081 18.6752 29.4608 18.6696C29.5247 18.6585 29.5331 18.6196 29.5164 18.5502L29.472 18.3502L29.547 18.3391L29.597 18.5446C29.6275 18.6641 29.5636 18.7141 29.4775 18.7335C29.4025 18.7474 29.3247 18.7308 29.2969 18.6085L29.2581 18.3891Z" fill="black"/>
<path d="M29.6444 18.5636L29.7083 18.5386C29.7389 18.5942 29.7861 18.5914 29.825 18.5747C29.8777 18.5525 29.8805 18.5081 29.8583 18.4914C29.8222 18.4692 29.7333 18.4997 29.6889 18.4831C29.6333 18.4636 29.6111 18.4303 29.6111 18.3831C29.6139 18.322 29.6666 18.2942 29.7194 18.2748C29.7833 18.2553 29.8444 18.2636 29.8833 18.3386L29.8083 18.3636C29.7833 18.322 29.7527 18.3275 29.725 18.3386C29.7027 18.3498 29.6639 18.3692 29.6833 18.4025C29.6972 18.4275 29.7916 18.4136 29.8416 18.4136C29.8916 18.4164 29.9305 18.447 29.9388 18.497C29.95 18.5636 29.925 18.6025 29.8444 18.6331C29.75 18.6664 29.6639 18.6247 29.6444 18.5636Z" fill="black"/>
<path d="M29.9802 18.25L29.8802 18.3L29.8552 18.2361L30.1302 18.1222L30.1552 18.1722L30.0552 18.2222L30.1691 18.4972L30.1052 18.5333L29.9802 18.25Z" fill="black"/>
<path d="M30.1414 18.1112L30.2052 18.0751L30.3802 18.4001L30.3164 18.439L30.1414 18.1112Z" fill="black"/>
<path d="M30.5696 18.1389L30.6446 18.1139C30.6779 18.1889 30.6252 18.325 30.4974 18.3194C30.3057 18.3166 30.2863 18.1055 30.3168 18.0389C30.3668 17.9222 30.5085 17.9278 30.5668 17.9889L30.503 18.0389C30.4613 17.9861 30.3752 18.0194 30.3668 18.0639C30.3557 18.1389 30.3891 18.2111 30.4613 18.2444C30.5224 18.275 30.6113 18.2028 30.5696 18.1389Z" fill="black"/>
<path d="M30.5334 17.8751L30.5973 17.8251L30.8223 18.1251L30.7584 18.1751L30.5334 17.8751Z" fill="black"/>
<path d="M30.7695 17.6889L30.7056 17.7389L30.8445 18.1139L30.9083 18.05L30.8722 17.975L30.9833 17.875L31.0583 17.9111L31.1222 17.8611L30.7695 17.6889ZM30.7945 17.775L30.9195 17.8389L30.8445 17.9139L30.7945 17.775Z" fill="black"/>
</g>
<defs>
<clipPath id="clip0_93_11664">
<rect width="53.3333" height="30" fill="white" transform="translate(0.99707)"/>
</clipPath>
</defs>
</svg>
