<svg width="54" height="30" viewBox="0 0 54 30" fill="none" xmlns="http://www.w3.org/2000/svg">
<g clip-path="url(#clip0_93_11743)">
<path d="M0.661133 0H53.9945V30H0.661133V0Z" fill="#EA0437"/>
<path d="M0.661133 30H53.9945V15" fill="#4189DD"/>
<path d="M0.661133 0H53.9945V15" fill="#12AD2B"/>
<path d="M12.8302 21.5307C12.2496 21.6918 11.9163 22.1418 11.9246 22.5668L14.783 22.5557C14.808 22.0973 14.433 21.6751 13.8608 21.5085C16.6608 21.4501 19.0941 20.4029 19.5358 19.7279C19.0996 19.539 18.5913 19.8446 18.233 19.7723C19.0885 19.3779 21.6524 17.7168 21.2358 15.9362C20.9108 16.9251 19.9302 17.7418 19.5108 17.9612C20.4691 16.5057 21.7774 14.9918 20.6413 13.8196C20.6996 14.5001 20.2108 15.2473 19.9941 15.3029C20.5496 13.7668 21.0802 11.8362 19.8746 10.564C20.033 11.0251 19.9691 12.3196 19.7524 12.3779C19.6858 11.3335 19.508 9.13346 18.4052 9.16679C18.7552 9.4779 18.908 10.3279 18.9163 11.1862C18.6663 10.5973 18.3802 10.1557 17.7719 9.72235C17.2774 8.77512 16.3996 7.99179 15.5246 7.43068C15.6219 8.11957 15.7052 8.66124 16.6663 9.3779C16.1663 9.34735 15.6635 8.39735 15.1274 8.36957C14.7024 8.35012 14.3663 8.75568 13.6719 8.52235C13.7496 8.7529 14.0746 8.8529 14.1413 9.02512C13.9913 9.1279 13.6385 9.00846 13.3441 8.85568C13.7496 9.40846 14.3774 9.73068 14.908 9.62235C15.5413 9.50012 16.2219 9.56401 16.8691 9.93346C16.7024 10.0196 16.0608 10.0168 15.6469 9.96679C16.0219 10.3473 16.2746 10.6001 16.9274 10.5946C17.5108 10.5918 17.8163 10.2835 17.9663 10.4751C18.333 10.9085 18.5774 11.3418 18.8858 11.8529C18.2108 11.9279 18.4135 11.089 17.6608 10.6585C17.2385 11.5335 18.1469 12.5723 18.7663 13.0029C18.7746 13.6612 18.8719 14.2112 19.1496 14.714C19.3385 15.0668 19.5802 15.4279 19.4885 16.2251C19.1191 15.9557 18.7552 15.0446 18.8885 14.3223C18.4246 14.4501 18.2441 15.264 18.4608 15.6751C18.6246 15.989 18.733 16.5862 18.5441 16.8529C18.3608 17.1029 18.3413 17.0751 18.3441 17.6085C18.3496 17.9279 18.1719 18.3057 17.8802 18.5696C17.9413 18.3446 18.0108 17.9557 17.9441 17.714C17.7135 18.1057 17.1358 18.5085 16.9552 18.9279C16.7774 19.3473 16.7302 20.0779 15.8663 20.2446C14.7552 20.464 14.3719 20.6585 13.6552 20.9501C13.5746 20.4057 13.8135 19.2751 14.2691 19.339C14.7135 19.4168 16.058 18.8751 15.5774 17.7418C15.483 18.1001 15.1663 18.4473 14.8219 18.464C15.1913 17.9835 15.8524 17.4862 15.5302 16.6807C15.3524 17.0223 15.0691 17.4335 14.6441 17.664C15.1024 16.7862 14.6969 16.5251 14.1552 17.2473C13.9496 17.5251 13.8274 18.0835 13.6969 18.7918C13.483 18.214 13.4969 17.4557 13.2441 16.839C12.9802 16.1723 13.5941 15.9973 13.883 16.0501C14.5913 16.239 15.7746 16.239 15.6858 15.0696C15.3802 15.464 14.8441 15.5862 14.2635 15.4446C14.9135 14.9696 15.4274 14.0751 14.7024 13.6085C14.6774 14.1029 14.2941 14.6585 13.783 14.914C13.6635 14.4973 13.6635 14.0529 13.7663 13.5668C13.4802 13.8668 13.2719 14.4918 13.108 15.2029C13.0969 14.5001 13.2274 13.9946 13.3274 13.6168C13.4774 13.064 13.8469 13.4251 14.4163 13.464C14.9635 13.4946 15.7163 13.1918 15.5719 12.4501C15.3858 12.7446 15.0024 12.8585 14.6108 12.8279C15.083 12.5418 15.9052 12.0335 15.4524 11.2529C15.2635 11.5501 15.2024 11.8029 14.6524 11.8918C14.7969 11.5612 14.8191 11.0946 15.2441 10.9085C14.4858 10.7585 14.0496 11.2557 13.8302 12.0362C13.7413 11.4946 13.633 11.2973 13.6135 10.9001C14.0246 10.4446 14.0663 9.5529 13.1774 9.3529C13.1246 9.81401 13.1413 9.92235 13.2413 10.2973C12.8246 10.0501 12.2358 9.91401 11.8469 10.264C12.1108 10.5501 12.5219 10.8029 13.1552 10.489C13.0052 10.9779 12.6163 10.8946 12.083 10.7085C12.408 11.3223 12.8219 11.4307 13.2746 11.3585C13.5135 11.9862 13.5219 12.4612 12.8274 13.3751C12.8608 12.8085 12.8191 12.3835 12.3691 11.9251C11.983 11.5473 11.6691 11.9418 12.2719 12.7835C11.9052 12.514 11.4913 11.9668 11.3663 11.4196C11.2469 12.0973 11.3552 12.8946 11.7274 13.3418C11.5496 13.5307 11.3496 13.3223 11.0496 12.8585C11.1635 14.3418 11.7941 14.6251 12.6441 14.2973C12.6691 15.1112 12.6691 15.864 12.7163 16.8473C12.2219 16.1335 11.5941 15.6029 11.2413 15.4696C11.133 15.8696 11.5441 16.389 11.7719 16.6779C11.4219 16.6057 10.6608 16.0251 10.6608 16.0251C10.583 16.6862 11.4385 17.2973 11.9885 17.5723C11.3413 17.5446 11.0552 17.2973 10.6358 16.8946C10.6441 18.7279 12.6219 18.4085 12.9913 18.1279C13.0385 19.0307 13.108 20.0723 13.158 20.9751C12.5996 20.8779 12.6441 20.7085 12.1635 20.664C10.8358 20.6112 9.78298 19.0696 9.43575 17.9362C9.33575 18.1223 9.41631 18.3168 9.32464 18.5473C9.10798 17.9918 8.83298 17.2723 8.46353 16.9362C8.55798 17.2612 8.56631 17.5918 8.53575 18.1973C8.40798 17.8057 8.29131 17.6835 8.28298 17.2223C8.29131 16.8668 8.62464 16.6057 8.6052 16.1085C8.59131 15.7446 8.26075 14.9557 8.21075 14.3473C8.04964 14.9751 7.94964 15.6362 7.70242 16.0251C7.82464 15.3557 7.78575 14.8918 7.99131 14.439C8.2302 13.964 8.43298 13.539 8.27464 13.0612C8.12186 13.2473 8.17464 13.414 7.79131 13.864C7.70798 13.3751 8.28575 12.5918 8.84964 12.2751C9.24686 12.0668 9.74409 11.3196 9.41909 10.8085C9.04686 11.0751 8.8802 11.4362 8.35242 12.0557C8.72742 10.589 9.70242 10.2057 10.8719 10.2001C11.1302 10.2001 11.6524 10.1057 11.7969 9.76401C11.4691 9.89179 11.0774 9.90846 10.733 9.83901C10.9858 9.46957 11.5163 9.51679 12.0108 9.51401C12.3996 9.51124 13.0052 9.45846 13.2496 8.90568C12.7774 9.11124 12.0385 9.1529 11.5746 9.00846C12.3135 8.62512 13.4719 8.58346 14.0663 8.08068C13.3885 7.57512 11.6969 8.19735 10.6274 8.93068C10.9274 8.65846 11.3996 8.17235 11.6608 7.78068C11.0746 7.50012 9.59686 9.13901 9.08575 10.114C8.60242 10.3862 8.40798 10.8168 8.21909 11.114C8.47742 10.2418 8.5052 9.61124 8.71909 8.89179C7.06075 9.46401 7.74964 12.5279 7.38853 13.2612C7.4302 12.4501 7.39686 11.4112 7.06353 10.8751C6.55242 11.264 6.51075 13.5612 6.99131 15.4696C6.81909 14.9585 6.49131 14.4807 6.38575 13.8585C5.6302 15.239 6.8302 16.8668 7.83298 18.1501C7.07742 17.7557 6.3302 16.9112 5.84131 16.2001C5.97742 18.6696 8.5552 19.1835 8.9552 19.789C8.41075 19.5362 7.37186 19.0362 6.93298 19.5612C7.64964 19.7279 8.22186 19.9196 8.68298 20.2196C9.35798 21.0723 10.6246 21.4362 12.8302 21.5307Z" fill="#FFC726"/>
</g>
<defs>
<clipPath id="clip0_93_11743">
<rect width="53.3333" height="30" fill="white" transform="translate(0.661133)"/>
</clipPath>
</defs>
</svg>
