<svg width="54" height="30" viewBox="0 0 54 30" fill="none" xmlns="http://www.w3.org/2000/svg">
<g clip-path="url(#clip0_93_11748)">
<path d="M0.65918 0H53.9925V30H0.65918V0Z" fill="#3E5EB9"/>
<path d="M0.65918 5.625H53.9925V24.375H0.65918V5.625Z" fill="#FFD900"/>
<path d="M0.65918 7.5H53.9925V22.5H0.65918V7.5Z" fill="#B10C0C"/>
<path d="M41.7894 11.5693L39.97 12.2138L41.7894 12.8582L43.6088 12.2138L41.7894 11.5693Z" fill="white"/>
<path d="M41.7894 12.8944L39.8533 12.2083L41.7894 11.5221L43.7255 12.2083L41.7894 12.8944ZM40.081 12.2138L41.7922 12.8194L43.5033 12.2138L41.7922 11.6083L40.081 12.2138Z" fill="black"/>
<path d="M14.2703 12H40.5897C40.7203 12 40.8258 12.0944 40.8258 12.2139C40.8258 12.3333 40.7203 12.4278 40.5897 12.4278H14.2703C14.1397 12.4278 14.0342 12.3333 14.0342 12.2139C14.0397 12.0944 14.1453 12 14.2703 12Z" fill="#FFD900"/>
<path d="M40.5895 12.4641H14.2701C14.1201 12.4641 14.0006 12.3502 14.0006 12.2141C14.0006 12.078 14.1201 11.9641 14.2701 11.9641H40.5895C40.7395 11.9641 40.8589 12.078 40.8589 12.2141C40.8617 12.3502 40.7395 12.4641 40.5895 12.4641ZM14.2701 12.0391C14.1589 12.0391 14.0756 12.1196 14.0756 12.2141C14.0756 12.3085 14.1645 12.3891 14.2701 12.3891H40.5895C40.7006 12.3891 40.7839 12.3085 40.7839 12.2141C40.7839 12.1196 40.695 12.0391 40.5895 12.0391H14.2701Z" fill="black"/>
<path d="M40.1874 12.4306C40.2929 12.4306 40.4013 12.325 40.4013 12.2167C40.4013 12.1111 40.2957 12.0028 40.1874 12.0028V12.4306ZM39.9707 12.4306C40.0763 12.4306 40.1846 12.325 40.1846 12.2167C40.1846 12.1111 40.0791 12.0028 39.9707 12.0028V12.4306ZM39.7568 12.4306C39.8624 12.4306 39.9707 12.325 39.9707 12.2167C39.9707 12.1111 39.8652 12.0028 39.7568 12.0028" fill="#FFD900"/>
<path d="M40.1874 12.4641V12.3891C40.2735 12.3891 40.3624 12.3002 40.3624 12.2141C40.3624 12.128 40.2735 12.0391 40.1874 12.0391V11.9641C40.3124 11.9641 40.4374 12.0891 40.4374 12.2141C40.4374 12.3391 40.3124 12.4641 40.1874 12.4641ZM39.9707 12.4641V12.3891C40.0568 12.3891 40.1457 12.3002 40.1457 12.2141C40.1457 12.128 40.0568 12.0391 39.9707 12.0391V11.9641C40.0957 11.9641 40.2207 12.0891 40.2207 12.2141C40.2207 12.3391 40.0957 12.4641 39.9707 12.4641ZM39.7568 12.4641V12.3891C39.8429 12.3891 39.9318 12.3002 39.9318 12.2141C39.9318 12.128 39.8429 12.0391 39.7568 12.0391V11.9641C39.8818 11.9641 40.0068 12.0891 40.0068 12.2141C40.0068 12.3391 39.8818 12.4641 39.7568 12.4641Z" fill="black"/>
<path d="M40.045 12.8552L38.22 13.4997L40.0394 14.1441L41.8589 13.4997L40.045 12.8552Z" fill="white"/>
<path d="M40.0456 14.1861L38.1095 13.5L40.0456 12.8139L41.9817 13.5L40.0456 14.1861ZM38.3373 13.5L40.0484 14.1055L41.7595 13.5L40.0484 12.8944L38.3373 13.5Z" fill="black"/>
<path d="M12.5253 13.2859H38.8447C38.9753 13.2859 39.0809 13.3804 39.0809 13.4998C39.0809 13.6192 38.9753 13.7137 38.8447 13.7137H12.5253C12.3947 13.7137 12.2892 13.6192 12.2892 13.4998C12.2947 13.3804 12.4003 13.2859 12.5253 13.2859Z" fill="#FFD900"/>
<path d="M38.8457 13.7558H12.5263C12.3763 13.7558 12.2568 13.6419 12.2568 13.5058C12.2568 13.3697 12.3763 13.2558 12.5263 13.2558H38.8457C38.9957 13.2558 39.1152 13.3697 39.1152 13.5058C39.1152 13.6391 38.9957 13.7558 38.8457 13.7558ZM12.5263 13.3252C12.4152 13.3252 12.3318 13.4058 12.3318 13.5002C12.3318 13.5947 12.4207 13.6752 12.5263 13.6752H38.8457C38.9568 13.6752 39.0402 13.5947 39.0402 13.5002C39.0402 13.4058 38.9513 13.3252 38.8457 13.3252H12.5263Z" fill="black"/>
<path d="M38.4396 13.7137C38.5452 13.7137 38.6535 13.6081 38.6535 13.4998C38.6535 13.3915 38.548 13.2859 38.4396 13.2859V13.7137ZM38.2257 13.7137C38.3313 13.7137 38.4396 13.6081 38.4396 13.4998C38.4396 13.3915 38.3341 13.2859 38.2257 13.2859V13.7137ZM38.0118 13.7137C38.1174 13.7137 38.2257 13.6081 38.2257 13.4998C38.2257 13.3915 38.1202 13.2859 38.0118 13.2859" fill="#FFD900"/>
<path d="M38.4396 13.75V13.675C38.5257 13.675 38.6146 13.5861 38.6146 13.5C38.6146 13.4139 38.5257 13.325 38.4396 13.325V13.25C38.5646 13.25 38.6896 13.375 38.6896 13.5C38.6896 13.625 38.5646 13.75 38.4396 13.75ZM38.2257 13.75V13.675C38.3118 13.675 38.4007 13.5861 38.4007 13.5C38.4007 13.4139 38.3118 13.325 38.2257 13.325V13.25C38.3507 13.25 38.4757 13.375 38.4757 13.5C38.4757 13.625 38.3507 13.75 38.2257 13.75ZM38.0118 13.75V13.675C38.098 13.675 38.1868 13.5861 38.1868 13.5C38.1868 13.4139 38.098 13.325 38.0118 13.325V13.25C38.1368 13.25 38.2618 13.375 38.2618 13.5C38.2618 13.625 38.1368 13.75 38.0118 13.75Z" fill="black"/>
<path d="M9.63143 14.6807H45.4259C45.6009 14.6807 45.7398 14.8251 45.7398 15.0001C45.7398 15.1807 45.6009 15.3196 45.4259 15.3196H9.63143C9.45643 15.3196 9.31754 15.1751 9.31754 15.0001C9.31198 14.8251 9.45643 14.6807 9.63143 14.6807Z" fill="#FFD900"/>
<path d="M45.4203 15.3612H9.63143C9.43699 15.3612 9.27588 15.2001 9.27588 15.0001C9.27588 14.8001 9.43699 14.639 9.63143 14.639H45.4259C45.6203 14.639 45.7814 14.8001 45.7814 15.0001C45.7814 15.2001 45.6203 15.3612 45.4203 15.3612ZM9.63143 14.7195C9.48143 14.7195 9.35643 14.8445 9.35643 15.0001C9.35643 15.1556 9.48143 15.2806 9.63143 15.2806H45.4259C45.5759 15.2806 45.7009 15.1556 45.7009 15.0001C45.7009 14.8445 45.5759 14.7195 45.4259 14.7195H9.63143Z" fill="black"/>
<path d="M38.0394 14.9999C35.8949 17.1443 33.0394 21.4304 27.3255 21.4304C22.3255 21.4304 18.756 17.1443 16.6116 14.9999C18.756 12.8554 22.3255 8.56932 27.3255 8.56932C33.0394 8.56932 35.8949 12.8554 38.0394 14.9999Z" fill="white"/>
<path d="M27.3254 21.4641C22.831 21.4641 19.5004 18.028 17.3004 15.753C17.0449 15.4918 16.806 15.2418 16.5865 15.0224L16.5615 14.9974L16.5865 14.9724C16.806 14.753 17.0476 14.503 17.3004 14.2418C19.5004 11.9668 22.831 8.53074 27.331 8.53074C32.1754 8.53074 34.9754 11.6002 37.0199 13.8446C37.3893 14.2557 37.7393 14.6391 38.0754 14.9696L38.1004 14.9946L38.0754 15.0196C37.7449 15.3502 37.3949 15.7335 37.0199 16.1446C34.9699 18.3946 32.1699 21.4641 27.3254 21.4641ZM16.6643 15.0002C16.8782 15.2141 17.1087 15.4557 17.3532 15.7057C19.5504 17.9696 22.8643 21.3891 27.3254 21.3891C32.1393 21.3891 34.9254 18.3279 36.9615 16.1002C37.3226 15.7057 37.6671 15.3252 37.9921 15.0002C37.6671 14.6752 37.3282 14.3002 36.9615 13.9002C34.9254 11.6641 32.1365 8.61129 27.3254 8.61129C22.8615 8.61129 19.5449 12.0307 17.3504 14.2974C17.1115 14.5446 16.881 14.7863 16.6643 15.0002Z" fill="black"/>
<path d="M26.5756 10.8054C27.1451 11.4443 26.6701 11.7054 27.2756 11.7443C27.9118 11.7888 27.5506 12.4249 28.0868 12.4443C28.4618 12.4582 28.0506 13.9554 28.4117 14.4499C28.7756 14.9638 29.0868 14.5999 29.0923 14.9693C29.0979 15.3554 28.0923 15.3138 28.0784 16.4999C28.0479 17.1804 27.2284 17.2249 27.1923 17.6638C27.1423 18.0777 28.8062 18.3082 28.7812 18.6777C28.7562 19.0471 26.9868 18.9888 26.9118 19.4082C26.8729 19.7832 29.3479 20.0943 29.5423 21.1888C29.1729 21.3082 28.1229 21.4249 27.3312 21.4249C22.3312 21.4304 18.7618 17.1388 16.6173 14.9943C18.7562 12.8554 22.3284 8.56932 27.3284 8.56932C27.3256 8.56932 25.8395 9.92488 26.5756 10.8054Z" fill="black"/>
<path d="M20.8706 14.4308V12.7169V14.4308ZM21.9123 12.7141V14.428V12.7141ZM22.9512 12.7141V14.428V12.7141Z" fill="black"/>
<path d="M23.2116 14.4305H22.6921V12.7166H23.2116V14.4305ZM22.1699 14.4305H21.6505V12.7166H22.1699V14.4305ZM21.131 14.4305H20.6116V12.7166H21.131V14.4305Z" fill="white"/>
<path d="M20.8706 17.286V15.5721V17.286ZM21.9123 15.5693V17.2832V15.5693ZM22.9512 15.5693V17.2832V15.5693Z" fill="black"/>
<path d="M23.2116 17.2863H22.6921V15.5724H23.2116V17.2863ZM22.1699 17.2863H21.6505V15.5724H22.1699V17.2863ZM21.131 17.2863H20.6116V15.5724H21.131V17.2863Z" fill="white"/>
<path d="M23.9866 14.4308V12.7169V14.4308ZM25.0255 12.7141V14.428V12.7141ZM26.0644 12.7141V14.428V12.7141Z" fill="black"/>
<path d="M26.3263 14.4305H25.8069V12.7166H26.3263V14.4305ZM25.2874 14.4305H24.768V12.7166H25.2874V14.4305ZM24.2458 14.4305H23.7263V12.7166H24.2458V14.4305Z" fill="white"/>
<path d="M23.9866 17.286V15.5721V17.286ZM25.0255 15.5693V17.2832V15.5693ZM26.0644 15.5693V17.2832V15.5693Z" fill="black"/>
<path d="M26.3263 17.2863H25.8069V15.5724H26.3263V17.2863ZM25.2874 17.2863H24.768V15.5724H25.2874V17.2863ZM24.2458 17.2863H23.7263V15.5724H24.2458V17.2863Z" fill="white"/>
<path d="M28.7263 14.4308V12.7169V14.4308ZM29.7652 12.7141V14.428V12.7141ZM30.8069 12.7141V14.428V12.7141Z" fill="black"/>
<path d="M31.0651 14.4305H30.5456V12.7166H31.0651V14.4305ZM30.0262 14.4305H29.5068V12.7166H30.0262V14.4305ZM28.9873 14.4305H28.4651V12.7166H28.9845V14.4305H28.9873Z" fill="black"/>
<path d="M28.7263 17.286V15.5721V17.286ZM29.7652 15.5693V17.2832V15.5693ZM30.8069 15.5693V17.2832V15.5693Z" fill="black"/>
<path d="M31.0651 17.2863H30.5456V15.5724H31.0651V17.2863ZM30.0262 17.2863H29.5068V15.5724H30.0262V17.2863ZM28.9873 17.2863H28.4651V15.5724H28.9845V17.2863H28.9873Z" fill="black"/>
<path d="M31.845 14.4308V12.7169V14.4308ZM32.8866 12.7141V14.428V12.7141ZM33.92 12.7141V14.428V12.7141Z" fill="black"/>
<path d="M34.1812 14.4305H33.6618V12.7166H34.1812V14.4305ZM33.1396 14.4305H32.6257V12.7166H33.1451V14.4305H33.1396ZM32.1062 14.4305H31.5868V12.7166H32.1062V14.4305Z" fill="black"/>
<path d="M31.845 17.286V15.5721V17.286ZM32.8866 15.5693V17.2832V15.5693ZM33.92 15.5693V17.2832V15.5693Z" fill="black"/>
<path d="M34.1812 17.2863H33.6618V15.5724H34.1812V17.2863ZM33.1396 17.2863H32.6257V15.5724H33.1451V17.2863H33.1396ZM32.1062 17.2863H31.5868V15.5724H32.1062V17.2863Z" fill="black"/>
<path d="M43.1755 14.7442C42.8505 15.3053 43.4255 14.5581 44.8255 15.4998C45.0866 15.6748 45.3116 16.1359 45.3116 16.4553C45.2477 16.4109 45.1977 16.3164 45.1255 16.2498C45.0255 16.3498 45.2199 16.8192 45.2505 17.0386C45.031 16.9192 45.0505 16.8581 44.981 16.7081C44.9949 16.8886 44.9421 17.3942 45.031 17.5831C44.856 17.5331 44.8699 17.3942 44.781 17.3692C44.8421 17.5886 44.7255 17.8248 44.756 18.0692C44.656 17.9692 44.5449 17.8886 44.5005 17.8498C44.4894 17.9636 44.306 18.2748 44.3005 18.3859C44.2144 18.3359 44.1894 18.2553 44.1755 18.1998C44.0699 18.3359 43.6894 18.8248 43.6644 18.9748C43.3755 18.7192 42.6283 18.0886 42.5283 17.7609C42.4421 17.9498 42.3171 18.0109 42.0727 18.1498C41.9783 17.6248 41.6116 17.0303 41.8088 16.5803C41.6699 16.6609 41.5588 16.7442 41.4199 16.8442C41.5616 16.0803 42.2199 15.1886 43.1755 14.7442Z" fill="#3D5DA7"/>
<path d="M43.6952 19.0388L43.6507 18.9999C43.6257 18.9749 43.5896 18.9499 43.5563 18.9194C43.2452 18.6444 42.6813 18.1555 42.5313 17.8388C42.4452 17.9833 42.3257 18.0499 42.1257 18.1638L42.0563 18.2027L42.0452 18.1583C42.0146 17.9888 41.9563 17.8138 41.8952 17.6388C41.7841 17.3027 41.6646 16.9527 41.7507 16.6583C41.6507 16.7222 41.5563 16.7888 41.4396 16.8722L41.3757 16.9166L41.3896 16.8361C41.5285 16.0055 42.2535 15.1361 43.1507 14.7166L43.1563 14.7111H43.1757L43.1868 14.7472L43.2063 14.7583C43.1813 14.8027 43.1174 14.9194 43.1202 14.9388C43.1313 14.9499 43.1952 14.9499 43.2507 14.9444C43.5063 14.9388 44.0368 14.9249 44.8452 15.4694C45.1063 15.6444 45.3452 16.1138 45.3452 16.4555V16.5166L45.2952 16.4805C45.2563 16.4555 45.2257 16.4111 45.1896 16.3694C45.1702 16.3444 45.1535 16.3249 45.1341 16.2999C45.1146 16.3861 45.1702 16.5888 45.2146 16.7444C45.2452 16.8555 45.2757 16.9555 45.2841 17.0305L45.2952 17.0944L45.2396 17.0638C45.1007 16.9833 45.0507 16.9277 45.0202 16.8638C45.0202 16.8888 45.0202 16.9194 45.0202 16.9499C45.0146 17.1611 45.0091 17.4444 45.0646 17.5694L45.0952 17.6333L45.0313 17.6138C44.9202 17.5833 44.8757 17.5138 44.8424 17.4638C44.8424 17.4583 44.8368 17.4583 44.8368 17.4527C44.848 17.5472 44.8313 17.6472 44.8174 17.7416C44.8035 17.8472 44.7868 17.9555 44.798 18.0666L44.8091 18.1555L44.7452 18.0916C44.6757 18.0222 44.6007 17.9611 44.5452 17.9166C44.5396 17.9111 44.5396 17.9111 44.5341 17.9055C44.5146 17.9666 44.4785 18.0444 44.4452 18.1305C44.4007 18.2249 44.3507 18.3361 44.3507 18.3861V18.4416L44.3063 18.4111C44.2424 18.3722 44.2063 18.3111 44.1868 18.2666C44.0007 18.5027 43.7424 18.8666 43.723 18.9805L43.6952 19.0388ZM42.5452 17.6694L42.5702 17.7555C42.6563 18.0444 43.2702 18.5861 43.6007 18.8749C43.6202 18.8888 43.6396 18.9111 43.6563 18.9249C43.7424 18.7055 44.1368 18.2111 44.1563 18.1861L44.1952 18.1361L44.2091 18.1972C44.2202 18.2333 44.2341 18.2916 44.2785 18.3361C44.2924 18.2749 44.3341 18.1972 44.3674 18.1111C44.4118 18.0111 44.4618 17.9055 44.4618 17.8555L44.4674 17.7916L44.5174 17.8305C44.5313 17.8416 44.548 17.8555 44.5674 17.8694C44.6063 17.8999 44.6563 17.9444 44.7118 17.9888C44.7118 17.8999 44.723 17.8138 44.7368 17.7333C44.7563 17.6083 44.773 17.4888 44.7424 17.3777L44.7285 17.3222L44.7841 17.3361C44.8341 17.3499 44.8591 17.3916 44.8841 17.4249C44.9091 17.4583 44.9285 17.4944 44.973 17.5249C44.9341 17.3749 44.9368 17.1388 44.9424 16.9499C44.9424 16.8499 44.948 16.7638 44.9424 16.7111L45.0035 16.6972C45.0174 16.7277 45.0285 16.7583 45.0396 16.7833C45.0702 16.8638 45.0896 16.9083 45.2007 16.9777C45.1868 16.9166 45.1646 16.8416 45.1452 16.7666C45.0813 16.5305 45.0146 16.3111 45.0952 16.2305L45.1146 16.2111L45.1396 16.2305C45.1757 16.2611 45.2035 16.2999 45.2341 16.3361C45.2452 16.3499 45.2591 16.3666 45.2702 16.3805C45.2341 16.0749 45.0257 15.6805 44.8007 15.5305C44.0118 14.9999 43.4952 15.0111 43.2452 15.0194C43.1396 15.0249 43.0841 15.0249 43.0591 14.9805C43.0396 14.9444 43.048 14.9055 43.0952 14.8249C42.2841 15.2361 41.6341 16.0138 41.4702 16.7805C41.5841 16.6999 41.6813 16.6305 41.7952 16.5666L41.8813 16.5166L41.8424 16.6055C41.7174 16.8999 41.8368 17.2694 41.9563 17.6249C42.0118 17.7861 42.0674 17.9499 42.0952 18.1111C42.3091 17.9916 42.4202 17.9249 42.5007 17.7555L42.5452 17.6694Z" fill="black"/>
<path d="M41.9651 17.5304C42.1012 17.261 42.2262 17.1749 42.3095 16.9999C42.4651 16.6943 42.4845 16.4554 42.6206 16.4888C42.7568 16.5249 42.7568 16.6499 42.5818 16.9499C42.4123 17.2499 42.3262 17.3138 41.9651 17.5304ZM42.8762 18.1693C42.8623 17.9638 42.9151 17.8804 42.9068 17.7443C42.8873 17.5138 42.7929 17.3554 42.9179 17.3388C43.0429 17.3276 43.0984 17.4082 43.0984 17.6388C43.1012 17.8804 43.0651 17.9443 42.8762 18.1693ZM43.5706 18.5749C43.5151 18.2888 43.5568 18.161 43.5206 17.9749C43.4595 17.6499 43.3401 17.436 43.4567 17.4054C43.5734 17.3749 43.6429 17.4804 43.6818 17.811C43.7262 18.1388 43.7068 18.2304 43.5706 18.5749ZM44.2901 16.5638C44.1206 16.4332 44.0262 16.4276 43.9151 16.3443C43.7262 16.1999 43.6262 16.0443 43.5651 16.1249C43.504 16.1999 43.5456 16.286 43.7512 16.4193C43.9456 16.5554 44.0151 16.5638 44.2901 16.5638ZM44.1706 17.5138C44.0818 17.3276 43.9845 17.2832 43.9318 17.1638C43.8318 16.9526 43.8317 16.7749 43.7206 16.8193C43.6095 16.8638 43.6012 16.9582 43.7206 17.1638C43.8373 17.3693 43.8956 17.4054 44.1706 17.5138Z" fill="#A70000"/>
<path d="M10.8867 15.2861C10.8672 15.1222 10.9006 15.1 10.8006 14.9805C10.945 15.0417 10.9506 15.2055 11.1311 15.0917C11.195 15.0555 11.2256 15.0555 11.145 14.8778C11.3311 14.8889 11.9395 15.0917 12.0339 15.0972C12.2895 15.1083 12.7589 14.8278 13.0839 15.1722C13.395 15.4861 13.2895 15.8111 13.2895 16.2472C13.1645 16.1861 13.2256 16.1583 13.0895 16.0028C13.1895 16.3833 13.0839 17.0722 13.0839 17.4722C13.0339 17.3778 13.0395 17.4167 12.9895 17.3167C12.8534 17.6861 12.7006 17.7611 12.7006 18.1972C12.6506 18.0278 12.7006 18.0611 12.645 17.9722C12.5145 18.2528 11.6506 18.4917 11.9839 18.7722C11.6839 18.5972 11.5478 18.6111 11.4145 18.4583C11.3534 18.4972 11.3089 18.5694 11.2534 18.6694C10.7228 18.425 10.9145 17.9 10.4978 17.55C10.4284 17.6944 10.4589 17.675 10.3839 17.9139C10.2978 17.5778 10.2784 17.3694 10.1839 17.125C10.1034 17.2611 10.1089 17.2111 9.96447 17.4139C9.90336 17.0083 9.80336 16.9139 9.84502 16.6444C9.68947 16.7556 9.78947 16.7083 9.63391 16.8444C9.78113 15.8111 10.42 15.0389 10.8867 15.2861Z" fill="#3D5DA7"/>
<path d="M11.9705 18.8111C11.8455 18.7416 11.751 18.7 11.676 18.6666C11.5705 18.6222 11.4955 18.5916 11.4149 18.5111C11.376 18.5472 11.3399 18.6055 11.2955 18.6861L11.276 18.7166L11.2399 18.7027C10.9344 18.5638 10.8538 18.3222 10.776 18.0972C10.7205 17.9333 10.6622 17.7583 10.5149 17.6111C10.4955 17.6555 10.4899 17.6805 10.4788 17.7222C10.4677 17.7611 10.4538 17.8166 10.4233 17.9222L10.3788 18.0527L10.3427 17.9166C10.3122 17.7972 10.2927 17.6972 10.2733 17.6027C10.2427 17.4638 10.2177 17.3388 10.1733 17.2083C10.1594 17.2333 10.1427 17.2472 10.1233 17.2694C10.0983 17.3 10.0622 17.3333 9.99272 17.4333L9.93716 17.5138L9.92327 17.4194C9.89827 17.2583 9.86772 17.15 9.84272 17.0583C9.81216 16.9444 9.78716 16.8527 9.79272 16.7333C9.77883 16.7472 9.77327 16.7527 9.76772 16.7638C9.75383 16.7833 9.73716 16.8083 9.65661 16.8777L9.57605 16.9472L9.58994 16.8416C9.69549 16.1166 10.051 15.4722 10.4538 15.2666C10.5899 15.1972 10.7177 15.1861 10.8399 15.2277C10.8399 15.2138 10.8399 15.1972 10.8399 15.1888C10.8399 15.1138 10.8344 15.0944 10.7705 15.0138L10.8149 14.9527C10.876 14.9777 10.9094 15.0166 10.9455 15.0472C11.001 15.1027 11.0205 15.1222 11.1094 15.0666L11.1233 15.0555C11.1622 15.0361 11.1677 15.0305 11.1094 14.8944L11.0844 14.8333L11.1483 14.8388C11.2622 14.8444 11.5094 14.9138 11.7288 14.9777C11.8649 15.0166 12.0094 15.0583 12.0427 15.0583C12.1122 15.0638 12.2038 15.0388 12.3038 15.0194C12.5594 14.9583 12.8733 14.8888 13.1177 15.15C13.3788 15.4111 13.3622 15.6805 13.3427 15.9944C13.3372 16.0805 13.3316 16.1638 13.3316 16.2555V16.3194L13.276 16.2944C13.2122 16.2638 13.1872 16.2388 13.1649 16.2C13.1899 16.45 13.1705 16.7555 13.151 17.0361C13.1399 17.2 13.1316 17.3611 13.1316 17.4861L13.0566 17.5055C13.0316 17.4611 13.0205 17.45 13.0177 17.4361C13.0122 17.4305 13.0122 17.425 13.0066 17.425C12.9705 17.5138 12.9316 17.5861 12.8955 17.65C12.8094 17.8111 12.7455 17.9361 12.7455 18.2111L12.6649 18.2222C12.6399 18.1361 12.6399 18.1027 12.6399 18.0777C12.5649 18.1666 12.4288 18.2527 12.3038 18.3333C12.1344 18.4388 11.9594 18.5527 11.9538 18.6527C11.9538 18.6888 11.9733 18.7222 12.0149 18.7583L11.9705 18.8111ZM11.426 18.4055L11.451 18.4305C11.526 18.5166 11.5955 18.5444 11.7066 18.5916C11.7566 18.6111 11.8122 18.6361 11.876 18.6666C11.876 18.6555 11.876 18.6416 11.876 18.6305C11.8872 18.4916 12.0649 18.375 12.2622 18.25C12.4122 18.1555 12.5733 18.0555 12.6177 17.9555L12.6483 17.8861L12.6872 17.95C12.7177 17.8055 12.7677 17.7055 12.826 17.5944C12.8705 17.5138 12.9149 17.4194 12.9622 17.3L12.9927 17.2111L13.0316 17.2972C13.0427 17.3111 13.0455 17.3277 13.051 17.3361C13.0566 17.2361 13.0622 17.125 13.0705 17.0166C13.0955 16.6611 13.1205 16.2611 13.0566 16.0111L13.126 15.975C13.1872 16.0444 13.2122 16.0944 13.226 16.1305C13.2372 16.15 13.2399 16.1666 13.251 16.175C13.251 16.1111 13.2566 16.0444 13.2622 15.9861C13.276 15.675 13.2927 15.4361 13.0566 15.2C12.8427 14.9694 12.5622 15.0361 12.3177 15.0944C12.2122 15.1194 12.1177 15.1388 12.0372 15.1333C11.9927 15.1333 11.8816 15.0972 11.7066 15.0472C11.5372 14.9972 11.3372 14.9361 11.2122 14.9166C11.2566 15.0361 11.2427 15.0777 11.1622 15.1166L11.151 15.1222C11.0316 15.1972 10.9649 15.1611 10.9149 15.1166C10.9149 15.1361 10.9205 15.1555 10.9205 15.1777C10.9205 15.2027 10.9205 15.2277 10.926 15.2583L10.9649 15.2777L10.8538 15.3527L10.8483 15.3083C10.7372 15.2583 10.6233 15.2694 10.4927 15.3333C10.1316 15.5194 9.81216 16.0777 9.69272 16.7277C9.69827 16.7222 9.70383 16.7166 9.70383 16.7138C9.72327 16.6888 9.73994 16.6694 9.82327 16.6083L9.89827 16.5527L9.88438 16.6416C9.85938 16.7972 9.88994 16.8861 9.92327 17.0277C9.94272 17.1027 9.96772 17.1888 9.98716 17.3083C10.026 17.2583 10.0483 17.2333 10.0677 17.2138C10.0927 17.1833 10.1122 17.1638 10.1538 17.1L10.1927 17.0305L10.2233 17.1055C10.2844 17.2666 10.3177 17.4166 10.3538 17.5861C10.3649 17.6361 10.3788 17.6916 10.3899 17.75C10.3955 17.7305 10.401 17.7111 10.4038 17.7C10.4177 17.6444 10.4233 17.6111 10.4677 17.525L10.4927 17.4805L10.5316 17.5166C10.726 17.6805 10.7927 17.8805 10.8566 18.0722C10.926 18.2861 10.9955 18.4861 11.2427 18.6166C11.2927 18.5277 11.3372 18.4666 11.3983 18.4277L11.426 18.4055Z" fill="black"/>
<path d="M10.2366 16.9808C10.3727 16.6446 10.4977 16.5419 10.581 16.3252C10.7366 15.9446 10.7616 15.6446 10.8921 15.6891C11.0227 15.7335 11.0227 15.8891 10.8477 16.2641C10.6699 16.6363 10.5894 16.7141 10.2366 16.9808ZM10.7505 17.8141C10.806 17.5141 10.8894 17.403 10.9255 17.2141C10.9894 16.8752 10.956 16.6252 11.0755 16.6335C11.1949 16.6474 11.2255 16.7724 11.1449 17.1141C11.0616 17.4558 11.006 17.5363 10.7505 17.8141ZM11.3644 18.4002C11.3782 18.1113 11.4505 17.9946 11.4588 17.8113C11.4782 17.4808 11.4144 17.2474 11.5282 17.2474C11.6421 17.2474 11.6838 17.3613 11.6477 17.6919C11.6144 18.0141 11.5755 18.1002 11.3644 18.4002ZM12.6949 16.5002C12.4394 16.2446 12.2894 16.2002 12.1255 16.0391C11.8366 15.753 11.7005 15.4835 11.5949 15.578C11.4894 15.6724 11.556 15.8141 11.8588 16.0891C12.1616 16.3613 12.2644 16.4002 12.6949 16.5002ZM12.5394 17.4752C12.3755 17.2196 12.2532 17.1558 12.1449 16.9891C11.956 16.703 11.8894 16.453 11.7838 16.5196C11.6782 16.5808 11.6977 16.7085 11.9032 16.9891C12.1116 17.2641 12.1894 17.3141 12.5394 17.4752Z" fill="#A70000"/>
<path d="M23.8618 9.71409C23.5674 10.2891 24.3813 9.5252 25.6618 10.4835C25.898 10.6641 26.2368 11.3696 26.2368 11.6946C25.9618 11.6335 25.4813 11.3696 25.4813 11.3696C25.4813 11.3696 26.0452 11.9335 26.0452 12.5891C25.8452 12.4641 25.7452 12.4835 25.6813 12.328C25.6813 12.5391 25.8618 12.6724 25.8618 13.003C25.7424 12.903 25.6118 12.8169 25.473 12.7419C25.6618 13.0669 25.1285 13.703 25.398 13.9169C24.9341 13.853 24.4535 13.553 24.2674 13.228C24.1674 13.2919 24.1563 13.403 24.1535 13.5141C24.1674 13.5252 23.4424 12.9752 23.5091 12.7641C23.4146 12.9002 23.398 12.9752 23.373 13.128C23.1091 12.8641 22.8618 12.603 22.773 12.2641C22.6535 12.4196 22.648 12.4196 22.5285 12.5696C22.4396 12.0308 22.4396 12.0502 22.6174 11.5891C22.4924 11.6752 22.3868 11.753 22.2618 11.8585C22.3813 11.0808 22.9868 10.1641 23.8618 9.71409Z" fill="#3D5DA7"/>
<path d="M25.501 13.9612L25.3872 13.9473C24.926 13.8835 24.4566 13.5973 24.251 13.2723C24.1899 13.3279 24.1816 13.4085 24.176 13.4973L24.1872 13.5085L24.1566 13.5529L24.1316 13.5418C24.1316 13.5418 24.126 13.5418 24.126 13.5362L24.1205 13.5307C24.0344 13.4696 23.5594 13.0946 23.4816 12.8557C23.4316 12.9446 23.4205 13.0112 23.401 13.1307L23.3899 13.1918L23.3455 13.1473C23.0899 12.8973 22.8566 12.6473 22.7566 12.3279C22.7205 12.3723 22.6955 12.4029 22.6705 12.4335C22.6399 12.4723 22.6066 12.5085 22.551 12.589L22.5066 12.6446L22.4927 12.5557C22.4122 12.0696 22.4066 12.0418 22.5538 11.6696C22.4649 11.7335 22.3844 11.8001 22.2844 11.8807L22.2233 11.9307L22.2344 11.8501C22.3649 11.0001 23.0233 10.114 23.8399 9.68624L23.8649 9.64179L23.9038 9.72235L23.8844 9.73346C23.8399 9.82235 23.8233 9.8779 23.8344 9.89735C23.8483 9.92235 23.9399 9.92235 24.0455 9.91679C24.3594 9.91124 24.9399 9.89735 25.6816 10.4529C25.9316 10.639 26.2705 11.3585 26.2705 11.689V11.7279L26.2344 11.7168C26.0538 11.6779 25.7899 11.5529 25.6233 11.4668C25.7927 11.6723 26.0844 12.1029 26.0844 12.5807V12.6362L26.0399 12.6057C25.976 12.5668 25.9205 12.5418 25.8705 12.5168C25.8205 12.4918 25.7816 12.4779 25.7399 12.4473C25.7538 12.4862 25.7705 12.5279 25.7899 12.5723C25.8399 12.6835 25.8955 12.8085 25.8955 12.9973V13.0612L25.8455 13.0223C25.751 12.9418 25.6455 12.8723 25.5344 12.8085C25.5733 12.9696 25.5038 13.164 25.4455 13.3585C25.3705 13.5835 25.301 13.7946 25.4205 13.889L25.501 13.9612ZM24.2705 13.1807L24.2844 13.2112C24.4594 13.5112 24.8899 13.7862 25.3149 13.8751C25.2455 13.7446 25.3094 13.5501 25.3788 13.3446C25.4538 13.1307 25.5288 12.9085 25.4427 12.7585L25.3872 12.664L25.4816 12.7196C25.601 12.7835 25.7177 12.8585 25.8205 12.939C25.8094 12.8001 25.7649 12.7001 25.7205 12.6029C25.6816 12.514 25.6455 12.4279 25.6455 12.3279L25.7066 12.3168C25.7455 12.4057 25.7955 12.4279 25.8872 12.4723C25.9233 12.4862 25.9677 12.5085 26.0177 12.5362C25.9872 11.9251 25.4677 11.3973 25.4622 11.3918L25.4983 11.3418C25.5038 11.3473 25.9372 11.5862 26.2094 11.6557C26.1844 11.3251 25.8705 10.6751 25.6455 10.5112C24.926 9.97235 24.3566 9.98068 24.051 9.98624C23.9066 9.99179 23.8205 9.99179 23.7872 9.93624C23.7677 9.90013 23.7677 9.86124 23.7983 9.78624C23.0594 10.2057 22.4622 11.0057 22.3122 11.7807C22.4122 11.7001 22.501 11.6307 22.6066 11.5612L22.6872 11.5057L22.6372 11.6307C22.4816 12.0307 22.476 12.0446 22.551 12.4918C22.5872 12.4529 22.6066 12.4223 22.6316 12.3918C22.6622 12.3529 22.6955 12.3168 22.751 12.2362L22.7899 12.1862L22.8038 12.2473C22.8844 12.5612 23.1094 12.8112 23.3483 13.0529C23.3677 12.9335 23.3927 12.8585 23.4788 12.7335L23.5344 12.7585C23.4899 12.9029 23.9344 13.2946 24.1205 13.439C24.1316 13.339 24.151 13.2501 24.2455 13.189L24.2705 13.1807Z" fill="black"/>
<path d="M23.1318 12.5192C23.1818 12.1248 23.2818 11.9748 23.3124 11.7192C23.3679 11.2692 23.3013 10.9442 23.4624 10.9553C23.6235 10.9664 23.6679 11.1303 23.5874 11.5748C23.5068 12.0192 23.4402 12.1248 23.1318 12.5192ZM23.9568 13.2386C23.9263 12.9025 23.9874 12.7636 23.9679 12.5498C23.9318 12.1692 23.8179 11.9137 23.9541 11.8887C24.0929 11.8637 24.1652 11.9942 24.1791 12.3748C24.1902 12.7609 24.1568 12.8609 23.9568 13.2386ZM25.2513 13.8359C25.1124 13.547 24.9902 13.4609 24.9013 13.2748C24.7402 12.9498 24.7068 12.6803 24.5818 12.7303C24.4568 12.7803 24.4679 12.9164 24.6429 13.2359C24.8207 13.5553 24.9013 13.6192 25.2513 13.8359ZM25.7013 11.2442C25.3402 11.0553 25.1624 11.0553 24.9263 10.9331C24.5207 10.7192 24.2818 10.4775 24.2013 10.6137C24.1152 10.7442 24.2318 10.8775 24.6457 11.0692C25.0624 11.2609 25.1957 11.2748 25.7013 11.2442ZM25.8318 12.3248C25.5707 12.1109 25.4179 12.0748 25.2457 11.9359C24.9513 11.6914 24.8013 11.4498 24.7013 11.547C24.6013 11.647 24.6652 11.772 24.9818 12.0025C25.2902 12.2387 25.4013 12.2637 25.8318 12.3248Z" fill="#A70000"/>
</g>
<defs>
<clipPath id="clip0_93_11748">
<rect width="53.3333" height="30" fill="white" transform="translate(0.65918)"/>
</clipPath>
</defs>
</svg>
