<svg width="55" height="30" viewBox="0 0 55 30" fill="none" xmlns="http://www.w3.org/2000/svg">
<g clip-path="url(#clip0_93_11794)">
<path d="M-2.34198 0H57.658V30H-2.34198V0Z" fill="#DA121A"/>
<path d="M-2.34198 0H57.658V20H-2.34198V0Z" fill="#FCDD09"/>
<path d="M-2.34198 0H57.658V10H-2.34198V0Z" fill="#078930"/>
<path d="M27.658 25C33.1809 25 37.658 20.5228 37.658 15C37.658 9.47715 33.1809 5 27.658 5C22.1352 5 17.658 9.47715 17.658 15C17.658 20.5228 22.1352 25 27.658 25Z" fill="#0F47AF"/>
<path d="M27.6574 7L27.3074 8.08056L28.7518 12.5306H26.8268L26.6129 13.1944H32.7935L33.7129 12.5306H29.4574L27.6574 7Z" fill="#FCDD09"/>
<path d="M29.8136 12.0363L32.358 8.53074L29.8136 12.0363Z" fill="black"/>
<path d="M32.2253 8.43316L29.6761 11.9407L29.948 12.1383L32.4972 8.63076L32.2253 8.43316Z" fill="#FCDD09"/>
<path d="M35.2687 12.5307H34.1326L30.3465 15.2807L29.7521 13.4446H29.0521L30.9632 19.3252L31.8826 19.9891L30.5687 15.9446L35.2687 12.5307Z" fill="#FCDD09"/>
<path d="M31.1435 16.136L35.2629 17.4749L31.1435 16.136Z" fill="black"/>
<path d="M31.1968 15.9697L31.093 16.2894L35.217 17.6293L35.3209 17.3096L31.1968 15.9697Z" fill="#FCDD09"/>
<path d="M32.3578 21.4697L32.0078 20.3891L28.2217 17.6391L29.7828 16.503L29.5689 15.8391L24.5689 19.4752L24.2189 20.5558L27.6578 18.0558L32.3578 21.4697Z" fill="#FCDD09"/>
<path d="M27.8306 18.6639H27.4945V23H27.8306V18.6639Z" fill="#FCDD09"/>
<path d="M22.9575 21.4693L23.877 20.8054L25.3214 16.3554L26.8825 17.4915L27.4464 17.0804L22.4464 13.4443H21.3103L24.7492 15.9443L22.9575 21.4693Z" fill="#FCDD09"/>
<path d="M24.1715 16.136L20.0521 17.4749L24.1715 16.136Z" fill="black"/>
<path d="M24.1186 15.9712L19.9949 17.3115L20.0988 17.6311L24.2225 16.2908L24.1186 15.9712Z" fill="#FCDD09"/>
<path d="M20.0471 12.5302L20.9666 13.1941H25.6471L25.0527 15.0302L25.6166 15.4413L27.5277 9.56079L27.1777 8.48023L25.8638 12.5247H20.0471V12.5302Z" fill="#FCDD09"/>
<path d="M25.5021 12.0363L22.9576 8.53074L25.5021 12.0363Z" fill="black"/>
<path d="M23.094 8.42856L22.8221 8.62613L25.3709 12.134L25.6428 11.9365L23.094 8.42856Z" fill="#FCDD09"/>
</g>
<defs>
<clipPath id="clip0_93_11794">
<rect width="53.3333" height="30" fill="white" transform="translate(0.991211)"/>
</clipPath>
</defs>
</svg>
