<svg width="54" height="30" viewBox="0 0 54 30" fill="none" xmlns="http://www.w3.org/2000/svg">
<g clip-path="url(#clip0_93_3707)">
<path d="M53.9847 0H0.651367V30H53.9847V0Z" fill="#003399"/>
<path d="M27.3176 3.33337L26.8037 4.91949L27.5954 5.17782L27.3176 3.33337Z" fill="#FFCC00"/>
<path d="M27.3186 3.33337L27.8325 4.91949L27.0408 5.17782L27.3186 3.33337Z" fill="#FFCC00"/>
<path d="M28.9049 4.48596H27.2383V5.31929L28.9049 4.48596Z" fill="#FFCC00"/>
<path d="M28.9042 4.48596L27.557 5.46651L27.0681 4.79152L28.9042 4.48596Z" fill="#FFCC00"/>
<path d="M28.299 6.34697L27.7851 4.76086L26.9934 5.0192L28.299 6.34697Z" fill="#FFCC00"/>
<path d="M28.2989 6.34708L26.9517 5.36653L27.4406 4.69153L28.2989 6.34708Z" fill="#FFCC00"/>
<path d="M25.7312 4.48596H27.3979V5.31929L25.7312 4.48596Z" fill="#FFCC00"/>
<path d="M25.7312 4.48596L27.0784 5.46651L27.5673 4.79152L25.7312 4.48596Z" fill="#FFCC00"/>
<path d="M26.3381 6.34697L26.852 4.76086L27.6437 5.0192L26.3381 6.34697Z" fill="#FFCC00"/>
<path d="M26.3381 6.34711L27.6853 5.36656L27.1965 4.69434L26.3381 6.34711Z" fill="#FFCC00"/>
<path d="M27.3176 23.3334L26.8037 24.9195L27.5954 25.1778L27.3176 23.3334Z" fill="#FFCC00"/>
<path d="M27.3186 23.3334L27.8325 24.9195L27.0408 25.1778L27.3186 23.3334Z" fill="#FFCC00"/>
<path d="M28.9049 24.486H27.2383V25.3193L28.9049 24.486Z" fill="#FFCC00"/>
<path d="M28.9042 24.486L27.557 25.4665L27.0681 24.7915L28.9042 24.486Z" fill="#FFCC00"/>
<path d="M28.299 26.3475L27.7851 24.7614L26.9934 25.0197L28.299 26.3475Z" fill="#FFCC00"/>
<path d="M28.2989 26.3472L26.9517 25.3667L27.4406 24.6917L28.2989 26.3472Z" fill="#FFCC00"/>
<path d="M25.7312 24.486H27.3979V25.3193L25.7312 24.486Z" fill="#FFCC00"/>
<path d="M25.7312 24.486L27.0784 25.4665L27.5673 24.7915L25.7312 24.486Z" fill="#FFCC00"/>
<path d="M26.3381 26.3475L26.852 24.7614L27.6437 25.0197L26.3381 26.3475Z" fill="#FFCC00"/>
<path d="M26.3381 26.3471L27.6853 25.3666L27.1965 24.6943L26.3381 26.3471Z" fill="#FFCC00"/>
<path d="M17.3176 13.3334L16.8037 14.9195L17.5954 15.1778L17.3176 13.3334Z" fill="#FFCC00"/>
<path d="M17.3185 13.3334L17.8324 14.9195L17.0408 15.1778L17.3185 13.3334Z" fill="#FFCC00"/>
<path d="M18.9049 14.486H17.2383V15.3193L18.9049 14.486Z" fill="#FFCC00"/>
<path d="M18.9042 14.486L17.557 15.4665L17.0681 14.7915L18.9042 14.486Z" fill="#FFCC00"/>
<path d="M18.299 16.3475L17.7851 14.7614L16.9934 15.0197L18.299 16.3475Z" fill="#FFCC00"/>
<path d="M18.2989 16.3472L16.9517 15.3666L17.4406 14.6917L18.2989 16.3472Z" fill="#FFCC00"/>
<path d="M15.7312 14.486H17.3979V15.3193L15.7312 14.486Z" fill="#FFCC00"/>
<path d="M15.7312 14.486L17.0784 15.4665L17.5673 14.7915L15.7312 14.486Z" fill="#FFCC00"/>
<path d="M16.3381 16.3475L16.852 14.7614L17.6437 15.0197L16.3381 16.3475Z" fill="#FFCC00"/>
<path d="M16.3381 16.3471L17.6854 15.3666L17.1965 14.6943L16.3381 16.3471Z" fill="#FFCC00"/>
<path d="M21.3381 7.68901L22.6854 6.70845L22.1965 6.03345L21.3381 7.68901Z" fill="#FFCC00"/>
<path d="M21.3381 7.6889L21.852 6.10278L22.6437 6.36112L21.3381 7.6889Z" fill="#FFCC00"/>
<path d="M20.7312 5.82507L22.0784 6.80563L22.5673 6.13063L20.7312 5.82507Z" fill="#FFCC00"/>
<path d="M20.7312 5.82507H22.3979V6.65841L20.7312 5.82507Z" fill="#FFCC00"/>
<path d="M22.3176 4.67212L21.8037 6.25823L22.5954 6.51656L22.3176 4.67212Z" fill="#FFCC00"/>
<path d="M22.3185 4.67212L22.8324 6.25823L22.0408 6.51656L22.3185 4.67212Z" fill="#FFCC00"/>
<path d="M23.2989 7.68901L21.9517 6.70845L22.4405 6.03345L23.2989 7.68901Z" fill="#FFCC00"/>
<path d="M23.299 7.6889L22.7851 6.10278L21.9934 6.36112L23.299 7.6889Z" fill="#FFCC00"/>
<path d="M23.9033 5.82507L22.5533 6.80563L22.0645 6.13063L23.9033 5.82507Z" fill="#FFCC00"/>
<path d="M23.9049 5.82507H22.2383V6.65841L23.9049 5.82507Z" fill="#FFCC00"/>
<path d="M19.6378 11.3474L19.1239 9.76404L18.3323 10.0224L19.6378 11.3474Z" fill="#FFCC00"/>
<path d="M19.638 11.3471L18.2908 10.3693L18.7797 9.69434L19.638 11.3471Z" fill="#FFCC00"/>
<path d="M17.6787 11.3471L19.0259 10.3666L18.537 9.69434L17.6787 11.3471Z" fill="#FFCC00"/>
<path d="M17.6787 11.3473L18.1926 9.76123L18.9843 10.0196L17.6787 11.3473Z" fill="#FFCC00"/>
<path d="M17.0737 9.48596L18.421 10.4665L18.9098 9.79152L17.0737 9.48596Z" fill="#FFCC00"/>
<path d="M17.0737 9.48596H18.7404V10.3193L17.0737 9.48596Z" fill="#FFCC00"/>
<path d="M20.2431 9.48596L18.8959 10.4665L18.407 9.79152L20.2431 9.48596Z" fill="#FFCC00"/>
<path d="M20.2433 9.48596H18.5767V10.3193L20.2433 9.48596Z" fill="#FFCC00"/>
<path d="M18.6574 8.33337L19.1713 9.91949L18.3796 10.1778L18.6574 8.33337Z" fill="#FFCC00"/>
<path d="M18.6567 8.33337L18.1428 9.91949L18.9345 10.1778L18.6567 8.33337Z" fill="#FFCC00"/>
<path d="M20.2433 19.486H18.5767V20.3193L20.2433 19.486Z" fill="#FFCC00"/>
<path d="M20.2431 19.486L18.8959 20.4665L18.407 19.7915L20.2431 19.486Z" fill="#FFCC00"/>
<path d="M19.6378 21.3474L19.1239 19.764L18.3323 20.0224L19.6378 21.3474Z" fill="#FFCC00"/>
<path d="M19.638 21.3471L18.2908 20.3693L18.7797 19.6943L19.638 21.3471Z" fill="#FFCC00"/>
<path d="M17.6787 21.3471L19.0259 20.3666L18.537 19.6943L17.6787 21.3471Z" fill="#FFCC00"/>
<path d="M17.6787 21.3475L18.1926 19.7614L18.9843 20.0197L17.6787 21.3475Z" fill="#FFCC00"/>
<path d="M18.6574 18.3334L19.1713 19.9195L18.3796 20.1778L18.6574 18.3334Z" fill="#FFCC00"/>
<path d="M18.6567 18.3334L18.1428 19.9195L18.9345 20.1778L18.6567 18.3334Z" fill="#FFCC00"/>
<path d="M17.0737 19.486H18.7404V20.3193L17.0737 19.486Z" fill="#FFCC00"/>
<path d="M17.0737 19.486L18.421 20.4665L18.9098 19.7915L17.0737 19.486Z" fill="#FFCC00"/>
<path d="M23.9049 23.1445H22.2383V23.9778L23.9049 23.1445Z" fill="#FFCC00"/>
<path d="M23.9042 23.1445L22.557 24.1251L22.0681 23.4501L23.9042 23.1445Z" fill="#FFCC00"/>
<path d="M23.299 25.0082L22.7851 23.4221L21.9934 23.6805L23.299 25.0082Z" fill="#FFCC00"/>
<path d="M23.2987 25.0083L21.9487 24.0278L22.4376 23.3528L23.2987 25.0083Z" fill="#FFCC00"/>
<path d="M21.3381 25.0083L22.6854 24.0278L22.1965 23.3528L21.3381 25.0083Z" fill="#FFCC00"/>
<path d="M21.3381 25.0082L21.852 23.4221L22.6437 23.6805L21.3381 25.0082Z" fill="#FFCC00"/>
<path d="M22.3185 21.9945L22.8324 23.5806L22.0408 23.839L22.3185 21.9945Z" fill="#FFCC00"/>
<path d="M22.3176 21.9945L21.8037 23.5806L22.5954 23.839L22.3176 21.9945Z" fill="#FFCC00"/>
<path d="M20.7312 23.1445H22.3979V23.9778L20.7312 23.1445Z" fill="#FFCC00"/>
<path d="M20.7312 23.1445L22.0784 24.1251L22.5673 23.4501L20.7312 23.1445Z" fill="#FFCC00"/>
<path d="M37.3186 13.3334L37.8324 14.9195L37.0408 15.1778L37.3186 13.3334Z" fill="#FFCC00"/>
<path d="M37.3176 13.3334L36.8037 14.9195L37.5954 15.1778L37.3176 13.3334Z" fill="#FFCC00"/>
<path d="M35.7312 14.486H37.3979V15.3193L35.7312 14.486Z" fill="#FFCC00"/>
<path d="M35.7312 14.486L37.0784 15.4665L37.5673 14.7915L35.7312 14.486Z" fill="#FFCC00"/>
<path d="M36.3379 16.3475L36.8518 14.7614L37.6434 15.0197L36.3379 16.3475Z" fill="#FFCC00"/>
<path d="M36.3379 16.3472L37.6851 15.3666L37.1962 14.6917L36.3379 16.3472Z" fill="#FFCC00"/>
<path d="M38.9049 14.486H37.2383V15.3193L38.9049 14.486Z" fill="#FFCC00"/>
<path d="M38.9042 14.486L37.557 15.4665L37.0681 14.7915L38.9042 14.486Z" fill="#FFCC00"/>
<path d="M38.299 16.3475L37.7851 14.7614L36.9934 15.0197L38.299 16.3475Z" fill="#FFCC00"/>
<path d="M38.2989 16.3472L36.9517 15.3666L37.4405 14.6917L38.2989 16.3472Z" fill="#FFCC00"/>
<path d="M33.2989 7.68901L31.9517 6.70845L32.4405 6.03345L33.2989 7.68901Z" fill="#FFCC00"/>
<path d="M33.299 7.6889L32.7851 6.10278L31.9934 6.36112L33.299 7.6889Z" fill="#FFCC00"/>
<path d="M33.9042 5.82507L32.557 6.80563L32.0681 6.13063L33.9042 5.82507Z" fill="#FFCC00"/>
<path d="M33.9049 5.82507H32.2383V6.65841L33.9049 5.82507Z" fill="#FFCC00"/>
<path d="M32.3186 4.67212L32.8324 6.25823L32.0408 6.51656L32.3186 4.67212Z" fill="#FFCC00"/>
<path d="M32.3176 4.67212L31.8037 6.25823L32.5954 6.51656L32.3176 4.67212Z" fill="#FFCC00"/>
<path d="M31.3379 7.68901L32.6851 6.70845L32.1962 6.03345L31.3379 7.68901Z" fill="#FFCC00"/>
<path d="M31.3379 7.6889L31.8518 6.10278L32.6434 6.36112L31.3379 7.6889Z" fill="#FFCC00"/>
<path d="M30.7312 5.82507L32.0784 6.80563L32.5673 6.13063L30.7312 5.82507Z" fill="#FFCC00"/>
<path d="M30.7312 5.82507H32.3979V6.65841L30.7312 5.82507Z" fill="#FFCC00"/>
<path d="M34.999 11.3473L35.5129 9.76123L36.3046 10.0196L34.999 11.3473Z" fill="#FFCC00"/>
<path d="M34.999 11.3472L36.3462 10.3666L35.8574 9.69165L34.999 11.3472Z" fill="#FFCC00"/>
<path d="M36.9568 11.3472L35.6096 10.3666L36.0985 9.69165L36.9568 11.3472Z" fill="#FFCC00"/>
<path d="M36.9569 11.3473L36.443 9.76123L35.6514 10.0196L36.9569 11.3473Z" fill="#FFCC00"/>
<path d="M37.5622 9.48596L36.215 10.4665L35.7261 9.79152L37.5622 9.48596Z" fill="#FFCC00"/>
<path d="M37.5624 9.48596H35.8958V10.3193L37.5624 9.48596Z" fill="#FFCC00"/>
<path d="M34.3926 9.48596L35.7398 10.4665L36.2287 9.79152L34.3926 9.48596Z" fill="#FFCC00"/>
<path d="M34.3926 9.48596H36.0592V10.3193L34.3926 9.48596Z" fill="#FFCC00"/>
<path d="M35.9787 8.33337L35.4648 9.91949L36.2565 10.1778L35.9787 8.33337Z" fill="#FFCC00"/>
<path d="M35.9794 8.33337L36.4933 9.91949L35.7017 10.1778L35.9794 8.33337Z" fill="#FFCC00"/>
<path d="M34.3926 19.486H36.0592V20.3193L34.3926 19.486Z" fill="#FFCC00"/>
<path d="M34.3926 19.486L35.7398 20.4665L36.2287 19.7915L34.3926 19.486Z" fill="#FFCC00"/>
<path d="M34.999 21.3475L35.5129 19.7614L36.3046 20.0197L34.999 21.3475Z" fill="#FFCC00"/>
<path d="M34.999 21.3472L36.3462 20.3666L35.8574 19.6917L34.999 21.3472Z" fill="#FFCC00"/>
<path d="M36.9568 21.3472L35.6096 20.3666L36.0985 19.6917L36.9568 21.3472Z" fill="#FFCC00"/>
<path d="M36.9569 21.3475L36.443 19.7614L35.6514 20.0197L36.9569 21.3475Z" fill="#FFCC00"/>
<path d="M35.9787 18.3334L35.4648 19.9195L36.2565 20.1778L35.9787 18.3334Z" fill="#FFCC00"/>
<path d="M35.9794 18.3334L36.4933 19.9195L35.7017 20.1778L35.9794 18.3334Z" fill="#FFCC00"/>
<path d="M37.5624 19.486H35.8958V20.3193L37.5624 19.486Z" fill="#FFCC00"/>
<path d="M37.5622 19.486L36.215 20.4665L35.7261 19.7915L37.5622 19.486Z" fill="#FFCC00"/>
<path d="M30.7312 23.1445H32.3979V23.9778L30.7312 23.1445Z" fill="#FFCC00"/>
<path d="M30.7312 23.1445L32.0784 24.1251L32.5673 23.4501L30.7312 23.1445Z" fill="#FFCC00"/>
<path d="M31.3379 25.0082L31.8518 23.4221L32.6434 23.6805L31.3379 25.0082Z" fill="#FFCC00"/>
<path d="M31.3379 25.0083L32.6851 24.0278L32.1962 23.3528L31.3379 25.0083Z" fill="#FFCC00"/>
<path d="M33.2989 25.0083L31.9517 24.0278L32.4405 23.3528L33.2989 25.0083Z" fill="#FFCC00"/>
<path d="M33.299 25.0082L32.7851 23.4221L31.9934 23.6805L33.299 25.0082Z" fill="#FFCC00"/>
<path d="M32.3176 21.9945L31.8037 23.5806L32.5954 23.839L32.3176 21.9945Z" fill="#FFCC00"/>
<path d="M32.3186 21.9945L32.8324 23.5806L32.0408 23.839L32.3186 21.9945Z" fill="#FFCC00"/>
<path d="M33.9049 23.1445H32.2383V23.9778L33.9049 23.1445Z" fill="#FFCC00"/>
<path d="M33.9042 23.1445L32.557 24.1251L32.0681 23.4501L33.9042 23.1445Z" fill="#FFCC00"/>
</g>
<defs>
<clipPath id="clip0_93_3707">
<rect width="53.3333" height="30" fill="white" transform="translate(0.651367)"/>
</clipPath>
</defs>
</svg>
