<svg width="58" height="30" viewBox="0 0 58 30" fill="none" xmlns="http://www.w3.org/2000/svg">
<path d="M57.4986 0H0.498535V30H57.4986V0Z" fill="#75B2DD"/>
<path d="M28.9989 3L28.0684 5.85L29.4933 6.31389" fill="white"/>
<path d="M28.9986 3L29.9291 5.85L28.5042 6.31389" fill="white"/>
<path d="M31.8489 5.06946H28.8489V6.56946" fill="white"/>
<path d="M31.8489 5.06946L29.4183 6.83335L28.5405 5.62501" fill="white"/>
<path d="M30.7628 8.43056L29.8322 5.58057L28.4072 6.04446" fill="white"/>
<path d="M30.7626 8.43054L28.332 6.66665L29.2181 5.45276" fill="white"/>
<path d="M27.2349 8.43054L29.6654 6.66665L28.7793 5.45276" fill="white"/>
<path d="M27.2349 8.43056L28.1654 5.58057L29.5904 6.04446" fill="white"/>
<path d="M26.1489 5.06946L28.5795 6.83335L29.4573 5.62501" fill="white"/>
<path d="M26.1489 5.06946H29.1489V6.56946" fill="white"/>
<path d="M40.9989 15L38.1489 14.0695L37.6851 15.4945" fill="white"/>
<path d="M40.9989 15.0001L38.1489 15.9306L37.6851 14.5056" fill="white"/>
<path d="M38.9292 17.85V14.85H37.4292" fill="white"/>
<path d="M38.9294 17.85L37.1655 15.4194L38.3794 14.5333" fill="white"/>
<path d="M35.5684 16.7639L38.4184 15.8333L37.9545 14.4083" fill="white"/>
<path d="M35.5684 16.7639L37.3322 14.3334L38.5461 15.2195" fill="white"/>
<path d="M35.5684 13.2362L37.3322 15.6668L38.5461 14.7806" fill="white"/>
<path d="M35.5684 13.2362L38.4184 14.1668L37.9545 15.5918" fill="white"/>
<path d="M38.9294 12.15L37.1655 14.5806L38.3794 15.4667" fill="white"/>
<path d="M38.9292 12.15V15.15H37.4292" fill="white"/>
<path d="M28.9986 27L29.9291 24.15L28.5042 23.6862" fill="white"/>
<path d="M28.9989 27L28.0684 24.15L29.4933 23.6862" fill="white"/>
<path d="M26.1489 24.9305H29.1489V23.4305" fill="white"/>
<path d="M26.1489 24.9305L28.5795 23.1666L29.4656 24.3805" fill="white"/>
<path d="M27.2349 21.5695L28.1654 24.4195L29.5904 23.9556" fill="white"/>
<path d="M27.2349 21.5695L29.6654 23.3333L28.7793 24.5472" fill="white"/>
<path d="M30.7626 21.5695L28.332 23.3333L29.2181 24.5472" fill="white"/>
<path d="M30.7628 21.5695L29.8322 24.4195L28.4072 23.9556" fill="white"/>
<path d="M31.8489 24.9305L29.4183 23.1666L28.5405 24.375" fill="white"/>
<path d="M31.8489 24.9305H28.8489V23.4305" fill="white"/>
<path d="M16.9985 15.0001L19.8485 15.9306L20.3124 14.5056" fill="white"/>
<path d="M16.9985 15L19.8485 14.0695L20.3124 15.4945" fill="white"/>
<path d="M19.0684 12.15V15.15H20.5684" fill="white"/>
<path d="M19.0684 12.15L20.8322 14.5806L19.6239 15.4584" fill="white"/>
<path d="M22.4293 13.2362L19.5793 14.1668L20.0432 15.5918" fill="white"/>
<path d="M22.4292 13.2362L20.6653 15.6668L19.4514 14.7806" fill="white"/>
<path d="M22.4292 16.7639L20.6653 14.3334L19.4514 15.2195" fill="white"/>
<path d="M22.4293 16.7639L19.5793 15.8333L20.0432 14.4083" fill="white"/>
<path d="M19.0684 17.85L20.8322 15.4194L19.6239 14.5416" fill="white"/>
<path d="M19.0684 17.85V14.85H20.5684" fill="white"/>
</svg>
