<svg width="54" height="30" viewBox="0 0 54 30" fill="none" xmlns="http://www.w3.org/2000/svg">
<g clip-path="url(#clip0_93_9912)">
<path d="M53.9876 0H0.654297V30H53.9876V0Z" fill="#FDFDFD"/>
<path d="M12.2297 18.011C8.5047 18.011 4.78803 18.011 1.06581 18.011C0.668592 18.011 0.710259 18.0554 0.710259 17.7221C0.710259 15.9221 0.710259 14.1249 0.710259 12.3249C0.710259 11.9637 0.651925 12.0137 1.09637 12.0137C8.53248 12.0137 15.9686 12.0137 23.3964 12.0137C23.5269 12.0137 23.6797 12.0637 23.7741 11.9776C23.8519 11.9026 23.8047 11.7776 23.8047 11.6776C23.8047 7.8943 23.8047 4.1193 23.8047 0.335965C23.8047 0.241521 23.7575 0.124854 23.8297 0.0554095C23.913 -0.0195905 24.0602 0.0248539 24.1797 0.0248539C26.2991 0.0248539 28.4241 0.0248539 30.5436 0.0248539C30.6075 0.0248539 30.6741 0.0248539 30.7436 0.0248539C30.8908 0.0304095 30.8964 0.035965 30.9047 0.163743C30.9047 0.227632 30.9047 0.294298 30.9047 0.352632C30.9047 4.13596 30.9047 7.91097 30.9047 11.6943C30.9047 11.7943 30.8519 11.9193 30.9464 11.9887C31.0297 12.0499 31.1658 12.0082 31.2769 12.0082C38.7186 12.0082 46.1658 12.0082 53.6075 12.0082C54.0519 12.0082 53.9852 11.9526 53.9852 12.3193C53.9852 14.1276 53.9852 15.9304 53.9852 17.7415C53.9852 18.036 54.0213 18.0054 53.6602 18.0054C46.1963 18.0054 38.7352 18.0054 31.2714 18.0054C31.1602 18.0054 31.0214 17.9665 30.9408 18.0249C30.8464 18.0943 30.8991 18.2193 30.8991 18.3193C30.8991 22.1054 30.8991 25.8999 30.8991 29.686C30.8991 30.036 30.9519 29.9915 30.538 29.9915C28.3964 29.9915 26.2575 29.9915 24.1158 29.9915C23.7602 29.9915 23.7964 30.0276 23.7964 29.7276C23.7964 25.9415 23.7964 22.1471 23.7964 18.361C23.7964 18.2499 23.8491 18.1165 23.7658 18.036C23.6769 17.9499 23.5158 17.9999 23.388 17.9999C19.6714 18.011 15.9547 18.011 12.2297 18.011Z" fill="#FF0000"/>
<path d="M43.7379 26.9807C43.4657 27.0057 43.2046 26.9418 42.9435 26.9445C42.6768 26.9445 42.4101 26.9445 42.149 26.9445C41.8879 26.9445 41.6268 27.0057 41.3435 26.9807C41.3685 26.8557 41.3907 26.7362 41.4074 26.6195C41.5018 26.114 41.5796 25.6057 41.6074 25.0945C41.6129 25.039 41.6129 24.9834 41.6129 24.9251C41.6129 24.889 41.5879 24.864 41.5407 24.864C41.4768 24.864 41.4101 24.864 41.3407 24.8695C40.6296 24.9057 39.9268 24.9807 39.2268 25.0834C39.1907 25.089 39.1546 25.089 39.1074 25.0973C39.0824 24.8612 39.1546 24.6418 39.149 24.4223C39.1435 24.1973 39.1546 23.9723 39.149 23.7529C39.1379 23.5334 39.1129 23.3084 39.0963 23.0696C39.2379 23.089 39.3574 23.1001 39.474 23.1196C40.124 23.2084 40.7824 23.2807 41.4463 23.3057C41.6074 23.3112 41.6129 23.3057 41.6074 23.1807C41.5963 22.8612 41.5601 22.5418 41.5129 22.2251C41.4601 21.8862 41.4018 21.5446 41.3407 21.1946C41.5351 21.1584 41.7324 21.2196 41.9268 21.2196C42.1268 21.2196 42.324 21.2307 42.524 21.2307C42.724 21.2307 42.9213 21.2307 43.1213 21.2196C43.3157 21.2084 43.5129 21.1946 43.7074 21.1807C43.7657 21.2446 43.7185 21.3001 43.7129 21.3501C43.7074 21.4057 43.6963 21.4612 43.6824 21.514C43.5824 22.0334 43.5046 22.5584 43.4685 23.0834C43.4685 23.1223 43.4629 23.164 43.4629 23.2029C43.4629 23.289 43.4796 23.3084 43.574 23.3029C43.799 23.2918 44.0296 23.2834 44.2546 23.2668C44.824 23.2279 45.3796 23.1529 45.9407 23.0723C46.0046 23.1279 45.9768 23.1973 45.9713 23.2529C45.9185 23.6279 45.9185 24.0029 45.9296 24.3779C45.9351 24.5279 45.9546 24.6834 45.9657 24.8334C45.9713 24.9195 46.0018 25.0084 45.9657 25.0973C45.6935 25.0612 45.4213 25.0223 45.1546 24.9918C44.6407 24.9307 44.124 24.8779 43.6046 24.8668C43.4851 24.8612 43.474 24.8779 43.4796 24.9779C43.4851 25.3084 43.5268 25.6334 43.5796 25.9584C43.6268 26.2723 43.6907 26.589 43.7463 26.9084C43.7435 26.9251 43.7379 26.9501 43.7379 26.9807Z" fill="#FF0000"/>
<path d="M39.1122 4.94426C39.1956 4.90815 39.2539 4.93315 39.3206 4.94426C39.99 5.04426 40.6706 5.10815 41.3511 5.15537C41.4095 5.16092 41.4622 5.16092 41.5234 5.16092C41.5956 5.16092 41.6289 5.13592 41.6234 5.07481C41.6122 4.89981 41.5984 4.72481 41.5817 4.54981C41.5345 4.06648 41.4511 3.58037 41.3511 3.09981C41.3511 3.08593 41.3567 3.06926 41.3678 3.0387C41.5206 3.02759 41.6817 3.05259 41.8345 3.05815C41.9956 3.0637 42.1539 3.07759 42.315 3.08315C42.4678 3.0887 42.6178 3.0887 42.7706 3.08315C42.9317 3.07759 43.09 3.0637 43.2511 3.05815C43.4122 3.05259 43.565 3.02759 43.7428 3.04426C43.7178 3.16926 43.7011 3.27481 43.6789 3.38315C43.5789 3.9137 43.4956 4.44148 43.4706 4.97759C43.4706 5.01648 43.4706 5.05815 43.4706 5.09703C43.4706 5.13592 43.5067 5.15259 43.5484 5.15259C43.6317 5.15259 43.7206 5.15259 43.8039 5.14703C44.4734 5.09703 45.1428 5.04148 45.8039 4.93592C45.84 4.93037 45.8817 4.92481 45.915 4.92481C45.9622 4.92481 45.9789 4.94426 45.9789 4.98592C45.9789 5.03592 45.9734 5.08037 45.9678 5.13037C45.8956 5.67481 45.8956 6.2137 45.9678 6.75815C45.9734 6.79703 45.9734 6.8387 45.9734 6.87759C45.9734 6.89148 45.9678 6.90815 45.9567 6.93315C45.8928 6.95815 45.815 6.9387 45.7428 6.92759C45.0456 6.81648 44.34 6.7637 43.6289 6.71648C43.5928 6.71648 43.5511 6.71092 43.5178 6.71648C43.4928 6.72203 43.4706 6.74703 43.465 6.76092C43.4595 6.80537 43.4595 6.85537 43.465 6.90537C43.4956 7.4387 43.5706 7.96926 43.6789 8.49981C43.6956 8.58592 43.715 8.67481 43.7317 8.76092C43.7428 8.82481 43.715 8.84981 43.6428 8.84703C43.0567 8.78314 42.4706 8.79148 41.8845 8.81092C41.7317 8.81648 41.5817 8.83592 41.4345 8.84703C41.3622 8.85259 41.3345 8.82759 41.3511 8.76092C41.4511 8.29148 41.5289 7.81648 41.5761 7.33592C41.5928 7.14981 41.6067 6.97203 41.6122 6.78592C41.6122 6.74148 41.5817 6.71092 41.5234 6.71648C41.2678 6.73037 41.015 6.74148 40.7595 6.76648C40.2789 6.81092 39.8011 6.85537 39.3261 6.93592C39.2622 6.94703 39.1956 6.94703 39.1178 6.95537C39.0817 6.72481 39.165 6.51092 39.1595 6.28592C39.1539 6.06092 39.1539 5.83592 39.1595 5.61648C39.165 5.38037 39.1011 5.16092 39.1122 4.94426Z" fill="#FF0000"/>
<path d="M15.5926 4.94188C15.587 5.28077 15.5343 5.60577 15.5343 5.93077C15.5343 6.26132 15.587 6.58077 15.5926 6.90021C15.5454 6.96132 15.4815 6.93632 15.4315 6.93077C14.9648 6.86132 14.4954 6.80577 14.0287 6.76688C13.7454 6.74188 13.4593 6.72799 13.1815 6.70577C13.1287 6.70021 13.087 6.72521 13.087 6.76966C13.087 6.85021 13.087 6.93077 13.0926 7.00855C13.1454 7.56688 13.2176 8.12244 13.3343 8.67243C13.3398 8.71132 13.3509 8.75299 13.3509 8.79188C13.3509 8.81688 13.3259 8.83077 13.2982 8.83632C13.2815 8.83632 13.262 8.83632 13.2398 8.83632C12.5232 8.77243 11.8065 8.77243 11.0843 8.83632C10.9732 8.84743 10.9537 8.82521 10.9732 8.72521C11.0204 8.45021 11.0787 8.17521 11.1204 7.89466C11.1676 7.53077 11.2037 7.1641 11.2398 6.79466C11.2454 6.72521 11.2093 6.69466 11.1204 6.70021C10.6759 6.73632 10.2315 6.7641 9.79538 6.80577C9.50649 6.83632 9.21483 6.88077 8.92594 6.91688C8.88983 6.92244 8.84816 6.92799 8.81483 6.92799C8.7426 6.93355 8.70927 6.90855 8.72594 6.84188C8.7676 6.62799 8.77316 6.41132 8.77872 6.19744C8.78983 5.80855 8.78983 5.4141 8.72594 5.02244C8.72594 5.01133 8.72594 5.00855 8.72594 4.99744C8.72038 4.92244 8.75094 4.89744 8.84538 4.91133C9.27038 4.98077 9.70371 5.03077 10.137 5.07244C10.4676 5.10299 10.7954 5.12244 11.1259 5.14188C11.2315 5.14744 11.2565 5.12244 11.2509 5.02799C11.2037 4.4391 11.1398 3.84744 11.0093 3.26966C10.9982 3.20577 10.9843 3.14466 10.9843 3.08077C10.9787 3.04188 11.0148 3.02522 11.0565 3.02522C11.1982 3.03077 11.3398 3.03633 11.4815 3.05022C11.9732 3.0891 12.4648 3.08633 12.9565 3.04466C13.0148 3.0391 13.0676 3.0391 13.1287 3.03355C13.3482 3.01966 13.3954 2.98355 13.3426 3.22244C13.2176 3.78633 13.1426 4.36133 13.1009 4.93633C13.0843 5.17244 13.0843 5.16133 13.362 5.14188C14.0482 5.10299 14.7343 5.03633 15.4176 4.93077C15.4565 4.93633 15.5093 4.91688 15.5926 4.94188Z" fill="#FF0000"/>
<path d="M10.9825 21.1833C11.2658 21.1972 11.5269 21.2195 11.7936 21.2222C12.0491 21.2278 12.3019 21.2278 12.563 21.2222C12.8241 21.2167 13.0908 21.1972 13.3686 21.1833C13.338 21.3333 13.3214 21.4695 13.2908 21.5972C13.1964 22.0722 13.1436 22.5472 13.0964 23.025C13.0908 23.0556 13.0908 23.0889 13.0908 23.1195C13.0797 23.3139 13.0852 23.3056 13.2991 23.3C13.9491 23.275 14.6019 23.2056 15.2464 23.1139C15.3575 23.1 15.4658 23.0889 15.5908 23.075C15.6075 23.3111 15.5547 23.5306 15.5491 23.7556C15.5436 23.9806 15.5436 24.2056 15.5491 24.425C15.5547 24.6445 15.5964 24.8639 15.5964 25.1056C15.4297 25.0861 15.2936 25.0667 15.1575 25.0445C14.5464 24.9584 13.938 24.9 13.3214 24.8695C13.263 24.8639 13.2102 24.8639 13.1491 24.8695C13.1019 24.8695 13.0852 24.8945 13.0852 24.9334C13.0852 25.0139 13.0852 25.0945 13.0964 25.1722C13.1491 25.7306 13.2214 26.2861 13.3464 26.8361C13.3519 26.8667 13.3575 26.9 13.363 26.9306C13.3686 26.9695 13.338 26.9861 13.2908 26.9861C13.213 26.9861 13.138 26.9806 13.0658 26.975C12.4686 26.9195 11.8769 26.9195 11.2769 26.975C11.1825 26.9861 11.0936 26.9861 10.9797 26.9889C10.9547 26.9084 10.9741 26.8389 10.9908 26.7695C11.1214 26.1806 11.1908 25.5861 11.2408 24.9861C11.2464 24.8806 11.2297 24.8611 11.0991 24.8667C10.763 24.8861 10.4186 24.9028 10.0797 24.9361C9.6658 24.975 9.25747 25.0361 8.84358 25.0917C8.73247 25.1056 8.70747 25.0917 8.72413 24.9917C8.79636 24.5334 8.78802 24.0667 8.7658 23.6028C8.76024 23.4722 8.7408 23.3472 8.72969 23.2222C8.72413 23.1778 8.69913 23.1278 8.75469 23.0722C8.87413 23.0861 9.00469 23.1084 9.13247 23.1222C9.7658 23.2084 10.4047 23.2778 11.0519 23.2972C11.0991 23.2972 11.1464 23.3028 11.1936 23.2917C11.2102 23.2861 11.2352 23.2611 11.2408 23.2417C11.2464 23.2278 11.2464 23.2111 11.2408 23.1972C11.1936 22.6084 11.1297 22.0167 10.9991 21.4389C10.988 21.3639 10.963 21.2833 10.9825 21.1833Z" fill="#FF0000"/>
</g>
<defs>
<clipPath id="clip0_93_9912">
<rect width="53.3333" height="30" fill="white" transform="translate(0.654297)"/>
</clipPath>
</defs>
</svg>
