<svg width="54" height="30" viewBox="0 0 54 30" fill="none" xmlns="http://www.w3.org/2000/svg">
<g clip-path="url(#clip0_93_43230)">
<path d="M0.333008 0H53.6663V30H0.333008V0Z" fill="#CE1126"/>
<path d="M4.81372 4.19995H49.1859V25.8H4.81372V4.19995Z" fill="#007A5E"/>
<path d="M6.19971 4.19995H47.7997L6.19971 25.8H47.7997L6.19971 4.19995Z" fill="#FCD116"/>
<path d="M26.9999 18.5999C28.9881 18.5999 30.5999 16.9881 30.5999 14.9999C30.5999 13.0117 28.9881 11.3999 26.9999 11.3999C25.0117 11.3999 23.3999 13.0117 23.3999 14.9999C23.3999 16.9881 25.0117 18.5999 26.9999 18.5999Z" fill="#CE1126"/>
<path d="M8.7749 15.0389C9.2249 15.8778 10.0999 16.7889 10.8638 17.1139C10.8749 16.2639 10.5749 15.1695 10.1582 14.3L8.7749 15.0389Z" fill="#CE1126"/>
<path d="M8.01083 12.1639C8.66639 13.5251 6.31639 16.7751 10.2247 17.5334C9.74416 16.8723 9.43028 15.7889 9.54972 14.9195C10.3692 15.2306 11.2358 16.1445 11.5803 16.8445C12.6053 13.1251 8.96083 13.3501 8.01083 12.1639Z" fill="#FCD116"/>
<path d="M16.9994 25.95L15.8549 29.4805L18.8549 27.3H15.1438L18.1438 29.4805L16.9994 25.95Z" fill="#FCD116"/>
<path d="M26.9994 25.95L25.8549 29.4805L28.8549 27.3H25.1438L28.1438 29.4805L26.9994 25.95Z" fill="#FCD116"/>
<path d="M37.0001 25.95L35.8556 29.4805L38.8556 27.3H35.1445L38.1445 29.4805L37.0001 25.95Z" fill="#FCD116"/>
<path d="M37.0001 0.149902L35.8556 3.68046L38.8556 1.4999H35.1445L38.1445 3.68046L37.0001 0.149902Z" fill="#FCD116"/>
<path d="M26.9994 0.149902L25.8549 3.68046L28.8549 1.4999H25.1438L28.1438 3.68046L26.9994 0.149902Z" fill="#FCD116"/>
<path d="M16.9994 0.149902L15.8549 3.68046L18.8549 1.4999H15.1438L18.1438 3.68046L16.9994 0.149902Z" fill="#FCD116"/>
<path d="M36.9801 0.149902L35.8356 3.68046L38.8356 1.4999H35.1245L38.1245 3.68046L36.9801 0.149902Z" fill="#FCD116"/>
<path d="M26.9994 0.149902L25.8549 3.68046L28.8549 1.4999H25.1438L28.1438 3.68046L26.9994 0.149902Z" fill="#FCD116"/>
<path d="M26.9997 12.3306L25.0608 17.6695L30.1386 14.3723H23.8608L28.9386 17.6695L26.9997 12.3306Z" fill="#FCD116"/>
<path d="M37.0001 0.149902L35.8556 3.68046L38.8556 1.4999H35.1445L38.1445 3.68046L37.0001 0.149902Z" fill="#FCD116"/>
<path d="M26.9802 25.9307L25.8358 29.4612L28.8358 27.2807H25.1274L28.1274 29.4612L26.9802 25.9307Z" fill="#FCD116"/>
<path d="M36.9938 25.9584L35.8466 29.4973L38.8549 27.3112H35.1355L38.1438 29.4973L36.9938 25.9584Z" fill="#FCD116"/>
</g>
<defs>
<clipPath id="clip0_93_43230">
<rect width="53.3333" height="30" fill="white" transform="translate(0.333008)"/>
</clipPath>
</defs>
</svg>
