<svg width="54" height="30" viewBox="0 0 54 30" fill="none" xmlns="http://www.w3.org/2000/svg">
<g clip-path="url(#clip0_93_11822)">
<path d="M53.7089 0H0.264435V30H53.7089V0Z" fill="#FCD116"/>
<path d="M53.7089 15H0.264435V30H53.7089V15Z" fill="#009E49"/>
<path d="M18.0783 0H0.264435V30H18.0783V0Z" fill="#CE1126"/>
<path d="M9.17299 10.5475L7.79799 14.7836L9.91743 15.4753" fill="black"/>
<path d="M9.17363 10.5475L10.5486 14.7836L8.42918 15.4725" fill="black"/>
<path d="M13.4064 13.625H8.95358V15.8528" fill="black"/>
<path d="M13.4065 13.625L9.80374 16.2444L8.49541 14.4417" fill="black"/>
<path d="M11.7891 18.6029L10.4141 14.3668L8.29462 15.0585" fill="black"/>
<path d="M11.7898 18.6029L8.18704 15.9835L9.49538 14.1807" fill="black"/>
<path d="M6.55418 18.6029L10.157 15.9835L8.84863 14.1807" fill="black"/>
<path d="M6.55418 18.6029L7.92918 14.3668L10.0486 15.0585" fill="black"/>
<path d="M4.93703 13.625L8.5398 16.2444L9.84813 14.4417" fill="black"/>
<path d="M4.93703 13.625H9.38981V15.8528" fill="black"/>
</g>
<defs>
<clipPath id="clip0_93_11822">
<rect width="53.3333" height="30" fill="white" transform="translate(0.320312)"/>
</clipPath>
</defs>
</svg>
