<svg width="54" height="30" viewBox="0 0 54 30" fill="none" xmlns="http://www.w3.org/2000/svg">
<g clip-path="url(#clip0_93_43798)">
<path d="M56.993 0H-3.00696V30H56.993V0Z" fill="#0D3B99"/>
<path d="M56.993 10.0027H-3.00696V20.0055H56.993V10.0027Z" fill="white"/>
<path d="M26.9931 13.3334L26.4764 14.9167L27.2681 15.175L26.9931 13.3334Z" fill="#0D3B99"/>
<path d="M26.9927 13.3334L27.5093 14.9167L26.7177 15.175L26.9927 13.3334Z" fill="#0D3B99"/>
<path d="M28.576 14.4833H26.9093V15.3167L28.576 14.4833Z" fill="#0D3B99"/>
<path d="M28.5759 14.4833L27.2259 15.4611L26.7397 14.7889L28.5759 14.4833Z" fill="#0D3B99"/>
<path d="M25.4093 14.4833L26.7593 15.4611L27.2454 14.7889L25.4093 14.4833Z" fill="#0D3B99"/>
<path d="M25.4093 14.4833H27.076V15.3167L25.4093 14.4833Z" fill="#0D3B99"/>
<path d="M27.9709 16.35L27.4543 14.7667L26.6626 15.0167L27.9709 16.35Z" fill="#0D3B99"/>
<path d="M27.9698 16.3499L26.6254 15.3666L27.1115 14.6943L27.9698 16.3499Z" fill="#0D3B99"/>
<path d="M26.0149 16.3499L27.3594 15.3666L26.8732 14.6943L26.0149 16.3499Z" fill="#0D3B99"/>
<path d="M26.0149 16.35L26.5316 14.7667L27.3232 15.0167L26.0149 16.35Z" fill="#0D3B99"/>
<path d="M35.3262 10.6666L34.8096 12.2527L35.604 12.5111L35.3262 10.6666Z" fill="#0D3B99"/>
<path d="M35.3259 10.6666L35.8426 12.2527L35.0509 12.5111L35.3259 10.6666Z" fill="#0D3B99"/>
<path d="M36.9097 11.8193H35.243V12.6527L36.9097 11.8193Z" fill="#0D3B99"/>
<path d="M36.9095 11.8193L35.5595 12.7971L35.0762 12.1249L36.9095 11.8193Z" fill="#0D3B99"/>
<path d="M33.743 11.8193L35.0875 12.7971L35.5792 12.1249L33.743 11.8193Z" fill="#0D3B99"/>
<path d="M33.743 11.8193H35.4042V12.6527L33.743 11.8193Z" fill="#0D3B99"/>
<path d="M36.3047 13.6807L35.7908 12.0974L34.9963 12.3529L36.3047 13.6807Z" fill="#0D3B99"/>
<path d="M36.3045 13.6805L34.9545 12.7027L35.4461 12.0305L36.3045 13.6805Z" fill="#0D3B99"/>
<path d="M34.3481 13.6805L35.6926 12.7027L35.2065 12.0305L34.3481 13.6805Z" fill="#0D3B99"/>
<path d="M34.3481 13.6807L34.8593 12.0974L35.6565 12.3529L34.3481 13.6807Z" fill="#0D3B99"/>
<path d="M35.3262 15.6666L34.8096 17.25L35.604 17.5083L35.3262 15.6666Z" fill="#0D3B99"/>
<path d="M35.3259 15.6666L35.8426 17.25L35.0509 17.5083L35.3259 15.6666Z" fill="#0D3B99"/>
<path d="M36.9097 16.8166H35.243V17.6527L36.9097 16.8166Z" fill="#0D3B99"/>
<path d="M36.9095 16.8166L35.5595 17.7971L35.0762 17.1249L36.9095 16.8166Z" fill="#0D3B99"/>
<path d="M33.743 16.8166L35.0875 17.7971L35.5792 17.1249L33.743 16.8166Z" fill="#0D3B99"/>
<path d="M33.743 16.8166H35.4042V17.6527L33.743 16.8166Z" fill="#0D3B99"/>
<path d="M36.3047 18.6835L35.7908 17.0946L34.9963 17.3529L36.3047 18.6835Z" fill="#0D3B99"/>
<path d="M36.3045 18.6833L34.9545 17.6999L35.4461 17.0277L36.3045 18.6833Z" fill="#0D3B99"/>
<path d="M34.3481 18.6833L35.6926 17.6999L35.2065 17.0277L34.3481 18.6833Z" fill="#0D3B99"/>
<path d="M34.3481 18.6835L34.8593 17.0946L35.6565 17.3529L34.3481 18.6835Z" fill="#0D3B99"/>
<path d="M18.66 10.6666L18.1433 12.2527L18.935 12.5111L18.66 10.6666Z" fill="#0D3B99"/>
<path d="M18.6599 10.6666L19.1765 12.2527L18.3821 12.5111L18.6599 10.6666Z" fill="#0D3B99"/>
<path d="M20.2427 11.8193H18.5815V12.6527L20.2427 11.8193Z" fill="#0D3B99"/>
<path d="M20.2421 11.8193L18.8977 12.7971L18.406 12.1249L20.2421 11.8193Z" fill="#0D3B99"/>
<path d="M17.0762 11.8193L18.4262 12.7971L18.9095 12.1249L17.0762 11.8193Z" fill="#0D3B99"/>
<path d="M17.0762 11.8193H18.7428V12.6527L17.0762 11.8193Z" fill="#0D3B99"/>
<path d="M19.6378 13.6807L19.1267 12.0974L18.3295 12.3529L19.6378 13.6807Z" fill="#0D3B99"/>
<path d="M19.6367 13.6805L18.2922 12.7027L18.7783 12.0305L19.6367 13.6805Z" fill="#0D3B99"/>
<path d="M17.6813 13.6805L19.0313 12.7027L18.5396 12.0305L17.6813 13.6805Z" fill="#0D3B99"/>
<path d="M17.6813 13.6807L18.1952 12.0974L18.9896 12.3529L17.6813 13.6807Z" fill="#0D3B99"/>
<path d="M18.66 15.6666L18.1433 17.25L18.935 17.5083L18.66 15.6666Z" fill="#0D3B99"/>
<path d="M18.6599 15.6666L19.1765 17.25L18.3821 17.5083L18.6599 15.6666Z" fill="#0D3B99"/>
<path d="M20.2427 16.8166H18.5815V17.6527L20.2427 16.8166Z" fill="#0D3B99"/>
<path d="M20.2421 16.8166L18.8977 17.7971L18.406 17.1249L20.2421 16.8166Z" fill="#0D3B99"/>
<path d="M17.0762 16.8166L18.4262 17.7971L18.9095 17.1249L17.0762 16.8166Z" fill="#0D3B99"/>
<path d="M17.0762 16.8166H18.7428V17.6527L17.0762 16.8166Z" fill="#0D3B99"/>
<path d="M19.6378 18.6835L19.1267 17.0946L18.3295 17.3529L19.6378 18.6835Z" fill="#0D3B99"/>
<path d="M19.6367 18.6833L18.2922 17.6999L18.7783 17.0277L19.6367 18.6833Z" fill="#0D3B99"/>
<path d="M17.6813 18.6833L19.0313 17.6999L18.5396 17.0277L17.6813 18.6833Z" fill="#0D3B99"/>
<path d="M17.6813 18.6835L18.1952 17.0946L18.9896 17.3529L17.6813 18.6835Z" fill="#0D3B99"/>
</g>
<defs>
<clipPath id="clip0_93_43798">
<rect width="53.3333" height="30" fill="white" transform="translate(0.326172)"/>
</clipPath>
</defs>
</svg>
