<svg width="55" height="30" viewBox="0 0 55 30" fill="none" xmlns="http://www.w3.org/2000/svg">
<g clip-path="url(#clip0_93_9919)">
<path d="M54.3197 0H0.986328V30H54.3197V0Z" fill="#DE2910"/>
<path d="M27.6531 14.9945C22.3892 12.7695 24.7225 5.91393 29.7586 6.25838C28.7392 6.78337 28.5947 7.75837 29.1725 8.66393C29.8225 9.67781 29.1114 11.3028 28.2336 11.7028C26.7836 12.3556 26.492 14.0889 27.6531 14.9945Z" fill="white"/>
<path d="M27.3666 10.0443L27.0721 10.5082L26.9666 9.96932L26.4305 9.83043L26.911 9.56099L26.8749 9.01099L27.2804 9.38599L27.7943 9.18599L27.5638 9.68599L27.9138 10.111L27.3666 10.0443Z" fill="#DE2910"/>
<path d="M27.684 14.9388C27.0478 14.6138 26.534 13.9276 26.309 13.1193C26.0534 12.1832 26.1979 11.1832 26.7145 10.3693L26.6034 10.2999C26.0729 11.1443 25.9173 12.186 26.184 13.1554C26.4201 14.0165 26.9451 14.711 27.6228 15.061L27.684 14.9388Z" fill="#DE2910"/>
<path d="M27.6585 14.9944C28.1474 9.29999 35.389 9.40554 36.614 14.2944C35.8029 13.4889 34.8279 13.65 34.1502 14.4805C33.3891 15.4111 31.6196 15.2416 30.9696 14.525C29.8974 13.3555 28.1585 13.6139 27.6585 14.9944Z" fill="white"/>
<path d="M32.2774 13.1944L31.7412 13.0555L32.2218 12.786L32.1857 12.236L32.5912 12.611L33.1051 12.411L32.8746 12.911L33.2246 13.336L32.6801 13.2721L32.3857 13.736L32.2774 13.1944Z" fill="#DE2910"/>
<path d="M27.7226 15.0054C27.8365 14.2999 28.3281 13.5999 29.0337 13.136C29.8448 12.6054 30.8448 12.436 31.7726 12.6721L31.8031 12.5471C30.8337 12.3027 29.7976 12.4777 28.9587 13.0332C28.2142 13.5221 27.7142 14.2388 27.5948 14.9888L27.7226 15.0054Z" fill="#DE2910"/>
<path d="M27.6585 15.0002C33.2224 13.7058 35.364 20.6252 31.0891 23.3058C31.6029 22.2863 31.1502 21.4058 30.1502 21.0169C29.0307 20.5808 28.6446 18.8419 29.1252 18.0058C29.9141 16.6308 29.1224 15.0558 27.6585 15.0002Z" fill="white"/>
<path d="M30.7971 18.8389L30.761 18.2889L31.1665 18.6639L31.6804 18.4639L31.4499 18.9639L31.7999 19.3889L31.2554 19.3251L30.961 19.7889L30.8499 19.2501L30.3138 19.1112L30.7971 18.8389Z" fill="#DE2910"/>
<path d="M27.6669 15.0637C28.3725 14.9526 29.1919 15.2026 29.8475 15.7276C30.603 16.3331 31.0725 17.2331 31.1364 18.1915L31.2669 18.1803C31.203 17.1859 30.7114 16.2498 29.928 15.6248C29.2336 15.0637 28.3975 14.8137 27.6419 14.9304L27.6669 15.0637Z" fill="#DE2910"/>
<path d="M27.6523 15.0058C30.6023 19.9002 24.6884 24.0697 20.8162 20.8364C21.9467 21.0114 22.6412 20.3058 22.7023 19.2364C22.7717 18.0364 24.3023 17.1308 25.2467 17.3308C26.8023 17.6502 28.0579 16.4141 27.6523 15.0058Z" fill="white"/>
<path d="M24.9721 19.1748L25.486 18.9748L25.2554 19.4748L25.6054 19.8998L25.0554 19.8359L24.7637 20.2998L24.6582 19.7609L24.1221 19.6221L24.6026 19.3526L24.5665 18.8026L24.9721 19.1748Z" fill="#DE2910"/>
<path d="M27.5927 15.0361C27.9177 15.675 27.9316 16.525 27.6316 17.3167C27.2927 18.2223 26.5815 18.9473 25.6871 19.3056L25.7371 19.4251C26.6677 19.0556 27.401 18.3 27.7566 17.3612C28.0704 16.525 28.0565 15.6556 27.7121 14.975L27.5927 15.0361Z" fill="#DE2910"/>
<path d="M27.6478 14.9999C23.9089 19.3193 18.1089 14.9804 19.9923 10.2999C20.1784 11.4304 21.0562 11.8693 22.0978 11.5999C23.2617 11.2943 24.5923 12.4749 24.6978 13.436C24.8673 15.011 26.4339 15.8193 27.6478 14.9999Z" fill="white"/>
<path d="M22.8525 13.7389L23.2025 14.1639L22.6581 14.1L22.3637 14.5639L22.2525 14.025L21.7164 13.8861L22.197 13.6166L22.1609 13.0667L22.5664 13.4416L23.0803 13.2417L22.8525 13.7389Z" fill="#DE2910"/>
<path d="M27.6025 14.9558C27.0969 15.4613 26.2886 15.7363 25.4469 15.7002C24.483 15.6558 23.5719 15.2058 22.958 14.4641L22.858 14.5502C23.4969 15.3197 24.4441 15.7863 25.4441 15.8308C26.333 15.8697 27.158 15.5863 27.6997 15.0502L27.6025 14.9558Z" fill="#DE2910"/>
</g>
<defs>
<clipPath id="clip0_93_9919">
<rect width="53.3333" height="30" fill="white" transform="translate(0.986328)"/>
</clipPath>
</defs>
</svg>
