<svg width="55" height="30" viewBox="0 0 55 30" fill="none" xmlns="http://www.w3.org/2000/svg">
<g clip-path="url(#clip0_93_9936)">
<path d="M54.3187 0H0.985352V30H54.3187V0Z" fill="#FF9933"/>
<path d="M54.3187 10H0.985352V20H54.3187V10Z" fill="white"/>
<path d="M54.3187 20H0.985352V30H54.3187V20Z" fill="#128807"/>
<path d="M27.6522 19C29.8613 19 31.6522 17.2091 31.6522 15C31.6522 12.7909 29.8613 11 27.6522 11C25.4431 11 23.6522 12.7909 23.6522 15C23.6522 17.2091 25.4431 19 27.6522 19Z" fill="#000088"/>
<path d="M27.6522 18.5C29.5852 18.5 31.1522 16.933 31.1522 15C31.1522 13.067 29.5852 11.5 27.6522 11.5C25.7192 11.5 24.1522 13.067 24.1522 15C24.1522 16.933 25.7192 18.5 27.6522 18.5Z" fill="white"/>
<path d="M27.6518 15.6999C28.0384 15.6999 28.3518 15.3865 28.3518 14.9999C28.3518 14.6133 28.0384 14.2999 27.6518 14.2999C27.2652 14.2999 26.9518 14.6133 26.9518 14.9999C26.9518 15.3865 27.2652 15.6999 27.6518 15.6999Z" fill="#000088"/>
<path d="M31.1213 15.6332C31.2195 15.6332 31.2991 15.5536 31.2991 15.4554C31.2991 15.3572 31.2195 15.2776 31.1213 15.2776C31.0231 15.2776 30.9435 15.3572 30.9435 15.4554C30.9435 15.5536 31.0231 15.6332 31.1213 15.6332Z" fill="#000088"/>
<path d="M27.6524 18.5L27.7719 16.4L27.6524 15.4L27.533 16.4L27.6524 18.5Z" fill="#000088"/>
<path d="M30.8858 16.5165C30.984 16.5165 31.0636 16.4369 31.0636 16.3387C31.0636 16.2405 30.984 16.1609 30.8858 16.1609C30.7877 16.1609 30.7081 16.2405 30.7081 16.3387C30.7081 16.4369 30.7877 16.5165 30.8858 16.5165Z" fill="#000088"/>
<path d="M26.7461 18.3804L27.4072 16.3832L27.5517 15.386L27.1794 16.3193L26.7461 18.3804Z" fill="#000088"/>
<path d="M30.4297 17.3081C30.5279 17.3081 30.6075 17.2285 30.6075 17.1303C30.6075 17.0321 30.5279 16.9525 30.4297 16.9525C30.3315 16.9525 30.2519 17.0321 30.2519 17.1303C30.2519 17.2285 30.3315 17.3081 30.4297 17.3081Z" fill="#000088"/>
<path d="M25.9022 18.0304L27.0549 16.2693L27.4522 15.3416L26.8494 16.1471L25.9022 18.0304Z" fill="#000088"/>
<path d="M29.7832 17.9556C29.8814 17.9556 29.961 17.876 29.961 17.7778C29.961 17.6796 29.8814 17.6 29.7832 17.6C29.685 17.6 29.6054 17.6796 29.6054 17.7778C29.6054 17.876 29.685 17.9556 29.7832 17.9556Z" fill="#000088"/>
<path d="M25.1794 17.472L26.7489 16.072L27.3711 15.2776L26.5767 15.8998L25.1794 17.472Z" fill="#000088"/>
<path d="M28.9905 18.4112C29.0887 18.4112 29.1683 18.3316 29.1683 18.2334C29.1683 18.1352 29.0887 18.0556 28.9905 18.0556C28.8923 18.0556 28.8127 18.1352 28.8127 18.2334C28.8127 18.3316 28.8923 18.4112 28.9905 18.4112Z" fill="#000088"/>
<path d="M24.6211 16.7501L26.5016 15.8029L27.3072 15.2001L26.3794 15.5974L24.6211 16.7501Z" fill="#000088"/>
<path d="M28.1073 18.6472C28.2055 18.6472 28.2851 18.5676 28.2851 18.4695C28.2851 18.3713 28.2055 18.2917 28.1073 18.2917C28.0091 18.2917 27.9295 18.3713 27.9295 18.4695C27.9295 18.5676 28.0091 18.6472 28.1073 18.6472Z" fill="#000088"/>
<path d="M24.2709 15.9052L26.332 15.4774L27.2653 15.1052L26.2681 15.2497L24.2709 15.9052Z" fill="#000088"/>
<path d="M27.1967 18.6472C27.2949 18.6472 27.3745 18.5676 27.3745 18.4695C27.3745 18.3713 27.2949 18.2917 27.1967 18.2917C27.0985 18.2917 27.0189 18.3713 27.0189 18.4695C27.0189 18.5676 27.0985 18.6472 27.1967 18.6472Z" fill="#000088"/>
<path d="M24.1522 15.0002L26.2522 15.1197L27.2522 15.0002L26.2522 14.8808L24.1522 15.0002Z" fill="#000088"/>
<path d="M26.3134 18.4112C26.4116 18.4112 26.4912 18.3316 26.4912 18.2334C26.4912 18.1352 26.4116 18.0556 26.3134 18.0556C26.2152 18.0556 26.1356 18.1352 26.1356 18.2334C26.1356 18.3316 26.2152 18.4112 26.3134 18.4112Z" fill="#000088"/>
<path d="M24.2709 14.0942L26.2681 14.7553L27.2653 14.8998L26.332 14.5276L24.2709 14.0942Z" fill="#000088"/>
<path d="M25.5216 17.9556C25.6198 17.9556 25.6994 17.876 25.6994 17.7778C25.6994 17.6796 25.6198 17.6 25.5216 17.6C25.4234 17.6 25.3438 17.6796 25.3438 17.7778C25.3438 17.876 25.4234 17.9556 25.5216 17.9556Z" fill="#000088"/>
<path d="M24.6211 13.25L26.3822 14.4028L27.31 14.8L26.5044 14.1972L24.6211 13.25Z" fill="#000088"/>
<path d="M24.8746 17.3081C24.9728 17.3081 25.0524 17.2285 25.0524 17.1303C25.0524 17.0321 24.9728 16.9525 24.8746 16.9525C24.7764 16.9525 24.6968 17.0321 24.6968 17.1303C24.6968 17.2285 24.7764 17.3081 24.8746 17.3081Z" fill="#000088"/>
<path d="M25.1794 12.5276L26.5794 14.097L27.3739 14.7193L26.7517 13.9248L25.1794 12.5276Z" fill="#000088"/>
<path d="M24.4181 16.5165C24.5163 16.5165 24.5959 16.4369 24.5959 16.3387C24.5959 16.2405 24.5163 16.1609 24.4181 16.1609C24.3199 16.1609 24.2403 16.2405 24.2403 16.3387C24.2403 16.4369 24.3199 16.5165 24.4181 16.5165Z" fill="#000088"/>
<path d="M25.9022 11.9692L26.8494 13.8498L27.4522 14.6553L27.0549 13.7276L25.9022 11.9692Z" fill="#000088"/>
<path d="M24.1821 15.6332C24.2803 15.6332 24.3599 15.5536 24.3599 15.4554C24.3599 15.3572 24.2803 15.2776 24.1821 15.2776C24.084 15.2776 24.0044 15.3572 24.0044 15.4554C24.0044 15.5536 24.084 15.6332 24.1821 15.6332Z" fill="#000088"/>
<path d="M26.7461 11.6192L27.1739 13.6803L27.5461 14.6136L27.4016 13.6164L26.7461 11.6192Z" fill="#000088"/>
<path d="M24.1821 14.7224C24.2803 14.7224 24.3599 14.6428 24.3599 14.5446C24.3599 14.4464 24.2803 14.3668 24.1821 14.3668C24.084 14.3668 24.0044 14.4464 24.0044 14.5446C24.0044 14.6428 24.084 14.7224 24.1821 14.7224Z" fill="#000088"/>
<path d="M27.6524 11.5L27.533 13.6L27.6524 14.6L27.7719 13.6L27.6524 11.5Z" fill="#000088"/>
<path d="M24.4181 13.8388C24.5163 13.8388 24.5959 13.7592 24.5959 13.661C24.5959 13.5628 24.5163 13.4832 24.4181 13.4832C24.3199 13.4832 24.2403 13.5628 24.2403 13.661C24.2403 13.7592 24.3199 13.8388 24.4181 13.8388Z" fill="#000088"/>
<path d="M28.5575 11.6192L27.8963 13.6164L27.7519 14.6136L28.1241 13.6803L28.5575 11.6192Z" fill="#000088"/>
<path d="M24.8746 13.0472C24.9728 13.0472 25.0524 12.9676 25.0524 12.8694C25.0524 12.7712 24.9728 12.6917 24.8746 12.6917C24.7764 12.6917 24.6968 12.7712 24.6968 12.8694C24.6968 12.9676 24.7764 13.0472 24.8746 13.0472Z" fill="#000088"/>
<path d="M29.402 11.9692L28.2493 13.7303L27.8521 14.6526L28.4548 13.847L29.402 11.9692Z" fill="#000088"/>
<path d="M25.5216 12.3999C25.6198 12.3999 25.6994 12.3203 25.6994 12.2222C25.6994 12.124 25.6198 12.0444 25.5216 12.0444C25.4234 12.0444 25.3438 12.124 25.3438 12.2222C25.3438 12.3203 25.4234 12.3999 25.5216 12.3999Z" fill="#000088"/>
<path d="M30.1244 12.5276L28.555 13.9276L27.9327 14.722L28.7272 14.0998L30.1244 12.5276Z" fill="#000088"/>
<path d="M26.3134 11.9447C26.4116 11.9447 26.4912 11.8651 26.4912 11.7669C26.4912 11.6687 26.4116 11.5891 26.3134 11.5891C26.2152 11.5891 26.1356 11.6687 26.1356 11.7669C26.1356 11.8651 26.2152 11.9447 26.3134 11.9447Z" fill="#000088"/>
<path d="M30.6832 13.25L28.8026 14.1972L27.9998 14.8L28.9276 14.4028L30.6832 13.25Z" fill="#000088"/>
<path d="M27.1967 11.7084C27.2949 11.7084 27.3745 11.6288 27.3745 11.5306C27.3745 11.4324 27.2949 11.3528 27.1967 11.3528C27.0985 11.3528 27.0189 11.4324 27.0189 11.5306C27.0189 11.6288 27.0985 11.7084 27.1967 11.7084Z" fill="#000088"/>
<path d="M31.0324 14.0942L28.9713 14.522L28.038 14.8942L29.0352 14.7498L31.0324 14.0942Z" fill="#000088"/>
<path d="M28.1073 11.7084C28.2055 11.7084 28.2851 11.6288 28.2851 11.5306C28.2851 11.4324 28.2055 11.3528 28.1073 11.3528C28.0091 11.3528 27.9295 11.4324 27.9295 11.5306C27.9295 11.6288 28.0091 11.7084 28.1073 11.7084Z" fill="#000088"/>
<path d="M31.1524 15.0002L29.0524 14.8808L28.0524 15.0002L29.0524 15.1197L31.1524 15.0002Z" fill="#000088"/>
<path d="M28.9905 11.9447C29.0887 11.9447 29.1683 11.8651 29.1683 11.7669C29.1683 11.6687 29.0887 11.5891 28.9905 11.5891C28.8923 11.5891 28.8127 11.6687 28.8127 11.7669C28.8127 11.8651 28.8923 11.9447 28.9905 11.9447Z" fill="#000088"/>
<path d="M31.0324 15.9056L29.0352 15.2445L28.038 15.1L28.9713 15.4723L31.0324 15.9056Z" fill="#000088"/>
<path d="M29.7832 12.3999C29.8814 12.3999 29.961 12.3203 29.961 12.2222C29.961 12.124 29.8814 12.0444 29.7832 12.0444C29.685 12.0444 29.6054 12.124 29.6054 12.2222C29.6054 12.3203 29.685 12.3999 29.7832 12.3999Z" fill="#000088"/>
<path d="M30.6832 16.7501L28.922 15.5974L27.9998 15.2001L28.8054 15.8029L30.6832 16.7501Z" fill="#000088"/>
<path d="M30.4297 13.0472C30.5279 13.0472 30.6075 12.9676 30.6075 12.8694C30.6075 12.7712 30.5279 12.6917 30.4297 12.6917C30.3315 12.6917 30.2519 12.7712 30.2519 12.8694C30.2519 12.9676 30.3315 13.0472 30.4297 13.0472Z" fill="#000088"/>
<path d="M30.1239 17.4724L28.7239 15.9029L27.9295 15.2807L28.5517 16.0751L30.1239 17.4724Z" fill="#000088"/>
<path d="M30.8858 13.8388C30.984 13.8388 31.0636 13.7592 31.0636 13.661C31.0636 13.5628 30.984 13.4832 30.8858 13.4832C30.7877 13.4832 30.7081 13.5628 30.7081 13.661C30.7081 13.7592 30.7877 13.8388 30.8858 13.8388Z" fill="#000088"/>
<path d="M29.402 18.0307L28.4548 16.1502L27.8521 15.3474L28.2493 16.2752L29.402 18.0307Z" fill="#000088"/>
<path d="M31.1213 14.7224C31.2195 14.7224 31.2991 14.6428 31.2991 14.5446C31.2991 14.4464 31.2195 14.3668 31.1213 14.3668C31.0231 14.3668 30.9435 14.4464 30.9435 14.5446C30.9435 14.6428 31.0231 14.7224 31.1213 14.7224Z" fill="#000088"/>
<path d="M28.5577 18.3804L28.1299 16.3193L27.7577 15.386L27.9021 16.3832L28.5577 18.3804Z" fill="#000088"/>
</g>
<defs>
<clipPath id="clip0_93_9936">
<rect width="53.3333" height="30" fill="white" transform="translate(0.985352)"/>
</clipPath>
</defs>
</svg>
