<svg width="55" height="30" viewBox="0 0 55 30" fill="none" xmlns="http://www.w3.org/2000/svg">
<g clip-path="url(#clip0_93_9994)">
<path d="M54.6758 -0.436157H0.653564V30.4333H54.6758V-0.436157Z" fill="#DA0000"/>
<path d="M54.6758 -0.436157H0.653564V20.1444H54.6758V-0.436157Z" fill="white"/>
<path d="M54.6758 -0.436157H0.653564V9.85273H54.6758V-0.436157Z" fill="#239F40"/>
<path d="M5.93416 9.37527H4.73416V8.89471H4.01471V9.1336H4.49527V9.37249H3.77582V8.65304H4.73694V8.17249H4.97582V9.1336H5.21471V8.17249H5.4536V9.1336H5.69249V8.17249H5.93138V9.37527H5.93416ZM3.53416 9.37527H2.33416V8.89471H1.61471V9.37527H1.37582V8.65582H2.57582V9.13638H3.29527V8.89749H2.81471V8.6586H3.53416V9.37527ZM2.09249 9.37527H1.8536V9.13638H2.09249V9.37527ZM4.49527 8.41415H1.37305V8.17526H4.49527V8.41415Z" fill="white"/>
<path d="M5.93416 10.0946H3.77582V9.61401H5.93694V10.0946H5.93416ZM3.53416 10.0946H1.37305V9.61401H3.53416V10.0946Z" fill="white"/>
<path d="M5.93416 20.3863H3.77582V19.9057H5.93694V20.3863H5.93416ZM3.53416 20.3863H1.37305V19.9057H3.53416V20.3863Z" fill="white"/>
<path d="M5.93416 21.825H4.73416V21.3445H4.01471V21.5834H4.49527V21.8222H3.77582V21.1028H4.73694V20.6223H4.97582V21.5834H5.21471V20.6223H5.4536V21.5834H5.69249V20.6223H5.93138V21.825H5.93416ZM3.53416 21.825H2.33416V21.3445H1.61471V21.825H1.37582V21.1056H2.57582V21.5861H3.29527V21.3472H2.81471V21.1084H3.53416V21.825ZM2.09249 21.825H1.8536V21.5861H2.09249V21.825ZM4.49527 20.8667H1.37305V20.6278H4.49527V20.8667Z" fill="white"/>
<path d="M10.7366 9.37527H9.53665V8.89471H8.8172V9.1336H9.29776V9.37249H8.57831V8.65304H9.53942V8.17249H9.77831V9.1336H10.0172V8.17249H10.2561V9.1336H10.495V8.17249H10.7339V9.37527H10.7366ZM8.33665 9.37527H7.13665V8.89471H6.41443V9.37527H6.17554V8.65582H7.37554V9.13638H8.09498V8.89749H7.61443V8.6586H8.33387V9.37527H8.33665ZM6.89498 9.37527H6.65609V9.13638H6.89498V9.37527ZM9.29776 8.41415H6.17554V8.17526H9.29776V8.41415Z" fill="white"/>
<path d="M10.7366 10.0946H8.57554V9.61401H10.7366V10.0946ZM8.33665 10.0946H6.17554V9.61401H8.33665V10.0946Z" fill="white"/>
<path d="M10.7366 20.3863H8.57554V19.9057H10.7366V20.3863ZM8.33665 20.3863H6.17554V19.9057H8.33665V20.3863Z" fill="white"/>
<path d="M10.7366 21.825H9.53665V21.3445H8.8172V21.5834H9.29776V21.8222H8.57831V21.1028H9.53942V20.6223H9.77831V21.5834H10.0172V20.6223H10.2561V21.5834H10.495V20.6223H10.7339V21.825H10.7366ZM8.33665 21.825H7.13665V21.3445H6.41443V21.825H6.17554V21.1056H7.37554V21.5861H8.09498V21.3472H7.61443V21.1084H8.33387V21.825H8.33665ZM6.89498 21.825H6.65609V21.5861H6.89498V21.825ZM9.29776 20.8667H6.17554V20.6278H9.29776V20.8667Z" fill="white"/>
<path d="M15.5399 9.37527H14.3399V8.89471H13.6204V9.1336H14.101V9.37249H13.3815V8.65304H14.3426V8.17249H14.5815V9.1336H14.8204V8.17249H15.0593V9.1336H15.2982V8.17249H15.5371V9.37527H15.5399ZM13.1399 9.37527H11.9399V8.89471H11.2204V9.37527H10.9815V8.65582H12.1815V9.13638H12.901V8.89749H12.4204V8.6586H13.1399V9.37527ZM11.6982 9.37527H11.4593V9.13638H11.6982V9.37527ZM14.0982 8.41415H10.9788V8.17526H14.101V8.41415H14.0982Z" fill="white"/>
<path d="M15.5399 10.0946H13.3788V9.61401H15.5399V10.0946ZM13.1399 10.0946H10.9788V9.61401H13.1399V10.0946Z" fill="white"/>
<path d="M15.5399 20.3863H13.3788V19.9057H15.5399V20.3863ZM13.1399 20.3863H10.9788V19.9057H13.1399V20.3863Z" fill="white"/>
<path d="M15.5399 21.825H14.3399V21.3445H13.6204V21.5834H14.101V21.8222H13.3815V21.1028H14.3426V20.6223H14.5815V21.5834H14.8204V20.6223H15.0593V21.5834H15.2982V20.6223H15.5371V21.825H15.5399ZM13.1399 21.825H11.9399V21.3445H11.2204V21.825H10.9815V21.1056H12.1815V21.5861H12.901V21.3472H12.4204V21.1084H13.1399V21.825ZM11.6982 21.825H11.4593V21.5861H11.6982V21.825ZM14.0982 20.8667H10.9788V20.6278H14.101V20.8667H14.0982Z" fill="white"/>
<path d="M20.3427 9.37527H19.1427V8.89471H18.4233V9.1336H18.9038V9.37249H18.1844V8.65304H19.1455V8.17249H19.3844V9.1336H19.6233V8.17249H19.8621V9.1336H20.101V8.17249H20.3399V9.37527H20.3427ZM17.9399 9.37527H16.7399V8.89471H16.0205V9.37527H15.7816V8.65582H16.9816V9.13638H17.701V8.89749H17.2205V8.6586H17.9399V9.37527ZM16.501 9.37527H16.2621V9.13638H16.501V9.37527ZM18.901 8.41415H15.7788V8.17526H18.901V8.41415Z" fill="white"/>
<path d="M20.3427 10.0946H18.1816V9.61401H20.3427V10.0946ZM17.9399 10.0946H15.7788V9.61401H17.9399V10.0946Z" fill="white"/>
<path d="M20.3427 20.3863H18.1816V19.9057H20.3427V20.3863ZM17.9399 20.3863H15.7788V19.9057H17.9399V20.3863Z" fill="white"/>
<path d="M20.3427 21.825H19.1427V21.3445H18.4233V21.5834H18.9038V21.8222H18.1844V21.1028H19.1455V20.6223H19.3844V21.5834H19.6233V20.6223H19.8621V21.5834H20.101V20.6223H20.3399V21.825H20.3427ZM17.9399 21.825H16.7399V21.3445H16.0205V21.825H15.7816V21.1056H16.9816V21.5861H17.701V21.3472H17.2205V21.1084H17.9399V21.825ZM16.501 21.825H16.2621V21.5861H16.501V21.825ZM18.901 20.8667H15.7788V20.6278H18.901V20.8667Z" fill="white"/>
<path d="M25.1427 9.37527H23.9427V8.89471H23.2232V9.1336H23.7038V9.37249H22.9843V8.65304H23.9427V8.17249H24.1815V9.1336H24.4204V8.17249H24.6593V9.1336H24.8982V8.17249H25.1371V9.37527H25.1427ZM22.7427 9.37527H21.5427V8.89471H20.8232V9.37527H20.5815V8.65582H21.7815V9.13638H22.501V8.89749H22.0204V8.6586H22.7399V9.37527H22.7427ZM21.301 9.37527H21.0621V9.13638H21.301V9.37527ZM23.7038 8.41415H20.5815V8.17526H23.7038V8.41415Z" fill="white"/>
<path d="M25.1427 10.0946H22.9815V9.61401H25.1427V10.0946ZM22.7427 10.0946H20.5815V9.61401H22.7427V10.0946Z" fill="white"/>
<path d="M25.1427 20.3863H22.9815V19.9057H25.1427V20.3863ZM22.7427 20.3863H20.5815V19.9057H22.7427V20.3863Z" fill="white"/>
<path d="M25.1427 21.825H23.9427V21.3445H23.2232V21.5834H23.7038V21.8222H22.9843V21.1028H23.9427V20.6223H24.1815V21.5834H24.4204V20.6223H24.6593V21.5834H24.8982V20.6223H25.1371V21.825H25.1427ZM22.7427 21.825H21.5427V21.3445H20.8232V21.825H20.5815V21.1056H21.7815V21.5861H22.501V21.3472H22.0204V21.1084H22.7399V21.825H22.7427ZM21.301 21.825H21.0621V21.5861H21.301V21.825ZM23.7038 20.8667H20.5815V20.6278H23.7038V20.8667Z" fill="white"/>
<path d="M29.9451 9.37527H28.7451V8.89471H28.0257V9.1336H28.5063V9.37249H27.7868V8.65304H28.7479V8.17249H28.9868V9.1336H29.2257V8.17249H29.4646V9.1336H29.7035V8.17249H29.9424V9.37527H29.9451ZM27.5451 9.37527H26.3451V8.89471H25.6257V9.37527H25.3868V8.65582H26.5868V9.13638H27.3035V8.89749H26.8229V8.6586H27.5424V9.37527H27.5451ZM26.1035 9.37527H25.8646V9.13638H26.1035V9.37527ZM28.5063 8.41415H25.384V8.17526H28.5063V8.41415Z" fill="white"/>
<path d="M29.9451 10.0946H27.784V9.61401H29.9451V10.0946ZM27.5451 10.0946H25.384V9.61401H27.5451V10.0946Z" fill="white"/>
<path d="M29.9451 20.3863H27.784V19.9057H29.9451V20.3863ZM27.5451 20.3863H25.384V19.9057H27.5451V20.3863Z" fill="white"/>
<path d="M29.9451 21.825H28.7451V21.3445H28.0257V21.5834H28.5063V21.8222H27.7868V21.1028H28.7479V20.6223H28.9868V21.5834H29.2257V20.6223H29.4646V21.5834H29.7035V20.6223H29.9424V21.825H29.9451ZM27.5451 21.825H26.3451V21.3445H25.6257V21.825H25.3868V21.1056H26.5868V21.5861H27.3035V21.3472H26.8229V21.1084H27.5424V21.825H27.5451ZM26.1035 21.825H25.8646V21.5861H26.1035V21.825ZM28.5063 20.8667H25.384V20.6278H28.5063V20.8667Z" fill="white"/>
<path d="M34.7477 9.37527H33.5477V8.89471H32.8283V9.1336H33.3088V9.37249H32.5894V8.65304H33.5505V8.17249H33.7894V9.1336H34.0283V8.17249H34.2672V9.1336H34.5061V8.17249H34.7449V9.37527H34.7477ZM32.3477 9.37527H31.1477V8.89471H30.4283V9.37527H30.1894V8.65582H31.3894V9.13638H32.1088V8.89749H31.6283V8.6586H32.3477V9.37527ZM30.9061 9.37527H30.6672V9.13638H30.9061V9.37527ZM33.3061 8.41415H30.1838V8.17526H33.3061V8.41415Z" fill="white"/>
<path d="M34.7484 10.0946H32.5873V9.61401H34.7484V10.0946ZM32.3484 10.0946H30.1873V9.61401H32.3484V10.0946Z" fill="white"/>
<path d="M34.7484 20.3863H32.5873V19.9057H34.7484V20.3863ZM32.3484 20.3863H30.1873V19.9057H32.3484V20.3863Z" fill="white"/>
<path d="M34.7477 21.825H33.5477V21.3445H32.8283V21.5834H33.3088V21.8222H32.5894V21.1028H33.5505V20.6223H33.7894V21.5834H34.0283V20.6223H34.2672V21.5834H34.5061V20.6223H34.7449V21.825H34.7477ZM32.3477 21.825H31.1477V21.3445H30.4283V21.825H30.1894V21.1056H31.3894V21.5861H32.1088V21.3472H31.6283V21.1084H32.3477V21.825ZM30.9061 21.825H30.6672V21.5861H30.9061V21.825ZM33.3061 20.8667H30.1838V20.6278H33.3061V20.8667Z" fill="white"/>
<path d="M39.5509 9.37527H38.3509V8.89471H37.6315V9.1336H38.1121V9.37249H37.3926V8.65304H38.3537V8.17249H38.5926V9.1336H38.8315V8.17249H39.0704V9.1336H39.3093V8.17249H39.5482V9.37527H39.5509ZM37.1482 9.37527H35.9482V8.89471H35.2287V9.37527H34.9898V8.65582H36.1898V9.13638H36.9093V8.89749H36.4287V8.6586H37.1482V9.37527ZM35.7093 9.37527H35.4704V9.13638H35.7093V9.37527ZM38.1093 8.41415H34.9871V8.17526H38.1093V8.41415Z" fill="white"/>
<path d="M39.5509 10.0946H37.3898V9.61401H39.5509V10.0946ZM37.1482 10.0946H34.9871V9.61401H37.1482V10.0946Z" fill="white"/>
<path d="M39.5509 20.3863H37.3898V19.9057H39.5509V20.3863ZM37.1482 20.3863H34.9871V19.9057H37.1482V20.3863Z" fill="white"/>
<path d="M39.5509 21.825H38.3509V21.3445H37.6315V21.5834H38.1121V21.8222H37.3926V21.1028H38.3537V20.6223H38.5926V21.5834H38.8315V20.6223H39.0704V21.5834H39.3093V20.6223H39.5482V21.825H39.5509ZM37.1482 21.825H35.9482V21.3445H35.2287V21.825H34.9898V21.1056H36.1898V21.5861H36.9093V21.3472H36.4287V21.1084H37.1482V21.825ZM35.7093 21.825H35.4704V21.5861H35.7093V21.825ZM38.1093 20.8667H34.9871V20.6278H38.1093V20.8667Z" fill="white"/>
<path d="M44.3507 9.37527H43.1507V8.89471H42.4312V9.1336H42.9118V9.37249H42.1923V8.65304H43.1534V8.17249H43.3923V9.1336H43.6312V8.17249H43.8701V9.1336H44.109V8.17249H44.3479V9.37527H44.3507ZM41.9507 9.37527H40.7507V8.89471H40.0312V9.37527H39.7923V8.65582H40.9923V9.13638H41.7118V8.89749H41.2312V8.6586H41.9507V9.37527ZM40.509 9.37527H40.2701V9.13638H40.509V9.37527ZM42.9118 8.41415H39.7896V8.17526H42.9118V8.41415Z" fill="white"/>
<path d="M44.3507 10.0946H42.1896V9.61401H44.3507V10.0946ZM41.9507 10.0946H39.7896V9.61401H41.9507V10.0946Z" fill="white"/>
<path d="M44.3507 20.3863H42.1896V19.9057H44.3507V20.3863ZM41.9507 20.3863H39.7896V19.9057H41.9507V20.3863Z" fill="white"/>
<path d="M44.3507 21.825H43.1507V21.3445H42.4312V21.5834H42.9118V21.8222H42.1923V21.1028H43.1534V20.6223H43.3923V21.5834H43.6312V20.6223H43.8701V21.5834H44.109V20.6223H44.3479V21.825H44.3507ZM41.9507 21.825H40.7507V21.3445H40.0312V21.825H39.7923V21.1056H40.9923V21.5861H41.7118V21.3472H41.2312V21.1084H41.9507V21.825ZM40.509 21.825H40.2701V21.5861H40.509V21.825ZM42.9118 20.8667H39.7896V20.6278H42.9118V20.8667Z" fill="white"/>
<path d="M49.1535 9.37527H47.9535V8.89471H47.234V9.1336H47.7146V9.37249H46.9952V8.65304H47.9563V8.17249H48.1952V9.1336H48.434V8.17249H48.6729V9.1336H48.9118V8.17249H49.1507V9.37527H49.1535ZM46.7535 9.37527H45.5535V8.89471H44.8313V9.37527H44.5924V8.65582H45.7924V9.13638H46.5118V8.89749H46.0313V8.6586H46.7507V9.37527H46.7535ZM45.3118 9.37527H45.0729V9.13638H45.3118V9.37527ZM47.7118 8.41415H44.5896V8.17526H47.7118V8.41415Z" fill="white"/>
<path d="M49.1534 10.0946H46.9923V9.61401H49.1534V10.0946ZM46.7534 10.0946H44.5923V9.61401H46.7534V10.0946Z" fill="white"/>
<path d="M49.1534 20.3863H46.9923V19.9057H49.1534V20.3863ZM46.7534 20.3863H44.5923V19.9057H46.7534V20.3863Z" fill="white"/>
<path d="M49.1535 21.825H47.9535V21.3445H47.234V21.5834H47.7146V21.8222H46.9952V21.1028H47.9563V20.6223H48.1952V21.5834H48.434V20.6223H48.6729V21.5834H48.9118V20.6223H49.1507V21.825H49.1535ZM46.7535 21.825H45.5535V21.3445H44.8313V21.825H44.5924V21.1056H45.7924V21.5861H46.5118V21.3472H46.0313V21.1084H46.7507V21.825H46.7535ZM45.3118 21.825H45.0729V21.5861H45.3118V21.825ZM47.7118 20.8667H44.5896V20.6278H47.7118V20.8667Z" fill="white"/>
<path d="M53.9562 9.37527H52.7562V8.89471H52.0368V9.1336H52.5173V9.37249H51.7979V8.65304H52.759V8.17249H52.9979V9.1336H53.2368V8.17249H53.4757V9.1336H53.7146V8.17249H53.9534V9.37527H53.9562ZM51.5562 9.37527H50.3562V8.89471H49.6368V9.37527H49.3979V8.65582H50.5979V9.13638H51.3173V8.89749H50.8368V8.6586H51.5562V9.37527ZM50.1146 9.37527H49.8757V9.13638H50.1146V9.37527ZM52.5146 8.41415H49.3923V8.17526H52.5146V8.41415Z" fill="white"/>
<path d="M53.9562 10.0946H51.7951V9.61401H53.9562V10.0946ZM51.5534 10.0946H49.3923V9.61401H51.5534V10.0946Z" fill="white"/>
<path d="M53.9562 20.3863H51.7951V19.9057H53.9562V20.3863ZM51.5534 20.3863H49.3923V19.9057H51.5534V20.3863Z" fill="white"/>
<path d="M53.9562 21.825H52.7562V21.3445H52.0368V21.5834H52.5173V21.8222H51.7979V21.1028H52.759V20.6223H52.9979V21.5834H53.2368V20.6223H53.4757V21.5834H53.7146V20.6223H53.9534V21.825H53.9562ZM51.5562 21.825H50.3562V21.3445H49.6368V21.825H49.3979V21.1056H50.5979V21.5861H51.3173V21.3472H50.8368V21.1084H51.5562V21.825ZM50.1146 21.825H49.8757V21.5861H50.1146V21.825ZM52.5146 20.8667H49.3923V20.6278H52.5146V20.8667Z" fill="white"/>
<path d="M25.5479 18.2251C27.4006 18.8251 29.3812 17.814 29.9812 15.9612C30.4173 14.614 30.0062 13.1306 28.9256 12.2056C30.1173 13.9723 29.6534 16.3723 27.8867 17.564C27.2006 18.0362 26.3784 18.2667 25.5479 18.2251Z" fill="#DA0000"/>
<path d="M30.048 17.5559C31.4536 16.742 31.9425 14.9392 31.1286 13.5253C30.7258 12.8309 30.0647 12.3337 29.2925 12.1448C30.998 13.4226 31.3425 15.842 30.0564 17.5476C30.0564 17.5476 30.0564 17.5476 30.048 17.5559Z" fill="#DA0000"/>
<path d="M27.6645 18.8586L27.4673 15.0002L27.6645 11.9641C27.784 12.128 27.9395 12.2558 28.1201 12.3502V14.6224L27.9645 18.4558L27.6645 18.8586Z" fill="#DA0000"/>
<path d="M27.5869 11.7253L27.6647 11.7948C27.8452 12.0448 28.1869 12.1031 28.4369 11.9309C28.6508 11.7864 28.7286 11.5114 28.6341 11.2698C28.5813 11.5531 28.3091 11.742 28.0175 11.6892C27.8619 11.6642 27.7341 11.5698 27.6564 11.4309" fill="#DA0000"/>
<path d="M29.7816 18.2251C27.9288 18.8251 25.9483 17.814 25.3483 15.9612C24.9122 14.614 25.3233 13.1306 26.4038 12.2056C25.2122 13.9723 25.6761 16.3723 27.4427 17.564C28.1288 18.0362 28.9511 18.2667 29.7816 18.2251Z" fill="#DA0000"/>
<path d="M25.281 17.5559C23.8754 16.742 23.3865 14.9392 24.2004 13.5253C24.6032 12.8309 25.2643 12.3337 26.0365 12.1448C24.331 13.4226 23.9865 15.842 25.2726 17.5476C25.2726 17.5476 25.2726 17.5476 25.281 17.5559Z" fill="#DA0000"/>
<path d="M27.6645 18.8586L27.8618 15.0002L27.6645 11.9641C27.5451 12.128 27.3895 12.2558 27.209 12.3502V14.6224L27.3645 18.4558L27.6645 18.8586Z" fill="#DA0000"/>
<path d="M27.7426 11.7253L27.6648 11.7948C27.4843 12.0448 27.1426 12.1031 26.8926 11.9309C26.6787 11.7864 26.6009 11.5114 26.6954 11.2698C26.7482 11.5531 27.0204 11.742 27.3121 11.6892C27.4676 11.6642 27.5954 11.5698 27.6732 11.4309" fill="#DA0000"/>
</g>
<defs>
<clipPath id="clip0_93_9994">
<rect width="53.3333" height="30" fill="white" transform="translate(0.998047)"/>
</clipPath>
</defs>
</svg>
