<svg width="54" height="30" viewBox="0 0 54 30" fill="none" xmlns="http://www.w3.org/2000/svg">
<g clip-path="url(#clip0_93_10050)">
<path d="M0.663086 0H53.9964V30H0.663086V0Z" fill="#CE1126"/>
<path d="M0.663086 10H53.9964V30H0.663086V10Z" fill="white"/>
<path d="M0.663086 20H53.9964V30H0.663086V20Z" fill="black"/>
<path d="M31.7156 13.1306C31.6545 13.1 31.585 13.0445 31.56 13.0167C31.5239 12.9667 31.5461 12.9667 31.685 13.0056C31.9406 13.075 32.1045 13.0445 32.2656 12.9111L32.41 12.7917L32.5795 12.8778C32.6739 12.9223 32.7683 12.9584 32.7989 12.9473C32.8739 12.9278 33.0239 12.7334 33.0183 12.6667C33.0128 12.5806 33.0822 12.6056 33.1183 12.6973C33.1822 12.8778 33.0878 13.0834 32.9128 13.1278C32.8267 13.1473 32.7489 13.1417 32.6239 13.0973C32.4683 13.0417 32.4378 13.0417 32.36 13.1028C32.185 13.2306 31.9406 13.2445 31.7156 13.1306Z" fill="#007A3D"/>
<path d="M32.3438 12.5555C32.2827 12.4749 32.2077 12.1805 32.2327 12.1055C32.2522 12.0416 32.2772 12.0305 32.3327 12.0444C32.4327 12.0749 32.4577 12.1444 32.4438 12.3805C32.43 12.5749 32.3994 12.6249 32.3438 12.5555Z" fill="#007A3D"/>
<path d="M24.9494 12.3391C24.9299 12.4836 25.2049 12.8391 25.3299 12.903C25.2438 12.9419 25.141 12.9224 25.066 12.9669C24.6355 13.3974 23.0549 14.9363 22.766 15.3058C23.6216 15.3197 24.566 15.2947 25.366 15.2558C25.366 14.6752 25.916 14.6447 26.2855 14.4363C26.4744 14.7363 26.9494 14.7113 27.0105 15.1613C27.0105 15.7002 27.0105 16.5058 27.0105 17.0919C24.5966 17.0919 22.1299 17.0919 19.716 17.0919C19.5855 17.6558 19.0771 18.0919 18.3605 17.9113C18.5799 17.6808 18.9494 17.6002 19.0855 17.2808C19.1966 16.5863 18.8605 16.1558 18.6466 15.7558C19.0077 15.6252 19.0605 15.5919 19.4271 15.3447C19.1716 16.1252 20.091 16.0391 20.7827 16.0197C20.8077 15.7558 20.7938 15.4447 20.5883 15.4058C20.8494 15.3113 20.8938 15.2752 21.3133 14.9197V15.9697C22.9438 15.9697 24.7021 15.9586 26.3633 15.9586C26.3633 15.628 26.4494 15.103 26.1883 15.103C25.9383 15.103 26.1771 15.778 25.9827 15.778C25.7883 15.778 23.3883 15.778 22.0827 15.778C22.0827 15.6336 22.0771 15.328 22.0771 15.1086C22.241 14.9447 22.2216 14.9586 23.3521 13.828C23.466 13.7308 24.2605 13.0141 24.9494 12.3391Z" fill="#007A3D"/>
<path d="M34.7047 12.3138C34.9742 12.4583 35.1936 12.6638 35.5242 12.75C35.4853 12.8888 35.363 12.9444 35.3297 13.0888V16.0333C35.6992 16.1138 35.7797 15.9027 35.9603 15.7944C36.0103 16.2638 36.3103 16.7305 36.2991 17.1C35.7686 17.1 35.2353 17.1 34.7047 17.1C34.7047 15.5 34.7047 13.9111 34.7047 12.3138Z" fill="#007A3D"/>
<path d="M32.5799 13.8889C32.5799 13.8889 33.1604 13.4 33.1604 13.3778V15.9473H33.5799C33.5799 14.9667 33.566 13.9723 33.566 13.0611C33.7354 12.8917 34.066 12.6473 34.1521 12.475V17.0806C32.9771 17.0806 30.7827 17.0806 30.491 17.0806C30.4354 16.125 30.4271 15.1362 31.541 15.3445C31.541 15.1806 31.541 15.0834 31.541 14.9556C31.5049 14.8917 31.4465 14.9695 31.4299 14.8862C31.6049 14.7112 31.666 14.6667 32.1438 14.2473C32.1438 14.7528 32.1549 15.9417 32.1549 15.9417C32.2688 15.9417 32.4993 15.9417 32.5743 15.9417C32.5743 15.9556 32.5799 13.9612 32.5799 13.8889ZM31.2049 15.9306C31.2854 16.05 31.5493 16.0445 31.541 15.8445C31.491 15.6862 31.141 15.7445 31.2049 15.9306Z" fill="#007A3D"/>
<path d="M20.6045 17.8639C20.7288 17.8639 20.8295 17.7632 20.8295 17.6389C20.8295 17.5147 20.7288 17.4139 20.6045 17.4139C20.4803 17.4139 20.3795 17.5147 20.3795 17.6389C20.3795 17.7632 20.4803 17.8639 20.6045 17.8639Z" fill="#007A3D"/>
<path d="M27.5045 12.3193C27.774 12.4638 27.9934 12.6693 28.324 12.7554C28.2851 12.8943 28.1629 12.9499 28.1295 13.0943V16.0388C28.499 16.1193 28.5795 15.9082 28.7601 15.7999C28.8101 16.2693 29.1101 16.736 29.099 17.1054C28.5684 17.1054 28.0351 17.1054 27.5045 17.1054C27.5045 15.5054 27.5045 13.9138 27.5045 12.3193Z" fill="#007A3D"/>
</g>
<defs>
<clipPath id="clip0_93_10050">
<rect width="53.3333" height="30" fill="white" transform="translate(0.663086)"/>
</clipPath>
</defs>
</svg>
