<svg width="54" height="30" viewBox="0 0 54 30" fill="none" xmlns="http://www.w3.org/2000/svg">
<g clip-path="url(#clip0_93_10069)">
<path d="M0.65918 -0.135986H61.2064V30.1362H0.65918V-0.135986Z" fill="white"/>
<path d="M0.65918 -0.135986H61.2064V9.95568H0.65918V-0.135986Z" fill="black"/>
<path d="M0.65918 20.0444H61.2064V30.136H0.65918V20.0444Z" fill="#007A3D"/>
<path d="M30.9314 15.0001L0.65918 30.1362V-0.135986L30.9314 15.0001ZM10.012 12.839L9.54251 14.0279L8.32307 13.6557L8.95918 14.7612L7.90085 15.4807L9.16751 15.6723L9.07029 16.9446L10.0064 16.0807L10.9481 16.9446L10.8508 15.6723L12.112 15.4807L11.062 14.7612L11.6981 13.6557L10.487 14.0279L10.012 12.839Z" fill="#CE1126"/>
</g>
<defs>
<clipPath id="clip0_93_10069">
<rect width="53.3333" height="30" fill="white" transform="translate(0.65918)"/>
</clipPath>
</defs>
</svg>
