<svg width="54" height="30" viewBox="0 0 54 30" fill="none" xmlns="http://www.w3.org/2000/svg">
<g clip-path="url(#clip0_93_10074)">
<path d="M0.268311 0H53.7128V30H0.268311V0Z" fill="#00AFCA"/>
<path d="M29.1376 16.4584C31.1243 16.4584 32.7348 14.8479 32.7348 12.8612C32.7348 10.8745 31.1243 9.26398 29.1376 9.26398C27.1509 9.26398 25.5404 10.8745 25.5404 12.8612C25.5404 14.8479 27.1509 16.4584 29.1376 16.4584Z" fill="#FEC50C"/>
<path d="M29.1378 8.77753C29.3517 8.77198 29.4323 8.63865 29.4323 8.47753C29.4323 8.26365 29.1378 7.2442 29.1378 7.2442C29.1378 7.2442 28.8434 8.26365 28.8434 8.47753C28.8462 8.63865 28.9239 8.77753 29.1378 8.77753Z" fill="#FEC50C"/>
<path d="M33.2265 12.8611C33.2265 13.075 33.3598 13.1555 33.5209 13.1555C33.7348 13.1555 34.7515 12.8611 34.7515 12.8611C34.7515 12.8611 33.7348 12.5667 33.5209 12.5667C33.3598 12.5694 33.2265 12.6472 33.2265 12.8611Z" fill="#FEC50C"/>
<path d="M29.1378 16.9501C28.9239 16.9501 28.8434 17.0835 28.8434 17.2446C28.8434 17.4585 29.1378 18.4751 29.1378 18.4751C29.1378 18.4751 29.4323 17.4585 29.4323 17.2446C29.4323 17.0835 29.3517 16.9501 29.1378 16.9501Z" fill="#FEC50C"/>
<path d="M25.0574 12.8611C25.0574 12.6472 24.9241 12.5667 24.763 12.5667C24.5491 12.5667 23.5324 12.8611 23.5324 12.8611C23.5324 12.8611 24.5491 13.1555 24.763 13.1555C24.9157 13.1555 25.0574 13.075 25.0574 12.8611Z" fill="#FEC50C"/>
<path d="M30.7047 9.08866C30.9019 9.16921 31.0297 9.07199 31.0908 8.92755C31.1714 8.73033 31.288 7.67755 31.288 7.67755C31.288 7.67755 30.6242 8.50533 30.5464 8.70255C30.4853 8.84699 30.5075 9.00255 30.7047 9.08866Z" fill="#FEC50C"/>
<path d="M32.919 14.4276C32.8385 14.6248 32.9357 14.7526 33.0801 14.8137C33.2773 14.8943 34.3301 15.0109 34.3301 15.0109C34.3301 15.0109 33.5023 14.3471 33.3051 14.2693C33.1523 14.2082 32.9996 14.2304 32.919 14.4276Z" fill="#FEC50C"/>
<path d="M27.5804 16.6363C27.3832 16.5557 27.2554 16.653 27.1943 16.7974C27.1137 16.9946 26.9971 18.0474 26.9971 18.0474C26.9971 18.0474 27.661 17.2196 27.7387 17.0224C27.7999 16.8752 27.7776 16.7224 27.5804 16.6363Z" fill="#FEC50C"/>
<path d="M25.3655 11.2974C25.4461 11.1002 25.3489 10.9724 25.2044 10.9113C25.0072 10.8308 23.9544 10.7141 23.9544 10.7141C23.9544 10.7141 24.7822 11.378 24.9794 11.4558C25.1266 11.5169 25.285 11.4947 25.3655 11.2974Z" fill="#FEC50C"/>
<path d="M32.0293 9.97234C32.1849 10.1223 32.3349 10.0834 32.446 9.97234C32.596 9.82234 33.1099 8.89178 33.1099 8.89178C33.1099 8.89178 32.1793 9.40567 32.0293 9.55567C31.9182 9.66678 31.8793 9.82234 32.0293 9.97234Z" fill="#FEC50C"/>
<path d="M32.0293 15.7528C31.8793 15.9083 31.9182 16.0583 32.0293 16.1695C32.1793 16.3195 33.1099 16.8333 33.1099 16.8333C33.1099 16.8333 32.596 15.9028 32.446 15.7528C32.3349 15.6417 32.1793 15.5972 32.0293 15.7528Z" fill="#FEC50C"/>
<path d="M26.2525 15.7532C26.0969 15.6032 25.9469 15.6421 25.8358 15.7532C25.6858 15.9032 25.1719 16.8337 25.1719 16.8337C25.1719 16.8337 26.1025 16.3198 26.2525 16.1698C26.3664 16.0587 26.4025 15.9032 26.2525 15.7532Z" fill="#FEC50C"/>
<path d="M26.2525 9.97234C26.4025 9.81678 26.3636 9.66678 26.2525 9.55567C26.1025 9.40567 25.1719 8.89178 25.1719 8.89178C25.1719 8.89178 25.6858 9.82234 25.8358 9.97234C25.9497 10.0834 26.0997 10.1251 26.2525 9.97234Z" fill="#FEC50C"/>
<path d="M32.9181 11.2972C33.0043 11.4944 33.1598 11.5166 33.3043 11.4583C33.5015 11.3777 34.3292 10.7166 34.3292 10.7166C34.3292 10.7166 33.2765 10.8333 33.0793 10.9138C32.9293 10.9749 32.832 11.0972 32.9181 11.2972Z" fill="#FEC50C"/>
<path d="M30.7043 16.6363C30.5071 16.7224 30.4848 16.878 30.5432 17.0224C30.6237 17.2196 31.2848 18.0474 31.2848 18.0474C31.2848 18.0474 31.1682 16.9946 31.0876 16.7974C31.0265 16.653 30.9015 16.5557 30.7043 16.6363Z" fill="#FEC50C"/>
<path d="M25.3655 14.4279C25.2794 14.2307 25.1239 14.2085 24.9794 14.2668C24.7822 14.3474 23.9544 15.0085 23.9544 15.0085C23.9544 15.0085 25.0072 14.8918 25.2044 14.8112C25.3544 14.7501 25.4461 14.6251 25.3655 14.4279Z" fill="#FEC50C"/>
<path d="M27.5796 9.08866C27.7769 9.00255 27.7991 8.84699 27.7408 8.70255C27.6602 8.50533 26.9991 7.67755 26.9991 7.67755C26.9991 7.67755 27.1158 8.73033 27.1963 8.92755C27.2519 9.07199 27.3796 9.16921 27.5796 9.08866Z" fill="#FEC50C"/>
<path d="M29.9413 8.85281C30.1496 8.88893 30.2579 8.77781 30.2885 8.6167C30.3301 8.40837 30.2413 7.35004 30.2413 7.35004C30.2413 7.35004 29.7551 8.2917 29.7135 8.50004C29.6801 8.66115 29.7274 8.81115 29.9413 8.85281Z" fill="#FEC50C"/>
<path d="M33.147 13.6582C33.1109 13.8665 33.222 13.9749 33.3831 14.0054C33.5914 14.0471 34.6498 13.9582 34.6498 13.9582C34.6498 13.9582 33.7081 13.4721 33.4998 13.4304C33.3414 13.3971 33.1914 13.4499 33.147 13.6582Z" fill="#FEC50C"/>
<path d="M28.343 16.8693C28.1347 16.8331 28.0264 16.9443 27.9958 17.1054C27.9541 17.3137 28.043 18.372 28.043 18.372C28.043 18.372 28.5291 17.4304 28.5708 17.222C28.6041 17.0637 28.5513 16.9137 28.343 16.8693Z" fill="#FEC50C"/>
<path d="M25.135 12.0666C25.1712 11.8583 25.06 11.7499 24.8989 11.7194C24.6906 11.6777 23.6323 11.7666 23.6323 11.7666C23.6323 11.7666 24.5739 12.2527 24.7823 12.2944C24.9434 12.3277 25.0934 12.2749 25.135 12.0666Z" fill="#FEC50C"/>
<path d="M31.4101 9.46387C31.5906 9.58054 31.7295 9.5111 31.8212 9.37776C31.9378 9.20276 32.2601 8.19165 32.2601 8.19165C32.2601 8.19165 31.4489 8.87498 31.3295 9.05276C31.2462 9.19165 31.2351 9.34443 31.4101 9.46387Z" fill="#FEC50C"/>
<path d="M32.5388 15.1334C32.4222 15.314 32.4916 15.4529 32.625 15.5446C32.8 15.6612 33.8111 15.9835 33.8111 15.9835C33.8111 15.9835 33.1277 15.1723 32.95 15.0529C32.8166 14.964 32.6555 14.9529 32.5388 15.1334Z" fill="#FEC50C"/>
<path d="M26.8743 16.261C26.6938 16.1443 26.5549 16.2138 26.4632 16.3471C26.3466 16.5221 26.0244 17.5332 26.0244 17.5332C26.0244 17.5332 26.8355 16.8499 26.9549 16.6721C27.0382 16.5332 27.0493 16.3777 26.8743 16.261Z" fill="#FEC50C"/>
<path d="M25.7471 10.5918C25.8637 10.4113 25.7943 10.2724 25.661 10.1807C25.486 10.064 24.4749 9.74182 24.4749 9.74182C24.4749 9.74182 25.1582 10.5529 25.336 10.6724C25.4693 10.7613 25.6221 10.7724 25.7471 10.5918Z" fill="#FEC50C"/>
<path d="M32.5388 10.5918C32.6611 10.7668 32.8166 10.764 32.95 10.6724C33.125 10.5557 33.8111 9.74182 33.8111 9.74182C33.8111 9.74182 32.8 10.0613 32.625 10.1807C32.4916 10.2696 32.4222 10.414 32.5388 10.5918Z" fill="#FEC50C"/>
<path d="M31.4108 16.2611C31.2358 16.3833 31.2385 16.5389 31.3302 16.6722C31.4469 16.8472 32.2608 17.5333 32.2608 17.5333C32.2608 17.5333 31.9413 16.5222 31.8219 16.3472C31.733 16.2083 31.5885 16.1389 31.4108 16.2611Z" fill="#FEC50C"/>
<path d="M25.7471 15.1335C25.6248 14.9585 25.4693 14.9613 25.336 15.053C25.161 15.1696 24.4749 15.9835 24.4749 15.9835C24.4749 15.9835 25.486 15.6641 25.661 15.5446C25.7943 15.4557 25.8637 15.3113 25.7471 15.1335Z" fill="#FEC50C"/>
<path d="M26.8744 9.46387C27.0494 9.34165 27.0466 9.18609 26.9549 9.05276C26.8382 8.87776 26.0244 8.19165 26.0244 8.19165C26.0244 8.19165 26.3438 9.20276 26.4632 9.37776C26.5521 9.51665 26.691 9.5861 26.8744 9.46387Z" fill="#FEC50C"/>
<path d="M33.1465 12.0667C33.1881 12.275 33.3381 12.3278 33.4937 12.2972C33.702 12.2556 34.6437 11.7695 34.6437 11.7695C34.6437 11.7695 33.5853 11.6778 33.377 11.7222C33.2215 11.75 33.1048 11.8584 33.1465 12.0667Z" fill="#FEC50C"/>
<path d="M29.9408 16.8691C29.7324 16.9108 29.6797 17.0608 29.7102 17.2163C29.7519 17.4247 30.238 18.3663 30.238 18.3663C30.238 18.3663 30.3297 17.308 30.2852 17.0997C30.2519 16.9441 30.1491 16.8274 29.9408 16.8691Z" fill="#FEC50C"/>
<path d="M25.1353 13.6584C25.0937 13.4501 24.9437 13.3973 24.7881 13.4279C24.5798 13.4695 23.6381 13.9556 23.6381 13.9556C23.6381 13.9556 24.6965 14.0473 24.9048 14.0029C25.0576 13.9751 25.1742 13.8668 25.1353 13.6584Z" fill="#FEC50C"/>
<path d="M28.344 8.85244C28.5524 8.81078 28.6051 8.66078 28.5746 8.50522C28.5329 8.29689 28.0468 7.35522 28.0468 7.35522C28.0468 7.35522 27.9551 8.41355 27.9996 8.62189C28.0274 8.77744 28.1357 8.89689 28.344 8.85244Z" fill="#FEC50C"/>
<path d="M28.4989 20.65C28.4017 20.6555 28.3128 20.6666 28.2156 20.6972C28.0934 20.7139 27.9684 20.7555 27.8461 20.7777L27.7989 20.7833L27.7128 20.7889C27.7184 20.8111 27.7239 20.8361 27.7239 20.8583C27.7239 20.8861 27.7239 20.9055 27.7128 20.9277C27.7072 20.95 27.6906 20.9694 27.6767 20.9805C27.66 21.0027 27.6406 21.0166 27.6184 21.0277C27.5961 21.0388 27.5711 21.0444 27.5489 21.0444C27.5211 21.0444 27.5017 21.0444 27.4739 21.0333C27.4461 21.0277 27.4267 21.0111 27.4045 20.9916C27.3767 20.9972 27.3517 21.0027 27.3295 21.0083C27.3017 21.0083 27.2822 21.0083 27.26 21.0083C27.2322 21.0027 27.2072 20.9916 27.185 20.9805C27.1572 20.9694 27.1378 20.9583 27.1156 20.9444C27.0239 20.9972 26.9239 21.05 26.8684 21.1416C26.835 21.1833 26.8322 21.2333 26.8267 21.2861C26.8211 21.35 26.8378 21.4138 26.8628 21.4722C26.8739 21.4888 26.8795 21.4138 26.91 21.3972C26.9628 21.3555 27.0211 21.3222 27.085 21.3055C27.1378 21.2777 27.1322 21.3055 27.1128 21.3472C27.1072 21.3694 27.0767 21.4527 27.1184 21.4111C27.2989 21.3305 27.4989 21.3138 27.6961 21.3C27.9795 21.2722 28.2628 21.2638 28.5461 21.2638C28.8128 21.2694 29.0795 21.2694 29.3489 21.2805C29.4767 21.2861 29.6045 21.3138 29.7295 21.2916C29.7628 21.2861 29.81 21.2805 29.8267 21.2638C29.7683 21.2305 29.7045 21.2305 29.6406 21.2222H29.1295C28.985 21.2055 28.8406 21.2055 28.7072 21.1527C28.6711 21.1361 28.6378 21.1055 28.6045 21.1416C28.5517 21.1583 28.4989 21.175 28.4434 21.175C28.3461 21.1805 28.2572 21.1638 28.1711 21.1277C28.235 21.0416 28.31 20.9666 28.3739 20.8861C28.3211 20.875 28.2684 20.8638 28.2072 20.8527C28.3156 20.8 28.4072 20.725 28.4989 20.65Z" fill="#FEC50C"/>
<path d="M32.6607 21.5749C32.469 21.6916 32.319 21.4832 32.1579 21.4249C32.0412 21.4888 32.0301 21.6971 31.9218 21.7999C31.794 21.9499 31.6329 21.7582 31.644 21.6138C31.4885 21.7416 31.4079 22.0416 31.1635 21.9999C31.0468 21.9027 30.9551 21.6999 30.8635 21.9305C30.7885 22.0416 30.5912 22.2027 30.4885 22.0332C30.4551 21.8833 30.3829 21.7083 30.3024 21.9416C30.244 22.1138 30.0662 22.236 29.8912 22.161C29.794 22.0805 29.9662 21.7916 29.8496 21.8138C29.669 21.9305 29.5607 22.2305 29.3107 22.2083C29.2135 22.0971 29.369 21.9082 29.2635 21.786C29.1357 21.9527 28.9968 22.186 28.7718 22.2083C28.6662 22.1221 28.7774 21.8721 28.7079 21.8388C28.4829 21.9721 28.244 22.2194 27.9607 22.1388C28.0718 21.7166 28.5329 21.5666 28.9218 21.536C29.5912 21.4555 30.294 21.6055 30.9412 21.3638C31.0468 21.2999 31.2996 21.2082 31.2079 21.0638C31.1274 20.9471 31.4162 20.9944 31.444 20.8555C31.4274 20.6832 31.5774 20.7055 31.7218 20.6888C32.3746 20.661 33.0162 20.7944 33.6662 20.8221C33.7135 21.1388 33.3607 21.361 33.0829 21.2666C32.9496 21.2888 32.7468 20.9555 32.7829 21.1971C32.7579 21.3221 32.7801 21.4888 32.6607 21.5749ZM27.119 20.9277C27.269 21.0666 27.3746 20.8999 27.5135 20.8416C27.9829 20.6805 28.3996 20.3916 28.8079 20.1082C29.0551 19.9055 29.2662 19.6388 29.5996 19.5749C30.2468 19.3777 30.9301 19.4027 31.5774 19.2221C32.069 18.5499 32.9079 18.3082 33.6079 17.9194C33.7635 17.8721 33.8274 17.7444 33.8746 17.5999C34.1412 17.1777 34.5051 16.8027 34.9385 16.5471C35.1412 16.436 35.3885 16.3721 35.6162 16.4249C35.5996 16.7027 35.4412 16.9444 35.2524 17.136C35.4079 17.1305 35.5412 17.0332 35.7024 17.0388C35.7551 17.3221 35.4524 17.4721 35.2912 17.6471C35.3829 17.6694 35.7301 17.6944 35.5385 17.786C35.2968 17.9527 35.0246 18.0694 34.7996 18.261C35.0024 18.2971 35.0301 18.3416 34.8218 18.4166C34.7107 18.4916 34.4912 18.5194 34.469 18.6666C34.6246 18.7638 34.3996 18.8527 34.3079 18.886C34.1412 18.9221 33.9662 18.9971 34.1857 19.1277C34.0996 19.2555 33.9246 19.2832 33.7746 19.2666C33.8162 19.411 33.8801 19.5721 33.6996 19.636C33.2829 19.9527 32.7912 20.1805 32.2662 20.2332C32.9246 20.2805 33.5968 20.1638 34.1579 19.8055C34.2329 19.7194 34.6162 19.6249 34.4051 19.5499C34.3024 19.5082 34.0857 19.4582 34.069 19.3832C34.3746 19.1971 34.7524 19.261 35.0801 19.1527C35.0912 19.0471 34.8329 19.0777 34.7385 19.0499C34.5079 19.0277 34.5246 18.9749 34.744 18.9527C35.0218 18.8777 35.3385 18.861 35.5718 18.686C35.3801 18.5944 35.1385 18.6749 34.9357 18.6055C35.2829 18.4555 35.6885 18.4388 35.9996 18.211C36.1385 18.0555 35.819 18.1055 35.7274 18.1082C35.5357 18.1416 35.4496 18.0499 35.6635 17.9694C36.0329 17.6971 36.5024 17.5194 36.7635 17.1249C36.8274 17.0332 36.9079 16.7666 36.7107 16.8638C36.4551 16.9499 36.2246 17.2444 35.9301 17.1527C36.5135 16.7027 37.0635 16.1916 37.4579 15.5666C37.4801 15.386 37.1968 15.3694 37.1218 15.5082C36.7468 15.8666 36.4107 16.2944 35.9357 16.5194C36.394 16.0749 36.769 15.5582 37.0996 15.011C37.169 14.8499 37.3607 14.6582 37.2607 14.4777C37.094 14.3388 36.8857 14.4666 36.8024 14.6332C36.5135 15.0138 36.294 15.4555 35.9218 15.761C36.2468 15.136 36.5857 14.4721 36.594 13.7582C36.594 13.6082 36.5607 13.3944 36.3635 13.4221C36.2024 13.4499 36.2412 13.6888 36.1774 13.811C36.0329 14.3027 35.9635 14.8305 35.669 15.2638C35.7329 14.8638 35.8496 14.4471 35.7662 14.0444C35.7246 13.8638 35.4357 13.9416 35.4718 14.1194C35.1246 15.8777 33.944 17.4166 32.3996 18.3082C31.694 18.7082 30.9024 18.9666 30.1024 19.0832C29.8885 19.1305 29.6524 19.1055 29.444 19.1749C28.9412 19.561 28.6412 20.1999 28.0051 20.4055C27.7218 20.5444 27.3524 20.5777 27.1496 20.8388C27.1246 20.8471 27.119 20.8888 27.119 20.9277Z" fill="#FEC50C"/>
<path d="M29.0163 19.1416C28.9191 19.3138 28.8663 19.5055 28.7496 19.6611C28.3857 19.3305 27.8635 19.3416 27.4024 19.3194C27.0218 19.2972 26.6107 19.2666 26.3163 18.9944C26.0052 18.7444 25.7552 18.4111 25.4135 18.2083C25.0968 18.1222 24.783 18.0166 24.533 17.8027C23.9941 17.3638 23.683 16.7083 23.1552 16.2527C23.0524 16.15 22.9357 16.0777 22.8246 15.9916C22.7191 16.0194 22.7663 16.2472 22.633 16.1305C22.5635 16.0777 22.383 16.0777 22.3663 16.1472C22.5274 16.3611 22.6857 16.6027 22.7135 16.875C22.6024 16.8861 22.408 16.8527 22.3552 16.8916C22.4996 17.1111 22.6857 17.3027 22.8996 17.4583C22.7968 17.475 22.5941 17.4638 22.558 17.5055C22.7718 17.6777 22.9968 17.8527 23.2746 17.8944C23.333 17.9694 23.1941 18.1138 23.308 18.1777C23.3774 18.2055 23.6024 18.2527 23.4468 18.3277C23.3413 18.3972 23.383 18.5694 23.5163 18.5638C23.6024 18.6055 23.7941 18.6166 23.8107 18.6916C23.7357 18.7666 23.4996 18.8638 23.6996 18.9333C23.8857 19.0388 24.0996 19.1055 24.3191 19.1138C24.2135 19.2055 24.0774 19.2583 23.9663 19.3444C24.4635 19.6333 25.0135 19.825 25.5524 20.0111C25.7663 20.0861 25.9857 20.15 26.2107 20.1916C25.558 20.1555 24.9274 19.9611 24.3357 19.7C24.0246 19.5666 23.7218 19.4333 23.4052 19.3194C23.5441 19.25 23.7052 19.2277 23.8496 19.1694C23.5496 19.1111 23.2302 19.0888 22.9691 18.9277C23.0107 18.8583 23.1607 18.8527 23.2468 18.8166C23.408 18.7805 23.5024 18.7305 23.2802 18.7194C23.0552 18.6611 22.7996 18.6861 22.6024 18.5472C22.6135 18.4666 22.8218 18.4944 22.908 18.4611C23.0135 18.4444 23.133 18.4277 23.2191 18.3555C22.8718 18.2111 22.4163 18.3138 22.1441 18.0083C22.0802 17.8916 22.3357 17.9861 22.4107 17.9666C22.5968 17.9666 22.7968 18.025 22.9774 17.95C22.4691 17.725 21.9302 17.5222 21.5441 17.1111C21.5024 17.0472 21.3718 16.8638 21.4746 16.8444C21.7746 16.8805 21.9941 17.2138 22.3135 17.1611C22.3552 17.1027 22.1274 17.0111 22.0663 16.925C21.5968 16.525 21.1413 16.0861 20.8163 15.5611C20.7941 15.3861 21.0663 15.3583 21.1413 15.4972C21.4996 15.8444 21.8246 16.2444 22.2691 16.4805C22.4302 16.5555 22.1774 16.3888 22.1468 16.3305C21.7357 15.85 21.3385 15.3472 21.058 14.7805C21.0052 14.6777 20.9191 14.4972 21.0746 14.4388C21.2302 14.3638 21.3857 14.4666 21.4607 14.6C21.7663 14.9861 21.9857 15.4388 22.3635 15.7555C22.0441 15.1305 21.6996 14.4722 21.6913 13.7555C21.6968 13.6166 21.708 13.4083 21.8941 13.4138C22.0552 13.3916 22.0274 13.5888 22.0802 13.6916C22.2357 14.2194 22.3052 14.7916 22.6191 15.2583C22.5496 14.8694 22.4468 14.4611 22.5163 14.0666C22.533 13.9388 22.6774 13.8944 22.7718 13.975C22.8524 14.1666 22.8691 14.3972 22.9385 14.6C23.3385 15.9777 24.2413 17.1861 25.4246 18C26.3913 18.6638 27.5468 19.0638 28.7218 19.1333C28.8024 19.1305 28.9107 19.1361 29.0163 19.1416Z" fill="#FEC50C"/>
<path d="M27.5242 20.9638C27.5595 20.9638 27.5881 20.9352 27.5881 20.8999C27.5881 20.8647 27.5595 20.8361 27.5242 20.8361C27.4889 20.8361 27.4603 20.8647 27.4603 20.8999C27.4603 20.9352 27.4889 20.9638 27.5242 20.9638Z" fill="#FEC50C"/>
<path d="M27.5189 20.9224C27.5342 20.9224 27.5466 20.9099 27.5466 20.8946C27.5466 20.8793 27.5342 20.8668 27.5189 20.8668C27.5035 20.8668 27.4911 20.8793 27.4911 20.8946C27.4911 20.9099 27.5035 20.9224 27.5189 20.9224Z" fill="#FEC50C" stroke="#00AFCA" stroke-width="0.1905" stroke-miterlimit="2"/>
<path d="M3.47457 3.5888C3.47457 3.5888 3.21902 3.37491 3.1329 3.48325C2.99402 3.65825 3.56624 4.52491 3.56624 4.83047C3.56624 5.33324 3.23013 5.46658 2.81902 5.54158C2.54124 5.58325 2.08568 5.5138 2.08568 5.5138C2.17179 5.40269 2.22457 5.3638 2.36902 5.35824C2.2079 5.27769 2.04957 5.09713 2.04957 4.81936C2.04957 4.38602 2.22457 4.21102 2.22457 3.72491C2.22457 3.45825 2.00513 3.11102 2.00513 3.11102C2.39402 3.14713 2.58846 3.51102 2.48013 3.79991C2.54402 3.81102 2.59679 3.79436 2.64679 3.74713C2.67457 3.82769 2.63013 3.91936 2.57179 3.99713C2.61902 4.02491 2.6579 4.00825 2.7329 3.99158C2.72735 4.07213 2.67457 4.1638 2.5579 4.24158C2.91068 4.14991 3.12457 4.39713 3.12457 4.65269C3.12457 4.84436 2.99124 4.98324 2.8579 4.98324C2.81624 4.98324 2.75235 4.96658 2.71902 4.94158C2.69124 4.99436 2.7079 5.0638 2.73568 5.11658C2.63846 5.0888 2.57457 5.03047 2.61902 4.9138C2.54402 4.90824 2.48568 4.88047 2.44402 4.83325C2.48568 4.78047 2.54679 4.75269 2.61902 4.75269C2.56624 4.64158 2.62457 4.57769 2.71624 4.52769C2.71624 4.52769 2.6579 4.75269 2.80235 4.75269C2.86624 4.75269 2.92457 4.73047 2.92457 4.63602C2.92457 4.55547 2.84957 4.4388 2.6829 4.44436C2.51624 4.44991 2.37735 4.56102 2.37735 4.83047C2.37735 5.07769 2.57457 5.19991 2.83568 5.20547C3.07179 5.21102 3.25235 5.08325 3.25235 4.84158C3.25235 4.51658 2.7829 3.77769 2.7829 3.4888C2.7829 3.26936 2.97457 3.15269 3.16902 3.15269C3.41624 3.15269 3.62457 3.39991 3.62457 3.39991L3.47457 3.5888Z" fill="#FEC50C"/>
<path d="M3.53034 9.44754C3.53034 9.98642 3.04423 10.2642 2.66368 10.2642C2.14979 10.2642 1.87201 9.95309 1.87201 9.55309C1.87201 9.32254 1.91368 9.17809 2.02201 8.9642C2.02201 8.9642 2.87201 7.20031 3.20256 6.51698C3.24423 6.43087 3.25534 6.33642 3.25534 6.19198C3.25534 5.97253 3.04145 5.79198 2.81645 5.78642C2.61368 5.78087 2.38868 5.97809 2.38868 6.19754C2.38868 6.4642 2.52756 6.58642 2.67201 6.58642C2.84701 6.58642 2.91923 6.51142 2.91923 6.3892C2.91923 6.30309 2.87756 6.26698 2.81645 6.26698C2.66645 6.26698 2.7109 6.46976 2.7109 6.46976C2.6359 6.45309 2.57201 6.37809 2.60812 6.28365C2.54979 6.27254 2.50256 6.24198 2.45812 6.19754C2.49979 6.16142 2.54423 6.12809 2.60812 6.11698C2.57201 5.99476 2.61923 5.94198 2.72479 5.9142C2.70256 5.95587 2.70257 6.00031 2.70812 6.04198C2.86923 5.99476 3.11923 6.06976 3.11923 6.34754C3.11923 6.62531 2.92756 6.85587 2.56923 6.80309C2.65534 6.84476 2.69701 6.92531 2.70812 7.02254C2.64423 6.99476 2.56923 6.99476 2.56923 6.99476C2.6109 7.06976 2.67201 7.13365 2.66645 7.27809C2.59701 7.24476 2.53868 7.19198 2.45256 7.22531C2.5859 7.48642 2.41923 7.85587 2.00256 7.94198C2.15812 7.76142 2.23312 7.56698 2.23312 7.37531C2.23312 6.75031 2.05812 6.64198 2.05812 6.20587C2.05812 6.02531 2.15534 5.82531 2.3359 5.69198V5.69754C2.21368 5.6642 2.13312 5.60587 2.08868 5.52254C2.37201 5.44198 2.77756 5.44198 2.99701 5.53365C3.24701 5.56142 3.42479 5.75865 3.47757 5.85309C3.53034 5.95031 3.63312 6.30865 3.47757 6.62809C3.3109 6.97531 2.52201 8.64754 2.28034 9.17254C2.22756 9.28365 2.19423 9.40309 2.19423 9.53087C2.19423 9.85031 2.48868 9.9642 2.65257 9.9642C2.84979 9.9642 3.05812 9.80865 3.05812 9.62254C3.05812 9.50031 2.99423 9.43087 2.89701 9.43087C2.67201 9.43087 2.68312 9.62254 2.73034 9.74754C2.59145 9.68365 2.50534 9.57254 2.53312 9.45309C2.45256 9.44198 2.37756 9.40587 2.30812 9.32531C2.3609 9.25587 2.43034 9.20309 2.53312 9.20309C2.49145 9.01698 2.61368 8.94198 2.73034 8.89754C2.69423 9.03087 2.66645 9.19198 2.89701 9.19198C3.06923 9.19198 3.19701 9.21976 3.27757 9.33087C3.28312 9.18642 3.29423 8.60865 3.29423 8.60865C3.30534 8.39476 3.00534 8.40031 2.81368 8.4642C2.88312 8.2142 3.03312 8.07809 3.37479 8.11698C3.29423 8.08365 3.20256 8.00587 3.20256 7.85587C3.20256 7.65309 3.36923 7.42809 3.47479 7.3642L3.53034 9.44754Z" fill="#FEC50C"/>
<path d="M3.53034 11.0725C3.53034 10.5336 3.04423 10.2558 2.66368 10.2558C2.14979 10.2558 1.87201 10.5669 1.87201 10.9669C1.87201 11.1975 1.91368 11.3419 2.02201 11.5558C2.02201 11.5558 2.87201 13.3197 3.20257 14.003C3.24423 14.0891 3.25534 14.1836 3.25534 14.328C3.25534 14.5475 3.04145 14.728 2.81645 14.7336C2.61368 14.7391 2.38868 14.5419 2.38868 14.3225C2.38868 14.0558 2.52757 13.9336 2.67201 13.9336C2.84701 13.9336 2.91923 14.0086 2.91923 14.1308C2.91923 14.2169 2.87757 14.253 2.81645 14.253C2.66645 14.253 2.7109 14.0502 2.7109 14.0502C2.6359 14.0669 2.57201 14.1419 2.60812 14.2363C2.54979 14.2475 2.50257 14.278 2.45812 14.3225C2.49979 14.3586 2.54423 14.3919 2.60812 14.403C2.57201 14.5197 2.61923 14.578 2.71923 14.6002C2.69701 14.5586 2.69701 14.5141 2.70257 14.4725C2.86368 14.5197 3.11368 14.4447 3.11368 14.1669C3.11368 13.8891 2.92201 13.6586 2.56368 13.7113C2.64979 13.6697 2.69145 13.5891 2.70257 13.4919C2.63868 13.5197 2.56368 13.5197 2.56368 13.5197C2.60534 13.4447 2.66645 13.3808 2.6609 13.2363C2.59145 13.2697 2.53312 13.3225 2.44701 13.2891C2.58034 13.028 2.41368 12.6586 1.99701 12.5725C2.15256 12.753 2.22756 12.9475 2.22756 13.1391C2.22756 13.7641 2.05256 13.8725 2.05256 14.3086C2.05256 14.4891 2.14979 14.6891 2.33034 14.8225V14.8169C2.20812 14.8502 2.12756 14.9086 2.08312 14.9919C2.36645 15.0725 2.77201 15.0725 2.99145 14.9808C3.24145 14.953 3.41923 14.7558 3.47201 14.6613C3.52479 14.5641 3.62757 14.2058 3.47201 13.8863C3.30534 13.5391 2.51645 11.8669 2.27479 11.3419C2.22201 11.2308 2.18868 11.1114 2.18868 10.9836C2.18868 10.6641 2.48312 10.5502 2.64701 10.5502C2.84423 10.5502 3.05257 10.7058 3.05257 10.8919C3.05257 11.0141 2.98868 11.0836 2.89145 11.0836C2.66645 11.0836 2.67757 10.8919 2.72479 10.7669C2.5859 10.8308 2.49979 10.9419 2.52757 11.0614C2.44701 11.0725 2.37201 11.1086 2.30256 11.1891C2.35534 11.2586 2.42479 11.3114 2.52757 11.3114C2.4859 11.4975 2.60812 11.5725 2.72479 11.6169C2.68868 11.4836 2.6609 11.3225 2.89145 11.3225C3.06368 11.3225 3.19145 11.2947 3.27201 11.1836C3.27757 11.328 3.28868 11.9058 3.28868 11.9058C3.29979 12.1197 2.99979 12.1141 2.80812 12.0502C2.87757 12.3002 3.02757 12.4363 3.36923 12.3975C3.28868 12.4308 3.19701 12.5086 3.19701 12.6586C3.19701 12.8613 3.36368 13.0863 3.46923 13.1502L3.53034 11.0725Z" fill="#FEC50C"/>
<path d="M3.47385 3.58904C3.47385 3.58904 3.72941 3.37515 3.81552 3.48349C3.95441 3.65849 3.38218 4.52515 3.38218 4.83071C3.38218 5.33349 3.7183 5.46682 4.12941 5.54182C4.40718 5.58904 4.85718 5.5196 4.85718 5.5196C4.77107 5.40849 4.7183 5.3696 4.57385 5.36404C4.73496 5.28349 4.8933 5.10293 4.8933 4.82515C4.8933 4.39182 4.7183 4.21682 4.7183 3.73071C4.7183 3.46404 4.93774 3.11682 4.93774 3.11682C4.54885 3.15293 4.35441 3.51682 4.46274 3.80571C4.39885 3.81682 4.34607 3.80015 4.29607 3.75293C4.27385 3.83349 4.3183 3.92515 4.38218 4.00293C4.33496 4.03071 4.29607 4.01404 4.22107 3.99738C4.22663 4.07793 4.27941 4.1696 4.39607 4.24738C4.0433 4.15571 3.82941 4.40293 3.82941 4.65849C3.82941 4.85015 3.96274 4.98904 4.09607 4.98904C4.13774 4.98904 4.20163 4.97238 4.23496 4.94738C4.26274 5.00015 4.24607 5.0696 4.2183 5.12238C4.31552 5.0946 4.37941 5.03626 4.33496 4.9196C4.40996 4.91404 4.4683 4.88626 4.50996 4.83904C4.4683 4.78626 4.40718 4.75849 4.33496 4.75849C4.38774 4.64738 4.32941 4.58349 4.23774 4.53349C4.23774 4.53349 4.29607 4.75849 4.15163 4.75849C4.08774 4.75849 4.02941 4.73626 4.02941 4.64182C4.02941 4.56126 4.10441 4.4446 4.27107 4.45015C4.43774 4.45571 4.57663 4.56682 4.57663 4.83626C4.57663 5.08349 4.37941 5.20571 4.1183 5.21126C3.88218 5.21682 3.70163 5.08904 3.70163 4.84738C3.70163 4.52238 4.17107 3.78349 4.17107 3.4946C4.17107 3.27515 3.97941 3.15849 3.78496 3.15849C3.53774 3.15849 3.32941 3.40571 3.32941 3.40571L3.47385 3.58904Z" fill="#FEC50C"/>
<path d="M3.42179 9.44705C3.42179 9.98594 3.9079 10.2637 4.28846 10.2637C4.80234 10.2637 5.08012 9.9526 5.08012 9.5526C5.08012 9.32205 5.03846 9.1776 4.93012 8.96372C4.93012 8.96372 4.08012 7.19982 3.74957 6.51649C3.7079 6.43038 3.69679 6.33593 3.69679 6.19149C3.69679 5.97205 3.91068 5.79149 4.13568 5.78593C4.33846 5.78038 4.56346 5.9776 4.56346 6.19705C4.56346 6.46371 4.42457 6.58594 4.28012 6.58594C4.10512 6.58594 4.0329 6.51094 4.0329 6.38871C4.0329 6.3026 4.07457 6.26649 4.13568 6.26649C4.28568 6.26649 4.24123 6.46927 4.24123 6.46927C4.31623 6.4526 4.38012 6.3776 4.34401 6.28316C4.40234 6.27205 4.44957 6.24149 4.49401 6.19705C4.45234 6.16094 4.4079 6.1276 4.34401 6.11649C4.38012 5.99982 4.3329 5.94149 4.2329 5.91927C4.25512 5.96093 4.25512 6.00538 4.24957 6.04705C4.08846 5.99982 3.83846 6.07482 3.83846 6.3526C3.83846 6.63038 4.03012 6.86094 4.38846 6.80816C4.30234 6.84982 4.26068 6.93038 4.24957 7.0276C4.31346 6.99982 4.38846 6.99982 4.38846 6.99982C4.34679 7.07482 4.28568 7.13871 4.29123 7.28316C4.36068 7.24983 4.41901 7.19705 4.50512 7.23038C4.37179 7.49149 4.53846 7.86094 4.95512 7.94705C4.79957 7.76649 4.72457 7.57205 4.72457 7.38038C4.72457 6.75538 4.89957 6.64705 4.89957 6.21094C4.89957 6.03038 4.80234 5.83038 4.62179 5.69705V5.7026C4.74401 5.66927 4.82457 5.61093 4.86901 5.5276C4.58568 5.44705 4.18012 5.44705 3.96068 5.53871C3.71068 5.56649 3.5329 5.76371 3.48012 5.85816C3.42734 5.95538 3.32457 6.31371 3.48012 6.63316C3.64679 6.98038 4.43568 8.6526 4.67734 9.1776C4.73012 9.28872 4.76346 9.40816 4.76346 9.53594C4.76346 9.85538 4.46901 9.96927 4.30512 9.96927C4.1079 9.96927 3.89957 9.81372 3.89957 9.6276C3.89957 9.50538 3.96346 9.43594 4.06068 9.43594C4.28568 9.43594 4.27457 9.6276 4.22734 9.7526C4.36623 9.68872 4.45234 9.5776 4.42457 9.45816C4.50512 9.44705 4.58012 9.41094 4.64957 9.33038C4.59679 9.26094 4.52734 9.20816 4.42457 9.20816C4.46623 9.02205 4.34401 8.94705 4.22734 8.9026C4.26346 9.03594 4.29123 9.19705 4.06068 9.19705C3.88846 9.19705 3.76068 9.22483 3.68012 9.33594C3.67457 9.19149 3.66346 8.61372 3.66346 8.61372C3.65234 8.39983 3.95234 8.40538 4.14401 8.46927C4.07457 8.21927 3.92457 8.08316 3.5829 8.12205C3.66346 8.08871 3.75512 8.01094 3.75512 7.86094C3.75512 7.65816 3.58846 7.43316 3.4829 7.36927L3.42179 9.44705Z" fill="#FEC50C"/>
<path d="M3.42179 11.0725C3.42179 10.5336 3.9079 10.2558 4.28846 10.2558C4.80234 10.2558 5.08012 10.5669 5.08012 10.9669C5.08012 11.1975 5.03846 11.3419 4.93012 11.5558C4.93012 11.5558 4.08012 13.3197 3.74957 14.003C3.7079 14.0891 3.69679 14.1836 3.69679 14.328C3.69679 14.5475 3.91068 14.728 4.13568 14.7336C4.33846 14.7391 4.56346 14.5419 4.56346 14.3225C4.56346 14.0558 4.42457 13.9336 4.28012 13.9336C4.10512 13.9336 4.0329 14.0086 4.0329 14.1308C4.0329 14.2169 4.07457 14.253 4.13568 14.253C4.28568 14.253 4.24123 14.0502 4.24123 14.0502C4.31623 14.0669 4.38012 14.1419 4.34401 14.2363C4.40234 14.2475 4.44957 14.278 4.49401 14.3225C4.45234 14.3586 4.4079 14.3919 4.34401 14.403C4.38012 14.5197 4.3329 14.578 4.2329 14.6002C4.25512 14.5586 4.25512 14.5141 4.24957 14.4725C4.08846 14.5197 3.83846 14.4447 3.83846 14.1669C3.83846 13.8891 4.03012 13.6586 4.38846 13.7113C4.30234 13.6697 4.26068 13.5891 4.24957 13.4919C4.31346 13.5197 4.38846 13.5197 4.38846 13.5197C4.34679 13.4447 4.28568 13.3808 4.29123 13.2363C4.36068 13.2697 4.41901 13.3225 4.50512 13.2891C4.37179 13.028 4.53846 12.6586 4.95512 12.5725C4.79957 12.753 4.72457 12.9475 4.72457 13.1391C4.72457 13.7641 4.89957 13.8725 4.89957 14.3086C4.89957 14.4891 4.80234 14.6891 4.62179 14.8225V14.8169C4.74401 14.8502 4.82457 14.9086 4.86901 14.9919C4.58568 15.0725 4.18012 15.0725 3.96068 14.9808C3.71068 14.953 3.5329 14.7558 3.48012 14.6613C3.42734 14.5641 3.32457 14.2058 3.48012 13.8863C3.64679 13.5391 4.43568 11.8669 4.67734 11.3419C4.73012 11.2308 4.76346 11.1114 4.76346 10.9836C4.76346 10.6641 4.46901 10.5502 4.30512 10.5502C4.1079 10.5502 3.89957 10.7058 3.89957 10.8919C3.89957 11.0141 3.96346 11.0836 4.06068 11.0836C4.28568 11.0836 4.27457 10.8919 4.22734 10.7669C4.36623 10.8308 4.45234 10.9419 4.42457 11.0614C4.50512 11.0725 4.58012 11.1086 4.64957 11.1891C4.59679 11.2586 4.52734 11.3114 4.42457 11.3114C4.46623 11.4975 4.34401 11.5725 4.22734 11.6169C4.26346 11.4836 4.29123 11.3225 4.06068 11.3225C3.88846 11.3225 3.76068 11.2947 3.68012 11.1836C3.67457 11.328 3.66346 11.9058 3.66346 11.9058C3.65234 12.1197 3.95234 12.1141 4.14401 12.0502C4.07457 12.3002 3.92457 12.4363 3.5829 12.3975C3.66346 12.4308 3.75512 12.5086 3.75512 12.6586C3.75512 12.8613 3.58846 13.0863 3.4829 13.1502L3.42179 11.0725Z" fill="#FEC50C"/>
<path d="M3.47414 26.4111C3.47414 26.4111 3.21859 26.625 3.13248 26.5166C2.99359 26.3416 3.56581 25.475 3.56581 25.1694C3.56581 24.6666 3.2297 24.5333 2.81859 24.4583C2.54081 24.4111 2.09081 24.4805 2.09081 24.4805C2.17692 24.5916 2.2297 24.6305 2.37414 24.6361C2.21303 24.7166 2.0547 24.8972 2.0547 25.175C2.0547 25.6083 2.2297 25.7833 2.2297 26.2694C2.2297 26.5361 2.01025 26.8833 2.01025 26.8833C2.39914 26.8472 2.59359 26.4833 2.48525 26.1944C2.54914 26.1833 2.60192 26.2 2.65192 26.2472C2.6797 26.1666 2.63525 26.075 2.57692 25.9972C2.62414 25.9694 2.66303 25.9861 2.73803 26.0027C2.73248 25.9222 2.6797 25.8305 2.56303 25.7527C2.91581 25.8444 3.1297 25.5972 3.1297 25.3416C3.1297 25.15 2.99636 25.0111 2.86303 25.0111C2.82136 25.0111 2.75748 25.0277 2.72414 25.0527C2.69636 25 2.71303 24.9305 2.74081 24.8777C2.64359 24.9055 2.5797 24.9638 2.62414 25.0805C2.54914 25.0861 2.49081 25.1138 2.44914 25.1611C2.49081 25.2138 2.55192 25.2416 2.62414 25.2416C2.57136 25.3527 2.6297 25.4166 2.72136 25.4666C2.72136 25.4666 2.66303 25.2416 2.80748 25.2416C2.87136 25.2416 2.9297 25.2638 2.9297 25.3583C2.9297 25.4388 2.8547 25.5555 2.68803 25.55C2.52136 25.5444 2.38248 25.4333 2.38248 25.1638C2.38248 24.9166 2.5797 24.7944 2.84081 24.7888C3.07692 24.7833 3.25748 24.9111 3.25748 25.1527C3.25748 25.4777 2.78803 26.2166 2.78803 26.5055C2.78803 26.725 2.9797 26.8416 3.17414 26.8416C3.42136 26.8416 3.6297 26.5944 3.6297 26.5944L3.47414 26.4111Z" fill="#FEC50C"/>
<path d="M3.53034 20.5527C3.53034 20.0138 3.04423 19.736 2.66368 19.736C2.14979 19.736 1.87201 20.0471 1.87201 20.4471C1.87201 20.6777 1.91368 20.8221 2.02201 21.036C2.02201 21.036 2.87201 22.7999 3.20257 23.4832C3.24423 23.5693 3.25534 23.6638 3.25534 23.8082C3.25534 24.0277 3.04145 24.2082 2.81645 24.2138C2.61368 24.2193 2.38868 24.0221 2.38868 23.8027C2.38868 23.536 2.52757 23.4138 2.67201 23.4138C2.84701 23.4138 2.91923 23.4888 2.91923 23.611C2.91923 23.6971 2.87757 23.7332 2.81645 23.7332C2.66645 23.7332 2.7109 23.5305 2.7109 23.5305C2.6359 23.5471 2.57201 23.6221 2.60812 23.7166C2.54979 23.7277 2.50257 23.7582 2.45812 23.8027C2.49979 23.8388 2.54423 23.8721 2.60812 23.8832C2.57201 23.9999 2.61923 24.0582 2.71923 24.0805C2.69701 24.0388 2.69701 23.9943 2.70257 23.9527C2.86368 23.9999 3.11368 23.9249 3.11368 23.6471C3.11368 23.3693 2.92201 23.1388 2.56368 23.1916C2.64979 23.1499 2.69145 23.0693 2.70257 22.9721C2.63868 22.9999 2.56368 22.9999 2.56368 22.9999C2.60534 22.9249 2.66645 22.861 2.6609 22.7166C2.59145 22.7499 2.53312 22.8027 2.44701 22.7694C2.58034 22.5082 2.41368 22.1388 1.99701 22.0527C2.15256 22.2332 2.22756 22.4277 2.22756 22.6194C2.22756 23.2443 2.05256 23.3527 2.05256 23.7888C2.05256 23.9693 2.14979 24.1693 2.33034 24.3027V24.2971C2.20812 24.3305 2.12756 24.3888 2.08312 24.4721C2.36645 24.5527 2.77201 24.5527 2.99145 24.461C3.24145 24.4332 3.41923 24.236 3.47201 24.1416C3.52479 24.0443 3.62757 23.686 3.47201 23.3666C3.30534 23.0194 2.51645 21.3471 2.27479 20.8221C2.22201 20.711 2.18868 20.5916 2.18868 20.4638C2.18868 20.1444 2.48312 20.0305 2.64701 20.0305C2.84423 20.0305 3.05257 20.186 3.05257 20.3721C3.05257 20.4944 2.98868 20.5638 2.89145 20.5638C2.66645 20.5638 2.67757 20.3721 2.72479 20.2471C2.5859 20.311 2.49979 20.4221 2.52757 20.5416C2.44701 20.5527 2.37201 20.5888 2.30256 20.6694C2.35534 20.7388 2.42479 20.7916 2.52757 20.7916C2.4859 20.9777 2.60812 21.0527 2.72479 21.0971C2.68868 20.9638 2.6609 20.8027 2.89145 20.8027C3.06368 20.8027 3.19145 20.7749 3.27201 20.6638C3.27757 20.8082 3.28868 21.386 3.28868 21.386C3.29979 21.5999 2.99979 21.5944 2.80812 21.5305C2.87757 21.7805 3.02757 21.9166 3.36923 21.8777C3.28868 21.911 3.19701 21.9888 3.19701 22.1388C3.19701 22.3416 3.36368 22.5666 3.46923 22.6305L3.53034 20.5527Z" fill="#FEC50C"/>
<path d="M3.53034 18.9279C3.53034 19.4668 3.04423 19.7446 2.66368 19.7446C2.14979 19.7446 1.87201 19.4335 1.87201 19.0335C1.87201 18.8029 1.91368 18.6585 2.02201 18.4446C2.02201 18.4446 2.87201 16.6807 3.20257 15.9974C3.24423 15.9113 3.25534 15.8168 3.25534 15.6724C3.25534 15.4529 3.04145 15.2724 2.81645 15.2668C2.61368 15.2613 2.38868 15.4585 2.38868 15.6779C2.38868 15.9446 2.52757 16.0668 2.67201 16.0668C2.84701 16.0668 2.91923 15.9918 2.91923 15.8696C2.91923 15.7835 2.87757 15.7474 2.81645 15.7474C2.66645 15.7474 2.7109 15.9502 2.7109 15.9502C2.6359 15.9335 2.57201 15.8585 2.60812 15.7641C2.54979 15.7529 2.50257 15.7224 2.45812 15.6779C2.49979 15.6418 2.54423 15.6085 2.60812 15.5974C2.57201 15.4807 2.61923 15.4224 2.71923 15.4002C2.69701 15.4418 2.69701 15.4863 2.70257 15.5279C2.86368 15.4807 3.11368 15.5557 3.11368 15.8335C3.11368 16.1113 2.92201 16.3418 2.56368 16.2891C2.64979 16.3307 2.69145 16.4113 2.70257 16.5085C2.63868 16.4807 2.56368 16.4807 2.56368 16.4807C2.60534 16.5557 2.66645 16.6196 2.6609 16.7641C2.59145 16.7307 2.53312 16.6779 2.44701 16.7113C2.58034 16.9724 2.41368 17.3418 1.99701 17.4279C2.15256 17.2474 2.22756 17.0529 2.22756 16.8613C2.22756 16.2363 2.05256 16.1279 2.05256 15.6918C2.05256 15.5113 2.14979 15.3113 2.33034 15.1779V15.1835C2.20812 15.1502 2.12756 15.0918 2.08312 15.0085C2.36645 14.9279 2.77201 14.9279 2.99145 15.0196C3.24145 15.0474 3.41923 15.2446 3.47201 15.3391C3.52479 15.4363 3.62757 15.7946 3.47201 16.1141C3.30534 16.4613 2.51645 18.1335 2.27479 18.6585C2.22201 18.7696 2.18868 18.889 2.18868 19.0168C2.18868 19.3363 2.48312 19.4502 2.64701 19.4502C2.84423 19.4502 3.05257 19.2946 3.05257 19.1085C3.05257 18.9863 2.98868 18.9168 2.89145 18.9168C2.66645 18.9168 2.67757 19.1085 2.72479 19.2335C2.5859 19.1696 2.49979 19.0585 2.52757 18.939C2.44701 18.9279 2.37201 18.8918 2.30256 18.8113C2.35534 18.7418 2.42479 18.689 2.52757 18.689C2.4859 18.5029 2.60812 18.4279 2.72479 18.3835C2.68868 18.5168 2.6609 18.6779 2.89145 18.6779C3.06368 18.6779 3.19145 18.7057 3.27201 18.8168C3.27757 18.6724 3.28868 18.0946 3.28868 18.0946C3.29979 17.8807 2.99979 17.8863 2.80812 17.9502C2.87757 17.7002 3.02757 17.564 3.36923 17.6029C3.28868 17.5696 3.19701 17.4918 3.19701 17.3418C3.19701 17.139 3.36368 16.914 3.46923 16.8502L3.53034 18.9279Z" fill="#FEC50C"/>
<path d="M3.47459 26.4111C3.47459 26.4111 3.73014 26.625 3.81625 26.5166C3.95514 26.3416 3.38292 25.475 3.38292 25.1694C3.38292 24.6666 3.71903 24.5333 4.13014 24.4583C4.40792 24.4111 4.85792 24.4805 4.85792 24.4805C4.77181 24.5916 4.71903 24.6305 4.57459 24.6361C4.7357 24.7166 4.89403 24.8972 4.89403 25.175C4.89403 25.6083 4.71903 25.7833 4.71903 26.2694C4.71903 26.5361 4.93848 26.8833 4.93848 26.8833C4.54959 26.8472 4.35514 26.4833 4.46347 26.1944C4.39959 26.1833 4.34681 26.2 4.29681 26.2472C4.26903 26.1666 4.31347 26.075 4.37181 25.9972C4.32459 25.9694 4.2857 25.9861 4.2107 26.0027C4.21625 25.9222 4.26903 25.8305 4.3857 25.7527C4.03292 25.8444 3.81903 25.5972 3.81903 25.3416C3.81903 25.15 3.95236 25.0111 4.0857 25.0111C4.12736 25.0111 4.19125 25.0277 4.22459 25.0527C4.25236 25 4.2357 24.9305 4.20792 24.8777C4.30514 24.9055 4.36903 24.9638 4.32459 25.0805C4.39959 25.0861 4.45792 25.1138 4.49959 25.1611C4.45792 25.2138 4.39681 25.2416 4.32459 25.2416C4.37736 25.3527 4.31903 25.4166 4.22736 25.4666C4.22736 25.4666 4.2857 25.2416 4.14125 25.2416C4.07736 25.2416 4.01903 25.2638 4.01903 25.3583C4.01903 25.4388 4.09403 25.5555 4.2607 25.55C4.42736 25.5444 4.56625 25.4333 4.56625 25.1638C4.56625 24.9166 4.36903 24.7944 4.10792 24.7888C3.87181 24.7833 3.69125 24.9111 3.69125 25.1527C3.69125 25.4777 4.1607 26.2166 4.1607 26.5055C4.1607 26.725 3.96903 26.8416 3.77459 26.8416C3.52736 26.8416 3.31903 26.5944 3.31903 26.5944L3.47459 26.4111Z" fill="#FEC50C"/>
<path d="M3.42179 20.5527C3.42179 20.0138 3.9079 19.736 4.28846 19.736C4.80234 19.736 5.08012 20.0471 5.08012 20.4471C5.08012 20.6777 5.03846 20.8221 4.93012 21.036C4.93012 21.036 4.08012 22.7999 3.74957 23.4832C3.7079 23.5693 3.69679 23.6638 3.69679 23.8082C3.69679 24.0277 3.91068 24.2082 4.13568 24.2138C4.33846 24.2193 4.56346 24.0221 4.56346 23.8027C4.56346 23.536 4.42457 23.4138 4.28012 23.4138C4.10512 23.4138 4.0329 23.4888 4.0329 23.611C4.0329 23.6971 4.07457 23.7332 4.13568 23.7332C4.28568 23.7332 4.24123 23.5305 4.24123 23.5305C4.31623 23.5471 4.38012 23.6221 4.34401 23.7166C4.40234 23.7277 4.44957 23.7582 4.49401 23.8027C4.45234 23.8388 4.4079 23.8721 4.34401 23.8832C4.38012 23.9999 4.3329 24.0582 4.2329 24.0805C4.25512 24.0388 4.25512 23.9943 4.24957 23.9527C4.08846 23.9999 3.83846 23.9249 3.83846 23.6471C3.83846 23.3693 4.03012 23.1388 4.38846 23.1916C4.30234 23.1499 4.26068 23.0693 4.24957 22.9721C4.31346 22.9999 4.38846 22.9999 4.38846 22.9999C4.34679 22.9249 4.28568 22.861 4.29123 22.7166C4.36068 22.7499 4.41901 22.8027 4.50512 22.7694C4.37179 22.5082 4.53846 22.1388 4.95512 22.0527C4.79957 22.2332 4.72457 22.4277 4.72457 22.6194C4.72457 23.2443 4.89957 23.3527 4.89957 23.7888C4.89957 23.9693 4.80234 24.1693 4.62179 24.3027V24.2971C4.74401 24.3305 4.82457 24.3888 4.86901 24.4721C4.58568 24.5527 4.18012 24.5527 3.96068 24.461C3.71068 24.4332 3.5329 24.236 3.48012 24.1416C3.42734 24.0443 3.32457 23.686 3.48012 23.3666C3.64679 23.0194 4.43568 21.3471 4.67734 20.8221C4.73012 20.711 4.76346 20.5916 4.76346 20.4638C4.76346 20.1444 4.46901 20.0305 4.30512 20.0305C4.1079 20.0305 3.89957 20.186 3.89957 20.3721C3.89957 20.4944 3.96346 20.5638 4.06068 20.5638C4.28568 20.5638 4.27457 20.3721 4.22734 20.2471C4.36623 20.311 4.45234 20.4221 4.42457 20.5416C4.50512 20.5527 4.58012 20.5888 4.64957 20.6694C4.59679 20.7388 4.52734 20.7916 4.42457 20.7916C4.46623 20.9777 4.34401 21.0527 4.22734 21.0971C4.26346 20.9638 4.29123 20.8027 4.06068 20.8027C3.88846 20.8027 3.76068 20.7749 3.68012 20.6638C3.67457 20.8082 3.66346 21.386 3.66346 21.386C3.65234 21.5999 3.95234 21.5944 4.14401 21.5305C4.07457 21.7805 3.92457 21.9166 3.5829 21.8777C3.66346 21.911 3.75512 21.9888 3.75512 22.1388C3.75512 22.3416 3.58846 22.5666 3.4829 22.6305L3.42179 20.5527Z" fill="#FEC50C"/>
<path d="M3.42179 18.9279C3.42179 19.4668 3.9079 19.7446 4.28846 19.7446C4.80234 19.7446 5.08012 19.4335 5.08012 19.0335C5.08012 18.8029 5.03846 18.6585 4.93012 18.4446C4.93012 18.4446 4.08012 16.6807 3.74957 15.9974C3.7079 15.9113 3.69679 15.8168 3.69679 15.6724C3.69679 15.4529 3.91068 15.2724 4.13568 15.2668C4.33846 15.2613 4.56346 15.4585 4.56346 15.6779C4.56346 15.9446 4.42457 16.0668 4.28012 16.0668C4.10512 16.0668 4.0329 15.9918 4.0329 15.8696C4.0329 15.7835 4.07457 15.7474 4.13568 15.7474C4.28568 15.7474 4.24123 15.9502 4.24123 15.9502C4.31623 15.9335 4.38012 15.8585 4.34401 15.7641C4.40234 15.7529 4.44957 15.7224 4.49401 15.6779C4.45234 15.6418 4.4079 15.6085 4.34401 15.5974C4.38012 15.4807 4.3329 15.4224 4.2329 15.4002C4.25512 15.4418 4.25512 15.4863 4.24957 15.5279C4.08846 15.4807 3.83846 15.5557 3.83846 15.8335C3.83846 16.1113 4.03012 16.3418 4.38846 16.2891C4.30234 16.3307 4.26068 16.4113 4.24957 16.5085C4.31346 16.4807 4.38846 16.4807 4.38846 16.4807C4.34679 16.5557 4.28568 16.6196 4.29123 16.7641C4.36068 16.7307 4.41901 16.6779 4.50512 16.7113C4.37179 16.9724 4.53846 17.3418 4.95512 17.4279C4.79957 17.2474 4.72457 17.0529 4.72457 16.8613C4.72457 16.2363 4.89957 16.1279 4.89957 15.6918C4.89957 15.5113 4.80234 15.3113 4.62179 15.1779V15.1835C4.74401 15.1502 4.82457 15.0918 4.86901 15.0085C4.58568 14.9279 4.18012 14.9279 3.96068 15.0196C3.71068 15.0474 3.5329 15.2446 3.48012 15.3391C3.42734 15.4363 3.32457 15.7946 3.48012 16.1141C3.64679 16.4613 4.43568 18.1335 4.67734 18.6585C4.73012 18.7696 4.76346 18.889 4.76346 19.0168C4.76346 19.3363 4.46901 19.4502 4.30512 19.4502C4.1079 19.4502 3.89957 19.2946 3.89957 19.1085C3.89957 18.9863 3.96346 18.9168 4.06068 18.9168C4.28568 18.9168 4.27457 19.1085 4.22734 19.2335C4.36623 19.1696 4.45234 19.0585 4.42457 18.939C4.50512 18.9279 4.58012 18.8918 4.64957 18.8113C4.59679 18.7418 4.52734 18.689 4.42457 18.689C4.46623 18.5029 4.34401 18.4279 4.22734 18.3835C4.26346 18.5168 4.29123 18.6779 4.06068 18.6779C3.88846 18.6779 3.76068 18.7057 3.68012 18.8168C3.67457 18.6724 3.66346 18.0946 3.66346 18.0946C3.65234 17.8807 3.95234 17.8863 4.14401 17.9502C4.07457 17.7002 3.92457 17.564 3.5829 17.6029C3.66346 17.5696 3.75512 17.4918 3.75512 17.3418C3.75512 17.139 3.58846 16.914 3.4829 16.8502L3.42179 18.9279Z" fill="#FEC50C"/>
</g>
<defs>
<clipPath id="clip0_93_10074">
<rect width="53.3333" height="30" fill="white" transform="translate(0.324219)"/>
</clipPath>
</defs>
</svg>
