<svg width="55" height="30" viewBox="0 0 55 30" fill="none" xmlns="http://www.w3.org/2000/svg">
<g clip-path="url(#clip0_93_11836)">
<path d="M54.3187 0H0.985352V30H54.3187V0Z" fill="white"/>
<path d="M54.3187 0H0.985352V9H54.3187V0Z" fill="black"/>
<path d="M54.3187 10.5H0.985352V19.5H54.3187V10.5Z" fill="#BB0000"/>
<path d="M54.3187 21H0.985352V30H54.3187V21Z" fill="#006600"/>
<path d="M22.2912 23.9056L22.6162 24.0945L31.3773 8.92502C31.8885 8.78891 32.1718 8.30002 32.4523 7.81391C32.6412 7.48891 33.3912 6.18891 33.7162 4.5028C32.4162 5.6278 31.6662 6.9278 31.4801 7.2528C31.1996 7.73891 30.9162 8.2278 31.0551 8.73891L22.2912 23.9056Z" fill="black"/>
<path d="M22.2912 23.9056L22.6162 24.0945L31.3773 8.92502C31.8885 8.78891 32.1718 8.30002 32.4523 7.81391C32.6412 7.48891 33.3912 6.18891 33.7162 4.5028C32.4162 5.6278 31.6662 6.9278 31.4801 7.2528C31.1996 7.73891 30.9162 8.2278 31.0551 8.73891L22.2912 23.9056Z" fill="white"/>
<path d="M33.0128 23.9056L32.6878 24.0945L23.9267 8.92502C23.4155 8.78891 23.1322 8.30002 22.8517 7.81391C22.6628 7.48891 21.9128 6.18891 21.5878 4.5028C22.8878 5.6278 23.6378 6.9278 23.8239 7.2528C24.1044 7.73891 24.3878 8.2278 24.2489 8.73891L33.0128 23.9056Z" fill="black"/>
<path d="M33.0128 23.9056L32.6878 24.0945L23.9267 8.92502C23.4155 8.78891 23.1322 8.30002 22.8517 7.81391C22.6628 7.48891 21.9128 6.18891 21.5878 4.5028C22.8878 5.6278 23.6378 6.9278 23.8239 7.2528C24.1044 7.73891 24.3878 8.2278 24.2489 8.73891L33.0128 23.9056Z" fill="white"/>
<path d="M24.0911 19.5C24.655 21 26.53 24 27.655 24C28.78 24 30.655 21 31.2189 19.5V10.5C30.655 9 28.78 6 27.655 6C26.53 6 24.655 9 24.0911 10.5V19.5Z" fill="#BB0000"/>
<path d="M31.2161 19.5C31.7799 18 32.1549 16.5 32.1549 15C32.1549 13.5 31.7799 12 31.2161 10.5C30.6522 12 30.2772 13.5 30.2772 15C30.2772 16.5 30.6522 18 31.2161 19.5Z" fill="black"/>
<path d="M24.0911 19.5C23.5272 18 23.1522 16.5 23.1522 15C23.1522 13.5 23.5272 12 24.0911 10.5C24.655 12 25.03 13.5 25.03 15C25.03 16.5 24.6522 18 24.0911 19.5Z" fill="black"/>
<path d="M27.6522 16.125C28.0664 16.125 28.4021 15.6213 28.4021 15C28.4021 14.3787 28.0664 13.875 27.6522 13.875C27.2379 13.875 26.9022 14.3787 26.9022 15C26.9022 15.6213 27.2379 16.125 27.6522 16.125Z" fill="white"/>
<path d="M27.8411 16.0943C27.8411 16.0943 28.5911 17.5943 28.5911 20.0332C28.5911 22.4721 27.8411 23.9721 27.8411 23.9721V16.0943Z" fill="white"/>
<path d="M27.4661 13.9057C27.4661 13.9057 26.7161 12.4057 26.7161 9.96685C26.7161 7.52796 27.4661 6.03074 27.4661 6.03074V13.9057Z" fill="white"/>
<path d="M27.4661 16.0943C27.4661 16.0943 26.7161 17.5943 26.7161 20.0332C26.7161 22.4721 27.4661 23.9721 27.4661 23.9721V16.0943Z" fill="white"/>
<path d="M27.8411 13.9057C27.8411 13.9057 28.5911 12.4057 28.5911 9.96685C28.5911 7.52796 27.8411 6.03074 27.8411 6.03074V13.9057Z" fill="white"/>
</g>
<defs>
<clipPath id="clip0_93_11836">
<rect width="53.3333" height="30" fill="white" transform="translate(0.985352)"/>
</clipPath>
</defs>
</svg>
