<svg width="70" height="30" viewBox="0 0 70 30" fill="none" xmlns="http://www.w3.org/2000/svg">
<path d="M64.9886 0H4.98865V16.2H64.9886V0Z" fill="#C81010"/>
<path d="M35.5689 2.73058C33.6578 1.94169 32.4884 1.80002 31.1884 1.78058C29.2884 1.80002 28.3884 2.61113 26.5884 2.68891C27.2995 3.45836 29.8884 3.65002 30.9773 2.63891C32.5967 2.80836 32.9662 3.25002 33.4078 3.78891C32.7273 3.6778 31.9467 3.48891 31.3078 4.20002C30.7578 4.31113 30.5078 4.20002 29.5773 4.20002C29.1384 4.20002 28.9884 4.41113 28.9967 4.80002C29.2773 4.41113 31.2273 4.63891 31.7078 4.80002C32.0773 4.91947 32.4689 5.43058 32.9273 5.51947C34.1467 5.73891 35.8967 5.10002 37.5078 4.66947L40.9884 4.20002H38.5995L41.5884 3.60002C40.1995 3.60002 39.2773 3.60002 38.3384 3.60002C38.2689 3.51947 38.1078 3.41947 37.9689 3.33058C38.8078 2.79169 39.5495 1.81113 39.7384 1.34169C41.2495 1.33058 42.2189 1.18058 43.3884 0.911134C35.6689 0.0611343 37.43 0.980579 35.5689 2.73058Z" fill="#F8D000"/>
<path d="M33.4496 5.58058C33.2607 5.58058 33.0801 5.56947 32.9107 5.5417C32.6413 5.49169 32.3996 5.31114 32.1718 5.13058C32.0024 5.00003 31.8413 4.88058 31.6829 4.81947C31.2024 4.65836 29.2635 4.43892 29.0024 4.80836L28.9635 4.86947V4.80003C28.9635 4.58058 29.0024 4.43058 29.1024 4.33058C29.2024 4.23058 29.3524 4.18058 29.5635 4.18058C29.9329 4.18058 30.194 4.20003 30.4024 4.21114C30.7329 4.23058 30.9524 4.25003 31.2829 4.18058C31.894 3.51114 32.6135 3.63058 33.2524 3.74169C33.2829 3.75281 33.3135 3.75281 33.3413 3.76114C32.9413 3.26114 32.5524 2.83058 30.9801 2.66114C29.8413 3.70003 27.2607 3.46114 26.5607 2.70003L26.5302 2.66114H26.5802C27.4413 2.62225 28.1107 2.42225 28.7496 2.21114C29.4607 1.99169 30.1885 1.76114 31.169 1.76114C32.5301 1.77225 33.6801 1.93058 35.5496 2.70003C35.9607 2.31114 36.1885 1.98058 36.3885 1.68058C37.1079 0.619472 37.369 0.219472 43.3885 0.891694L43.519 0.902806L43.3885 0.933361C42.3079 1.18336 41.319 1.34447 39.7496 1.36392C39.5496 1.83336 38.8301 2.79447 38.0107 3.33336L38.0413 3.35281C38.1607 3.43336 38.2801 3.51392 38.3524 3.58336H41.8301L38.8413 4.18336H41.3524L37.5218 4.69447C37.2218 4.77503 36.9024 4.86392 36.6024 4.95558C35.4885 5.26114 34.369 5.58058 33.4496 5.58058ZM29.9385 4.56114C30.619 4.56114 31.4385 4.69169 31.6996 4.78058C31.8607 4.83058 32.0301 4.96114 32.1996 5.09169C32.4301 5.26114 32.6607 5.44169 32.919 5.49169C33.8996 5.67225 35.2579 5.27225 36.5579 4.90281C36.869 4.81392 37.1774 4.72225 37.4885 4.6417L40.6274 4.22225H38.3468L41.3357 3.62225H38.3051L38.294 3.61114C38.2329 3.54169 38.1051 3.46114 37.994 3.38058L37.9051 3.31947L37.9357 3.30003C38.7746 2.76114 39.5051 1.78892 39.6968 1.31947L39.7079 1.30836H39.7274C41.2468 1.28892 42.2162 1.14725 43.2468 0.908361C37.3968 0.269472 37.1274 0.658361 36.4274 1.69725C36.219 2.00003 35.9885 2.35003 35.5801 2.73892L35.569 2.75003L35.5579 2.73892C33.6885 1.96947 32.5385 1.80836 31.1885 1.78892C30.2079 1.80003 29.4774 2.01947 28.7774 2.23892C28.1468 2.43892 27.4885 2.63892 26.6468 2.67781C27.0079 3.02781 27.7857 3.25836 28.6468 3.27781C29.6274 3.29725 30.4774 3.04725 30.9663 2.58892L30.9774 2.57781H30.9885C32.6385 2.74725 33.0079 3.20836 33.4274 3.73892L33.4663 3.78892L33.4051 3.77781C33.3551 3.76669 33.3051 3.75836 33.2551 3.75836C32.6246 3.65836 31.9163 3.53892 31.3246 4.18892L31.3135 4.20003H31.3024C30.9718 4.26947 30.7413 4.25003 30.4024 4.23058C30.1913 4.21947 29.9218 4.20003 29.5635 4.20003C29.3635 4.20003 29.2246 4.23892 29.1329 4.33892C29.0524 4.41947 29.0135 4.55003 29.0024 4.71947C29.169 4.61114 29.5301 4.56114 29.9385 4.56114Z" fill="black"/>
<path d="M32 3.98877C32.0805 3.98877 32.15 4.05821 32.15 4.13877C32.15 4.21932 32.0805 4.28877 32 4.28877C31.9194 4.28877 31.85 4.21932 31.85 4.13877C31.85 4.06099 31.9111 3.98877 32 3.98877Z" fill="black"/>
<path d="M31.9995 4.3C31.9106 4.3 31.8384 4.23056 31.8384 4.13889C31.8384 4.04723 31.9078 3.97778 31.9995 3.97778C32.0912 3.97778 32.1606 4.04723 32.1606 4.13889C32.1606 4.23056 32.08 4.3 31.9995 4.3ZM31.9995 4.00001C31.9189 4.00001 31.8606 4.06112 31.8606 4.13889C31.8606 4.21945 31.9217 4.27778 31.9995 4.27778C32.0773 4.27778 32.1384 4.21667 32.1384 4.13889C32.1384 4.06112 32.0689 4.00001 31.9995 4.00001Z" fill="black"/>
<path d="M32.9607 4.21949V4.16949C33.3607 4.16949 33.9912 3.80838 33.9912 3.80005L34.0107 3.83894C33.9885 3.86116 33.3801 4.21949 32.9607 4.21949Z" fill="black"/>
<path d="M37.5191 4.68058L37.4885 4.64169C37.508 4.62224 38.0774 4.17224 38.5996 4.17224V4.22224C38.0885 4.21946 37.5191 4.66947 37.5191 4.68058Z" fill="black"/>
<path d="M28.3804 2.48062L28.361 2.44173C28.3804 2.43062 28.8304 2.19173 29.0499 2.13062L29.061 2.1695C28.8499 2.23895 28.3887 2.48062 28.3804 2.48062Z" fill="black"/>
<path d="M30.3106 2.13051L30.2911 2.09162C30.3022 2.09162 31.0522 1.77218 31.8606 1.79162V1.84162C31.0606 1.8194 30.3189 2.13051 30.3106 2.13051Z" fill="black"/>
<path d="M34.1607 2.25008C33.2801 2.05008 32.3107 2.21119 32.2996 2.21119L32.2885 2.16119C32.2996 2.16119 33.269 2.00008 34.1579 2.20008V2.25008H34.1607Z" fill="black"/>
<path d="M34.9801 2.53046C34.219 2.31935 33.4189 2.4499 33.4189 2.4499L33.4078 2.3999C33.4189 2.3999 34.2273 2.26935 34.9967 2.48046L34.9801 2.53046Z" fill="black"/>
<path d="M35.4608 2.86102C35.0608 2.71102 34.2497 2.69157 34.2413 2.69157V2.63879C34.2719 2.63879 35.0719 2.6499 35.4719 2.80824L35.4608 2.86102Z" fill="black"/>
<path d="M27.4885 2.81937C26.9774 2.81937 26.5885 2.71937 26.5774 2.70826L26.5885 2.66937C26.5996 2.66937 27.7385 2.98048 28.6579 2.53882L28.6774 2.57771C28.2885 2.76104 27.8607 2.81937 27.4885 2.81937Z" fill="black"/>
<path d="M27.6186 2.93877C27.1381 2.93877 26.7381 2.83877 26.7297 2.83877L26.7408 2.79988C26.752 2.79988 28.2297 3.16099 28.8908 2.48877L28.9214 2.51933C28.5881 2.86099 28.0686 2.93877 27.6186 2.93877Z" fill="black"/>
<path d="M27.7603 3.16935C27.4492 3.16935 27.2297 3.09991 27.2297 3.09991L27.2408 3.06102C27.252 3.06102 28.3603 3.41102 29.2214 2.49158L29.252 2.52213C28.7603 3.06102 28.1686 3.16935 27.7603 3.16935Z" fill="black"/>
<path d="M28.2886 3.33059L28.2775 3.2917C28.2886 3.2917 29.1775 3.03059 29.5164 2.50281L29.5552 2.52225C29.2108 3.06114 28.3191 3.31947 28.2886 3.33059Z" fill="black"/>
<path d="M28.9993 3.33901L28.9688 3.30012C28.9799 3.30012 29.5799 2.88068 29.7882 2.51123L29.8271 2.53067C29.6188 2.91123 29.0299 3.31957 28.9993 3.33901Z" fill="black"/>
<path d="M37.9691 3.34989C37.0802 3.161 36.8302 2.86933 36.8191 2.861L36.858 2.83044C36.858 2.83044 37.108 3.13044 37.9774 3.311L37.9691 3.34989Z" fill="black"/>
<path d="M38.1797 3.21109C37.3797 3.12221 36.9992 2.74165 36.9797 2.72221L37.0103 2.69165C37.0103 2.69165 37.3992 3.07221 38.1797 3.16109V3.21109Z" fill="black"/>
<path d="M38.4304 3.01123C37.5804 2.89179 37.1915 2.56123 37.1804 2.54179L37.211 2.51123C37.211 2.51123 37.611 2.84179 38.4415 2.97234L38.4304 3.01123Z" fill="black"/>
<path d="M38.6606 2.80005C37.98 2.75005 37.38 2.36116 37.3717 2.35005L37.4023 2.31116C37.4134 2.31116 38.0023 2.71116 38.6717 2.75005L38.6606 2.80005Z" fill="black"/>
<path d="M38.861 2.5889C38.0304 2.4889 37.5999 2.10001 37.5999 2.10001L37.6304 2.06946C37.6304 2.06946 38.0499 2.45835 38.8693 2.55001L38.861 2.5889Z" fill="black"/>
<path d="M39.0492 2.38065C38.2798 2.31954 37.7798 1.90009 37.7687 1.89176L37.7992 1.86121C37.7992 1.86121 38.2881 2.28065 39.0492 2.33065V2.38065Z" fill="black"/>
<path d="M39.2607 2.13058C38.2718 2.04169 37.9607 1.70002 37.9496 1.68058L37.9801 1.65002C37.9801 1.65002 38.2913 1.98891 39.2607 2.08058V2.13058Z" fill="black"/>
<path d="M39.4189 1.91122C38.48 1.83067 38.1383 1.47233 38.13 1.45011L38.1606 1.41956C38.1606 1.41956 38.4994 1.78067 39.4217 1.85844V1.91122H39.4189Z" fill="black"/>
<path d="M39.5297 1.71118C38.8603 1.71118 38.2686 1.27229 38.2603 1.27229L38.2908 1.2334C38.3019 1.2334 38.8797 1.67229 39.5519 1.66395V1.71395C39.5491 1.71118 39.538 1.71118 39.5297 1.71118Z" fill="black"/>
<path d="M39.6187 1.56116C39.1493 1.56116 38.4187 1.12227 38.3882 1.10005L38.4076 1.06116C38.4187 1.06116 39.1687 1.51116 39.6187 1.51116C39.6299 1.51116 39.6299 1.51116 39.6382 1.51116V1.56116C39.6299 1.56116 39.6299 1.56116 39.6187 1.56116Z" fill="black"/>
<path d="M39.7298 1.36112C39.1492 1.28056 38.5298 0.891672 38.5187 0.891672L38.5381 0.852783C38.5492 0.852783 39.1576 1.23334 39.727 1.32223V1.36112H39.7298Z" fill="black"/>
<path d="M36.3386 3.23901C36.108 3.23901 35.8691 3.05845 35.858 3.05012L35.8886 3.01123C35.8886 3.01123 36.1386 3.19179 36.358 3.19179V3.24179C36.3497 3.23901 36.3497 3.23901 36.3386 3.23901Z" fill="black"/>
<path d="M36.5301 3.09997C36.2301 3.09997 36.0106 2.91941 35.9995 2.91108L36.0301 2.87219C36.0301 2.87219 36.2412 3.05275 36.5301 3.05275V3.09997Z" fill="black"/>
<path d="M36.661 2.93893C36.3915 2.93893 36.1915 2.75004 36.1804 2.73893L36.211 2.70837C36.211 2.70837 36.4499 2.92782 36.7304 2.88893L36.7416 2.93893C36.711 2.93893 36.6888 2.93893 36.661 2.93893Z" fill="black"/>
<path d="M36.8994 2.78051C36.6383 2.78051 36.3494 2.59163 36.3383 2.58051L36.3688 2.54163C36.3688 2.54163 36.6494 2.73051 36.8994 2.73051H36.9105V2.78051C36.9105 2.78051 36.9105 2.78051 36.8994 2.78051Z" fill="black"/>
<path d="M37.0991 2.60006C36.7491 2.58062 36.5297 2.40007 36.5186 2.38895L36.5491 2.3584C36.5491 2.3584 36.7686 2.53895 37.0991 2.5584V2.60006Z" fill="black"/>
<path d="M37.2881 2.41947C36.9576 2.40836 36.6992 2.18891 36.6881 2.18058L36.7187 2.15002C36.7187 2.15002 36.9687 2.36947 37.2881 2.38058V2.41947Z" fill="black"/>
<path d="M37.4801 2.21935C37.1301 2.1888 36.8801 2.03047 36.869 2.03047L36.8885 1.99158C36.8885 1.99158 37.1385 2.15269 37.4773 2.18047V2.21935H37.4801Z" fill="black"/>
<path d="M37.6802 2.01103C37.369 1.98048 37.0413 1.86103 37.0302 1.86103L37.0496 1.82214C37.0496 1.82214 37.3885 1.94159 37.6885 1.97214L37.6802 2.01103Z" fill="black"/>
<path d="M37.819 1.79998C37.4301 1.79998 37.2079 1.64998 37.1996 1.63886L37.2301 1.59998C37.2301 1.59998 37.4607 1.76109 37.8607 1.74998V1.79998C37.8496 1.79998 37.8301 1.79998 37.819 1.79998Z" fill="black"/>
<path d="M38.0106 1.61938C37.6606 1.61938 37.38 1.43882 37.3717 1.43049L37.4023 1.3916C37.4023 1.3916 37.6717 1.57216 38.0134 1.57216V1.61938H38.0106Z" fill="black"/>
<path d="M38.0885 1.39998C37.7996 1.39998 37.508 1.23887 37.4885 1.23054L37.508 1.19165C37.508 1.19165 37.8774 1.39165 38.1774 1.35276L38.1885 1.40276C38.1608 1.38887 38.1191 1.39998 38.0885 1.39998Z" fill="black"/>
<path d="M38.2801 1.23051C37.8607 1.23051 37.6301 0.991618 37.619 0.980507L37.6496 0.949951C37.6496 0.949951 37.8801 1.19995 38.2996 1.18884V1.23884C38.2885 1.23051 38.2885 1.23051 38.2801 1.23051Z" fill="black"/>
<path d="M38.3299 1.06115C38.0604 1.06115 37.7299 0.880596 37.7188 0.872263L37.7382 0.833374C37.7382 0.833374 38.1493 1.06393 38.4271 1.00282L38.4382 1.05282C38.3993 1.06115 38.3688 1.06115 38.3299 1.06115Z" fill="black"/>
<path d="M38.4999 0.930536C38.211 0.930536 37.911 0.749981 37.8999 0.741648L37.9193 0.702759C37.9193 0.702759 38.2305 0.891647 38.5082 0.883314V0.933314H38.4999V0.930536Z" fill="black"/>
<path d="M38.8383 0.769453C38.4578 0.769453 38.2189 0.650008 38.2078 0.650008L38.2272 0.611119C38.2383 0.611119 38.7967 0.891675 39.5383 0.591675L39.5578 0.630564C39.2994 0.730564 39.0494 0.769453 38.8383 0.769453Z" fill="black"/>
<path d="M39.4107 0.930525C39.0413 0.930525 38.7301 0.861081 38.6996 0.84997L38.7107 0.811081C38.7218 0.811081 39.8496 1.06108 40.3301 0.622192L40.3607 0.652748C40.119 0.869414 39.7496 0.930525 39.4107 0.930525Z" fill="black"/>
<path d="M39.8887 0.930666C39.7082 0.930666 39.6082 0.919555 39.5999 0.919555V0.869555C39.611 0.869555 40.3887 0.950111 41.2499 0.669556L41.261 0.708444C40.7193 0.900111 40.1999 0.930666 39.8887 0.930666Z" fill="black"/>
<path d="M41.6689 1.0305C40.68 1.0305 40.13 0.919385 40.13 0.919385L40.1411 0.869385C40.1522 0.869385 41.3522 1.10827 43.4022 0.880496L43.4133 0.930496C42.7189 1.01105 42.1383 1.0305 41.6689 1.0305Z" fill="black"/>
<path d="M29.3297 3.31953L29.2992 3.28064C29.3103 3.28064 29.8297 2.93064 30.0492 2.53064L30.0881 2.55008C29.8686 2.9612 29.3492 3.30008 29.3297 3.31953Z" fill="black"/>
<path d="M29.73 3.25005L29.6995 3.21949C29.6995 3.21949 30.13 2.80005 30.2495 2.55005L30.2884 2.56949C30.1606 2.8306 29.7495 3.2306 29.73 3.25005Z" fill="black"/>
<path d="M30.1189 3.13887L30.0884 3.10831C30.0884 3.10831 30.4384 2.78887 30.5078 2.57776L30.5467 2.5972C30.48 2.81943 30.1384 3.13054 30.1189 3.13887Z" fill="black"/>
<path d="M30.98 2.66113C29.1689 2.43058 28.3995 2.59169 28.3911 2.59169L28.38 2.5528C28.3911 2.5528 29.1689 2.38336 30.9911 2.62224L30.98 2.66113Z" fill="black"/>
<path d="M29.0995 2.28045L29.0801 2.24156C29.0912 2.24156 29.7301 1.93044 30.2995 1.83044L30.3106 1.88044C29.7495 1.96933 29.1106 2.28045 29.0995 2.28045Z" fill="black"/>
<path d="M29.7382 2.15008L29.7188 2.11119C29.7188 2.11119 30.1993 1.89175 30.8882 1.78064L30.8993 1.83064C30.2187 1.93064 29.7493 2.15008 29.7382 2.15008Z" fill="black"/>
<path d="M30.8106 2.11116L30.7911 2.07227C30.8022 2.07227 31.4522 1.79172 32.2411 1.82227V1.87227C31.4606 1.83894 30.8106 2.11116 30.8106 2.11116Z" fill="black"/>
<path d="M31.6191 2.11939L31.608 2.0805C31.6191 2.0805 32.508 1.8805 33.3275 1.99161L33.3164 2.04161C32.5191 1.91939 31.6303 2.11106 31.6191 2.11939Z" fill="black"/>
<path d="M35.4603 2.71119C34.6908 2.5223 34.0103 2.55008 34.0103 2.55008V2.50008C34.0214 2.50008 34.6991 2.46952 35.4797 2.66119L35.4603 2.71119Z" fill="black"/>
<path d="M34.4805 2.35004C33.8194 2.2306 32.85 2.2806 32.85 2.2806V2.2306C32.8611 2.2306 33.8305 2.1806 34.5 2.30004L34.4805 2.35004Z" fill="black"/>
<path d="M40.1189 1.36109C39.1884 1.18053 38.8495 0.891642 38.8384 0.880531L38.8689 0.849976C38.8689 0.849976 39.2078 1.13886 40.13 1.31942L40.1189 1.36109Z" fill="black"/>
<path d="M40.7383 1.33062C39.9078 1.23062 39.3772 0.930615 39.3772 0.919504L39.3966 0.880615C39.4078 0.880615 39.9272 1.18062 40.7467 1.28062L40.7383 1.33062Z" fill="black"/>
<path d="M41.4494 1.26938C40.6688 1.24994 39.9299 0.930491 39.9188 0.930491L39.9383 0.891602C39.9494 0.891602 40.6772 1.21105 41.4494 1.23049V1.26938Z" fill="black"/>
<path d="M42.119 1.13896C41.3495 1.13896 40.7578 1.00007 40.7495 1.00007L40.7606 0.961182C40.7717 0.961182 41.5217 1.14174 42.4412 1.09174V1.13896C42.3301 1.13896 42.219 1.13896 42.119 1.13896Z" fill="black"/>
<path d="M31.2382 2.0999L31.2188 2.06101C31.2299 2.06101 31.7382 1.8499 32.6382 1.87212V1.92212C31.7604 1.88879 31.2382 2.0999 31.2382 2.0999Z" fill="black"/>
<path d="M35.2689 3.01105C34.8995 2.83049 34.5995 2.87216 34.5995 2.87216L34.5884 2.82216C34.5995 2.82216 34.9078 2.78327 35.2884 2.97216L35.2689 3.01105Z" fill="black"/>
<path d="M33.8884 3.86118C33.7495 3.86118 33.5884 3.84174 33.4078 3.81118L33.4189 3.76118C33.6495 3.80007 33.8301 3.82229 33.9995 3.80007C34.6384 3.45007 35.1495 3.08896 35.5495 2.71118L35.58 2.74174C35.1689 3.13063 34.6606 3.49174 34.0106 3.84174H33.9995C33.9689 3.86118 33.9301 3.86118 33.8884 3.86118Z" fill="black"/>
<path d="M29.9383 14.8806C28.5272 14.6917 27.2578 13.9001 26.4578 12.7112C27.6967 13.4223 29.1772 13.5612 30.5383 13.1001" fill="#F8D000"/>
<path d="M29.9388 14.8999C28.5193 14.711 27.2499 13.911 26.4499 12.7193L26.3999 12.6388L26.4888 12.6888C27.7193 13.3888 29.1999 13.5277 30.5499 13.0777L30.561 13.1166C29.2305 13.5666 27.7805 13.436 26.5499 12.7777C27.3388 13.9082 28.5805 14.6666 29.961 14.8471L29.9388 14.8999Z" fill="black"/>
<path d="M29.9103 16.0694L25.7297 14.7388L30.0908 14.2" fill="#F8D000"/>
<path d="M29.8996 16.0889L25.619 14.7305L30.0801 14.1805L30.0885 14.2305L25.8385 14.75L29.919 16.05L29.8996 16.0889Z" fill="black"/>
<path d="M30.5385 13.111C29.2885 12.4221 28.3996 11.2304 28.0774 9.83044C28.9774 10.9416 30.308 11.611 31.7385 11.6693" fill="#F8D000"/>
<path d="M30.53 13.1305C29.28 12.4416 28.38 11.2416 28.0606 9.84158L28.0411 9.74158L28.1022 9.82213C29.0022 10.9221 30.3328 11.5916 31.7411 11.6527V11.7027C30.3411 11.6416 29.03 11.0027 28.13 9.93324C28.4606 11.2721 29.3411 12.4221 30.5606 13.1027L30.53 13.1305Z" fill="black"/>
<path d="M30.0801 14.2L26.6606 11.45L30.9218 12.5194" fill="#F8D000"/>
<path d="M30.0691 14.2193L26.5691 11.411L30.9302 12.4999L30.9108 12.5499L26.7608 11.4999L30.0996 14.1888L30.0691 14.2193Z" fill="black"/>
<path d="M31.7382 11.6695C30.8188 10.5695 30.4188 9.13892 30.6271 7.73059C31.066 9.0917 32.066 10.1917 33.3771 10.7611" fill="#F8D000"/>
<path d="M31.7301 11.6805C30.8107 10.5805 30.3996 9.14161 30.6107 7.71938L30.6218 7.61938L30.6524 7.70827C31.0912 9.05827 32.0912 10.1583 33.3912 10.7277L33.3718 10.7666C32.0912 10.2055 31.1024 9.12772 30.6412 7.8055C30.4607 9.17494 30.8718 10.5666 31.7607 11.6361L31.7301 11.6805Z" fill="black"/>
<path d="M30.9188 12.5306L28.7188 8.73059L32.2993 11.2695" fill="#F8D000"/>
<path d="M30.8999 12.5389L28.6499 8.65002L32.3193 11.25L32.2888 11.2806L28.7999 8.81114L30.9388 12.5195L30.8999 12.5389Z" fill="black"/>
<path d="M33.3803 10.7611C32.9191 9.4111 33.0608 7.92221 33.7691 6.68054C33.6886 8.1111 34.2303 9.49999 35.2386 10.5" fill="#F8D000"/>
<path d="M33.3606 10.7693C32.8995 9.40822 33.0412 7.91933 33.7495 6.66933L33.7995 6.58044L33.7884 6.68044C33.7078 8.09989 34.2384 9.49156 35.2495 10.4916L35.219 10.5221C34.2301 9.53322 33.6884 8.17211 33.7384 6.78322C33.0801 7.99989 32.9495 9.43878 33.3995 10.7499L33.3606 10.7693Z" fill="black"/>
<path d="M32.311 11.2611L31.6416 6.92224L34.061 10.5833" fill="#F8D000"/>
<path d="M32.28 11.2693L31.5884 6.83044L34.0689 10.5693L34.03 10.5999L31.6689 7.03044L32.33 11.261L32.28 11.2693Z" fill="black"/>
<path d="M35.2386 10.5111C35.2998 9.08053 35.9692 7.74998 37.0776 6.84998C36.4887 8.14998 36.4887 9.63886 37.0664 10.95" fill="#F8D000"/>
<path d="M37.0383 10.95C36.4689 9.66941 36.4578 8.21107 37.0077 6.93052C35.9466 7.83052 35.3189 9.13052 35.2578 10.5111H35.2078C35.2689 9.08052 35.9383 7.74163 37.0466 6.83052L37.1272 6.76941L37.0883 6.8583C36.4994 8.14719 36.4994 9.63885 37.0772 10.9388L37.0383 10.95Z" fill="black"/>
<path d="M34.0492 10.5889L34.9881 6.30005L35.927 10.5889" fill="#F8D000"/>
<path d="M35.8996 10.5888L34.9885 6.41106L34.0802 10.5888L34.0302 10.5805L34.9885 6.18884L35.9496 10.5805L35.8996 10.5888Z" fill="black"/>
<path d="M37.0603 10.9388C37.6297 9.62773 38.7409 8.62773 40.0909 8.18884C39.0714 9.18884 38.5298 10.5777 38.602 12" fill="#F8D000"/>
<path d="M38.58 12.0111C38.5106 10.6111 39.03 9.25002 40.0106 8.25002C38.6995 8.70002 37.6411 9.68891 37.08 10.9611L37.0411 10.9417C37.6106 9.63058 38.73 8.62225 40.0911 8.18058L40.18 8.15002L40.1106 8.21947C39.0995 9.20836 38.5606 10.6 38.63 12.0195L38.58 12.0111Z" fill="black"/>
<path d="M35.9304 10.589L38.3499 6.92786L37.6804 11.2668" fill="#F8D000"/>
<path d="M37.6995 11.2693L37.6495 11.261L38.3106 7.03044L35.9495 10.5999L35.9106 10.5693L38.3884 6.83044L37.6995 11.2693Z" fill="black"/>
<path d="M38.611 12C39.6221 10.9889 41.011 10.45 42.4304 10.5306C41.1193 11.0917 40.111 12.1917 39.661 13.55" fill="#F8D000"/>
<path d="M39.68 13.561L39.6412 13.5499C40.08 12.2194 41.0606 11.1388 42.33 10.561C40.9495 10.511 39.5995 11.0416 38.6189 12.0305L38.5884 11.9999C39.5995 10.9805 40.9995 10.4499 42.4273 10.5194L42.5273 10.5305L42.4384 10.5694C41.13 11.1194 40.13 12.211 39.68 13.561Z" fill="black"/>
<path d="M37.6688 11.2611L41.2494 8.72217L39.0494 12.5222" fill="#F8D000"/>
<path d="M39.0801 12.5389L39.0384 12.5195L41.1801 8.81114L37.6884 11.2806L37.6606 11.25L41.3301 8.65002L39.0801 12.5389Z" fill="black"/>
<path d="M39.6606 13.55C40.9606 12.9694 42.4495 12.9694 43.7606 13.5611C42.3301 13.6111 40.9995 14.2722 40.0912 15.3722" fill="#F8D000"/>
<path d="M40.0998 15.3889L40.0609 15.3584C40.9498 14.2778 42.2609 13.6195 43.6498 13.5389C42.3804 12.9889 40.9304 13 39.6609 13.5695L39.6415 13.5306C40.9526 12.95 42.4526 12.95 43.7526 13.5417L43.8415 13.5806H43.7415C42.3387 13.6389 41.0109 14.3 40.0998 15.3889Z" fill="black"/>
<path d="M39.0603 12.5306L43.3214 11.4612L39.902 14.2001" fill="#F8D000"/>
<path d="M39.9103 14.2193L39.8798 14.1888L43.2186 11.4999L39.0686 12.5499L39.0492 12.4999L43.4103 11.411L39.9103 14.2193Z" fill="black"/>
<path d="M40.0885 15.3806C41.5191 15.3112 42.8996 15.85 43.908 16.8695C42.558 16.4 41.0774 16.5389 39.8274 17.2389" fill="#F8D000"/>
<path d="M39.8297 17.2501L39.8103 17.2112C41.0297 16.5223 42.4909 16.3806 43.8103 16.8112C42.8214 15.8417 41.4714 15.3306 40.0797 15.4001V15.3501C41.5103 15.2806 42.9103 15.8195 43.9103 16.8501L43.9797 16.9195L43.8909 16.889C42.5492 16.4306 41.0686 16.5612 39.8297 17.2501Z" fill="black"/>
<path d="M39.8999 14.2L44.261 14.7388L40.0805 16.0694" fill="#F8D000"/>
<path d="M40.0799 16.0889L40.0604 16.05L44.1382 14.75L39.8882 14.2305L39.8993 14.1805L44.3604 14.7305L40.0799 16.0889Z" fill="black"/>
<path d="M34.9882 20.7C37.8048 20.7 40.0882 18.4167 40.0882 15.6C40.0882 12.7833 37.8048 10.5 34.9882 10.5C32.1715 10.5 29.8882 12.7833 29.8882 15.6C29.8882 18.4167 32.1715 20.7 34.9882 20.7Z" fill="#F8D000"/>
<path d="M34.9885 20.7195C32.169 20.7195 29.869 18.4195 29.869 15.6C29.869 12.7806 32.169 10.4806 34.9885 10.4806C37.8079 10.4806 40.1079 12.7806 40.1079 15.6C40.1079 18.4195 37.8107 20.7195 34.9885 20.7195ZM34.9885 10.5195C32.1885 10.5195 29.9079 12.8 29.9079 15.6C29.9079 18.4001 32.1885 20.6806 34.9885 20.6806C37.7885 20.6806 40.069 18.4001 40.069 15.6C40.069 12.8 37.7885 10.5195 34.9885 10.5195Z" fill="black"/>
<path d="M64.9886 16.2H4.98865V29.9999H64.9886V16.2Z" fill="#183070"/>
<path d="M59.5885 18.5999C58.4385 18.5999 57.2885 18.3694 56.1385 17.911C54.4191 17.2221 52.7496 17.2221 51.0274 17.911C48.7385 18.8221 46.4274 18.8221 44.1385 17.911C42.4079 17.2221 40.6274 17.2221 38.6996 17.9221C36.2385 18.8221 33.7385 18.8221 31.2802 17.9221C29.3496 17.2221 27.5691 17.211 25.8413 17.911C23.5524 18.8221 21.2413 18.8221 18.9524 17.911C17.2329 17.2221 15.5635 17.2221 13.8413 17.911C11.5524 18.8221 9.24128 18.8221 6.95239 17.911C5.23295 17.2221 3.5635 17.2221 1.84128 17.911L0.952393 15.6805C3.24128 14.7693 5.55239 14.7693 7.84128 15.6805C9.56073 16.3693 11.2302 16.3693 12.9524 15.6805C15.2413 14.7693 17.5524 14.7693 19.8413 15.6805C21.5607 16.3693 23.2302 16.3693 24.9524 15.6805C27.2218 14.7693 29.6329 14.7693 32.1135 15.6693C34.0524 16.3805 35.9524 16.3805 37.8941 15.6693C40.3746 14.7693 42.7746 14.7693 45.0552 15.6805C46.7746 16.3693 48.4441 16.3693 50.1663 15.6805C52.4552 14.7693 54.7663 14.7693 57.0552 15.6805C58.7746 16.3693 60.4441 16.3693 62.1663 15.6805C64.4552 14.7693 66.7663 14.7693 69.0552 15.6805L68.1663 17.911C66.4468 17.2221 64.7774 17.2221 63.0552 17.911C61.8885 18.3694 60.7385 18.5999 59.5885 18.5999Z" fill="white"/>
<path d="M59.5885 23.4001C58.4385 23.4001 57.2885 23.1695 56.1385 22.7112C54.4191 22.0223 52.7496 22.0223 51.0274 22.7112C48.7385 23.6223 46.4274 23.6223 44.1385 22.7112C42.4079 22.0223 40.6274 22.0223 38.6996 22.7223C36.2385 23.6223 33.7385 23.6223 31.2802 22.7223C29.3496 22.0223 27.5691 22.0112 25.8413 22.7112C23.5524 23.6223 21.2413 23.6223 18.9524 22.7112C17.2329 22.0223 15.5635 22.0223 13.8413 22.7112C11.5524 23.6223 9.24128 23.6223 6.95239 22.7112C5.23295 22.0223 3.5635 22.0223 1.84128 22.7112L0.952393 20.4806C3.24128 19.5695 5.55239 19.5695 7.84128 20.4806C9.56073 21.1695 11.2302 21.1695 12.9524 20.4806C15.2413 19.5695 17.5524 19.5695 19.8413 20.4806C21.5607 21.1695 23.2302 21.1695 24.9524 20.4806C27.2218 19.5695 29.6329 19.5695 32.1135 20.4695C34.0524 21.1806 35.9524 21.1806 37.8941 20.4695C40.3746 19.5695 42.7746 19.5695 45.0552 20.4806C46.7746 21.1695 48.4441 21.1695 50.1663 20.4806C52.4552 19.5695 54.7663 19.5695 57.0552 20.4806C58.7746 21.1695 60.4441 21.1695 62.1663 20.4806C64.4552 19.5695 66.7663 19.5695 69.0552 20.4806L68.1663 22.7112C66.4468 22.0223 64.7774 22.0223 63.0552 22.7112C61.8885 23.1695 60.7385 23.4001 59.5885 23.4001Z" fill="white"/>
<path d="M59.5885 28.1999C58.4385 28.1999 57.2885 27.9693 56.1385 27.511C54.4191 26.8221 52.7496 26.8221 51.0274 27.511C48.7385 28.4221 46.4274 28.4221 44.1385 27.511C42.4079 26.8221 40.6274 26.8221 38.6996 27.5221C36.2385 28.4221 33.7385 28.4221 31.2802 27.5221C29.3496 26.8221 27.5691 26.811 25.8413 27.511C23.5524 28.4221 21.2413 28.4221 18.9524 27.511C17.2329 26.8221 15.5635 26.8221 13.8413 27.511C11.5524 28.4221 9.24128 28.4221 6.95239 27.511C5.23295 26.8221 3.5635 26.8221 1.84128 27.511L0.952393 25.2804C3.24128 24.3693 5.55239 24.3693 7.84128 25.2804C9.56073 25.9693 11.2302 25.9693 12.9524 25.2804C15.2413 24.3693 17.5524 24.3693 19.8413 25.2804C21.5607 25.9693 23.2302 25.9693 24.9524 25.2804C27.2218 24.3693 29.6329 24.3693 32.1135 25.2693C34.0524 25.9804 35.9524 25.9804 37.8941 25.2693C40.3746 24.3693 42.7746 24.3693 45.0552 25.2804C46.7746 25.9693 48.4441 25.9693 50.1663 25.2804C52.4552 24.3693 54.7663 24.3693 57.0552 25.2804C58.7746 25.9693 60.4441 25.9693 62.1663 25.2804C64.4552 24.3693 66.7663 24.3693 69.0552 25.2804L68.1663 27.511C66.4468 26.8221 64.7774 26.8221 63.0552 27.511C61.8885 27.9693 60.7385 28.1999 59.5885 28.1999Z" fill="white"/>
</svg>
