<svg width="54" height="30" viewBox="0 0 54 30" fill="none" xmlns="http://www.w3.org/2000/svg">
<g clip-path="url(#clip0_93_5462)">
<path d="M-0.169617 0H54.1443V30H-0.169617V0Z" fill="#244AA5"/>
<path d="M27.2135 9.50667C27.3885 9.71222 27.508 9.91778 27.508 10.1678C27.358 10.2428 27.158 10.2733 27.0385 10.4039C27.7747 10.2983 27.9191 11.1483 28.7385 10.8289C28.7691 10.9483 28.883 11.0483 29.033 11.0039L29.1219 10.7678C29.4413 10.6789 29.358 11.2067 29.708 11.1039C29.883 11.2483 29.7691 11.4983 29.883 11.6733C29.883 11.8789 29.9719 12.0539 30.058 12.2289C30.1469 12.1289 30.2024 11.9789 30.408 12.0233C30.5524 12.1844 30.6719 12.3289 30.7024 12.5094C30.6413 12.8456 30.558 13.14 30.908 13.315V13.4206C31.1441 13.5261 31.6691 13.315 31.6691 13.7261C31.6385 13.8706 31.8135 13.74 31.8747 13.8317C32.0191 13.7706 32.2247 13.8011 32.3997 13.8011C32.5441 14.1067 32.2247 14.3261 32.1358 14.6067C32.2802 14.7511 32.2246 15.0178 32.1969 15.1928L32.108 15.2372C32.3441 15.2817 32.633 15.2067 32.8441 15.3428L33.2246 15.4872C33.3996 15.3872 33.6052 15.3678 33.8385 15.3872C34.0135 15.5178 33.7774 15.7372 33.9274 15.8428C34.133 15.8428 34.308 15.8733 34.3385 16.0483L34.3691 16.1094C34.5135 15.8455 34.9246 16.0205 35.1052 15.8289C35.3996 15.8289 35.4552 16.1483 35.5996 16.3233C35.6608 16.7789 35.1052 16.9844 35.2802 17.4372C35.1608 17.6567 34.9302 17.8317 34.7552 18.0372C34.8163 18.0678 34.7858 18.1372 34.7858 18.1817C34.6108 18.2872 34.7552 18.5928 34.5219 18.6205C34.4913 18.8094 34.1413 18.74 34.258 18.9455C34.4941 19.2511 34.1441 19.44 34.1441 19.7205C33.9996 19.8817 33.7052 19.5761 33.7052 19.8817C33.5302 19.9261 33.3552 19.7205 33.2413 19.8955C33.1802 20.1011 33.3552 20.1761 33.3302 20.3816C33.6191 20.3511 33.7108 20.6455 33.8246 20.8205L34.1191 21.115C33.8246 21.3511 33.4441 21.0844 33.0941 21.215C33.0052 21.1705 33.0941 21.0539 33.0052 21.0094C32.9163 20.9039 32.7413 20.9039 32.5941 20.8789C32.6247 21.0094 32.358 21.0539 32.4746 21.215C32.4746 21.2594 32.5358 21.39 32.4135 21.39C32.1774 21.465 32.208 21.1844 32.0024 21.29C31.7385 21.39 31.9413 21.7844 31.5635 21.7455C31.6246 22.1011 30.9774 22.3316 31.4191 22.64C31.4802 22.7011 31.4496 22.815 31.4496 22.9039C31.1858 23.14 30.7191 23.0483 30.4246 22.965C30.1885 22.9039 30.3358 22.6094 30.2497 22.4511C30.1608 22.3066 29.8997 22.2011 29.8997 21.9955C29.7247 21.9261 29.5747 21.8761 29.4608 21.7316C29.0497 22.1261 28.5497 22.5066 27.9663 22.5205C27.7024 22.6511 27.5552 23.1816 27.1469 22.9594C26.9858 23.2233 26.5024 22.9594 26.4719 23.34C26.283 23.415 26.3663 23.665 26.2524 23.7789C26.208 24.0733 26.2524 24.3233 26.5024 24.4983C26.608 24.7178 26.283 24.7178 26.4135 24.9233C26.4441 24.9928 26.4135 25.0983 26.3691 25.1289C26.2802 25.1733 26.2552 25.2178 26.2802 25.3039C26.2052 25.3039 26.1747 25.3483 26.1191 25.4039C26.0441 25.5483 25.8135 25.6233 25.6497 25.7233C25.4885 25.7678 25.3691 25.6539 25.2691 25.5483C25.2385 25.7094 25.108 25.7983 24.9497 25.7983C24.7135 25.7983 24.7608 25.5928 24.5858 25.5039C24.6608 25.24 24.4247 25.1233 24.4969 24.89C24.6858 24.7455 25.008 24.64 24.9219 24.3344C24.7163 24.0844 24.7913 23.7205 24.5858 23.4233C24.4552 23.3094 24.2358 23.1344 24.3052 22.8539C24.4941 22.6344 24.3052 22.3678 24.1997 22.14C24.1552 21.9511 24.0385 21.7761 24.0385 21.5539C23.7191 21.365 23.7024 20.865 23.2497 20.8178C22.9302 20.8178 22.8691 20.4067 22.5441 20.4372C22.5135 20.3761 22.4385 20.3372 22.383 20.2761C22.1469 20.4372 21.858 20.2317 21.5635 20.3067C21.3747 19.9872 21.7247 19.5455 21.2135 19.3567V19.1511C21.2747 19.1817 21.3024 19.1205 21.3191 19.09C21.3497 18.8705 20.9552 18.84 21.1135 18.5955C21.0247 18.5205 20.9247 18.49 20.983 18.3455C20.7635 17.89 20.1024 17.9344 19.958 17.4817C20.0774 17.3817 20.0774 17.2761 20.1191 17.1872C20.0135 17.0122 19.9885 16.8233 20.0135 16.6317C20.1191 16.6011 20.1747 16.4705 20.233 16.3678C20.1024 16.2789 19.9385 16.1483 19.7941 16.1928C19.5302 16.1483 19.3385 15.9428 19.1052 15.8289C19.0441 15.7678 19.0747 15.6678 19.0747 15.5928C19.3941 15.4872 19.0302 15.0317 19.4247 15.0928C19.5302 14.9622 19.7441 14.9178 19.9108 14.8122C20.0719 14.7817 20.2052 14.8428 20.3663 14.8872C20.4969 15.0622 20.7302 14.9872 20.8663 15.1372C20.9969 15.1067 21.1608 15.0317 21.3219 15.1067C21.3219 14.8567 21.4358 14.7122 21.6163 14.5372C21.6469 14.4372 21.8052 14.3622 21.9358 14.3011C22.1858 14.3622 22.4747 14.3622 22.6552 14.1817C22.7691 14.2567 22.8747 14.1067 23.0052 14.1067C23.1663 14.0761 23.2997 14.1205 23.4163 14.1955C23.4302 13.9011 23.9413 14.1511 24.0469 13.8011C24.1608 13.565 23.7274 13.4817 23.7524 13.2706C23.6774 13.0344 23.858 12.9206 23.9413 12.7594C24.0469 12.715 24.1608 12.6539 24.2913 12.6844C24.6274 12.5706 24.3663 11.8789 24.9052 12.1289C24.9052 12.2039 24.8747 12.29 24.9191 12.3039C25.108 12.3039 25.1385 12.0844 25.2691 12.0094C25.3302 11.8039 25.1941 11.5539 25.3691 11.3956C25.458 11.3817 25.5302 11.3511 25.5885 11.2761C25.5885 11.115 25.4997 11.0261 25.3691 10.9261C25.3247 11.0011 25.208 10.94 25.133 10.9706C25.133 10.7956 25.033 10.6761 25.0024 10.515C24.9135 10.4706 24.8719 10.4011 24.9024 10.2956C25.033 10.165 24.9024 9.84 25.208 9.915C25.3219 9.815 25.5274 9.88445 25.6469 9.70945C25.9524 9.53445 26.3663 9.53445 26.5969 9.20945C26.7024 9.22334 26.8163 9.12056 26.9163 9.20945C26.9385 9.40667 27.2135 9.33167 27.2135 9.50667Z" fill="#D0A650"/>
<path d="M29.4829 5.53619L29.0773 4.29175L28.6773 5.53619H27.3662L28.4273 6.30564L28.0218 7.55008L29.0773 6.78064L30.1384 7.55008L29.7329 6.30564L30.794 5.53619H29.4829Z" fill="white"/>
<path d="M33.6027 6.26049L33.1971 5.02161L32.7971 6.26049H31.4888L32.5499 7.02993L32.1443 8.27436L33.1999 7.50492L34.261 8.27436L33.8554 7.02993L34.9165 6.26049H33.6027Z" fill="white"/>
<path d="M37.5322 7.6892L37.1322 6.45032L36.7266 7.6892H35.4155L36.4766 8.45864L36.0711 9.70308L37.1322 8.93364L38.1877 9.70308L37.7822 8.45864L38.8433 7.6892H37.5322Z" fill="white"/>
<path d="M25.2992 5.53619L24.8992 4.29175L24.4936 5.53619H23.1825L24.2436 6.30564L23.838 7.55008L24.8992 6.78064L25.9547 7.55008L25.5492 6.30564L26.6103 5.53619H25.2992Z" fill="white"/>
<path d="M21.1766 6.26049L20.7766 5.02161L20.371 6.26049H19.0599L20.121 7.02993L19.7155 8.27436L20.7766 7.50492L21.8322 8.27436L21.4266 7.02993L22.4877 6.26049H21.1766Z" fill="white"/>
<path d="M17.2497 7.6892L16.8442 6.45032L16.4442 7.6892H15.1331L16.1942 8.45864L15.7886 9.70308L16.8442 8.93364L17.9053 9.70308L17.4997 8.45864L18.5608 7.6892H17.2497Z" fill="white"/>
</g>
<defs>
<clipPath id="clip0_93_5462">
<rect width="53.3333" height="30" fill="white" transform="translate(0.321289)"/>
</clipPath>
</defs>
</svg>
