<svg width="54" height="30" viewBox="0 0 54 30" fill="none" xmlns="http://www.w3.org/2000/svg">
<g clip-path="url(#clip0_93_10131)">
<path d="M0.655273 0H53.9886V30H0.655273V0Z" fill="#FF0000"/>
<path d="M25.066 12.9636C24.5077 12.6164 23.9133 12.3275 23.3049 12.0914C22.7799 12.8692 22.4744 13.8025 22.4744 14.8081C22.4744 15.3081 22.5494 15.7914 22.6938 16.247C22.9466 15.6636 23.2688 15.0942 23.6605 14.5525C24.0744 13.9636 24.5494 13.4303 25.066 12.9636ZM23.5744 11.7359C24.2355 11.9636 24.8688 12.2609 25.4799 12.6081C25.616 12.4886 25.7605 12.3886 25.8938 12.2859C25.2494 11.9303 24.5633 11.6414 23.8605 11.422C23.7605 11.5248 23.6605 11.6248 23.5744 11.7359ZM24.1688 11.1331C24.9299 11.3359 25.6577 11.6164 26.3438 11.9803C26.5049 11.8775 26.666 11.7859 26.8188 11.6914C26.091 11.3192 25.3188 11.047 24.5244 10.8525C24.3966 10.9386 24.2771 11.0331 24.1688 11.1331ZM24.8883 10.6275C25.7271 10.797 26.5383 11.0692 27.3021 11.4414C28.0716 11.0692 28.8855 10.797 29.716 10.6275C29.0133 10.2136 28.1827 9.97476 27.3021 9.97476C26.4188 9.97476 25.5994 10.2109 24.8883 10.6275ZM30.0771 10.8636C29.2799 11.0498 28.5105 11.3303 27.7827 11.6942C27.9438 11.7886 28.0966 11.8803 28.2577 11.9831C28.9521 11.6192 29.6799 11.3386 30.4327 11.1359C30.3244 11.0331 30.2049 10.9386 30.0771 10.8636ZM30.7383 11.4303C30.0355 11.6414 29.3577 11.9303 28.7049 12.2859C28.8494 12.3886 28.9938 12.497 29.1271 12.6081C29.7271 12.2609 30.3633 11.9636 31.0244 11.7359C30.941 11.6248 30.8494 11.5248 30.7383 11.4303ZM31.2966 12.0998C30.6883 12.3275 30.1021 12.6164 29.5438 12.9636C30.0605 13.4303 30.5271 13.9636 30.9494 14.5553C31.3299 15.097 31.6521 15.6636 31.916 16.2498C32.0521 15.7831 32.1271 15.3109 32.1271 14.8109C32.1271 13.8025 31.8216 12.8692 31.2966 12.0998ZM30.8827 15.4192C30.3744 14.597 29.766 13.8692 29.0883 13.2525C28.9355 13.3636 28.7744 13.472 28.6299 13.5831C29.7744 14.6498 30.6966 15.9886 31.2799 17.547C31.416 17.3442 31.541 17.1331 31.6438 16.9192C31.4327 16.4109 31.1771 15.9109 30.8827 15.4192ZM28.1966 13.2164C28.3494 13.1053 28.5021 12.997 28.6633 12.8942C28.5271 12.7748 28.3827 12.6664 28.241 12.5553C28.0799 12.6581 27.9188 12.7581 27.7577 12.8692H27.766C27.9105 12.9803 28.0549 13.0998 28.1966 13.2164ZM27.2994 12.5386C27.4605 12.4359 27.6299 12.3359 27.7827 12.2414C27.6216 12.1386 27.4605 12.0386 27.2994 11.9442C27.1383 12.0386 26.9855 12.1386 26.8244 12.2414C26.9883 12.3359 27.1383 12.4386 27.2994 12.5386ZM26.8438 12.8692C26.6827 12.7581 26.5299 12.6581 26.3688 12.5553C26.2244 12.6664 26.0799 12.7748 25.9383 12.8859C26.0994 12.997 26.2521 13.097 26.4049 13.2081C26.5466 13.0914 26.691 12.9803 26.8438 12.8692ZM27.2994 13.2081C27.1549 13.3192 27.0105 13.4359 26.8577 13.5636C27.0105 13.6831 27.1549 13.8081 27.2994 13.9359C27.4438 13.8081 27.5883 13.6831 27.741 13.5636C27.5966 13.447 27.4521 13.3192 27.2994 13.2081ZM27.2994 14.7914C26.6549 15.4859 26.0883 16.2803 25.6299 17.172C25.316 17.7636 25.0716 18.3831 24.8855 18.9998C25.5966 19.397 26.4188 19.6359 27.2994 19.6359C28.1799 19.6359 29.0021 19.3998 29.7133 18.9998C29.5271 18.3803 29.2827 17.7636 28.9688 17.172C28.5105 16.2831 27.9521 15.4859 27.2994 14.7914ZM24.5049 18.0025C25.0549 16.597 25.8688 15.3692 26.866 14.3525C26.7216 14.2164 26.5771 14.0914 26.4244 13.9553C25.2633 15.0803 24.3327 16.4775 23.766 18.097C23.9271 18.2748 24.0966 18.4359 24.2827 18.5886C24.3549 18.3914 24.4299 18.197 24.5049 18.0025ZM27.7327 14.3525C28.7327 15.3692 29.5438 16.597 30.1049 18.0025C30.1799 18.197 30.2494 18.3914 30.316 18.5859C30.5021 18.4331 30.6799 18.272 30.841 18.0942C30.266 16.4775 29.3327 15.0803 28.1744 13.9525C28.0188 14.0886 27.8771 14.2164 27.7327 14.3525ZM23.3216 17.5442C23.9049 15.9859 24.8299 14.6581 25.9799 13.5886C25.8271 13.4692 25.6744 13.3609 25.5133 13.2498C24.8355 13.8775 24.2271 14.6053 23.7188 15.4248C23.4216 15.9081 23.1688 16.4081 22.9577 16.9136C23.0577 17.1386 23.1855 17.3414 23.3216 17.5442ZM27.3271 9.58587C30.3077 9.58587 32.7383 12.0164 32.7383 14.997C32.7383 17.9775 30.3077 20.4081 27.3271 20.4081C24.3466 20.4081 21.916 17.9775 21.916 14.997C21.916 12.0164 24.3466 9.58587 27.3271 9.58587ZM29.7133 8.39976C29.5605 8.57753 29.391 8.80531 29.2216 9.1692C29.1799 9.07476 29.1799 8.96642 29.2049 8.84698C29.2466 8.45809 29.3577 8.2192 29.5605 7.89142C29.6271 7.77198 29.6966 7.67198 29.7299 7.5442C29.8577 7.16365 29.8327 6.65531 29.5521 6.25809C29.5938 6.70809 29.4577 7.08031 29.3077 7.30809C29.2827 7.34976 29.2577 7.37476 29.2244 7.41087C29.0633 7.57198 28.8855 7.73309 28.6577 8.10531C28.5299 8.30809 28.4049 8.55531 28.2855 8.9442C28.2355 8.86087 28.2188 8.75809 28.2271 8.63865C28.2105 8.24142 28.2771 7.9942 28.4216 7.63031C28.4716 7.50254 28.5244 7.3942 28.541 7.25809C28.5994 6.8692 28.4994 6.3692 28.1605 6.02198C28.2716 6.45254 28.2021 6.8442 28.0855 7.09698C28.0605 7.13865 28.0438 7.17198 28.0188 7.20809C27.8827 7.3942 27.7383 7.58031 27.5605 7.97754C27.4771 8.20531 27.3827 8.4692 27.3327 8.86642C27.266 8.79142 27.2299 8.68865 27.2216 8.5692C27.1466 8.18031 27.1716 7.92476 27.2549 7.5442C27.2883 7.41642 27.3216 7.29976 27.3133 7.16365C27.3133 6.76642 27.1355 6.29142 26.7466 5.9942C26.9244 6.40809 26.916 6.80809 26.841 7.07754C26.8244 7.11087 26.8077 7.15253 26.791 7.18865C26.6883 7.39976 26.5716 7.60253 26.4605 8.02753C26.4105 8.26365 26.3577 8.5442 26.366 8.94142C26.2994 8.87476 26.2466 8.78031 26.2133 8.6692C26.0771 8.28865 26.0605 8.04142 26.0938 7.6442C26.1021 7.50809 26.1105 7.39142 26.0938 7.26365C26.0271 6.86642 25.7716 6.42476 25.3494 6.19698C25.5855 6.57754 25.6383 6.97476 25.6021 7.24698C25.5938 7.28865 25.5855 7.33031 25.5771 7.37476C25.5105 7.5942 25.4244 7.81642 25.3827 8.25531C25.366 8.49142 25.3577 8.77198 25.4327 9.1692C25.3494 9.11087 25.2883 9.02476 25.2383 8.92476C25.0438 8.5692 24.9938 8.32476 24.9577 7.93309C24.9494 7.79698 24.941 7.68031 24.891 7.55253C24.7716 7.17198 24.4494 6.77476 23.9938 6.62198C24.2855 6.95253 24.4049 7.33309 24.4049 7.61087C24.4049 7.65253 24.4049 7.6942 24.3966 7.73865C24.3633 7.96642 24.3216 8.20531 24.3466 8.63587C24.3716 8.87198 24.4049 9.15254 24.541 9.53309C24.4466 9.49142 24.3716 9.41365 24.3049 9.32198C24.0605 9.00809 23.9744 8.77198 23.8827 8.39142C23.8494 8.25531 23.8244 8.14698 23.7549 8.0192C23.5771 7.67198 23.1966 7.32476 22.7216 7.24142C23.0605 7.53031 23.2383 7.8942 23.2883 8.16365C23.2966 8.20531 23.2966 8.24698 23.2966 8.29142C23.3049 8.5192 23.2966 8.75809 23.391 9.18865C23.4494 9.41642 23.5271 9.68865 23.7216 10.0359C23.6271 10.0109 23.5438 9.95254 23.4605 9.86642C23.1633 9.5942 23.0383 9.37476 22.8938 9.01087C22.8438 8.88309 22.791 8.77476 22.716 8.66365C22.4799 8.34976 22.0549 8.07198 21.5633 8.06365C21.9521 8.29142 22.1827 8.61365 22.2744 8.87754C22.2827 8.9192 22.291 8.96087 22.2994 9.00531C22.341 9.23309 22.366 9.47198 22.5271 9.87754C22.6216 10.097 22.7466 10.3525 22.9938 10.6636C22.891 10.6553 22.7994 10.6053 22.7049 10.5359C22.3744 10.3164 22.2133 10.1136 22.0021 9.78309C21.9355 9.66365 21.8744 9.56365 21.7744 9.4692C21.4938 9.18865 21.0299 8.97754 20.5466 9.04698C20.9605 9.21642 21.241 9.50531 21.3771 9.74976C21.3938 9.78309 21.4105 9.82476 21.4271 9.8692C21.5021 10.0803 21.5633 10.3109 21.7827 10.6914C21.9105 10.8942 22.0716 11.122 22.366 11.4025C22.2633 11.4025 22.1633 11.3692 22.0605 11.3192C21.6966 11.1498 21.5105 10.9803 21.2549 10.6831C21.1605 10.5803 21.0855 10.4886 20.9744 10.4025C20.6521 10.1748 20.1605 10.0386 19.6966 10.1831C20.1383 10.2859 20.4577 10.522 20.6188 10.7414C20.6521 10.7748 20.6688 10.8081 20.6855 10.8525C20.7966 11.0553 20.8966 11.2748 21.1771 11.6053C21.3299 11.7914 21.5244 11.9942 21.8549 12.2248C21.7605 12.2414 21.6605 12.2248 21.541 12.1831C21.1605 12.0803 20.9494 11.9386 20.6521 11.6831C20.5494 11.5998 20.4577 11.522 20.3383 11.4553C19.9827 11.2775 19.4744 11.2275 19.0355 11.4386C19.4855 11.4636 19.841 11.6581 20.0438 11.8442C20.0688 11.8775 20.0938 11.9025 20.1188 11.947C20.2633 12.1248 20.391 12.3275 20.7188 12.6164C20.8966 12.7692 21.1244 12.9386 21.4883 13.1164C21.3938 13.1498 21.2855 13.1498 21.1744 13.1248C20.7771 13.0831 20.5466 12.972 20.2077 12.7692C20.0883 12.7025 19.9883 12.6331 19.8605 12.5998C19.4799 12.472 18.9799 12.497 18.5827 12.7775C19.0244 12.7359 19.4049 12.872 19.6327 13.022C19.666 13.047 19.6994 13.072 19.7271 13.1053C19.8966 13.2664 20.0577 13.4442 20.4216 13.672C20.6244 13.7998 20.8799 13.9331 21.2605 14.0442C21.1771 14.0942 21.0744 14.1109 20.9549 14.1109C20.5577 14.1192 20.3105 14.0525 19.9466 13.9081C19.8188 13.8581 19.7105 13.8053 19.5744 13.7886C19.1855 13.7303 18.6855 13.8303 18.3383 14.1692C18.7688 14.0581 19.1688 14.1275 19.4133 14.2442C19.4549 14.2692 19.4883 14.2859 19.5244 14.3109C19.7105 14.447 19.8966 14.5914 20.3021 14.7692C20.5216 14.8525 20.7855 14.947 21.1827 14.997C21.1077 15.0636 21.0049 15.0998 20.8938 15.1081C20.4966 15.1914 20.2494 15.1581 19.8605 15.0748C19.7327 15.0414 19.616 15.0164 19.4799 15.0164C19.0827 15.0164 18.6077 15.1942 18.3188 15.5831C18.7244 15.4053 19.1244 15.4136 19.3938 15.4886C19.4355 15.5053 19.4688 15.522 19.5133 15.5386C19.716 15.6414 19.9271 15.7581 20.3521 15.8692C20.5799 15.9192 20.8605 15.972 21.2577 15.9636C21.191 16.0303 21.0966 16.0831 20.9855 16.1164C20.6133 16.2525 20.3577 16.2692 19.9688 16.2359C19.8327 16.2275 19.716 16.2192 19.5799 16.2359C19.191 16.3025 18.7494 16.5581 18.5216 16.9886C18.8938 16.7442 19.291 16.6914 19.5716 16.7275C19.6133 16.7359 19.6466 16.7442 19.691 16.7525C19.9105 16.8275 20.1327 16.9053 20.5716 16.947C20.8077 16.9636 21.0883 16.972 21.4855 16.897C21.4271 16.9803 21.341 17.0414 21.241 17.0914C20.8938 17.2859 20.641 17.3359 20.2494 17.372C20.1133 17.3886 19.9966 17.397 19.8688 17.4386C19.4883 17.5581 19.0994 17.8803 18.9383 18.3359C19.2771 18.0386 19.6577 17.9303 19.9383 17.922C19.9799 17.922 20.0216 17.922 20.066 17.9303C20.2855 17.9636 20.5244 18.0053 20.9633 17.9803C21.1994 17.9636 21.4799 17.922 21.8521 17.7859C21.8188 17.8803 21.741 17.9553 21.641 18.022C21.3271 18.2664 21.091 18.3525 20.7105 18.4442C20.5827 18.4775 20.466 18.5025 20.3466 18.572C19.991 18.7498 19.6522 19.1303 19.5688 19.6053C19.8494 19.2664 20.2133 19.0886 20.4827 19.0386C20.5244 19.0303 20.566 19.0303 20.6105 19.0303C20.8383 19.022 21.0855 19.0303 21.5077 18.9359C21.7355 18.8775 22.0077 18.7998 22.3633 18.6053C22.3383 18.6998 22.2688 18.7914 22.1855 18.8664C21.9133 19.1636 21.6938 19.2886 21.3299 19.4331C21.2105 19.4914 21.1021 19.5359 20.991 19.6109C20.6688 19.847 20.391 20.272 20.3827 20.7636C20.6105 20.3748 20.941 20.1442 21.2049 20.0525C21.2466 20.0442 21.2799 20.0359 21.3244 20.0275C21.5521 19.9859 21.791 19.9609 22.1966 19.7998C22.416 19.7053 22.6716 19.5803 22.9938 19.3414C22.9771 19.4359 22.9355 19.5275 22.8577 19.622C22.6383 19.9525 22.4438 20.1136 22.1049 20.3248C21.9938 20.3914 21.8938 20.4525 21.791 20.5525C21.5105 20.8331 21.3077 21.297 21.3771 21.7803C21.5383 21.3664 21.8271 21.0859 22.0716 20.9498C22.1133 20.9331 22.1466 20.9164 22.191 20.8998C22.4105 20.8331 22.641 20.7636 23.0133 20.5442C23.216 20.4164 23.4438 20.2553 23.7244 19.9609C23.7327 20.0636 23.6994 20.1636 23.641 20.2664C23.4716 20.6303 23.3021 20.8164 23.0049 21.072C22.9021 21.1664 22.8105 21.2414 22.7327 21.3525C22.5049 21.6748 22.3688 22.1664 22.5133 22.6303C22.6077 22.1886 22.8438 21.8692 23.0716 21.7081C23.1049 21.6831 23.1383 21.6581 23.1744 21.6414C23.3771 21.5303 23.5966 21.4303 23.9355 21.1498C24.1133 20.997 24.316 20.8025 24.5438 20.472C24.5605 20.5664 24.5438 20.6748 24.5105 20.7859C24.3994 21.1664 24.266 21.3775 24.0021 21.6748C23.9188 21.7775 23.841 21.8692 23.7827 21.997C23.6049 22.3525 23.5466 22.8525 23.7577 23.2914C23.791 22.8414 23.9771 22.4859 24.1716 22.2914C24.1966 22.2581 24.2299 22.2331 24.266 22.2081C24.4521 22.0636 24.6466 21.9359 24.9355 21.6081C25.0883 21.4303 25.2577 21.2025 25.4355 20.8386C25.4688 20.9331 25.4688 21.0414 25.4521 21.1525C25.4021 21.5498 25.2994 21.7803 25.0966 22.1192C25.0216 22.2386 24.9605 22.3386 24.9188 22.4664C24.7994 22.847 24.8244 23.3553 25.1049 23.7525C25.0633 23.3025 25.1883 22.922 25.3494 22.6942C25.3744 22.6609 25.3994 22.6275 25.4244 22.5998C25.5855 22.4303 25.7633 22.2692 25.9994 21.9053C26.1188 21.7025 26.2521 21.447 26.3633 21.0664C26.4133 21.1498 26.4299 21.2525 26.4299 21.372C26.4466 21.7692 26.3799 22.0164 26.2271 22.3803C26.1771 22.5081 26.1327 22.6164 26.1077 22.7525C26.0494 23.1414 26.1494 23.6414 26.4883 23.9886C26.3771 23.5581 26.4466 23.1581 26.5716 22.9136C26.5883 22.872 26.6049 22.8386 26.6299 22.8025C26.766 22.6164 26.9188 22.4303 27.0883 22.0248C27.1827 21.8053 27.2744 21.5414 27.3244 21.1442C27.3827 21.2192 27.4188 21.322 27.4355 21.4331C27.5105 21.8303 27.4855 22.0775 27.3938 22.4664C27.3605 22.5942 27.3355 22.7109 27.3355 22.847C27.3355 23.2442 27.5216 23.7192 27.9105 24.0081C27.7327 23.6025 27.7327 23.2025 27.816 22.9331C27.8244 22.8914 27.841 22.8581 27.8577 22.8136C27.9605 22.6109 28.0771 22.3998 28.1883 21.9748C28.2383 21.747 28.291 21.4664 28.2827 21.0692C28.3577 21.1359 28.4021 21.2303 28.4355 21.3414C28.5799 21.7136 28.5883 21.9692 28.5633 22.3664C28.5466 22.4942 28.5383 22.6109 28.5633 22.747C28.6216 23.1442 28.8771 23.5859 29.3077 23.8136C29.0716 23.4331 29.0105 23.0359 29.0549 22.7636C29.0549 22.722 29.0633 22.6803 29.0799 22.6359C29.1466 22.4164 29.2327 22.1942 29.2744 21.7553C29.2827 21.5192 29.291 21.2386 29.2244 20.8414C29.2994 20.8998 29.3688 20.9859 29.4188 21.0859C29.6133 21.4331 29.6633 21.6859 29.6994 22.0775C29.7077 22.2136 29.716 22.3303 29.7577 22.4581C29.8855 22.8386 30.1994 23.2275 30.6633 23.3886C30.366 23.0498 30.2494 22.6692 30.241 22.3886C30.241 22.347 30.241 22.3053 30.2494 22.2609C30.2827 22.0414 30.3327 21.8025 30.2994 21.3636C30.2827 21.1275 30.241 20.847 30.1133 20.4748C30.1966 20.5164 30.2744 20.5859 30.341 20.6859C30.5855 20.9998 30.6799 21.2359 30.7716 21.6164C30.7966 21.7442 30.8299 21.8609 30.891 21.9803C31.0771 22.3359 31.4494 22.6748 31.9327 22.7581C31.5855 22.4775 31.4077 22.1136 31.3577 21.8442C31.3494 21.8025 31.3494 21.7609 31.3494 21.7164C31.3494 21.4886 31.3577 21.2498 31.266 20.8192C31.2077 20.5914 31.1216 20.3192 30.9271 19.9636C31.0299 19.9886 31.1133 20.0581 31.1883 20.1414C31.4855 20.4136 31.6105 20.6331 31.7633 20.997C31.8133 21.1164 31.8577 21.2248 31.941 21.3359C32.1771 21.6581 32.6021 21.9359 33.0855 21.9442C32.7049 21.7164 32.4771 21.3859 32.3827 21.122C32.366 21.0803 32.3577 21.047 32.3494 21.0025C32.316 20.7748 32.2827 20.5359 32.1216 20.1303C32.0271 19.9109 31.9105 19.6553 31.6633 19.3442C31.766 19.3525 31.8577 19.3942 31.9521 19.472C32.2827 19.6914 32.4438 19.8859 32.6466 20.2248C32.7133 20.3359 32.7827 20.4442 32.8744 20.5386C33.1549 20.8192 33.6188 21.022 34.1021 20.9525C33.6883 20.7914 33.4077 20.5025 33.2799 20.2581C33.2549 20.2164 33.2383 20.1831 33.2299 20.1386C33.1549 19.9192 33.0855 19.6886 32.866 19.3164C32.7383 19.1136 32.5771 18.8859 32.291 18.6053C32.3855 18.6053 32.4855 18.6303 32.5966 18.6886C32.9521 18.8581 33.1466 19.0275 33.4021 19.3248C33.4855 19.4275 33.5633 19.5192 33.6744 19.597C33.9966 19.8331 34.4883 19.9609 34.9521 19.8248C34.5216 19.722 34.1994 19.4859 34.0299 19.2581C34.0049 19.2248 33.9799 19.1914 33.9633 19.1553C33.8521 18.9525 33.7605 18.7331 33.4799 18.3942C33.3188 18.2164 33.1244 18.0136 32.7938 17.7859C32.8966 17.7692 32.9966 17.7859 33.1077 17.8192C33.4883 17.9303 33.6994 18.072 34.0049 18.3275C34.1077 18.4109 34.1994 18.4886 34.3188 18.547C34.6744 18.7248 35.1744 18.7831 35.6133 18.572C35.1633 18.5386 34.816 18.3525 34.6133 18.1581C34.5799 18.1331 34.5549 18.0998 34.5299 18.0636C34.3938 17.8775 34.2577 17.6831 33.9383 17.3942C33.7521 17.2414 33.5244 17.072 33.1688 16.8942C33.2633 16.8609 33.3633 16.8609 33.4827 16.8775C33.8716 16.9275 34.1105 17.0303 34.4383 17.2414C34.5577 17.3081 34.6577 17.3692 34.7855 17.4109C35.166 17.5303 35.6744 17.5053 36.0716 17.2248C35.6216 17.2664 35.2494 17.1414 35.0216 16.9803C34.9883 16.9553 34.9549 16.9303 34.9188 16.9053C34.7577 16.7442 34.5966 16.5664 34.2244 16.3303C34.0216 16.2109 33.7744 16.0775 33.3855 15.9664C33.4688 15.9164 33.5799 15.8998 33.691 15.8998C34.0966 15.8831 34.3438 15.9498 34.6994 16.1025C34.8271 16.1525 34.9355 16.197 35.0716 16.222C35.4605 16.2803 35.9605 16.1803 36.3077 15.8414C35.8771 15.9525 35.4855 15.8831 35.2327 15.7581C35.1994 15.7414 35.1577 15.7248 35.1216 15.6998C34.9355 15.5636 34.7494 15.4192 34.3521 15.2414C34.1327 15.1581 33.8605 15.0636 33.4633 15.0053C33.5383 14.947 33.641 14.9109 33.7605 14.8942C34.1494 14.8192 34.4049 14.8442 34.7855 14.9359C34.9133 14.9692 35.0299 14.9942 35.166 14.9942C35.5633 14.9942 36.0383 14.8081 36.3355 14.4275C35.9216 14.597 35.5216 14.597 35.2605 14.5109C35.2188 14.5025 35.1771 14.4859 35.141 14.4692C34.9299 14.3664 34.7271 14.2498 34.3021 14.1386C34.066 14.0886 33.7938 14.0359 33.3883 14.0442C33.4549 13.9692 33.5494 13.9248 33.6605 13.8914C34.041 13.747 34.2966 13.7386 34.6855 13.7636C34.8216 13.7803 34.9383 13.7886 35.0744 13.7636C35.4633 13.7053 35.9049 13.4498 36.1327 13.0192C35.7521 13.2553 35.3633 13.3164 35.0827 13.2803C35.041 13.272 34.9994 13.2636 34.9549 13.247C34.7355 13.1803 34.5133 13.0942 34.0827 13.0525C33.8466 13.0442 33.5577 13.0359 33.1688 13.1109C33.2188 13.0275 33.3049 12.9581 33.4133 12.9081C33.7605 12.7136 34.0049 12.6636 34.3966 12.6275C34.5327 12.6192 34.6494 12.6109 34.7771 12.5692C35.1577 12.4414 35.5549 12.1275 35.7077 11.6636C35.3771 11.9609 34.9966 12.0775 34.716 12.0859C34.6744 12.0859 34.6327 12.0859 34.5883 12.0775C34.3605 12.0442 34.1216 11.9942 33.691 12.0275C33.4549 12.0442 33.1744 12.0859 32.7938 12.222C32.8355 12.1275 32.9133 12.0525 33.0049 11.9859C33.3188 11.7414 33.5549 11.647 33.9355 11.5553C34.0716 11.5303 34.1799 11.497 34.3077 11.4359C34.6549 11.2498 35.0021 10.8775 35.0855 10.3942C34.7966 10.7414 34.441 10.9192 34.1633 10.9692C34.1216 10.9775 34.0799 10.9775 34.0355 10.9775C33.8077 10.9775 33.5688 10.9692 33.1466 11.0609C32.9105 11.1192 32.6383 11.2053 32.291 11.3998C32.316 11.297 32.3744 11.2136 32.4605 11.1386C32.7327 10.8414 32.9521 10.7164 33.316 10.5636C33.4438 10.5136 33.5521 10.4692 33.6633 10.3859C33.9771 10.1498 34.2549 9.72476 34.2633 9.24142C34.0355 9.62198 33.7133 9.84976 33.4494 9.9442C33.4077 9.96087 33.366 9.9692 33.3216 9.97754C33.0938 10.0192 32.8549 10.0442 32.4494 10.2053C32.2383 10.2998 31.9827 10.4164 31.6633 10.6636C31.6716 10.5692 31.7216 10.4692 31.791 10.3748C32.0105 10.0442 32.2133 9.88309 32.5438 9.68031C32.6633 9.61365 32.7633 9.5442 32.8577 9.45253C33.1383 9.17198 33.3494 8.70809 33.2799 8.22476C33.1105 8.63865 32.8216 8.9192 32.5771 9.05531C32.5438 9.07198 32.5021 9.08865 32.466 9.09698C32.2466 9.17198 32.016 9.24142 31.6355 9.46087C31.4327 9.58865 31.2049 9.74976 30.9244 10.0359C30.9244 9.94142 30.9577 9.84142 31.0077 9.73865C31.1771 9.37476 31.3466 9.18865 31.6438 8.92476C31.7466 8.84142 31.8383 8.76365 31.9244 8.65253C32.1521 8.33031 32.2883 7.83865 32.1438 7.37476C32.041 7.80531 31.8049 8.12754 31.5855 8.29698C31.5521 8.32198 31.5188 8.34698 31.4744 8.36365C31.2716 8.47476 31.0521 8.56642 30.7216 8.84698C30.5355 9.00809 30.3327 9.20254 30.1133 9.53309C30.0883 9.43865 30.1049 9.33031 30.1466 9.2192C30.2577 8.83865 30.391 8.62754 30.6466 8.32198C30.7299 8.2192 30.816 8.13587 30.8744 8.00809C31.0521 7.65253 31.1021 7.15253 30.891 6.71365C30.866 7.16365 30.6799 7.51087 30.4855 7.71365C30.4521 7.74698 30.4271 7.77198 30.391 7.79698C30.2049 7.93309 30.0021 8.0692 29.7133 8.39976Z" fill="#FFFF00"/>
</g>
<defs>
<clipPath id="clip0_93_10131">
<rect width="53.3333" height="30" fill="white" transform="translate(0.655273)"/>
</clipPath>
</defs>
</svg>
