<svg width="54" height="30" viewBox="0 0 54 30" fill="none" xmlns="http://www.w3.org/2000/svg">
<g clip-path="url(#clip0_93_10138)">
<path d="M0.666016 0H53.9993V30H0.666016V0Z" fill="#ED1C24"/>
<path d="M0.666016 7.5H53.9993V22.5H0.666016V7.5Z" fill="white"/>
<path d="M27.1269 7.5C26.8047 8.17778 26.1991 8.65278 25.6186 9.1C25.5241 9.18333 25.2853 9.34444 25.4575 9.46667C25.6047 9.30278 26.0103 9.51944 25.7741 9.69722C25.563 9.89445 25.2741 9.96667 25.0408 10.1278C24.8325 10.2389 24.6241 10.3583 24.4603 10.5306C24.4491 10.8 24.7936 10.65 24.9353 10.7639C25.1186 10.9583 24.8575 11.2861 24.6186 11.2111C24.313 11.2194 24.1019 11.4889 23.9853 11.7472C23.7464 12.1167 23.2936 12.2278 22.9325 12.4361C22.7269 12.5556 22.5269 12.6889 22.3325 12.8306C22.0853 13 22.2991 13.3361 22.563 13.2528C22.8464 13.225 23.1047 13 23.3991 13.0639C23.6658 13.1583 23.7408 13.5083 23.6491 13.75C23.5825 13.9444 23.4186 14.0833 23.288 14.2361C23.0741 14.4528 22.7964 14.5917 22.5047 14.6583C22.2214 14.7528 21.9658 14.9278 21.7797 15.1611C21.563 15.3778 21.3491 15.6 21.1019 15.7806C21.0241 15.9806 21.2436 16.15 21.4297 16.1444C21.8186 16.1194 22.088 15.8028 22.4186 15.6389C22.6936 15.5167 23.0158 15.8111 22.9491 16.0972C22.9269 16.375 22.6686 16.5167 22.4353 16.6028C21.7547 16.9444 21.163 17.4417 20.638 17.9889C20.5297 18.2111 20.2297 18.1444 20.0714 18.3C19.9658 18.4944 20.2297 18.5972 20.3853 18.5778C21.0575 18.4972 21.688 18.2111 22.2825 17.9C22.5047 17.7944 22.713 17.6556 22.9408 17.5694C23.1575 17.5167 23.4575 17.6111 23.4964 17.8556C23.4964 18.1167 23.238 18.2583 23.0353 18.3611C22.4075 18.6917 21.7158 18.875 21.0464 19.0917C20.7936 19.0222 20.6047 19.4694 20.8825 19.55C21.1741 19.65 21.4853 19.5694 21.7825 19.5556C22.7047 19.4139 23.513 18.9139 24.3741 18.5917C24.7325 18.475 25.1547 18.6389 25.3325 18.975C25.5103 19.275 25.4936 19.6694 25.3075 19.9583C25.0103 20.5917 24.5603 21.175 23.9547 21.5389C23.5741 21.7278 23.1325 21.8 22.8075 22.0861C22.5075 22.1861 22.9575 22.5917 23.0241 22.2694C23.2047 22.0222 23.5241 21.95 23.813 21.9389C24.2491 21.8917 24.7103 21.8111 25.0464 21.5111C25.3491 21.275 25.6491 20.95 26.0603 20.9472C26.288 20.975 26.513 21.1556 26.7436 21.0444C26.9464 20.9528 27.263 21.0056 27.3158 21.2556C27.413 21.5472 27.713 21.6778 27.9491 21.8333C28.0353 21.9528 28.3214 22.2667 28.3853 21.9917C28.3325 21.7972 28.4075 21.4972 28.6658 21.5611C28.8908 21.5722 29.1047 21.6528 29.3269 21.6667C29.6241 21.7278 29.8741 21.9333 30.0436 22.1778C30.1603 22.3389 30.4158 22.6139 30.6047 22.4028C30.7214 22.1833 30.4991 21.9972 30.3158 21.9194C30.0491 21.7556 29.8214 21.5333 29.588 21.325C29.2436 21.0056 28.9491 20.5972 28.8936 20.1167C28.8186 19.6389 28.8575 19.1528 28.9214 18.675C28.9991 18.3694 29.3908 18.2 29.6658 18.3639C30.0519 18.5389 30.4353 18.7917 30.8769 18.7639C31.5158 18.7778 32.1741 18.6556 32.7991 18.8417C33.4075 19.0333 33.8408 19.5472 34.4353 19.7694C34.5686 19.85 34.738 19.7722 34.7853 19.6306C34.8436 19.5028 34.8019 19.3417 34.6797 19.2667C33.9936 18.575 33.0547 18.2361 32.2603 17.6944C32.0103 17.6306 31.9658 17.2278 32.1964 17.1111C32.4991 16.8889 32.9297 16.9944 33.1991 17.2194C33.4269 17.3528 33.6825 17.4528 33.9519 17.4528C34.2269 17.3667 34.0936 16.9722 33.8491 16.9417C33.4047 16.6917 33.088 16.2806 32.7019 15.9528C32.4797 15.7639 32.238 15.575 31.9408 15.5389C31.7769 15.5083 31.613 15.5028 31.4464 15.5139C31.2908 15.3472 31.4991 15.0889 31.6964 15.1083C31.9019 15.1222 32.1047 15.1361 32.3103 15.1083C32.538 15.0917 32.7686 15.0667 32.9964 15.0667C33.1825 15.1917 33.5519 14.975 33.3853 14.7583C33.2019 14.5972 32.938 14.6111 32.7186 14.5306C32.3353 14.4056 31.9436 14.3028 31.5491 14.2222C31.2714 14.2056 31.3075 13.8417 31.5491 13.8028C31.7075 13.7444 31.8464 13.8667 31.9991 13.8833C32.2603 13.9389 32.5297 13.9389 32.7908 13.9944C33.013 13.8861 32.8408 13.5611 32.6408 13.5444C32.1686 13.375 31.7603 13.0722 31.363 12.775C30.9241 12.4444 30.5241 12.0611 30.0769 11.7389C29.9158 11.6389 29.6491 11.6111 29.6075 11.3889C29.5936 11.1833 29.8325 11.0917 30.0047 11.1389C30.2464 11.2111 30.4714 11.3333 30.7186 11.3944C30.913 11.4278 31.1103 11.4833 31.2964 11.4611C31.5325 11.3111 31.1936 11.2167 31.0714 11.1667C30.7547 10.9972 30.4769 10.7694 30.1908 10.5528C29.9519 10.3472 30.3936 10.2583 30.5464 10.3361C30.8019 10.4417 30.8297 10.0722 30.6408 9.97778C30.4158 9.88333 30.2241 9.725 30.0186 9.58611C29.6519 9.325 29.2353 9.11667 28.7825 9.05833C28.2741 9.00833 27.8019 8.71667 27.5325 8.28333C27.3686 8.04722 27.2464 7.77222 27.1269 7.5ZM25.463 10.3444C25.7241 10.3528 25.6853 10.8222 25.4269 10.7917C25.1769 10.775 25.1908 10.2944 25.463 10.3444ZM27.9269 10.6C28.1825 10.5556 28.2353 11.0194 27.9797 11.0417C27.7158 11.0861 27.6186 10.5694 27.9269 10.6ZM27.2047 10.6583C27.463 10.7083 27.4158 11.1583 27.1575 11.1611C26.9658 11.2028 26.763 11.3333 26.5686 11.2361C26.413 11.0694 26.638 10.825 26.813 10.7722C26.9491 10.7472 27.0714 10.6861 27.2047 10.6583ZM28.8686 10.6611C29.1158 10.7528 29.0297 11.1917 28.7686 11.1861C28.5214 11.2194 28.4047 10.8056 28.6353 10.7083C28.7103 10.6806 28.788 10.6583 28.8686 10.6611ZM26.063 11.1583C26.2464 11.3333 26.138 11.6667 25.913 11.7472C25.7519 11.8389 25.5297 12.05 25.3519 11.875C25.2547 11.6611 25.4964 11.4972 25.638 11.3806C25.7658 11.2833 25.9047 11.1944 26.063 11.1583ZM28.1519 12.1278C28.413 12.25 28.2797 12.7222 27.9936 12.6944C27.7575 12.6333 27.788 12.2306 28.0269 12.1972C28.0714 12.1806 28.1103 12.1556 28.1519 12.1278ZM27.3214 12.175C27.5658 12.2889 27.3797 12.6972 27.1325 12.6389C26.8769 12.6083 26.8825 12.1583 27.163 12.2C27.2158 12.1972 27.2714 12.1972 27.3214 12.175ZM29.1103 12.4083C29.3797 12.325 29.7019 12.6 29.613 12.8806C29.4936 13.0972 29.1991 13.125 28.9853 13.0444C28.7436 13.0333 28.5797 12.6667 28.7964 12.5111C28.888 12.4472 28.9991 12.4194 29.1103 12.4083ZM25.1491 12.4806C25.3714 12.3611 25.6075 12.7222 25.4186 12.8833C25.2936 13.0667 24.9741 13.1417 24.8325 12.9389C24.713 12.7361 24.9019 12.4028 25.1491 12.4806ZM24.1269 12.6528C24.3797 12.6861 24.5436 12.9167 24.6353 13.1333C24.6575 13.3972 24.2658 13.5444 24.0964 13.35C23.9047 13.2306 23.7353 12.9833 23.838 12.7528C23.8991 12.6611 24.0214 12.6222 24.1269 12.6528ZM30.2464 13.6083C30.5186 13.5361 30.7186 13.9722 30.4825 14.1306C30.2686 14.325 29.8519 14.0667 29.963 13.7889C30.0186 13.6889 30.1297 13.6194 30.2464 13.6083ZM26.7714 14.1083C26.9991 14.1361 26.9269 14.5333 26.7158 14.5222C26.488 14.4778 26.5408 14.0861 26.7714 14.1083ZM25.6103 14.3167C25.7964 14.1833 26.038 14.5083 25.8825 14.6583C25.6964 14.7889 25.4547 14.4722 25.6103 14.3167ZM27.4575 14.3583C27.6741 14.4889 27.8019 14.7361 27.8297 14.9833C27.7269 15.2139 27.3241 15.1583 27.2797 14.9139C27.1991 14.7167 27.2741 14.4667 27.4575 14.3583ZM28.1019 14.7389C28.3797 14.6694 28.2797 15.2528 28.0491 15.05C27.9686 14.9583 28.0103 14.8083 28.1019 14.7389ZM24.0547 15.1444C24.238 15.0917 24.5075 15.1472 24.5603 15.3583C24.5825 15.5583 24.363 15.6611 24.2019 15.7111C23.9436 15.7917 23.6936 15.9194 23.4158 15.9028C23.2075 15.7833 23.1353 15.5417 23.0603 15.3306C23.2603 15.1417 23.5547 15.1972 23.8019 15.15C23.888 15.1472 23.9714 15.1472 24.0547 15.1444ZM30.3325 16.0583C30.5686 15.9417 30.8214 16.3167 30.6241 16.4917C30.3769 16.775 29.9019 16.8278 29.6075 16.5889C29.5714 16.3389 29.8241 16.1556 30.0464 16.1194C30.138 16.0944 30.2325 16.0528 30.3325 16.0583ZM31.6547 16.3444C31.9214 16.2972 32.1325 16.6806 31.9408 16.8778C31.7603 17.15 31.3297 17.2222 31.0825 16.9972C30.9853 16.7722 31.1825 16.5361 31.388 16.4639C31.4797 16.4278 31.563 16.3778 31.6547 16.3444ZM24.9991 16.75C25.2464 16.725 25.4741 16.9722 25.4408 17.2167C25.6214 17.3944 25.3019 17.7222 25.1241 17.5389C24.9658 17.3472 24.9686 17.0889 24.9075 16.8611C24.9047 16.8111 24.9408 16.7444 24.9991 16.75ZM26.9019 16.8944C27.1575 16.7833 27.4908 17.0889 27.3491 17.35C27.2491 17.5611 26.8603 17.4917 26.8741 17.2444C26.8741 17.1278 26.863 17.0083 26.9019 16.8944ZM25.9769 17.0583C26.2325 17 26.4686 17.3333 26.3269 17.5556C26.0686 17.5778 25.9353 17.275 25.9769 17.0583Z" fill="#00A651"/>
</g>
<defs>
<clipPath id="clip0_93_10138">
<rect width="53.3333" height="30" fill="white" transform="translate(0.666016)"/>
</clipPath>
</defs>
</svg>
