<svg width="54" height="30" viewBox="0 0 54 30" fill="none" xmlns="http://www.w3.org/2000/svg">
<g clip-path="url(#clip0_93_11853)">
<path d="M0.139343 -0.285919H54.4921V30.2891H0.139343V-0.285919Z" fill="#009543"/>
<path d="M0.139343 -0.285919H54.4921V21.1169H0.139343V-0.285919Z" fill="white"/>
<path d="M0.139343 -0.285919H54.4921V8.8863H0.139343V-0.285919Z" fill="#00209F"/>
<path d="M27.3393 9.39994H27.2921C27.1865 9.40272 27.0921 9.45827 27.0254 9.51105C26.9559 9.56383 26.9115 9.61383 26.9115 9.61383L26.9004 9.62494C26.5421 9.68883 26.2143 9.84439 25.9532 10.0972C25.6059 10.4333 25.3865 10.9277 25.3171 11.5583C25.2448 12.2055 25.4226 12.9249 25.6087 13.4972C25.7948 14.0694 25.9976 14.4972 25.9976 14.4972L26.0337 14.5722L23.7032 17.7111L23.2337 17.5499L22.3893 19.3499L22.4282 19.3749C22.4282 19.3749 24.4337 20.6305 27.3393 20.5972C30.5254 20.5583 32.2671 19.3166 32.2671 19.3166L32.3032 19.2916L31.4309 17.5138L31.0143 17.6944L28.5948 14.4944L28.6143 14.5027C28.6143 14.5027 28.8254 14.0666 29.0171 13.4833C29.2059 12.8999 29.3865 12.1638 29.2921 11.5083C29.2032 10.8861 29.0087 10.3999 28.6615 10.0694C28.4087 9.82772 28.0809 9.68327 27.7032 9.62772V9.61661L27.6893 9.60272C27.6893 9.60272 27.6421 9.55272 27.5698 9.50272C27.5115 9.46105 27.4337 9.42494 27.3476 9.41383L27.3393 9.39994ZM27.6948 10.1388C27.9504 10.1861 28.1476 10.2861 28.3032 10.4361C28.5365 10.6611 28.7032 11.0249 28.7809 11.5777C28.8532 12.0861 28.7032 12.7749 28.5254 13.3249C28.4171 13.6611 28.3198 13.8944 28.2532 14.0499L27.8865 13.5666L27.8809 12.4166H28.4865L27.6921 11.6666L27.6948 10.1388ZM26.9004 10.1472L26.9115 11.6916L26.1921 12.4444H26.7893L26.7837 13.5583L26.3809 14.0999C26.3282 13.9861 26.2254 13.7611 26.0893 13.3416C25.9143 12.8027 25.7643 12.1222 25.8198 11.6138C25.8809 11.0694 26.0587 10.6999 26.3032 10.4638C26.4698 10.3055 26.6698 10.1999 26.9004 10.1472ZM31.0421 18.1416L31.1726 18.3305L30.8087 18.8722L30.4337 18.3916L31.0421 18.1416ZM23.5254 18.3194L23.6782 18.7888L23.231 18.8833C23.231 18.8833 23.4893 18.3666 23.5254 18.3194ZM23.9948 18.3305L24.6532 18.5305L24.8059 18.8583L24.2309 19.0222L23.9948 18.3305ZM30.0087 18.5416L30.1976 18.7416L29.6448 19.1749L29.3032 18.7527L30.0087 18.5416ZM31.2893 18.6138L31.5115 19.0611L31.0643 19.2138L31.0282 19.0027L31.2893 18.6138ZM25.2032 18.6833L25.8615 18.8249L26.0504 19.1055L25.4754 19.3277L25.2032 18.6833ZM28.7754 18.7999L28.9504 19.0583L28.2921 19.3749L28.0115 18.8944L28.7754 18.7999ZM26.4365 18.8722L27.5059 18.9194L27.6004 19.1416L26.7671 19.4472L26.4365 18.8722ZM30.3143 18.9777L30.6559 19.4361L29.9282 19.6249L29.7865 19.3777L30.3143 18.9777ZM23.7837 18.9888L23.8782 19.3638L23.3143 19.1416L23.7837 18.9888ZM24.8976 19.0944L25.2032 19.7416L24.4393 19.5527L24.3559 19.2694L24.8976 19.0944ZM29.0921 19.2583L29.4921 19.7277L28.6115 19.8694L28.4365 19.5861L29.0921 19.2583ZM27.7421 19.3527L28.1309 19.9277L27.0976 19.9638L26.9226 19.6583L27.7421 19.3527ZM26.1921 19.3527L26.5671 19.9388L25.6754 19.8083L25.5809 19.5611L26.1921 19.3527Z" fill="black"/>
</g>
<defs>
<clipPath id="clip0_93_11853">
<rect width="53.3333" height="30" fill="white" transform="translate(0.650391)"/>
</clipPath>
</defs>
</svg>
