<svg width="54" height="30" viewBox="0 0 54 30" fill="none" xmlns="http://www.w3.org/2000/svg">
<g clip-path="url(#clip0_93_11858)">
<path d="M57.332 0H0.332031V30H57.332V0Z" fill="#BF0A30"/>
<path d="M0.332031 4.08907H57.332H0.332031ZM0.332031 9.54463H57.332H0.332031ZM0.332031 15.0002H57.332H0.332031ZM0.332031 20.4557H57.332H0.332031ZM0.332031 25.9113H57.332H0.332031Z" fill="black"/>
<path d="M57.332 27.2751H0.332031V24.5501H57.332V27.2751ZM57.332 21.8195H0.332031V19.0945H57.332V21.8195ZM57.332 16.3639H0.332031V13.6389H57.332V16.3639ZM57.332 10.9112H0.332031V8.18616H57.332V10.9112ZM57.332 5.45561H0.332031V2.72505H57.332V5.45561Z" fill="white"/>
<path d="M13.9681 0H0.332031V13.6361H13.9681V0Z" fill="#002868"/>
<path d="M7.1511 2.72505L5.88721 6.6195L7.83165 7.25005L7.1511 2.72505Z" fill="white"/>
<path d="M7.15135 2.72505L8.41246 6.6195L6.46802 7.25005L7.15135 2.72505Z" fill="white"/>
<path d="M11.0431 5.55568H6.95142V7.60013L11.0431 5.55568Z" fill="white"/>
<path d="M11.0435 5.55568L7.73241 7.96123L6.52686 6.30568L11.0435 5.55568Z" fill="white"/>
<path d="M3.25684 5.55568L6.56795 7.96123L7.77073 6.30568L3.25684 5.55568Z" fill="white"/>
<path d="M3.25684 5.55568H7.35128V7.60013L3.25684 5.55568Z" fill="white"/>
<path d="M9.55682 10.1305L8.29293 6.23603L6.3457 6.86936L9.55682 10.1305Z" fill="white"/>
<path d="M9.55672 10.1304L6.24561 7.72488L7.44561 6.06932L9.55672 10.1304Z" fill="white"/>
<path d="M4.74561 10.1304L8.05672 7.72488L6.85116 6.06932L4.74561 10.1304Z" fill="white"/>
<path d="M4.74561 10.1305L6.01227 6.23603L7.95672 6.86936L4.74561 10.1305Z" fill="white"/>
</g>
<defs>
<clipPath id="clip0_93_11858">
<rect width="53.3333" height="30" fill="white" transform="translate(0.332031)"/>
</clipPath>
</defs>
</svg>
