<svg width="54" height="30" viewBox="0 0 54 30" fill="none" xmlns="http://www.w3.org/2000/svg">
<g clip-path="url(#clip0_93_11873)">
<path d="M56.9966 0H-3.00342V30H56.9966V0Z" fill="#239E46"/>
<path d="M56.9966 0H-3.00342V22.5H56.9966V0Z" fill="black"/>
<path d="M56.9966 0H-3.00342V7.5H56.9966V0Z" fill="#E70013"/>
<path d="M26.9966 18.75C29.0676 18.75 30.7466 17.0711 30.7466 15C30.7466 12.9289 29.0676 11.25 26.9966 11.25C24.9255 11.25 23.2466 12.9289 23.2466 15C23.2466 17.0711 24.9255 18.75 26.9966 18.75Z" fill="white"/>
<path d="M27.7521 18.2553C29.5501 18.2553 31.0077 16.7978 31.0077 14.9998C31.0077 13.2018 29.5501 11.7442 27.7521 11.7442C25.9541 11.7442 24.4966 13.2018 24.4966 14.9998C24.4966 16.7978 25.9541 18.2553 27.7521 18.2553Z" fill="black"/>
<path d="M28.8218 14.9998L33.8662 13.3637L30.7468 17.6498V12.3443L33.8662 16.6331L28.8218 14.9998Z" fill="white"/>
</g>
<defs>
<clipPath id="clip0_93_11873">
<rect width="53.3333" height="30" fill="white" transform="translate(0.330078)"/>
</clipPath>
</defs>
</svg>
