<svg width="54" height="30" viewBox="0 0 54 30" fill="none" xmlns="http://www.w3.org/2000/svg">
<g clip-path="url(#clip0_93_5474)">
<path d="M54.0305 -1.02747H0.605469V31.0282H54.0305V-1.02747Z" fill="#002B7F"/>
<path d="M54.0305 15H0.605469V31.0279H54.0305V15Z" fill="#CE1126"/>
<path d="M12.1668 5.50632L12.0696 8.8452H8.6835C8.26684 8.03409 7.92517 7.3452 7.92517 6.41465C7.92517 5.63409 8.53906 5.01465 9.42239 5.01465C10.3502 5.01465 11.3835 5.33132 12.1668 5.50632Z" fill="#FFD83D"/>
<path d="M8.32707 7.62819C8.30485 7.62819 8.2854 7.61152 8.2854 7.58652V5.65873C8.2854 5.63651 8.30207 5.61707 8.32707 5.61707C8.35207 5.61707 8.36874 5.63373 8.36874 5.65873V7.58374C8.36318 7.61152 8.34651 7.62819 8.32707 7.62819Z" fill="black"/>
<path d="M8.59428 8.07006C8.57206 8.07006 8.55261 8.0534 8.55261 8.0284V5.46452C8.55261 5.4423 8.56928 5.42285 8.59428 5.42285C8.61928 5.42285 8.63594 5.43952 8.63594 5.46452V8.0284C8.63594 8.05062 8.61928 8.07006 8.59428 8.07006Z" fill="black"/>
<path d="M8.86589 8.42154C8.84366 8.42154 8.82422 8.40488 8.82422 8.37988V5.32987C8.82422 5.30765 8.84089 5.28821 8.86589 5.28821C8.89366 5.28821 8.90755 5.30487 8.90755 5.32987V8.38543C8.90755 8.40765 8.89089 8.42154 8.86589 8.42154Z" fill="black"/>
<path d="M9.13896 7.70184C9.11673 7.70184 9.09729 7.68517 9.09729 7.66017V5.26017C9.09729 5.23795 9.11396 5.21851 9.13896 5.21851C9.16396 5.21851 9.18062 5.23517 9.18062 5.26017V7.66017C9.18062 7.68517 9.16673 7.70184 9.13896 7.70184Z" fill="black"/>
<path d="M9.41069 7.71381C9.38846 7.71381 9.36902 7.69714 9.36902 7.67214V5.24992C9.36902 5.2277 9.38569 5.20825 9.41069 5.20825C9.43569 5.20825 9.45235 5.22492 9.45235 5.24992V7.66936C9.45235 7.69714 9.43291 7.71381 9.41069 7.71381Z" fill="black"/>
<path d="M9.68229 7.71406C9.66007 7.71406 9.64062 7.69739 9.64062 7.67239V5.1724C9.64062 5.15018 9.65729 5.13074 9.68229 5.13074C9.70729 5.13074 9.72396 5.1474 9.72396 5.1724V7.67795C9.72396 7.69739 9.70451 7.71406 9.68229 7.71406Z" fill="black"/>
<path d="M9.95548 7.71406C9.93326 7.71406 9.91382 7.69739 9.91382 7.67239V5.1724C9.91382 5.15018 9.93048 5.13074 9.95548 5.13074C9.98047 5.13074 9.99714 5.1474 9.99714 5.1724V7.67795C9.99992 7.69739 9.9777 7.71406 9.95548 7.71406Z" fill="black"/>
<path d="M10.2271 7.73843C10.2049 7.73843 10.1854 7.72176 10.1854 7.69676V5.1912C10.1854 5.16898 10.2021 5.14954 10.2271 5.14954C10.2521 5.14954 10.2687 5.1662 10.2687 5.1912V7.69676C10.2715 7.7162 10.2493 7.73843 10.2271 7.73843Z" fill="black"/>
<path d="M10.5002 7.76151C10.4779 7.76151 10.4585 7.74484 10.4585 7.71984V5.21427C10.4585 5.19205 10.4752 5.17261 10.5002 5.17261C10.5252 5.17261 10.5418 5.18927 10.5418 5.21427V7.71984C10.5446 7.74484 10.5224 7.76151 10.5002 7.76151Z" fill="black"/>
<path d="M10.772 7.9219C10.7498 7.9219 10.7303 7.90523 10.7303 7.88023V5.37467C10.7303 5.35245 10.747 5.33301 10.772 5.33301C10.7998 5.33301 10.8137 5.34967 10.8137 5.37467V7.88023C10.8109 7.90523 10.7942 7.9219 10.772 7.9219Z" fill="black"/>
<path d="M11.0459 8.26476C11.0237 8.26476 11.0043 8.24809 11.0043 8.22309V5.3953C11.0043 5.37308 11.0209 5.35364 11.0459 5.35364C11.0709 5.35364 11.0876 5.3703 11.0876 5.3953V8.22032C11.0821 8.24809 11.0654 8.26476 11.0459 8.26476Z" fill="black"/>
<path d="M11.319 7.94631C11.2968 7.94631 11.2773 7.92964 11.2773 7.90464V5.39909C11.2773 5.37687 11.294 5.35742 11.319 5.35742C11.344 5.35742 11.3607 5.37409 11.3607 5.39909V7.90464C11.3551 7.92687 11.3385 7.94631 11.319 7.94631Z" fill="black"/>
<path d="M11.5921 7.94631C11.5699 7.94631 11.5504 7.92964 11.5504 7.90464V5.39909C11.5504 5.37687 11.5671 5.35742 11.5921 5.35742C11.6199 5.35742 11.6337 5.37409 11.6337 5.39909V7.90464C11.6282 7.92687 11.6115 7.94631 11.5921 7.94631Z" fill="black"/>
<path d="M10.0305 5.27136C10.6082 5.36858 11.8694 5.95469 11.7249 6.75747C11.5221 7.8908 10.8582 7.43525 9.98325 7.27691L9.32214 7.49636C9.08602 7.73802 8.73325 7.96024 8.49991 7.66858H8.10547V9.20191H12.4499V5.48803L10.0305 5.27136Z" fill="black"/>
<path d="M12.4496 9.24088H8.10795C8.08573 9.24088 8.06628 9.22421 8.06628 9.19921V7.66588C8.06628 7.64365 8.08295 7.62421 8.10795 7.62421H8.5024C8.51351 7.62421 8.52462 7.62977 8.53573 7.64088C8.59962 7.72143 8.67462 7.75754 8.76073 7.7631C8.96351 7.77421 9.18295 7.58254 9.29962 7.4631C9.30517 7.45754 9.31073 7.45754 9.31628 7.45199L9.9774 7.23254C9.98295 7.23254 9.98851 7.23254 9.99962 7.23254C10.1718 7.26588 10.3246 7.30754 10.4802 7.34365C10.8496 7.44088 11.1635 7.51865 11.3774 7.38532C11.533 7.2881 11.633 7.07977 11.6913 6.74921C11.7246 6.55754 11.6746 6.36588 11.5413 6.17699C11.2052 5.70199 10.4413 5.37977 10.0302 5.31032C10.008 5.30477 9.99406 5.2881 9.99684 5.26866C9.99962 5.24921 10.0191 5.23254 10.0385 5.23254L12.458 5.45199C12.4802 5.45199 12.4941 5.47421 12.4941 5.4881V9.19643C12.4885 9.22421 12.4718 9.24088 12.4496 9.24088ZM8.14406 9.16032H12.408V5.52699L10.4635 5.35199C10.8691 5.50199 11.3496 5.77421 11.6024 6.13254C11.7468 6.34088 11.7996 6.54921 11.7635 6.76865C11.6996 7.12699 11.5885 7.35199 11.4107 7.45754C11.1663 7.6131 10.833 7.52699 10.4496 7.42421C10.2996 7.3881 10.1441 7.34365 9.98573 7.3131L9.33851 7.52699C9.21629 7.65477 8.98017 7.85199 8.74684 7.84088C8.64406 7.83532 8.54962 7.7881 8.47462 7.70199H8.13851V9.16032H8.14406Z" fill="black"/>
<path d="M11.9742 5.26844C12.1185 5.26844 12.2354 5.15154 12.2354 5.00733C12.2354 4.86312 12.1185 4.74622 11.9742 4.74622C11.83 4.74622 11.7131 4.86312 11.7131 5.00733C11.7131 5.15154 11.83 5.26844 11.9742 5.26844Z" fill="#FFD83D"/>
<path d="M11.9743 5.32528C11.7993 5.32528 11.6604 5.18083 11.6604 5.01139C11.6604 4.84195 11.8048 4.69751 11.9743 4.69751C12.1437 4.69751 12.2882 4.84195 12.2882 5.01139C12.2882 5.18083 12.1521 5.32528 11.9743 5.32528ZM11.9743 4.79473C11.8576 4.79473 11.766 4.89195 11.766 5.00306C11.766 5.11972 11.8632 5.21139 11.9743 5.21139C12.0854 5.21139 12.1826 5.11417 12.1826 5.00306C12.1882 4.89195 12.0937 4.79473 11.9743 4.79473Z" fill="black"/>
<path d="M11.3837 5.12476C11.5279 5.12476 11.6448 5.00786 11.6448 4.86365C11.6448 4.71944 11.5279 4.60254 11.3837 4.60254C11.2395 4.60254 11.1226 4.71944 11.1226 4.86365C11.1226 5.00786 11.2395 5.12476 11.3837 5.12476Z" fill="#FFD83D"/>
<path d="M11.3826 5.18662C11.2076 5.18662 11.0687 5.04217 11.0687 4.87273C11.0687 4.70328 11.2132 4.55884 11.3826 4.55884C11.5521 4.55884 11.6965 4.70328 11.6965 4.87273C11.6965 5.04217 11.5576 5.18662 11.3826 5.18662ZM11.3826 4.65606C11.2659 4.65606 11.1743 4.75328 11.1743 4.86439C11.1743 4.9755 11.2715 5.07273 11.3826 5.07273C11.4993 5.07273 11.5909 4.9755 11.5909 4.86439C11.5909 4.75328 11.4993 4.65606 11.3826 4.65606Z" fill="black"/>
<path d="M10.777 4.97706C10.9212 4.97706 11.0381 4.86015 11.0381 4.71595C11.0381 4.57174 10.9212 4.45483 10.777 4.45483C10.6328 4.45483 10.5159 4.57174 10.5159 4.71595C10.5159 4.86015 10.6328 4.97706 10.777 4.97706Z" fill="#FFD83D"/>
<path d="M10.777 5.03012C10.602 5.03012 10.4631 4.88568 10.4631 4.71623C10.4631 4.54679 10.6076 4.40234 10.777 4.40234C10.9465 4.40234 11.0909 4.54679 11.0909 4.71623C11.0909 4.88568 10.9548 5.03012 10.777 5.03012ZM10.777 4.50234C10.6604 4.50234 10.5687 4.59957 10.5687 4.71068C10.5687 4.82734 10.6659 4.91901 10.777 4.91901C10.8881 4.91901 10.9854 4.82179 10.9854 4.71068C10.9909 4.59679 10.8965 4.50234 10.777 4.50234Z" fill="black"/>
<path d="M10.1749 4.87563C10.3191 4.87563 10.436 4.75872 10.436 4.61451C10.436 4.4703 10.3191 4.35339 10.1749 4.35339C10.0307 4.35339 9.91382 4.4703 9.91382 4.61451C9.91382 4.75872 10.0307 4.87563 10.1749 4.87563Z" fill="#FFD83D"/>
<path d="M10.1749 4.92978C9.99985 4.92978 9.86096 4.78534 9.86096 4.61589C9.86096 4.44367 10.0054 4.302 10.1749 4.302C10.3443 4.302 10.4887 4.44645 10.4887 4.61589C10.4887 4.78534 10.3499 4.92978 10.1749 4.92978ZM10.1749 4.40478C10.0582 4.40478 9.96652 4.502 9.96652 4.61311C9.96652 4.72978 10.0637 4.82145 10.1749 4.82145C10.2915 4.82145 10.3832 4.72422 10.3832 4.61311C10.3887 4.49645 10.2915 4.40478 10.1749 4.40478Z" fill="black"/>
<path d="M9.57166 4.81739C9.71587 4.81739 9.83277 4.70049 9.83277 4.55628C9.83277 4.41207 9.71587 4.29517 9.57166 4.29517C9.42745 4.29517 9.31055 4.41207 9.31055 4.55628C9.31055 4.70049 9.42745 4.81739 9.57166 4.81739Z" fill="#FFD83D"/>
<path d="M9.5717 4.87009C9.3967 4.87009 9.25781 4.72564 9.25781 4.5562C9.25781 4.38398 9.40226 4.24231 9.5717 4.24231C9.74115 4.24231 9.88559 4.38675 9.88559 4.5562C9.88559 4.72564 9.7467 4.87009 9.5717 4.87009ZM9.5717 4.34231C9.45503 4.34231 9.36337 4.43953 9.36337 4.55064C9.36337 4.66731 9.46059 4.75898 9.5717 4.75898C9.68837 4.75898 9.78003 4.66175 9.78003 4.55064C9.78559 4.43953 9.68837 4.34231 9.5717 4.34231Z" fill="black"/>
<path d="M8.97779 4.84717C9.12199 4.84717 9.2389 4.73027 9.2389 4.58606C9.2389 4.44185 9.12199 4.32495 8.97779 4.32495C8.83358 4.32495 8.71667 4.44185 8.71667 4.58606C8.71667 4.73027 8.83358 4.84717 8.97779 4.84717Z" fill="#FFD83D"/>
<path d="M8.97771 4.90891C8.80271 4.90891 8.66382 4.76446 8.66382 4.59502C8.66382 4.42279 8.80827 4.28113 8.97771 4.28113C9.14716 4.28113 9.2916 4.42557 9.2916 4.59502C9.29438 4.76446 9.15549 4.90891 8.97771 4.90891ZM8.97771 4.37835C8.86104 4.37835 8.76938 4.47557 8.76938 4.58668C8.76938 4.70335 8.8666 4.79502 8.97771 4.79502C9.09438 4.79502 9.18605 4.69779 9.18605 4.58668C9.1916 4.47002 9.09716 4.37835 8.97771 4.37835Z" fill="black"/>
<path d="M8.41565 5.04188C8.55986 5.04188 8.67676 4.92497 8.67676 4.78076C8.67676 4.63656 8.55986 4.51965 8.41565 4.51965C8.27144 4.51965 8.15454 4.63656 8.15454 4.78076C8.15454 4.92497 8.27144 5.04188 8.41565 5.04188Z" fill="#FFD83D"/>
<path d="M8.4157 5.10031C8.2407 5.10031 8.10181 4.95587 8.10181 4.78642C8.10181 4.6142 8.24625 4.47253 8.4157 4.47253C8.58514 4.47253 8.72959 4.61698 8.72959 4.78642C8.73237 4.95587 8.59348 5.10031 8.4157 5.10031ZM8.4157 4.57253C8.29903 4.57253 8.20736 4.66976 8.20736 4.78087C8.20736 4.89753 8.30459 4.9892 8.4157 4.9892C8.53237 4.9892 8.62403 4.89198 8.62403 4.78087C8.62403 4.66698 8.53514 4.57253 8.4157 4.57253Z" fill="black"/>
<path d="M7.94104 5.39332C8.08525 5.39332 8.20215 5.27641 8.20215 5.13221C8.20215 4.988 8.08525 4.87109 7.94104 4.87109C7.79683 4.87109 7.67993 4.988 7.67993 5.13221C7.67993 5.27641 7.79683 5.39332 7.94104 5.39332Z" fill="#FFD83D"/>
<path d="M7.94084 5.44724C7.76584 5.44724 7.62695 5.30279 7.62695 5.13335C7.62695 4.96112 7.7714 4.81946 7.94084 4.81946C8.11028 4.81946 8.25473 4.9639 8.25473 5.13335C8.25751 5.30279 8.11862 5.44724 7.94084 5.44724ZM7.94084 4.91946C7.82417 4.91946 7.73251 5.01668 7.73251 5.12779C7.73251 5.2389 7.82973 5.33612 7.94084 5.33612C8.05751 5.33612 8.14917 5.2389 8.14917 5.12779C8.14917 5.01668 8.05195 4.91946 7.94084 4.91946Z" fill="black"/>
<path d="M7.86396 5.66088C7.88706 5.51853 7.79039 5.38441 7.64804 5.36131C7.5057 5.3382 7.37157 5.43487 7.34847 5.57722C7.32537 5.71957 7.42204 5.85369 7.56438 5.87679C7.70673 5.89989 7.84086 5.80323 7.86396 5.66088Z" fill="#FFD83D"/>
<path d="M7.60478 5.93906C7.42978 5.93906 7.29089 5.79461 7.29089 5.62517C7.29089 5.45572 7.43534 5.31128 7.60478 5.31128C7.77701 5.31128 7.91867 5.45572 7.91867 5.62517C7.91867 5.79461 7.77423 5.93906 7.60478 5.93906ZM7.60478 5.41128C7.48812 5.41128 7.39645 5.5085 7.39645 5.61961C7.39645 5.73072 7.49367 5.82795 7.60478 5.82795C7.71589 5.82795 7.81312 5.73072 7.81312 5.61961C7.81312 5.50572 7.71589 5.41128 7.60478 5.41128Z" fill="black"/>
<path d="M7.43885 6.45582C7.58306 6.45582 7.69997 6.33891 7.69997 6.19471C7.69997 6.0505 7.58306 5.93359 7.43885 5.93359C7.29464 5.93359 7.17773 6.0505 7.17773 6.19471C7.17773 6.33891 7.29464 6.45582 7.43885 6.45582Z" fill="#FFD83D"/>
<path d="M7.43877 6.51157C7.26377 6.51157 7.12488 6.36712 7.12488 6.19768C7.12488 6.02546 7.26932 5.88379 7.43877 5.88379C7.60822 5.88379 7.75266 6.02823 7.75266 6.19768C7.75544 6.36712 7.61655 6.51157 7.43877 6.51157ZM7.43877 5.98101C7.3221 5.98101 7.23043 6.07823 7.23043 6.18935C7.23043 6.30046 7.32766 6.39768 7.43877 6.39768C7.55544 6.39768 7.64711 6.30046 7.64711 6.18935C7.64711 6.07823 7.55822 5.98101 7.43877 5.98101Z" fill="black"/>
<path d="M7.44434 7.0503C7.58855 7.0503 7.70545 6.93339 7.70545 6.78919C7.70545 6.64498 7.58855 6.52808 7.44434 6.52808C7.30013 6.52808 7.18323 6.64498 7.18323 6.78919C7.18323 6.93339 7.30013 7.0503 7.44434 7.0503Z" fill="#FFD83D"/>
<path d="M7.44328 7.10349C7.26828 7.10349 7.12939 6.95904 7.12939 6.7896C7.12939 6.61737 7.27384 6.47571 7.44328 6.47571C7.61272 6.47571 7.75717 6.62015 7.75717 6.7896C7.75994 6.95904 7.62106 7.10349 7.44328 7.10349ZM7.44328 6.58126C7.32662 6.58126 7.23495 6.67849 7.23495 6.7896C7.23495 6.90626 7.33217 6.99793 7.44328 6.99793C7.55439 6.99793 7.65161 6.90071 7.65161 6.7896C7.65717 6.67293 7.56272 6.58126 7.44328 6.58126Z" fill="black"/>
<path d="M7.56372 7.62977C7.70793 7.62977 7.82483 7.51286 7.82483 7.36866C7.82483 7.22445 7.70793 7.10754 7.56372 7.10754C7.41952 7.10754 7.30261 7.22445 7.30261 7.36866C7.30261 7.51286 7.41952 7.62977 7.56372 7.62977Z" fill="#FFD83D"/>
<path d="M7.56389 7.69137C7.38889 7.69137 7.25 7.54693 7.25 7.37749C7.25 7.20804 7.39445 7.0636 7.56389 7.0636C7.73611 7.0636 7.87778 7.20804 7.87778 7.37749C7.87778 7.54693 7.73334 7.69137 7.56389 7.69137ZM7.56389 7.16082C7.44722 7.16082 7.35556 7.25804 7.35556 7.36915C7.35556 7.48582 7.45278 7.57749 7.56389 7.57749C7.675 7.57749 7.77222 7.48026 7.77222 7.36915C7.77222 7.25249 7.675 7.16082 7.56389 7.16082Z" fill="black"/>
<path d="M12.094 5.35577L12.0662 5.69744C11.4079 5.59466 10.4801 5.23355 9.60791 5.23355C8.80513 5.23355 8.18013 5.55299 8.18013 6.36132C8.18013 7.15854 8.51624 7.88354 8.96624 8.62243L8.50235 8.84187C8.08569 8.03076 7.74402 7.34188 7.74402 6.41132C7.74402 5.63077 8.35791 4.86133 9.41624 4.86133C10.3496 4.86411 11.3079 5.18077 12.094 5.35577Z" fill="#FFD83D"/>
<path d="M8.5082 8.90018C8.48597 8.90018 8.47209 8.88907 8.46097 8.8724C8.06653 8.10295 7.69153 7.38073 7.69153 6.41406C7.69153 5.63906 8.29431 4.81128 9.41653 4.81128C10.1388 4.81128 10.8693 4.99739 11.5221 5.1585C11.7249 5.21128 11.9221 5.26128 12.111 5.30295C12.1388 5.3085 12.1526 5.33628 12.1526 5.35573L12.1249 5.69739C12.1249 5.71406 12.1138 5.72517 12.1026 5.7335C12.0915 5.74462 12.0749 5.74462 12.061 5.74462C11.8249 5.7085 11.5526 5.63906 11.2582 5.56406C10.7443 5.43073 10.1638 5.28073 9.6082 5.28073C9.09431 5.28073 8.23597 5.41961 8.23597 6.35573C8.23597 7.19462 8.63042 7.95295 9.01653 8.58907C9.02209 8.60018 9.02764 8.61685 9.02209 8.63073C9.01653 8.6474 9.00542 8.65851 8.99431 8.66407L8.53042 8.88351C8.52486 8.90018 8.51375 8.90018 8.5082 8.90018ZM9.41653 4.91961C8.36931 4.91961 7.79708 5.68906 7.79708 6.41684C7.79708 7.33629 8.14986 8.04184 8.52764 8.77796L8.89709 8.60573C8.51375 7.96962 8.1332 7.21129 8.1332 6.37239C8.1332 5.61961 8.67209 5.19184 9.61375 5.19184C10.1804 5.19184 10.7665 5.34739 11.2915 5.48073C11.5526 5.55017 11.8054 5.61406 12.0221 5.65295L12.0388 5.41128C11.8638 5.37517 11.686 5.32517 11.4943 5.27795C10.8526 5.10572 10.1221 4.91961 9.41653 4.91961Z" fill="black"/>
<path d="M12.7656 5.50632L12.8628 8.8452H16.249C16.6656 8.03409 17.0073 7.3452 17.0073 6.41465C17.0073 5.63409 16.3934 5.01465 15.5101 5.01465C14.5767 5.01465 13.5517 5.33132 12.7656 5.50632Z" fill="#FFD83D"/>
<path d="M16.6081 7.62819C16.5859 7.62819 16.5664 7.61152 16.5664 7.58652V5.65873C16.5664 5.63651 16.5831 5.61707 16.6081 5.61707C16.6331 5.61707 16.6497 5.63373 16.6497 5.65873V7.58374C16.6442 7.61152 16.6275 7.62819 16.6081 7.62819Z" fill="black"/>
<path d="M16.3361 8.07006C16.3139 8.07006 16.2944 8.0534 16.2944 8.0284V5.46452C16.2944 5.4423 16.3111 5.42285 16.3361 5.42285C16.3639 5.42285 16.3778 5.43952 16.3778 5.46452V8.0284C16.3722 8.05062 16.3555 8.07006 16.3361 8.07006Z" fill="black"/>
<path d="M16.0632 8.42154C16.0409 8.42154 16.0215 8.40488 16.0215 8.37988V5.32987C16.0215 5.30765 16.0382 5.28821 16.0632 5.28821C16.0882 5.28821 16.1048 5.30487 16.1048 5.32987V8.38543C16.0993 8.40765 16.0826 8.42154 16.0632 8.42154Z" fill="black"/>
<path d="M15.7892 7.70184C15.767 7.70184 15.7476 7.68517 15.7476 7.66017V5.26017C15.7476 5.23795 15.7642 5.21851 15.7892 5.21851C15.8142 5.21851 15.8309 5.23517 15.8309 5.26017V7.66017C15.8337 7.68517 15.8115 7.70184 15.7892 7.70184Z" fill="black"/>
<path d="M15.5163 7.71381C15.4941 7.71381 15.4746 7.69714 15.4746 7.67214V5.24992C15.4746 5.2277 15.4913 5.20825 15.5163 5.20825C15.5413 5.20825 15.5579 5.22492 15.5579 5.24992V7.66936C15.5607 7.69714 15.5385 7.71381 15.5163 7.71381Z" fill="black"/>
<path d="M15.2433 7.71406C15.2211 7.71406 15.2017 7.69739 15.2017 7.67239V5.1724C15.2017 5.15018 15.2183 5.13074 15.2433 5.13074C15.2683 5.13074 15.285 5.1474 15.285 5.1724V7.67795C15.2878 7.69739 15.2656 7.71406 15.2433 7.71406Z" fill="black"/>
<path d="M14.9716 7.71406C14.9494 7.71406 14.9299 7.69739 14.9299 7.67239V5.1724C14.9299 5.15018 14.9466 5.13074 14.9716 5.13074C14.9966 5.13074 15.0133 5.1474 15.0133 5.1724V7.67795C15.0161 7.69739 14.9938 7.71406 14.9716 7.71406Z" fill="black"/>
<path d="M14.6999 7.73843C14.6776 7.73843 14.6582 7.72176 14.6582 7.69676V5.1912C14.6582 5.16898 14.6749 5.14954 14.6999 5.14954C14.7249 5.14954 14.7415 5.1662 14.7415 5.1912V7.69676C14.7415 7.7162 14.7221 7.73843 14.6999 7.73843Z" fill="black"/>
<path d="M14.4269 7.76151C14.4047 7.76151 14.3853 7.74484 14.3853 7.71984V5.21427C14.3853 5.19205 14.4019 5.17261 14.4269 5.17261C14.452 5.17261 14.4686 5.18927 14.4686 5.21427V7.71984C14.4686 7.74484 14.4492 7.76151 14.4269 7.76151Z" fill="black"/>
<path d="M14.155 7.9219C14.1327 7.9219 14.1133 7.90523 14.1133 7.88023V5.37467C14.1133 5.35245 14.13 5.33301 14.155 5.33301C14.18 5.33301 14.1967 5.34967 14.1967 5.37467V7.88023C14.1967 7.90523 14.1828 7.9219 14.155 7.9219Z" fill="black"/>
<path d="M13.8835 8.26476C13.8612 8.26476 13.8418 8.24809 13.8418 8.22309V5.3953C13.8418 5.37308 13.8585 5.35364 13.8835 5.35364C13.9085 5.35364 13.9251 5.3703 13.9251 5.3953V8.22032C13.9251 8.24809 13.9085 8.26476 13.8835 8.26476Z" fill="black"/>
<path d="M13.6159 7.94631C13.5937 7.94631 13.5742 7.92964 13.5742 7.90464V5.39909C13.5742 5.37687 13.5909 5.35742 13.6159 5.35742C13.6409 5.35742 13.6576 5.37409 13.6576 5.39909V7.90464C13.652 7.92687 13.6353 7.94631 13.6159 7.94631Z" fill="black"/>
<path d="M13.3443 7.94631C13.3221 7.94631 13.3026 7.92964 13.3026 7.90464V5.39909C13.3026 5.37687 13.3193 5.35742 13.3443 5.35742C13.3693 5.35742 13.3859 5.37409 13.3859 5.39909V7.90464C13.3804 7.92687 13.3637 7.94631 13.3443 7.94631Z" fill="black"/>
<path d="M14.8978 5.27136C14.32 5.36858 13.0589 5.95469 13.2033 6.75747C13.4061 7.8908 14.07 7.43525 14.945 7.27691L15.6061 7.49636C15.8422 7.73802 16.195 7.96024 16.4283 7.66858H16.8228V9.20191H12.4839V5.48803L14.8978 5.27136Z" fill="black"/>
<path d="M16.8274 9.24088H12.483C12.4607 9.24088 12.4413 9.22421 12.4413 9.19921V5.4881C12.4413 5.46588 12.458 5.45199 12.4774 5.45199L14.8968 5.23254C14.919 5.23254 14.9385 5.24921 14.9385 5.26866C14.944 5.29088 14.9274 5.31032 14.9052 5.31032C14.4941 5.37977 13.7302 5.69921 13.3941 6.17699C13.2607 6.3631 13.2135 6.55754 13.2441 6.74921C13.3024 7.07977 13.4052 7.2881 13.5579 7.38532C13.7718 7.52421 14.0913 7.4381 14.4552 7.34365C14.6107 7.30199 14.7663 7.2631 14.9357 7.23254C14.9413 7.23254 14.9524 7.23254 14.9579 7.23254L15.619 7.45199C15.6246 7.45199 15.6302 7.45754 15.6357 7.4631C15.7468 7.57977 15.9663 7.77421 16.1746 7.7631C16.2607 7.75754 16.3357 7.72143 16.3996 7.64088C16.4052 7.62977 16.4218 7.62421 16.4329 7.62421H16.8274C16.8496 7.62421 16.869 7.64088 16.869 7.66588V9.19921C16.869 9.22421 16.8468 9.24088 16.8274 9.24088ZM12.5191 9.16032H16.7829V7.70754H16.4468C16.3718 7.79365 16.2802 7.84088 16.1746 7.84643C15.944 7.85754 15.7107 7.65477 15.5829 7.53254L14.9357 7.31865C14.7691 7.35199 14.6218 7.3881 14.4718 7.42977C14.0885 7.53254 13.7552 7.61588 13.5107 7.4631C13.3357 7.35199 13.2218 7.13254 13.1579 6.77421C13.1218 6.56032 13.1746 6.34643 13.3191 6.1381C13.5691 5.77977 14.0496 5.50754 14.4579 5.35754L12.5135 5.53254V9.16032H12.5191Z" fill="black"/>
<path d="M12.9526 5.26844C13.0968 5.26844 13.2138 5.15154 13.2138 5.00733C13.2138 4.86312 13.0968 4.74622 12.9526 4.74622C12.8084 4.74622 12.6915 4.86312 12.6915 5.00733C12.6915 5.15154 12.8084 5.26844 12.9526 5.26844Z" fill="#FFD83D"/>
<path d="M12.9524 5.32528C12.7774 5.32528 12.6385 5.18083 12.6385 5.01139C12.6385 4.84195 12.783 4.69751 12.9524 4.69751C13.1219 4.69751 13.2663 4.84195 13.2663 5.01139C13.2663 5.18083 13.1302 5.32528 12.9524 5.32528ZM12.9524 4.79473C12.8358 4.79473 12.7441 4.89195 12.7441 5.00306C12.7441 5.11972 12.8413 5.21139 12.9524 5.21139C13.0635 5.21139 13.1608 5.11417 13.1608 5.00306C13.1663 4.89195 13.0691 4.79473 12.9524 4.79473Z" fill="black"/>
<path d="M13.5465 5.12476C13.6907 5.12476 13.8076 5.00786 13.8076 4.86365C13.8076 4.71944 13.6907 4.60254 13.5465 4.60254C13.4023 4.60254 13.2854 4.71944 13.2854 4.86365C13.2854 5.00786 13.4023 5.12476 13.5465 5.12476Z" fill="#FFD83D"/>
<path d="M13.5466 5.1861C13.3716 5.1861 13.2327 5.04165 13.2327 4.87221C13.2327 4.70276 13.3743 4.55554 13.5466 4.55554C13.7188 4.55554 13.8604 4.69999 13.8604 4.86943C13.8604 5.03888 13.7216 5.1861 13.5466 5.1861ZM13.5466 4.65554C13.4299 4.65554 13.3382 4.75276 13.3382 4.86388C13.3382 4.97499 13.4354 5.07221 13.5466 5.07221C13.6632 5.07221 13.7549 4.97499 13.7549 4.86388C13.7549 4.75276 13.6632 4.65554 13.5466 4.65554Z" fill="black"/>
<path d="M14.1497 4.97706C14.2939 4.97706 14.4108 4.86015 14.4108 4.71595C14.4108 4.57174 14.2939 4.45483 14.1497 4.45483C14.0054 4.45483 13.8885 4.57174 13.8885 4.71595C13.8885 4.86015 14.0054 4.97706 14.1497 4.97706Z" fill="#FFD83D"/>
<path d="M14.1499 5.03012C13.9749 5.03012 13.8361 4.88568 13.8361 4.71623C13.8361 4.54679 13.9805 4.40234 14.1499 4.40234C14.3194 4.40234 14.4638 4.54679 14.4638 4.71623C14.4638 4.88568 14.3249 5.03012 14.1499 5.03012ZM14.1499 4.50234C14.0333 4.50234 13.9416 4.59957 13.9416 4.71068C13.9416 4.82734 14.0388 4.91901 14.1499 4.91901C14.261 4.91901 14.3583 4.82179 14.3583 4.71068C14.3583 4.59679 14.2666 4.50234 14.1499 4.50234Z" fill="black"/>
<path d="M14.7529 4.87563C14.8971 4.87563 15.014 4.75872 15.014 4.61451C15.014 4.4703 14.8971 4.35339 14.7529 4.35339C14.6087 4.35339 14.4918 4.4703 14.4918 4.61451C14.4918 4.75872 14.6087 4.87563 14.7529 4.87563Z" fill="#FFD83D"/>
<path d="M14.7529 4.92978C14.5779 4.92978 14.439 4.78534 14.439 4.61589C14.439 4.44367 14.5834 4.302 14.7529 4.302C14.9223 4.302 15.0668 4.44645 15.0668 4.61589C15.0695 4.78534 14.9306 4.92978 14.7529 4.92978ZM14.7529 4.40478C14.6362 4.40478 14.5445 4.502 14.5445 4.61311C14.5445 4.72978 14.6417 4.82145 14.7529 4.82145C14.8695 4.82145 14.9612 4.72422 14.9612 4.61311C14.9612 4.49645 14.8723 4.40478 14.7529 4.40478Z" fill="black"/>
<path d="M15.3572 4.81739C15.5014 4.81739 15.6183 4.70049 15.6183 4.55628C15.6183 4.41207 15.5014 4.29517 15.3572 4.29517C15.213 4.29517 15.0961 4.41207 15.0961 4.55628C15.0961 4.70049 15.213 4.81739 15.3572 4.81739Z" fill="#FFD83D"/>
<path d="M15.3583 4.87009C15.1833 4.87009 15.0444 4.72564 15.0444 4.5562C15.0444 4.38398 15.1889 4.24231 15.3583 4.24231C15.5305 4.24231 15.6722 4.38675 15.6722 4.5562C15.6722 4.72564 15.5333 4.87009 15.3583 4.87009ZM15.3583 4.34231C15.2417 4.34231 15.15 4.43953 15.15 4.55064C15.15 4.66731 15.2472 4.75898 15.3583 4.75898C15.475 4.75898 15.5667 4.66175 15.5667 4.55064C15.5667 4.43953 15.475 4.34231 15.3583 4.34231Z" fill="black"/>
<path d="M15.9501 4.84717C16.0943 4.84717 16.2112 4.73027 16.2112 4.58606C16.2112 4.44185 16.0943 4.32495 15.9501 4.32495C15.8059 4.32495 15.689 4.44185 15.689 4.58606C15.689 4.73027 15.8059 4.84717 15.9501 4.84717Z" fill="#FFD83D"/>
<path d="M15.9491 4.90891C15.7741 4.90891 15.6353 4.76446 15.6353 4.59502C15.6353 4.42279 15.7797 4.28113 15.9491 4.28113C16.1213 4.28113 16.263 4.42557 16.263 4.59502C16.2658 4.76446 16.1269 4.90891 15.9491 4.90891ZM15.9491 4.37835C15.8325 4.37835 15.7408 4.47557 15.7408 4.58668C15.7408 4.70335 15.838 4.79502 15.9491 4.79502C16.0658 4.79502 16.1574 4.69779 16.1574 4.58668C16.1574 4.47002 16.0658 4.37835 15.9491 4.37835Z" fill="black"/>
<path d="M16.5166 5.04188C16.6608 5.04188 16.7777 4.92497 16.7777 4.78076C16.7777 4.63656 16.6608 4.51965 16.5166 4.51965C16.3724 4.51965 16.2555 4.63656 16.2555 4.78076C16.2555 4.92497 16.3724 5.04188 16.5166 5.04188Z" fill="#FFD83D"/>
<path d="M16.5166 5.10031C16.3416 5.10031 16.2028 4.95587 16.2028 4.78642C16.2028 4.6142 16.3472 4.47253 16.5166 4.47253C16.6889 4.47253 16.8305 4.61698 16.8305 4.78642C16.8305 4.95587 16.6889 5.10031 16.5166 5.10031ZM16.5166 4.57253C16.4 4.57253 16.3083 4.66976 16.3083 4.78087C16.3083 4.89753 16.4055 4.9892 16.5166 4.9892C16.6333 4.9892 16.725 4.89198 16.725 4.78087C16.725 4.66698 16.6278 4.57253 16.5166 4.57253Z" fill="black"/>
<path d="M16.9915 5.39332C17.1357 5.39332 17.2526 5.27641 17.2526 5.13221C17.2526 4.988 17.1357 4.87109 16.9915 4.87109C16.8473 4.87109 16.7303 4.988 16.7303 5.13221C16.7303 5.27641 16.8473 5.39332 16.9915 5.39332Z" fill="#FFD83D"/>
<path d="M16.9915 5.44724C16.8165 5.44724 16.6776 5.30279 16.6776 5.13335C16.6776 4.96112 16.822 4.81946 16.9915 4.81946C17.1637 4.81946 17.3054 4.9639 17.3054 5.13335C17.3081 5.30279 17.1637 5.44724 16.9915 5.44724ZM16.9915 4.91946C16.8748 4.91946 16.7832 5.01668 16.7832 5.12779C16.7832 5.2389 16.8804 5.33612 16.9915 5.33612C17.1081 5.33612 17.1998 5.2389 17.1998 5.12779C17.1998 5.01668 17.1054 4.91946 16.9915 4.91946Z" fill="black"/>
<path d="M17.3276 5.87964C17.4718 5.87964 17.5888 5.76274 17.5888 5.61853C17.5888 5.47433 17.4718 5.35742 17.3276 5.35742C17.1834 5.35742 17.0665 5.47433 17.0665 5.61853C17.0665 5.76274 17.1834 5.87964 17.3276 5.87964Z" fill="#FFD83D"/>
<path d="M17.3276 5.93906C17.1526 5.93906 17.0137 5.79461 17.0137 5.62517C17.0137 5.45572 17.1581 5.31128 17.3276 5.31128C17.4998 5.31128 17.6414 5.45572 17.6414 5.62517C17.6414 5.79461 17.5053 5.93906 17.3276 5.93906ZM17.3276 5.41128C17.2109 5.41128 17.1192 5.5085 17.1192 5.61961C17.1192 5.73072 17.2164 5.82795 17.3276 5.82795C17.4387 5.82795 17.5359 5.73072 17.5359 5.61961C17.5359 5.50572 17.447 5.41128 17.3276 5.41128Z" fill="black"/>
<path d="M17.4879 6.45582C17.6321 6.45582 17.749 6.33891 17.749 6.19471C17.749 6.0505 17.6321 5.93359 17.4879 5.93359C17.3437 5.93359 17.2268 6.0505 17.2268 6.19471C17.2268 6.33891 17.3437 6.45582 17.4879 6.45582Z" fill="#FFD83D"/>
<path d="M17.4893 6.51157C17.3143 6.51157 17.1754 6.36712 17.1754 6.19768C17.1754 6.02546 17.3199 5.88379 17.4893 5.88379C17.6615 5.88379 17.8032 6.02823 17.8032 6.19768C17.806 6.36712 17.6671 6.51157 17.4893 6.51157ZM17.4893 5.98101C17.3726 5.98101 17.281 6.07823 17.281 6.18935C17.281 6.30046 17.3782 6.39768 17.4893 6.39768C17.606 6.39768 17.6976 6.30046 17.6976 6.18935C17.6976 6.07823 17.606 5.98101 17.4893 5.98101Z" fill="black"/>
<path d="M17.4834 7.0503C17.6276 7.0503 17.7445 6.93339 17.7445 6.78919C17.7445 6.64498 17.6276 6.52808 17.4834 6.52808C17.3392 6.52808 17.2223 6.64498 17.2223 6.78919C17.2223 6.93339 17.3392 7.0503 17.4834 7.0503Z" fill="#FFD83D"/>
<path d="M17.4822 7.10349C17.3072 7.10349 17.1683 6.95904 17.1683 6.7896C17.1683 6.61737 17.3128 6.47571 17.4822 6.47571C17.6545 6.47571 17.7961 6.62015 17.7961 6.7896C17.7989 6.95904 17.66 7.10349 17.4822 7.10349ZM17.4822 6.58126C17.3656 6.58126 17.2739 6.67849 17.2739 6.7896C17.2739 6.90626 17.3711 6.99793 17.4822 6.99793C17.5933 6.99793 17.6906 6.90071 17.6906 6.7896C17.6961 6.67293 17.5989 6.58126 17.4822 6.58126Z" fill="black"/>
<path d="M17.3721 7.62977C17.5163 7.62977 17.6332 7.51286 17.6332 7.36866C17.6332 7.22445 17.5163 7.10754 17.3721 7.10754C17.2279 7.10754 17.111 7.22445 17.111 7.36866C17.111 7.51286 17.2279 7.62977 17.3721 7.62977Z" fill="#FFD83D"/>
<path d="M17.371 7.69137C17.196 7.69137 17.0571 7.54693 17.0571 7.37749C17.0571 7.20804 17.2016 7.0636 17.371 7.0636C17.5432 7.0636 17.6849 7.20804 17.6849 7.37749C17.6849 7.54693 17.546 7.69137 17.371 7.69137ZM17.371 7.16082C17.2544 7.16082 17.1627 7.25804 17.1627 7.36915C17.1627 7.48582 17.2599 7.57749 17.371 7.57749C17.4821 7.57749 17.5794 7.48026 17.5794 7.36915C17.5794 7.25249 17.4877 7.16082 17.371 7.16082Z" fill="black"/>
<path d="M12.8359 5.35577L12.8637 5.69744C13.522 5.59466 14.4498 5.23355 15.322 5.23355C16.122 5.23355 16.7498 5.55299 16.7498 6.36132C16.7498 7.15854 16.4137 7.88354 15.9637 8.62243L16.4276 8.84187C16.8442 8.03076 17.1859 7.34188 17.1859 6.41132C17.1859 5.63077 16.572 4.86133 15.5137 4.86133C14.5776 4.86411 13.622 5.18077 12.8359 5.35577Z" fill="#FFD83D"/>
<path d="M16.4195 8.90004C16.4139 8.90004 16.4028 8.90004 16.3972 8.89449L15.9333 8.67504C15.9167 8.66949 15.9111 8.65838 15.9056 8.64171C15.9 8.62504 15.9056 8.60838 15.9111 8.60004C16.2945 7.96949 16.6917 7.2056 16.6917 6.36671C16.6917 5.4306 15.8306 5.29171 15.3195 5.29171C14.7695 5.29171 14.1861 5.44171 13.6695 5.57504C13.3806 5.65004 13.1084 5.71949 12.8667 5.7556C12.85 5.7556 12.8334 5.7556 12.825 5.74449C12.8139 5.73338 12.8028 5.72227 12.8028 5.70838L12.775 5.36671C12.775 5.33893 12.7917 5.31949 12.8167 5.31393C13.0028 5.27227 13.1972 5.22227 13.4056 5.16949C14.0528 5.00282 14.7889 4.82227 15.5111 4.82227C16.6278 4.82227 17.2361 5.64449 17.2361 6.42504C17.2361 7.38615 16.8611 8.11393 16.4667 8.88338C16.4583 8.88893 16.4417 8.90004 16.4195 8.90004ZM16.0306 8.60004L16.4 8.77226C16.7806 8.03615 17.1306 7.3306 17.1306 6.41115C17.1306 5.68338 16.5639 4.91393 15.5111 4.91393C14.8056 4.91393 14.0806 5.09449 13.4334 5.26115C13.2472 5.30838 13.0639 5.35282 12.8889 5.39449L12.9056 5.63615C13.125 5.60004 13.375 5.53338 13.6361 5.46393C14.1556 5.3306 14.7472 5.17504 15.3139 5.17504C16.2556 5.17504 16.7944 5.60838 16.7944 6.3556C16.7944 7.2056 16.4139 7.96393 16.0306 8.60004Z" fill="black"/>
<path d="M12.4658 1.80872L12.188 2.32816L12.4658 2.84205L12.7435 2.32816L12.4658 1.80872ZM12.4658 3.11427L12.188 3.62816L12.4658 4.14761L12.7435 3.62816L12.4658 3.11427Z" fill="#FFD83D"/>
<path d="M12.4661 4.19808C12.4439 4.19808 12.43 4.18697 12.4189 4.1703L12.1411 3.65086C12.13 3.63419 12.13 3.61752 12.1411 3.60363L12.4189 3.08975C12.4356 3.05363 12.4939 3.05363 12.5161 3.08975L12.7939 3.60363C12.805 3.6203 12.805 3.63697 12.7939 3.65086L12.5161 4.1703C12.505 4.18697 12.4828 4.19808 12.4661 4.19808ZM12.2467 3.62586L12.4606 4.02585L12.6745 3.62586L12.4606 3.22586L12.2467 3.62586ZM12.4661 2.8953C12.4439 2.8953 12.43 2.88419 12.4189 2.86752L12.1411 2.35364C12.13 2.33697 12.13 2.3203 12.1411 2.30641L12.4189 1.78697C12.4356 1.75086 12.4939 1.75086 12.5161 1.78697L12.7911 2.30641C12.8023 2.32308 12.8023 2.33975 12.7911 2.35364L12.5134 2.86752C12.505 2.88419 12.4828 2.8953 12.4661 2.8953ZM12.2467 2.32864L12.4606 2.72864L12.6745 2.32864L12.4606 1.92864L12.2467 2.32864Z" fill="black"/>
<path d="M11.4828 2.97993L11.9161 3.2577L12.3495 2.97993L11.9161 2.70215L11.4828 2.97993ZM12.58 2.97993L13.0133 3.2577L13.4467 2.97993L13.0133 2.70215L12.58 2.97993Z" fill="#FFD83D"/>
<path d="M13.0109 3.30494C12.9998 3.30494 12.9887 3.29939 12.9832 3.29383L12.5498 3.01605C12.5332 3.00494 12.5221 2.98827 12.5221 2.97439C12.5221 2.9605 12.5332 2.93827 12.5498 2.93272L12.9832 2.65494C12.9998 2.64383 13.0193 2.64383 13.0415 2.65494L13.4748 2.93272C13.4915 2.94383 13.5026 2.9605 13.5026 2.97439C13.5026 2.98827 13.4915 3.0105 13.4748 3.01605L13.0415 3.29383C13.0332 3.30494 13.0221 3.30494 13.0109 3.30494ZM12.6804 2.97994L13.0109 3.19383L13.3471 2.97994L13.0109 2.76605L12.6804 2.97994ZM11.9165 3.30494C11.9054 3.30494 11.8943 3.29939 11.8887 3.29383L11.4554 3.01605C11.4387 3.00494 11.4276 2.98827 11.4276 2.97439C11.4276 2.9605 11.4387 2.93827 11.4554 2.93272L11.8887 2.65494C11.9054 2.64383 11.9248 2.64383 11.9471 2.65494L12.3804 2.93272C12.3971 2.94383 12.4082 2.9605 12.4082 2.97439C12.4082 2.98827 12.3971 3.0105 12.3804 3.01605L11.9471 3.29383C11.9387 3.30494 11.9276 3.30494 11.9165 3.30494ZM11.5859 2.97994L11.9221 3.19383L12.2526 2.97994L11.9221 2.76605L11.5859 2.97994Z" fill="black"/>
<path d="M12.4663 3.19133C12.5813 3.19133 12.6746 3.09805 12.6746 2.98299C12.6746 2.86793 12.5813 2.77466 12.4663 2.77466C12.3512 2.77466 12.2579 2.86793 12.2579 2.98299C12.2579 3.09805 12.3512 3.19133 12.4663 3.19133Z" fill="#FFD83D"/>
<path d="M12.4663 3.24793C12.3219 3.24793 12.2052 3.13126 12.2052 2.98682C12.2052 2.84237 12.3219 2.72571 12.4663 2.72571C12.6108 2.72571 12.7274 2.84237 12.7274 2.98682C12.7274 3.13126 12.6108 3.24793 12.4663 3.24793ZM12.4663 2.83126C12.3802 2.83126 12.3108 2.90071 12.3108 2.98682C12.3108 3.07293 12.3802 3.14237 12.4663 3.14237C12.5524 3.14237 12.6219 3.07293 12.6219 2.98682C12.6219 2.90071 12.5524 2.83126 12.4663 2.83126Z" fill="black"/>
<path d="M12.4657 4.87516C12.7755 4.87516 13.0268 4.62394 13.0268 4.31405C13.0268 4.00415 12.7755 3.75293 12.4657 3.75293C12.1558 3.75293 11.9045 4.00415 11.9045 4.31405C11.9045 4.62394 12.1558 4.87516 12.4657 4.87516Z" fill="#FFD83D"/>
<path d="M12.4657 4.92993C12.1296 4.92993 11.8518 4.6577 11.8518 4.31604C11.8518 3.97437 12.124 3.70215 12.4657 3.70215C12.8074 3.70215 13.0796 3.97437 13.0796 4.31604C13.0796 4.65493 12.8018 4.92993 12.4657 4.92993ZM12.4657 3.8077C12.1879 3.8077 11.9574 4.0327 11.9574 4.31604C11.9574 4.59937 12.1824 4.82437 12.4657 4.82437C12.749 4.82437 12.974 4.59937 12.974 4.31604C12.974 4.02993 12.7435 3.8077 12.4657 3.8077Z" fill="black"/>
<path d="M13.0045 4.49146H12.999C12.6462 4.43313 12.2823 4.43313 11.9295 4.49146C11.9073 4.49702 11.8879 4.48035 11.8823 4.45813C11.8767 4.43591 11.8934 4.41646 11.9156 4.41091C12.2795 4.35257 12.6462 4.35257 13.0101 4.41091C13.0323 4.41646 13.0462 4.43868 13.0434 4.45813C13.0434 4.48035 13.0268 4.49146 13.0045 4.49146ZM13.0045 4.20813H12.999C12.8712 4.1859 12.7379 4.17202 12.6101 4.16646C12.5879 4.16646 12.574 4.14979 12.574 4.13035V3.77757C12.574 3.75535 12.5906 3.7359 12.6156 3.7359C12.6406 3.7359 12.6573 3.75257 12.6573 3.77757V4.09146C12.7795 4.09702 12.9018 4.11368 13.0212 4.13313C13.0434 4.13868 13.0573 4.1609 13.0545 4.18035C13.0379 4.19702 13.0212 4.20813 13.0045 4.20813ZM11.9267 4.20813C11.9045 4.20813 11.8906 4.19146 11.8906 4.17479C11.8851 4.15257 11.9017 4.13313 11.924 4.12757C12.0462 4.10535 12.1656 4.09424 12.2879 4.0859V4.04979C12.2879 3.98035 12.2879 3.89424 12.2879 3.77201C12.2879 3.74979 12.3045 3.73035 12.3295 3.73035C12.3545 3.73035 12.3712 3.74701 12.3712 3.77201C12.3712 3.89424 12.3712 3.97479 12.3712 4.04979V4.12479C12.3712 4.14702 12.3545 4.1609 12.3351 4.1609C12.2073 4.16646 12.074 4.18313 11.9462 4.20257C11.9323 4.20813 11.9267 4.20813 11.9267 4.20813Z" fill="black"/>
<path d="M11.9219 5.26062C11.8691 6.17451 11.7608 7.10507 11.4025 7.77729L11.9802 7.54118C12.183 6.77729 12.2247 5.7884 12.2858 5.31895L11.9219 5.26062ZM13.0108 5.26062L12.6414 5.32451C12.6997 5.79395 12.7441 6.78284 12.9469 7.54673L13.5247 7.78285C13.1719 7.10229 13.0664 6.17451 13.0108 5.26062Z" fill="#FFD83D"/>
<path d="M13.5249 7.82994C13.5194 7.82994 13.5082 7.82994 13.5027 7.82438L12.9249 7.58827C12.9082 7.58271 12.8971 7.56605 12.8916 7.55216C12.7416 6.99104 12.6777 6.30215 12.636 5.80493C12.6194 5.61326 12.6027 5.45215 12.5888 5.32437C12.5832 5.29659 12.6055 5.27159 12.6305 5.26604L12.9999 5.20215C13.0166 5.20215 13.0332 5.20215 13.0416 5.21326C13.0527 5.22437 13.0638 5.23548 13.0638 5.24937C13.111 6.09937 13.2138 7.05493 13.5721 7.74382C13.5832 7.76605 13.5777 7.78549 13.5666 7.80216C13.5555 7.82438 13.5416 7.82994 13.5249 7.82994ZM12.9971 7.50494L13.4194 7.67716C13.1082 7.00493 13.0138 6.11604 12.9666 5.32715L12.711 5.36882C12.7277 5.48548 12.7388 5.63548 12.7527 5.80215C12.7916 6.28549 12.8527 6.95216 12.9971 7.50494ZM11.4027 7.82994C11.386 7.82994 11.3749 7.82438 11.3666 7.81327C11.3499 7.7966 11.3499 7.7716 11.361 7.75494C11.7249 7.06604 11.8193 6.11048 11.8693 5.26048C11.8693 5.24382 11.8805 5.2327 11.8916 5.22437C11.9027 5.21326 11.9193 5.2077 11.9332 5.21326L12.3027 5.27715C12.3305 5.2827 12.3499 5.31048 12.3443 5.33548C12.3277 5.46326 12.311 5.62437 12.2971 5.81604C12.2499 6.31882 12.186 7.00215 12.0416 7.56327C12.036 7.57993 12.0249 7.5966 12.0082 7.59938L11.4305 7.83549C11.4138 7.82994 11.4082 7.82994 11.4027 7.82994ZM11.9693 5.32437C11.9221 6.1216 11.8249 7.00215 11.5166 7.67438L11.9388 7.50216C12.0777 6.95215 12.1416 6.28271 12.1832 5.79659C12.1999 5.62993 12.211 5.48271 12.2249 5.36326L11.9693 5.32437Z" fill="black"/>
<path d="M12.4664 7.23621C11.7775 7.23621 11.2692 7.56121 11.2386 8.38898C11.0664 8.08898 10.3581 7.16121 9.68861 7.28343C9.29416 7.35843 8.94139 7.90843 9.00528 8.53343C8.68028 7.59176 7.71639 7.43898 7.01917 7.99454C7.63861 8.50843 7.91639 10.014 8.44139 10.6723H12.4692H16.4969C17.0192 10.014 17.2997 8.50843 17.9247 7.99454C17.2247 7.43898 16.2636 7.59454 15.9386 8.53343C15.9969 7.90287 15.6442 7.35843 15.2497 7.28343C14.5831 7.16121 13.8719 8.08898 13.7053 8.38898C13.6636 7.56398 13.1553 7.23621 12.4664 7.23621Z" fill="#FFD83D"/>
<path d="M16.4888 10.7252H8.43883C8.42217 10.7252 8.4055 10.7197 8.39717 10.703C8.16106 10.4086 7.9805 9.95579 7.78884 9.48079C7.55828 8.90301 7.31939 8.31134 6.98328 8.03356C6.97217 8.02245 6.96106 8.00579 6.96106 7.9919C6.96106 7.97523 6.96661 7.95856 6.98328 7.95023C7.36384 7.65023 7.81106 7.54467 8.22217 7.66134C8.53328 7.75301 8.78328 7.9669 8.94994 8.26968C8.99161 7.70856 9.3305 7.2919 9.6805 7.22801C10.3111 7.11134 10.9416 7.84745 11.1972 8.22245C11.2833 7.55023 11.7249 7.18079 12.4638 7.18079C13.2055 7.18079 13.6499 7.55023 13.736 8.22245C13.9916 7.84745 14.6222 7.11134 15.2527 7.22801C15.6055 7.2919 15.9472 7.71412 15.9833 8.26968C16.1499 7.96412 16.3999 7.75023 16.711 7.66134C17.1166 7.54467 17.5722 7.65023 17.9499 7.95023C17.961 7.96134 17.9721 7.97801 17.9721 7.9919C17.9721 8.00856 17.9666 8.02523 17.9499 8.03356C17.6138 8.31134 17.3722 8.90579 17.1444 9.48079C16.9527 9.95579 16.7694 10.4058 16.536 10.703C16.5222 10.7197 16.5055 10.7252 16.4888 10.7252ZM8.46661 10.6197H16.4694C16.6888 10.3363 16.8638 9.90301 17.0472 9.44468C17.2722 8.88356 17.5055 8.30579 17.8388 7.99745C17.4972 7.74745 17.1083 7.6669 16.7499 7.7669C16.3972 7.86968 16.1249 8.14745 15.986 8.55301C15.9749 8.58079 15.9499 8.59468 15.9222 8.58634C15.8944 8.58079 15.8805 8.55301 15.8805 8.52801C15.9388 7.90856 15.586 7.40023 15.2333 7.33079C14.5805 7.20856 13.8805 8.16412 13.7416 8.41134C13.7305 8.43356 13.7055 8.44467 13.6833 8.43912C13.661 8.43356 13.6472 8.41134 13.6416 8.3919C13.6083 7.47801 12.9833 7.2919 12.4666 7.2919C11.9472 7.2919 11.3277 7.48356 11.2916 8.3919C11.2916 8.41412 11.2749 8.43356 11.2499 8.43912C11.2277 8.44467 11.2027 8.43356 11.1916 8.41134C11.0527 8.1669 10.3527 7.20856 9.69994 7.33079C9.34717 7.39467 8.99994 7.90301 9.05828 8.52801C9.05828 8.55579 9.04161 8.58079 9.01661 8.58634C8.98883 8.5919 8.96383 8.57523 8.95272 8.55301C8.81383 8.15301 8.54161 7.86968 8.18883 7.7669C7.8305 7.66412 7.44161 7.74467 7.09995 7.99745C7.4305 8.30856 7.66106 8.88356 7.88606 9.43912C8.06939 9.90301 8.24717 10.3363 8.46661 10.6197Z" fill="black"/>
<path d="M16.4802 10.6713C16.4802 10.9713 14.6802 11.2963 12.4691 11.2963C10.258 11.2963 8.4552 10.9713 8.4552 10.6713C8.4552 10.3713 10.2552 10.2185 12.4663 10.2185C14.6774 10.2185 16.4802 10.3713 16.4802 10.6713Z" fill="black"/>
<path d="M12.4671 11.3416C10.3087 11.3416 8.4115 11.0305 8.4115 10.675C8.4115 10.2166 11.5143 10.1777 12.4671 10.1777C13.4198 10.1777 16.5226 10.2138 16.5226 10.675C16.5226 11.0305 14.6254 11.3416 12.4671 11.3416ZM12.4671 10.2611C9.85872 10.2611 8.49206 10.4694 8.49206 10.6777C8.49206 10.9138 10.1587 11.2666 12.4671 11.2666C14.7754 11.2666 16.4421 10.9138 16.4421 10.6777C16.4421 10.4694 15.0754 10.2611 12.4671 10.2611Z" fill="black"/>
<path d="M12.4658 5.26944C12.5686 5.26944 12.6519 5.18611 12.6519 5.08333C12.6519 4.98054 12.5686 4.89722 12.4658 4.89722C12.363 4.89722 12.2797 4.98054 12.2797 5.08333C12.2797 5.18611 12.363 5.26944 12.4658 5.26944Z" fill="#FFD83D"/>
<path d="M12.4666 5.3145C12.3444 5.3145 12.2361 5.21173 12.2361 5.08395C12.2361 4.95617 12.3389 4.85339 12.4666 4.85339C12.5944 4.85339 12.6972 4.95617 12.6972 5.08395C12.6972 5.21173 12.5889 5.3145 12.4666 5.3145ZM12.4666 4.9395C12.3861 4.9395 12.3166 5.00339 12.3166 5.0895C12.3166 5.17562 12.3805 5.2395 12.4666 5.2395C12.5528 5.2395 12.6166 5.17562 12.6166 5.0895C12.6166 5.00339 12.5472 4.9395 12.4666 4.9395Z" fill="black"/>
<path d="M12.4654 5.68644C12.5743 5.68644 12.6626 5.59814 12.6626 5.48921C12.6626 5.38029 12.5743 5.29199 12.4654 5.29199C12.3565 5.29199 12.2682 5.38029 12.2682 5.48921C12.2682 5.59814 12.3565 5.68644 12.4654 5.68644Z" fill="#FFD83D"/>
<path d="M12.4662 5.73028C12.3328 5.73028 12.2245 5.62473 12.2245 5.48861C12.2245 5.3525 12.33 5.24695 12.4662 5.24695C12.5995 5.24695 12.7078 5.3525 12.7078 5.48861C12.7078 5.62473 12.5939 5.73028 12.4662 5.73028ZM12.4662 5.33028C12.38 5.33028 12.305 5.39973 12.305 5.49139C12.305 5.58306 12.3745 5.6525 12.4662 5.6525C12.5578 5.6525 12.6273 5.58306 12.6273 5.49139C12.6273 5.39973 12.5523 5.33028 12.4662 5.33028Z" fill="black"/>
<path d="M12.4659 6.14702C12.5871 6.14702 12.6854 6.04877 12.6854 5.92757C12.6854 5.80638 12.5871 5.70813 12.4659 5.70813C12.3447 5.70813 12.2465 5.80638 12.2465 5.92757C12.2465 6.04877 12.3447 6.14702 12.4659 6.14702Z" fill="#FFD83D"/>
<path d="M12.4665 6.18396C12.322 6.18396 12.2109 6.0673 12.2109 5.92841C12.2109 5.78952 12.3276 5.67285 12.4665 5.67285C12.6054 5.67285 12.722 5.78952 12.722 5.92841C12.722 6.0673 12.6054 6.18396 12.4665 6.18396ZM12.4665 5.75341C12.3693 5.75341 12.2915 5.83396 12.2915 5.92841C12.2915 6.02285 12.372 6.10341 12.4665 6.10341C12.5609 6.10341 12.6415 6.02285 12.6415 5.92841C12.6415 5.83396 12.5637 5.75341 12.4665 5.75341Z" fill="black"/>
<path d="M12.4667 6.66333C12.6047 6.66333 12.7167 6.5514 12.7167 6.41333C12.7167 6.27526 12.6047 6.16333 12.4667 6.16333C12.3286 6.16333 12.2167 6.27526 12.2167 6.41333C12.2167 6.5514 12.3286 6.66333 12.4667 6.66333Z" fill="#FFD83D"/>
<path d="M12.4666 6.70266C12.3055 6.70266 12.1777 6.57488 12.1777 6.41377C12.1777 6.25266 12.3055 6.12488 12.4666 6.12488C12.6277 6.12488 12.7555 6.25266 12.7555 6.41377C12.7555 6.57488 12.6222 6.70266 12.4666 6.70266ZM12.4666 6.20543C12.35 6.20543 12.2583 6.30266 12.2583 6.41377C12.2583 6.52488 12.3555 6.6221 12.4666 6.6221C12.5777 6.6221 12.675 6.52488 12.675 6.41377C12.675 6.30266 12.5805 6.20543 12.4666 6.20543Z" fill="black"/>
<path d="M12.4658 7.22535C12.6162 7.22535 12.738 7.10348 12.738 6.95313C12.738 6.80279 12.6162 6.68091 12.4658 6.68091C12.3155 6.68091 12.1936 6.80279 12.1936 6.95313C12.1936 7.10348 12.3155 7.22535 12.4658 7.22535Z" fill="#FFD83D"/>
<path d="M12.4661 7.2634C12.2939 7.2634 12.1522 7.12451 12.1522 6.94951C12.1522 6.77729 12.2911 6.63562 12.4661 6.63562C12.6411 6.63562 12.78 6.77451 12.78 6.94951C12.7772 7.12451 12.6383 7.2634 12.4661 7.2634ZM12.4661 6.71895C12.3383 6.71895 12.23 6.82451 12.23 6.95506C12.23 7.08284 12.3356 7.19118 12.4661 7.19118C12.5939 7.19118 12.7022 7.08562 12.7022 6.95506C12.6967 6.82451 12.5939 6.71895 12.4661 6.71895Z" fill="black"/>
<path d="M12.3548 7.47839C12.3215 7.47839 12.2965 7.50617 12.3076 7.54784C12.3187 7.60062 12.3298 7.70895 12.3409 7.77839C12.3521 7.85895 12.3993 7.83673 12.4104 7.77839C12.4215 7.7145 12.4159 7.67562 12.4215 7.55895C12.4187 7.50617 12.3854 7.47839 12.3548 7.47839ZM12.5743 7.47839C12.5409 7.47839 12.5104 7.50617 12.5159 7.5645C12.5215 7.68117 12.5159 7.72006 12.5271 7.78395C12.5382 7.84784 12.5854 7.8645 12.5965 7.78395C12.6076 7.7145 12.6187 7.60895 12.6298 7.55339C12.6326 7.50617 12.6048 7.47839 12.5743 7.47839ZM12.1632 7.50895C12.1354 7.5145 12.1104 7.54228 12.1104 7.56728C12.1159 7.62006 12.1271 7.68395 12.1326 7.7645C12.1382 7.84506 12.1965 7.81173 12.2021 7.77006C12.2076 7.72284 12.2132 7.65339 12.2076 7.56173C12.2076 7.52839 12.1909 7.5145 12.1715 7.50895C12.1715 7.50895 12.1659 7.50895 12.1632 7.50895ZM12.7548 7.50895C12.7382 7.50895 12.7215 7.52562 12.7187 7.56173C12.7132 7.65339 12.7187 7.72284 12.7243 7.77006C12.7298 7.81728 12.7882 7.85061 12.7937 7.7645C12.7993 7.68395 12.8159 7.62006 12.8159 7.56728C12.8159 7.5395 12.7882 7.50895 12.7632 7.50895C12.7659 7.50895 12.7604 7.50895 12.7548 7.50895ZM11.9326 7.60062C11.9048 7.60617 11.8854 7.63673 11.8909 7.67006C11.9076 7.7395 11.9187 7.8145 11.9187 7.88395C11.9187 7.94228 11.9659 7.92006 11.9715 7.87839C11.9771 7.83673 11.9826 7.75062 11.9826 7.67006C11.9798 7.61173 11.9521 7.59506 11.9326 7.60062ZM12.9854 7.60062C12.9687 7.60617 12.9521 7.62839 12.9521 7.67006C12.9521 7.75062 12.9576 7.83673 12.9632 7.87839C12.9687 7.92006 13.0159 7.94228 13.0159 7.88395C13.0159 7.8145 13.0326 7.7395 13.0437 7.67006C13.0493 7.63673 13.0271 7.60617 13.0021 7.60062C12.9965 7.60062 12.9909 7.60062 12.9854 7.60062ZM9.82704 7.61173C9.79371 7.61173 9.77982 7.64784 9.79371 7.69784C9.82704 7.76728 9.86315 7.8145 9.89649 7.8895C9.92982 7.95895 9.97149 7.91728 9.95482 7.86728C9.93815 7.81728 9.92149 7.7645 9.87982 7.6645C9.86315 7.62839 9.84371 7.61173 9.82704 7.61173ZM15.1048 7.61173C15.0882 7.61173 15.0687 7.62839 15.0521 7.6645C15.0104 7.76728 14.9937 7.82006 14.9771 7.86728C14.9604 7.9145 15.0104 7.95895 15.0354 7.8895C15.0687 7.8145 15.1048 7.76728 15.1382 7.69784C15.1548 7.64784 15.1326 7.61173 15.1048 7.61173ZM10.0409 7.61728C10.0187 7.62284 10.0048 7.65062 10.0187 7.68673C10.0465 7.75062 10.0826 7.82006 10.1104 7.8895C10.1326 7.95339 10.1854 7.93117 10.1687 7.87839C10.152 7.82006 10.1465 7.78673 10.1104 7.68117C10.0882 7.62284 10.0632 7.60617 10.0409 7.61728ZM14.8771 7.61728C14.8604 7.62284 14.8354 7.6395 14.8243 7.68117C14.7882 7.78673 14.7826 7.82006 14.7659 7.87839C14.7493 7.93673 14.8021 7.95339 14.8243 7.8895C14.8521 7.82006 14.8882 7.75062 14.9159 7.68673C14.9271 7.65339 14.9159 7.62839 14.8937 7.61728C14.8854 7.61173 14.8798 7.61173 14.8771 7.61728ZM10.3076 7.6645C10.2798 7.67006 10.2604 7.71173 10.2743 7.76173C10.2965 7.82561 10.3326 7.8895 10.3604 7.9645C10.3882 8.0395 10.4409 8.02284 10.4298 7.97561C10.4187 7.92839 10.402 7.84784 10.3659 7.73117C10.3493 7.68117 10.3298 7.65895 10.3076 7.6645ZM14.6243 7.6645C14.6021 7.65895 14.5771 7.68117 14.5604 7.73395C14.5243 7.85061 14.5132 7.93117 14.4965 7.97839C14.4854 8.02561 14.5326 8.04228 14.5659 7.96728C14.5993 7.89228 14.6298 7.83395 14.6521 7.7645C14.6715 7.7145 14.6521 7.67006 14.6243 7.6645ZM9.64649 7.70339C9.61315 7.70895 9.58815 7.75617 9.61038 7.79506C9.64371 7.85339 9.6576 7.87561 9.68538 7.9395C9.71871 8.00339 9.74926 7.95617 9.7326 7.91173C9.72149 7.87006 9.70482 7.82006 9.69093 7.76173C9.6826 7.7145 9.66038 7.70339 9.64649 7.70339ZM15.2882 7.70339C15.2715 7.70339 15.2521 7.7145 15.241 7.75617C15.2243 7.8145 15.2076 7.86173 15.1993 7.90617C15.1882 7.94784 15.2215 7.99784 15.2465 7.93395C15.2743 7.87006 15.2937 7.84784 15.3215 7.7895C15.341 7.75617 15.3132 7.70895 15.2882 7.70339ZM11.702 7.85339C11.6687 7.85339 11.6382 7.89506 11.6493 7.93395C11.6659 7.99784 11.6909 8.05061 11.7132 8.13117C11.7298 8.20061 11.7826 8.16728 11.7771 8.12006C11.7715 8.07284 11.7659 8.00895 11.7437 7.90617C11.7409 7.86728 11.7243 7.85339 11.702 7.85339ZM13.2243 7.85339C13.2021 7.85339 13.1882 7.87006 13.1826 7.90617C13.1604 8.00895 13.1548 8.07284 13.1493 8.12006C13.1437 8.16728 13.1965 8.20061 13.2132 8.13117C13.2354 8.05061 13.2604 7.99784 13.2771 7.93395C13.2882 7.89506 13.2576 7.85339 13.2243 7.85339ZM12.4659 7.91728C12.4298 7.91728 12.4243 7.97006 12.4243 8.0145C12.4187 8.15339 12.3659 8.28673 12.3132 8.35061C12.2659 8.4145 12.1909 8.39784 12.1271 8.36728C12.0632 8.33395 12.0215 8.30339 11.9521 8.25061C11.8826 8.19784 11.8298 8.22839 11.9104 8.34784C12.1548 8.70061 12.4243 9.00061 12.4243 9.57006C12.4243 9.64506 12.4354 9.66728 12.4659 9.66728C12.4993 9.66728 12.5132 9.64506 12.5132 9.57006C12.5132 8.99783 12.7798 8.69506 13.0271 8.34784C13.1132 8.22561 13.0604 8.19784 12.9854 8.25061C12.9159 8.30339 12.8743 8.33117 12.8104 8.36728C12.7465 8.40339 12.6715 8.42006 12.6243 8.35061C12.5771 8.28673 12.5187 8.15339 12.5132 8.0145C12.5104 7.97006 12.5048 7.91728 12.4659 7.91728ZM10.5798 7.83117C10.5743 7.83117 10.5743 7.83117 10.5687 7.83117C10.552 7.83673 10.5465 7.85339 10.552 7.88395C10.5632 7.93673 10.5993 8.04506 10.6159 8.09228C10.6326 8.1395 10.6909 8.12839 10.6798 8.0645C10.6632 7.99506 10.6632 7.97284 10.6465 7.89784C10.6326 7.85895 10.602 7.83117 10.5798 7.83117ZM14.3521 7.83117C14.3298 7.83117 14.2993 7.85895 14.2882 7.90061C14.2715 7.97561 14.2715 7.99784 14.2548 8.06728C14.2382 8.13673 14.3021 8.14784 14.3187 8.09506C14.3354 8.04784 14.3715 7.9395 14.3826 7.88673C14.3882 7.85339 14.3771 7.8395 14.3659 7.83395C14.3576 7.83117 14.3521 7.83117 14.3521 7.83117ZM9.4576 7.85339C9.42426 7.85339 9.40482 7.89506 9.43538 7.95061C9.46871 8.0145 9.52704 8.0895 9.55204 8.13117C9.57982 8.17284 9.62704 8.14784 9.59371 8.0895C9.56038 8.03117 9.55204 7.96728 9.51315 7.88673C9.50204 7.86173 9.47982 7.85339 9.4576 7.85339ZM15.4687 7.85339C15.4521 7.85339 15.4271 7.8645 15.416 7.89506C15.3798 7.97561 15.3687 8.0395 15.3354 8.09784C15.3021 8.15617 15.3521 8.18395 15.3771 8.1395C15.4021 8.09506 15.4632 8.01728 15.4937 7.95895C15.5215 7.89506 15.5021 7.85339 15.4687 7.85339ZM7.76593 8.02839C7.72981 8.02839 7.7187 8.09228 7.74926 8.13395C7.79648 8.19784 7.82981 8.23117 7.88815 8.27839C7.92981 8.3145 7.94648 8.26728 7.92426 8.22561C7.90204 8.1895 7.87148 8.14506 7.82704 8.07561C7.80204 8.04506 7.77981 8.02839 7.76593 8.02839ZM17.1632 8.02839C17.1465 8.02839 17.1271 8.04506 17.0993 8.08117C17.0576 8.14506 17.0243 8.18672 17.0021 8.23117C16.9798 8.26728 16.991 8.32284 17.0382 8.28395C17.091 8.23673 17.1298 8.19784 17.1771 8.1395C17.2104 8.09228 17.1993 8.02839 17.1632 8.02839ZM8.03815 8.08117C8.01037 8.08117 7.99093 8.10339 8.01037 8.15061C8.0437 8.22006 8.08537 8.30061 8.11315 8.35339C8.14093 8.40617 8.2187 8.42284 8.18815 8.34228C8.15481 8.26172 8.15204 8.22006 8.1187 8.1395C8.10204 8.10339 8.06315 8.08117 8.03815 8.08117ZM16.8965 8.08117C16.8687 8.08117 16.8271 8.10339 16.816 8.1395C16.7826 8.2145 16.7798 8.25617 16.7465 8.34228C16.7132 8.42284 16.7937 8.40617 16.8215 8.35339C16.8493 8.30061 16.891 8.22006 16.9243 8.15061C16.9437 8.10339 16.9215 8.08117 16.8965 8.08117ZM7.51315 8.10339C7.47148 8.10339 7.47148 8.14506 7.50204 8.17284C7.54926 8.20895 7.60759 8.24784 7.6687 8.29506C7.73259 8.34784 7.76037 8.30061 7.72704 8.25339C7.69092 8.21173 7.65759 8.16172 7.56592 8.12006C7.54648 8.10339 7.52981 8.10339 7.51315 8.10339ZM17.4132 8.10339C17.3965 8.10339 17.3798 8.10895 17.3604 8.12006C17.2687 8.16172 17.2382 8.21173 17.1993 8.25339C17.1632 8.29506 17.1882 8.34506 17.2576 8.29506C17.316 8.24784 17.3687 8.20895 17.4243 8.17284C17.4604 8.1395 17.4576 8.10339 17.4132 8.10339ZM11.5576 8.1395C11.5354 8.14506 11.5159 8.17284 11.5243 8.20339C11.5409 8.26728 11.5604 8.33117 11.5715 8.39506C11.5826 8.45895 11.6576 8.45895 11.6409 8.40061C11.6298 8.34228 11.6243 8.27284 11.6048 8.18673C11.5993 8.15339 11.5826 8.1395 11.5632 8.1395H11.5576ZM13.3632 8.1395C13.3465 8.1395 13.3298 8.15617 13.3215 8.18673C13.2993 8.27284 13.2937 8.34228 13.2854 8.40061C13.2743 8.45895 13.3437 8.45339 13.3548 8.39506C13.3659 8.33117 13.3882 8.26728 13.4021 8.20339C13.4132 8.17006 13.3909 8.14506 13.3687 8.1395H13.3632ZM9.94927 8.03395C9.9326 8.0395 9.92149 8.07006 9.9326 8.12561C10.0076 8.39784 10.0298 8.53672 10.0187 8.60617C10.0076 8.67006 9.97149 8.68117 9.92149 8.65895C9.87427 8.63672 9.81593 8.60617 9.77149 8.57284C9.72982 8.5395 9.67982 8.57839 9.74371 8.63117C10.0687 8.89784 10.2937 9.20339 10.3798 9.57283C10.3965 9.64783 10.4437 9.65894 10.4326 9.57283C10.3576 9.10895 10.3465 8.72839 10.4548 8.4895C10.4965 8.39784 10.4548 8.3145 10.3854 8.45617C10.3437 8.55339 10.2687 8.5895 10.2104 8.50895C10.152 8.42284 10.0354 8.19784 9.99649 8.09784C9.98538 8.06173 9.96315 8.04506 9.95482 8.0395C9.95482 8.03395 9.94927 8.03395 9.94927 8.03395ZM14.9715 8.03395C14.9548 8.03395 14.9382 8.05617 14.9298 8.09228C14.8937 8.19506 14.7743 8.41728 14.7159 8.50339C14.6576 8.5895 14.5882 8.55061 14.5409 8.45061C14.4771 8.30617 14.4354 8.39228 14.4715 8.48395C14.5826 8.72561 14.5687 9.10339 14.4937 9.56728C14.4826 9.65339 14.5271 9.64228 14.5465 9.56728C14.6326 9.19783 14.8576 8.89506 15.1826 8.62561C15.2465 8.57284 15.1993 8.53395 15.1548 8.56728C15.1132 8.60061 15.0521 8.63117 15.0048 8.65339C14.9576 8.67561 14.9187 8.6645 14.9076 8.60061C14.8965 8.53672 14.9187 8.39228 14.9937 8.12006C15.0104 8.07284 14.9993 8.03395 14.9771 8.02839C14.9771 8.03395 14.9771 8.03395 14.9715 8.03395ZM8.32148 8.16172C8.2937 8.16172 8.2687 8.18395 8.27982 8.22561C8.30204 8.29506 8.3437 8.37561 8.36037 8.41728C8.37704 8.45895 8.42426 8.4395 8.41315 8.38117C8.40204 8.32284 8.40204 8.27839 8.38537 8.2145C8.38537 8.18395 8.35204 8.16172 8.32148 8.16172ZM16.6076 8.16172C16.5798 8.16172 16.5437 8.17839 16.5382 8.2145C16.5271 8.28395 16.5215 8.32006 16.5104 8.38117C16.4993 8.4395 16.5465 8.46172 16.5632 8.41728C16.5798 8.37561 16.6215 8.29506 16.6437 8.22561C16.6604 8.18395 16.6326 8.16172 16.6076 8.16172ZM9.32426 8.07006C9.29093 8.0645 9.28815 8.15061 9.31315 8.18673C9.34926 8.23395 9.40482 8.29228 9.4576 8.35895C9.49926 8.41172 9.52704 8.3645 9.49926 8.32284C9.47149 8.28117 9.43538 8.23117 9.36037 8.12006C9.35204 8.08673 9.33538 8.07006 9.32426 8.07006ZM15.6021 8.07006C15.591 8.07006 15.5743 8.08673 15.5604 8.11173C15.491 8.22284 15.4493 8.27284 15.4215 8.3145C15.3937 8.35617 15.4215 8.40617 15.4632 8.35061C15.516 8.28673 15.5687 8.22839 15.6076 8.17839C15.641 8.15061 15.641 8.06728 15.6021 8.07006ZM8.54926 8.27839C8.52704 8.27839 8.51315 8.29506 8.51593 8.33673C8.52704 8.39506 8.54926 8.44228 8.55759 8.50339C8.57426 8.56172 8.61037 8.55061 8.61037 8.49784C8.61037 8.44506 8.59926 8.38673 8.59371 8.32561C8.59926 8.30061 8.57148 8.28395 8.54926 8.27839ZM16.3771 8.27839C16.3548 8.27839 16.3298 8.30061 16.3298 8.32561C16.3187 8.38395 16.3132 8.44228 16.3132 8.49784C16.3132 8.55061 16.3493 8.56172 16.366 8.50339C16.3826 8.44506 16.3993 8.39784 16.4076 8.33673C16.4132 8.29506 16.3993 8.27839 16.3771 8.27839ZM9.24926 8.35895C9.21593 8.3645 9.18537 8.39506 9.22704 8.44506C9.29093 8.52561 9.35482 8.57839 9.3826 8.61172C9.40482 8.64506 9.46871 8.62839 9.42426 8.57006C9.38815 8.50617 9.32704 8.43117 9.30204 8.38395C9.29371 8.35895 9.27149 8.35339 9.24926 8.35895ZM15.666 8.35895C15.6493 8.35895 15.6382 8.37006 15.6298 8.38117C15.6021 8.42839 15.5437 8.50339 15.5076 8.56728C15.4715 8.63117 15.5298 8.64228 15.5493 8.60895C15.5715 8.57561 15.641 8.52284 15.7048 8.44228C15.741 8.39506 15.716 8.36172 15.6826 8.35617C15.6715 8.35339 15.6715 8.35339 15.666 8.35895ZM8.14926 8.57839C8.12148 8.57839 8.11315 8.59506 8.14926 8.64784C8.22982 8.75339 8.31593 8.92006 8.32426 8.99506C8.32982 9.0645 8.29648 9.0645 8.26037 9.0645C8.16315 9.0645 8.11593 8.99506 8.02426 8.97283C7.93259 8.95061 7.92148 9.00061 7.98815 9.04228C8.31315 9.27839 8.64093 9.54506 8.76871 9.77839C8.82148 9.87561 8.89093 9.91172 8.85482 9.82006C8.73259 9.53672 8.70482 9.29228 8.73259 9.14783C8.76037 9.00339 8.79648 8.90339 8.79093 8.81728C8.78537 8.73117 8.73815 8.73672 8.72148 8.81728C8.71037 8.87006 8.68537 8.9395 8.66315 8.96728C8.64648 8.99506 8.57148 9.00895 8.50759 8.92006C8.43815 8.82839 8.26593 8.65339 8.21315 8.60895C8.18815 8.59506 8.16037 8.58395 8.14926 8.57839ZM16.7826 8.57839C16.766 8.57839 16.7465 8.5895 16.7243 8.60617C16.666 8.64784 16.4937 8.82561 16.4298 8.91728C16.3604 9.00895 16.291 8.99228 16.2743 8.9645C16.2576 8.93672 16.2326 8.86728 16.216 8.8145C16.1937 8.73395 16.1465 8.72839 16.1465 8.8145C16.141 8.90061 16.1798 8.99506 16.2048 9.14506C16.2326 9.2895 16.1993 9.53394 16.0826 9.81728C16.0465 9.90894 16.116 9.87561 16.1687 9.77561C16.2965 9.53394 16.6215 9.27283 16.9493 9.0395C17.0132 8.99228 16.9965 8.94783 16.9132 8.97006C16.8215 8.99228 16.7743 9.06172 16.6771 9.06172C16.6437 9.06172 16.6076 9.06172 16.6132 8.99228C16.6187 8.92284 16.7104 8.75617 16.7882 8.64506C16.816 8.60061 16.8104 8.57839 16.7826 8.57839Z" fill="black"/>
<path d="M8.62476 10.3354L8.72753 10.6659L8.62476 10.3354ZM8.83865 10.2715L8.93031 10.6021L8.83865 10.2715ZM9.07476 10.2326L9.13864 10.5743L9.07476 10.2326ZM9.28864 10.1909L9.35809 10.5271L9.28864 10.1909ZM9.56087 10.1632L9.61365 10.5048L9.56087 10.1632ZM9.85531 10.1632L9.91364 10.5048L9.85531 10.1632ZM10.1414 10.0687L10.1831 10.4104L10.1414 10.0687ZM10.4109 10.0854L10.4525 10.4271L10.4109 10.0854ZM10.672 10.0465L10.7136 10.3882L10.672 10.0465ZM10.9331 10.0187L10.9553 10.3659L10.9331 10.0187ZM11.2109 10.0187L11.2331 10.3659L11.2109 10.0187ZM11.4664 10.0048L11.4831 10.3521L11.4664 10.0048ZM11.7442 9.98817L11.7609 10.3354L11.7442 9.98817ZM12.0664 9.97706L12.0831 10.3243L12.0664 9.97706ZM16.3025 10.3354L16.1998 10.6659L16.3025 10.3354ZM16.0886 10.2715L15.997 10.6021L16.0886 10.2715ZM15.8581 10.2326L15.7942 10.5743L15.8581 10.2326ZM15.6414 10.1909L15.572 10.5271L15.6414 10.1909ZM15.3692 10.1632L15.3164 10.5048L15.3692 10.1632ZM15.0748 10.1632L15.0164 10.5048L15.0748 10.1632ZM14.7914 10.0687L14.7498 10.4104L14.7914 10.0687ZM14.5192 10.0854L14.4775 10.4271L14.5192 10.0854ZM14.2553 10.0465L14.2136 10.3882L14.2553 10.0465ZM13.9942 10.0187L13.972 10.3659L13.9942 10.0187ZM13.7164 10.0187L13.6942 10.3659L13.7164 10.0187ZM13.4664 10.0048L13.4498 10.3521L13.4664 10.0048ZM13.1886 9.98817L13.172 10.3354L13.1886 9.98817ZM12.8609 9.97706L12.8442 10.3243L12.8609 9.97706ZM12.4664 9.95483V10.3354V9.95483Z" fill="#FFD83D"/>
<path d="M16.203 10.705C16.1975 10.705 16.1919 10.705 16.1919 10.705C16.1697 10.6994 16.1586 10.6772 16.1641 10.6578L16.2669 10.3272C16.2725 10.305 16.2947 10.2939 16.3141 10.2994C16.3364 10.305 16.3475 10.3272 16.3419 10.3467L16.2391 10.6772C16.2336 10.6939 16.2169 10.705 16.203 10.705ZM8.73357 10.705C8.7169 10.705 8.70023 10.6939 8.69746 10.6772L8.59468 10.3467C8.58912 10.3244 8.60023 10.305 8.62246 10.2994C8.64468 10.2939 8.66412 10.305 8.66968 10.3272L8.77246 10.6578C8.77801 10.68 8.7669 10.6994 8.74468 10.705C8.73912 10.705 8.73912 10.705 8.73357 10.705ZM15.9975 10.6439C15.9919 10.6439 15.9919 10.6439 15.9864 10.6439C15.9641 10.6383 15.953 10.6161 15.9586 10.5967L16.0503 10.2661C16.0558 10.2439 16.078 10.2328 16.0975 10.2383C16.1197 10.2439 16.1308 10.2661 16.1253 10.2856L16.0336 10.6161C16.0308 10.6356 16.0141 10.6439 15.9975 10.6439ZM8.93635 10.6439C8.91968 10.6439 8.90301 10.6328 8.90023 10.6161L8.80857 10.2856C8.80301 10.2633 8.81412 10.2439 8.83635 10.2383C8.85857 10.2328 8.87801 10.2439 8.88357 10.2661L8.97523 10.5967C8.98079 10.6189 8.96968 10.6383 8.94746 10.6439C8.9419 10.6439 8.93635 10.6439 8.93635 10.6439ZM15.7947 10.6133H15.7891C15.7669 10.6078 15.753 10.5856 15.7558 10.5661L15.8197 10.2244C15.8253 10.2022 15.8475 10.1883 15.8669 10.1911C15.8891 10.1967 15.903 10.2189 15.9003 10.2383L15.8364 10.58C15.8336 10.5967 15.8114 10.6133 15.7947 10.6133ZM9.13912 10.6133C9.1169 10.6133 9.10301 10.5967 9.10301 10.58L9.03912 10.2383C9.03357 10.2161 9.05023 10.1967 9.07246 10.1911C9.09468 10.1856 9.11412 10.2022 9.11968 10.2244L9.18357 10.5661C9.18912 10.5883 9.17246 10.6078 9.15023 10.6133C9.13912 10.6133 9.13912 10.6133 9.13912 10.6133ZM15.578 10.5717H15.5725C15.5503 10.5661 15.5364 10.5439 15.5391 10.5244L15.6086 10.1883C15.6141 10.1661 15.6364 10.1522 15.6558 10.155C15.678 10.1606 15.6919 10.1828 15.6891 10.2022L15.6197 10.5383C15.6086 10.555 15.5919 10.5717 15.578 10.5717ZM9.35857 10.5717C9.33635 10.5717 9.32246 10.5606 9.32246 10.5383L9.25301 10.2022C9.24746 10.18 9.26412 10.1606 9.28635 10.155C9.30857 10.1494 9.32801 10.1661 9.33357 10.1883L9.40301 10.5244C9.40857 10.5467 9.3919 10.5661 9.36968 10.5717C9.36412 10.5717 9.35857 10.5717 9.35857 10.5717ZM15.3141 10.5439H15.3086C15.2864 10.5383 15.2725 10.5161 15.2753 10.4967L15.328 10.155C15.3336 10.1328 15.3558 10.1189 15.3753 10.1217C15.3975 10.1272 15.4114 10.1494 15.4086 10.1689L15.3558 10.5106C15.3475 10.5272 15.3308 10.5439 15.3141 10.5439ZM9.61968 10.5439C9.59746 10.5439 9.58357 10.5272 9.58357 10.5106L9.53079 10.1689C9.52524 10.1467 9.5419 10.1272 9.56412 10.1217C9.58635 10.1161 9.60579 10.1328 9.61135 10.155L9.66412 10.4967C9.66968 10.5189 9.65301 10.5383 9.63079 10.5439C9.62524 10.5439 9.61968 10.5439 9.61968 10.5439ZM15.0169 10.5439H15.0114C14.9891 10.5383 14.9753 10.5161 14.978 10.4967L15.0364 10.155C15.0419 10.1328 15.0641 10.1189 15.0836 10.1217C15.1058 10.1272 15.1197 10.1494 15.1169 10.1689L15.0586 10.5106C15.053 10.5272 15.0364 10.5439 15.0169 10.5439ZM9.91413 10.5439C9.8919 10.5439 9.87801 10.5272 9.87801 10.5106L9.81968 10.1689C9.81413 10.1467 9.83079 10.1272 9.85301 10.1217C9.87524 10.1161 9.89468 10.1328 9.90024 10.155L9.95857 10.4967C9.96413 10.5189 9.94746 10.5383 9.92524 10.5439C9.91968 10.5439 9.91968 10.5439 9.91413 10.5439ZM14.4752 10.4689C14.4752 10.4689 14.4752 10.4633 14.4752 10.4689C14.4475 10.4633 14.4336 10.4467 14.4391 10.4272L14.4808 10.0856C14.4864 10.0633 14.503 10.0494 14.5225 10.0494C14.5447 10.055 14.5586 10.0717 14.5586 10.0911L14.5169 10.4328C14.5141 10.4522 14.4975 10.4689 14.4752 10.4689ZM10.453 10.4689C10.4308 10.4689 10.4169 10.4522 10.4169 10.4328L10.3752 10.0911C10.3697 10.0689 10.3863 10.0494 10.4113 10.0494C10.4336 10.0494 10.453 10.0606 10.453 10.0856L10.4947 10.4272C10.4947 10.4411 10.4808 10.4633 10.453 10.4689C10.4586 10.4633 10.4586 10.4689 10.453 10.4689ZM14.7475 10.4467C14.7419 10.4467 14.7419 10.4467 14.7475 10.4467C14.7197 10.4411 14.7058 10.4244 14.7114 10.405L14.753 10.0633C14.7586 10.0411 14.7752 10.0272 14.7947 10.0272C14.8169 10.0328 14.8308 10.0494 14.8308 10.0689L14.7891 10.4106C14.7808 10.4328 14.7641 10.4467 14.7475 10.4467ZM10.1863 10.4467C10.1641 10.4467 10.1502 10.43 10.1502 10.4106L10.1086 10.0689C10.103 10.0467 10.1197 10.0272 10.1447 10.0272C10.1669 10.0272 10.1863 10.0383 10.1863 10.0633L10.228 10.405C10.228 10.4272 10.2113 10.4467 10.1863 10.4467ZM14.2141 10.4328C14.1864 10.4272 14.1725 10.4106 14.178 10.3911L14.2197 10.0494C14.2252 10.0272 14.2419 10.0133 14.2614 10.0133C14.2836 10.0189 14.2975 10.0356 14.2975 10.055L14.2558 10.3967C14.253 10.4161 14.2364 10.4328 14.2141 10.4328ZM10.7141 10.4328C10.6919 10.4328 10.678 10.4161 10.678 10.3967L10.6363 10.055C10.6308 10.0328 10.6475 10.0133 10.6725 10.0133C10.6947 10.0133 10.7141 10.0244 10.7141 10.0494L10.7558 10.3911C10.7586 10.4106 10.7419 10.4272 10.7141 10.4328C10.7197 10.4328 10.7141 10.4328 10.7141 10.4328ZM13.6947 10.405C13.6669 10.405 13.653 10.3828 13.6586 10.3633L13.6808 10.0161C13.6808 9.99389 13.703 9.98 13.7225 9.98C13.7447 9.98 13.7586 10.0022 13.7586 10.0217L13.7364 10.3689C13.7391 10.3883 13.7169 10.405 13.6947 10.405ZM11.2336 10.405C11.2114 10.405 11.1975 10.3883 11.1975 10.3689L11.1752 10.0217C11.1752 9.99944 11.1919 9.98 11.2114 9.98C11.2308 9.98 11.253 9.99666 11.253 10.0161L11.2752 10.3633C11.2752 10.3883 11.2586 10.405 11.2336 10.405ZM13.9752 10.405C13.9475 10.405 13.9336 10.3828 13.9391 10.3633L13.9614 10.0161C13.9614 9.99389 13.9836 9.98 14.003 9.98C14.0252 9.98 14.0391 10.0022 14.0391 10.0217L14.0169 10.3689C14.0114 10.3883 13.9947 10.405 13.9752 10.405ZM10.9558 10.405C10.9336 10.405 10.9197 10.3883 10.9197 10.3689L10.8975 10.0217C10.8975 9.99944 10.9141 9.98 10.9336 9.98C10.953 9.98 10.9752 9.99666 10.9752 10.0161L10.9975 10.3633C10.9975 10.3828 10.9808 10.405 10.9558 10.405C10.9614 10.405 10.9558 10.405 10.9558 10.405ZM13.4502 10.3883C13.4447 10.3883 13.4447 10.3883 13.4502 10.3883C13.4225 10.3883 13.4086 10.3661 13.4141 10.3467L13.4308 9.99944C13.4308 9.97722 13.453 9.96333 13.4725 9.96333C13.4947 9.96333 13.5086 9.98555 13.5086 10.005L13.4919 10.3522C13.4864 10.3717 13.4725 10.3883 13.4502 10.3883ZM11.4836 10.3883C11.4614 10.3883 11.4475 10.3717 11.4475 10.3522L11.4308 10.005C11.4308 9.98277 11.4475 9.96333 11.4669 9.96333C11.4864 9.96333 11.5086 9.98 11.5086 9.99944L11.5252 10.3467C11.528 10.3661 11.5058 10.3883 11.4836 10.3883ZM12.4669 10.3772C12.4447 10.3772 12.4252 10.3606 12.4252 10.3356V9.955C12.4252 9.93277 12.4419 9.91333 12.4669 9.91333C12.4919 9.91333 12.5086 9.93 12.5086 9.955V10.3356C12.5058 10.3578 12.4891 10.3772 12.4669 10.3772ZM13.1725 10.3717C13.1502 10.3717 13.1308 10.3494 13.1308 10.33L13.1475 9.98277C13.1475 9.96055 13.1697 9.94666 13.1891 9.94666C13.2086 9.94666 13.2252 9.96889 13.2252 9.98833L13.2086 10.3356C13.2086 10.3578 13.1947 10.3717 13.1725 10.3717ZM11.7614 10.3717C11.7391 10.3717 11.7252 10.355 11.7252 10.3356L11.7086 9.98833C11.7086 9.96611 11.7252 9.94666 11.7447 9.94666C11.7641 9.94666 11.7864 9.96333 11.7864 9.98277L11.803 10.33C11.8002 10.3522 11.7836 10.3717 11.7614 10.3717ZM12.853 10.3633C12.8308 10.3633 12.8114 10.3411 12.8114 10.3217L12.828 9.97444C12.828 9.95222 12.8502 9.93833 12.8697 9.93833C12.8919 9.93833 12.9058 9.96055 12.9058 9.98L12.8891 10.3272C12.8891 10.3467 12.8725 10.3633 12.853 10.3633ZM12.0836 10.3633C12.0614 10.3633 12.0475 10.3467 12.0475 10.3272L12.0308 9.98C12.0308 9.95777 12.0475 9.93833 12.0669 9.93833C12.0864 9.93833 12.1086 9.955 12.1086 9.97444L12.1252 10.3217C12.1197 10.3467 12.103 10.3633 12.0836 10.3633Z" fill="black"/>
</g>
<defs>
<clipPath id="clip0_93_5474">
<rect width="53.3333" height="30" fill="white" transform="translate(0.652344)"/>
</clipPath>
</defs>
</svg>
