<svg width="54" height="30" viewBox="0 0 54 30" fill="none" xmlns="http://www.w3.org/2000/svg">
<g clip-path="url(#clip0_93_10142)">
<path d="M53.9984 0H0.665039V30H53.9984V0Z" fill="#0F7562"/>
<path d="M27.9316 7.49984L28.9011 6.79984H27.7011L27.3316 5.66095L26.9622 6.79984H25.7622L26.7316 7.49984L26.3622 8.63872L27.3316 7.93039L28.3011 8.63872L27.9316 7.49984Z" fill="#FFDE23"/>
<path d="M21.2931 11.5892L22.0126 11.1892L21.1931 11.0892L21.032 10.2698L20.682 11.0198L19.8625 10.9198L20.4709 11.4892L20.1209 12.2392L20.8431 11.8392L21.4514 12.4003L21.2931 11.5892Z" fill="#FFDE23"/>
<path d="M23.5121 8.94996L24.3426 8.96107L23.6704 8.46107L23.9426 7.68052L23.2621 8.14996L22.601 7.64996L22.8426 8.44996L22.1704 8.91941L22.9926 8.93885L23.2426 9.73052L23.5121 8.94996Z" fill="#FFDE23"/>
<path d="M21.4819 21.2391C21.643 21.378 21.8014 21.5085 21.9708 21.628H27.3319H32.693C32.8625 21.5085 33.0236 21.378 33.1819 21.2391H27.3319H21.4819Z" fill="white"/>
<path d="M22.5427 22.0198C22.8316 22.2003 23.1316 22.3698 23.4427 22.5198H27.3316H31.2205C31.5316 22.3698 31.8316 22.2003 32.1205 22.0198H27.3316H22.5427Z" fill="white"/>
<path d="M24.0122 22.7698C25.0428 23.1809 26.1622 23.4003 27.3317 23.4003C28.5011 23.4003 29.6205 23.1809 30.6511 22.7698H27.3317H24.0122Z" fill="white"/>
<path d="M20.6929 20.4802C20.7734 20.5608 20.854 20.6497 20.9318 20.7302H27.3318H33.7318C33.8123 20.6497 33.8929 20.5608 33.9706 20.4802H27.3318H20.6929Z" fill="white"/>
<path d="M29.3622 19.2388C28.3622 18.9388 27.6927 18.3888 27.3316 18.0499C26.9705 18.3888 26.301 18.9388 25.301 19.2388C24.8316 19.3776 24.3399 19.4582 23.8316 19.4582H19.8816C20.001 19.6276 20.1205 19.7971 20.251 19.9582H24.0622C25.301 19.9582 26.4427 19.5082 27.3316 18.7693C28.2122 19.5082 29.351 19.9582 30.601 19.9582H34.4122C34.5427 19.7971 34.6622 19.6276 34.7816 19.4582H30.8316C30.3205 19.461 29.8316 19.3888 29.3622 19.2388Z" fill="white"/>
<path d="M30.6625 18.6502C30.3514 18.6502 30.0514 18.6197 29.7625 18.5697C29.9014 18.5808 30.043 18.5891 30.1819 18.5891C32.3514 18.5891 34.2014 17.228 34.9208 15.3086C34.2097 15.0197 33.4403 14.8474 32.6319 14.8474C31.1819 14.8474 29.8514 15.3669 28.8125 16.228C29.893 15.0974 31.4236 14.3974 33.1014 14.3891C33.2125 14.178 33.3514 13.9891 33.5208 13.828C33.4319 13.828 33.3403 13.8169 33.2514 13.8169C31.5514 13.8169 30.0208 14.528 28.9403 15.6669C29.5597 14.828 29.9292 13.7863 29.9292 12.6558C29.9292 11.7447 29.6903 10.8947 29.268 10.1669C29.1792 10.478 29.0069 10.7474 28.7986 10.978C29.1097 11.6391 29.2875 12.3669 29.2875 13.1474C29.2875 14.3169 28.8875 15.3863 28.2264 16.2474C28.7653 15.4363 29.0875 14.4669 29.0875 13.428C29.0875 12.928 29.018 12.4391 28.8764 11.978C28.5153 10.7586 27.7375 9.95856 27.3264 9.58911C26.9153 9.95856 26.1458 10.7586 25.7764 11.978C25.6375 12.4391 25.5653 12.9169 25.5653 13.428C25.5653 14.4669 25.8847 15.4391 26.4264 16.2474C25.7653 15.3863 25.3653 14.3169 25.3653 13.1474C25.3653 12.3669 25.5347 11.6363 25.8542 10.978C25.6347 10.7474 25.4736 10.478 25.3847 10.1669C24.9653 10.9058 24.7236 11.7558 24.7236 12.6558C24.7236 13.7863 25.093 14.8252 25.7125 15.6669C24.6236 14.528 23.093 13.8169 21.4014 13.8169C21.3125 13.8169 21.2208 13.8169 21.1319 13.828C21.3014 13.9891 21.443 14.178 21.5514 14.3891C23.2403 14.3891 24.7625 15.1002 25.8403 16.228C24.8097 15.3669 23.4708 14.8474 22.0208 14.8474C21.2097 14.8474 20.4319 15.0086 19.7319 15.3086C20.4514 17.2197 22.3125 18.5891 24.4708 18.5891C24.6097 18.5891 24.7514 18.578 24.8903 18.5697C24.6014 18.6197 24.3014 18.6502 23.9903 18.6502C22.6208 18.6502 21.3792 18.1113 20.4708 17.2308C20.2819 17.3002 20.0819 17.3502 19.8597 17.3613C20.7903 18.4113 22.1486 19.0724 23.6597 19.0724C25.0986 19.0724 26.3903 18.4724 27.3208 17.5113C28.2403 18.4724 29.5403 19.0724 30.9819 19.0724C32.493 19.0724 33.8514 18.4113 34.7819 17.3613C34.5708 17.3502 34.3625 17.3002 34.1708 17.2308C33.2708 18.1113 32.0319 18.6502 30.6625 18.6502Z" fill="white"/>
<path d="M34.193 11.4892L34.8014 10.9198L33.9819 11.0198L33.6319 10.2698L33.4708 11.0892L32.6514 11.1892L33.3708 11.5892L33.2125 12.4003L33.8208 11.8392L34.543 12.2392L34.193 11.4892Z" fill="#FFDE23"/>
<path d="M31.6708 8.93885L32.493 8.91941L31.8208 8.44996L32.0625 7.64996L31.4014 8.14996L30.7208 7.68052L30.993 8.46107L30.3208 8.96107L31.1514 8.94996L31.4208 9.73052L31.6708 8.93885Z" fill="#FFDE23"/>
</g>
<defs>
<clipPath id="clip0_93_10142">
<rect width="53.3333" height="30" fill="white" transform="translate(0.665039)"/>
</clipPath>
</defs>
</svg>
