<svg width="54" height="30" viewBox="0 0 54 30" fill="none" xmlns="http://www.w3.org/2000/svg">
<g clip-path="url(#clip0_93_10155)">
<path d="M-3.00342 0H56.9966V30H-3.00342V0Z" fill="white"/>
<path d="M56.9964 15H-0.859131V12.8556H56.9964V15ZM56.9964 10.7139H-0.859131V8.56944H56.9964V10.7139ZM56.9964 6.43056H-0.859131V4.28611H56.9964V6.43056ZM56.9964 2.14444H-0.859131V0H56.9964V2.14444Z" fill="#CC0000"/>
<path d="M-3.00342 0H26.9966V18.2139H-3.00342V0Z" fill="#000066"/>
<path d="M56.9966 27.8556H-3.00342V25.7112H56.9966V27.8556ZM56.9966 23.5695H-3.00342V21.4251H56.9966V23.5695ZM56.9966 19.2862H-3.00342V17.139H56.9966V19.2862Z" fill="#CC0000"/>
<path d="M15.7466 3.21401L16.2272 6.48345L18.0772 3.74734L17.0883 6.89734L19.9411 5.23623L17.6799 7.64734L20.9744 7.38345L17.8938 8.57234L20.9744 9.76123L17.6799 9.49734L19.9411 11.9085L17.0855 10.2446L18.0772 13.389L16.2272 10.6529L15.7466 13.9251L15.2661 10.6557L13.4161 13.389L14.4049 10.239L11.5522 11.9057L13.8133 9.49456L10.5188 9.75845L13.5994 8.56956L10.5188 7.38067L13.8133 7.64456L11.5522 5.23623L14.4077 6.90012L13.4161 3.75012L15.2661 6.48623L15.7466 3.21401ZM13.0661 3.35012C10.1799 2.06956 6.80494 3.36956 5.52716 6.25567C4.24939 9.14178 5.54661 12.5168 8.43272 13.7946C9.90772 14.4501 11.5938 14.4501 13.0688 13.7946C10.1827 15.864 6.16883 15.2057 4.09939 12.3196C2.02994 9.43345 2.68827 5.41956 5.57439 3.35012C7.8105 1.73901 10.8272 1.73901 13.0661 3.35012Z" fill="#FFCC00"/>
</g>
<defs>
<clipPath id="clip0_93_10155">
<rect width="53.3333" height="30" fill="white" transform="translate(0.330078)"/>
</clipPath>
</defs>
</svg>
