<svg width="54" height="30" viewBox="0 0 54 30" fill="none" xmlns="http://www.w3.org/2000/svg">
<g clip-path="url(#clip0_93_11884)">
<path d="M0.660156 0H53.9935V30H0.660156V0Z" fill="black"/>
<path d="M27.3266 17.8501C30.8888 17.8501 33.7766 14.9623 33.7766 11.4001C33.7766 7.83787 30.8888 4.9501 27.3266 4.9501C23.7643 4.9501 20.8766 7.83787 20.8766 11.4001C20.8766 14.9623 23.7643 17.8501 27.3266 17.8501Z" fill="#CE1126"/>
<path d="M27.3269 1.20011C27.113 1.20011 27.0269 1.52511 27.0269 1.85011C27.0269 2.63622 27.1213 3.04456 27.3269 4.20011C27.5324 3.04456 27.6269 2.63622 27.6269 1.85011C27.6269 1.52511 27.5408 1.20011 27.3269 1.20011Z" fill="#CE1126"/>
<path d="M28.2158 1.23887C28.0019 1.21942 27.8908 1.53887 27.8603 1.85831C27.7908 2.63887 27.8491 3.05276 27.9547 4.2222C28.2602 3.08609 28.3908 2.68609 28.4602 1.90831C28.488 1.58887 28.4325 1.26109 28.2158 1.23887Z" fill="#CE1126"/>
<path d="M29.0964 1.35563C28.8825 1.31674 28.7464 1.62508 28.6853 1.94452C28.5492 2.71397 28.5714 3.13341 28.5714 4.30841C28.9714 3.20285 29.1353 2.81952 29.277 2.0473C29.3381 1.72508 29.3131 1.39452 29.0964 1.35563Z" fill="#CE1126"/>
<path d="M29.9654 1.55035C29.7543 1.4948 29.5904 1.78646 29.5043 2.10035C29.2987 2.85591 29.2904 3.27535 29.1848 4.45035C29.6793 3.38646 29.8792 3.01424 30.0848 2.26146C30.1709 1.93924 30.1765 1.60591 29.9654 1.55035Z" fill="#CE1126"/>
<path d="M30.8158 1.81384C30.6102 1.73884 30.4213 2.0194 30.3102 2.32496C30.0408 3.06107 29.9908 3.48051 29.7908 4.63607C30.3769 3.61662 30.6047 3.26662 30.8769 2.53051C30.988 2.22496 31.0158 1.88884 30.8158 1.81384Z" fill="#CE1126"/>
<path d="M31.6378 2.15572C31.4433 2.06683 31.2267 2.32517 31.0933 2.61683C30.7628 3.32794 30.6795 3.73628 30.3739 4.87239C31.0489 3.9085 31.31 3.57794 31.6378 2.86683C31.7711 2.57517 31.8322 2.24461 31.6378 2.15572Z" fill="#CE1126"/>
<path d="M32.4266 2.56382C32.2377 2.45271 32.0072 2.69437 31.8405 2.97771C31.4516 3.65826 31.3266 4.05826 30.9266 5.16382C31.6822 4.26382 31.9711 3.95826 32.3627 3.27771C32.5211 2.99993 32.6155 2.67493 32.4266 2.56382Z" fill="#CE1126"/>
<path d="M33.1765 3.04437C33.0015 2.91937 32.7459 3.13881 32.557 3.40548C32.107 4.04437 31.9515 4.43604 31.457 5.49993C32.2876 4.66937 32.6015 4.38881 33.0515 3.74437C33.2376 3.48604 33.357 3.16937 33.1765 3.04437Z" fill="#CE1126"/>
<path d="M33.8826 3.58609C33.7187 3.4472 33.4437 3.64164 33.2326 3.89164C32.727 4.49164 32.5381 4.86664 31.952 5.88608C32.852 5.13053 33.1881 4.88053 33.6909 4.28053C33.902 4.03053 34.0465 3.72497 33.8826 3.58609Z" fill="#CE1126"/>
<path d="M34.5379 4.18884C34.3823 4.03329 34.099 4.20829 33.8685 4.43329C33.3129 4.98884 33.0935 5.3444 32.4185 6.30828C33.3823 5.63328 33.7379 5.41384 34.2935 4.85828C34.5212 4.63051 34.6907 4.33884 34.5379 4.18884Z" fill="#CE1126"/>
<path d="M35.1404 4.84451C35.0015 4.68062 34.7015 4.82507 34.4515 5.0334C33.8515 5.53896 33.6015 5.87229 32.8459 6.77229C33.8654 6.1834 34.2404 5.99729 34.8404 5.49173C35.0876 5.28062 35.2821 5.01118 35.1404 4.84451Z" fill="#CE1126"/>
<path d="M35.6821 5.55025C35.5571 5.37525 35.2432 5.48914 34.9765 5.67525C34.3376 6.12525 34.0571 6.43914 33.2209 7.2697C34.2848 6.77525 34.6765 6.61414 35.3154 6.1697C35.5876 5.98081 35.8071 5.72525 35.6821 5.55025Z" fill="#CE1126"/>
<path d="M36.1631 6.29996C36.052 6.11107 35.7326 6.20551 35.4492 6.36385C34.7687 6.75274 34.4631 7.0444 33.5631 7.79996C34.6687 7.39996 35.0687 7.27496 35.7492 6.88607C36.027 6.7194 36.2659 6.48885 36.1631 6.29996Z" fill="#CE1126"/>
<path d="M36.5711 7.08888C36.4823 6.89443 36.1517 6.95277 35.8573 7.09443C35.1461 7.42499 34.8184 7.68333 33.8517 8.35833C34.9878 8.05277 35.3961 7.96944 36.1073 7.63888C36.4017 7.49999 36.6628 7.2861 36.5711 7.08888Z" fill="#CE1126"/>
<path d="M36.9131 7.91112C36.8381 7.70557 36.502 7.74168 36.1992 7.85001C35.4631 8.11946 35.1103 8.35002 34.0936 8.93613C35.2492 8.73057 35.6686 8.68057 36.4047 8.41668C36.7075 8.30557 36.9881 8.1139 36.9131 7.91112Z" fill="#CE1126"/>
<path d="M37.1769 8.76103C37.1214 8.54992 36.788 8.55548 36.4714 8.64159C35.7158 8.84714 35.3464 9.04159 34.2825 9.54159C35.4519 9.44159 35.8714 9.4277 36.6325 9.22214C36.9408 9.13603 37.238 8.96937 37.1769 8.76103Z" fill="#CE1126"/>
<path d="M17.2827 9.63054C17.2439 9.84443 17.5522 9.98054 17.8716 10.0417C18.6411 10.1778 19.0605 10.1555 20.2355 10.1555C19.13 9.75554 18.7466 9.59166 17.9744 9.44999C17.6522 9.38888 17.3216 9.41388 17.2827 9.63054Z" fill="#CE1126"/>
<path d="M17.4768 8.76103C17.4213 8.97214 17.7129 9.13603 18.0268 9.22214C18.7824 9.4277 19.2018 9.43603 20.3768 9.54159C19.3129 9.04714 18.9407 8.84714 18.1879 8.64159C17.8657 8.55548 17.5324 8.54992 17.4768 8.76103Z" fill="#CE1126"/>
<path d="M17.7409 7.91094C17.6659 8.1165 17.9465 8.30539 18.252 8.4165C18.9881 8.68594 19.4076 8.73595 20.5631 8.93595C19.5437 8.34983 19.1937 8.1165 18.4576 7.84983C18.152 7.73872 17.8159 7.71094 17.7409 7.91094Z" fill="#CE1126"/>
<path d="M18.0821 7.08899C17.9932 7.28343 18.2516 7.5001 18.5432 7.63343C19.2543 7.96399 19.6627 8.04732 20.7988 8.35287C19.8349 7.67787 19.5043 7.41676 18.7932 7.08899C18.5016 6.95565 18.171 6.89454 18.0821 7.08899Z" fill="#CE1126"/>
<path d="M18.4905 6.29996C18.3794 6.48885 18.6211 6.7194 18.9044 6.88607C19.5849 7.27496 19.9849 7.39996 21.0905 7.79996C20.1905 7.0444 19.8849 6.75551 19.2044 6.36385C18.9266 6.20551 18.6016 6.11107 18.4905 6.29996Z" fill="#CE1126"/>
<path d="M18.9715 5.54998C18.8465 5.72498 19.0659 5.98054 19.3326 6.16943C19.9715 6.61943 20.3631 6.77498 21.427 7.26943C20.5965 6.43887 20.3159 6.12498 19.6715 5.67498C19.4131 5.48887 19.0965 5.36942 18.9715 5.54998Z" fill="#CE1126"/>
<path d="M19.5131 4.84455C19.3742 5.00844 19.5687 5.28344 19.8187 5.49455C20.4187 6.00011 20.7937 6.18899 21.8131 6.7751C21.0576 5.8751 20.8076 5.53899 20.2076 5.03622C19.9576 4.82511 19.652 4.68066 19.5131 4.84455Z" fill="#CE1126"/>
<path d="M20.1159 4.18873C19.9603 4.34428 20.1353 4.62762 20.3603 4.85817C20.9159 5.41373 21.2714 5.63317 22.2353 6.30817C21.5603 5.34428 21.3409 4.98873 20.7853 4.43317C20.5576 4.20539 20.2659 4.03595 20.1159 4.18873Z" fill="#CE1126"/>
<path d="M20.7713 3.58596C20.6074 3.72485 20.7518 4.02485 20.9602 4.27485C21.4657 4.87485 21.7991 5.12485 22.6991 5.88041C22.1102 4.86096 21.9241 4.48596 21.4185 3.88596C21.2074 3.63874 20.938 3.44429 20.7713 3.58596Z" fill="#CE1126"/>
<path d="M21.4766 3.04414C21.3016 3.16914 21.4155 3.48303 21.6016 3.7497C22.0516 4.38859 22.3655 4.66914 23.1961 5.50526C22.7016 4.44137 22.5405 4.0497 22.0961 3.41081C21.9072 3.13859 21.6516 2.91914 21.4766 3.04414Z" fill="#CE1126"/>
<path d="M22.2264 2.56393C22.0376 2.67504 22.132 2.99448 22.2903 3.27782C22.6792 3.95837 22.9709 4.26393 23.7264 5.16393C23.3264 4.05837 23.2014 3.65837 22.8126 2.97782C22.6459 2.70004 22.4153 2.46115 22.2264 2.56393Z" fill="#CE1126"/>
<path d="M23.0159 2.15555C22.8214 2.24444 22.8798 2.575 23.0214 2.86944C23.352 3.58055 23.6103 3.90833 24.2853 4.875C23.9798 3.73889 23.8964 3.33055 23.5659 2.61944C23.427 2.325 23.2131 2.06389 23.0159 2.15555Z" fill="#CE1126"/>
<path d="M23.838 1.81403C23.6325 1.88903 23.6686 2.22514 23.7769 2.52792C24.0464 3.26403 24.2769 3.61681 24.863 4.63347C24.6575 3.47792 24.6075 3.05847 24.3436 2.32236C24.2325 2.01959 24.0408 1.73903 23.838 1.81403Z" fill="#CE1126"/>
<path d="M24.6882 1.55027C24.4771 1.60582 24.4827 1.93916 24.5688 2.25582C24.7716 3.01138 24.966 3.38082 25.466 4.44471C25.366 3.27527 25.3521 2.85582 25.1465 2.09471C25.0632 1.78638 24.8966 1.48916 24.6882 1.55027Z" fill="#CE1126"/>
<path d="M25.5576 1.35555C25.3437 1.39444 25.3187 1.72499 25.3715 2.04444C25.5076 2.81388 25.6715 3.20555 26.0771 4.30555C26.0771 3.13055 26.1021 2.71111 25.9632 1.94166C25.9076 1.62499 25.766 1.31388 25.5576 1.35555Z" fill="#CE1126"/>
<path d="M26.4378 1.23875C26.2239 1.2582 26.1684 1.58875 26.1989 1.91375C26.2684 2.69431 26.3989 3.09431 26.7045 4.22764C26.8045 3.0582 26.8656 2.64153 26.7989 1.86375C26.7656 1.53597 26.6517 1.21931 26.4378 1.23875Z" fill="#CE1126"/>
<path d="M0.660156 9.25H53.9935V30H0.660156V9.25Z" fill="black"/>
<path d="M0.660156 10H53.9935V30H0.660156V10Z" fill="#CE1126"/>
<path d="M0.660156 20H53.9935V30H0.660156V20Z" fill="#339E35"/>
</g>
<defs>
<clipPath id="clip0_93_11884">
<rect width="53.3333" height="30" fill="white" transform="translate(0.660156)"/>
</clipPath>
</defs>
</svg>
