<svg width="54" height="30" viewBox="0 0 54 30" fill="none" xmlns="http://www.w3.org/2000/svg">
<g clip-path="url(#clip0_93_10161)">
<path d="M53.9954 0H0.662109V30H53.9954V0Z" fill="#D21034"/>
<path d="M45.1063 7.5H9.55078V22.5H45.1063V7.5Z" fill="#007E3A"/>
<path d="M29.2037 20C31.9652 20 34.2037 17.7614 34.2037 15C34.2037 12.2386 31.9652 10 29.2037 10C26.4423 10 24.2037 12.2386 24.2037 15C24.2037 17.7614 26.4423 20 29.2037 20Z" fill="white"/>
<path d="M31.0787 20C33.8402 20 36.0787 17.7614 36.0787 15C36.0787 12.2386 33.8402 10 31.0787 10C28.3173 10 26.0787 12.2386 26.0787 15C26.0787 17.7614 28.3173 20 31.0787 20Z" fill="#007E3A"/>
</g>
<defs>
<clipPath id="clip0_93_10161">
<rect width="53.3333" height="30" fill="white" transform="translate(0.662109)"/>
</clipPath>
</defs>
</svg>
