<svg width="55" height="30" viewBox="0 0 55 30" fill="none" xmlns="http://www.w3.org/2000/svg">
<g clip-path="url(#clip0_93_5623)">
<path d="M54.3304 0H27.6637V30H54.3304V0Z" fill="#CF142B"/>
<path d="M27.6635 0H0.966309V30H27.6635V0Z" fill="white"/>
<path d="M2.07471 4.13911V6.41411H4.34971C4.34971 6.79466 4.73026 7.17522 5.11082 7.17522V9.45022H7.38582V7.17522C7.76637 7.17522 8.14693 6.79466 8.14693 6.41411H10.4219V4.13911H8.14693C8.14693 3.75855 7.76637 3.37799 7.38582 3.37799V1.11133H5.10526V3.38633C4.72471 3.38633 4.34415 3.76688 4.34415 4.14744C4.34971 4.13911 2.07471 4.13911 2.07471 4.13911Z" fill="#E60D2E"/>
<path d="M2.23022 4.2952V6.26465H4.50522C4.50522 6.6452 4.88578 7.0202 5.26634 7.0202V9.29521H7.23578V7.0202C7.61633 7.0202 7.99689 6.63965 7.99689 6.25909H10.2719V4.2952H7.99689C7.99689 3.91465 7.61633 3.53409 7.23578 3.53409V1.26465H5.26078V3.53965C4.88022 3.53965 4.49967 3.9202 4.49967 4.30076C4.49967 4.2952 2.23022 4.2952 2.23022 4.2952Z" fill="#96877D"/>
<path d="M2.30554 4.36942V6.18887H4.58054C4.58054 6.56942 4.9611 6.94998 5.34165 6.94998V9.22498H7.1611V6.94998C7.54165 6.94998 7.92221 6.56942 7.92221 6.18887H10.1972V4.36942H7.92221C7.92221 3.98887 7.54165 3.60831 7.1611 3.60831V1.33887H5.3361V3.61387C4.95554 3.61387 4.57499 3.99442 4.57499 4.37498H2.30554V4.36942Z" fill="#CCCCCC"/>
<path d="M5.1914 3.58639C5.32751 3.7225 5.28584 3.9725 5.11084 4.15028C4.93028 4.33083 4.68028 4.36417 4.54972 4.23083C4.41361 4.09472 4.45528 3.84472 4.63028 3.66694C4.80528 3.48639 5.06084 3.45028 5.1914 3.58639Z" fill="#96877D"/>
<path d="M4.51929 3.98702L4.57484 3.93147L4.78873 4.03702L4.68318 3.82313L4.73873 3.76758L4.95262 4.19813L4.51929 3.98702Z" fill="#D0D0D0"/>
<path d="M4.84412 3.66395L4.89967 3.6084L5.21912 3.92784L5.16356 3.9834L4.84412 3.66395Z" fill="#D0D0D0"/>
<path d="M7.93607 4.22545C7.79996 4.36156 7.54995 4.31989 7.37217 4.14489C7.19162 3.96433 7.15828 3.71433 7.29162 3.58378C7.42773 3.44767 7.67773 3.48933 7.85273 3.66433C8.03607 3.83933 8.0694 4.09489 7.93607 4.22545Z" fill="#96877D"/>
<path d="M7.53606 3.55591L7.59162 3.61146L7.48606 3.82535L7.69995 3.7198L7.75551 3.77535L7.32495 3.98924L7.53606 3.55591Z" fill="#D0D0D0"/>
<path d="M7.85534 3.88074L7.9109 3.93629L7.59145 4.25574L7.53589 4.20018L7.85534 3.88074Z" fill="#D0D0D0"/>
<path d="M7.29435 6.96988C7.15824 6.83377 7.19991 6.58377 7.37491 6.40599C7.55546 6.22543 7.80547 6.1921 7.93602 6.32543C8.07213 6.46154 8.03047 6.71154 7.85547 6.88932C7.68046 7.06988 7.42491 7.10599 7.29435 6.96988Z" fill="#96877D"/>
<path d="M7.96666 6.56866L7.9111 6.62421L7.69721 6.51866L7.80277 6.73254L7.74721 6.7881L7.53333 6.35754L7.96666 6.56866Z" fill="#D0D0D0"/>
<path d="M7.64148 6.88866L7.58592 6.94421L7.26648 6.62477L7.32204 6.56921L7.64148 6.88866Z" fill="#D0D0D0"/>
<path d="M4.54992 6.32963C4.68603 6.19352 4.93603 6.23518 5.11381 6.41019C5.29436 6.59074 5.3277 6.84075 5.19436 6.97131C5.05825 7.10742 4.80825 7.06575 4.63047 6.89075C4.44992 6.71297 4.41658 6.46019 4.54992 6.32963Z" fill="#96877D"/>
<path d="M4.94967 6.99974L4.89411 6.94418L4.99967 6.7303L4.78578 6.83585L4.73022 6.7803L5.16078 6.56641L4.94967 6.99974Z" fill="#D0D0D0"/>
<path d="M4.63026 6.67505L4.57471 6.61949L4.89415 6.30005L4.94971 6.3556L4.63026 6.67505Z" fill="#D0D0D0"/>
<path d="M6.24435 6.88128C5.35824 6.88128 4.63879 6.16183 4.63879 5.27572C4.63879 4.38961 5.35824 3.67017 6.24435 3.67017C7.13046 3.67017 7.8499 4.38961 7.8499 5.27572C7.8499 6.16183 7.1249 6.88128 6.24435 6.88128ZM6.24435 3.70072C5.36935 3.70072 4.66379 4.41183 4.66379 5.28128C4.66379 6.15072 5.3749 6.86183 6.24435 6.86183C7.11379 6.86183 7.8249 6.15072 7.8249 5.28128C7.81935 4.41183 7.11657 3.70072 6.24435 3.70072Z" fill="#96877D"/>
<path d="M6.24441 6.50579C5.56941 6.50579 5.01941 5.95579 5.01941 5.28079C5.01941 4.60579 5.56941 4.05579 6.24441 4.05579C6.91941 4.05579 7.46941 4.60579 7.46941 5.28079C7.46941 5.95579 6.91941 6.50579 6.24441 6.50579ZM6.24441 4.08079C5.5833 4.08079 5.04441 4.61968 5.04441 5.28079C5.04441 5.9419 5.5833 6.48079 6.24441 6.48079C6.90552 6.48079 7.44441 5.9419 7.44441 5.28079C7.44441 4.61968 6.90552 4.08079 6.24441 4.08079Z" fill="#96877D"/>
<path d="M5.63591 6.63938C5.67733 6.63938 5.71091 6.6058 5.71091 6.56438C5.71091 6.52296 5.67733 6.48938 5.63591 6.48938C5.59449 6.48938 5.56091 6.52296 5.56091 6.56438C5.56091 6.6058 5.59449 6.63938 5.63591 6.63938Z" fill="black"/>
<path d="M6.8499 6.63938C6.89132 6.63938 6.9249 6.6058 6.9249 6.56438C6.9249 6.52296 6.89132 6.48938 6.8499 6.48938C6.80848 6.48938 6.7749 6.52296 6.7749 6.56438C6.7749 6.6058 6.80848 6.63938 6.8499 6.63938Z" fill="black"/>
<path d="M6.19417 6.56407V6.64463H6.09417C5.99416 6.64463 5.99416 6.72518 6.09417 6.72518H6.19417V6.80574C6.19417 6.8863 6.28306 6.89463 6.28861 6.8113L6.29417 6.72518H6.39417C6.49417 6.72518 6.49417 6.64463 6.39417 6.64463H6.29417V6.56407C6.29417 6.48629 6.19139 6.48629 6.19417 6.56407Z" fill="black"/>
<path d="M4.76644 5.66945L4.87199 5.64445L4.86088 5.59445C4.85532 5.58334 4.85532 5.57501 4.84699 5.56945C4.84144 5.5639 4.8331 5.5639 4.81644 5.5639V5.55834L4.90532 5.5389V5.54445C4.89421 5.55001 4.88588 5.55001 4.88588 5.55557C4.88032 5.56112 4.88032 5.56668 4.87477 5.56945C4.87477 5.57501 4.87477 5.58057 4.87477 5.5889L4.88588 5.6389L4.97199 5.61945C4.98588 5.6139 4.99143 5.6139 4.99699 5.60834C5.00255 5.60834 5.00255 5.60279 5.00255 5.59723C5.00255 5.59168 5.00255 5.58334 5.00255 5.57779V5.56668H5.0081L5.0331 5.68057H5.02477V5.66945C5.01921 5.65834 5.01366 5.65001 5.01088 5.65001C5.00532 5.65001 4.99699 5.65001 4.98032 5.65001L4.81088 5.6889C4.79699 5.69446 4.79144 5.69445 4.78588 5.70001C4.78032 5.70001 4.78032 5.70557 4.78032 5.71112C4.78032 5.71668 4.78032 5.72501 4.78032 5.73057V5.74168H4.77477L4.73032 5.54723L4.79144 5.53334V5.5389C4.78032 5.54445 4.77199 5.55001 4.76644 5.55834C4.76088 5.5639 4.75532 5.56945 4.75532 5.57779C4.75532 5.58334 4.75532 5.59723 4.76088 5.60834L4.76644 5.66945ZM4.69421 5.20001C4.69421 5.1639 4.7081 5.13612 4.73866 5.11112C4.76921 5.08612 4.79977 5.07501 4.84421 5.07501C4.8831 5.07501 4.91921 5.0889 4.94421 5.11945C4.96921 5.15001 4.9831 5.18056 4.98032 5.2139C4.98032 5.25001 4.96644 5.28334 4.93588 5.30279C4.90532 5.32779 4.87199 5.3389 4.83032 5.33334C4.78588 5.33334 4.74977 5.3139 4.72477 5.28334C4.70532 5.2639 4.69421 5.23612 4.69421 5.20001ZM4.71088 5.20556C4.71088 5.23056 4.71644 5.25001 4.73588 5.26667C4.75532 5.28612 4.79144 5.29723 4.83032 5.30279C4.87477 5.30834 4.91088 5.29723 4.93588 5.27779C4.95532 5.2639 4.96643 5.24723 4.96643 5.22223C4.96643 5.19723 4.96088 5.17779 4.94144 5.15834C4.92199 5.1389 4.89144 5.12779 4.84699 5.12779C4.80255 5.12223 4.76644 5.13334 4.74144 5.14723C4.71921 5.16112 4.71088 5.18056 4.71088 5.20556ZM5.10532 4.70556L5.08032 4.77501L4.93032 4.81389C4.93032 4.81945 4.92477 4.82501 4.92477 4.82778V4.83334V4.83889L4.99977 4.86945C5.01366 4.87501 5.02477 4.88056 5.03032 4.87501C5.03588 4.86945 5.04421 4.86389 5.04421 4.85556L5.04977 4.84445L5.05532 4.85001L5.01643 4.96112L5.01088 4.95556L5.01643 4.94445C5.02199 4.93334 5.02199 4.92501 5.01643 4.91945C5.01088 4.9139 5.00532 4.90834 4.99144 4.90556L4.81644 4.84445C4.80255 4.83889 4.79144 4.83334 4.78588 4.83889C4.78032 4.84445 4.77199 4.85001 4.77199 4.85834L4.76644 4.86945L4.76088 4.8639L4.79699 4.76945C4.8081 4.74445 4.81644 4.72501 4.82755 4.70834C4.83866 4.69723 4.84699 4.68889 4.86366 4.68334C4.87755 4.67778 4.89421 4.67778 4.9081 4.68334C4.92199 4.68889 4.9331 4.69723 4.94421 4.71389C4.95532 4.72778 4.95532 4.75001 4.94977 4.76945L5.04421 4.74445C5.06366 4.73889 5.08032 4.73334 5.08866 4.72501C5.09977 4.71945 5.10255 4.71112 5.11366 4.69445L5.10532 4.70556ZM4.90532 4.83889V4.83334V4.82778C4.91644 4.80278 4.91644 4.78334 4.91088 4.76667C4.90532 4.75278 4.89699 4.73612 4.87477 4.73056C4.86088 4.72501 4.84421 4.72501 4.83032 4.73056C4.81644 4.73612 4.80532 4.74445 4.79977 4.76667C4.79421 4.77223 4.79421 4.78612 4.78866 4.79723L4.90532 4.83889ZM5.48588 3.93611L5.54143 4.00556L5.53588 4.01111C5.51643 3.99722 5.49977 3.98611 5.48588 3.98611C5.46643 3.98056 5.44143 3.98611 5.42199 4C5.39143 4.01945 5.37754 4.04445 5.37754 4.08056C5.37754 4.11111 5.38866 4.13611 5.40254 4.16111C5.41643 4.18056 5.4331 4.2 5.45254 4.21111C5.47199 4.225 5.49143 4.23056 5.51366 4.23056C5.5331 4.23056 5.54977 4.225 5.56366 4.21667C5.57477 4.21111 5.57754 4.20556 5.5831 4.19722C5.58866 4.19167 5.59421 4.18334 5.59699 4.17222L5.5581 4.10278C5.55254 4.09167 5.54421 4.08334 5.54421 4.08334C5.53866 4.08334 5.5331 4.07778 5.53032 4.07778C5.52754 4.07778 5.51921 4.08334 5.51088 4.08889L5.50532 4.08334L5.59421 4.02778L5.59977 4.03333L5.59421 4.03889C5.5831 4.04445 5.58032 4.05278 5.5831 4.05834C5.5831 4.06389 5.58866 4.07222 5.59699 4.08334L5.64143 4.15278C5.63032 4.16667 5.62199 4.18334 5.61088 4.19167C5.59977 4.20278 5.58588 4.21111 5.57199 4.22222C5.52754 4.25278 5.48588 4.25834 5.44143 4.24722C5.41088 4.23611 5.38588 4.21667 5.36643 4.19167C5.35255 4.17222 5.34699 4.14722 5.34143 4.12778C5.33588 4.09722 5.34143 4.07222 5.35532 4.04722C5.36643 4.02778 5.38032 4.00833 5.40532 3.99167C5.41643 3.98611 5.41921 3.98056 5.43032 3.97778C5.44143 3.97222 5.44977 3.97222 5.46643 3.96667C5.47754 3.96667 5.48032 3.96111 5.48032 3.96111L5.48588 3.95556C5.48588 3.95 5.48588 3.95 5.48032 3.94167L5.48588 3.93611ZM5.93032 3.96389L5.83032 3.98889L5.82477 4.03333C5.82477 4.04445 5.82477 4.05278 5.82477 4.05834C5.82477 4.06389 5.83032 4.06389 5.83588 4.06945C5.84143 4.075 5.84977 4.06945 5.86088 4.06945V4.075L5.77477 4.1V4.09445C5.78588 4.08889 5.78865 4.08333 5.79421 4.08056C5.79977 4.06945 5.80532 4.05556 5.80532 4.03611L5.84143 3.79722H5.84699L5.99699 3.99167C6.0081 4.00556 6.01643 4.01667 6.02754 4.02222C6.0331 4.02778 6.04143 4.02778 6.05254 4.02222V4.02778L5.94699 4.05834V4.05278C5.9581 4.04722 5.96088 4.04722 5.96643 4.04167C5.97199 4.03611 5.97199 4.03056 5.97199 4.03056C5.97199 4.025 5.96643 4.01667 5.9581 4.00556L5.93032 3.96389ZM5.91921 3.95556L5.84421 3.86111L5.82477 3.98056L5.91921 3.95556ZM6.39976 3.95H6.40532L6.38032 4.025L6.16921 4.01389V4.00833H6.18032C6.19143 4.00833 6.19976 4.00278 6.20532 3.99722C6.21088 3.99167 6.21088 3.98333 6.21088 3.96667L6.21643 3.79167C6.21643 3.77778 6.21643 3.76111 6.21088 3.76111C6.20532 3.75556 6.19699 3.75 6.18588 3.75H6.17476L6.29976 3.75556V3.76111C6.28588 3.76111 6.27476 3.76111 6.26921 3.76667C6.26365 3.77222 6.2581 3.77222 6.2581 3.77778C6.2581 3.78333 6.25254 3.79167 6.25254 3.80833L6.24699 3.97778C6.24699 3.98889 6.24699 3.99722 6.24699 4.00278C6.24699 4.00833 6.25254 4.00833 6.25254 4.00833C6.2581 4.00833 6.26643 4.01389 6.2831 4.01389H6.30254C6.32199 4.01389 6.33865 4.01389 6.34699 4.00833C6.3581 4.00278 6.36088 3.99722 6.37199 3.99445C6.38587 3.98056 6.39421 3.96945 6.39976 3.95ZM6.76643 4.05L6.77198 4.05556L6.72754 4.11945L6.52476 4.05556V4.05L6.53587 4.05556C6.54699 4.06111 6.55532 4.06111 6.56087 4.05C6.56643 4.04445 6.57199 4.03889 6.57476 4.025L6.63032 3.86111C6.63587 3.84722 6.63587 3.83611 6.63587 3.83056C6.63032 3.825 6.62476 3.81944 6.61643 3.81667L6.60532 3.81111V3.80556L6.71921 3.84444V3.85C6.70532 3.84445 6.69421 3.84444 6.68865 3.84444C6.6831 3.84444 6.67754 3.85 6.67476 3.85C6.66921 3.85556 6.66365 3.86389 6.66087 3.88056L6.60532 4.04445C6.59976 4.05556 6.59976 4.06389 6.59976 4.06945C6.59976 4.075 6.59976 4.075 6.60532 4.08056C6.61087 4.08056 6.61643 4.08611 6.63587 4.09167L6.65532 4.09722C6.67476 4.10278 6.69143 4.10834 6.69976 4.10834C6.7081 4.10834 6.71921 4.10278 6.72476 4.09722C6.74143 4.06945 6.74976 4.06389 6.76643 4.05ZM7.05532 4.20556L6.96921 4.14445L6.93032 4.16945C6.91921 4.175 6.91643 4.18056 6.91087 4.18334C6.91087 4.18889 6.90532 4.19445 6.91087 4.19445C6.91087 4.2 6.91643 4.20556 6.92476 4.21389L6.91921 4.21945L6.84976 4.16945L6.85532 4.16389C6.86643 4.16945 6.87476 4.16945 6.88032 4.16945C6.89143 4.16945 6.90532 4.15834 6.91921 4.15L7.13032 4.01945L7.13587 4.025L7.08032 4.26389C7.07476 4.28334 7.07476 4.3 7.07476 4.30278C7.07476 4.31389 7.08032 4.31667 7.08865 4.32223L7.0831 4.32778L6.99421 4.26667L6.99976 4.26111C7.01087 4.26667 7.01365 4.27223 7.01921 4.27223C7.02476 4.27223 7.03032 4.27223 7.03032 4.26667C7.03587 4.26111 7.03587 4.25278 7.04143 4.24167L7.05532 4.20556ZM7.06087 4.18889L7.08587 4.075L6.98587 4.13611L7.06087 4.18889ZM7.38587 4.25L7.43032 4.31111L7.36643 4.56667L7.49143 4.47223C7.50532 4.46111 7.51087 4.45278 7.51087 4.44723C7.51087 4.44167 7.51087 4.43334 7.50532 4.42223L7.49976 4.41111L7.50532 4.40556L7.56087 4.48056L7.55532 4.48612L7.54976 4.475C7.5442 4.46389 7.53587 4.46112 7.52476 4.46112C7.5192 4.46112 7.51087 4.46667 7.49976 4.475L7.31365 4.61112L7.30809 4.60556L7.37754 4.33056L7.24143 4.43056C7.22754 4.44167 7.22198 4.45 7.22198 4.45556C7.22198 4.46111 7.22198 4.46945 7.22754 4.48056L7.23309 4.49167L7.22754 4.49723L7.17198 4.42223L7.17754 4.41667L7.18309 4.42778C7.18865 4.43889 7.19698 4.44167 7.20809 4.44167C7.21365 4.44167 7.22198 4.43611 7.23309 4.42778L7.38309 4.31389C7.38865 4.30278 7.38865 4.29445 7.38865 4.28889C7.38865 4.28334 7.38865 4.27778 7.38309 4.26945C7.38309 4.26389 7.37754 4.25834 7.37198 4.25556L7.38587 4.25ZM7.72476 4.88056L7.66365 4.90556V4.90001C7.67476 4.89445 7.67754 4.88889 7.68309 4.88612C7.68865 4.88056 7.6942 4.87223 7.6942 4.86667C7.6942 4.85556 7.6942 4.85278 7.68865 4.83612L7.67476 4.80001L7.48032 4.86945C7.46643 4.87501 7.45532 4.88056 7.44976 4.88334C7.44421 4.8889 7.44421 4.89723 7.44976 4.90834L7.45532 4.91945H7.44976L7.41087 4.80834H7.41643L7.42198 4.81945C7.42754 4.83056 7.43309 4.83334 7.44143 4.83889C7.44698 4.83889 7.45532 4.83889 7.47198 4.83334L7.66643 4.76389L7.65532 4.73334C7.64976 4.72223 7.6442 4.71389 7.6442 4.70834C7.63865 4.70278 7.63309 4.69723 7.62476 4.69723C7.61365 4.69723 7.60532 4.69723 7.5942 4.69723L7.58865 4.69167L7.64976 4.67223L7.72476 4.88056ZM7.51087 5.3639L7.50532 5.2889L7.62476 5.1889C7.62476 5.18334 7.62476 5.17779 7.62476 5.17501V5.16945V5.1639L7.5442 5.16945C7.53032 5.16945 7.51365 5.17501 7.51365 5.17501C7.50809 5.18056 7.50254 5.1889 7.50254 5.20001V5.21112H7.49698L7.49143 5.09723H7.49698V5.10834C7.49698 5.11945 7.50254 5.12779 7.51087 5.13334C7.51643 5.1389 7.52476 5.1389 7.54143 5.1389L7.71643 5.12779C7.73032 5.12779 7.74698 5.12223 7.74698 5.12223C7.75254 5.11667 7.75809 5.10834 7.75809 5.09723V5.08612H7.76365L7.7692 5.18612C7.7692 5.21667 7.7692 5.23612 7.76365 5.25001C7.75809 5.2639 7.75254 5.27501 7.7442 5.28612C7.73587 5.29723 7.7192 5.30001 7.70532 5.30001C7.69143 5.30001 7.67476 5.29445 7.66087 5.28612C7.64698 5.27501 7.64143 5.26112 7.63032 5.23612L7.55532 5.29723C7.54143 5.31112 7.52476 5.32223 7.5192 5.33334C7.51643 5.3389 7.51087 5.35001 7.51087 5.3639ZM7.64143 5.1639C7.64143 5.16945 7.64143 5.16945 7.64143 5.16945V5.17501C7.64143 5.20001 7.65254 5.21945 7.66087 5.23612C7.67198 5.25001 7.68587 5.25556 7.70532 5.25556C7.7192 5.25556 7.73587 5.25001 7.7442 5.23612C7.75532 5.22501 7.75809 5.21112 7.75809 5.19167C7.75809 5.18056 7.75809 5.17223 7.75254 5.16112L7.64143 5.1639ZM7.71643 5.72501L7.69143 5.8139H7.68587V5.80834C7.68587 5.80279 7.68587 5.79723 7.68587 5.79446C7.68587 5.7889 7.68032 5.78057 7.67476 5.77501C7.6692 5.76946 7.66365 5.76112 7.65532 5.75001L7.5692 5.66112L7.50532 5.64723C7.49143 5.64168 7.48032 5.64168 7.47476 5.64168C7.4692 5.64723 7.46365 5.65279 7.46087 5.66112V5.67223H7.45532L7.48587 5.56112H7.49143V5.57223C7.48587 5.58334 7.49143 5.59168 7.49698 5.59723C7.50254 5.60279 7.50809 5.60834 7.52198 5.60834L7.58309 5.62223L7.71365 5.57779C7.72754 5.57223 7.73865 5.56668 7.7442 5.56668C7.74976 5.56668 7.75532 5.56112 7.75809 5.55279C7.75809 5.55279 7.76365 5.54723 7.76365 5.54168H7.7692L7.73865 5.65557H7.73309V5.65001C7.73309 5.64445 7.73309 5.6389 7.73309 5.63057C7.73309 5.62501 7.72754 5.61945 7.72198 5.61945C7.71643 5.61945 7.70809 5.61945 7.69143 5.62501L7.59143 5.66112L7.66087 5.73612C7.67198 5.74723 7.68032 5.75001 7.68587 5.75557C7.69143 5.75557 7.69143 5.75557 7.69698 5.75557C7.70254 5.75557 7.70254 5.75001 7.70809 5.75001C7.71365 5.74446 7.71365 5.7389 7.71365 5.73612L7.71643 5.72501Z" fill="black"/>
<path d="M7.10535 5.51126C7.13035 5.5057 7.17479 5.51126 7.17479 5.51126C7.17479 5.51126 7.18035 5.5307 7.16368 5.53626C7.17757 5.54182 7.22479 5.54182 7.22479 5.54182C7.22479 5.54182 7.20535 5.55571 7.19979 5.56126C7.21368 5.56126 7.2359 5.58626 7.2359 5.58626C7.2359 5.58626 7.19701 5.59182 7.18035 5.58071C7.19146 5.60015 7.19146 5.6196 7.19146 5.6196C7.19146 5.6196 7.13035 5.60571 7.10535 5.56404" fill="#96877D"/>
<path d="M7.19979 5.62009H7.19424C7.18868 5.62009 7.13035 5.6062 7.10535 5.55897L7.11646 5.55342C7.13035 5.58397 7.17757 5.59786 7.19146 5.60342C7.19146 5.59786 7.19146 5.58397 7.18035 5.57286L7.17479 5.55897L7.18868 5.57008C7.19979 5.57564 7.21924 5.57564 7.22757 5.57564C7.22201 5.57008 7.20812 5.56175 7.20257 5.56175H7.19146L7.20535 5.55064C7.2109 5.55064 7.21646 5.54508 7.21924 5.53953C7.20535 5.53953 7.18312 5.53953 7.17479 5.53397L7.16368 5.52842L7.17479 5.52286C7.18035 5.51731 7.18035 5.51175 7.18035 5.50897C7.16924 5.50897 7.1359 5.50342 7.11646 5.50897V5.50064C7.14146 5.49508 7.1859 5.50064 7.1859 5.50064H7.19146V5.50619C7.19146 5.50619 7.19701 5.52008 7.1859 5.53119C7.19979 5.53675 7.22201 5.53675 7.2359 5.53119H7.24979L7.2359 5.54231C7.2359 5.54231 7.22479 5.54786 7.21646 5.5562C7.23035 5.56175 7.24701 5.57564 7.24701 5.57564L7.25257 5.5812H7.24146C7.24146 5.5812 7.2109 5.58675 7.19701 5.5812C7.20257 5.59509 7.20257 5.61175 7.20257 5.61175V5.62009H7.19979Z" fill="black"/>
<path d="M7.00525 5.47501C6.99136 5.51113 6.88025 5.44446 6.88025 5.44446C6.88025 5.44446 6.93025 5.51946 6.99969 5.53057" fill="#96877D"/>
<path d="M7 5.53561C6.925 5.5245 6.875 5.4495 6.875 5.44672L6.88056 5.44116C6.90556 5.45505 6.96667 5.49116 6.99167 5.48005C6.99722 5.48005 6.99722 5.4745 6.99722 5.4745L7.00833 5.48005C7.00278 5.48561 7.00278 5.49116 6.99444 5.49394C6.96944 5.50505 6.925 5.48005 6.9 5.46338C6.91944 5.48838 6.95556 5.5245 7.00556 5.52727L7 5.53561Z" fill="black"/>
<path d="M5.62498 6.18623H6.91942L7.01942 6.10568L6.85553 6.01679L6.59998 5.93068L6.49998 5.87512L6.31109 5.88623L6.14998 5.97234L5.93053 5.99734L5.88053 6.05846L5.71942 6.07234L5.46387 6.06679L5.88887 6.13068L5.53887 6.11123L5.62498 6.18623Z" fill="#96877D"/>
<path d="M6.91936 6.18938H5.61936L5.51936 6.10049L5.78325 6.11438L5.45825 6.06438V6.05605L5.71381 6.0616L5.87492 6.04771L5.92492 5.9866L6.13881 5.9616L6.29992 5.87549L6.48881 5.86438L6.58881 5.91994L6.84436 6.00605L7.01936 6.10049L6.91936 6.18938ZM5.62492 6.18105H6.91381L7.00825 6.10605L6.84714 6.01994L6.59158 5.93382L6.49159 5.87827L6.30547 5.88938L6.14436 5.97549L5.93047 6.00049L5.88047 6.0616L5.71936 6.07549L5.53881 6.06994L5.88881 6.12549V6.1366L5.5527 6.12271L5.62492 6.18105Z" fill="black"/>
<path d="M6.31925 5.81085C6.15814 5.72474 6.10814 5.93585 6.0387 5.99141C6.13314 6.0053 6.20258 5.92197 6.28314 5.87752C6.34425 6.04141 6.44425 5.93308 6.44425 5.93308C6.44425 5.93308 6.54425 6.09419 6.68036 6.01919C6.71647 6.04974 6.75536 6.02474 6.75536 6.02474C6.75536 6.02474 6.80536 6.03585 6.81647 6.01085C6.84147 6.02197 6.87202 5.98585 6.87202 5.98585C6.87202 5.98585 6.92758 5.98585 6.93591 5.9553C7.02202 5.96919 7.1248 5.78585 7.1248 5.78585L7.16091 5.72196L7.21091 5.71085C7.21091 5.71085 7.21647 5.6803 7.18591 5.6803C7.18591 5.66085 7.17202 5.64974 7.14702 5.6553C7.15258 5.64419 7.13313 5.63585 7.13313 5.63585C7.08869 5.64696 7.08313 5.76641 7.08313 5.76641C7.08313 5.76641 7.00258 5.82752 6.97202 5.84141C6.97202 5.77752 6.85814 5.68585 6.88313 5.64141C6.90813 5.59696 6.97758 5.7053 7.04425 5.68585C7.11091 5.66641 7.13869 5.58585 7.13869 5.52196C7.11924 5.47752 7.07758 5.40807 7.07758 5.40807L7.03869 5.40252L7.00258 5.31641C7.00258 5.31641 6.92758 5.36641 6.92758 5.4053C6.92758 5.44974 7.00813 5.48585 7.00813 5.48585C7.00813 5.48585 6.96369 5.51641 6.92202 5.49974C6.91647 5.54419 6.97202 5.53585 6.99147 5.53585C7.00258 5.56641 7.03036 5.58585 7.03036 5.58585C7.03036 5.58585 7.0498 5.63585 6.9998 5.6303C6.9498 5.62474 6.88869 5.51085 6.81925 5.56641C6.74425 5.62196 6.85536 5.72752 6.85536 5.72752C6.85536 5.72752 6.79147 5.76363 6.7498 5.85252C6.59147 5.71363 6.4998 5.77474 6.31925 5.81085Z" fill="#96877D"/>
<path d="M6.61095 6.04428C6.52484 6.04428 6.46095 5.96372 6.44706 5.93872C6.43595 5.94983 6.40262 5.97761 6.36651 5.96928C6.33595 5.96372 6.3054 5.93317 6.28595 5.88039C6.26651 5.8915 6.24151 5.91095 6.22206 5.92483C6.16651 5.96372 6.11095 6.00539 6.04151 5.99428H6.0304L6.04151 5.98872C6.06095 5.97483 6.0804 5.94428 6.09706 5.91372C6.14706 5.83872 6.20817 5.74428 6.32206 5.80817C6.35262 5.80261 6.38317 5.79428 6.41095 5.78872C6.53039 5.75817 6.62206 5.73317 6.74984 5.84428C6.78595 5.77483 6.83039 5.73872 6.84984 5.73039C6.83595 5.7165 6.78873 5.6665 6.79428 5.61928C6.79428 5.59983 6.80539 5.58317 6.82484 5.56928C6.87484 5.53317 6.91373 5.56928 6.94984 5.59983C6.96928 5.61372 6.98873 5.63594 7.00539 5.63594C7.01928 5.63594 7.02484 5.63594 7.03039 5.63039C7.03595 5.61928 7.03595 5.61094 7.03039 5.59983C7.02484 5.59428 6.99984 5.58039 6.99151 5.55539H6.98595C6.96651 5.55539 6.94151 5.55539 6.92484 5.5415C6.91928 5.53594 6.91373 5.52761 6.91373 5.51094V5.50539H6.91928C6.94984 5.5165 6.98039 5.49983 6.99428 5.49428C6.97484 5.48317 6.92484 5.45539 6.91928 5.41372C6.91928 5.36928 6.99428 5.31928 6.99428 5.31928L6.99984 5.31372L7.03595 5.40261L7.07484 5.40817C7.07484 5.41372 7.11928 5.48317 7.13595 5.52205C7.13039 5.5915 7.09984 5.67206 7.03595 5.6915C6.99984 5.70261 6.96651 5.67761 6.93595 5.65539C6.91651 5.6415 6.89984 5.63039 6.88595 5.63594C6.88595 5.63594 6.88039 5.63594 6.87484 5.6415C6.86373 5.66094 6.88873 5.69706 6.91373 5.73039C6.93873 5.7665 6.95817 5.79983 6.96373 5.83039C6.99428 5.81094 7.05262 5.76928 7.06373 5.76094C7.06373 5.7415 7.06928 5.6415 7.11373 5.63039C7.11928 5.63594 7.12762 5.6415 7.12762 5.64983C7.13873 5.64983 7.14706 5.64983 7.15817 5.66094C7.16373 5.6665 7.16928 5.67206 7.16928 5.68039C7.17484 5.68039 7.18039 5.68594 7.18317 5.68594C7.19428 5.69706 7.19428 5.7165 7.19428 5.7165V5.72206L7.14428 5.73317L7.11373 5.79428C7.10817 5.80539 7.00817 5.96928 6.92762 5.96928H6.92206C6.90817 5.99428 6.86651 5.99428 6.85817 5.99983C6.85262 6.00539 6.82762 6.03039 6.80262 6.02483C6.78873 6.04428 6.75262 6.03872 6.74151 6.03595C6.73039 6.0415 6.69706 6.05539 6.66095 6.03595C6.65539 6.03872 6.63039 6.04428 6.61095 6.04428ZM6.44428 5.92483L6.44984 5.93039C6.4554 5.93595 6.54984 6.08595 6.68039 6.0165H6.68595H6.69151C6.72762 6.0415 6.76095 6.02206 6.76095 6.0165C6.77484 6.0165 6.80539 6.02206 6.81651 6.00539V5.99983H6.82206C6.84151 6.01095 6.87206 5.98039 6.87206 5.98039C6.87206 5.98039 6.92206 5.98039 6.93317 5.95539V5.94983H6.93873C6.94428 5.94983 6.94428 5.94983 6.94984 5.94983C7.02484 5.94983 7.12484 5.78594 7.13039 5.78594L7.16651 5.72206L7.21095 5.71094C7.21095 5.70539 7.21095 5.69706 7.20539 5.69706C7.19984 5.6915 7.19984 5.6915 7.19428 5.6915H7.18873V5.68594C7.18873 5.68039 7.18317 5.67483 7.18317 5.67206C7.17762 5.6665 7.16928 5.6665 7.15262 5.6665H7.14151L7.14706 5.65539C7.14706 5.64983 7.14151 5.64428 7.13595 5.6415C7.09984 5.65261 7.09706 5.73039 7.09151 5.7665C7.08595 5.77206 7.01095 5.82761 6.98039 5.8415L6.97484 5.84706V5.83595C6.97484 5.80539 6.94984 5.77206 6.92484 5.73594C6.89984 5.69706 6.86928 5.66094 6.88595 5.63594C6.89151 5.63039 6.89706 5.62483 6.89984 5.62483C6.91373 5.61928 6.93595 5.63594 6.95539 5.64983C6.98595 5.66928 7.01651 5.68872 7.04428 5.68039C7.09984 5.66094 7.13317 5.58594 7.13873 5.51928C7.12484 5.48039 7.08873 5.41928 7.07762 5.40817L7.03873 5.40261L7.00262 5.3165C6.98873 5.32761 6.93317 5.3665 6.93873 5.40261C6.93873 5.4415 7.01373 5.47761 7.01373 5.47761L7.02484 5.48317L7.01373 5.48872C7.01373 5.48872 6.96928 5.51372 6.92762 5.50817C6.92762 5.51372 6.92762 5.51928 6.93317 5.52205C6.94428 5.53317 6.96928 5.53317 6.98317 5.53317C6.98873 5.53317 6.99428 5.53317 6.99428 5.53317H6.99984V5.53872C7.01095 5.56928 7.03873 5.58317 7.03873 5.58317C7.03873 5.58317 7.04984 5.60817 7.03873 5.62205C7.03317 5.63317 7.01928 5.63594 7.00262 5.63317C6.98317 5.63317 6.96373 5.61372 6.94151 5.59706C6.90539 5.5665 6.86651 5.53594 6.82762 5.5665C6.81373 5.57761 6.80262 5.5915 6.80262 5.61094C6.79706 5.66094 6.85817 5.72206 6.86373 5.72206L6.86928 5.72761L6.86373 5.73317C6.86373 5.73317 6.79984 5.76928 6.75817 5.85261L6.75262 5.85817L6.74706 5.85261C6.61651 5.7415 6.53595 5.7665 6.41095 5.79706C6.38039 5.80261 6.34984 5.81094 6.32206 5.8165C6.21095 5.75539 6.15817 5.8415 6.10817 5.9165C6.09428 5.9415 6.07206 5.9665 6.05817 5.98595C6.11928 5.9915 6.16928 5.95539 6.21928 5.9165C6.24428 5.90261 6.26373 5.88039 6.28873 5.8665L6.29428 5.86094V5.8665C6.31373 5.92206 6.33873 5.94706 6.36928 5.95539C6.41095 5.96372 6.44428 5.92483 6.44428 5.92483Z" fill="black"/>
<path d="M6.09176 5.58538C6.15565 5.64927 6.1112 5.74927 6.1362 5.77149C6.16676 5.79094 6.20009 5.76038 6.20009 5.76038C6.26954 5.77982 6.39454 5.74093 6.39454 5.74093C6.45009 5.77149 6.43065 5.72705 6.45843 5.72705C6.48898 5.80205 6.58898 5.78816 6.58898 5.78816C6.58898 5.78816 6.50009 5.69927 6.44454 5.66871C6.40009 5.69371 6.27509 5.69927 6.25565 5.69371C6.23065 5.68816 6.24454 5.6576 6.2362 5.64371C6.28065 5.59927 6.24731 5.48816 6.22231 5.44927C6.11676 5.37982 5.99454 5.49371 6.09176 5.58538Z" fill="#96877D"/>
<path d="M6.57487 5.79484C6.54432 5.79484 6.48598 5.78928 6.46098 5.73372C6.44987 5.73372 6.44987 5.73928 6.44709 5.74484C6.43598 5.75595 6.4332 5.76428 6.39709 5.75039C6.3832 5.75595 6.27209 5.7865 6.20265 5.76984C6.19154 5.77539 6.1582 5.80039 6.1332 5.78095C6.12209 5.76984 6.12209 5.75039 6.12209 5.72539C6.12209 5.6865 6.12765 5.63095 6.08598 5.59484C6.03598 5.55039 6.04709 5.50039 6.07209 5.46984C6.10265 5.43095 6.16654 5.40873 6.22209 5.45039C6.24709 5.49484 6.2832 5.60595 6.23598 5.65039C6.24154 5.65595 6.24154 5.66428 6.24154 5.67539C6.24154 5.68928 6.24154 5.69484 6.25265 5.69484C6.27209 5.70039 6.39709 5.69484 6.43876 5.66984C6.49432 5.69484 6.5832 5.78372 6.58876 5.78928L6.59432 5.79484H6.58043C6.59154 5.79484 6.58598 5.79484 6.57487 5.79484ZM6.46098 5.71984H6.46654V5.72539C6.48598 5.78095 6.55265 5.7865 6.57765 5.7865C6.55265 5.76706 6.48876 5.70039 6.44154 5.67539C6.39709 5.70039 6.27209 5.70595 6.25265 5.70039C6.2332 5.69484 6.2332 5.68095 6.2332 5.66984C6.2332 5.65873 6.2332 5.65595 6.22765 5.65039V5.64484L6.2332 5.63928C6.27765 5.59484 6.23876 5.48928 6.21932 5.45039C6.16376 5.41428 6.1082 5.4365 6.08043 5.46428C6.06098 5.48928 6.04987 5.53373 6.09432 5.57539C6.13876 5.61428 6.1332 5.66984 6.1332 5.71428C6.1332 5.73928 6.1332 5.75872 6.13876 5.76428C6.16376 5.78372 6.19987 5.75317 6.19987 5.75317C6.26932 5.77261 6.38876 5.73372 6.38876 5.73372C6.41932 5.74761 6.41932 5.74484 6.42765 5.73372C6.44154 5.73095 6.44432 5.71984 6.46098 5.71984Z" fill="black"/>
<path d="M5.64447 5.39463C5.55836 5.41963 5.41391 5.28352 5.35002 5.33352C5.28613 5.38352 5.31391 5.50852 5.36113 5.56963C5.40558 5.63074 5.29725 5.65018 5.26669 5.68907C5.23613 5.72518 5.2778 5.75852 5.2778 5.75852L5.30836 5.77796L5.3028 5.8224L5.31669 5.87796C5.31669 5.87796 5.33058 5.89185 5.33613 5.8724C5.35002 5.88629 5.33613 5.92796 5.37225 5.93351C5.36113 5.90851 5.38336 5.83351 5.38336 5.83351C5.38336 5.83351 5.44447 5.83907 5.45836 5.81407C5.47225 5.78907 5.44447 5.72796 5.44447 5.72796H5.46391C5.44447 5.71407 5.43891 5.6724 5.43891 5.6724C5.43891 5.6724 5.52502 5.64741 5.52502 5.58352C5.52502 5.51963 5.38891 5.45296 5.43891 5.41963C5.49447 5.38352 5.58891 5.51407 5.67502 5.45574C5.75558 5.39463 5.70558 5.45574 5.70558 5.45574C5.70558 5.45574 5.73058 5.37519 5.64447 5.39463Z" fill="#96877D"/>
<path d="M5.38037 5.94456H5.36926C5.34426 5.939 5.3387 5.91956 5.3387 5.90567C5.3387 5.90012 5.3387 5.89456 5.33315 5.89178L5.32759 5.89734C5.31648 5.89734 5.3137 5.89178 5.30815 5.89178L5.29426 5.83623L5.29981 5.79734L5.26926 5.77789C5.25537 5.764 5.23315 5.72789 5.25815 5.69734C5.26926 5.68623 5.2887 5.67789 5.30259 5.66123C5.32759 5.64734 5.35259 5.63067 5.35814 5.61122C5.35814 5.60011 5.35815 5.59178 5.34703 5.58067C5.29703 5.51678 5.27203 5.39178 5.33592 5.33622C5.37481 5.30567 5.43592 5.33622 5.49703 5.36122C5.54703 5.38067 5.59703 5.40567 5.63592 5.39734C5.66092 5.39178 5.68037 5.39178 5.69148 5.40289C5.69703 5.414 5.70259 5.42234 5.69703 5.43345C5.70259 5.43345 5.70259 5.43345 5.70259 5.43345C5.70259 5.439 5.70814 5.439 5.6887 5.464L5.67759 5.45845C5.67759 5.45845 5.67759 5.45289 5.68314 5.44734C5.67759 5.45289 5.66925 5.45845 5.65814 5.46122C5.60814 5.49734 5.55814 5.47234 5.5137 5.44734C5.47759 5.42789 5.44981 5.41122 5.42481 5.42789C5.41926 5.43345 5.4137 5.43345 5.4137 5.439C5.4137 5.45289 5.43314 5.47511 5.45259 5.50011C5.47759 5.53067 5.50814 5.56122 5.5137 5.589C5.5137 5.65011 5.44981 5.67511 5.42759 5.68345C5.42759 5.69456 5.4387 5.72234 5.45259 5.73345L5.46648 5.74456H5.44148C5.45259 5.75845 5.46648 5.80567 5.45259 5.82511C5.4387 5.85011 5.39148 5.85011 5.37759 5.85011C5.37203 5.86956 5.3637 5.91956 5.36648 5.939L5.38037 5.94456ZM5.33037 5.86956L5.33592 5.87511C5.34148 5.88067 5.34703 5.889 5.34703 5.90011C5.35259 5.914 5.35259 5.92512 5.36092 5.93067C5.35537 5.90011 5.37203 5.84178 5.37203 5.84178V5.83623H5.37759C5.39148 5.83623 5.4387 5.83623 5.44703 5.81678C5.45537 5.79734 5.44148 5.75289 5.43314 5.73623L5.42759 5.73067H5.44148C5.42759 5.71123 5.42203 5.68067 5.42203 5.68067V5.67511H5.42759C5.42759 5.67511 5.50814 5.65011 5.50814 5.589C5.50814 5.55845 5.47759 5.52789 5.45259 5.50289C5.42759 5.47789 5.40814 5.45845 5.40814 5.439C5.40814 5.42789 5.4137 5.42511 5.42203 5.41956C5.44703 5.40011 5.48314 5.41956 5.52203 5.439C5.56648 5.464 5.61092 5.489 5.65814 5.45289C5.67203 5.44178 5.68314 5.43345 5.69425 5.42789C5.69425 5.41678 5.69425 5.40845 5.6887 5.39734C5.67759 5.38622 5.65814 5.39178 5.64981 5.39178C5.61092 5.40289 5.55537 5.38067 5.50537 5.35567C5.44981 5.33067 5.39148 5.30567 5.35537 5.33067C5.29148 5.37511 5.31926 5.49456 5.36648 5.56122C5.37759 5.57511 5.38037 5.58622 5.37759 5.59734C5.37203 5.62234 5.34148 5.63622 5.31648 5.65289C5.29703 5.664 5.28037 5.67234 5.27203 5.68345C5.24703 5.714 5.28315 5.74734 5.28315 5.74734L5.31926 5.76678L5.3137 5.81123L5.32759 5.86123L5.33315 5.86678L5.3387 5.86123L5.33037 5.86956Z" fill="black"/>
<path d="M6.08043 4.49865C5.96932 4.45421 5.74155 4.44865 5.61099 4.38477C5.55544 4.39032 5.53044 4.43477 5.52488 4.44865C5.46377 4.4431 5.42488 4.53754 5.436 4.55977C5.33044 4.51532 5.28044 4.68477 5.31655 4.72088C5.22766 4.72643 5.236 4.84032 5.22766 4.87088C5.19711 4.94032 5.23322 4.96532 5.29155 4.94032C5.30266 4.97088 5.286 4.99032 5.261 4.99588C5.42211 5.17643 5.50544 4.88477 5.6471 4.88477C5.8221 4.83477 5.88599 4.74866 5.88599 4.74866L5.95544 4.75977L6.08043 4.49865Z" fill="#96877D"/>
<path d="M5.36094 5.06132C5.32205 5.06132 5.2915 5.04188 5.25538 5.00021L5.24983 4.99465H5.26094C5.27205 4.9891 5.28038 4.98354 5.28594 4.98076C5.2915 4.97521 5.2915 4.96688 5.2915 4.95576C5.26094 4.96688 5.2415 4.96688 5.22761 4.95576C5.2165 4.94465 5.20816 4.92521 5.22761 4.88076C5.22761 4.87521 5.22761 4.86688 5.23316 4.85576C5.23872 4.81132 5.24427 4.73632 5.31372 4.72521C5.29983 4.70021 5.30816 4.64465 5.33316 4.60576C5.35816 4.56688 5.39705 4.55021 5.43872 4.56688C5.43872 4.55299 5.44983 4.52799 5.46372 4.50576C5.47483 4.49188 5.49983 4.46132 5.53316 4.46132C5.53872 4.44188 5.56372 4.40021 5.61927 4.39743C5.68872 4.43354 5.78872 4.44743 5.88316 4.46132C5.96372 4.47521 6.03872 4.48632 6.08872 4.50576H6.09427V4.51132L5.96927 4.77243L5.89983 4.76132C5.88872 4.77521 5.81927 4.85021 5.66094 4.89743C5.61094 4.89743 5.56649 4.94188 5.52205 4.98354C5.46094 5.0141 5.4165 5.06132 5.36094 5.06132ZM5.26927 4.99465C5.29983 5.03076 5.33038 5.04465 5.35816 5.04465H5.36372C5.41372 5.04465 5.45261 5.00576 5.49983 4.9641C5.54427 4.91965 5.59427 4.87799 5.64983 4.87799C5.81927 4.82799 5.88594 4.74188 5.88872 4.74188L5.95261 4.75299L6.07205 4.50299C6.02205 4.48354 5.95261 4.47243 5.87761 4.45854C5.78316 4.44465 5.68316 4.42799 5.61372 4.39465C5.55816 4.40021 5.53872 4.4391 5.53872 4.45576V4.46132H5.53316C5.50261 4.46132 5.47761 4.48632 5.46927 4.50021C5.45538 4.52521 5.44427 4.55021 5.44983 4.56132L5.45538 4.57243L5.44427 4.56688C5.39427 4.54743 5.35816 4.58076 5.34427 4.60299C5.31372 4.64743 5.30816 4.70299 5.33038 4.71688L5.3415 4.72799H5.33038C5.26094 4.73354 5.25538 4.80299 5.24983 4.84743C5.24983 4.85854 5.24983 4.86688 5.24427 4.87799C5.23038 4.90854 5.23038 4.93354 5.24427 4.94188C5.25538 4.95299 5.27483 4.95299 5.30538 4.94188H5.31094V4.94743C5.3165 4.96132 5.3165 4.97799 5.31094 4.98632C5.28594 4.98632 5.28038 4.99465 5.26927 4.99465Z" fill="black"/>
<path d="M6.21943 4.53298C6.30994 4.53298 6.38332 4.4596 6.38332 4.36909C6.38332 4.27858 6.30994 4.2052 6.21943 4.2052C6.12892 4.2052 6.05554 4.27858 6.05554 4.36909C6.05554 4.4596 6.12892 4.53298 6.21943 4.53298Z" fill="#96877D"/>
<path d="M6.21937 4.53933C6.12493 4.53933 6.04993 4.46433 6.04993 4.36988C6.04993 4.27544 6.12493 4.20044 6.21937 4.20044C6.31382 4.20044 6.38882 4.27544 6.38882 4.36988C6.3916 4.46433 6.3166 4.53933 6.21937 4.53933ZM6.21937 4.21155C6.13048 4.21155 6.05826 4.281 6.05826 4.37266C6.05826 4.46155 6.12771 4.53377 6.21937 4.53377C6.30826 4.53377 6.38049 4.46433 6.38049 4.37266C6.38049 4.281 6.31104 4.21155 6.21937 4.21155Z" fill="black"/>
<path d="M5.93037 5.66887C5.83037 5.64943 5.66092 5.54387 5.64148 5.40498C5.73592 5.02998 6.23037 5.22443 6.27204 4.94387C6.26092 4.75776 6.29148 4.57443 6.39704 4.41887C6.44704 4.35776 6.50815 4.34387 6.50815 4.34387C6.50815 4.34387 6.51926 4.38276 6.50259 4.40776C6.58315 4.39665 6.69704 4.44387 6.77204 4.44665C6.79148 4.49109 6.79148 4.50776 6.78592 4.53554C6.78037 4.56332 6.74981 4.55498 6.74981 4.55498C6.73037 4.57443 6.70537 4.59387 6.65537 4.58554C6.61648 4.61609 6.53037 4.62443 6.53037 4.62443C6.53037 4.62443 6.71093 4.81332 6.68037 4.86887C6.71648 4.88276 6.76926 4.96887 6.76926 4.96887C6.76926 4.96887 6.8887 4.90498 6.93037 4.84387C6.99981 4.84387 7.11648 4.91887 7.17481 4.92443C7.24426 4.97998 7.3137 5.03832 7.3137 5.03832C7.3137 5.03832 7.22759 5.09387 7.19426 5.01887C7.14981 5.02443 7.05537 4.91887 6.92481 4.94943C6.91926 5.06332 6.7887 5.14943 6.7887 5.14943C6.7887 5.14943 6.90815 5.13554 6.97481 5.17443C7.04426 5.23554 7.14426 5.31054 7.14426 5.31054L7.23315 5.4661C7.23315 5.4661 7.15259 5.47998 7.11926 5.37721C7.0887 5.46332 7.0887 5.32165 6.9637 5.25776C6.92759 5.26332 6.90815 5.26332 6.87759 5.23832C6.7887 5.26332 6.6887 5.31332 6.5637 5.29943C6.47481 5.32998 6.4137 5.39943 6.32481 5.43832C6.23592 5.47721 6.21092 5.45776 6.21092 5.45776L6.14148 5.46332C6.13037 5.50776 6.13592 5.57443 6.09704 5.58276C6.12204 5.60776 6.07759 5.72165 6.03592 5.74387C6.05537 5.81887 6.11648 5.83832 6.18037 5.87998C6.18037 5.87998 6.23592 5.85498 6.26926 5.8911C6.30537 5.92721 6.34426 6.02165 6.34426 6.02165C6.34426 6.02165 6.26926 6.02721 6.24426 6.0161C6.21926 6.00498 6.21926 5.97998 6.1887 5.98554C6.0137 5.82998 5.92481 5.8911 5.90815 5.85498C5.89148 5.82443 5.94981 5.72998 5.93037 5.66887Z" fill="#96877D"/>
<path d="M6.30531 6.03035C6.28031 6.03035 6.25531 6.03035 6.2442 6.0248C6.23309 6.01924 6.23031 6.01369 6.2192 6.01091C6.20809 5.9998 6.20531 5.99702 6.18864 5.9998H6.18309C6.0692 5.8998 5.9942 5.88869 5.9442 5.88869C5.9192 5.88869 5.90531 5.88313 5.89975 5.8748C5.88864 5.85535 5.89975 5.8248 5.91086 5.78869C5.92198 5.75257 5.93031 5.71369 5.92475 5.68313C5.81364 5.66369 5.64975 5.54702 5.63586 5.41369C5.68586 5.21369 5.85531 5.1748 5.99975 5.13869C6.13031 5.10813 6.2442 5.08313 6.26364 4.95257C6.25253 4.74702 6.2942 4.56646 6.38864 4.42202C6.43864 4.36091 6.49975 4.34146 6.50253 4.34146H6.50809V4.34702C6.50809 4.34702 6.5192 4.38313 6.50809 4.40813C6.55253 4.40257 6.60809 4.41924 6.66364 4.42757C6.70253 4.43869 6.73864 4.44702 6.7692 4.44702H6.77475V4.45257C6.79975 4.49702 6.7942 4.51646 6.78864 4.54702C6.78864 4.55813 6.78309 4.56091 6.77475 4.56646C6.76642 4.57202 6.75531 4.57202 6.74975 4.57202C6.73031 4.59146 6.70531 4.60813 6.64975 4.60257C6.61364 4.62757 6.56086 4.63869 6.53586 4.63869C6.57198 4.67757 6.69975 4.81924 6.68031 4.87757C6.71642 4.89702 6.75531 4.95813 6.76642 4.97202C6.78586 4.96091 6.88586 4.90257 6.92198 4.85257H6.92753C6.96642 4.85257 7.02753 4.87757 7.07753 4.89702C7.11364 4.91091 7.14698 4.92757 7.17198 4.93313C7.24142 4.98869 7.31086 5.04702 7.31086 5.04702L7.31642 5.05257L7.31086 5.05813C7.31086 5.05813 7.26642 5.08869 7.22475 5.07757C7.20531 5.07202 7.1942 5.06369 7.18586 5.04146C7.17198 5.04146 7.14975 5.03035 7.12475 5.01646C7.07475 4.99146 7.00531 4.95257 6.92475 4.97202C6.9192 5.06646 6.83864 5.13313 6.80531 5.16091C6.84142 5.15535 6.92475 5.15535 6.97475 5.18591C7.0442 5.24146 7.1442 5.32202 7.1442 5.32202L7.23864 5.48313H7.23309C7.23309 5.48313 7.15253 5.49424 7.1192 5.40257C7.11364 5.41369 7.10809 5.41646 7.10531 5.41646C7.0942 5.41646 7.08586 5.40535 7.07475 5.38591C7.05531 5.35535 7.02475 5.30535 6.96364 5.27202C6.92753 5.27757 6.90809 5.27757 6.87753 5.25257C6.85809 5.25813 6.83864 5.26369 6.81364 5.27202C6.73864 5.29702 6.65809 5.32202 6.56364 5.31091C6.5192 5.3248 6.47753 5.35535 6.43309 5.38591C6.39698 5.41091 6.36364 5.43591 6.32198 5.4498C6.24142 5.48591 6.21086 5.4748 6.20253 5.46924H6.13864C6.13864 5.48035 6.13309 5.48869 6.13309 5.50535C6.12753 5.54146 6.12198 5.5748 6.09698 5.59146C6.10253 5.60535 6.10253 5.62757 6.09698 5.64146C6.08586 5.68035 6.06086 5.73591 6.03309 5.75535C6.05253 5.81646 6.0942 5.83591 6.1442 5.86646C6.15531 5.87202 6.15809 5.87757 6.1692 5.88035C6.18031 5.8748 6.23031 5.86091 6.26364 5.89146C6.29975 5.92757 6.33864 6.01646 6.33864 6.02202L6.3442 6.02757H6.33864C6.3442 6.0248 6.32475 6.03035 6.30531 6.03035ZM6.19975 5.98035C6.21364 5.98035 6.2192 5.99146 6.23031 5.99424C6.23586 5.9998 6.24142 6.00535 6.24975 6.00813C6.2692 6.01924 6.3192 6.01369 6.33864 6.01369C6.32753 5.99424 6.29975 5.91924 6.2692 5.89424C6.23309 5.86369 6.18309 5.88869 6.18309 5.88869C6.17198 5.88313 6.16364 5.87757 6.15253 5.8748C6.10253 5.84424 6.05253 5.81924 6.03309 5.75535V5.7498H6.03864C6.06364 5.73869 6.0942 5.68591 6.10253 5.63869C6.10809 5.61924 6.10809 5.5998 6.09698 5.59424L6.09142 5.58869H6.10253C6.12753 5.58313 6.13309 5.54424 6.13864 5.50813C6.13864 5.49424 6.1442 5.48313 6.1442 5.46924V5.46369L6.2192 5.45813C6.2192 5.45813 6.2442 5.47202 6.33031 5.43869C6.3692 5.41924 6.40531 5.3998 6.44142 5.3748C6.48586 5.34424 6.52753 5.31369 6.57753 5.2998C6.67198 5.31091 6.75253 5.28591 6.82753 5.26091C6.85253 5.2498 6.87198 5.24702 6.89142 5.24146C6.92198 5.26646 6.93586 5.26091 6.97198 5.25535H6.97753C7.03864 5.29146 7.07198 5.34146 7.09142 5.36924C7.10253 5.38313 7.10531 5.39424 7.11086 5.39424C7.11086 5.39424 7.11642 5.39424 7.12475 5.36924L7.13031 5.35535L7.13586 5.36924C7.16086 5.4498 7.21642 5.45813 7.23586 5.45813L7.14975 5.31369C7.13864 5.30813 7.0442 5.23313 6.98031 5.17757C6.91642 5.13869 6.79975 5.15813 6.7942 5.15813L6.78864 5.14702C6.78864 5.14702 6.91364 5.06091 6.9192 4.95257V4.94702H6.92475C7.01364 4.92757 7.08586 4.96091 7.13864 4.99146C7.16364 5.00535 7.18309 5.01646 7.19975 5.01646H7.20531V5.02202C7.21642 5.04146 7.22475 5.05257 7.24142 5.05813C7.26642 5.06369 7.29698 5.05257 7.31086 5.04424C7.29142 5.03035 7.23586 4.98035 7.17475 4.93313C7.14975 4.92757 7.11364 4.91369 7.08031 4.89702C7.03031 4.87757 6.98031 4.85257 6.94142 4.85257C6.90253 4.91369 6.78586 4.97202 6.78031 4.97202H6.77475L6.7692 4.96646C6.7692 4.96646 6.71364 4.88591 6.68031 4.86646H6.67475V4.86091C6.69975 4.81646 6.57475 4.67202 6.52475 4.62202L6.5192 4.61091H6.53031C6.53031 4.61091 6.61642 4.5998 6.65531 4.5748C6.70531 4.58591 6.72475 4.56924 6.74975 4.5498H6.75531C6.75531 4.5498 6.7692 4.55535 6.77475 4.54424C6.78031 4.53869 6.78031 4.53869 6.78586 4.53035C6.79142 4.50535 6.79142 4.49146 6.77198 4.44424C6.74142 4.44424 6.70809 4.43313 6.66642 4.4248C6.61086 4.41091 6.55253 4.3998 6.50531 4.40535H6.4942L6.49975 4.39424C6.51086 4.3748 6.51086 4.3498 6.50531 4.33313C6.49142 4.33869 6.44142 4.35813 6.40531 4.40813C6.31086 4.54702 6.2692 4.72757 6.28031 4.92757C6.26086 5.06369 6.13586 5.09146 6.01086 5.12202C5.86642 5.15813 5.69975 5.19146 5.64975 5.38591C5.66364 5.51646 5.82475 5.6248 5.93586 5.64702V5.65257H5.94142L5.95253 5.66369H5.94142C5.94698 5.69424 5.93586 5.73313 5.92753 5.76924C5.91642 5.7998 5.90809 5.83035 5.91642 5.84424C5.92198 5.85535 5.93031 5.85535 5.95253 5.85535C5.99698 5.86091 6.07753 5.86646 6.19142 5.96924C6.1942 5.98035 6.1942 5.98035 6.19975 5.98035Z" fill="black"/>
<path d="M5.51643 4.98527C5.52754 4.97416 5.58588 4.99916 5.58588 4.99916L5.69977 5.0686L5.93588 5.2186L6.02199 5.33805L5.87199 5.28805L5.66088 5.10749L5.54977 5.03805C5.54977 5.03805 5.50532 4.9936 5.51643 4.98527Z" fill="#96877D"/>
<path d="M6.03598 5.35018L5.87209 5.29462L5.66098 5.11407L5.54987 5.04462C5.53043 5.02518 5.49987 4.98907 5.51376 4.98074C5.52487 4.96685 5.57487 4.98629 5.59432 4.99185L5.7082 5.06685L5.94432 5.2224L6.03598 5.35018ZM5.87487 5.28907L6.01098 5.33351L5.93598 5.2224L5.69987 5.0724L5.58598 5.00296C5.55543 4.99185 5.52487 4.98351 5.52209 4.98907C5.52209 4.99462 5.53598 5.01407 5.5582 5.03907L5.66932 5.10851L5.87487 5.28907Z" fill="black"/>
<path d="M6.90531 5.37012C6.82476 5.35068 6.62476 5.59512 6.62476 5.59512L6.77476 5.75902C6.77476 5.75624 6.78031 5.47568 6.90531 5.37012Z" fill="#96877D"/>
<path d="M6.78034 5.76994L6.61646 5.59494L6.62201 5.58938C6.63312 5.57827 6.80812 5.36438 6.89701 5.36438C6.90257 5.36438 6.90812 5.36438 6.90812 5.36438H6.91923L6.91368 5.36994C6.78868 5.47549 6.78312 5.75049 6.78312 5.75605L6.78034 5.76994ZM6.63034 5.58938L6.76923 5.73938C6.76923 5.68382 6.78868 5.46994 6.89423 5.36994C6.81923 5.37549 6.65534 5.56438 6.63034 5.58938Z" fill="black"/>
<path d="M5.9165 4.68927C5.87205 4.74483 5.8665 4.85871 5.92761 4.90871C5.93316 4.97816 5.9915 5.11983 6.03872 5.13371C6.08872 5.1476 6.29427 5.19482 6.37483 5.18371C6.36094 5.31427 6.46094 5.41427 6.55539 5.48371C6.55539 5.49482 6.55538 5.50871 6.5665 5.5226C6.57761 5.53649 6.62761 5.53649 6.62761 5.53371C6.64705 5.56427 6.75261 5.57816 6.76372 5.56427C6.76927 5.55038 6.60816 5.43927 6.57483 5.40316C6.54427 5.3476 6.48594 5.21705 6.47483 5.11705C6.39427 5.0226 6.26094 5.0226 6.26094 5.0226L6.2665 4.83649L6.27761 4.62538L6.20261 4.58649C6.20261 4.58649 6.2165 4.58094 6.22761 4.5726C6.24705 4.58372 6.27761 4.54205 6.28316 4.53372C6.29705 4.53927 6.31927 4.53927 6.31927 4.52816C6.32483 4.51705 6.32483 4.48372 6.33038 4.46427C6.38594 4.41427 6.31927 4.30872 6.23594 4.30872C6.14983 4.30872 6.13038 4.40872 6.13594 4.41983C6.14705 4.45038 6.1415 4.46983 6.13594 4.47538C6.13038 4.48649 6.09983 4.50038 6.09983 4.50038C6.09983 4.50038 6.05538 4.48094 5.99427 4.50038C5.93316 4.51983 5.87483 4.55594 5.86927 4.58927C5.84427 4.59483 5.79983 4.62816 5.79427 4.65316C5.76927 4.6476 5.73872 4.66705 5.69427 4.7476C5.60538 4.78649 5.59983 4.97816 5.59983 4.97816C5.59983 4.97816 5.57483 5.01427 5.57483 5.03371C5.57483 5.05316 5.58594 5.06983 5.59427 5.06427C5.59427 5.07538 5.60816 5.08927 5.61927 5.08371C5.62483 5.09483 5.63872 5.10316 5.64983 5.0976C5.64983 5.10871 5.68594 5.10316 5.68872 5.0976C5.69427 5.08649 5.68316 5.0476 5.68872 5.04205C5.69427 5.03649 5.71927 5.06149 5.72761 5.05594C5.73872 5.05038 5.72761 5.03094 5.72205 5.02538C5.7165 5.01983 5.6915 5.01149 5.68594 4.98094C5.68038 4.95038 5.69983 4.91149 5.69983 4.91149C5.69983 4.91149 5.79427 4.83649 5.80538 4.7726C5.85538 4.77538 5.89427 4.71427 5.9165 4.68927Z" fill="#96877D"/>
<path d="M6.73588 5.56983C6.69977 5.56983 6.64699 5.55872 6.62199 5.53372H6.61643C6.60255 5.53927 6.56643 5.53372 6.55532 5.51983C6.54421 5.50594 6.54421 5.48927 6.54421 5.48094C6.41921 5.39205 6.35532 5.28649 6.36366 5.18649C6.27477 5.1976 6.06921 5.1476 6.0331 5.13649C5.9831 5.1226 5.92199 4.98094 5.91921 4.91149C5.87477 4.8726 5.86366 4.79205 5.88866 4.73094C5.86366 4.75594 5.8331 4.78094 5.78866 4.77538C5.77477 4.83649 5.69421 4.90594 5.6831 4.91427C5.67755 4.91983 5.66366 4.95316 5.66921 4.98372C5.67477 5.00316 5.6831 5.01427 5.69421 5.01983C5.69977 5.02538 5.69977 5.02538 5.70533 5.02538C5.71088 5.03094 5.71921 5.05594 5.71088 5.06427C5.70533 5.06983 5.69144 5.06427 5.68033 5.05872C5.67477 5.05872 5.67477 5.05316 5.66921 5.05316C5.66921 5.05872 5.66921 5.06705 5.66921 5.0726C5.66921 5.08649 5.66921 5.0976 5.66921 5.10316C5.66366 5.11427 5.64421 5.11427 5.6331 5.11427C5.62755 5.11427 5.62199 5.10872 5.62199 5.10872C5.61088 5.10872 5.59699 5.10316 5.59144 5.09483C5.58588 5.09483 5.58588 5.09483 5.58033 5.08927C5.57477 5.08372 5.56644 5.07816 5.56644 5.07538C5.56088 5.07538 5.56088 5.07538 5.55533 5.06983C5.54421 5.06427 5.54144 5.05038 5.54421 5.03372C5.54421 5.01427 5.56366 4.98372 5.56921 4.97816C5.56921 4.95872 5.58033 4.78927 5.66366 4.7476C5.70255 4.67816 5.73866 4.6476 5.76366 4.65316C5.77477 4.6226 5.81366 4.59205 5.83866 4.58927C5.84421 4.55038 5.9081 4.51983 5.96921 4.50038C6.01921 4.48094 6.06366 4.49483 6.07477 4.50038C6.08588 4.49483 6.10532 4.48094 6.10532 4.47538C6.11088 4.46983 6.11088 4.45594 6.10532 4.42538C6.10532 4.41983 6.11088 4.37538 6.13588 4.34483C6.15532 4.31983 6.18032 4.30872 6.21088 4.30872C6.26644 4.30872 6.31088 4.3476 6.32477 4.39483C6.33588 4.42538 6.33032 4.45594 6.31088 4.47538C6.30532 4.48649 6.30532 4.50038 6.29977 4.51427C6.29977 4.52538 6.29977 4.52816 6.29421 4.53372C6.29421 4.53927 6.28866 4.53927 6.2831 4.54483C6.27755 4.55038 6.26366 4.55038 6.25255 4.54483C6.24699 4.55038 6.23866 4.55872 6.2331 4.56983C6.22199 4.58094 6.2081 4.58372 6.19699 4.58372C6.19144 4.58927 6.18588 4.58927 6.1831 4.59483L6.25255 4.63094L6.24144 4.84483L6.23588 5.02538C6.26088 5.02538 6.38032 5.03649 6.44977 5.11983C6.46366 5.21983 6.51921 5.34483 6.54977 5.40594C6.56366 5.41983 6.59421 5.44205 6.63032 5.46705C6.73032 5.54205 6.74977 5.56149 6.74421 5.57261C6.73866 5.57816 6.7331 5.57816 6.72477 5.58372C6.73588 5.56983 6.73588 5.56983 6.73588 5.56983ZM6.61921 5.51427L6.62477 5.52538C6.63866 5.54483 6.68588 5.55594 6.71921 5.56149C6.73866 5.56149 6.74421 5.56149 6.74977 5.56149C6.74421 5.5476 6.68032 5.50038 6.63866 5.4726C6.60255 5.4476 6.57477 5.4226 6.5581 5.40872C6.52755 5.3476 6.46921 5.2226 6.45255 5.1226C6.37199 5.03372 6.24144 5.03372 6.24144 5.03372H6.23588L6.24144 4.84483L6.25255 4.63927L6.17199 4.60038L6.1831 4.59483C6.1831 4.59483 6.19699 4.58927 6.20255 4.58094V4.57538H6.2081C6.21366 4.57538 6.22199 4.57538 6.23866 4.56427C6.24977 4.55316 6.2581 4.54483 6.2581 4.53927V4.53372H6.26366C6.27477 4.53927 6.2831 4.53927 6.28866 4.53927C6.28866 4.53927 6.28866 4.53927 6.28866 4.53372C6.28866 4.52816 6.28866 4.5226 6.29421 4.51427C6.29421 4.50038 6.29977 4.48372 6.30532 4.46983C6.32477 4.45594 6.33032 4.42538 6.31921 4.40038C6.30532 4.36427 6.26366 4.32538 6.21366 4.32538C6.18866 4.32538 6.16921 4.33649 6.14977 4.35038C6.12477 4.38094 6.11366 4.41983 6.11366 4.42538C6.12477 4.45594 6.11921 4.47538 6.11366 4.48649C6.1081 4.4976 6.07755 4.51149 6.07755 4.51149C6.07755 4.51149 6.0331 4.49205 5.97755 4.51149C5.92755 4.53094 5.8581 4.56149 5.8581 4.5976V4.60316H5.85255C5.82755 4.60872 5.78866 4.63927 5.77755 4.66705V4.6726H5.77477C5.74977 4.66705 5.71921 4.6976 5.68033 4.76149C5.59421 4.7976 5.59144 4.98094 5.59144 4.98649C5.58588 4.9976 5.56644 5.0226 5.56644 5.03649C5.56644 5.0476 5.57199 5.05594 5.57755 5.06149C5.5831 5.06149 5.5831 5.06149 5.5831 5.06149H5.58866V5.06705C5.58866 5.0726 5.59421 5.07816 5.59977 5.08094C5.60533 5.08094 5.60533 5.08094 5.60533 5.08094L5.61088 5.07538V5.08094C5.61088 5.09205 5.62477 5.09483 5.63588 5.09483H5.64144V5.10038C5.64144 5.10038 5.64699 5.10038 5.65255 5.10038C5.65255 5.10038 5.65255 5.10038 5.6581 5.10038C5.66921 5.10038 5.67199 5.09483 5.67199 5.09483C5.67199 5.08927 5.67199 5.08094 5.67199 5.06983C5.67199 5.05038 5.67199 5.04483 5.67199 5.03927C5.67755 5.03372 5.6831 5.03927 5.69144 5.04483C5.69699 5.05038 5.70533 5.05594 5.71088 5.05594C5.71088 5.05594 5.71088 5.04205 5.70533 5.03094L5.69977 5.02538C5.68866 5.01983 5.67477 5.01149 5.66921 4.98649C5.66366 4.95594 5.6831 4.91149 5.6831 4.91149C5.6831 4.91149 5.77755 4.83649 5.78866 4.77538V4.76983H5.79421C5.85533 4.77538 5.88866 4.73094 5.91366 4.70594C5.91921 4.70038 5.91921 4.69483 5.92477 4.69483L5.93588 4.70038C5.89144 4.75594 5.89144 4.86427 5.94699 4.91149C5.95255 4.97538 6.01088 5.11705 6.05255 5.13094C6.10255 5.14483 6.3081 5.19205 6.3831 5.18094H6.38866V5.18649C6.37755 5.28649 6.43866 5.38649 6.56366 5.48094V5.48649C6.56366 5.4976 6.56366 5.51149 6.57477 5.5226C6.58588 5.53372 6.61921 5.53649 6.63032 5.53372L6.61921 5.51427Z" fill="black"/>
<path d="M5.74976 4.41947C5.7692 4.36391 5.84976 4.36947 5.84976 4.36947C5.84976 4.36947 5.88031 4.29446 5.98587 4.33891C6.02476 4.30835 6.13032 4.3528 6.13032 4.3528C6.13032 4.3528 6.16921 4.29724 6.21921 4.30835C6.31365 4.31947 6.33032 4.40836 6.32476 4.42225C6.26921 4.43614 6.18032 4.3778 6.11087 4.39725C6.07198 4.42225 6.00531 4.44169 5.98031 4.47781C5.9192 4.48058 5.85531 4.41391 5.74976 4.41947Z" fill="#96877D"/>
<path d="M5.97485 4.4802C5.94985 4.4802 5.91929 4.46909 5.88874 4.4552C5.84985 4.44131 5.80818 4.41909 5.75263 4.41909H5.74707H5.73596L5.74152 4.41353C5.76096 4.36353 5.82763 4.36353 5.84707 4.36353C5.85263 4.35242 5.86096 4.33853 5.88596 4.32742C5.91096 4.31631 5.94707 4.31631 5.98596 4.33298C6.02485 4.30798 6.11096 4.33853 6.1304 4.34686C6.14152 4.33575 6.17485 4.29686 6.22485 4.30242C6.2804 4.30798 6.3054 4.33853 6.31929 4.36353C6.33318 4.38853 6.33874 4.41909 6.33318 4.42742H6.32763C6.30263 4.43298 6.26652 4.42186 6.23318 4.41353C6.19429 4.40242 6.15263 4.39409 6.11929 4.39964C6.10818 4.4052 6.09429 4.41353 6.08318 4.41909C6.04707 4.43298 6.00818 4.4552 5.99429 4.4802C5.9804 4.4802 5.98041 4.4802 5.97485 4.4802ZM5.75541 4.41353C5.81096 4.41353 5.84985 4.43298 5.89152 4.44964C5.92763 4.46353 5.95263 4.47464 5.9804 4.47464C5.99985 4.44964 6.04152 4.4302 6.07485 4.41353C6.08874 4.40798 6.09985 4.39964 6.11374 4.39409C6.15263 4.38298 6.19429 4.39964 6.23318 4.40798C6.26929 4.41909 6.29707 4.42742 6.32207 4.42186C6.32207 4.41075 6.32207 4.39131 6.30818 4.37186C6.29429 4.35242 6.26929 4.32186 6.21929 4.31631C6.16929 4.31075 6.13318 4.36075 6.13318 4.36075V4.36631H6.12763C6.12763 4.36631 6.02207 4.32186 5.98874 4.35242H5.98318C5.94707 4.33853 5.91374 4.33298 5.88874 4.34686C5.86374 4.35798 5.85263 4.38298 5.85263 4.38298V4.38853H5.84707C5.84985 4.37464 5.78041 4.36909 5.75541 4.41353Z" fill="black"/>
<path d="M5.94989 4.51085C5.97489 4.49696 6.036 4.47196 6.07489 4.49974C6.11378 4.54418 6.18044 4.58585 6.18044 4.58585L6.25544 4.6164L6.29155 4.63585L6.27211 4.97196C6.20266 4.90251 6.14155 4.8914 6.09155 4.80807C6.06655 4.77196 6.086 4.68863 6.04156 4.63307C5.99156 4.58029 5.94156 4.53863 5.94989 4.51085Z" fill="#96877D"/>
<path d="M6.26927 4.98588L6.25816 4.97477C6.23315 4.94421 6.2026 4.93033 6.1776 4.91088C6.14149 4.88588 6.10815 4.86088 6.0776 4.81088C6.06648 4.79699 6.06371 4.77199 6.05815 4.74144C6.0526 4.70533 6.04704 4.66644 6.02204 4.63588C6.01093 4.622 5.99704 4.61088 5.98593 4.597C5.95537 4.56089 5.92481 4.53311 5.93593 4.50811C5.94704 4.50255 6.01648 4.46366 6.06648 4.497C6.10537 4.54144 6.17204 4.58311 6.17204 4.58311L6.24149 4.61366L6.2776 4.63311V4.63866L6.26927 4.98588ZM5.95537 4.51089C5.94982 4.53033 5.97482 4.56089 6.00537 4.59144C6.01648 4.60255 6.03037 4.61644 6.04148 4.63033C6.06648 4.66644 6.07204 4.70533 6.0776 4.74144C6.08315 4.76644 6.08315 4.79144 6.09149 4.80533C6.12204 4.85533 6.15538 4.87477 6.19149 4.89977C6.21649 4.91366 6.23593 4.93588 6.26093 4.95532L6.28038 4.63588L6.24982 4.61644L6.18038 4.58589C6.18038 4.58589 6.11649 4.54144 6.06926 4.497C6.03037 4.46922 5.96648 4.50533 5.95537 4.51089Z" fill="black"/>
<path d="M6.12488 4.60525C6.12488 4.60525 6.16377 4.5997 6.17488 4.60525C6.18877 4.61081 6.19988 4.61636 6.20543 4.6247C6.21932 4.63025 6.23043 4.63581 6.23043 4.64969C6.24432 4.65525 6.24988 4.68025 6.24988 4.68025L6.23599 4.69969C6.23599 4.69969 6.2221 4.6858 6.2221 4.66914C6.21099 4.66358 6.19154 4.65803 6.18599 4.64414C6.1721 4.64414 6.16099 4.63303 6.15543 4.61914C6.14154 4.6247 6.12488 4.60525 6.12488 4.60525Z" fill="#96877D"/>
<path d="M6.23587 4.7047C6.23032 4.69914 6.21643 4.69081 6.21643 4.67414H6.21087C6.19976 4.66859 6.18587 4.66303 6.18031 4.6547C6.16643 4.6547 6.15531 4.64359 6.14976 4.6297C6.13587 4.6297 6.1192 4.61026 6.1192 4.61026L6.11365 4.59915H6.12476C6.13031 4.59915 6.16365 4.59359 6.17476 4.59915C6.18587 4.6047 6.19976 4.61026 6.20531 4.61859C6.2192 4.62415 6.23031 4.63248 6.23031 4.64359C6.2442 4.64915 6.24976 4.67414 6.24976 4.67414L6.23587 4.7047ZM6.16087 4.61304V4.61859C6.16087 4.6297 6.17198 4.63804 6.18587 4.63804H6.19143V4.64359C6.19698 4.6547 6.20531 4.65748 6.21643 4.65748C6.22198 4.65748 6.22198 4.65748 6.22754 4.66303V4.66859C6.22754 4.6797 6.23309 4.68248 6.23865 4.68803L6.24976 4.67692C6.24976 4.67137 6.2442 4.65748 6.23587 4.65748H6.23031V4.64637C6.23031 4.63526 6.2192 4.63248 6.21087 4.62692H6.20531V4.62137C6.19976 4.61026 6.19143 4.61026 6.18031 4.60748H6.17476C6.1692 4.60193 6.15531 4.60193 6.13865 4.60748C6.1442 4.61304 6.15254 4.61859 6.15809 4.61859L6.16087 4.61304Z" fill="black"/>
<path d="M6.44988 4.38568C6.43044 4.36068 6.38877 4.38013 6.38877 4.38013L6.28877 4.55513L6.24433 4.59124L6.23877 4.73013L6.27488 4.86068L6.26099 4.96068C6.26099 4.96068 6.31099 4.91068 6.3221 4.88568C6.32766 4.86068 6.30266 4.77457 6.30266 4.77457C6.30266 4.77457 6.2721 4.71901 6.30821 4.62457C6.34433 4.53013 6.43044 4.44402 6.44988 4.38568Z" fill="#96877D"/>
<path d="M6.25538 4.97513L6.26927 4.86124L6.23315 4.73069L6.23871 4.5918L6.28315 4.55291L6.38871 4.37791C6.38871 4.37791 6.4276 4.35846 6.4526 4.38902V4.39457C6.44149 4.42513 6.42204 4.45569 6.39149 4.49457C6.36093 4.53346 6.3276 4.58346 6.30538 4.63346C6.26927 4.72791 6.29982 4.77791 6.29982 4.77791C6.29982 4.78346 6.32482 4.86402 6.31927 4.8918C6.31371 4.92235 6.26371 4.9668 6.25815 4.97235L6.25538 4.97513ZM6.24427 4.73069L6.28038 4.86124L6.26927 4.94735C6.28315 4.93346 6.30815 4.90291 6.31371 4.88346C6.31926 4.86402 6.3026 4.79735 6.29426 4.77235C6.29426 4.77235 6.26371 4.7168 6.29982 4.6168C6.31926 4.56124 6.35538 4.5168 6.38593 4.47235C6.41093 4.43624 6.43038 4.40846 6.44149 4.37791C6.4276 4.36402 6.39704 4.37235 6.39149 4.37235L6.28593 4.54735L6.24149 4.58346L6.24427 4.73069Z" fill="black"/>
<path d="M6.69988 4.5448C6.69988 4.5448 6.53877 4.77536 6.28044 4.85591C6.21099 4.8698 6.23599 4.68647 6.23599 4.68647L6.21655 4.69202C6.21655 4.69202 6.17766 4.87813 6.2721 4.87813C6.53599 4.82813 6.73321 4.54758 6.73321 4.54758H6.69988V4.5448Z" fill="#96877D"/>
<path d="M6.2748 4.88125C6.25536 4.88125 6.23869 4.87014 6.2248 4.85625C6.18591 4.80625 6.21091 4.69236 6.21091 4.68681V4.68125L6.24147 4.67014V4.68125C6.24147 4.68125 6.22202 4.81181 6.25536 4.84236C6.26091 4.84792 6.26925 4.84792 6.28036 4.84792C6.53592 4.76736 6.69425 4.54236 6.69981 4.53681H6.70536V4.53125H6.71647H6.74703L6.74147 4.54236C6.73592 4.55069 6.53592 4.82569 6.2748 4.88125ZM6.21925 4.69514C6.21369 4.71458 6.1998 4.80903 6.23036 4.85069C6.24147 4.86181 6.25536 4.87014 6.26925 4.87014C6.50536 4.82569 6.68314 4.59514 6.71925 4.55069H6.69981C6.68036 4.57569 6.52481 4.78681 6.2748 4.86181C6.26091 4.86736 6.2498 4.86181 6.23869 4.85625C6.20536 4.82569 6.21647 4.72569 6.21925 4.69514Z" fill="black"/>
<path d="M6.81098 5.86015C6.81098 5.86015 6.78598 5.8796 6.75543 5.86015C6.74154 5.82126 6.69432 5.82126 6.69432 5.82126C6.69432 5.82126 6.66376 5.73515 6.61932 5.76015C6.61376 5.71571 6.56376 5.74071 6.56376 5.74071C6.56376 5.74071 6.56376 5.6796 6.50265 5.68516C6.52209 5.61571 6.42209 5.62127 6.42209 5.62127C6.42209 5.62127 6.41654 5.54071 6.27209 5.55738C6.58598 5.41849 6.8332 5.77682 6.8332 5.77682" fill="#96877D"/>
<path d="M6.78604 5.86968C6.77493 5.86968 6.7666 5.86968 6.75549 5.85857C6.7416 5.82246 6.69993 5.81968 6.69993 5.81968H6.69438V5.81413C6.69438 5.81413 6.68049 5.76413 6.64993 5.75302C6.63882 5.74746 6.63604 5.75302 6.62493 5.75302L6.61938 5.75857V5.75302C6.61938 5.7419 6.61382 5.73913 6.60827 5.73357C6.59438 5.72246 6.57215 5.73357 6.56938 5.73357L6.56382 5.73913V5.72802C6.56382 5.72802 6.56382 5.70302 6.54993 5.68913C6.53882 5.68357 6.53049 5.67802 6.51382 5.67802H6.50271V5.67246C6.50827 5.65857 6.50827 5.64191 6.49715 5.63357C6.47771 5.60857 6.42771 5.61413 6.42771 5.61413H6.42215V5.61135C6.42215 5.61135 6.42215 5.59191 6.40271 5.57524C6.37771 5.5558 6.33882 5.54468 6.28327 5.5558L6.27771 5.54469C6.5916 5.4058 6.8416 5.76413 6.8416 5.76413L6.83049 5.76968C6.83049 5.76413 6.59438 5.43358 6.30549 5.53913C6.34993 5.53913 6.38049 5.55024 6.40549 5.56413C6.41938 5.57802 6.42493 5.59468 6.43049 5.60302C6.44438 5.60302 6.48604 5.60302 6.50549 5.62802C6.5166 5.63913 6.5166 5.65302 6.5166 5.66691C6.53049 5.66691 6.5416 5.67246 6.55271 5.67802C6.5666 5.68913 6.57215 5.70857 6.57215 5.71691C6.58327 5.71135 6.59715 5.71135 6.61104 5.71691C6.62215 5.72246 6.62493 5.72802 6.62493 5.73635C6.63604 5.73079 6.64438 5.73079 6.64993 5.73635C6.67493 5.74746 6.69438 5.78635 6.69993 5.79746C6.71104 5.79746 6.74438 5.80857 6.76104 5.83635C6.7916 5.85024 6.81104 5.83635 6.81104 5.83635L6.8166 5.84746C6.8166 5.86413 6.79993 5.86968 6.78604 5.86968Z" fill="black"/>
<path d="M6.96107 5.88879C6.96107 5.88879 7.03051 5.96935 7.07218 5.96935C7.11107 5.96935 7.11107 5.88879 7.11107 5.88879C7.11107 5.88879 7.12218 5.9249 7.14163 5.91379C7.14163 5.93879 7.16663 5.94435 7.16663 5.94435C7.16663 5.94435 7.10274 6.09435 6.91663 5.95546" fill="#96877D"/>
<path d="M7.05533 6.02045C7.01089 6.02045 6.96089 6.00101 6.91089 5.95656L6.91644 5.94545C6.98033 5.99545 7.03589 6.01489 7.08589 6.00656C7.13033 5.99545 7.14978 5.96212 7.15533 5.94545C7.14422 5.93989 7.13589 5.93156 7.13589 5.92045C7.13033 5.92045 7.13033 5.92045 7.12478 5.92045C7.11922 5.92045 7.11367 5.90934 7.11089 5.90656C7.10533 5.93156 7.097 5.97045 7.06644 5.97045C7.02756 5.97045 6.95533 5.8899 6.95256 5.88434L6.96367 5.87878C6.98311 5.89823 7.03867 5.95934 7.06922 5.95934C7.09422 5.95934 7.10533 5.90378 7.10533 5.88434H7.11645C7.11645 5.8899 7.12756 5.90378 7.13033 5.90934H7.13589L7.147 5.90378V5.91489C7.147 5.93434 7.16645 5.9399 7.16645 5.9399H7.172V5.94545C7.172 5.94545 7.147 6.00101 7.09144 6.01489C7.07478 6.02045 7.06645 6.02045 7.05533 6.02045Z" fill="black"/>
<path d="M6.39429 5.9191L6.36929 6.02466C6.36929 6.02466 6.33318 6.05521 6.34429 6.06077C6.3554 6.06632 6.4054 6.04966 6.4054 6.04966C6.4054 6.04966 6.48595 6.03855 6.51095 6.01355C6.52484 6.05244 6.56651 6.05244 6.56651 6.05244C6.56651 6.05244 6.57207 6.03855 6.56095 6.02744C6.5804 6.03299 6.59707 6.02188 6.59707 6.02188C6.59707 6.02188 6.60818 5.99132 6.58318 5.98299C6.58873 5.96355 6.59707 5.9441 6.55818 5.9441C6.52762 5.97466 6.45818 6.00799 6.43873 5.99966C6.41929 5.98855 6.50818 5.94966 6.48318 5.89966" fill="#96877D"/>
<path d="M6.34992 6.06355C6.34436 6.06355 6.33881 6.06355 6.33881 6.06355L6.33325 6.05799C6.33325 6.04688 6.3527 6.02744 6.35825 6.02188L6.38325 5.91633H6.39436L6.36936 6.02188C6.35547 6.03299 6.34436 6.04688 6.34436 6.05244C6.34992 6.05244 6.37492 6.04688 6.39992 6.04132C6.39992 6.04132 6.48047 6.03021 6.50547 6.01077L6.51102 6.00521L6.51658 6.01077C6.52769 6.03577 6.55269 6.04688 6.56102 6.04688C6.56102 6.04132 6.56102 6.03299 6.55547 6.03299L6.54991 6.02188H6.56102C6.57491 6.02188 6.58602 6.02188 6.59158 6.02188C6.59158 6.01632 6.59713 5.99688 6.58047 5.99132H6.57491V5.98577C6.57491 5.98021 6.57491 5.98021 6.57491 5.97466C6.57491 5.96355 6.58047 5.96077 6.57491 5.95521C6.57491 5.95521 6.56936 5.94966 6.55547 5.94966C6.52491 5.98021 6.45547 6.0191 6.43047 6.00521C6.42492 6.00521 6.42492 5.99966 6.42492 5.99966C6.42492 5.9941 6.43047 5.98577 6.44436 5.97466C6.4638 5.95521 6.4888 5.93021 6.47491 5.90521L6.48603 5.89966C6.49991 5.93577 6.47214 5.96355 6.44991 5.98577C6.44436 5.99132 6.43603 5.99966 6.43603 6.00521C6.44991 6.01632 6.51658 5.98577 6.54713 5.94966C6.56102 5.94966 6.57213 5.94966 6.57769 5.95521C6.58324 5.96077 6.58324 5.9691 6.58324 5.98021V5.98577C6.60269 5.99688 6.59713 6.02188 6.59435 6.03021C6.59435 6.03021 6.58047 6.03577 6.5638 6.03577C6.5638 6.04688 6.5638 6.05521 6.5638 6.05521V6.06077H6.55824C6.55824 6.06077 6.52213 6.05521 6.50269 6.02188C6.47214 6.04132 6.40269 6.05244 6.39714 6.05244C6.39436 6.06077 6.36936 6.06355 6.34992 6.06355Z" fill="black"/>
</g>
<defs>
<clipPath id="clip0_93_5623">
<rect width="53.3333" height="30" fill="white" transform="translate(0.99707)"/>
</clipPath>
</defs>
</svg>
