<svg width="55" height="30" viewBox="0 0 55 30" fill="none" xmlns="http://www.w3.org/2000/svg">
<path d="M54.3314 0H0.998047V30H54.3314V0Z" fill="#003893"/>
<path d="M0.998047 29.5194V28.8L54.3314 3.5V12.2389L0.998047 29.5194Z" fill="white"/>
<path d="M0.998047 29.0389V28.5584L54.3314 0.480591V6.36115L0.998047 29.0389Z" fill="#DD7500"/>
<path d="M11.9478 1.65002L12.5089 10.95H11.3867L11.9478 1.65002Z" fill="white"/>
<path d="M13.6784 4.51941L12.6173 11.1305L11.2979 10.7805L13.6784 4.51941Z" fill="white"/>
<path d="M15.2788 5.18884L12.5399 11.3L11.3594 10.6194L15.2788 5.18884Z" fill="white"/>
<path d="M16.6592 6.25L12.4287 11.4389L11.4592 10.4694L16.6592 6.25Z" fill="white"/>
<path d="M17.7177 7.61938L12.2872 11.5388L11.6094 10.3611L17.7177 7.61938Z" fill="white"/>
<path d="M18.3869 9.23059L12.1286 11.6111L11.7786 10.2917L18.3869 9.23059Z" fill="white"/>
<path d="M21.2482 10.9499L11.9482 11.511V10.3888L21.2482 10.9499Z" fill="white"/>
<path d="M18.387 12.6806L11.7759 11.6195L12.1259 10.3L18.387 12.6806Z" fill="white"/>
<path d="M17.7171 14.2806L11.606 11.5418L12.2865 10.3612L17.7171 14.2806Z" fill="white"/>
<path d="M16.6592 15.6612L11.4675 11.4306L12.437 10.4612L16.6592 15.6612Z" fill="white"/>
<path d="M15.2788 16.7195L11.3594 11.289L12.5399 10.6084L15.2788 16.7195Z" fill="white"/>
<path d="M13.6784 17.389L11.2979 11.1278L12.6173 10.7778L13.6784 17.389Z" fill="white"/>
<path d="M11.9478 20.2499L11.3867 10.95H12.5062L11.9478 20.2499Z" fill="white"/>
<path d="M10.2288 17.389L11.2899 10.7778L12.6093 11.1278L10.2288 17.389Z" fill="white"/>
<path d="M8.61768 16.7195L11.3593 10.6112L12.5399 11.2918L8.61768 16.7195Z" fill="white"/>
<path d="M7.24805 15.6611L11.4786 10.4722L12.448 11.4416L7.24805 15.6611Z" fill="white"/>
<path d="M6.18726 14.2806L11.6178 10.3612L12.2984 11.5418L6.18726 14.2806Z" fill="white"/>
<path d="M5.51733 12.6806L11.7784 10.3L12.1284 11.6195L5.51733 12.6806Z" fill="white"/>
<path d="M2.64771 10.9499L11.9477 10.3888V11.5082L2.64771 10.9499Z" fill="white"/>
<path d="M5.51733 9.23059L12.1284 10.2917L11.7784 11.6111L5.51733 9.23059Z" fill="white"/>
<path d="M6.18726 7.61938L12.2984 10.3583L11.6178 11.5388L6.18726 7.61938Z" fill="white"/>
<path d="M7.24805 6.25L12.4369 10.4806L11.4675 11.45L7.24805 6.25Z" fill="white"/>
<path d="M8.61768 5.18884L12.5371 10.6194L11.3593 11.3L8.61768 5.18884Z" fill="white"/>
<path d="M10.2288 4.51941L12.6093 10.7805L11.2899 11.1305L10.2288 4.51941Z" fill="white"/>
</svg>
