<svg width="54" height="30" viewBox="0 0 54 30" fill="none" xmlns="http://www.w3.org/2000/svg">
<g clip-path="url(#clip0_93_11926)">
<path d="M0.657227 0H53.9906V30H0.657227V0Z" fill="#D01C1F"/>
<path d="M0.657227 6H53.9906V24H0.657227V6Z" fill="#26AB4D"/>
<path d="M38.574 10.375C37.374 14.6889 32.7935 17.9028 27.324 17.9028C21.8546 17.9028 17.274 14.6889 16.074 10.375C16.4324 16.3028 21.3324 21 27.324 21C33.3157 21 38.2157 16.3028 38.574 10.375Z" fill="#FAD606"/>
<path fill-rule="evenodd" clip-rule="evenodd" d="M27.3238 9L28.0377 11.1972H30.3488L28.4793 12.5556L29.1932 14.7528L27.3238 13.3944L25.4543 14.7528L26.1682 12.5556L24.2988 11.1972H26.6099L27.3238 9Z" fill="#FAD606"/>
</g>
<defs>
<clipPath id="clip0_93_11926">
<rect width="53.3333" height="30" fill="white" transform="translate(0.657227)"/>
</clipPath>
</defs>
</svg>
