<svg width="54" height="30" viewBox="0 0 54 30" fill="none" xmlns="http://www.w3.org/2000/svg">
<g clip-path="url(#clip0_93_5687)">
<path d="M57.3287 0H-2.67126V30H57.3287V0Z" fill="#CC092F"/>
<path d="M37.3287 0H-2.67126V30H37.3287V0Z" fill="#FFD200"/>
<path d="M17.3287 0H-2.67126V30H17.3287V0Z" fill="#0046AE"/>
<path d="M25.5846 6.10535C25.479 6.10535 25.3846 6.13312 25.329 6.17479C25.4151 6.20257 25.479 6.28035 25.479 6.37757V6.62479H25.2318C25.1346 6.62479 25.054 6.5609 25.029 6.47479C24.9846 6.52757 24.9596 6.62479 24.9596 6.73034C24.9596 6.8359 24.9874 6.93034 25.029 6.9859C25.0568 6.89979 25.1346 6.8359 25.2318 6.8359H25.479V8.02478C25.479 8.11923 25.4179 8.19423 25.3402 8.22478C25.4568 8.24145 25.5596 8.397 25.5874 8.48589C25.6151 8.39978 25.7179 8.23867 25.8346 8.22478C25.7513 8.19701 25.6901 8.11923 25.6901 8.02478V6.8359H25.9374C26.0346 6.8359 26.1152 6.89979 26.1402 6.9859C26.1846 6.93312 26.2096 6.8359 26.2096 6.73034C26.2096 6.62479 26.1818 6.53035 26.1402 6.47479C26.1124 6.5609 26.0346 6.62479 25.9374 6.62479H25.6901V6.37757C25.6901 6.28035 25.754 6.19979 25.8402 6.17479C25.7846 6.1359 25.6929 6.10535 25.5846 6.10535Z" fill="black"/>
<path d="M25.5846 6.16113C25.5291 6.16113 25.4791 6.17224 25.4374 6.18336C25.4929 6.23058 25.5318 6.30002 25.5318 6.38058V6.6278C25.5318 6.63058 25.5318 6.63335 25.5291 6.63891V6.6778H25.4902C25.4874 6.6778 25.4846 6.68058 25.4791 6.68058H25.2318C25.1513 6.68058 25.0846 6.64446 25.0346 6.59169C25.0207 6.63613 25.0068 6.68058 25.0068 6.73891C25.0068 6.79724 25.0179 6.84446 25.0291 6.88613C25.0763 6.83057 25.1457 6.79169 25.2263 6.79169H25.5263C25.5263 6.79724 25.5235 6.8028 25.5235 6.80835V6.83613C25.5235 6.83891 25.5263 6.84169 25.5263 6.84724V8.03612C25.5263 8.1139 25.4874 8.17224 25.4318 8.22224C25.4679 8.24446 25.5013 8.27501 25.5291 8.30835C25.5513 8.3389 25.5624 8.36946 25.5791 8.39723C25.5957 8.36668 25.6068 8.33612 25.6291 8.30835C25.6568 8.27501 25.6902 8.24724 25.7263 8.22501C25.6735 8.17779 25.6318 8.1139 25.6318 8.0389V6.80002H25.6707C25.6735 6.80002 25.6763 6.79724 25.6818 6.79724H25.9291C26.0096 6.79724 26.0763 6.83335 26.1263 6.88613C26.1402 6.84169 26.1541 6.79724 26.1541 6.73891C26.1541 6.68058 26.1429 6.63335 26.1318 6.59169C26.0846 6.64724 26.0152 6.68613 25.9346 6.68613H25.6902C25.6874 6.68613 25.6846 6.68613 25.6791 6.68335H25.6402V6.63891C25.6402 6.63613 25.6374 6.63335 25.6374 6.6278V6.38058C25.6374 6.30002 25.6735 6.23335 25.7263 6.18336C25.6902 6.16947 25.6429 6.16113 25.5846 6.16113Z" fill="#F5D402"/>
<path d="M28.6816 10.4672C28.5316 10.3617 28.4039 10.2367 28.3178 10.0978C28.1039 9.75891 28.015 9.33668 28.015 8.91446C28.015 8.73391 28.215 8.53113 28.215 8.38668C28.215 8.16724 28.1955 8.03668 28.1955 8.03668C28.265 8.04779 28.3928 8.1728 28.3928 8.1728C28.3928 8.1728 28.39 7.80891 28.2733 7.74502C28.2733 7.74502 28.3205 7.69779 28.49 7.69224C28.4428 7.57279 28.2094 7.42557 28.2094 7.42557C28.2233 7.40613 28.2428 7.38668 28.2705 7.37279C28.3316 7.33946 28.4094 7.32002 28.4733 7.30613C28.4066 7.29224 28.3261 7.27002 28.2428 7.24224C28.0483 7.17835 27.8205 7.08668 27.6066 6.98113C27.2178 6.79502 26.9178 6.78113 26.7539 6.78113C26.6344 6.78113 26.4594 6.78391 26.3566 6.85335C26.2622 6.91724 26.2705 6.99779 26.2372 7.02557C26.1594 7.09224 26.0261 7.08946 25.965 7.08946C25.5511 7.08946 25.5344 7.53391 25.5344 7.53391C25.5344 7.53391 25.64 7.37279 25.8289 7.37279C26.1428 7.37279 26.3761 7.54224 26.3761 7.60613C26.3761 7.63391 26.3428 7.63668 26.3428 7.63668C26.14 7.63668 25.8316 7.52002 25.6705 7.51446V7.59502C26.0344 7.72279 26.4039 7.90057 26.4039 8.69224C26.4039 9.18946 26.3428 9.6978 26.0928 10.0978C26.0066 10.2367 25.8789 10.3617 25.7261 10.4672L27.2066 10.7339L28.6816 10.4672Z" fill="black"/>
<path d="M27.201 10.1334L25.7204 10.4668C25.6538 10.4473 25.3371 10.3473 25.1149 10.2223C24.726 10.0057 24.5204 9.78898 24.0593 9.76676V9.41398C24.0593 9.22509 24.126 9.05287 24.126 8.87509C23.9288 8.82232 23.3871 8.15843 22.8871 7.86121C22.151 8.33898 21.576 9.12509 21.576 9.48343C21.576 9.48343 21.5982 17.2334 21.576 19.9334C21.576 20.089 21.4816 20.3112 21.4816 20.3112C21.751 20.1973 22.2455 19.5223 22.3482 19.264V19.3862C22.7538 19.2001 23.051 18.714 23.1843 18.464C23.1871 18.5001 23.1954 18.5918 23.1954 18.5918C23.5593 18.2695 24.0232 16.389 24.0232 16.389L24.7927 17.1445C24.7927 17.1445 24.5121 17.7112 24.4065 17.8112C24.4065 17.8112 24.4788 17.8223 24.5621 17.8223C24.5121 17.8945 24.126 18.4529 24.001 18.6612C23.8871 18.8584 23.8066 18.7723 23.6316 18.7723C23.4871 18.7723 23.1593 19.0029 23.1038 19.0945C23.0482 19.1918 23.0038 19.3112 23.0038 19.4112C23.0038 19.5168 23.1177 19.6668 23.1177 19.6668C23.1316 19.614 23.151 19.5973 23.151 19.5973C23.151 19.5973 23.451 19.9695 23.4954 20.0195C23.5288 20.0556 23.6816 20.0834 23.7399 20.0334C23.876 19.9112 24.0065 19.8223 24.126 19.6473C24.1899 19.5529 24.1927 19.4501 24.2621 19.3501C24.501 19.0195 24.976 18.389 25.0843 18.2473C25.0899 18.2862 25.0982 18.3195 25.1038 18.3612C25.226 18.1112 25.8204 17.639 25.8204 17.639L26.4399 17.9223C26.4399 17.9223 25.2843 20.5779 24.2565 20.989C24.2565 20.989 24.7038 21.1779 25.251 21.4612C25.3315 21.5001 25.4149 21.5473 25.4982 21.5918C25.5676 21.5084 25.6426 21.414 25.7121 21.3223C26.0399 20.8834 26.3621 20.3751 26.3621 20.3751C26.3843 20.5084 26.2121 20.914 25.9176 21.4195C25.8621 21.5195 25.801 21.6223 25.7343 21.7251C25.8065 21.7695 25.8815 21.8112 25.9565 21.8556C26.501 22.1834 27.0093 22.5584 27.201 22.9029L27.3343 22.5695L27.201 22.2362V10.5695L27.2676 10.4029L27.201 10.1334Z" fill="black"/>
<path d="M27.2011 22.239C27.0122 22.0335 26.6066 21.7751 26.1566 21.5418C26.7011 20.564 26.9705 19.0196 26.8427 18.7112C26.8427 18.7112 26.6205 19.5112 26.3455 19.9668C26.0927 20.389 25.7816 20.8668 25.4788 21.2168C25.2316 21.1112 24.9927 21.0224 24.7844 20.9612C25.6872 20.2668 26.6066 17.9724 26.6066 17.9724L25.6622 17.5335C25.6622 17.5335 25.3066 17.9501 25.1899 18.0279C25.1899 18.0279 25.1399 17.8224 25.1094 17.7474C25.1094 17.7474 24.9733 17.8501 24.8983 17.8529C24.8983 17.8529 24.8761 17.714 24.8594 17.6196C24.7649 17.6835 24.6094 17.6696 24.6094 17.6696C24.7455 17.6029 24.9094 17.2057 24.9094 17.2057L23.9983 15.9946C23.9983 15.9946 23.6788 17.5307 23.3149 17.8474V11.2307L23.6038 11.4974L24.0399 11.0918V10.7807L23.6538 11.1446V10.2085C23.7149 10.1224 23.7511 10.0557 23.7816 10.0029C23.8455 10.114 24.0483 10.4474 24.2844 10.6529C24.3233 10.4918 24.5816 10.3418 24.5816 10.3418C24.5816 10.3418 24.6761 10.5918 24.8149 10.6557C24.8649 10.5696 25.1622 10.3752 25.1622 10.3752C25.1622 10.3752 24.9094 10.414 24.8066 10.5085C24.7205 10.489 24.6955 10.139 24.6955 10.139C24.6955 10.139 24.3233 10.3224 24.2566 10.4529C24.1872 10.4335 24.0733 10.1529 24.0288 10.039C24.0955 10.0335 24.1844 10.0224 24.3066 10.0224C24.4122 10.0224 24.5511 10.0724 24.6927 10.139C24.8483 10.2113 25.0122 10.3057 25.1594 10.3724C25.3455 10.4557 25.6316 10.4752 25.7122 10.4779C25.6177 10.5446 25.5122 10.6057 25.3983 10.6613C25.3983 10.6613 25.8455 10.6585 26.1594 10.5002C26.2733 10.4279 26.3872 10.3557 26.4872 10.2696C26.4427 10.389 26.3761 10.5307 26.2705 10.6529C26.7316 10.614 26.9594 10.3502 27.0261 10.264C27.0566 10.3446 27.1122 10.4696 27.1955 10.5807H27.3622V21.914L27.2011 22.239Z" fill="#B07F55"/>
<path d="M23.801 8.91148L23.8121 9.12259V9.74482C23.6454 9.68926 23.4343 9.41148 23.3316 9.26704V9.18092C23.3316 9.10037 23.3788 9.04203 23.4149 9.01148L23.3149 8.97537C23.276 9.01981 23.2343 9.08648 23.2343 9.16981V9.21981L22.9343 9.54204L22.6371 9.09481V8.9837C22.6371 8.91148 22.6927 8.82814 22.7399 8.77259L22.6399 8.73647C22.5899 8.80036 22.5371 8.88925 22.5371 8.96981V9.0587C22.4677 9.13092 22.1982 9.40871 22.1982 9.40871C22.1982 9.40871 22.0621 9.11981 22.026 9.03926C22.2316 8.75314 22.5704 8.43369 22.8816 8.20313C22.8899 8.20036 23.5732 8.83092 23.801 8.91148Z" fill="#B07F55"/>
<path d="M22.0648 9.51368V10.0276L21.8259 10.2498V9.4859C21.8259 9.41368 21.8565 9.32479 21.9093 9.23035L22.0648 9.51368Z" fill="#B07F55"/>
<path d="M22.8093 9.71397V10.0306L22.5371 10.2862V9.29175L22.8093 9.71397Z" fill="#B07F55"/>
<path d="M22.4399 10.2857L22.1677 10.0301V9.6579L22.4399 9.36902V10.2857Z" fill="#B07F55"/>
<path d="M23.6927 9.9005C23.6288 9.98939 23.4622 10.2116 23.2816 10.3061V9.43384C23.3233 9.50328 23.5122 9.81161 23.6927 9.9005Z" fill="#B07F55"/>
<path d="M23.1843 9.48047V10.286L22.9121 10.0305V9.74714L23.1843 9.48047Z" fill="#B07F55"/>
<path d="M22.0648 10.3368V11.1396L21.8259 10.9173V10.5618L22.0648 10.3368Z" fill="#B07F55"/>
<path d="M22.4399 10.5972V10.8861L22.1677 11.1417V10.3417L22.4399 10.5972Z" fill="#B07F55"/>
<path d="M22.8093 10.339V11.139L22.5371 10.8834V10.6001L22.8093 10.339Z" fill="#B07F55"/>
<path d="M23.1843 10.5979V10.8812L22.9121 11.1368V10.3368L23.1843 10.5979Z" fill="#B07F55"/>
<path d="M23.5565 11.1436L23.2843 10.8881V10.6214C23.3787 10.5659 23.4732 10.4575 23.5565 10.3436V11.1436Z" fill="#B07F55"/>
<path d="M22.8591 11.4978L23.1479 11.2284V17.8478C23.1479 17.8478 23.1674 18.1784 23.1813 18.3923C23.0507 18.5228 22.5674 19.0117 22.5674 19.0117V11.2284L22.8591 11.4978Z" fill="#B07F55"/>
<path d="M22.4066 18.7645C22.4066 18.9784 22.0177 19.4756 21.8289 19.5867V11.2312L22.115 11.4978L22.4039 11.2284V18.7645H22.4066Z" fill="#B07F55"/>
<path d="M24.8121 18.0482L25.0232 17.9009C25.0232 17.9009 25.0371 17.9704 25.0565 18.0676C24.9676 18.1898 24.4454 18.9009 24.1871 19.2482C24.1232 19.3343 24.0704 19.5537 24.0704 19.5537C24.0704 19.5537 23.976 19.5093 23.976 19.4315C23.976 19.351 23.9871 19.2593 23.9871 19.2593C23.9871 19.2593 23.9176 19.3398 23.7982 19.3398C23.7982 19.2426 23.9843 19.1371 23.9926 19.0009C23.8482 19.1065 23.726 19.0509 23.5593 19.1037C23.3787 19.1593 23.3287 19.2343 23.276 19.2315C23.2426 19.2287 23.2121 19.176 23.226 19.1371C23.2454 19.076 23.4704 18.9148 23.626 18.8843C23.6621 18.8787 23.9565 18.9482 24.0149 18.8565C24.2593 18.4787 24.651 17.8732 24.6926 17.812C24.7204 17.8065 24.7399 17.7982 24.7593 17.7898C24.7565 17.787 24.751 17.9815 24.8121 18.0482Z" fill="#D10429"/>
<path d="M23.451 19.2174C23.4649 19.2313 23.4621 19.2508 23.4482 19.2619L23.3509 19.3452C23.3371 19.3563 23.3176 19.3563 23.3065 19.3397C23.2926 19.3258 23.2954 19.3063 23.3093 19.2952L23.4065 19.2119C23.4121 19.2063 23.4204 19.2063 23.4287 19.2063C23.4398 19.2035 23.4454 19.2063 23.451 19.2174Z" fill="#D10429"/>
<path d="M23.5983 19.3173C23.6289 19.3507 23.6261 19.3979 23.5956 19.4229L23.3622 19.6257C23.3317 19.6534 23.2817 19.6451 23.2567 19.6118C23.2261 19.5784 23.2289 19.5312 23.2595 19.5062L23.4928 19.3062C23.5039 19.2951 23.5206 19.2896 23.5317 19.2896C23.5567 19.284 23.5789 19.2979 23.5983 19.3173Z" fill="#D10429"/>
<path d="M23.7317 19.472C23.7622 19.5053 23.7595 19.5525 23.7289 19.5775L23.4956 19.7803C23.465 19.8081 23.4178 19.7998 23.39 19.7664C23.3622 19.7331 23.3622 19.6859 23.3928 19.6609L23.6261 19.4609C23.6372 19.4498 23.6539 19.4442 23.665 19.4442C23.6845 19.4442 23.7122 19.4525 23.7317 19.472Z" fill="#D10429"/>
<path d="M23.8119 19.5983C23.8342 19.5955 23.8619 19.6038 23.8786 19.6261C23.9092 19.6594 23.9064 19.7066 23.8758 19.7316L23.6425 19.9316C23.6119 19.9594 23.5647 19.9511 23.5369 19.9177C23.5091 19.8844 23.5064 19.8372 23.5397 19.8122L23.773 19.6094C23.7814 19.6039 23.7953 19.6011 23.8119 19.5983Z" fill="#D10429"/>
<path d="M27.201 10.1334L28.6815 10.4668C28.7482 10.4473 29.0649 10.3473 29.2871 10.2223C29.676 10.0057 29.8815 9.78898 30.3426 9.76676V9.41398C30.3426 9.22509 30.276 9.05287 30.276 8.87509C30.4732 8.82232 31.0149 8.15843 31.5149 7.86121C32.251 8.33898 32.826 9.12509 32.826 9.48343C32.826 9.48343 32.8037 17.2334 32.826 19.9334C32.826 20.089 32.9204 20.3112 32.9204 20.3112C32.651 20.1973 32.1565 19.5223 32.0537 19.264V19.3862C31.6482 19.2001 31.351 18.714 31.2176 18.464C31.2149 18.5001 31.2065 18.5918 31.2065 18.5918C30.8426 18.2723 30.3787 16.3918 30.3787 16.3918L29.6093 17.1473C29.6093 17.1473 29.8899 17.714 29.9954 17.814C29.9954 17.814 29.9232 17.8251 29.8399 17.8251C29.8899 17.8973 30.276 18.4557 30.401 18.664C30.5149 18.8612 30.5954 18.7751 30.7704 18.7751C30.9149 18.7751 31.2426 19.0056 31.2982 19.0973C31.3537 19.1945 31.3982 19.314 31.3982 19.414C31.3982 19.5195 31.2843 19.6695 31.2843 19.6695C31.2704 19.6168 31.251 19.6001 31.251 19.6001C31.251 19.6001 30.951 19.9723 30.9065 20.0223C30.8732 20.0584 30.7204 20.0862 30.6621 20.0362C30.526 19.914 30.3954 19.8251 30.276 19.6501C30.2121 19.5557 30.2093 19.4529 30.1399 19.3529C29.901 19.0223 29.426 18.3918 29.3176 18.2501C29.3121 18.289 29.3037 18.3223 29.2982 18.364C29.176 18.114 28.5815 17.6418 28.5815 17.6418L27.9621 17.9251C27.9621 17.9251 29.1176 20.5807 30.1454 20.9918C30.1454 20.9918 29.6982 21.1806 29.151 21.464C29.0704 21.5029 28.9871 21.5501 28.9037 21.5945C28.8343 21.5112 28.7593 21.4168 28.6899 21.3251C28.3621 20.8862 28.0398 20.3779 28.0398 20.3779C28.0176 20.5112 28.1898 20.9168 28.4843 21.4223C28.5399 21.5223 28.601 21.6251 28.6676 21.7279C28.5954 21.7723 28.5204 21.814 28.4454 21.8584C27.901 22.1862 27.3926 22.5612 27.201 22.9056L27.0676 22.5723L27.201 22.239V10.5723L27.1343 10.4057L27.201 10.1334Z" fill="black"/>
<path d="M27.201 22.239C27.3899 22.0335 27.7954 21.7751 28.2454 21.5418C27.701 20.564 27.4315 19.0196 27.5593 18.7112C27.5593 18.7112 27.7815 19.5112 28.0565 19.9668C28.3093 20.389 28.6204 20.8668 28.9232 21.2168C29.1704 21.1112 29.4093 21.0224 29.6177 20.9612C28.7149 20.2668 27.7954 17.9724 27.7954 17.9724L28.7482 17.5279C28.7482 17.5279 29.1038 17.9446 29.2204 18.0224C29.2204 18.0224 29.2704 17.8168 29.301 17.7418C29.301 17.7418 29.4371 17.8446 29.5121 17.8474C29.5121 17.8474 29.5343 17.7085 29.551 17.614C29.6454 17.6779 29.801 17.664 29.801 17.664C29.6649 17.5974 29.501 17.2001 29.501 17.2001L30.4121 15.989C30.4121 15.989 30.7316 17.5251 31.0954 17.8418V11.2307L30.8066 11.4974L30.3677 11.0918V10.7807L30.7538 11.1446V10.2085C30.6927 10.1224 30.6566 10.0557 30.626 10.0029C30.5621 10.114 30.3593 10.4474 30.1232 10.6529C30.0843 10.4918 29.826 10.3418 29.826 10.3418C29.826 10.3418 29.7315 10.5918 29.5927 10.6557C29.5427 10.5696 29.2454 10.3752 29.2454 10.3752C29.2454 10.3752 29.4982 10.414 29.601 10.5085C29.6871 10.489 29.7121 10.139 29.7121 10.139C29.7121 10.139 30.0843 10.3224 30.151 10.4529C30.2204 10.4335 30.3343 10.1529 30.3788 10.039C30.3121 10.0335 30.2232 10.0224 30.101 10.0224C29.9954 10.0224 29.8565 10.0724 29.7149 10.139C29.5593 10.2113 29.3954 10.3057 29.2482 10.3724C29.0621 10.4557 28.776 10.4752 28.6954 10.4779C28.7899 10.5446 28.8954 10.6057 29.0093 10.6613C29.0093 10.6613 28.5621 10.6585 28.2482 10.5002C28.1343 10.4279 28.0204 10.3557 27.9204 10.2696C27.9649 10.389 28.0315 10.5307 28.1371 10.6529C27.676 10.614 27.4482 10.3502 27.3815 10.264C27.351 10.3446 27.2954 10.4696 27.2121 10.5807H27.0454V21.914L27.201 22.239Z" fill="#B07F55"/>
<path d="M30.601 8.91148L30.5898 9.12259V9.74482C30.7565 9.68926 30.9676 9.41148 31.0704 9.26704V9.18092C31.0704 9.10037 31.0232 9.04203 30.9871 9.01148L31.0871 8.97537C31.126 9.01981 31.1676 9.08648 31.1676 9.16981V9.21981L31.4676 9.54204L31.7648 9.09481V8.9837C31.7648 8.91148 31.7093 8.82814 31.6621 8.77259L31.7621 8.73647C31.8121 8.80036 31.8648 8.88925 31.8648 8.96981V9.0587C31.9343 9.13092 32.2037 9.40871 32.2037 9.40871C32.2037 9.40871 32.3398 9.11981 32.376 9.03926C32.1704 8.75314 31.8315 8.43369 31.5204 8.20313C31.5148 8.20036 30.8315 8.83092 30.601 8.91148Z" fill="#B07F55"/>
<path d="M32.3401 9.51368V10.0276L32.579 10.2498V9.4859C32.579 9.41368 32.5484 9.32479 32.4956 9.23035L32.3401 9.51368Z" fill="#B07F55"/>
<path d="M31.5955 9.71397V10.0306L31.8677 10.2862V9.29175L31.5955 9.71397Z" fill="#B07F55"/>
<path d="M31.965 10.2857L32.2372 10.0301V9.6579L31.965 9.36902V10.2857Z" fill="#B07F55"/>
<path d="M30.7119 9.9005C30.7758 9.98939 30.9425 10.2116 31.123 10.3061V9.43384C31.0814 9.50328 30.8925 9.81161 30.7119 9.9005Z" fill="#B07F55"/>
<path d="M31.2178 9.48047V10.286L31.49 10.0305V9.74714L31.2178 9.48047Z" fill="#B07F55"/>
<path d="M32.3401 10.3368V11.1396L32.579 10.9173V10.5618L32.3401 10.3368Z" fill="#B07F55"/>
<path d="M31.965 10.5972V10.8861L32.2372 11.1417V10.3417L31.965 10.5972Z" fill="#B07F55"/>
<path d="M31.5955 10.339V11.139L31.8677 10.8834V10.6001L31.5955 10.339Z" fill="#B07F55"/>
<path d="M31.223 10.5979V10.8812L31.4952 11.1368V10.3368L31.223 10.5979Z" fill="#B07F55"/>
<path d="M30.8483 11.1436L31.1205 10.8881V10.6214C31.026 10.5659 30.9316 10.4575 30.8483 10.3436V11.1436Z" fill="#B07F55"/>
<path d="M31.5452 11.4978L31.2564 11.2284V17.8478C31.2564 17.8478 31.2369 18.1784 31.223 18.3923C31.3536 18.5228 31.8369 19.0117 31.8369 19.0117V11.2284L31.5452 11.4978Z" fill="#B07F55"/>
<path d="M32.001 18.7645C32.001 18.9784 32.3899 19.4756 32.5788 19.5867V11.2312L32.2926 11.4978L32.0038 11.2284L32.001 18.7645Z" fill="#B07F55"/>
<path d="M29.5925 18.0482L29.3814 17.9009C29.3814 17.9009 29.3675 17.9704 29.348 18.0676C29.4369 18.1898 29.9591 18.9009 30.2175 19.2482C30.2814 19.3343 30.3341 19.5537 30.3341 19.5537C30.3341 19.5537 30.4286 19.5093 30.4286 19.4315C30.4286 19.351 30.4175 19.2593 30.4175 19.2593C30.4175 19.2593 30.4869 19.3398 30.6064 19.3398C30.6064 19.2426 30.4202 19.1371 30.4119 19.0009C30.5564 19.1065 30.6786 19.0509 30.8452 19.1037C31.0258 19.1593 31.0758 19.2343 31.1286 19.2315C31.1619 19.2287 31.1925 19.176 31.1786 19.1371C31.1591 19.076 30.9341 18.9148 30.7786 18.8843C30.7425 18.8787 30.448 18.9482 30.3897 18.8565C30.1452 18.4787 29.7536 17.8732 29.7119 17.812C29.6841 17.8065 29.6647 17.7982 29.6452 17.7898C29.648 17.787 29.6508 17.9815 29.5925 18.0482Z" fill="#D10429"/>
<path d="M30.951 19.2174C30.9371 19.2313 30.9399 19.2508 30.9538 19.2619L31.051 19.3452C31.0649 19.3563 31.0844 19.3563 31.0955 19.3397C31.1094 19.3258 31.1066 19.3063 31.0927 19.2952L30.9955 19.2119C30.9899 19.2063 30.9816 19.2063 30.9732 19.2063C30.9649 19.2035 30.9594 19.2063 30.951 19.2174Z" fill="#D10429"/>
<path d="M30.8066 19.3173C30.7761 19.3507 30.7788 19.3979 30.8094 19.4229L31.0427 19.6257C31.0733 19.6534 31.1233 19.6451 31.1483 19.6118C31.1789 19.5784 31.1761 19.5312 31.1455 19.5062L30.9122 19.3062C30.9011 19.2951 30.8844 19.2896 30.8733 19.2896C30.8483 19.284 30.8261 19.2979 30.8066 19.3173Z" fill="#D10429"/>
<path d="M30.6732 19.472C30.6426 19.5053 30.6454 19.5525 30.676 19.5775L30.9093 19.7803C30.9399 19.8081 30.9871 19.7998 31.0149 19.7664C31.0426 19.7331 31.0426 19.6859 31.0121 19.6609L30.7787 19.4609C30.7676 19.4498 30.751 19.4442 30.7399 19.4442C30.7176 19.4442 30.6926 19.4525 30.6732 19.472Z" fill="#D10429"/>
<path d="M30.5926 19.5983C30.5704 19.5955 30.5426 19.6038 30.526 19.6261C30.4954 19.6594 30.4982 19.7066 30.5287 19.7316L30.762 19.9316C30.7926 19.9594 30.8398 19.9511 30.8676 19.9177C30.8981 19.8844 30.8981 19.8372 30.8648 19.8122L30.6315 19.6094C30.6232 19.6039 30.6093 19.6011 30.5926 19.5983Z" fill="#D10429"/>
<path d="M26.8592 6.88571C27.2426 6.88571 27.5092 7.05793 27.8731 7.21905C27.9676 7.26349 28.0565 7.29682 28.1342 7.32182C28.0842 7.36627 28.0481 7.40794 28.037 7.44405C28.037 7.44405 28.2009 7.4746 28.2731 7.61071C28.2731 7.61071 28.1204 7.62738 28.0926 7.71627C28.1787 7.72183 28.2648 7.83294 28.2648 7.93572L28.0454 7.86905C28.0454 7.86905 28.0981 8.11627 28.0981 8.38294C28.0981 8.51905 27.9009 8.68016 27.9009 8.91072C27.9009 9.63294 28.0842 9.9135 28.2148 10.1385C28.2648 10.2246 28.3092 10.3274 28.3926 10.4024C28.0204 10.2024 27.7398 9.95517 27.7398 9.72183V8.84405H27.6426V9.72183C27.6426 9.8885 27.6815 9.96905 27.6815 9.96905C27.7426 10.1552 27.8592 10.4413 27.9315 10.5552C27.587 10.3691 27.412 10.1357 27.412 10.0496V8.84683H27.3148V10.0663L27.3342 10.1496C27.2898 10.2135 27.237 10.2857 27.2009 10.3135C27.1648 10.2857 27.112 10.2135 27.0704 10.1496L27.0898 10.0663V8.84683H26.9954V10.0496C26.9954 10.1357 26.8231 10.3691 26.4759 10.5552C26.5481 10.4385 26.6704 10.1552 26.7259 9.96905C26.7259 9.96905 26.7648 9.89128 26.7648 9.72183V8.84405H26.6676V9.72183C26.6676 9.95239 26.3898 10.2024 26.0176 10.4024C26.1009 10.3246 26.1454 10.2246 26.1954 10.1385C26.3398 9.89405 26.512 9.58294 26.512 8.69405C26.512 8.36072 26.462 8.13294 26.3787 7.97738C26.3509 7.9246 26.3176 7.78849 26.5148 7.78849C26.6176 7.78849 26.8537 7.97183 26.8537 7.97183C26.8537 7.97183 26.8426 7.8246 26.7231 7.74127C26.7037 7.72738 26.6704 7.68572 26.6704 7.64405C26.6704 7.61349 26.7231 7.54127 26.7648 7.52183C26.7926 7.50794 26.3592 7.43571 26.3592 7.23849C26.3592 7.1996 26.387 7.17182 26.4759 7.17182C26.5926 7.17182 26.787 7.31071 26.9565 7.31071C27.0842 7.31071 27.1342 7.28016 27.262 7.28016C27.4176 7.28016 27.7481 7.58016 27.862 7.56905C27.7342 7.48849 27.5315 7.18849 27.2259 7.18849C27.1204 7.18849 27.0231 7.21071 26.9231 7.21071C26.7954 7.21071 26.6704 7.09405 26.5287 7.09405C26.4342 7.09405 26.3315 7.0996 26.3176 7.0746C26.2898 7.03016 26.3148 7.00794 26.3398 6.9746C26.387 6.90793 26.5204 6.89127 26.6509 6.88571C26.6898 6.88571 26.7287 6.88293 26.7648 6.88293C26.7981 6.88571 26.8315 6.88571 26.8592 6.88571Z" fill="#B07F55"/>
<path d="M25.6176 7.35584C25.6176 7.35584 25.6981 7.20306 25.9009 7.20306C25.987 7.20306 26.2676 7.19751 26.2676 7.19751C26.3037 7.29473 26.4731 7.45862 26.4731 7.62806C26.4731 7.62806 26.3009 7.31418 25.8176 7.31418C25.6981 7.31418 25.6176 7.35584 25.6176 7.35584Z" fill="#CC092F"/>
<path d="M26.4065 7.68617C26.4065 7.68617 26.3037 7.79728 26.2787 7.85284C26.1759 7.81395 25.9982 7.63062 25.9982 7.63062C25.9982 7.63062 26.1509 7.7195 26.4065 7.68617Z" fill="#D10429"/>
<path d="M26.2427 7.4C26.2427 7.4 26.1233 7.36389 26.1233 7.32222C26.1233 7.27222 26.1788 7.27222 26.2177 7.31111C26.2427 7.33611 26.2427 7.4 26.2427 7.4Z" fill="black"/>
<path d="M26.7566 7.53717C26.8502 7.53717 26.926 7.47748 26.926 7.40384C26.926 7.3302 26.8502 7.27051 26.7566 7.27051C26.663 7.27051 26.5872 7.3302 26.5872 7.40384C26.5872 7.47748 26.663 7.53717 26.7566 7.53717Z" fill="black"/>
<path d="M26.7565 7.52209C26.8225 7.52209 26.876 7.46861 26.876 7.40265C26.876 7.33668 26.8225 7.2832 26.7565 7.2832C26.6906 7.2832 26.6371 7.33668 26.6371 7.40265C26.6371 7.46861 26.6906 7.52209 26.7565 7.52209Z" fill="#F5D402"/>
<path d="M26.7564 7.45327C26.784 7.45327 26.8064 7.43089 26.8064 7.40327C26.8064 7.37566 26.784 7.35327 26.7564 7.35327C26.7288 7.35327 26.7064 7.37566 26.7064 7.40327C26.7064 7.43089 26.7288 7.45327 26.7564 7.45327Z" fill="black"/>
<path d="M24.0426 19.7324L24.5815 20.0269L24.4482 20.6269L23.9093 20.3324L24.0426 19.7324Z" fill="black"/>
<path d="M21.5261 13.955L21.3317 14.0438L23.5289 18.8605H23.7622L21.5261 13.955ZM24.1178 19.6355L23.9567 19.7994L24.0567 20.0189L24.2511 19.93L24.1178 19.6355Z" fill="black"/>
<path d="M22.2094 17.7537C22.2094 17.7537 22.3955 18.137 22.5371 18.187C22.4649 18.1675 22.226 18.2537 22.226 18.2537C22.226 18.2537 22.6427 18.6259 22.9955 18.6509C23.2955 18.6703 23.4427 18.5203 23.4427 18.5203L23.3816 18.2037C23.3816 18.2037 23.1982 17.9842 22.9038 17.8814C22.6094 17.7814 22.2094 17.7537 22.2094 17.7537Z" fill="black"/>
<path d="M23.6064 17.0654C23.6064 17.0654 23.3509 17.2849 23.2787 17.5377C23.2092 17.7904 23.3259 18.0765 23.3259 18.0765L23.5398 18.4765C23.5398 18.4765 23.837 18.3154 23.962 18.0793C24.0898 17.8432 24.0425 17.5238 24.0425 17.5238C24.0425 17.5238 23.8064 17.6099 23.7759 17.6515C23.8287 17.3932 23.6064 17.0654 23.6064 17.0654Z" fill="black"/>
<path d="M22.7818 16.9655C22.7818 16.9655 22.4929 17.0628 22.2095 17.0461C21.9401 17.0294 21.7151 16.8017 21.7151 16.8017C21.7151 16.8017 21.9373 16.6517 22.0484 16.6711C21.929 16.6267 21.7512 16.3239 21.7512 16.3239C21.7512 16.3239 22.0012 16.2461 22.2206 16.3294C22.4401 16.4128 22.6345 16.6572 22.6345 16.6572L22.7818 16.9655Z" fill="black"/>
<path d="M22.8817 15.5469C22.8817 15.5469 23.0289 15.8469 22.9928 15.9524C23.04 15.883 23.2094 15.7747 23.2094 15.7747C23.2094 15.7747 23.3122 16.2608 23.2122 16.5635C23.1122 16.8635 22.8122 16.9802 22.8122 16.9802L22.4816 16.3358C22.4816 16.3358 22.4316 16.0969 22.5344 15.908C22.6428 15.7163 22.8817 15.5469 22.8817 15.5469Z" fill="black"/>
<path d="M20.9927 14.7504C20.9927 14.7504 21.3065 14.717 21.5954 14.8365C21.8343 14.9365 21.9093 15.117 21.9093 15.117L22.0288 15.4337C22.0288 15.4337 21.6843 15.5615 21.4149 15.4643C21.1454 15.367 20.9454 15.042 20.9454 15.042C20.9454 15.042 21.1343 14.9726 21.2065 14.9976C21.0982 14.9504 20.9927 14.7504 20.9927 14.7504Z" fill="black"/>
<path d="M21.9786 14.16C21.9786 14.16 22.1147 14.3378 22.123 14.5406C22.1591 14.435 22.3341 14.3128 22.3341 14.3128C22.3341 14.3128 22.5119 14.7434 22.4702 15.0461C22.4313 15.3489 22.1758 15.5295 22.1758 15.5295L21.8591 14.9267C21.8591 14.9267 21.7564 14.6795 21.7869 14.4878C21.8147 14.2961 21.9786 14.16 21.9786 14.16Z" fill="black"/>
<path d="M20.8927 13.006C20.8927 13.006 20.8371 13.3365 20.9316 13.5226C21.0177 13.6921 21.076 13.7282 21.076 13.7282C20.9093 13.6171 20.6621 13.6087 20.6621 13.6087C20.6621 13.6087 20.751 13.9643 20.9621 14.1282C21.1732 14.2921 21.501 14.2504 21.501 14.2504C21.501 14.2504 21.7177 13.9643 21.701 13.6532C21.6871 13.3421 21.4399 13.0143 21.4399 13.0143C21.4399 13.0143 21.3427 13.2143 21.3343 13.3643C21.2732 13.2171 20.8927 13.006 20.8927 13.006Z" fill="black"/>
<path d="M23.4594 18.5098L23.4705 18.6265C23.6677 18.6293 23.6982 18.6098 23.7482 18.671C23.7816 18.7099 23.8621 18.7487 23.9427 18.7099C24.0232 18.6737 24.0593 18.5765 24.0232 18.4959C23.9871 18.4154 23.9121 18.3987 23.8399 18.4126C23.7955 18.4237 23.7677 18.4571 23.7288 18.4765C23.6482 18.5154 23.4594 18.5098 23.4594 18.5098Z" fill="black"/>
<path d="M23.44 18.4198L23.5372 18.4892C23.4344 18.6559 23.4039 18.6698 23.4261 18.7448C23.4428 18.7948 23.4317 18.8809 23.3594 18.9309C23.2872 18.9809 23.1872 18.9587 23.1372 18.8837C23.0872 18.8115 23.115 18.7365 23.165 18.6837C23.1955 18.6504 23.2428 18.6448 23.2789 18.6226C23.3455 18.5865 23.44 18.4198 23.44 18.4198Z" fill="black"/>
<path d="M22.7788 17.0206L22.7899 17.1372C22.9872 17.14 23.0177 17.1206 23.0677 17.1817C23.1011 17.2205 23.1816 17.2594 23.2622 17.2205C23.3427 17.1844 23.3788 17.0872 23.3427 17.0067C23.3066 16.9261 23.2316 16.9095 23.1594 16.9233C23.115 16.9345 23.0872 16.9678 23.0483 16.9872C22.9677 17.0289 22.7761 17.0206 22.7788 17.0206Z" fill="black"/>
<path d="M22.8149 17.0618L22.8982 17.1451C22.7705 17.2951 22.7371 17.3062 22.751 17.3812C22.7621 17.434 22.7344 17.5173 22.6538 17.5534C22.5733 17.5895 22.476 17.5534 22.4399 17.4729C22.4038 17.3923 22.4399 17.3256 22.4955 17.2784C22.5316 17.2506 22.576 17.2507 22.6149 17.234C22.6955 17.2118 22.8149 17.0618 22.8149 17.0618Z" fill="black"/>
<path d="M22.1178 15.622L22.1289 15.7387C22.3261 15.7414 22.3567 15.722 22.4067 15.7831C22.44 15.822 22.5206 15.8609 22.6012 15.822C22.6817 15.7859 22.7178 15.6887 22.6817 15.6081C22.6456 15.5276 22.5706 15.5109 22.4984 15.5248C22.4539 15.5359 22.4261 15.5692 22.3873 15.5887C22.3095 15.6303 22.1178 15.622 22.1178 15.622Z" fill="black"/>
<path d="M22.1731 15.6006L22.2564 15.6839C22.1286 15.8339 22.0953 15.845 22.1092 15.92C22.1203 15.9728 22.0925 16.0561 22.012 16.0922C21.9314 16.1284 21.8342 16.0922 21.7981 16.0117C21.762 15.9311 21.7981 15.8645 21.8536 15.8173C21.8897 15.7895 21.9342 15.7895 21.9731 15.7728C22.0508 15.7506 22.1731 15.6006 22.1731 15.6006Z" fill="black"/>
<path d="M21.4148 14.1495L21.4259 14.2662C21.6231 14.2689 21.6537 14.2495 21.7037 14.3106C21.737 14.3495 21.8176 14.3884 21.8981 14.3495C21.9787 14.3134 22.0148 14.2161 21.9787 14.1356C21.9426 14.055 21.8676 14.0384 21.7953 14.0523C21.7509 14.0634 21.7231 14.0967 21.6842 14.1161C21.6092 14.155 21.4148 14.1495 21.4148 14.1495Z" fill="black"/>
<path d="M21.4676 14.1281L21.551 14.2114C21.4232 14.3614 21.3898 14.3725 21.4037 14.4475C21.4148 14.5003 21.3871 14.5836 21.3065 14.6197C21.226 14.6558 21.1287 14.6197 21.0926 14.5392C21.0565 14.4586 21.0926 14.3919 21.1482 14.3447C21.1843 14.3169 21.2287 14.3169 21.2676 14.3003C21.3482 14.2781 21.4676 14.1281 21.4676 14.1281Z" fill="black"/>
<path d="M24.1177 19.9025L24.4566 20.083L24.3733 20.4552L24.0399 20.2719L24.1177 19.9025Z" fill="#F5D402"/>
<path d="M22.651 16.6701C22.5815 16.7007 22.4788 16.3924 22.401 16.2257C22.3204 16.0535 22.1649 15.7896 22.2065 15.7702C22.2565 15.7479 22.3232 15.8868 22.4038 16.0646C22.4843 16.2368 22.7176 16.6451 22.651 16.6701Z" fill="#F5D402"/>
<path d="M21.9313 15.0611C21.8619 15.0916 21.7841 14.8916 21.7091 14.7222C21.6286 14.55 21.5563 14.4278 21.598 14.4083C21.648 14.3861 21.7202 14.5361 21.7841 14.6778C21.848 14.8139 21.998 15.0333 21.9313 15.0611Z" fill="#F5D402"/>
<path d="M23.598 18.7105C23.5425 18.7244 23.3008 18.2216 23.1092 17.7966C22.9147 17.3688 22.7703 17.0272 22.8147 17.0077C22.8647 16.9855 23.0203 17.3883 23.2147 17.8133C23.4119 18.2355 23.6425 18.6994 23.598 18.7105Z" fill="#F5D402"/>
<path d="M20.9899 13.2048C20.9899 13.2048 20.9788 13.4437 21.0594 13.5826C21.1399 13.7187 21.3149 13.7715 21.3149 13.7715C21.3149 13.7715 21.326 13.5326 21.2455 13.3937C21.1649 13.2604 20.9899 13.2048 20.9899 13.2048Z" fill="#097754"/>
<path d="M20.8231 13.75C20.8231 13.75 21.0342 13.7639 21.1537 13.8528C21.2731 13.9472 21.3203 14.1361 21.3203 14.1361C21.3203 14.1361 21.1842 14.15 21.0592 14.0583C20.9398 13.9667 20.8231 13.75 20.8231 13.75Z" fill="#097754"/>
<path d="M21.476 13.2637C21.476 13.2637 21.4065 13.4248 21.4149 13.5942C21.4204 13.7637 21.5204 13.9581 21.5204 13.9581C21.5204 13.9581 21.6093 13.7526 21.6038 13.5803C21.5954 13.4109 21.4982 13.3137 21.476 13.2637Z" fill="#097754"/>
<path d="M21.1261 14.8098C21.1261 14.8098 21.2289 14.9543 21.3872 15.0293C21.5428 15.107 21.7817 15.1098 21.7817 15.1098C21.7817 15.1098 21.665 14.9571 21.5094 14.8793C21.3455 14.8015 21.1261 14.8098 21.1261 14.8098Z" fill="#097754"/>
<path d="M21.1759 15.1447C21.1759 15.1447 21.2537 15.2919 21.3898 15.3558C21.5259 15.4197 21.8092 15.4113 21.8092 15.4113C21.8092 15.4113 21.7037 15.2752 21.562 15.2113C21.4259 15.1474 21.1759 15.1447 21.1759 15.1447Z" fill="#097754"/>
<path d="M21.9676 14.3553C21.9676 14.3553 21.8842 14.4915 21.8898 14.6442C21.8953 14.7942 21.9953 14.9609 21.9953 14.9609C21.9953 14.9609 22.0648 14.772 22.0592 14.622C22.0564 14.4692 21.9676 14.3553 21.9676 14.3553Z" fill="#097754"/>
<path d="M22.276 14.5496C22.276 14.5496 22.1316 14.7385 22.1121 14.9357C22.0927 15.1329 22.1927 15.3329 22.1927 15.3329C22.1927 15.3329 22.3649 15.1607 22.3871 14.9635C22.4066 14.769 22.276 14.5496 22.276 14.5496Z" fill="#097754"/>
<path d="M21.8818 16.364C21.8818 16.364 21.8985 16.4334 21.9596 16.5112C22.0207 16.589 22.1207 16.664 22.1207 16.664C22.1207 16.664 22.2179 16.6334 22.3402 16.6584C22.4624 16.6862 22.6235 16.7945 22.6235 16.7945C22.6235 16.7945 22.4513 16.5334 22.2679 16.4306C22.0846 16.3306 21.8818 16.364 21.8818 16.364Z" fill="#097754"/>
<path d="M21.8623 16.8146C21.8623 16.8146 22.0901 16.7174 22.2762 16.7424C22.4623 16.7646 22.629 16.9146 22.629 16.9146C22.629 16.9146 22.3762 17.0007 22.1901 16.9785C22.0067 16.9507 21.8623 16.8146 21.8623 16.8146Z" fill="#097754"/>
<path d="M22.8232 15.7607C22.8232 15.7607 22.6232 15.9746 22.6066 16.158C22.5899 16.3413 22.7704 16.5135 22.7704 16.5135C22.7704 16.5135 22.7593 16.3969 22.7927 16.3163C22.8232 16.2385 22.8899 16.1552 22.8899 16.1552C22.8899 16.1552 22.9176 16.0607 22.9065 15.9857C22.8843 15.8774 22.8232 15.7607 22.8232 15.7607Z" fill="#097754"/>
<path d="M23.1094 16.0059C23.1094 16.0059 22.9205 16.1947 22.8705 16.4031C22.8205 16.6059 22.9094 16.8253 22.9094 16.8253C22.9094 16.8253 23.0788 16.6892 23.1288 16.4864C23.1788 16.2809 23.1094 16.0059 23.1094 16.0059Z" fill="#097754"/>
<path d="M23.5815 17.2362C23.5815 17.2362 23.6676 17.4168 23.687 17.564C23.7092 17.714 23.687 17.764 23.687 17.764C23.687 17.764 23.5981 17.8501 23.5593 17.9001C23.5093 17.9668 23.4981 18.0862 23.4981 18.0862C23.4981 18.0862 23.3204 17.8223 23.3482 17.6307C23.3787 17.439 23.5815 17.2362 23.5815 17.2362Z" fill="#097754"/>
<path d="M23.9567 17.6497C23.9567 17.6497 23.7289 17.7996 23.64 17.9524C23.5511 18.1052 23.5956 18.2635 23.5956 18.2635C23.5956 18.2635 23.7595 18.2496 23.8484 18.0968C23.9345 17.9441 23.9567 17.6497 23.9567 17.6497Z" fill="#097754"/>
<path d="M22.4622 18.2843C22.4622 18.2843 22.7899 18.2731 22.9899 18.3231C23.1899 18.3731 23.2622 18.4787 23.2622 18.4787C23.2622 18.4787 23.0344 18.5843 22.8344 18.5343C22.6344 18.4898 22.4622 18.2843 22.4622 18.2843Z" fill="#097754"/>
<path d="M22.4062 17.897C22.4062 17.897 22.5535 18.1276 22.7451 18.2109C23.009 18.3248 23.3118 18.2721 23.3118 18.2721C23.3118 18.2721 23.1451 18.0693 22.9174 17.9776C22.6924 17.8859 22.4062 17.897 22.4062 17.897Z" fill="#097754"/>
<path d="M33.6177 13.3972L33.6621 13.4861C33.6621 13.4861 33.5927 13.5083 33.5621 13.5722C33.5316 13.6333 33.5816 13.7222 33.5816 13.7222C33.5816 13.7222 33.2204 13.6917 33.1649 13.7278C33.1149 13.7611 33.1843 14.0111 33.151 14.2222C33.1038 14.5167 32.9871 14.4917 32.9843 14.55C32.9815 14.6056 33.0288 14.6889 33.0288 14.6889C33.0288 14.6889 32.9621 14.7083 32.9454 14.7389C32.9232 14.7861 32.9621 14.8694 32.9315 14.9222C32.776 15.2278 32.5454 15.6833 32.3927 15.9833C32.3732 16.0278 32.3121 16.0389 32.2871 16.0972C32.2593 16.15 32.2815 16.225 32.2815 16.225C32.2815 16.225 32.1815 16.2306 32.1454 16.3028C32.1093 16.375 32.1288 16.475 32.1288 16.475C32.1288 16.475 32.0649 16.4806 32.0315 16.5444C31.9982 16.6111 32.0538 16.6444 32.0427 16.675C31.8371 17.0778 31.5954 17.5556 31.4454 17.8444C31.3926 17.95 31.201 17.9722 31.0899 18.1889C30.9843 18.4 31.1371 18.5556 31.1371 18.5556C31.1371 18.5556 30.976 18.5694 30.9371 18.6528C30.8926 18.7361 30.926 18.8667 31.0426 18.9222C31.1565 18.9833 31.2815 18.9333 31.326 18.85C31.3704 18.7667 31.2815 18.6306 31.2815 18.6306C31.2815 18.6306 31.4982 18.6611 31.6038 18.45C31.7149 18.2333 31.6204 18.0694 31.676 17.9639C31.8232 17.675 32.0649 17.1972 32.2732 16.7944C32.2871 16.7639 32.351 16.7917 32.3843 16.725C32.4149 16.6611 32.3843 16.6083 32.3843 16.6083C32.3843 16.6083 32.4788 16.5694 32.5149 16.4944C32.551 16.425 32.4954 16.3389 32.4954 16.3389C32.4954 16.3389 32.5677 16.3111 32.5954 16.2583C32.626 16.2028 32.601 16.1444 32.626 16.1056C32.7788 15.8056 33.0093 15.3528 33.1649 15.0444C33.1927 14.9889 33.2843 14.9722 33.3038 14.925C33.3177 14.8972 33.2927 14.8278 33.2927 14.8278C33.2927 14.8278 33.3927 14.8167 33.4316 14.7806C33.476 14.7444 33.3871 14.6639 33.5982 14.4528C33.7482 14.3028 33.9927 14.2139 33.9871 14.1528C33.9843 14.0861 33.7482 13.8139 33.7482 13.8139C33.7482 13.8139 33.8482 13.8028 33.8788 13.7444C33.9093 13.6833 33.8899 13.6111 33.8899 13.6111L33.9899 13.5944V13.125L33.6177 13.3972ZM30.3482 19.9333C30.3343 19.9639 30.3315 20.0028 30.3482 20.0361C30.3482 20.0361 30.2288 20 30.1871 20.0194C30.1482 20.0389 30.1871 20.6028 30.1871 20.6028C30.1871 20.6028 30.6649 20.3028 30.6565 20.2583C30.651 20.2111 30.551 20.1389 30.551 20.1389C30.5899 20.1333 30.6204 20.1083 30.6343 20.0778C30.651 20.0472 30.651 19.9583 30.5454 19.9056C30.5065 19.8861 30.4676 19.8778 30.4399 19.8833C30.3899 19.8861 30.3593 19.9139 30.3482 19.9333Z" fill="black"/>
<path d="M33.7065 13.4163L33.9343 13.5302L33.9315 13.2607L33.7065 13.4163Z" fill="#F5D402"/>
<path d="M33.6176 13.5816C33.5871 13.6372 33.6176 13.7122 33.6815 13.7455C33.7454 13.7788 33.8177 13.7594 33.8482 13.7011C33.8788 13.6455 33.8482 13.5705 33.7843 13.5372C33.7621 13.5233 33.7343 13.5205 33.7121 13.5205C33.6732 13.5233 33.6399 13.5483 33.6176 13.5816Z" fill="#F5D402"/>
<path d="M33.2315 13.7867C33.2092 13.8034 33.2426 14.0034 33.2342 14.1756C33.2287 14.3395 33.1731 14.3867 33.1481 14.4395C33.1204 14.4895 33.0287 14.5534 33.0287 14.5534L33.1092 14.6339C33.1092 14.6339 33.1592 14.5534 33.2398 14.3978C33.3342 14.2117 33.3342 13.8756 33.3592 13.8589C33.3815 13.8423 33.5815 13.795 33.5815 13.795C33.5815 13.795 33.4009 13.7839 33.3009 13.7839C33.262 13.7839 33.2398 13.7839 33.2315 13.7867Z" fill="#F5D402"/>
<path d="M33.2511 14.7224C33.2511 14.7224 33.2789 14.6502 33.3678 14.4696C33.4789 14.253 33.715 14.0974 33.7178 14.0558C33.7234 14.0169 33.6345 13.8252 33.6345 13.8252C33.6345 13.8252 33.4289 13.8641 33.3983 13.8919C33.3678 13.9196 33.3817 14.203 33.2705 14.4196C33.1816 14.6002 33.1344 14.6669 33.1344 14.6669L33.2511 14.7224Z" fill="#F5D402"/>
<path d="M33.7843 14.0729C33.7871 14.1063 33.512 14.3035 33.4176 14.4868C33.337 14.6424 33.3037 14.7341 33.3037 14.7341L33.4148 14.7507C33.4148 14.7507 33.4093 14.6368 33.4343 14.5868C33.4648 14.5313 33.4704 14.4646 33.5982 14.3591C33.7343 14.2535 33.9176 14.159 33.9148 14.1285C33.9148 14.1007 33.7121 13.8507 33.7121 13.8507C33.7121 13.8507 33.7815 14.0479 33.7843 14.0729Z" fill="#F5D402"/>
<path d="M32.9815 15.288C33.1453 14.9658 33.1953 14.9436 33.2176 14.9019C33.2398 14.8602 33.2342 14.7991 33.162 14.763C33.1342 14.7491 33.112 14.7463 33.0926 14.7463C33.0592 14.7491 33.0315 14.7741 33.0204 14.7991C33.0009 14.838 33.0092 14.8963 32.8481 15.2158L32.4759 15.9491C32.4759 15.9491 32.437 16.0213 32.5092 16.0602C32.5815 16.0963 32.6148 16.0241 32.6148 16.0241L32.9815 15.288Z" fill="#F5D402"/>
<path d="M32.3231 16.1309C32.3037 16.1698 32.337 16.2309 32.4037 16.2615C32.4676 16.2948 32.537 16.2892 32.5564 16.2476C32.5759 16.2087 32.5398 16.1476 32.4759 16.117C32.4426 16.1004 32.412 16.0948 32.3815 16.0976C32.3509 16.1004 32.3315 16.1115 32.3231 16.1309Z" fill="#F5D402"/>
<path d="M32.1813 16.3394C32.1535 16.3922 32.1952 16.4672 32.2758 16.5061C32.3535 16.545 32.4369 16.5367 32.4619 16.4839C32.4896 16.4311 32.448 16.3561 32.3674 16.3172C32.3369 16.3033 32.3119 16.295 32.2813 16.295C32.2397 16.2894 32.198 16.3061 32.1813 16.3394Z" fill="#F5D402"/>
<path d="M32.0956 16.5693C32.0761 16.6082 32.1095 16.6693 32.1761 16.6999C32.24 16.7332 32.3094 16.7277 32.3289 16.686C32.3483 16.6471 32.315 16.586 32.2483 16.5554C32.215 16.5387 32.1817 16.5332 32.1539 16.536C32.1289 16.5387 32.1067 16.5499 32.0956 16.5693Z" fill="#F5D402"/>
<path d="M32.0399 16.7933C32.0399 16.7933 31.626 17.61 31.4788 17.8961C31.4316 17.9905 31.2343 18.0461 31.1593 18.1961C31.0816 18.3489 31.1371 18.4905 31.2399 18.5433C31.3399 18.5933 31.4899 18.5572 31.5677 18.4072C31.6454 18.2572 31.5732 18.06 31.6204 17.9711C31.7677 17.685 32.1815 16.8683 32.1815 16.8683C32.1815 16.8683 32.2204 16.7961 32.1482 16.7572C32.1288 16.7461 32.1149 16.7461 32.101 16.7461C32.0593 16.7489 32.0399 16.7933 32.0399 16.7933Z" fill="#F5D402"/>
<path d="M30.9898 18.6864C30.9592 18.7475 30.9925 18.8308 31.0703 18.8669C31.1481 18.9058 31.2342 18.8864 31.2648 18.828C31.2953 18.7669 31.2592 18.6836 31.1814 18.6475C31.1509 18.6336 31.1259 18.6281 31.0953 18.6281C31.0509 18.6281 31.0092 18.6503 30.9898 18.6864Z" fill="#F5D402"/>
<path d="M30.4398 19.9353C30.4176 19.9353 30.3954 19.9408 30.3898 19.9575C30.3731 19.988 30.4065 20.038 30.462 20.0686C30.5176 20.0991 30.5787 20.0963 30.5926 20.063C30.6093 20.0325 30.5759 19.9825 30.5204 19.9519C30.4898 19.938 30.462 19.9325 30.4398 19.9353Z" fill="#F5D402"/>
<path d="M30.2428 20.0887V20.4915L30.5706 20.2554C30.5706 20.2554 30.5261 20.1748 30.4261 20.1276C30.3317 20.0804 30.2428 20.0887 30.2428 20.0887Z" fill="#F5D402"/>
<path d="M30.4483 11.1193C30.4483 10.8999 30.7371 10.6804 30.7371 10.6804H23.6649C23.6649 10.6804 23.9538 10.8971 23.9538 11.1193V16.386C23.9538 16.5249 23.9983 16.6166 24.0649 16.7027C24.1316 16.7999 24.2788 16.9305 24.4288 17.0249C24.8927 17.3277 25.6677 17.6444 26.2594 17.911C26.7483 18.1332 26.9483 18.2249 27.2038 18.5388C27.4566 18.2221 27.6594 18.1332 28.151 17.911C28.7371 17.6444 29.5149 17.3249 29.9816 17.0249C30.1316 16.9277 30.2788 16.7943 30.3455 16.7027C30.4121 16.6166 30.4566 16.5221 30.4566 16.386L30.4483 11.1193Z" fill="#F5D402"/>
<path d="M24.1231 14.1007V11.1202C24.1231 10.9507 24.037 10.8507 24.037 10.8507H30.3675C30.3675 10.8507 30.2814 10.9535 30.2814 11.1202L30.2842 14.1007L27.2037 15.0341L24.1231 14.1007Z" fill="#D10429"/>
<path d="M30.2846 14.0998L28.379 14.0637H26.0318L24.1262 14.0998V16.3859C24.1262 16.4998 24.2457 16.7693 24.9318 17.1137C26.0679 17.6804 26.9429 17.9443 27.204 18.2665C27.4679 17.9443 28.3401 17.6804 29.4763 17.1137C30.1624 16.7693 30.2818 16.4998 30.2818 16.3859V14.0998H30.2846Z" fill="#0B45BB"/>
<path d="M28.3315 13.9808C28.3315 13.9808 29.4315 13.703 29.4315 12.528C29.4315 11.6086 28.3287 11.1558 28.2981 10.9336C28.1926 11.3142 28.6676 11.8364 28.6676 12.4558C28.6676 13.2586 28.0731 13.2947 28.0731 13.2947C27.9343 13.2947 27.8787 13.3947 27.8231 13.3947C27.7065 13.3808 27.6537 13.2336 27.537 13.2336C27.4315 13.2336 27.3482 13.4003 27.2037 13.4003C27.0593 13.4003 26.9815 13.2336 26.8704 13.2336C26.7537 13.2336 26.7009 13.3808 26.5843 13.3947C26.5315 13.3947 26.4732 13.2947 26.3343 13.2947C26.3343 13.2947 25.7398 13.2558 25.7398 12.4558C25.7398 11.8364 26.2176 11.3114 26.1093 10.9336C26.0787 11.153 24.976 11.6114 24.976 12.528C24.976 13.7058 26.0759 13.9808 26.0759 13.9808L25.7621 14.5503C25.7621 14.5503 26.2148 14.5725 26.4593 14.7808C26.7482 15.028 26.7232 15.5531 26.7232 15.9364C26.7232 16.2364 26.687 16.5558 26.5287 16.6864C26.3232 16.8642 26.1815 16.8753 26.1815 17.0836C26.1815 17.2558 26.3148 17.2892 26.5287 17.4031C26.8065 17.5503 26.7926 17.7419 27.2009 17.7419C27.6093 17.7419 27.6009 17.5447 27.8787 17.4031C28.0954 17.2892 28.2259 17.2531 28.2259 17.0836C28.2259 16.8781 28.087 16.8642 27.8787 16.6864C27.7259 16.5558 27.6843 16.2364 27.6843 15.9364C27.6843 15.5531 27.6565 15.0253 27.9481 14.7808C28.187 14.5753 28.6454 14.5503 28.6454 14.5503L28.3315 13.9808Z" fill="black"/>
<path d="M27.201 11.0138L27.0121 11.5582L26.4927 11.311L26.7399 11.8305L26.1954 12.0249L26.7399 12.2193L26.4927 12.7388L27.0121 12.4916L27.201 13.036L27.3954 12.4916L27.9149 12.7388L27.6677 12.2193L28.2121 12.0249L27.6677 11.8305L27.9149 11.311L27.3954 11.5582L27.201 11.0138Z" fill="black"/>
<path d="M26.0287 14.0642C26.0287 14.0642 25.3482 13.8975 25.0954 13.5614C24.6509 13.9614 24.1232 14.0975 24.1232 14.0975C24.1232 14.0975 24.6759 14.3475 25.0954 14.6642C25.2926 14.3892 26.0287 14.0642 26.0287 14.0642Z" fill="black"/>
<path d="M28.3761 14.0632C28.3761 14.0632 29.115 14.391 29.3095 14.666C29.7289 14.3493 30.2817 14.0993 30.2817 14.0993C30.2817 14.0993 29.7511 13.9605 29.3095 13.5632C29.0567 13.8966 28.3761 14.0632 28.3761 14.0632Z" fill="black"/>
<path d="M26.3093 14.785L26.0454 15.0489L26.3093 15.3128L26.5732 15.0489L26.3093 14.785Z" fill="black"/>
<path d="M28.0981 14.785L27.8342 15.0489L28.0981 15.3128L28.362 15.0489L28.0981 14.785Z" fill="black"/>
<path d="M26.2427 16.3304C26.2427 16.6637 26.2094 16.8415 26.2094 16.8415C26.2094 16.8415 26.5816 16.7304 26.6566 16.3554C26.6899 16.1776 26.7288 15.5248 26.551 15.4109L26.0649 15.3137C26.1177 15.4471 26.2427 15.8498 26.2427 16.3304Z" fill="black"/>
<path d="M27.8566 15.4109C27.676 15.5221 27.7177 16.1748 27.751 16.3554C27.8232 16.7332 28.1983 16.8415 28.1983 16.8415C28.1983 16.8415 28.1649 16.6637 28.1649 16.3304C28.1649 15.8471 28.2872 15.4443 28.3427 15.3137L27.8566 15.4109Z" fill="black"/>
<path d="M25.0953 15.4306C24.9286 15.475 24.8258 15.6445 24.8675 15.8111C24.873 15.8389 24.8841 15.8611 24.898 15.8806C24.8758 15.875 24.848 15.8667 24.8203 15.8639C24.8091 15.8639 24.798 15.8639 24.7869 15.8639C24.6258 15.8695 24.498 15.9945 24.4841 16.1584C24.4703 16.3306 24.6036 16.4778 24.7786 16.4917C24.8064 16.4945 24.8286 16.4917 24.8564 16.4889C24.8425 16.5083 24.8286 16.5333 24.8203 16.5556C24.7564 16.7167 24.8341 16.9028 24.9925 16.9667C25.1536 17.0306 25.3369 16.95 25.398 16.7889C25.4091 16.7667 25.4147 16.7389 25.4175 16.7167C25.4314 16.7361 25.4508 16.7556 25.4703 16.7722C25.6036 16.8833 25.8008 16.8667 25.9147 16.7333C26.0258 16.6 26.0091 16.4028 25.8758 16.2945C25.8564 16.2778 25.8314 16.2639 25.8119 16.2556C25.8341 16.25 25.8591 16.2361 25.8814 16.2222C26.0286 16.1278 26.0703 15.9361 25.9814 15.7889C25.9175 15.6889 25.8091 15.6361 25.698 15.6417C25.648 15.6445 25.598 15.6611 25.5508 15.6889C25.5286 15.7028 25.5064 15.7195 25.4897 15.7361C25.4897 15.7084 25.4869 15.6861 25.4786 15.6584C25.4425 15.5111 25.3064 15.4139 25.1619 15.4222C25.1397 15.4222 25.1147 15.4278 25.0953 15.4306Z" fill="black"/>
<path d="M28.4232 16.344C28.4566 16.6635 28.7177 16.9301 29.0371 17.0079C28.9843 16.919 28.9482 16.819 28.9343 16.7107C28.8954 16.3301 29.1871 16.0246 29.5871 16.0246C29.6509 16.0246 29.7093 16.0301 29.7704 16.0468C29.6315 15.8162 29.3649 15.6523 29.0732 15.6523C28.676 15.6523 28.3816 15.9635 28.4232 16.344Z" fill="black"/>
<path d="M25.5815 12.4565C25.5815 13.0592 25.9037 13.4176 26.3343 13.4176C26.4176 13.4176 26.5065 13.5287 26.5843 13.5287C26.7121 13.5287 26.7954 13.3898 26.8704 13.3898C26.9676 13.3898 27.0343 13.5426 27.2037 13.5426C27.3732 13.5426 27.4398 13.3898 27.5371 13.3898C27.6148 13.3898 27.6982 13.5287 27.8232 13.5287C27.9009 13.5287 27.9898 13.4176 28.0732 13.4176C28.5037 13.4176 28.8259 13.062 28.8259 12.4565C28.8259 11.962 28.4121 11.362 28.4565 11.2676C28.4565 11.2676 29.2621 11.8481 29.2621 12.5287C29.2621 13.6287 28.1482 13.8981 28.1482 13.8981L28.3982 14.462C28.3982 14.462 28.0509 14.5148 27.8426 14.6842C27.5621 14.912 27.5593 15.5231 27.5593 15.937C27.5593 16.4231 27.5759 16.6342 27.7537 16.7648C27.9398 16.9037 28.0815 16.9342 28.0815 17.0787C28.0815 17.2009 27.9371 17.2509 27.7482 17.3342C27.5343 17.4287 27.5121 17.5898 27.2037 17.5898C26.8926 17.5898 26.8732 17.4259 26.6593 17.3342C26.4732 17.2509 26.3259 17.2009 26.3259 17.0787C26.3259 16.9342 26.4648 16.9064 26.6537 16.7648C26.8315 16.6315 26.8482 16.4259 26.8482 15.937C26.8482 15.5231 26.8454 14.9092 26.5648 14.6842C26.3537 14.5148 26.0093 14.462 26.0093 14.462L26.2593 13.8981C26.2593 13.8981 25.1454 13.6287 25.1454 12.5287C25.1454 11.8454 25.9509 11.2676 25.9509 11.2676C25.9954 11.3648 25.5815 11.9648 25.5815 12.4565ZM26.7815 16.9953C26.5621 16.9953 26.4204 17.0426 26.4204 17.1092C26.4204 17.1759 26.5593 17.2203 26.7815 17.2203C26.8426 17.2203 26.9037 17.187 26.9037 17.1092C26.9065 17.0314 26.8398 16.9953 26.7815 16.9953ZM27.6259 16.9953C27.5648 16.9953 27.5037 17.0314 27.5037 17.1092C27.5037 17.187 27.5704 17.2203 27.6259 17.2203C27.8454 17.2203 27.9871 17.1759 27.9871 17.1092C27.9843 17.0398 27.8454 16.9953 27.6259 16.9953Z" fill="#FFD200"/>
<path d="M27.2065 11.3806L27.3287 11.7278L27.6593 11.5667L27.5037 11.9001L27.8482 12.0223L27.5037 12.1445L27.6593 12.4751L27.3287 12.3195L27.2065 12.6639L27.0843 12.3195L26.7537 12.4751L26.9093 12.1445L26.5648 12.0223L26.9093 11.9001L26.7537 11.5667L27.0843 11.7278L27.2065 11.3806Z" fill="#FFD200"/>
<path d="M25.665 14.0831L25.0956 14.5053L25.09 14.5165L25.0761 14.5053L24.4456 14.1109C24.4456 14.1109 24.8483 13.972 25.0844 13.7303C25.3122 13.9859 25.665 14.0831 25.665 14.0831Z" fill="#FFD200"/>
<path d="M29.9594 14.1102C29.9594 14.1102 29.5399 14.3213 29.3288 14.5074L29.3149 14.5186L29.3094 14.5074C29.1093 14.2769 28.7399 14.0852 28.7399 14.0852C28.7399 14.0852 29.0954 13.988 29.3205 13.7324C29.5594 13.9685 29.9594 14.1102 29.9594 14.1102Z" fill="#FFD200"/>
<path d="M26.3094 14.9131L26.4455 15.0492L26.3094 15.1881L26.1705 15.0492L26.3094 14.9131Z" fill="#FFD200"/>
<path d="M28.098 14.9131L28.2369 15.0492L28.098 15.1881L27.9619 15.0492L28.098 14.9131Z" fill="#FFD200"/>
<path d="M26.4954 15.5169C26.5926 15.6502 26.5759 15.8669 26.5759 16.1669C26.5759 16.4697 26.3481 16.5836 26.3481 16.5836C26.3481 15.8558 26.2759 15.6836 26.2343 15.4641L26.4954 15.5169Z" fill="#FFD200"/>
<path d="M28.1735 15.4641C28.1346 15.6836 28.0596 15.8586 28.0596 16.5836C28.0596 16.5836 27.8318 16.4669 27.8318 16.1669C27.8318 15.8669 27.8151 15.6502 27.9123 15.5169L28.1735 15.4641Z" fill="#FFD200"/>
<path d="M25.4232 15.7373C25.4288 15.765 25.4288 15.79 25.4288 15.8178C25.426 15.84 25.4232 15.8567 25.4121 15.8789C25.376 15.865 25.3316 15.8595 25.2927 15.8595C25.1871 15.8595 25.0927 15.9067 25.0288 15.9789C25.0121 15.9623 24.9955 15.9456 24.9843 15.9289C24.9705 15.9095 24.9566 15.8817 24.951 15.8595C24.9177 15.7289 24.9982 15.5956 25.1288 15.5623C25.1455 15.5595 25.1621 15.5567 25.1788 15.5567C25.2927 15.5511 25.3955 15.6234 25.4232 15.7373Z" fill="#FFD200"/>
<path d="M25.7842 16.1954C25.762 16.2093 25.7342 16.2176 25.712 16.226C25.6925 16.2287 25.6675 16.2315 25.6481 16.2287C25.6481 16.1898 25.6453 16.1482 25.6314 16.1093C25.5981 16.0093 25.5259 15.9315 25.4342 15.8954C25.4453 15.876 25.4536 15.8565 25.4675 15.8399C25.4842 15.8204 25.5037 15.801 25.5231 15.7871C25.637 15.7176 25.787 15.751 25.8592 15.8649C25.8703 15.8787 25.8759 15.8954 25.8814 15.9093C25.9259 16.0065 25.8842 16.1315 25.7842 16.1954Z" fill="#FFD200"/>
<path d="M25.4648 16.6805C25.4454 16.6639 25.4287 16.6417 25.4148 16.6167C25.4037 16.5972 25.3981 16.5806 25.3926 16.5556C25.4315 16.5444 25.4704 16.525 25.5037 16.5028C25.5898 16.4389 25.637 16.35 25.6481 16.25C25.6704 16.2528 25.6926 16.2556 25.7148 16.2667C25.737 16.2778 25.762 16.2861 25.7843 16.3056C25.887 16.3917 25.9009 16.5444 25.8148 16.65C25.8037 16.6639 25.7926 16.6722 25.7787 16.6833C25.6842 16.7528 25.5565 16.7555 25.4648 16.6805Z" fill="#FFD200"/>
<path d="M24.9065 16.5282C24.9176 16.5004 24.9342 16.4809 24.9509 16.4615C24.9648 16.4448 24.9815 16.4309 25.0009 16.4226C25.0231 16.4559 25.0509 16.4865 25.087 16.5087C25.1732 16.5726 25.2759 16.5893 25.3704 16.5698C25.3732 16.592 25.3759 16.6143 25.3759 16.6365C25.3759 16.6643 25.3704 16.6893 25.3593 16.7143C25.3093 16.8365 25.1648 16.8976 25.0426 16.8476C25.0259 16.842 25.012 16.8337 24.9981 16.8254C24.9009 16.7559 24.862 16.6337 24.9065 16.5282Z" fill="#FFD200"/>
<path d="M24.8788 15.9434C24.9066 15.9462 24.9316 15.9545 24.9566 15.9629C24.976 15.974 24.9927 15.9823 25.0093 15.9962C24.9871 16.0268 24.9649 16.0657 24.9538 16.1073C24.9204 16.2073 24.9371 16.3101 24.9871 16.3962C24.9677 16.4073 24.9482 16.4157 24.9232 16.424C24.8982 16.4323 24.8732 16.4351 24.8454 16.4351C24.7121 16.424 24.6093 16.3073 24.6177 16.174C24.6177 16.1573 24.6204 16.1407 24.6288 16.124C24.6565 16.0101 24.7593 15.9323 24.8788 15.9434Z" fill="#FFD200"/>
<path d="M25.2928 16.4527C25.4232 16.4527 25.5289 16.347 25.5289 16.2166C25.5289 16.0862 25.4232 15.9805 25.2928 15.9805C25.1624 15.9805 25.0566 16.0862 25.0566 16.2166C25.0566 16.347 25.1624 16.4527 25.2928 16.4527Z" fill="#FFD200"/>
<path d="M29.4259 15.8966C29.037 15.9743 28.7536 16.316 28.7953 16.7188C28.673 16.616 28.5786 16.4743 28.5619 16.3216C28.5286 16.0216 28.7481 15.791 29.0758 15.791C29.2008 15.7966 29.3231 15.8327 29.4259 15.8966Z" fill="#FFD200"/>
</g>
<defs>
<clipPath id="clip0_93_5687">
<rect width="53.3333" height="30" fill="white" transform="translate(0.662109)"/>
</clipPath>
</defs>
</svg>
