<svg width="54" height="30" viewBox="0 0 54 30" fill="none" xmlns="http://www.w3.org/2000/svg">
<g clip-path="url(#clip0_93_10166)">
<path d="M0.605957 0H54.0504V30H0.605957V0Z" fill="#DA2032"/>
<path d="M18.4194 0H36.2333V30H18.4194V0Z" fill="#0066B3"/>
<path d="M4.61389 13.6639H6.84167V24.3528H4.61389V13.6639ZM12.1861 13.6639H14.4111V24.3528H12.1833V13.6639H12.1861ZM7.28611 23.0166L9.51389 24.3528L11.7417 23.0166H7.28611ZM7.28611 21.6805H11.7389V22.5722H7.28611V21.6805ZM7.28611 13.6639L9.51389 15L11.7417 13.6639H7.28611ZM7.28611 15.4444H11.7389V16.3361H7.28611V15.4444ZM10.5722 17.0528C10.7361 17.2805 10.825 17.5528 10.825 17.8278C10.825 18.5528 10.2361 19.1417 9.51111 19.1417C8.93333 19.1417 8.46389 19.6083 8.46389 20.1889C8.46389 20.7694 8.93056 21.2361 9.51111 21.2361C10.7417 21.2361 11.7389 20.2389 11.7389 19.0083C11.7389 18.1889 11.2889 17.4417 10.5722 17.0528ZM9.51389 19.7444C9.75833 19.7444 9.95833 19.9444 9.95833 20.1889C9.95833 20.4333 9.75833 20.6333 9.51389 20.6333C9.26945 20.6333 9.06945 20.4333 9.06945 20.1889C9.06945 19.9444 9.26667 19.7444 9.51389 19.7444Z" fill="#FFD900"/>
<path d="M8.45838 20.9637C8.29449 20.7359 8.2056 20.4637 8.2056 20.1887C8.2056 19.4637 8.79449 18.8748 9.51949 18.8748C10.0973 18.8748 10.5667 18.4081 10.5667 17.8276C10.5667 17.2498 10.1 16.7803 9.51949 16.7803C8.28893 16.7803 7.29171 17.7776 7.29171 19.0081C7.28616 19.8276 7.73616 20.5748 8.45838 20.9637ZM9.51394 18.272C9.26949 18.272 9.06949 18.072 9.06949 17.8276C9.06949 17.5831 9.26949 17.3831 9.51394 17.3831C9.75838 17.3831 9.95838 17.5831 9.95838 17.8276C9.95838 18.072 9.75838 18.272 9.51394 18.272ZM7.06671 10.7192C7.06671 10.7359 7.06116 10.7498 7.06116 10.7692C7.06116 12.122 8.1556 13.2192 9.51116 13.2192C10.8667 13.2192 11.9612 12.1248 11.9612 10.7692C11.9612 10.7553 11.9612 10.7387 11.9612 10.7248C11.5389 11.6998 10.575 12.3276 9.51116 12.3276C8.45282 12.3276 7.49171 11.6942 7.06671 10.7192Z" fill="#FFD900"/>
<path d="M9.51371 11.8804C10.4971 11.8804 11.2943 11.0833 11.2943 10.0999C11.2943 9.11652 10.4971 8.31934 9.51371 8.31934C8.53034 8.31934 7.73315 9.11652 7.73315 10.0999C7.73315 11.0833 8.53034 11.8804 9.51371 11.8804Z" fill="#FFD900"/>
<path d="M9.70005 4.31116C9.47783 4.41394 9.39728 4.59171 9.38061 4.77505C9.36672 4.92782 9.43894 5.10005 9.44172 5.24727C9.44172 5.50005 9.17783 5.58616 9.17783 5.95005C9.17783 6.07505 9.2945 6.21394 9.2945 6.53894C9.27783 6.70838 9.17783 6.74727 9.07228 6.76116C8.94728 6.76116 8.85005 6.66394 8.85005 6.53894C8.85005 6.4806 8.87228 6.42783 8.91117 6.38616C8.9195 6.37783 8.92505 6.37227 8.93339 6.36394C8.98339 6.31116 9.05283 6.29171 9.05283 6.15838C9.05283 6.08616 9.00839 6.02505 8.96394 5.9056C8.92505 5.78616 8.95005 5.58616 9.04728 5.46949C8.89172 5.52782 8.7945 5.67783 8.7445 5.81116C8.69172 5.97505 8.73894 6.06949 8.6695 6.20838C8.62505 6.29727 8.57505 6.33338 8.52783 6.40838C8.4695 6.48894 8.40283 6.67505 8.40283 6.76394C8.40283 7.37783 8.90283 7.87783 9.51672 7.87783C10.1306 7.87783 10.6306 7.37783 10.6306 6.76394C10.6306 6.67505 10.5639 6.48894 10.5056 6.40838C10.4556 6.33338 10.4028 6.29727 10.3639 6.20838C10.2917 6.06949 10.3362 5.97783 10.2889 5.81116C10.2389 5.67783 10.1417 5.52505 9.98617 5.46949C10.0834 5.58616 10.1112 5.78616 10.0695 5.9056C10.0251 6.0306 9.98061 6.09171 9.98061 6.15838C9.98061 6.29171 10.0528 6.31394 10.1001 6.36394C10.1084 6.37227 10.1167 6.37783 10.1223 6.38616C10.1612 6.42505 10.1834 6.48338 10.1834 6.53894C10.1834 6.66394 10.0862 6.76116 9.96116 6.76116C9.83616 6.74727 9.74728 6.68894 9.73894 6.53894C9.73894 6.11116 9.92228 6.08338 9.92228 5.76394C9.92228 5.30838 9.51672 5.09449 9.51672 4.76671C9.51394 4.65282 9.53894 4.46394 9.70005 4.31116Z" fill="#FFD900"/>
</g>
<defs>
<clipPath id="clip0_93_10166">
<rect width="53.3333" height="30" fill="white" transform="translate(0.661133)"/>
</clipPath>
</defs>
</svg>
