<svg width="55" height="30" viewBox="0 0 55 30" fill="none" xmlns="http://www.w3.org/2000/svg">
<g clip-path="url(#clip0_93_45318)">
<path d="M61.7578 -0.119385H0.827286V30.3445H61.7578V-0.119385Z" fill="#012169"/>
<path d="M0.827286 -0.119385L31.2912 15.1112L0.827286 -0.119385ZM31.2912 -0.119385L0.827286 15.1112L31.2912 -0.119385Z" fill="black"/>
<path d="M30.6111 16.4721L16.0583 9.19707L1.50833 16.4721L0.147217 13.7526L12.6528 7.49707L0.147217 1.24151L1.50833 -1.48071L16.0583 5.79429L30.6111 -1.48071L31.9722 1.24151L19.4667 7.49707L31.9722 13.7526L30.6111 16.4721Z" fill="white"/>
<path d="M0.827286 -0.119385L31.2912 15.1112L0.827286 -0.119385ZM31.2912 -0.119385L0.827286 15.1112L31.2912 -0.119385Z" fill="black"/>
<path d="M30.8407 16.0224L16.0573 8.63346L1.27679 16.0224L0.374008 14.2029L13.7879 7.49735L0.374008 0.789018L1.27679 -1.02765L16.0573 6.35846L30.8407 -1.02765L31.7434 0.789018L18.3296 7.49735L31.7434 14.2029L30.8407 16.0224Z" fill="#C8102E"/>
<path d="M16.0578 -0.119385V17.6528V-0.119385ZM0.827286 7.49728H36.369H0.827286Z" fill="black"/>
<path d="M18.5967 17.6501H13.5217V10.0362H0.827286V4.95839H13.5217V-0.119385H18.5967V4.95839H36.369V10.0362H18.5967V17.6501Z" fill="white"/>
<path d="M16.0578 -0.119385V17.6528V-0.119385ZM0.827286 7.49728H36.369H0.827286Z" fill="black"/>
<path d="M17.5828 17.6501H14.5356V9.01951H0.827286V5.97228H14.5356V-0.119385H17.5828V5.97228H36.369V9.01951H17.5828V17.6501Z" fill="#C8102E"/>
<path d="M0.827286 15.1112H31.2912V-0.119385H61.7551V30.3445H0.827286V15.1112Z" fill="#012169"/>
<path d="M36.5214 7.48071H49.7214L49.7047 16.8724C49.8131 20.6501 47.4603 22.9918 43.1325 24.0446C40.0603 23.2779 36.5131 21.7001 36.5103 16.9779L36.5214 7.48071Z" fill="white"/>
<path d="M36.8166 7.76398H49.4305L49.4138 16.7668C49.5166 20.3834 47.2722 22.6306 43.1305 23.6418C40.1916 22.9112 36.8055 21.3973 36.7999 16.8695L36.8166 7.76398Z" fill="#00A2BD"/>
<path d="M43.1306 23.6862L43.1195 23.6806C40.3917 23.0028 36.7584 21.5528 36.7528 16.8612L36.7695 7.7556H36.8167V7.70837H49.4778V7.7556L49.4612 16.7584C49.5639 20.3 47.4362 22.625 43.1417 23.6806L43.1306 23.6862ZM36.8612 7.80837L36.8445 16.8612C36.85 21.4806 40.4306 22.9139 43.1278 23.5862C47.3667 22.5473 49.4639 20.25 49.3667 16.7612L49.3834 7.8056L36.8612 7.80837Z" fill="black"/>
<path d="M49.3277 17.8277C48.8694 21.2805 46.2083 22.7916 43.1249 23.5916C40.3972 22.861 37.461 21.6916 36.8972 17.8471L49.3277 17.8277Z" fill="#A53D08"/>
<path d="M42.633 9.44452L42.6164 8.30841L43.5164 8.31952L43.5275 9.44452H45.9775L45.9886 10.3223L43.5275 10.3334L43.508 20.7028L42.6358 20.7084L42.6164 10.3251L40.1692 10.3362V9.43619L42.633 9.44452Z" fill="black"/>
<path fill-rule="evenodd" clip-rule="evenodd" d="M40.6439 18.2612L42.8884 20.5889C43.6634 19.7362 43.1245 16.5445 42.1078 15.9584C41.9856 16.3389 41.78 16.7917 41.5578 16.9334C41.0689 17.2667 39.8773 17.6528 40.2773 17.9C40.3689 17.7723 40.605 17.6528 40.7189 17.9362C40.8523 18.3778 40.2217 18.4028 40.2217 18.4028C40.2217 18.4028 39.8217 18.3528 39.755 17.9445C39.6828 17.5389 40.3523 17.1695 40.4078 17.1389C40.4634 17.1195 41.3328 16.8862 41.4772 16.1167C41.6578 15.3612 41.8467 15.475 41.8828 15.4584C43.0189 15.5723 43.7578 17.6 43.7995 19.025C43.8411 20.4528 43.2189 21.4001 43.105 21.4612C42.9911 21.5223 40.4023 18.3889 40.4023 18.3889L40.6439 18.2612Z" fill="#FF9A08"/>
<path d="M43.0942 21.4973C43.0442 21.4973 42.8636 21.3584 41.6858 19.9751C41.0331 19.2084 40.3858 18.4223 40.3747 18.4195L40.3692 18.414C40.2858 18.4334 40.2192 18.4334 40.2164 18.4334C40.2053 18.4334 39.7942 18.3778 39.722 17.9556C39.6442 17.514 40.3803 17.1278 40.3858 17.1223C40.3914 17.1223 40.4025 17.1167 40.4053 17.1112C40.7386 17.0028 41.3192 16.7306 41.4386 16.114C41.5831 15.5084 41.7358 15.4306 41.8497 15.4362C41.8553 15.4362 41.8608 15.4362 41.8608 15.4362H41.8664H41.8719C42.3914 15.4862 42.883 15.9501 43.258 16.7417C43.583 17.4195 43.7886 18.2778 43.808 19.0278C43.8497 20.4723 43.2108 21.4223 43.1053 21.4834C43.1108 21.4917 43.1053 21.4973 43.0942 21.4973ZM40.4386 18.4056C41.4303 19.6084 42.9358 21.3806 43.0942 21.4417C43.2136 21.3556 43.808 20.4306 43.7664 19.0306C43.7247 17.6278 42.9858 15.6028 41.8747 15.4862C41.8692 15.4862 41.8581 15.4862 41.8553 15.4862C41.8053 15.4862 41.6497 15.4806 41.4969 16.1223C41.3747 16.764 40.7775 17.0417 40.4275 17.1556C40.4164 17.1612 40.4108 17.1612 40.4108 17.1612C40.2608 17.2334 39.7164 17.589 39.7747 17.9362C39.8414 18.3223 40.2164 18.3667 40.222 18.3723C40.222 18.3723 40.3497 18.3667 40.4775 18.3167L40.6164 18.2334C40.6331 18.2167 40.647 18.2028 40.6636 18.1834C40.7108 18.1167 40.7192 18.0306 40.6886 17.9306C40.6525 17.839 40.597 17.7862 40.5303 17.7778C40.4442 17.7667 40.3442 17.8334 40.2942 17.9001L40.2775 17.9195L40.2581 17.9084C40.197 17.8667 40.1664 17.8223 40.1664 17.7695C40.1775 17.6001 40.5525 17.414 40.9525 17.214C41.1692 17.1056 41.3886 16.9973 41.5386 16.8945C41.7553 16.7501 41.9608 16.3028 42.0831 15.9278L42.0942 15.8973L42.1192 15.914C42.608 16.1917 43.033 17.1001 43.208 18.2251C43.3358 19.0639 43.3275 20.1223 42.9053 20.5834L42.8886 20.6028L40.6386 18.2695C40.597 18.3056 40.547 18.3306 40.4942 18.3528L40.4386 18.4056ZM40.6803 18.2556L42.8886 20.5528C43.2164 20.1667 43.3192 19.289 43.1608 18.2556C42.9914 17.1667 42.5858 16.289 42.1219 15.9945C41.9997 16.3695 41.7886 16.8112 41.5719 16.9556C41.4192 17.0584 41.1969 17.1723 40.9747 17.2806C40.6247 17.4556 40.2247 17.6501 40.2192 17.789C40.2192 17.8195 40.2358 17.8445 40.2692 17.8723C40.3303 17.8001 40.4331 17.7334 40.5358 17.7445C40.597 17.7501 40.6803 17.7917 40.7358 17.9306C40.772 18.0501 40.7608 18.1473 40.7053 18.2278C40.6942 18.2362 40.6858 18.2445 40.6803 18.2556Z" fill="black"/>
<path d="M42.2834 16.0917L42.3001 20.2944L42.2834 16.0917Z" fill="#FF9A08"/>
<path d="M42.3066 16.0917L42.2566 16.0919L42.2705 20.2946L42.3205 20.2945L42.3066 16.0917Z" fill="black"/>
<path d="M42.0301 16.1694C42.0301 16.1749 42.0468 19.986 42.0468 19.986L42.0301 16.1694Z" fill="#FF9A08"/>
<path d="M42.0215 19.986C42.0215 19.8333 42.0048 16.1722 42.0048 16.1694H42.0548C42.0548 16.1805 42.0715 19.9499 42.0715 19.986H42.0215Z" fill="black"/>
<path d="M41.7581 16.7195L41.7748 19.7557L41.7581 16.7195Z" fill="#FF9A08"/>
<path d="M41.7816 16.7196L41.7316 16.7198L41.7455 19.756L41.7955 19.7557L41.7816 16.7196Z" fill="black"/>
<path d="M41.5334 16.936L41.5501 19.4499L41.5334 16.936Z" fill="#FF9A08"/>
<path d="M41.5626 16.9364L41.5126 16.9366L41.5266 19.4505L41.5766 19.4502L41.5626 16.9364Z" fill="black"/>
<path d="M41.3222 17.0473H41.2722V19.1695H41.3222V17.0473Z" fill="black"/>
<path d="M41.0636 17.2167H41.0136V18.8972H41.0636V17.2167Z" fill="black"/>
<path d="M40.8376 17.35H40.7876V18.6334H40.8376V17.35Z" fill="black"/>
<path d="M42.9237 21.2C42.9182 21.2 42.9071 21.1944 42.9043 21.1889L40.5876 18.5361C40.5765 18.525 40.5765 18.5111 40.5876 18.5C40.5987 18.4889 40.6126 18.4889 40.6237 18.5L42.9404 21.1528C42.9515 21.1639 42.9515 21.1778 42.9404 21.1889C42.9348 21.2 42.9293 21.2 42.9237 21.2Z" fill="#FFDF00"/>
<path d="M43.1157 21.0804C43.1102 21.0804 43.0991 21.0804 43.0963 21.0749C43.0769 21.0638 43.0657 21.0332 43.0769 21.0138C44.0269 19.1693 43.0102 16.8915 42.9991 16.8721C42.988 16.8471 42.9991 16.8221 43.0185 16.811C43.0435 16.7999 43.0685 16.811 43.0796 16.8304C43.0907 16.8554 44.1269 19.1693 43.1574 21.0554C43.1463 21.0721 43.1296 21.0804 43.1157 21.0804Z" fill="#FFDF00"/>
<path d="M40.3358 18.0917C40.3302 18.0917 40.3247 18.0917 40.3191 18.0861C40.2941 18.075 40.283 18.05 40.2941 18.025C40.3052 18 40.3497 17.8805 40.4385 17.8611C40.4636 17.8555 40.4997 17.8555 40.5413 17.8861C40.5608 17.9028 40.5608 17.9333 40.5469 17.9528C40.5302 17.9722 40.4997 17.9722 40.4802 17.9583C40.4691 17.9472 40.4608 17.9472 40.4608 17.9472C40.4358 17.9528 40.3997 18.0139 40.383 18.0555C40.3719 18.075 40.3552 18.0917 40.3358 18.0917Z" fill="#FFDF00"/>
<path d="M39.9658 18.111C39.9547 18.111 39.9408 18.1055 39.9297 18.0944C39.8742 18.0333 39.8436 17.9666 39.8464 17.8833C39.8575 17.6583 40.1075 17.4305 40.1186 17.4222C40.1381 17.4055 40.1658 17.4055 40.1853 17.4277C40.202 17.4472 40.202 17.4749 40.1797 17.4944C40.1797 17.4944 39.9436 17.7055 39.9381 17.8888C39.9381 17.9444 39.9547 17.9916 39.9936 18.0333C40.0103 18.0527 40.0103 18.0805 39.9936 18.0999C39.9908 18.1055 39.9742 18.111 39.9658 18.111Z" fill="#FFDF00"/>
<path d="M43.5276 11.6167C43.6804 11.4834 43.7637 11.4001 43.861 11.4167C43.9582 11.4334 44.086 11.4223 44.186 11.3973C44.2832 11.3667 44.761 11.3112 44.9554 11.3778C45.0221 11.3834 45.1082 11.4251 45.2471 11.5362C45.386 11.6501 45.586 11.8501 45.5193 12.4056C45.4526 12.9612 45.4721 13.1973 45.4471 13.5112C45.3971 14.0612 45.2721 14.514 45.0554 14.4723C45.3526 14.9917 45.3804 15.4334 45.5748 15.7917C45.7693 16.1473 45.8887 16.8751 45.811 17.6556C45.7387 18.4417 45.5276 20.2056 46.1498 21.3917C46.0471 21.464 45.7943 21.3917 45.5748 21.1556C45.3526 20.9195 45.2554 20.9251 45.0721 21.0695C44.5082 21.5001 43.9832 22.014 43.2082 21.5001C43.0276 21.3806 42.9721 21.239 43.1054 20.8778C43.4304 19.9723 43.5887 18.7362 43.536 18.1501L43.5276 11.6167Z" fill="#008021"/>
<path d="M43.8295 21.7194C43.6351 21.7194 43.424 21.6583 43.1934 21.5027C43.024 21.3888 42.9462 21.2472 43.0851 20.8694C43.4101 19.975 43.5684 18.7361 43.5156 18.1472V11.6166L43.5212 11.6111C43.5379 11.5944 43.5518 11.5861 43.5684 11.5694C43.6962 11.4611 43.7684 11.3944 43.8601 11.4111C43.9573 11.4277 44.0851 11.4166 44.1795 11.3916C44.2656 11.3666 44.749 11.3 44.9545 11.3722C45.0379 11.3833 45.1295 11.4333 45.2518 11.5305C45.3656 11.6222 45.5962 11.8194 45.524 12.4083C45.4823 12.7472 45.4768 12.9694 45.4684 13.1639C45.4629 13.2833 45.4573 13.3944 45.449 13.5139C45.4129 13.8694 45.3406 14.3194 45.1712 14.4555C45.1406 14.4805 45.1045 14.4916 45.0629 14.4916C45.2212 14.7805 45.3045 15.0416 45.3768 15.2777C45.4323 15.4639 45.4906 15.6361 45.5712 15.7916C45.7462 16.1166 45.8906 16.8194 45.8073 17.6611C45.8018 17.6972 45.8018 17.7389 45.7962 17.7805C45.7184 18.5861 45.5545 20.2611 46.1462 21.3888L46.1518 21.4L46.1462 21.4055C46.0379 21.4833 45.7879 21.4111 45.5545 21.1694C45.3379 20.9388 45.2462 20.9444 45.0656 21.0833C45.0184 21.1194 44.9684 21.1611 44.9212 21.1972C44.5851 21.4527 44.2406 21.7194 43.8295 21.7194ZM43.5351 11.6222V18.1416C43.5851 18.7333 43.4267 19.9722 43.1045 20.8694C42.9712 21.2388 43.0379 21.3666 43.2017 21.4805C43.9045 21.9472 44.3934 21.5666 44.9129 21.1611C44.9601 21.125 45.0101 21.0833 45.0573 21.0472C45.2462 20.9027 45.349 20.8944 45.5768 21.1388C45.7934 21.3694 46.0295 21.4416 46.1323 21.3805C45.5406 20.25 45.7045 18.575 45.7823 17.7694C45.7879 17.7277 45.7934 17.6861 45.7934 17.65C45.8712 16.8111 45.7323 16.1083 45.5573 15.7889C45.4712 15.6361 45.4184 15.4555 45.3629 15.2694C45.2906 15.0333 45.2101 14.7611 45.0379 14.4666L45.0268 14.4472L45.0462 14.4527C45.0879 14.4583 45.124 14.4472 45.1545 14.4222C45.2823 14.325 45.3795 13.9944 45.4268 13.4972C45.4379 13.3777 45.4434 13.2666 45.4462 13.1472C45.4518 12.9527 45.4629 12.7305 45.5018 12.3916C45.574 11.8111 45.3434 11.6222 45.2351 11.5277C45.1156 11.4305 45.024 11.3777 44.9462 11.3694C44.7573 11.3027 44.2823 11.3583 44.1795 11.3889C44.0879 11.4194 43.9545 11.425 43.8518 11.4083C43.7684 11.3972 43.699 11.4583 43.574 11.5666C43.5656 11.5972 43.5517 11.6111 43.5351 11.6222Z" fill="black"/>
<path d="M44.0604 11.0611C44.102 11.1889 44.1215 11.35 44.0548 11.4972C43.9881 11.6472 43.9715 11.8222 44.0854 12.0361C44.2659 11.7833 44.5159 11.8361 44.6604 11.6861C44.8104 11.5361 44.8409 11.3972 44.9492 11.3666C44.8354 11.2694 44.6659 11.1666 44.702 10.8833C44.7381 10.6 45.1326 10.375 44.7742 9.94165C44.5437 9.66387 44.2104 9.74165 44.0659 9.84998C43.9993 9.89998 43.9437 9.9722 43.9159 10.0194C43.8965 10.0666 43.9215 10.1778 43.8687 10.2416C43.8326 10.2889 43.7854 10.3278 43.7354 10.3694C43.7048 10.3944 43.6798 10.4305 43.7159 10.4666C43.7326 10.4833 43.7576 10.4861 43.7826 10.4972C43.7659 10.5278 43.7465 10.5639 43.727 10.5889C43.7104 10.6083 43.7159 10.6361 43.7381 10.65C43.7131 10.7361 43.7631 10.7472 43.727 10.8139C43.6965 10.8694 43.6493 10.9416 43.7743 11.0028C43.8187 11.0361 43.977 11.0722 44.0604 11.0611Z" fill="#FFE1CF"/>
<path d="M44.0802 12.0583L44.0691 12.0417C43.9719 11.8472 43.9608 11.6667 44.0386 11.4917C44.1052 11.3417 44.0802 11.1833 44.0441 11.0694C43.958 11.075 43.808 11.0444 43.7719 11.0222C43.7247 10.9972 43.6997 10.9722 43.6886 10.9389C43.6775 10.8972 43.6997 10.8556 43.7191 10.8194L43.7247 10.8139C43.7414 10.7833 43.7414 10.7667 43.7302 10.7472C43.7247 10.7278 43.7191 10.7 43.7302 10.6611C43.7108 10.6417 43.7052 10.6139 43.7247 10.5889C43.7414 10.5694 43.7552 10.5417 43.7719 10.5111C43.7664 10.5111 43.7664 10.5111 43.7608 10.5056C43.7414 10.5 43.7191 10.4944 43.7108 10.4806C43.6941 10.4611 43.6914 10.4444 43.6914 10.425C43.6914 10.4056 43.708 10.3833 43.733 10.3639C43.7802 10.3278 43.8247 10.2861 43.8664 10.2417C43.8969 10.2056 43.8969 10.15 43.9025 10.1028C43.9025 10.0722 43.9025 10.0417 43.9136 10.0194C43.933 9.97223 43.9914 9.9 44.0636 9.84445C44.2275 9.72223 44.5608 9.66945 44.783 9.93612C45.0358 10.2389 44.9164 10.45 44.8136 10.6361C44.7664 10.7222 44.7219 10.8 44.7108 10.8889C44.6802 11.1361 44.808 11.2444 44.9164 11.3306C44.933 11.3417 44.9414 11.35 44.9525 11.3611L44.9691 11.3722L44.9497 11.3778C44.8886 11.3944 44.8525 11.4444 44.8052 11.5167C44.7691 11.5667 44.7275 11.6306 44.6664 11.6917C44.6052 11.7528 44.5219 11.7833 44.4358 11.8111C44.3164 11.8528 44.1886 11.8944 44.0914 12.0361L44.0802 12.0583ZM44.0664 11.0528L44.0719 11.0639C44.108 11.1778 44.1386 11.3528 44.0664 11.5056C43.9886 11.6694 43.9997 11.8389 44.0858 12.025C44.1886 11.8861 44.3164 11.8444 44.4302 11.8028C44.5136 11.7722 44.5941 11.7472 44.6525 11.6889C44.7136 11.6278 44.7552 11.5667 44.7914 11.5139C44.8386 11.4472 44.8747 11.3944 44.9302 11.3694C44.9247 11.3639 44.9136 11.3583 44.9108 11.35C44.8025 11.2583 44.6636 11.15 44.6997 10.8917C44.7108 10.8056 44.7552 10.7222 44.8025 10.6361C44.9052 10.4472 45.0136 10.25 44.7719 9.95834C44.5358 9.675 44.2025 9.77223 44.0775 9.86667C44.0108 9.91667 43.9552 9.98889 43.933 10.0306C43.9219 10.0472 43.9219 10.0778 43.9219 10.1028C43.9219 10.1528 43.9164 10.2111 43.8802 10.2528C43.8386 10.3028 43.7941 10.3444 43.7469 10.3806C43.7302 10.3917 43.7164 10.4056 43.7164 10.4278C43.7164 10.4444 43.7219 10.4528 43.733 10.4694C43.7441 10.4806 43.758 10.4861 43.7747 10.4889C43.7802 10.4889 43.7914 10.4944 43.7941 10.4944L43.8052 10.5L43.7997 10.5111C43.7802 10.5528 43.7636 10.5833 43.7441 10.6028C43.733 10.6139 43.7275 10.6278 43.7552 10.65L43.7608 10.6556V10.6611C43.7441 10.7028 43.7552 10.7222 43.7608 10.7444C43.7664 10.7694 43.7719 10.7917 43.7497 10.8278L43.7441 10.8333C43.7247 10.8639 43.708 10.9 43.7191 10.9361C43.7247 10.9611 43.7497 10.9861 43.7914 11.0083C43.8219 11.025 43.9775 11.0583 44.058 11.05L44.0664 11.0528Z" fill="black"/>
<path d="M42.6158 12.536C42.4102 12.586 42.0769 12.4999 41.8241 12.5305C41.7102 12.5471 41.6241 12.4833 41.638 12.3777C41.6547 12.2638 41.6686 12.0944 41.6436 11.9416C41.6075 11.6999 41.7269 11.3666 41.8908 10.9916C42.0547 10.6221 42.138 10.4166 42.138 10.2416C42.138 10.1277 42.1491 9.99437 42.2519 9.92771C42.3297 9.87771 42.3436 9.83048 42.3713 9.78882C42.4325 9.69715 42.4936 9.67493 42.4991 9.72771C42.5047 9.75826 42.4936 9.78882 42.463 9.83604C42.5297 9.78048 42.6436 9.7166 42.6686 9.69715C42.6936 9.67771 42.8269 9.58326 42.8325 9.67215C42.8825 9.64715 42.9186 9.64715 42.9297 9.67771C42.9463 9.70826 42.9352 9.71937 42.9102 9.74437C42.9463 9.73882 42.9936 9.79993 42.9158 9.85826C42.9575 9.84159 42.9936 9.90826 42.9269 9.97215C42.8547 10.0333 42.7741 10.0749 42.7463 10.1249C42.7213 10.1721 42.5463 10.311 42.4741 10.336C42.4019 10.3666 42.4019 10.4083 42.4019 10.511C42.4019 11.6527 42.263 11.5583 42.263 11.8305C42.263 11.9027 42.2463 11.9694 42.3241 11.9499C42.3963 11.9305 42.5047 11.8944 42.6158 11.8944V12.536Z" fill="#FFE1CF"/>
<path d="M42.4526 12.561C42.3748 12.561 42.2943 12.5554 42.2054 12.5443C42.0776 12.5332 41.9443 12.5248 41.8248 12.5332C41.7582 12.5443 41.7026 12.5221 41.6665 12.486C41.636 12.4554 41.6248 12.4137 41.6304 12.3637C41.6498 12.1943 41.6554 12.0498 41.636 11.9276C41.5999 11.6665 41.7387 11.2943 41.8832 10.9721C42.0526 10.5804 42.1248 10.3915 42.1248 10.2221C42.1248 10.0943 42.1415 9.96929 42.2443 9.90263C42.2998 9.86652 42.3221 9.83041 42.3415 9.79429C42.3471 9.78318 42.3526 9.77485 42.3582 9.76929C42.4054 9.70263 42.4443 9.67207 42.4776 9.67763C42.4887 9.67763 42.5026 9.68874 42.5026 9.71374C42.5082 9.73874 42.5026 9.76096 42.4915 9.78041C42.5332 9.74985 42.5776 9.71929 42.6137 9.69707C42.6332 9.68596 42.6498 9.67763 42.6554 9.67207C42.7054 9.63596 42.7748 9.5943 42.8082 9.61652C42.8193 9.62207 42.8276 9.63318 42.8276 9.64152C42.8582 9.62485 42.8832 9.62485 42.9054 9.63041C42.9165 9.63596 42.9248 9.64152 42.9304 9.65541C42.9471 9.68596 42.9415 9.70263 42.9248 9.71652C42.9359 9.72207 42.9443 9.73318 42.9498 9.74152C42.9609 9.76096 42.9609 9.79152 42.9304 9.82763C42.9415 9.83318 42.9498 9.83874 42.9554 9.84707C42.9721 9.87207 42.972 9.91374 42.9248 9.95541C42.8998 9.97485 42.8748 9.99707 42.8471 10.0165C42.8054 10.0471 42.7637 10.0776 42.7498 10.1026C42.7248 10.1526 42.5443 10.2915 42.4721 10.3193C42.4054 10.3443 42.4054 10.3804 42.4054 10.4832C42.4054 11.2498 42.3443 11.4582 42.3026 11.5971C42.2832 11.6637 42.2665 11.7165 42.2665 11.8026C42.2665 11.8137 42.2665 11.8221 42.2665 11.8332C42.2665 11.8693 42.2665 11.8998 42.2776 11.911C42.2832 11.9165 42.2971 11.9165 42.3137 11.911H42.3193C42.3971 11.8915 42.4998 11.861 42.6082 11.861H42.6193V12.5248H42.6082C42.5721 12.561 42.5137 12.561 42.4526 12.561ZM41.9443 12.5165C42.0304 12.5165 42.1193 12.5276 42.2054 12.5332C42.3554 12.5498 42.4971 12.5582 42.6054 12.5332V11.9054C42.5026 11.9054 42.4054 11.936 42.3332 11.9554H42.3276C42.3026 11.961 42.2859 11.961 42.2721 11.9498C42.2526 11.9332 42.2526 11.8998 42.2526 11.8582C42.2526 11.8471 42.2526 11.8387 42.2526 11.8276C42.2526 11.736 42.2693 11.6832 42.2887 11.6165C42.3304 11.4776 42.3915 11.2665 42.3915 10.5054C42.3915 10.4026 42.3971 10.3554 42.4748 10.3193C42.5471 10.2887 42.7165 10.1554 42.7415 10.1082C42.7582 10.0776 42.7971 10.0471 42.8443 10.0165C42.8693 9.99707 42.8943 9.98041 42.9221 9.95541C42.9582 9.92485 42.9637 9.89429 42.9526 9.87207C42.947 9.86096 42.9359 9.85541 42.9221 9.86096L42.9109 9.84429C42.9582 9.80818 42.9471 9.77763 42.9415 9.76652C42.9359 9.74985 42.922 9.74707 42.9109 9.74707L42.8693 9.75818L42.8998 9.73318C42.9248 9.71374 42.9304 9.70263 42.9165 9.68318C42.9109 9.67763 42.9054 9.67207 42.8998 9.66652C42.8887 9.66096 42.8693 9.66096 42.8276 9.68318L42.8109 9.68874V9.67207C42.8109 9.65263 42.7998 9.64707 42.7943 9.64707C42.7748 9.63596 42.7221 9.65818 42.6609 9.70263C42.6554 9.70818 42.6359 9.7193 42.6193 9.72763C42.5721 9.75818 42.4998 9.79985 42.4554 9.84152L42.4387 9.82485C42.4693 9.77763 42.4804 9.75263 42.4748 9.72207C42.4748 9.71096 42.4693 9.70263 42.4637 9.70263C42.4471 9.69707 42.4082 9.72207 42.3665 9.78596C42.3609 9.79707 42.3554 9.80263 42.3498 9.81096C42.3304 9.84707 42.3082 9.88318 42.2471 9.92485C42.1498 9.98596 42.1387 10.1054 42.1387 10.2276C42.1387 10.3971 42.0665 10.5915 41.8915 10.9832C41.7526 11.3026 41.6082 11.6665 41.6499 11.9248C41.6665 12.0471 41.6665 12.1971 41.6443 12.3665C41.6387 12.4082 41.6498 12.4443 41.6748 12.4693C41.7054 12.4998 41.7582 12.5165 41.8193 12.511C41.861 12.5165 41.9026 12.5165 41.9443 12.5165Z" fill="black"/>
<path d="M42.6634 14.9971C42.9967 14.8276 43.3828 14.7665 43.5828 14.7137C43.7828 14.6637 44.1023 14.5082 44.255 14.4248C44.4078 14.3415 44.5384 14.236 44.6245 14.2026C44.7106 14.1721 44.8134 14.111 44.8717 14.0026C45.1606 13.4387 45.3189 12.9859 45.3189 12.5943C45.3189 12.3387 45.2523 12.0443 44.9995 12.2554C44.7634 12.4498 44.505 12.8248 44.4356 13.0971C44.3328 13.5137 44.2467 13.5998 44.2189 13.6832C44.1995 13.7665 44.1106 13.7665 44.0134 13.786C43.5773 13.8832 43.4745 13.9498 43.1439 14.1915C42.8189 14.4387 42.4606 14.6498 42.2245 14.7832C41.9884 14.9165 41.9412 14.9332 41.8912 15.0387C41.8412 15.1471 41.7939 15.2276 41.7467 15.2748C41.6995 15.3221 41.6912 15.3776 41.6995 15.4387C41.7051 15.486 41.6828 15.711 41.6801 15.7832C41.6745 15.8554 41.6967 15.8748 41.7273 15.8804C41.7578 15.886 41.7995 15.8693 41.8134 15.7832C41.7967 15.8693 41.9217 15.8443 41.9273 15.7776C41.9217 15.8748 42.0495 15.8193 42.0606 15.7304C42.0606 15.7915 42.1578 15.7498 42.1689 15.7193C42.1884 15.6471 42.2106 15.5665 42.2412 15.5026C42.2828 15.4165 42.3273 15.3082 42.4162 15.2471C42.5078 15.1776 42.4634 15.0943 42.6634 14.9971Z" fill="#FFE1CF"/>
<path d="M41.732 15.8973C41.7264 15.8973 41.7264 15.8973 41.7209 15.8973C41.6792 15.8917 41.6653 15.8611 41.6709 15.7889C41.6709 15.7695 41.6764 15.7278 41.6764 15.6861C41.682 15.6 41.6931 15.475 41.6875 15.4445C41.6764 15.3778 41.6931 15.3223 41.7375 15.275C41.7792 15.2278 41.8236 15.1528 41.882 15.0389C41.9292 14.9417 41.9681 14.9167 42.1486 14.8167C42.1681 14.8056 42.1959 14.7917 42.2209 14.775C42.4098 14.6667 42.7848 14.4473 43.1403 14.1834C43.4653 13.9417 43.5681 13.8695 44.0098 13.7723C44.0264 13.7667 44.0459 13.7667 44.0598 13.7611C44.1375 13.7445 44.1931 13.7361 44.2098 13.675C44.2153 13.65 44.2292 13.625 44.2459 13.5917C44.2875 13.5139 44.3542 13.3806 44.4264 13.0945C44.4931 12.8278 44.7459 12.4473 44.9903 12.2473C45.0736 12.1806 45.1403 12.1611 45.1959 12.1861C45.3098 12.2361 45.3236 12.4695 45.3236 12.5973C45.3236 12.9723 45.1848 13.4084 44.8764 14.0111C44.8098 14.1389 44.6903 14.1973 44.6236 14.2167C44.5764 14.2334 44.5209 14.2667 44.4542 14.3139C44.3986 14.3556 44.3264 14.3973 44.2542 14.4361C44.182 14.4723 43.8125 14.6667 43.5764 14.725C43.5348 14.7361 43.4848 14.7445 43.4264 14.7611C43.2153 14.8084 42.9236 14.875 42.6597 15.0084C42.5403 15.0695 42.5098 15.1167 42.4848 15.1667C42.4681 15.1973 42.4486 15.2278 42.4125 15.2528C42.3403 15.3028 42.2986 15.3973 42.2598 15.475C42.2542 15.4861 42.2486 15.5 42.2431 15.5111C42.2236 15.5584 42.207 15.6139 42.1931 15.6695C42.1875 15.6889 42.182 15.7056 42.1764 15.725C42.1653 15.75 42.1153 15.7806 42.0848 15.775C42.0736 15.775 42.0681 15.7695 42.0653 15.7639C42.0486 15.8111 42.0042 15.8417 41.9681 15.8417C41.9681 15.8417 41.9681 15.8417 41.9625 15.8417C41.9459 15.8417 41.932 15.8306 41.9264 15.8167C41.9153 15.8334 41.9014 15.8417 41.8848 15.8473C41.8598 15.8584 41.8348 15.8584 41.8181 15.8417C41.8125 15.8417 41.8125 15.8361 41.807 15.8306C41.7875 15.8861 41.7514 15.8973 41.732 15.8973ZM45.1431 12.1973C45.1014 12.1973 45.057 12.2167 44.9986 12.2639C44.757 12.4639 44.5042 12.8389 44.4375 13.1028C44.3653 13.3945 44.2986 13.5306 44.257 13.6056C44.2403 13.6361 44.2264 13.6611 44.2209 13.6889C44.2014 13.7611 44.1348 13.775 44.057 13.7917C44.0403 13.7973 44.0264 13.7973 44.007 13.8028C43.5709 13.9 43.4681 13.9667 43.1431 14.2084C42.7875 14.4695 42.4125 14.6917 42.2236 14.8C42.1986 14.8167 42.1736 14.825 42.1514 14.8417C41.9764 14.9389 41.9403 14.9611 41.8959 15.0528C41.8403 15.1667 41.7931 15.2473 41.7514 15.2945C41.7097 15.3361 41.6959 15.3861 41.7042 15.4473C41.7098 15.4834 41.6986 15.5973 41.6931 15.6945C41.6875 15.7361 41.6875 15.7723 41.6875 15.7973C41.682 15.875 41.7042 15.8806 41.7236 15.8834C41.7597 15.8889 41.7847 15.8584 41.7959 15.7917L41.8153 15.7973C41.8153 15.8084 41.8153 15.8278 41.8264 15.8334C41.8375 15.8389 41.8514 15.8445 41.8736 15.8334C41.8903 15.8278 41.9098 15.8084 41.9153 15.7861H41.9347C41.9347 15.8028 41.9403 15.8223 41.9598 15.8278C41.9903 15.8278 42.0431 15.7861 42.0459 15.7417H42.0653C42.0653 15.7584 42.0764 15.7611 42.082 15.7611C42.107 15.7667 42.1486 15.7417 42.1542 15.725C42.1598 15.7056 42.1653 15.6889 42.1709 15.6695C42.1875 15.6139 42.2014 15.5556 42.2264 15.5111C42.232 15.5 42.2375 15.4917 42.2431 15.475C42.2847 15.3917 42.3264 15.3 42.4014 15.25C42.4375 15.225 42.4514 15.2 42.4681 15.1667C42.4931 15.1195 42.5292 15.0639 42.6542 15.0028C42.9209 14.8695 43.2153 14.8028 43.4236 14.7556C43.4792 14.7389 43.532 14.7306 43.5736 14.7195C43.7542 14.6723 44.0459 14.5334 44.2459 14.4306C44.3181 14.3945 44.3848 14.3473 44.4403 14.3084C44.507 14.2611 44.5681 14.225 44.6153 14.2056C44.6764 14.1861 44.7903 14.1334 44.8514 14.0111C45.1598 13.4139 45.2931 12.9778 45.2931 12.6084C45.2931 12.3917 45.2514 12.25 45.1736 12.2167C45.1736 12.1973 45.1598 12.1973 45.1431 12.1973Z" fill="black"/>
<path d="M45.0638 21.0666C45.0832 21.1499 45.1249 21.2416 45.1415 21.2972C45.1582 21.3527 45.1304 21.3694 45.1165 21.3999C45.0388 21.5638 44.9582 21.8222 44.9415 21.9638C44.936 22.0472 44.8804 22.1222 44.8554 22.1694C44.8249 22.2194 44.8388 22.2611 44.9026 22.3138C44.9332 22.3388 45.036 22.3083 45.0471 22.2527C45.0832 22.2888 45.1499 22.2722 45.1804 22.2222C45.2165 22.2527 45.2665 22.2333 45.3082 22.1749C45.3388 22.1944 45.3915 22.1555 45.4054 22.1249C45.4554 22.1499 45.5138 22.1194 45.5138 22.0166C45.5138 21.9972 45.5304 21.9611 45.5388 21.9333C45.5554 21.9083 45.5582 21.8611 45.5582 21.8194C45.5582 21.7777 45.5832 21.6972 45.6193 21.6388C45.6554 21.5805 45.7165 21.4805 45.6915 21.3833C45.6665 21.2972 45.6304 21.2999 45.5943 21.1722C45.511 21.0861 45.4054 20.9666 45.286 20.9611C45.1721 20.9638 45.1054 21.0416 45.0638 21.0666Z" fill="#FFE1CF"/>
<path d="M44.9301 22.3307C44.9135 22.3307 44.9051 22.3252 44.894 22.3196C44.8273 22.2696 44.8107 22.2224 44.844 22.1613C44.8496 22.1502 44.8551 22.1418 44.8635 22.1307C44.8885 22.0835 44.9246 22.0224 44.9357 21.9613C44.9523 21.8113 45.0385 21.5502 45.1107 21.3974C45.1162 21.3918 45.1218 21.3807 45.1218 21.3779C45.1329 21.3585 45.1468 21.3418 45.1385 21.3002C45.1329 21.2752 45.119 21.2391 45.1079 21.2029C45.0912 21.1613 45.0773 21.1168 45.0607 21.0696V21.0641L45.0662 21.0585C45.0773 21.0529 45.0829 21.0474 45.0912 21.0391C45.1329 21.0085 45.1996 20.9557 45.2912 20.9613C45.4107 20.9668 45.5162 21.0835 45.5996 21.1724L45.6051 21.1779V21.1835C45.6218 21.2557 45.6412 21.2807 45.6607 21.3057C45.6773 21.3252 45.6912 21.3529 45.7023 21.3918C45.7273 21.4946 45.6662 21.5974 45.6301 21.6529C45.5996 21.7085 45.569 21.7863 45.5746 21.8279C45.5746 21.8641 45.569 21.9141 45.5551 21.9474C45.5384 21.9668 45.5301 22.0029 45.5301 22.0196C45.5301 22.0752 45.5107 22.1168 45.4829 22.1391C45.4634 22.1502 45.4412 22.1557 45.4162 22.1446C45.3996 22.1641 45.3746 22.1918 45.344 22.2002C45.3329 22.2002 45.3246 22.2002 45.3134 22.2002C45.2884 22.2307 45.2579 22.2502 45.2301 22.2557C45.2134 22.2557 45.1996 22.2557 45.1884 22.2446C45.1718 22.2696 45.1468 22.2863 45.1162 22.2918C45.0968 22.2974 45.0746 22.2918 45.0607 22.2807C45.0496 22.3002 45.0246 22.3224 44.994 22.3307C44.969 22.3252 44.9496 22.3307 44.9301 22.3307ZM45.0718 21.0724C45.0829 21.1141 45.0968 21.1585 45.1135 21.1946C45.1301 21.2307 45.1385 21.2668 45.144 21.2918C45.1551 21.3391 45.144 21.3641 45.1273 21.3835C45.1218 21.3891 45.1218 21.3946 45.1162 21.4029C45.0329 21.5724 44.9579 21.8307 44.9412 21.9641C44.9357 22.0307 44.894 22.0974 44.869 22.1446C44.8635 22.1557 44.8579 22.1641 44.8523 22.1752C44.8329 22.2168 44.8273 22.2529 44.8996 22.3085C44.9107 22.3196 44.9412 22.3196 44.9718 22.3029C45.0023 22.2918 45.0218 22.2724 45.0273 22.2529L45.0329 22.2335L45.0496 22.2502C45.0662 22.2668 45.0801 22.2696 45.0996 22.2668C45.1246 22.2613 45.1496 22.2474 45.1607 22.2196L45.1662 22.2085L45.1773 22.2196C45.1885 22.2307 45.1968 22.2363 45.2134 22.2307C45.2384 22.2307 45.2635 22.2057 45.2912 22.1752L45.2968 22.1641L45.3079 22.1696C45.3134 22.1752 45.3246 22.1752 45.3273 22.1752C45.3468 22.1696 45.3773 22.1446 45.3884 22.1252L45.394 22.1141L45.4051 22.1196C45.4246 22.1307 45.4468 22.1307 45.4607 22.1196C45.4857 22.1029 45.4968 22.0696 45.5023 22.0224C45.5023 22.0029 45.519 21.9668 45.5329 21.9363C45.544 21.9168 45.5523 21.8752 45.5496 21.8335C45.5496 21.7863 45.5746 21.7057 45.6107 21.6474C45.6412 21.5974 45.7023 21.4946 45.6773 21.4002C45.6662 21.3585 45.6523 21.3446 45.6412 21.3168C45.6218 21.2918 45.5996 21.2613 45.5857 21.1891V21.1835C45.5079 21.1002 45.3996 20.9891 45.2885 20.978C45.2023 20.9724 45.144 21.0196 45.1023 21.0502C45.0885 21.0613 45.0829 21.0668 45.0718 21.0724Z" fill="black"/>
<path d="M42.9544 21.7027C43.0572 21.8055 43.2933 21.811 43.4516 21.636C43.3905 21.611 43.2627 21.5499 43.2044 21.5027C43.1238 21.586 43.0322 21.6777 42.9544 21.7027Z" fill="#FFE1CF"/>
<path d="M43.1524 21.7861C43.069 21.7861 42.9996 21.7611 42.9468 21.7083L42.9357 21.6972L42.9524 21.6916C43.0301 21.6666 43.1218 21.5722 43.1996 21.4972L43.2051 21.4916L43.2107 21.4972C43.2663 21.5444 43.3913 21.6 43.4579 21.6305L43.4746 21.6361L43.4635 21.6472C43.3801 21.7333 43.2746 21.7861 43.1607 21.7916C43.1551 21.7861 43.1524 21.7861 43.1524 21.7861ZM42.9774 21.7083C43.0246 21.7444 43.0913 21.7694 43.1635 21.7639C43.2663 21.7639 43.3635 21.7166 43.4468 21.6416C43.3801 21.6111 43.2718 21.5583 43.2163 21.5194C43.1301 21.5916 43.0496 21.6722 42.9774 21.7083Z" fill="black"/>
<path d="M44.0048 9.92212C44.0465 9.66101 44.2298 9.66657 44.3492 9.69157C44.3965 9.70268 44.5131 9.71101 44.627 9.68601C44.8492 9.63046 45.0131 9.70546 44.9909 9.91657C45.052 9.96379 45.1131 10.0666 45.1048 10.1527C45.0937 10.2388 45.1104 10.2805 45.1909 10.2916C45.2715 10.3027 45.4465 10.4055 45.3298 10.5443C45.4437 10.611 45.5242 10.7805 45.4687 10.8943C45.4076 11.0082 45.2326 11.0277 45.1548 10.9249C45.0715 10.961 44.9381 10.9721 44.8576 10.8832C44.802 10.9499 44.6631 10.9443 44.6354 10.8832C44.6104 10.8221 44.5631 10.7916 44.5131 10.7749C44.452 10.7555 44.452 10.5943 44.5381 10.5749C44.527 10.5277 44.5326 10.4721 44.5548 10.4471C44.5742 10.4221 44.5604 10.3749 44.5076 10.3332C44.4548 10.2916 44.4104 10.1388 44.4604 10.0499C44.3742 10.0805 44.1715 9.99435 44.1354 9.93601C44.0965 9.8749 44.0409 9.86935 44.0048 9.92212Z" fill="#870F00"/>
<path d="M45.299 11C45.2435 11 45.1851 10.975 45.1546 10.9333C45.0685 10.9695 44.9379 10.9695 44.8629 10.8917C44.8268 10.9278 44.7657 10.9389 44.7129 10.9333C44.6712 10.9278 44.6407 10.9083 44.6268 10.8833C44.6074 10.8333 44.5657 10.8 44.5074 10.7806C44.4712 10.7695 44.4574 10.7195 44.4574 10.6722C44.4574 10.625 44.4768 10.5806 44.524 10.5639C44.5129 10.5167 44.5185 10.4667 44.5435 10.4361C44.549 10.4306 44.549 10.4195 44.549 10.4111C44.549 10.3861 44.5296 10.3611 44.499 10.3333C44.449 10.2917 44.4074 10.1472 44.4435 10.0611C44.3407 10.0778 44.1657 9.99445 44.1296 9.9389C44.1101 9.9139 44.0879 9.89723 44.0685 9.89723C44.049 9.89723 44.0324 9.90834 44.0185 9.92779L43.999 9.92223C44.0157 9.81945 44.049 9.75279 44.1129 9.71112C44.174 9.66946 44.2574 9.66112 44.3546 9.68612C44.4046 9.69723 44.524 9.70557 44.6268 9.68057C44.7601 9.64446 44.8685 9.66112 44.9351 9.71668C44.9851 9.7639 45.0129 9.83057 45.0018 9.91668C45.0629 9.96668 45.124 10.0695 45.1101 10.1583C45.099 10.2445 45.1157 10.2778 45.1935 10.2806C45.249 10.2861 45.3435 10.3306 45.374 10.4083C45.3851 10.4389 45.3907 10.4861 45.349 10.5417C45.4629 10.6139 45.5379 10.7833 45.4824 10.9C45.4518 10.9556 45.3907 10.9972 45.3185 11.0028C45.3101 11 45.3046 11 45.299 11ZM45.1601 10.9083L45.1657 10.9139C45.1962 10.9611 45.2518 10.9806 45.3157 10.975C45.3768 10.9695 45.4351 10.9333 45.4657 10.8833C45.5212 10.775 45.4407 10.6111 45.3324 10.5445L45.3212 10.5389L45.3268 10.5278C45.3629 10.4861 45.374 10.4445 45.3574 10.4056C45.3324 10.3445 45.2435 10.2972 45.1935 10.2917C45.0962 10.275 45.0851 10.225 45.0962 10.1417C45.1074 10.0583 45.049 9.95557 44.9879 9.91668L44.9824 9.91112V9.90557C44.9935 9.82223 44.9712 9.75557 44.9212 9.71668C44.8601 9.66668 44.7518 9.65557 44.6296 9.68612C44.5101 9.71668 44.3935 9.70557 44.3462 9.69168C44.249 9.67223 44.1712 9.67501 44.1212 9.71668C44.074 9.74723 44.0379 9.80279 44.024 9.88057C44.0407 9.86945 44.0546 9.8639 44.0712 9.8639C44.1018 9.8639 44.1268 9.88334 44.1546 9.9139C44.1907 9.96945 44.3851 10.0528 44.4685 10.0278L44.4935 10.0167L44.4768 10.0417C44.4296 10.1195 44.4712 10.2722 44.5185 10.3083C44.5546 10.3333 44.574 10.3695 44.5796 10.4C44.5796 10.4167 44.5796 10.4306 44.5685 10.4417C44.549 10.4611 44.5435 10.5139 44.5574 10.5611V10.5722H44.5462C44.5046 10.5833 44.4907 10.6222 44.4851 10.6639C44.4851 10.7056 44.5018 10.7472 44.5212 10.75C44.5824 10.7695 44.624 10.8056 44.649 10.8639C44.6601 10.8833 44.6851 10.9 44.7212 10.9056C44.7685 10.9111 44.824 10.9 44.8546 10.8639L44.8601 10.8528L44.8712 10.8639C44.9546 10.95 45.0879 10.9361 45.1546 10.9L45.1601 10.9083Z" fill="black"/>
<path d="M44.061 11.0721L44.0554 11.0526C44.1221 11.0415 44.1748 11.0165 44.2137 10.9971C44.261 10.9721 44.2998 10.9498 44.3582 10.9554V10.9748C44.3082 10.9693 44.2721 10.9915 44.2248 11.0165C44.1832 11.0359 44.1332 11.0609 44.061 11.0721Z" fill="black"/>
<path d="M43.8741 10.7165H43.863C43.838 10.711 43.8075 10.711 43.7797 10.6971C43.763 10.686 43.7547 10.6804 43.7436 10.6721L43.7602 10.6554C43.7713 10.661 43.7797 10.6721 43.7908 10.6748C43.8158 10.686 43.8408 10.6915 43.8686 10.6943H43.8797L43.8741 10.7165Z" fill="black"/>
<path d="M43.8497 10.5528C43.8303 10.5334 43.808 10.5223 43.7942 10.5167L43.7997 10.4973C43.8192 10.5028 43.8414 10.5139 43.8664 10.5389L43.8497 10.5528Z" fill="black"/>
<path d="M44.6525 9.961C44.6025 9.961 44.5386 9.94989 44.508 9.91933C44.4108 9.82211 44.2969 9.78044 44.2053 9.80544C44.1636 9.81656 44.133 9.84155 44.1219 9.87211C44.1164 9.88878 44.1219 9.90267 44.1386 9.91378L44.1219 9.93044C44.1025 9.91378 44.0969 9.88878 44.1025 9.86933C44.1136 9.83322 44.1497 9.80267 44.1997 9.786C44.2969 9.761 44.4219 9.80267 44.5247 9.90544C44.5664 9.94711 44.6747 9.94711 44.7053 9.936L44.7108 9.95544C44.6969 9.95822 44.6775 9.961 44.6525 9.961Z" fill="black"/>
<path d="M45.2463 10.5887C45.2408 10.5887 45.2352 10.5887 45.2297 10.5887C45.1574 10.5776 45.0797 10.4971 45.0047 10.3471C44.9685 10.2749 44.9269 10.261 44.8852 10.2443C44.8435 10.2276 44.8074 10.2193 44.7824 10.1526C44.7269 10.0082 44.5102 10.0499 44.4685 10.061L44.463 10.0415C44.5963 10.011 44.7519 10.0221 44.8019 10.1499C44.8213 10.2054 44.8519 10.2165 44.8935 10.2332C44.9352 10.2499 44.9797 10.2637 45.0269 10.3471C45.0991 10.486 45.1769 10.5693 45.238 10.5776C45.2685 10.5832 45.2991 10.5721 45.3297 10.5415L45.3463 10.5582C45.3102 10.5721 45.2769 10.5887 45.2463 10.5887Z" fill="black"/>
<path d="M44.8523 10.8862C44.8162 10.8389 44.8024 10.7417 44.8218 10.675C44.7801 10.6195 44.7968 10.5167 44.8218 10.4584L44.8412 10.4695C44.8162 10.5195 44.7996 10.6223 44.8412 10.6695L44.8468 10.675V10.6806C44.8273 10.7473 44.8412 10.8389 44.8718 10.8806L44.8523 10.8862Z" fill="black"/>
<path d="M44.694 10.7221C44.6023 10.7054 44.5356 10.6249 44.5301 10.5721H44.5495C44.5551 10.6082 44.6051 10.6915 44.6995 10.7054L44.694 10.7221Z" fill="black"/>
<path d="M45.1441 10.9277C45.0885 10.8555 45.0969 10.7944 45.108 10.7111L45.1274 10.7166C45.1163 10.7944 45.108 10.8499 45.1579 10.9166L45.1441 10.9277Z" fill="black"/>
<path d="M44.9296 10.5056C44.8018 10.5056 44.7352 10.4195 44.7129 10.3779C44.6407 10.3473 44.599 10.2556 44.6046 10.1834H44.6241C44.6185 10.2445 44.6602 10.3334 44.7268 10.3584H44.7324V10.364C44.749 10.4001 44.8185 10.4973 44.9574 10.4834V10.5029C44.949 10.5056 44.9379 10.5056 44.9296 10.5056Z" fill="black"/>
<path d="M44.9805 9.9221C44.8888 9.84988 44.786 9.78321 44.6472 9.76377L44.6527 9.74432C44.7916 9.76377 44.8999 9.83044 44.9972 9.90821L44.9805 9.9221Z" fill="black"/>
<path d="M43.8546 13.8361L43.838 13.8194C44.0685 13.6083 43.988 13.1527 43.9297 12.8166L43.9241 12.7861C43.8741 12.4944 43.9241 12.2416 44.0741 12.0361L44.0908 12.0472C43.9408 12.2472 43.8963 12.4944 43.9463 12.7833L43.9519 12.8138C44.013 13.1527 44.0963 13.6166 43.8546 13.8361Z" fill="black"/>
<path d="M44.2241 14.6222C44.1408 14.6222 44.0602 14.6055 43.9936 14.5722L44.0047 14.5527C44.1547 14.6305 44.3686 14.6139 44.4991 14.5222C44.6325 14.425 44.8741 14.4194 45.0547 14.4611L45.0491 14.4805C44.8797 14.4444 44.638 14.4444 44.5102 14.5361C44.4297 14.5916 44.3269 14.6222 44.2241 14.6222Z" fill="black"/>
<path d="M44.4517 15.9334C44.4156 15.6667 44.4323 15.4001 44.4462 15.164C44.4517 15.0556 44.4573 14.9529 44.4573 14.8723C44.4573 14.6056 44.5239 14.4862 44.6823 14.4556L44.6878 14.4751C44.5378 14.5001 44.4767 14.614 44.4767 14.8695C44.4767 14.9556 44.4712 15.0584 44.4656 15.1667C44.4489 15.4028 44.435 15.6695 44.4712 15.9362L44.4517 15.9334Z" fill="black"/>
<path d="M44.2299 14.8638C44.2133 14.6166 44.3022 14.5916 44.3938 14.5721C44.3994 14.5721 44.4105 14.5666 44.4133 14.5666L44.4188 14.586C44.4133 14.586 44.4022 14.5916 44.3994 14.5916C44.3133 14.611 44.2355 14.6333 44.2494 14.8638H44.2299Z" fill="black"/>
<path d="M43.9278 14.8693H43.9084C43.9139 14.7415 43.9445 14.6387 44.0001 14.5971C44.0251 14.5776 44.0501 14.5721 44.0834 14.5804L44.0778 14.5999C44.0528 14.5943 44.0306 14.5999 44.0112 14.6165C43.9639 14.6471 43.9334 14.7499 43.9278 14.8693Z" fill="black"/>
<path d="M45.6029 18.6665C45.5473 18.472 45.5362 18.122 45.5251 17.722C45.5084 17.1665 45.489 16.4776 45.3362 15.9692C45.3112 15.8831 45.2862 15.8054 45.2584 15.7331C45.1918 15.5387 45.1307 15.3692 45.1001 15.0498C45.0529 14.622 44.9918 14.5109 44.9112 14.4748C44.9112 14.4748 44.9112 14.4748 44.9168 14.4804C44.9779 14.5415 45.0084 14.6804 45.0029 14.9026H44.9834C44.989 14.6915 44.964 14.5526 44.9001 14.497C44.8807 14.4776 44.8584 14.472 44.8334 14.4665C44.8279 14.4665 44.8223 14.4665 44.814 14.4665V14.447C44.8196 14.447 44.8307 14.447 44.8334 14.447C44.9723 14.4526 45.0584 14.5081 45.1168 15.0526C45.1473 15.3665 45.2084 15.5359 45.2751 15.7304C45.3001 15.8026 45.3251 15.8804 45.3529 15.9665C45.5112 16.4803 45.5279 17.1692 45.5418 17.7248C45.5529 18.1248 45.5612 18.4692 45.6195 18.6665H45.6029Z" fill="black"/>
<path d="M45.4216 20.0139C45.3855 19.8028 45.2633 19.4944 45.0966 19.1C44.9883 18.8278 44.8605 18.525 44.7383 18.1806V18.175V18.1694C45.2105 16.6806 45.0299 15.7694 44.7688 15.0056L44.7883 15C45.0494 15.7667 45.2299 16.6806 44.7577 18.175C44.8799 18.5194 45.0049 18.8222 45.1161 19.0944C45.2744 19.4889 45.4049 19.7972 45.4411 20.0139H45.4216Z" fill="black"/>
<path d="M43.9016 16.936L43.8822 16.9305C43.8989 16.8694 43.8877 16.8222 43.8711 16.7666C43.8461 16.6583 43.8044 16.4944 43.9072 16.0722C43.9738 15.7944 43.9905 15.6249 43.9433 15.5388L43.9627 15.5277C44.01 15.6194 43.9988 15.7944 43.9266 16.0777C43.8239 16.4944 43.86 16.6583 43.8905 16.761C43.91 16.8166 43.9211 16.8694 43.9016 16.936Z" fill="black"/>
<path d="M44.0469 17.1416L44.0274 17.1361C44.1052 16.9138 44.0469 16.6416 43.9969 16.4C43.9552 16.2138 43.9191 16.0416 43.9497 15.9166L43.9691 15.9222C43.9441 16.0444 43.9802 16.2138 44.0163 16.4C44.0663 16.6361 44.1219 16.9138 44.0469 17.1416Z" fill="black"/>
<path d="M44.5129 21.4889L44.5018 21.4723C44.6213 21.4056 44.6157 21.2 44.6102 21.0445C44.6102 21.0028 44.6102 20.9612 44.6102 20.9306C44.6518 20.1389 44.3796 19.5473 43.9324 18.6556C43.9074 18.6056 43.8852 18.5639 43.8602 18.5223C43.7741 18.3639 43.7102 18.2445 43.7213 18.0445C43.7324 17.9056 43.7157 17.7362 43.7018 17.5778C43.6907 17.45 43.6824 17.325 43.6824 17.2139H43.7018C43.7018 17.3223 43.7129 17.4445 43.7213 17.5723C43.7379 17.7306 43.7518 17.9 43.7407 18.0389C43.7296 18.2334 43.7907 18.3473 43.8741 18.5056C43.8935 18.5473 43.9213 18.5917 43.9463 18.6389C44.3935 19.5389 44.6713 20.1278 44.6296 20.925C44.6296 20.9556 44.6296 20.9973 44.6296 21.0389C44.6352 21.2 44.6407 21.4167 44.5129 21.4889Z" fill="black"/>
<path d="M43.7043 21.7084C43.6987 21.7084 43.6987 21.7084 43.6932 21.7084V21.689C43.7293 21.6945 43.7765 21.6779 43.832 21.5445C43.882 21.4223 44.0626 20.6195 43.9904 20.0695L44.0098 20.064C44.0876 20.6195 43.9015 21.4251 43.8515 21.5501C43.807 21.6612 43.7626 21.7084 43.7043 21.7084Z" fill="black"/>
<path d="M44.013 21.4834L43.9936 21.4723C44.1075 21.189 44.1019 20.8362 44.0797 20.6862L44.0991 20.6807C44.1213 20.8362 44.1269 21.2001 44.013 21.4834Z" fill="black"/>
<path d="M44.3883 21.0973L44.3688 21.0917C44.4244 20.839 44.4188 20.5112 44.3633 20.1779L44.3827 20.1723C44.4466 20.5112 44.4466 20.8445 44.3883 21.0973Z" fill="black"/>
<path d="M44.1879 21.6529L44.1824 21.6335C44.2657 21.614 44.2379 21.3723 44.2241 21.2112C44.2185 21.164 44.2129 21.1279 44.2129 21.0974H44.2324C44.2324 21.1279 44.2379 21.164 44.2435 21.2112C44.2657 21.3946 44.2852 21.6251 44.1879 21.6529Z" fill="black"/>
<path d="M45.4935 21.0972C45.3713 20.9778 45.2574 20.6361 45.1351 20.2694C45.0213 19.9361 44.9046 19.5917 44.7768 19.3861L44.7935 19.375C44.9268 19.5806 45.0407 19.9306 45.1518 20.2639C45.274 20.6278 45.3879 20.9667 45.5074 21.0861L45.4935 21.0972Z" fill="black"/>
<path d="M45.0044 20.9167V20.9C44.9988 20.7862 44.9877 20.6334 44.9266 20.5667L44.9433 20.55C45.0099 20.6223 45.0211 20.775 45.0266 20.9V20.9167H45.0044Z" fill="black"/>
<path d="M42.0656 15.7333H42.0461C42.0461 15.7221 42.0461 15.7083 42.0461 15.6971C42.0461 15.6249 42.0461 15.5527 42.1239 15.4416L42.1406 15.4527C42.0684 15.5555 42.0684 15.6277 42.0628 15.6944C42.0711 15.7055 42.0711 15.7166 42.0656 15.7333Z" fill="black"/>
<path d="M41.932 15.7779H41.9126V15.7307C41.9237 15.489 41.9237 15.4585 42.0042 15.3807L42.0209 15.3973C41.9487 15.4696 41.9431 15.4946 41.9376 15.7307L41.932 15.7779Z" fill="black"/>
<path d="M41.8211 15.789H41.8017C41.8017 15.7418 41.8017 15.7029 41.8017 15.6696C41.8017 15.5501 41.7961 15.4835 41.8628 15.3807L41.8794 15.3918C41.8183 15.489 41.8183 15.5501 41.8239 15.6696C41.8211 15.7029 41.8211 15.739 41.8211 15.789Z" fill="black"/>
<path d="M42.5445 9.89996L42.5334 9.88329C42.6112 9.82218 42.7945 9.68329 42.8251 9.66107L42.8362 9.67774C42.8084 9.70552 42.6223 9.84441 42.5445 9.89996Z" fill="black"/>
<path d="M42.6024 9.98325L42.5913 9.96658L42.669 9.90547C42.8079 9.79713 42.8802 9.74158 42.9163 9.73602L42.9218 9.75547C42.8968 9.76102 42.8135 9.82213 42.6857 9.91936L42.6024 9.98325Z" fill="black"/>
<path d="M42.6583 10.0696L42.6472 10.0529C42.6888 10.0224 42.7333 9.98624 42.7749 9.95013C42.8305 9.90291 42.8833 9.86402 42.9138 9.84735L42.9249 9.8668C42.8944 9.88346 42.8416 9.92235 42.7916 9.96402C42.7472 10.0029 42.6999 10.039 42.6583 10.0696Z" fill="black"/>
<path d="M42.3599 9.94714L42.3487 9.93047C42.3599 9.91936 42.3793 9.90547 42.396 9.88325C42.4154 9.86381 42.4432 9.84159 42.4571 9.8277L42.4682 9.84436C42.4515 9.85548 42.4321 9.87492 42.4126 9.89436C42.3904 9.91659 42.3737 9.93603 42.3599 9.94714Z" fill="black"/>
<path d="M45.0384 22.2639C45.019 22.2389 45.0217 22.1667 45.0495 22.1L45.069 22.1111C45.0384 22.1834 45.044 22.2389 45.0523 22.2556L45.0384 22.2639Z" fill="black"/>
<path d="M45.1716 22.2279C45.141 22.1973 45.1883 22.0584 45.191 22.0473L45.2105 22.0529C45.1855 22.1251 45.1744 22.1973 45.191 22.2056L45.1716 22.2279Z" fill="black"/>
<path d="M45.2992 22.1862C45.2881 22.1806 45.2826 22.1695 45.2798 22.1612C45.2687 22.1306 45.2742 22.0889 45.2992 22.0389L45.3187 22.0501C45.2992 22.0917 45.2937 22.1334 45.2992 22.1528C45.2992 22.1584 45.3048 22.1639 45.3104 22.1695L45.2992 22.1862Z" fill="black"/>
<path d="M45.4022 22.1362C45.3966 22.1362 45.3855 22.1251 45.3855 22.1196C45.3744 22.1001 45.3799 22.064 45.4022 22.0057L45.4216 22.0112C45.3966 22.0779 45.4022 22.0973 45.4049 22.1085C45.4049 22.114 45.4105 22.114 45.4105 22.114L45.4022 22.1362Z" fill="black"/>
<path d="M43.9463 10.1585C43.9963 10.2307 44.0546 10.2196 44.0657 10.2668C44.0768 10.3141 44.0824 10.3141 44.0907 10.3279C44.1018 10.3446 44.0657 10.3391 44.0491 10.3335C44.0324 10.3279 43.9879 10.3279 43.9629 10.3279C43.9379 10.3279 43.9074 10.2974 43.9268 10.2918C43.9463 10.2863 43.9435 10.2807 43.9435 10.2668C43.9379 10.2502 43.9546 10.2307 43.9629 10.2252C43.9741 10.2196 43.9685 10.2196 43.9574 10.2057C43.9435 10.1835 43.9324 10.1418 43.9463 10.1585Z" fill="black"/>
<path d="M43.9769 10.0917C44.038 10.0972 44.1408 10.1333 44.1991 10.1945C44.2464 10.2445 44.2103 10.2306 44.1825 10.2306C44.163 10.2306 44.1158 10.2139 44.0964 10.1889C44.0769 10.1639 44.0103 10.1278 43.9742 10.1167C43.9519 10.1111 43.9325 10.0861 43.9769 10.0917Z" fill="black"/>
</g>
<defs>
<clipPath id="clip0_93_45318">
<rect width="53.3333" height="30" fill="white" transform="translate(0.988281)"/>
</clipPath>
</defs>
</svg>
