<svg width="55" height="30" viewBox="0 0 55 30" fill="none" xmlns="http://www.w3.org/2000/svg">
<g clip-path="url(#clip0_93_11936)">
<path d="M54.3206 0H0.987305V30H54.3206V0Z" fill="#C1272D"/>
<path d="M24.7349 19.0141L25.8488 15.5863L22.9294 13.4669H26.5349L27.6488 10.0307L28.7627 13.4669H32.3683L29.4488 15.5863L30.5627 19.0169L27.6544 16.8946L24.7349 19.0141ZM28.2738 16.4446L29.1794 17.1057L28.8349 16.0419L28.2738 16.4446ZM26.4738 16.0391L26.1294 17.103L27.0349 16.4419L26.4738 16.0391ZM26.7099 15.3057L27.6544 15.9919L28.5988 15.3057L28.2377 14.1946H27.0683L26.7099 15.3057ZM25.1849 14.1946L26.0905 14.8502L26.3044 14.1946H25.1849ZM29.0099 14.1946L29.2238 14.8502L30.1294 14.1946H29.0099ZM27.3099 13.4641H28.0044L27.6544 12.4002L27.3099 13.4641Z" fill="#006233"/>
</g>
<defs>
<clipPath id="clip0_93_11936">
<rect width="53.3333" height="30" fill="white" transform="translate(0.987305)"/>
</clipPath>
</defs>
</svg>
