<svg width="54" height="30" viewBox="0 0 54 30" fill="none" xmlns="http://www.w3.org/2000/svg">
<g clip-path="url(#clip0_93_11939)">
<path d="M53.9857 0H0.652344V30H53.9857V0Z" fill="black"/>
<path d="M53.9857 0H0.652344V10.3139H53.9857V0Z" fill="white"/>
<path d="M53.9857 0H0.652344V9.375H53.9857V0Z" fill="#007168"/>
<path d="M53.9857 19.6749H0.652344V29.9999H53.9857V19.6749Z" fill="white"/>
<path d="M53.9857 20.625H0.652344V30H53.9857V20.625Z" fill="#FCE100"/>
<path d="M0.652344 0V30L20.3412 15L0.652344 0Z" fill="#D21034"/>
<path d="M10.8725 20.625L7.21415 17.9444L3.55859 20.625L4.97248 16.3194L1.30304 13.675L5.83915 13.6889L7.21971 9.375L8.60582 13.6889L13.1364 13.6694L9.45859 16.3194L10.8725 20.625Z" fill="#FCE100"/>
<path fill-rule="evenodd" clip-rule="evenodd" d="M4.03851 17.6196H6.67462C6.88574 17.8584 7.36074 17.9557 7.81074 17.614C8.63574 17.164 10.2357 17.6196 10.2357 17.6196L10.5496 17.2835L9.78573 14.7696L9.51073 14.4751C9.51073 14.4751 8.92185 14.1196 7.79962 14.239C6.68018 14.3585 6.28574 14.2001 6.28574 14.2001C6.28574 14.2001 5.29962 14.3196 5.02462 14.4557C4.99407 14.4807 4.71074 14.7696 4.71074 14.7696L4.03851 17.6196Z" fill="white"/>
<path d="M7.19699 17.8752C6.97199 17.8752 6.77755 17.7891 6.65255 17.6613H4.03866C4.02755 17.6613 4.01366 17.6557 4.0081 17.6474C4.00255 17.6363 3.99699 17.628 4.00255 17.6113L4.67199 14.7613C4.67199 14.7557 4.67755 14.7474 4.6831 14.7419C4.71366 14.7113 4.96921 14.453 5.00255 14.4224L5.0081 14.4169C5.28866 14.278 6.23866 14.1613 6.27755 14.1557C6.2831 14.1557 6.29144 14.1557 6.29699 14.1613C6.30255 14.1613 6.69699 14.3113 7.79144 14.1974C8.91088 14.078 9.50255 14.4224 9.52755 14.4363C9.5331 14.4363 9.5331 14.4419 9.53866 14.4419L9.81366 14.7363C9.81922 14.7419 9.81922 14.7474 9.82477 14.7502L10.5887 17.2641C10.5942 17.278 10.5887 17.2946 10.5775 17.303L10.2637 17.6391C10.2525 17.6502 10.2387 17.653 10.2248 17.6502C10.2109 17.6446 8.63588 17.2057 7.83588 17.6446C7.61644 17.8113 7.39699 17.8752 7.19699 17.8752ZM4.08866 17.5807H6.67477C6.68588 17.5807 6.69421 17.5863 6.70532 17.5946C6.91644 17.8307 7.36644 17.9057 7.79144 17.5835C7.79144 17.5835 7.79699 17.5835 7.79699 17.578C8.5831 17.1474 10.0164 17.5141 10.2276 17.5724L10.5137 17.2724L9.75255 14.7863L9.48866 14.5002C9.4331 14.4696 8.84977 14.1613 7.8081 14.2696C6.77199 14.3807 6.35255 14.2557 6.2831 14.2307C6.1831 14.2418 5.3081 14.3557 5.05255 14.4807C5.02199 14.5057 4.8581 14.6752 4.75255 14.7807L4.08866 17.5807Z" fill="black"/>
<path d="M7.20199 17.8807C7.00755 17.8807 6.81588 17.8112 6.63255 17.6696C6.61866 17.6585 6.6131 17.6335 6.62143 17.6196C6.67143 17.539 6.84643 17.3696 7.16032 17.2085C6.16032 16.8196 4.59643 17.0029 4.57421 17.0085C4.55477 17.014 4.53532 16.9946 4.52977 16.9723C4.52421 16.9529 4.54366 16.9335 4.56588 16.9279C4.65199 16.9168 6.25477 16.7223 7.25477 17.1585C7.75477 16.9335 8.55477 16.7473 9.70477 16.9085C9.72421 16.914 9.74088 16.9335 9.74088 16.9529C9.73532 16.9723 9.71588 16.989 9.69643 16.989C8.57699 16.8335 7.82699 17.0029 7.35199 17.2085C7.55199 17.3085 7.72143 17.4335 7.84088 17.5973C7.84643 17.6085 7.85199 17.6168 7.84643 17.6279C7.84088 17.639 7.83532 17.6473 7.83255 17.6529C7.6131 17.8057 7.40755 17.8807 7.20199 17.8807ZM6.7131 17.6362C7.05199 17.8723 7.37699 17.8612 7.75755 17.6168C7.63255 17.4668 7.4631 17.3473 7.25755 17.2557C6.94088 17.4057 6.77143 17.5696 6.7131 17.6362Z" fill="black"/>
<path d="M7.26318 14.4557L7.24374 17.2307L7.26318 14.4557ZM9.50763 14.4945L9.97707 16.6945L9.50763 14.4945ZM5.04651 14.4612L4.7854 15.5973L5.04651 14.4612Z" fill="black"/>
<path d="M7.2418 17.2637C7.22236 17.2637 7.20291 17.2442 7.20291 17.2248L7.22236 14.4498C7.22236 14.4304 7.2418 14.4109 7.26125 14.4109C7.28069 14.4109 7.30014 14.4304 7.30014 14.4498L7.28069 17.2248C7.28347 17.2498 7.2668 17.2637 7.2418 17.2637ZM9.97791 16.7359C9.95847 16.7359 9.9418 16.722 9.93902 16.7054L9.46958 14.5054C9.46402 14.4859 9.48069 14.4665 9.50013 14.4609C9.51958 14.4554 9.53902 14.472 9.54458 14.4915L10.014 16.6915C10.0196 16.7109 10.0029 16.7304 9.98347 16.7359H9.97791ZM4.78903 15.6359C4.78347 15.6359 4.78347 15.6359 4.77792 15.6359C4.75847 15.6304 4.7418 15.6109 4.74736 15.5915L5.00847 14.4554C5.01403 14.4359 5.03347 14.4192 5.05292 14.4248C5.07236 14.4304 5.08903 14.4498 5.08347 14.4692L4.82236 15.6054C4.82236 15.6248 4.80292 15.6359 4.78903 15.6359Z" fill="black"/>
<path fill-rule="evenodd" clip-rule="evenodd" d="M2.32724 17.9252L2.94668 18.6502C3.02168 18.6946 3.0828 18.6891 3.14668 18.6502L4.06613 17.5502L4.45224 17.0696C4.51335 17.0002 4.5328 16.9196 4.52724 16.8502L5.26335 16.1946C5.32446 16.2002 5.3578 16.2057 5.41891 16.2085C5.34946 16.1891 5.29391 16.153 5.35502 16.078L5.51891 15.9474L5.64946 16.1113C5.64946 16.1113 5.46335 16.3502 5.44946 16.3502C5.43002 16.3502 5.24946 16.3502 5.24946 16.3502L4.86335 16.7002L5.0328 16.8502L5.28835 17.5446L5.59946 17.3252L5.39946 16.6113L5.83835 16.1307L5.67446 15.8752L5.78557 15.7307C5.78557 15.7307 7.31057 16.6919 7.89946 16.4363C7.91335 16.4419 7.93557 15.7502 7.93557 15.7502C7.93557 15.7502 6.35502 15.5863 6.32168 15.2696C6.28557 14.9585 6.67168 14.9196 6.67168 14.9196L6.5078 14.6807L6.54391 14.5502L6.81891 14.9002L7.44391 14.3641L11.1189 18.553C11.3189 18.4724 11.3634 18.4224 11.3745 18.2224C11.3689 18.2169 7.77446 14.0863 7.77446 14.0863L8.04946 13.7919C8.10502 13.7307 8.12446 13.7057 8.12446 13.6057L8.54391 13.2419C8.66891 13.2863 8.75502 13.3613 8.81891 13.4613L9.98002 12.4752C10.0106 12.5057 10.105 12.5363 10.1661 12.5002L12.0856 10.6557L9.99113 12.1419L9.91613 12.0863C9.91613 12.0252 9.99113 12.0113 9.91613 11.9002C9.83557 11.8002 9.71613 11.9891 9.69668 11.9891C9.67724 11.9891 9.39113 11.8891 9.3328 11.7585L9.31335 12.0974L8.77724 12.5918L8.37168 12.5724L7.7828 13.1419L7.7078 13.3613L7.79668 13.5474C7.79668 13.5474 7.48557 13.8224 7.48557 13.803C7.48557 13.7835 7.42168 13.7224 7.42168 13.7141L7.69113 13.4752L7.72724 13.3113L7.63835 13.1724C7.61335 13.1919 7.26891 13.553 7.24946 13.5113C7.21891 13.4752 6.26057 12.3919 6.26057 12.3919L6.31613 12.1919L5.69113 11.5113C5.46057 11.4307 5.10224 11.4224 5.03002 11.9169C4.97446 12.0307 4.49391 11.9363 4.49391 11.9363L4.23835 11.9919L2.78835 14.0474L3.59946 15.0224L5.25502 12.928L5.30502 12.3335L5.64946 12.7224C5.76335 12.7363 5.87446 12.7363 5.98002 12.6863L6.96057 13.7807L6.79668 13.9419C6.85224 14.003 6.89113 14.0419 6.94668 14.103C7.00224 14.0669 7.0578 14.0224 7.11057 13.9835C7.13002 14.0085 7.16057 14.053 7.17446 14.078C7.09391 14.1224 7.03557 14.1835 6.95502 14.228C6.82446 14.1419 6.69391 14.0391 6.70502 13.8669L6.15502 14.328L6.13557 14.4169L4.49946 15.778L4.35502 15.7974L4.31891 16.2169L5.3828 15.3363V15.2057L5.49391 15.2946L6.31891 14.6335C6.31891 14.6335 6.37446 14.7085 6.35502 14.7085C6.33557 14.7085 5.61891 15.3696 5.61891 15.3696L5.59946 15.4446L5.46891 15.5557L5.39391 15.5002L4.39113 16.3891H4.25224L3.70224 16.9391C3.56335 16.9502 3.43835 16.9641 3.31613 17.0502L2.32724 17.9252Z" fill="black"/>
<path d="M3.04686 18.7194C3.00797 18.7194 2.9663 18.7083 2.92186 18.6833C2.9163 18.6833 2.9163 18.6777 2.91075 18.6722L2.29686 17.9472C2.28297 17.9333 2.28575 17.9083 2.30241 17.8916L3.28852 17.0222C3.41352 16.9361 3.53852 16.9166 3.68297 16.9027L4.22186 16.3638C4.22741 16.3583 4.23575 16.3527 4.25241 16.3527H4.38297L5.36352 15.4833C5.37741 15.4722 5.39963 15.4694 5.41352 15.4833L5.46352 15.5194L5.55797 15.4388L5.57186 15.3777C5.57186 15.3722 5.57741 15.3638 5.58297 15.3583C6.06908 14.9083 6.23852 14.7638 6.29686 14.7138L5.50241 15.35C5.48852 15.3611 5.4663 15.3611 5.45241 15.35L5.40797 15.3111V15.3555C5.40797 15.3666 5.40241 15.3805 5.39408 15.3861L4.33019 16.2666C4.31908 16.2777 4.29963 16.2777 4.28575 16.2722C4.27186 16.2666 4.2663 16.2527 4.2663 16.2333L4.30519 15.8027C4.30519 15.7833 4.31908 15.7666 4.3413 15.7666L4.47741 15.7527L6.0913 14.4083L6.10519 14.3277C6.10519 14.3166 6.11075 14.3138 6.11908 14.3027L6.66908 13.8416C6.68019 13.8305 6.69963 13.8305 6.71352 13.8361C6.72741 13.8416 6.73297 13.8555 6.73297 13.8722C6.72186 14.0111 6.82741 14.1083 6.94408 14.1861C6.97463 14.1666 6.99963 14.1472 7.03019 14.125C7.05519 14.1055 7.08019 14.0888 7.11075 14.0694C7.10519 14.0638 7.10519 14.0583 7.09963 14.0555C7.09408 14.05 7.09408 14.0444 7.08852 14.0416C7.07463 14.0527 7.05797 14.0666 7.03852 14.0777C7.00797 14.0972 6.98297 14.1166 6.95241 14.1388C6.93852 14.15 6.91352 14.15 6.90241 14.1333C6.87741 14.1027 6.85241 14.0777 6.82741 14.0527C6.80241 14.0277 6.78297 14.0027 6.75241 13.9722C6.73852 13.9583 6.73852 13.9333 6.75241 13.9166L6.88852 13.7805L5.95241 12.7361C5.8413 12.7805 5.72741 12.775 5.62741 12.7666C5.6163 12.7666 5.60797 12.7611 5.60241 12.7527L5.3163 12.4333L5.27741 12.9333C5.27741 12.9444 5.27186 12.9472 5.2663 12.9527L3.61075 15.0472C3.60519 15.0583 3.5913 15.0611 3.58019 15.0611C3.56908 15.0611 3.55519 15.0555 3.54963 15.0472L2.74963 14.0861C2.73852 14.0722 2.73852 14.05 2.74963 14.0361L4.19963 11.9805C4.20519 11.9694 4.21352 11.9666 4.22463 11.9666L4.48019 11.9111C4.48575 11.9111 4.4913 11.9111 4.49408 11.9111C4.69963 11.95 4.94408 11.9666 4.98019 11.9166C5.01075 11.7222 5.0913 11.5805 5.21075 11.5055C5.38019 11.4 5.58575 11.45 5.6913 11.4861C5.69686 11.4861 5.70241 11.4916 5.70519 11.4972L6.33019 12.1777C6.3413 12.1888 6.34408 12.2027 6.3413 12.2138L6.2913 12.3888C6.40241 12.5138 7.13019 13.3388 7.25241 13.475C7.30797 13.4361 7.45797 13.2888 7.52186 13.225C7.57741 13.1694 7.5913 13.1555 7.60241 13.15C7.61352 13.1444 7.62186 13.1388 7.63297 13.1444C7.64408 13.1444 7.65241 13.1555 7.65797 13.1583L7.70241 13.2277L7.73297 13.1416C7.73297 13.1361 7.73852 13.1305 7.74408 13.1277L8.33297 12.5583C8.34408 12.5472 8.35241 12.5472 8.36352 12.5472L8.75241 12.5666L9.26352 12.0916L9.28297 11.7722C9.28297 11.7527 9.29686 11.7361 9.31352 11.7361C9.32741 11.7305 9.34963 11.7416 9.35797 11.7555C9.40241 11.85 9.61352 11.9416 9.67741 11.9611C9.68297 11.9555 9.68297 11.9555 9.68852 11.95C9.72741 11.9055 9.78852 11.8388 9.85797 11.8444C9.87741 11.8444 9.91352 11.8555 9.93852 11.8833C9.99963 11.9694 9.98297 12.0194 9.95797 12.0583C9.95241 12.0638 9.95241 12.0694 9.94686 12.0722L9.97741 12.0972L12.0469 10.6361C12.0607 10.625 12.0857 10.625 12.1024 10.6416C12.1163 10.6555 12.1135 10.6805 12.0969 10.6972L10.1774 12.5416C10.1719 12.5416 10.1719 12.5472 10.1663 12.5472C10.1024 12.5833 10.0163 12.5666 9.96075 12.5361L8.83297 13.5C8.82186 13.5055 8.81352 13.5111 8.80241 13.5111C8.7913 13.5111 8.78297 13.5 8.77741 13.4972C8.71352 13.3972 8.63852 13.3361 8.5413 13.3027L8.15241 13.6388C8.14686 13.7277 8.12741 13.7694 8.0663 13.8277L7.8163 14.0972C8.12741 14.4527 11.3663 18.1722 11.3913 18.2027C11.3969 18.2138 11.4024 18.2222 11.4024 18.2333C11.3885 18.4444 11.3385 18.5083 11.1219 18.5972C11.108 18.6027 11.0857 18.5972 11.0774 18.5861L7.42741 14.4305L6.83297 14.9361C6.82186 14.9416 6.81352 14.9472 6.80241 14.9472C6.7913 14.9472 6.78297 14.9416 6.77741 14.9333L6.54686 14.6444L6.53575 14.6805L6.6913 14.9055C6.70241 14.9166 6.70241 14.9305 6.69686 14.9444C6.6913 14.9583 6.67741 14.9638 6.6663 14.9694C6.6663 14.9694 6.48575 14.9888 6.39686 15.1C6.35797 15.15 6.3413 15.2055 6.35241 15.2805C6.37741 15.4861 7.33852 15.6611 7.93297 15.725C7.95241 15.725 7.96908 15.7444 7.96908 15.7638C7.94963 16.4583 7.93852 16.4638 7.91908 16.4777C7.91352 16.4777 7.91352 16.4833 7.90797 16.4833C7.34686 16.7222 6.01908 15.9333 5.79408 15.7944L5.72463 15.8888L5.87463 16.125C5.88575 16.1388 5.88575 16.1611 5.86908 16.175L5.44408 16.6361L5.63852 17.3305C5.64408 17.3444 5.63852 17.3666 5.62463 17.375L5.31352 17.5944C5.30241 17.6 5.28852 17.6055 5.27741 17.6C5.2663 17.5944 5.25797 17.5861 5.25241 17.575L5.00241 16.8888L4.8413 16.75C4.83019 16.7444 4.82741 16.7305 4.82741 16.7194C4.82741 16.7083 4.83297 16.7 4.8413 16.6888L5.22741 16.3388C5.23297 16.3333 5.2413 16.3277 5.25241 16.3277H5.4413C5.4663 16.3027 5.5413 16.2138 5.60519 16.1277L5.51908 16.0166L5.38852 16.1166C5.37741 16.1361 5.37463 16.1472 5.37463 16.1527C5.37463 16.1583 5.38575 16.1722 5.43575 16.1833C5.45519 16.1888 5.4663 16.2083 5.4663 16.2277C5.4663 16.2472 5.44686 16.2638 5.42741 16.2638C5.39686 16.2638 5.37186 16.2583 5.34686 16.2527C5.32741 16.2527 5.30797 16.2472 5.28575 16.2472L4.57463 16.8777C4.57463 16.9388 4.56075 17.0222 4.48852 17.1083L4.10241 17.5833L3.18297 18.6833C3.17741 18.6888 3.17741 18.6888 3.17186 18.6944C3.12741 18.7111 3.08852 18.7194 3.04686 18.7194ZM2.97186 18.6194C3.02741 18.65 3.07186 18.65 3.12186 18.6194L4.03575 17.525L4.42186 17.05C4.48297 16.9805 4.4913 16.9055 4.48575 16.8555C4.48575 16.8444 4.4913 16.8305 4.49963 16.825L5.23575 16.1694C5.24686 16.1638 5.25519 16.1583 5.2663 16.1583C5.27741 16.1583 5.28575 16.1583 5.2913 16.1583C5.28575 16.1277 5.2913 16.0944 5.32186 16.0583C5.32186 16.0527 5.32741 16.0527 5.33297 16.0472L5.49686 15.9166C5.51075 15.9027 5.53575 15.9055 5.55241 15.9222L5.68297 16.0861C5.69408 16.1 5.69408 16.1222 5.68297 16.1361C5.48852 16.3916 5.47186 16.3916 5.44686 16.3916H5.26352L4.92463 16.7027L5.06075 16.8222C5.0663 16.8277 5.07186 16.8333 5.07186 16.8361L5.30797 17.4805L5.55797 17.3055L5.35797 16.6166C5.35241 16.6027 5.35797 16.5916 5.36908 16.5805L5.78852 16.125L5.63852 15.8944C5.62741 15.8805 5.62741 15.8638 5.63852 15.85L5.74963 15.7055C5.76075 15.6916 5.78575 15.6861 5.79963 15.6944C5.81352 15.7027 7.28575 16.6194 7.86075 16.4055C7.87186 16.325 7.88019 16.0055 7.8913 15.7861C7.55519 15.75 6.31075 15.5916 6.27741 15.275C6.2663 15.1861 6.28852 15.1055 6.3413 15.0388C6.41075 14.95 6.52741 14.9083 6.60241 14.8944L6.47186 14.7055C6.4663 14.6944 6.46075 14.6861 6.4663 14.6694L6.50241 14.5388C6.50797 14.525 6.5163 14.5138 6.53297 14.5083C6.54686 14.5027 6.56352 14.5138 6.57186 14.5222L6.82186 14.8361L7.4163 14.3305C7.43019 14.3166 7.45519 14.3194 7.47186 14.3361L11.1274 18.5C11.2885 18.4305 11.3219 18.3888 11.333 18.2305C11.2635 18.15 10.7969 17.6194 7.74408 14.1111C7.73019 14.0972 7.73019 14.0722 7.74408 14.0555L8.01908 13.7611C8.06908 13.7055 8.08297 13.6916 8.08297 13.6055C8.08297 13.5944 8.08852 13.5861 8.09686 13.575L8.5163 13.2111C8.52741 13.2 8.5413 13.2 8.55519 13.2C8.6663 13.2388 8.74963 13.3 8.82463 13.4L9.95519 12.4444C9.96908 12.4305 9.99408 12.4333 10.0107 12.4444C10.0302 12.4638 10.0996 12.4888 10.1469 12.4638L11.6857 10.9888L10.0107 12.1694C9.99686 12.1805 9.97463 12.1805 9.9663 12.1694L9.8913 12.1138C9.88019 12.1083 9.87741 12.0944 9.87741 12.0833C9.87741 12.0527 9.88852 12.0333 9.89686 12.0138C9.91075 11.9888 9.9163 11.975 9.88297 11.925C9.87186 11.9138 9.86908 11.9138 9.86352 11.9138C9.83297 11.9083 9.77741 11.9694 9.75241 11.9944C9.72741 12.0194 9.7163 12.0333 9.6913 12.0333C9.6663 12.0333 9.47186 11.9638 9.36075 11.8694L9.34686 12.1083C9.34686 12.1194 9.3413 12.1277 9.33575 12.1333L8.7913 12.6388C8.78019 12.6444 8.77186 12.65 8.76075 12.65L8.37463 12.6305L7.80519 13.1805L7.75519 13.3361L7.74408 13.3861L7.82463 13.55C7.83575 13.5638 7.83019 13.5861 7.81352 13.5944C7.49408 13.875 7.48852 13.8694 7.45797 13.8583C7.44686 13.8527 7.43852 13.8444 7.43297 13.8277C7.42741 13.8166 7.40241 13.7916 7.39408 13.7833C7.38019 13.7638 7.36908 13.7583 7.36908 13.7472C7.36352 13.7333 7.36908 13.7166 7.38019 13.7083L7.6413 13.4722L7.65519 13.3972C7.64963 13.3861 7.64963 13.3833 7.65519 13.3722L7.6663 13.3361L7.61075 13.25C7.59963 13.2611 7.58575 13.275 7.57186 13.2888C7.30797 13.5527 7.26075 13.575 7.22741 13.5694C7.2163 13.5694 7.20797 13.5583 7.20241 13.5555C7.17186 13.5194 6.22186 12.4444 6.21352 12.4361C6.20241 12.425 6.20241 12.4111 6.20241 12.4L6.25241 12.2194L5.64686 11.5638C5.55241 11.5333 5.37741 11.4944 5.2413 11.5777C5.13575 11.6416 5.07186 11.7638 5.04686 11.9388C5.04686 11.9444 5.04686 11.95 5.0413 11.95C4.97741 12.0805 4.60241 12.0138 4.47186 11.9888L4.23575 12.0388L2.81075 14.0583L3.57186 14.9722L5.20241 12.9166L5.25241 12.3361C5.25241 12.3222 5.26352 12.3055 5.27741 12.3C5.2913 12.2944 5.30797 12.3 5.3163 12.3111L5.65241 12.6944C5.74686 12.7055 5.85241 12.7083 5.94686 12.6583C5.96075 12.6472 5.98297 12.6527 5.9913 12.6694L6.97186 13.7638C6.98575 13.7777 6.98575 13.8027 6.97186 13.8194L6.83575 13.9555C6.84963 13.975 6.87186 13.9916 6.88575 14.0055C6.89963 14.025 6.92186 14.0416 6.93575 14.0611C6.94963 14.05 6.97186 14.0361 6.98575 14.0222C7.01075 14.0027 7.0413 13.9833 7.07186 13.9611C7.08575 13.95 7.11075 13.95 7.12741 13.9722C7.13852 13.9861 7.14686 14.0027 7.16352 14.0222C7.17463 14.0361 7.18852 14.0583 7.19963 14.0666C7.20519 14.0777 7.21075 14.0861 7.20519 14.0972C7.20519 14.1083 7.19408 14.1166 7.18575 14.1222C7.14686 14.1416 7.1163 14.1666 7.08019 14.1916C7.04408 14.2166 7.01075 14.2472 6.9663 14.2666C6.95241 14.2722 6.93575 14.2722 6.92741 14.2666C6.81352 14.1916 6.6913 14.0972 6.6663 13.9527L6.18575 14.3527L6.17186 14.4333C6.17186 14.4444 6.1663 14.4472 6.15797 14.4583L4.52186 15.8194C4.5163 15.825 4.50797 15.8305 4.50241 15.8305L4.38852 15.8444L4.36352 16.1388L5.34408 15.3277V15.2166C5.34408 15.2027 5.35519 15.1861 5.36908 15.1805C5.38297 15.175 5.39963 15.175 5.40797 15.1861L5.49408 15.2555L6.29408 14.6166C6.30519 14.6111 6.31352 14.6055 6.32463 14.6055C6.33575 14.6055 6.34408 14.6111 6.34963 14.6194C6.40519 14.6944 6.40519 14.7138 6.39408 14.7333C6.38852 14.7444 6.38297 14.7472 6.37463 14.7527C6.33019 14.7833 5.91908 15.1638 5.66075 15.3972L5.64686 15.4583C5.64686 15.4694 5.6413 15.4722 5.63297 15.4777L5.50241 15.5888C5.48852 15.6 5.4663 15.6027 5.45241 15.5888L5.40241 15.5527L4.43297 16.4138C4.42741 16.4194 4.41908 16.425 4.40797 16.425H4.27741L3.73852 16.9638C3.73297 16.9694 3.72463 16.975 3.71352 16.975C3.56908 16.9888 3.45797 17 3.34963 17.0805L2.39408 17.925L2.97186 18.6194ZM6.35797 14.7555C6.35241 14.7555 6.34686 14.7611 6.34408 14.7611C6.35241 14.7611 6.35797 14.7555 6.35797 14.7555ZM7.47186 13.7361C7.48297 13.7472 7.4913 13.7555 7.49686 13.7666C7.54686 13.7277 7.64686 13.6416 7.74686 13.5555L7.72186 13.5055C7.72186 13.5111 7.7163 13.5166 7.71075 13.5194L7.47186 13.7361Z" fill="black"/>
</g>
<defs>
<clipPath id="clip0_93_11939">
<rect width="53.3333" height="30" fill="white" transform="translate(0.652344)"/>
</clipPath>
</defs>
</svg>
