<svg width="55" height="30" viewBox="0 0 55 30" fill="none" xmlns="http://www.w3.org/2000/svg">
<g clip-path="url(#clip0_93_10173)">
<path d="M54.3255 0H0.992188V30H54.3255V0Z" fill="#FECB00"/>
<path d="M54.3255 10H0.992188V30H54.3255V10Z" fill="#34B233"/>
<path d="M54.3255 20H0.992188V30H54.3255V20Z" fill="#EA2839"/>
<path d="M24.0673 16.0528L27.6589 5L31.2506 16.0528H24.0673Z" fill="white"/>
<path d="M30.5646 18.1639L21.1591 24.9972L24.7535 13.9417L30.5646 18.1639Z" fill="white"/>
<path d="M26.5473 19.4695L17.1445 12.639H28.7695L26.5473 19.4695Z" fill="white"/>
<path d="M26.5481 12.639H38.1731L28.7703 19.4695L26.5481 12.639Z" fill="white"/>
<path d="M30.5645 13.9417L34.159 24.9972L24.7534 18.1639L30.5645 13.9417Z" fill="white"/>
</g>
<defs>
<clipPath id="clip0_93_10173">
<rect width="53.3333" height="30" fill="white" transform="translate(0.992188)"/>
</clipPath>
</defs>
</svg>
