<svg width="55" height="30" viewBox="0 0 55 30" fill="none" xmlns="http://www.w3.org/2000/svg">
<g clip-path="url(#clip0_93_11954)">
<path d="M0.851318 30.0416V-0.0417099H54.4486L0.851318 30.0416Z" fill="#003580"/>
<path d="M54.4486 -0.0417099V30.0416H0.851318L54.4486 -0.0417099Z" fill="#009543"/>
<path d="M-2.44867 25.8696L51.1458 -4.21648L57.7541 4.12797L4.15689 34.2141L-2.44867 25.8696Z" fill="white"/>
<path d="M-1.62439 26.9136L51.9784 -3.17249L56.9312 3.08584L3.33117 33.1719L-1.62439 26.9136Z" fill="#D21034"/>
<path d="M9.09876 3.13897L9.87654 5.24452L11.6071 3.81119L11.2265 6.02786L13.4432 5.6473L12.0099 7.37786L14.1154 8.15563L12.0099 8.93341L13.4432 10.664L11.2265 10.2779L11.6071 12.4945L9.87654 11.0612L9.09876 13.1667L8.32098 11.0612L6.59043 12.4945L6.97098 10.2779L4.75431 10.6584L6.18765 8.92786L4.08209 8.15008L6.18765 7.3723L4.75431 5.64175L6.97098 6.0223L6.59043 3.80564L8.32098 5.23897L9.09876 3.13897Z" fill="#FFCE00"/>
<path d="M9.09848 10.9114C10.6219 10.9114 11.8568 9.67647 11.8568 8.15308C11.8568 6.6297 10.6219 5.39475 9.09848 5.39475C7.5751 5.39475 6.34015 6.6297 6.34015 8.15308C6.34015 9.67647 7.5751 10.9114 9.09848 10.9114Z" fill="#FFCE00"/>
<path d="M9.09848 11.1614C7.44015 11.1614 6.09015 9.81142 6.09015 8.15308C6.09015 6.49475 7.44015 5.14475 9.09848 5.14475C10.7568 5.14475 12.1068 6.49475 12.1068 8.15308C12.1068 9.81142 10.7596 11.1614 9.09848 11.1614ZM9.09848 5.64475C7.71515 5.64475 6.59015 6.76697 6.59015 8.15308C6.59015 9.5392 7.71237 10.6614 9.09848 10.6614C10.4846 10.6614 11.6068 9.5392 11.6068 8.15308C11.6068 6.76697 10.4818 5.64475 9.09848 5.64475Z" fill="#003580"/>
</g>
<defs>
<clipPath id="clip0_93_11954">
<rect width="53.3333" height="30" fill="white" transform="translate(0.984375)"/>
</clipPath>
</defs>
</svg>
