<svg width="61" height="32" viewBox="0 0 61 32" fill="none" xmlns="http://www.w3.org/2000/svg">
<path d="M60.5465 0.891602H0.113159V31.1083H60.5465V0.891602Z" fill="#002B7F"/>
<path d="M60.5465 14.7416H0.113159V17.2582H60.5465V14.7416Z" fill="#FFC61E"/>
<path d="M15.2212 27.3304L14.5684 24.7277L12.7017 26.6554L13.4406 24.0749L10.8601 24.8138L12.7878 22.9471L10.1851 22.2943L12.7878 21.6415L10.8601 19.7777L13.4406 20.5165L12.7017 17.936L14.5684 19.8638L15.2212 17.261L15.8739 19.8638L17.7406 17.936L17.0017 20.5165L19.5823 19.7777L17.6545 21.6443L20.2573 22.2971L17.6545 22.9499L19.5823 24.8165L17.0017 24.0776L17.7406 26.6582L15.8739 24.7304L15.2212 27.3304Z" fill="white"/>
</svg>
