<svg width="55" height="30" viewBox="0 0 55 30" fill="none" xmlns="http://www.w3.org/2000/svg">
<g clip-path="url(#clip0_93_10182)">
<path d="M54.324 0H1.19342V30H54.324V0Z" fill="white"/>
<path d="M2.05817 14.6083H18.9637L2.05817 4.02216V26.5638H18.9637L2.05817 9.65827V14.6083Z" fill="#DC143C"/>
<path d="M20.7184 27.2916H1.32953V2.70831L21.4962 15.3361H8.76286L20.7184 27.2916ZM2.78508 25.8361H17.2073L6.70731 15.3361H2.78508V25.8361ZM7.30731 13.8805H16.4295L2.78508 5.33609V9.35553L7.30731 13.8805ZM2.78508 13.8805H5.25175L2.78508 11.4166V13.8805Z" fill="#003893"/>
<path d="M2.05817 14.6083H18.9637L2.05817 4.02216V26.5638H18.9637L2.05817 9.65827V14.6083Z" fill="#DC143C"/>
<path d="M6.28323 14.0057C8.14156 14.0057 9.6499 12.4974 9.6499 10.639C9.35268 11.3918 8.81934 12.014 8.13601 12.4196L7.8499 12.2057L8.41379 11.7835L7.73323 11.6085L8.09434 10.9974L7.38879 11.1001L7.49434 10.4001L6.88323 10.7668L6.70823 10.0751L6.28601 10.639L5.86379 10.0751L5.68601 10.764L5.07768 10.4029L5.18323 11.1085L4.47767 11.0029L4.84434 11.614L4.15545 11.789L4.71934 12.2112L4.43879 12.4279C3.77212 12.0335 3.22767 11.4251 2.92212 10.6474C2.92212 12.5057 4.43045 14.014 6.28879 14.014L6.28323 14.0057Z" fill="white"/>
<path d="M4.66052 18.9641L3.14941 18.778L4.06608 19.9891L2.66608 20.5863L4.06608 21.1807L3.14941 22.3919L4.66052 22.2057L4.47441 23.7196L5.68552 22.803L6.28274 24.2057L6.87441 22.803L8.09108 23.7224L7.90496 22.2113L9.41608 22.4002L8.49941 21.1891L9.89941 20.5974L8.49941 20.0002L9.41608 18.7891L7.90496 18.9724L8.09108 17.4613L6.87997 18.378L6.28274 16.9724L5.69108 18.3696L4.47441 17.453L4.66052 18.9641Z" fill="white"/>
</g>
<defs>
<clipPath id="clip0_93_10182">
<rect width="53.3333" height="30" fill="white" transform="translate(0.991211)"/>
</clipPath>
</defs>
</svg>
