<svg width="61" height="32" viewBox="0 0 61 32" fill="none" xmlns="http://www.w3.org/2000/svg">
<path d="M60.9961 2H0.996094V32H60.9961V2Z" fill="#012169"/>
<path d="M0.996094 2L30.9961 17L0.996094 2ZM0.996094 17L30.9961 2L0.996094 17Z" fill="black"/>
<path d="M30.3265 18.3388L15.996 11.1749L1.66543 18.3388L0.326538 15.661L12.6404 9.4999L0.326538 3.33879L1.66543 0.661011L15.996 7.8249L30.3265 0.661011L31.6654 3.33879L19.3515 9.4999L31.6654 15.661L30.3265 18.3388Z" fill="white"/>
<path d="M0.996094 2L30.9961 17L0.996094 2ZM0.996094 17L30.9961 2L0.996094 17Z" fill="black"/>
<path d="M30.5513 17.8945L15.9957 10.6195L1.44016 17.8945L0.55127 16.1056L13.7596 9.50003L0.55127 2.89448L1.44016 1.10559L15.9957 8.38059L30.5513 1.10559L31.4402 2.89448L18.2318 9.50003L31.4402 16.1056L30.5513 17.8945Z" fill="#C8102E"/>
<path d="M15.9961 2V17V2ZM0.996094 9.5H30.9961H0.996094Z" fill="black"/>
<path d="M18.4961 17H13.4961V12H0.996094V7H13.4961V2H18.4961V7H30.9961V12H18.4961V17Z" fill="white"/>
<path d="M15.9961 2V17V2ZM0.996094 9.5H30.9961H0.996094Z" fill="black"/>
<path d="M17.4961 17H14.4961V11H0.996094V8H14.4961V2H17.4961V8H30.9961V11H17.4961V17Z" fill="#C8102E"/>
<path d="M43.8763 7.26099V8.3971L46.1458 7.26099H43.8763Z" fill="white"/>
<path d="M44.3096 8.59432L43.6458 7.67488L46.1513 7.26099L44.3096 8.59432Z" fill="white"/>
<path d="M43.8769 7.26099V8.3971L41.6074 7.26099H43.8769Z" fill="white"/>
<path d="M43.4402 8.59432L44.1041 7.67488L41.5985 7.26099L43.4402 8.59432Z" fill="white"/>
<path d="M44.5766 7.76941L43.4961 8.11941L45.2766 9.93052L44.5766 7.76941Z" fill="white"/>
<path d="M43.4409 8.59449L44.1048 7.67505L45.2743 9.9306L43.4409 8.59449Z" fill="white"/>
<path d="M43.1763 7.76957L44.2568 8.11957L43.8763 5.61401L43.1763 7.76957Z" fill="white"/>
<path d="M44.5766 7.76951L43.4961 8.11951L43.8766 5.6084L44.5766 7.76951Z" fill="white"/>
<path d="M43.1769 7.76941L44.2575 8.11941L42.4769 9.93052L43.1769 7.76941Z" fill="white"/>
<path d="M44.3103 8.59449L43.6464 7.67505L42.4769 9.9306L44.3103 8.59449Z" fill="white"/>
<path d="M43.8763 7.51379V8.26379L45.3763 7.51379H43.8763Z" fill="#C8102E"/>
<path d="M44.1603 8.39435L43.7214 7.78879L45.377 7.51379L44.1603 8.39435Z" fill="#C8102E"/>
<path d="M43.8765 7.51379V8.26379L42.3765 7.51379H43.8765Z" fill="#C8102E"/>
<path d="M43.5904 8.39435L44.0293 7.78879L42.3738 7.51379L43.5904 8.39435Z" fill="#C8102E"/>
<path d="M44.3404 7.84998L43.6265 8.08053L44.8015 9.27497L44.3404 7.84998Z" fill="#C8102E"/>
<path d="M43.5902 8.39437L44.0291 7.78882L44.8041 9.27771L43.5902 8.39437Z" fill="#C8102E"/>
<path d="M43.41 7.84999L44.1239 8.08054L43.8739 6.41943L43.41 7.84999Z" fill="#C8102E"/>
<path d="M44.3404 7.84999L43.6265 8.08054L43.8765 6.41943L44.3404 7.84999Z" fill="#C8102E"/>
<path d="M43.4101 7.84998L44.124 8.08053L42.949 9.27497L43.4101 7.84998Z" fill="#C8102E"/>
<path d="M44.1601 8.39437L43.7212 7.78882L42.9462 9.27771L44.1601 8.39437Z" fill="#C8102E"/>
<path d="M49.8159 12.511V13.5221L51.8354 12.511H49.8159Z" fill="white"/>
<path d="M50.2019 13.6943L49.6074 12.8804L51.838 12.511L50.2019 13.6943Z" fill="white"/>
<path d="M49.8155 12.511V13.5221L47.796 12.511H49.8155Z" fill="white"/>
<path d="M49.4321 13.6943L50.0266 12.8804L47.796 12.511L49.4321 13.6943Z" fill="white"/>
<path d="M50.4402 12.9612L49.4791 13.2723L51.0652 14.8834L50.4402 12.9612Z" fill="white"/>
<path d="M49.4319 13.6945L50.0263 12.8806L51.0652 14.8862L49.4319 13.6945Z" fill="white"/>
<path d="M49.1909 12.961L50.152 13.2721L49.8159 11.036L49.1909 12.961Z" fill="white"/>
<path d="M50.4402 12.961L49.4791 13.2721L49.8152 11.036L50.4402 12.961Z" fill="white"/>
<path d="M49.1909 12.9612L50.152 13.2723L48.5659 14.8834L49.1909 12.9612Z" fill="white"/>
<path d="M50.2018 13.6945L49.6074 12.8806L48.5685 14.8862L50.2018 13.6945Z" fill="white"/>
<path d="M49.8159 12.761V13.386L51.0659 12.761H49.8159Z" fill="#C8102E"/>
<path d="M50.0574 13.4945L49.6935 12.989L51.074 12.7584L50.0574 13.4945Z" fill="#C8102E"/>
<path d="M49.8159 12.761V13.386L48.5659 12.761H49.8159Z" fill="#C8102E"/>
<path d="M49.5826 13.4945L49.9465 12.989L48.5659 12.7584L49.5826 13.4945Z" fill="#C8102E"/>
<path d="M50.2072 13.0388L49.6128 13.2333L50.5934 14.2277L50.2072 13.0388Z" fill="#C8102E"/>
<path d="M49.5822 13.4946L49.946 12.989L50.5905 14.2279L49.5822 13.4946Z" fill="#C8102E"/>
<path d="M49.4319 13.0389L50.0263 13.2333L49.8152 11.8528L49.4319 13.0389Z" fill="#C8102E"/>
<path d="M50.2072 13.0389L49.6128 13.2333L49.8239 11.8528L50.2072 13.0389Z" fill="#C8102E"/>
<path d="M49.4321 13.0388L50.0266 13.2333L49.046 14.2277L49.4321 13.0388Z" fill="#C8102E"/>
<path d="M50.057 13.4946L49.6931 12.989L49.0487 14.2279L50.057 13.4946Z" fill="#C8102E"/>
<path d="M36.9462 14.2362V15.3723L39.2156 14.2362H36.9462Z" fill="white"/>
<path d="M37.3765 15.5695L36.7126 14.6501L39.2182 14.2362L37.3765 15.5695Z" fill="white"/>
<path d="M36.9457 14.2362V15.3723L34.6763 14.2362H36.9457Z" fill="white"/>
<path d="M36.5127 15.5695L37.1766 14.6501L34.671 14.2362L36.5127 15.5695Z" fill="white"/>
<path d="M37.6465 14.7444L36.5659 15.0944L38.3465 16.9055L37.6465 14.7444Z" fill="white"/>
<path d="M36.5131 15.5695L37.177 14.65L38.3464 16.9056L36.5131 15.5695Z" fill="white"/>
<path d="M36.2407 14.7445L37.3213 15.0945L36.9407 12.5834L36.2407 14.7445Z" fill="white"/>
<path d="M37.6465 14.7445L36.5659 15.0945L36.9465 12.5834L37.6465 14.7445Z" fill="white"/>
<path d="M36.2405 14.7444L37.3211 15.0944L35.5405 16.9055L36.2405 14.7444Z" fill="white"/>
<path d="M37.3766 15.5695L36.7127 14.65L35.5432 16.9056L37.3766 15.5695Z" fill="white"/>
<path d="M36.9462 14.4862V15.2362L38.4462 14.4862H36.9462Z" fill="#C8102E"/>
<path d="M37.2321 15.3696L36.7932 14.764L38.4488 14.489L37.2321 15.3696Z" fill="#C8102E"/>
<path d="M36.9462 14.4862V15.2362L35.4462 14.4862H36.9462Z" fill="#C8102E"/>
<path d="M36.6576 15.3696L37.0965 14.764L35.4409 14.489L36.6576 15.3696Z" fill="#C8102E"/>
<path d="M37.4076 14.825L36.6909 15.0555L37.8659 16.25L37.4076 14.825Z" fill="#C8102E"/>
<path d="M36.6573 15.3693L37.0962 14.7638L37.8712 16.2527L36.6573 15.3693Z" fill="#C8102E"/>
<path d="M36.4824 14.825L37.1963 15.0555L36.9463 13.3944L36.4824 14.825Z" fill="#C8102E"/>
<path d="M37.4076 14.825L36.6909 15.0555L36.9409 13.3944L37.4076 14.825Z" fill="#C8102E"/>
<path d="M36.4819 14.825L37.1958 15.0555L36.0153 16.25L36.4819 14.825Z" fill="#C8102E"/>
<path d="M37.2326 15.3693L36.7937 14.7638L36.0187 16.2499L37.2326 15.3693Z" fill="#C8102E"/>
<path d="M43.8763 25.1805V26.4417L46.3958 25.1805H43.8763Z" fill="white"/>
<path d="M44.3573 26.6611L43.6184 25.6417L46.399 25.1805L44.3573 26.6611Z" fill="white"/>
<path d="M43.8769 25.1805V26.4417L41.3574 25.1805H43.8769Z" fill="white"/>
<path d="M43.3963 26.6611L44.1352 25.6417L41.3574 25.1805L43.3963 26.6611Z" fill="white"/>
<path d="M44.6572 25.7444L43.4572 26.1333L45.4322 28.1388L44.6572 25.7444Z" fill="white"/>
<path d="M43.3958 26.661L44.1346 25.6416L45.4346 28.1416L43.3958 26.661Z" fill="white"/>
<path d="M43.0964 25.7444L44.2964 26.1333L43.877 23.3472L43.0964 25.7444Z" fill="white"/>
<path d="M44.6572 25.7444L43.4572 26.1333L43.8766 23.3472L44.6572 25.7444Z" fill="white"/>
<path d="M43.0962 25.7444L44.2962 26.1333L42.3212 28.1388L43.0962 25.7444Z" fill="white"/>
<path d="M44.3574 26.661L43.6185 25.6416L42.3185 28.1416L44.3574 26.661Z" fill="white"/>
<path d="M43.8763 25.4305V26.3055L45.6263 25.4305H43.8763Z" fill="#C8102E"/>
<path d="M44.2129 26.4611L43.699 25.75L45.6295 25.4305L44.2129 26.4611Z" fill="#C8102E"/>
<path d="M43.8765 25.4305V26.3055L42.1265 25.4305H43.8765Z" fill="#C8102E"/>
<path d="M43.5404 26.4611L44.0543 25.75L42.1238 25.4305L43.5404 26.4611Z" fill="#C8102E"/>
<path d="M44.4154 25.825L43.5848 26.0944L44.9598 27.4888L44.4154 25.825Z" fill="#C8102E"/>
<path d="M43.5405 26.4611L44.0544 25.75L44.9544 27.4861L43.5405 26.4611Z" fill="#C8102E"/>
<path d="M43.3376 25.825L44.1682 26.0944L43.8793 24.1583L43.3376 25.825Z" fill="#C8102E"/>
<path d="M44.4154 25.825L43.5848 26.0944L43.8737 24.1583L44.4154 25.825Z" fill="#C8102E"/>
<path d="M43.3377 25.825L44.1682 26.0944L42.7932 27.4888L43.3377 25.825Z" fill="#C8102E"/>
<path d="M44.2126 26.4611L43.6987 25.75L42.7987 27.4861L44.2126 26.4611Z" fill="#C8102E"/>
</svg>
