<svg width="54" height="30" viewBox="0 0 54 30" fill="none" xmlns="http://www.w3.org/2000/svg">
<g clip-path="url(#clip0_93_10189)">
<path d="M56.9901 0H-3.00995V30H56.9901V0Z" fill="#024FA2"/>
<path d="M56.9901 5H-3.00995V25H56.9901V5Z" fill="white"/>
<path d="M56.9901 5.83606H-3.00995V24.1694H56.9901V5.83606Z" fill="#ED1C27"/>
<path d="M16.9899 21.6666C20.6718 21.6666 23.6566 18.6819 23.6566 15C23.6566 11.3181 20.6718 8.33331 16.9899 8.33331C13.308 8.33331 10.3232 11.3181 10.3232 15C10.3232 18.6819 13.308 21.6666 16.9899 21.6666Z" fill="white"/>
<path d="M16.9903 8.54169L14.993 14.6861L18.0653 15.6833L16.9903 8.54169Z" fill="#ED1C27"/>
<path d="M16.9895 8.54169L18.9867 14.6861L15.9145 15.6833L16.9895 8.54169Z" fill="#ED1C27"/>
<path d="M23.1309 13.0058H16.6726V16.2336L23.1309 13.0058Z" fill="#ED1C27"/>
<path d="M23.1315 13.0058L17.9065 16.8002L16.0093 14.1864L23.1315 13.0058Z" fill="#ED1C27"/>
<path d="M10.8454 13.0058L16.0732 16.8002L17.9704 14.1864L10.8454 13.0058Z" fill="#ED1C27"/>
<path d="M10.8454 13.0058H17.3065V16.2336L10.8454 13.0058Z" fill="#ED1C27"/>
<path d="M20.7869 20.2251L18.7896 14.0806L15.7174 15.0778L20.7869 20.2251Z" fill="#ED1C27"/>
<path d="M20.7865 20.2249L15.5587 16.4277L17.4559 13.8138L20.7865 20.2249Z" fill="#ED1C27"/>
<path d="M13.1931 20.2249L18.4181 16.4277L16.5209 13.8138L13.1931 20.2249Z" fill="#ED1C27"/>
<path d="M13.1931 20.2251L15.1903 14.0806L18.2598 15.0778L13.1931 20.2251Z" fill="#ED1C27"/>
</g>
<defs>
<clipPath id="clip0_93_10189">
<rect width="53.3333" height="30" fill="white" transform="translate(0.323242)"/>
</clipPath>
</defs>
</svg>
