<svg width="54" height="30" viewBox="0 0 54 30" fill="none" xmlns="http://www.w3.org/2000/svg">
<g clip-path="url(#clip0_93_6078)">
<path d="M-3.97928 -0.483398H57.9596V30.4861H-3.97928V-0.483398Z" fill="#D82126"/>
<path d="M-3.97928 18.0972V11.9027L57.9596 18.0972V11.9027L-3.97928 18.0972ZM23.8929 -0.483398H30.0874L26.9902 11.6805L23.8929 -0.483398ZM30.0874 30.4833H23.8929L26.9902 18.3166L30.0874 30.4833ZM-3.97928 -0.483398H5.31239L29.8346 16.7083L-3.97928 -0.483398ZM-3.97928 30.4833H5.31239L29.8346 13.2916L-3.97928 30.4833ZM57.9596 -0.483398H48.6679L24.1457 16.7083L57.9596 -0.483398ZM57.9596 30.4833H48.6679L24.1457 13.2916L57.9596 30.4833Z" fill="#F8E92E"/>
<path d="M26.9891 20.53C30.0436 20.53 32.5197 18.0539 32.5197 14.9994C32.5197 11.945 30.0436 9.46887 26.9891 9.46887C23.9347 9.46887 21.4586 11.945 21.4586 14.9994C21.4586 18.0539 23.9347 20.53 26.9891 20.53Z" fill="#D82126"/>
<path d="M26.989 19.4251C29.4328 19.4251 31.414 17.4439 31.414 15.0001C31.414 12.5562 29.4328 10.5751 26.989 10.5751C24.5451 10.5751 22.564 12.5562 22.564 15.0001C22.564 17.4439 24.5451 19.4251 26.989 19.4251Z" fill="#F8E92E"/>
</g>
<defs>
<clipPath id="clip0_93_6078">
<rect width="53.3333" height="30" fill="white" transform="translate(0.323242)"/>
</clipPath>
</defs>
</svg>
