<svg width="54" height="30" viewBox="0 0 54 30" fill="none" xmlns="http://www.w3.org/2000/svg">
<g clip-path="url(#clip0_93_10358)">
<path d="M53.6527 0H0.319336V30H53.6527V0Z" fill="white"/>
<path d="M53.6525 0H13.6525V30H53.6525V0Z" fill="#01411C"/>
<path d="M32.6112 24C37.5817 24 41.6112 19.9706 41.6112 15C41.6112 10.0294 37.5817 6 32.6112 6C27.6406 6 23.6112 10.0294 23.6112 15C23.6112 19.9706 27.6406 24 32.6112 24Z" fill="white"/>
<path d="M34.9108 21.2056C39.4671 21.2056 43.1608 17.512 43.1608 12.9556C43.1608 8.39928 39.4671 4.70563 34.9108 4.70563C30.3544 4.70563 26.6608 8.39928 26.6608 12.9556C26.6608 17.512 30.3544 21.2056 34.9108 21.2056Z" fill="#01411C"/>
<path d="M35.8917 8.26678L39.6834 12.5307L34.1111 11.3085L39.3389 9.01956L36.4528 13.9446L35.8917 8.26678Z" fill="white"/>
</g>
<defs>
<clipPath id="clip0_93_10358">
<rect width="53.3333" height="30" fill="white" transform="translate(0.319336)"/>
</clipPath>
</defs>
</svg>
