<svg width="54" height="30" viewBox="0 0 54 30" fill="none" xmlns="http://www.w3.org/2000/svg">
<path d="M53.9954 0H0.662109V30H53.9954V0Z" fill="black"/>
<path d="M0.662109 0H53.9954V30L0.662109 0Z" fill="#CE1126"/>
<path d="M37.2702 8.71379C36.9758 9.09434 36.2758 8.32768 35.4369 8.31379C34.598 8.29434 34.0036 9.11379 33.7647 9.39434C33.5175 9.6749 32.7369 11.1416 32.7508 11.2943C32.7647 11.4471 33.2369 10.861 33.4119 10.7555C33.4314 10.961 33.2175 11.2082 33.273 11.2832C33.3258 11.3555 33.8869 10.8638 34.073 10.8499C34.1258 10.9888 33.9675 11.1305 34.0202 11.336C34.0869 11.4027 34.4064 10.9888 34.6147 10.9027C34.648 11.0638 34.4202 11.3555 34.548 11.5499C34.6341 11.5693 35.1619 10.9555 35.3341 10.8888C35.5063 10.8221 35.248 11.461 35.3341 11.5166C35.4952 11.411 35.9814 10.8555 36.1341 10.7832C36.2952 10.7166 36.1147 11.4971 36.1869 11.4971C36.3814 11.3582 36.8675 10.6971 36.9202 10.5916C36.973 10.486 36.8675 11.6055 37.4064 12.1971C37.9452 12.7916 38.7675 13.4693 38.8536 13.4693C38.9591 13.2749 38.8202 12.8749 38.9064 12.8971C39.1536 13.1582 39.6064 13.5443 39.7064 13.5443C39.8064 13.5443 39.6397 13.1249 39.773 13.1249C40.0536 13.386 40.8536 14.4193 42.4258 14.886C42.3202 14.5916 42.0925 14.3249 42.0786 14.186C42.1841 14.2055 42.5508 14.3805 42.6175 14.3582C42.6841 14.3388 41.8508 13.311 41.9036 13.1721C42.098 13.1527 42.1841 13.2777 42.2508 13.1916C42.1647 13.0527 41.4313 12.2305 41.4313 12.0388C41.4313 11.8443 41.6591 12.0721 41.7258 12.0388C41.7925 12.0055 41.4452 11.2721 41.5202 11.186C41.5869 11.0999 42.3591 11.6582 42.548 11.6582C42.7425 11.6582 42.6008 10.9777 42.6869 10.9443C42.773 10.911 43.4202 11.311 43.5591 11.311C43.698 11.311 43.6786 11.0166 43.7314 11.0499C43.7841 11.0832 45.3036 12.6027 44.7786 14.3832C44.2508 15.6555 43.2064 16.336 41.673 15.7777C41.7591 15.9166 42.5786 16.5971 43.473 16.3499C44.3591 16.1027 45.4452 15.411 45.3202 13.6638C45.2008 11.9166 44.6202 11.6777 44.5341 11.411C44.448 11.1499 44.673 11.4777 44.8675 11.5499C45.0619 11.6166 44.8341 11.1832 44.7814 10.9888C44.7286 10.7943 45.3536 11.3888 45.5147 11.4416C45.6758 11.4943 45.148 10.0082 44.9869 9.90823C44.8258 9.80268 45.148 9.94157 45.248 9.9749C45.3536 10.0082 44.2869 8.35545 44.0619 8.35545C43.8369 8.35545 44.2563 8.26934 44.3758 8.26934C44.4952 8.26934 43.1564 7.18879 42.9286 7.18879C42.7008 7.18879 43.4147 6.90823 43.4897 6.89434C43.6091 6.91379 41.9369 6.00823 40.4369 6.91379C40.3508 6.84712 41.1425 6.29434 41.1702 6.06101C41.1758 5.9999 40.9091 5.86656 40.8897 5.7999C40.8702 5.73323 41.3091 5.51934 41.323 5.36656C41.2175 5.22767 41.0286 5.28045 40.923 5.24712C40.8952 5.11379 41.2897 4.79434 41.2564 4.65267C41.2286 4.57212 40.9425 4.54712 40.8702 4.5999C40.798 4.65267 41.0508 4.23323 41.0091 4.11379C40.9758 4.06101 40.8369 4.09434 40.6952 4.13323C40.6091 4.11379 41.148 3.36656 41.0425 3.26101C40.9369 3.15545 39.4702 4.02767 38.9286 5.00823C38.3897 5.98879 38.8091 6.76934 38.7341 7.10268C38.6591 7.43601 38.573 7.76379 38.348 7.76379C38.1202 7.76379 37.5952 7.41656 37.4202 7.23601C37.248 7.06379 37.2147 6.94156 36.9675 6.86934C36.7202 6.80268 36.1675 7.00823 35.9536 7.03045C35.748 7.0499 34.9258 6.86934 34.873 6.9249C34.8202 6.97768 35.673 7.29156 35.8675 7.39712C36.0619 7.50268 36.073 7.64434 36.2147 7.73045C36.3758 7.79434 37.6897 8.17212 37.2702 8.71379ZM42.3841 11.1721C42.8036 11.5916 45.6314 13.4721 45.6314 15.7777C45.6314 18.0832 43.5702 18.011 42.9786 17.9443C43.6397 18.5055 46.1508 18.3971 46.1508 15.7777C46.1508 13.4777 42.9036 11.1721 42.4841 10.9638C42.0619 10.761 41.9619 10.761 42.3841 11.1721Z" fill="#FCD116"/>
<path d="M12.551 21.8001L13.1454 19.8806L13.7399 21.8195L12.1621 20.6334H14.1093L12.551 21.8001Z" fill="white"/>
<path d="M11.0956 9.29443L9.90116 13.1333L13.04 10.8H9.14282L12.2817 13.1805L11.0956 9.29443Z" fill="white"/>
<path d="M6.51732 15.1528L5.32288 18.9917L8.46177 16.6584H4.56177L7.70066 19.0389L6.51732 15.1528Z" fill="white"/>
<path d="M15.6621 14.739L14.4677 18.5779L17.6066 16.2446H13.7094L16.8482 18.6251L15.6621 14.739Z" fill="white"/>
<path d="M11.0956 23.0721L9.90116 26.911L13.04 24.5777H9.14282L12.2817 26.9582L11.0956 23.0721Z" fill="white"/>
</svg>
