<svg width="54" height="30" viewBox="0 0 54 30" fill="none" xmlns="http://www.w3.org/2000/svg">
<g clip-path="url(#clip0_93_53720)">
<path d="M0.0603027 0H54.6047V30H0.0603027V0Z" fill="#0038A8"/>
<path d="M0.0603027 0H54.6047V20H0.0603027V0Z" fill="white"/>
<path d="M0.0603027 0H54.6047V10H0.0603027V0Z" fill="#D52B1E"/>
<path d="M31.1385 15.0001C31.1385 17.1001 29.4385 18.8056 27.3329 18.8056C25.2329 18.8056 23.5273 17.1001 23.5273 15.0001C23.5273 12.9001 25.2329 11.2001 27.3329 11.2001C29.4329 11.1945 31.1385 12.9001 31.1385 15.0001Z" fill="white"/>
<path d="M27.3329 18.8859C25.1912 18.8859 23.4468 17.1415 23.4468 14.9998C23.4468 12.8582 25.1912 11.1137 27.3329 11.1137C29.4746 11.1137 31.219 12.8554 31.219 14.9998C31.219 17.1415 29.4746 18.8859 27.3329 18.8859ZM27.3329 11.2804C25.2829 11.2804 23.6134 12.9498 23.6134 14.9998C23.6134 17.0498 25.2829 18.7193 27.3329 18.7193C29.3829 18.7193 31.0523 17.0498 31.0523 14.9998C31.0523 12.9498 29.3829 11.2804 27.3329 11.2804Z" fill="black"/>
<path d="M29.1688 14.4085C29.0771 14.4029 29.0771 14.5085 29.0771 14.5085C29.0771 14.5085 29.0827 14.4779 29.0771 14.514C29.0771 14.5446 29.091 14.6335 29.1577 14.6363C29.2299 14.6418 29.2521 14.5585 29.2521 14.5168C29.2605 14.5001 29.2549 14.414 29.1688 14.4085Z" fill="#009B3A"/>
<path d="M29.1686 14.6584C29.163 14.6584 29.163 14.6584 29.1602 14.6584C29.0797 14.6501 29.0547 14.5584 29.0547 14.514C29.0547 14.514 29.0547 14.514 29.0547 14.5084C29.0547 14.5029 29.0547 14.4501 29.0908 14.4168C29.1102 14.3973 29.1352 14.389 29.1686 14.389C29.2547 14.3945 29.2769 14.4695 29.2769 14.5168C29.2769 14.5445 29.2686 14.5973 29.2325 14.6362C29.213 14.6501 29.1908 14.6584 29.1686 14.6584ZM29.1019 14.4945C29.1019 14.5001 29.1019 14.5029 29.1019 14.514C29.1019 14.5362 29.1102 14.6084 29.1658 14.614C29.1797 14.614 29.1936 14.6084 29.2075 14.6001C29.2297 14.5779 29.238 14.5362 29.238 14.5195C29.238 14.5056 29.2325 14.439 29.1741 14.439V14.4168V14.439C29.1547 14.439 29.138 14.4445 29.1297 14.4529C29.1102 14.464 29.1047 14.4806 29.1019 14.4945Z" fill="black"/>
<path d="M24.9466 16.5222L24.9161 16.4666C24.9105 16.461 24.9022 16.4472 24.8883 16.436C24.8827 16.4277 24.8744 16.4222 24.8605 16.4222C24.8522 16.4222 24.8383 16.4222 24.83 16.4277C24.8161 16.436 24.8077 16.4472 24.8077 16.4583C24.8022 16.4722 24.8133 16.4888 24.8272 16.5138L24.8577 16.5694L24.9466 16.5222ZM25.2688 16.5055L24.855 16.7499L24.7272 16.536C24.705 16.4944 24.6911 16.4638 24.6827 16.4416C24.6772 16.4138 24.6772 16.3916 24.6911 16.3694C24.6994 16.3472 24.7188 16.3249 24.7466 16.311C24.7661 16.2972 24.7911 16.2916 24.8161 16.2888C24.8383 16.2888 24.8605 16.2944 24.88 16.3083C24.8938 16.3166 24.9077 16.3277 24.9244 16.3444C24.9188 16.3249 24.9188 16.3138 24.9188 16.3027C24.9188 16.2972 24.9244 16.2833 24.9272 16.2722C24.9327 16.2583 24.9355 16.2444 24.9411 16.2416L25.0216 16.111L25.1077 16.2555L25.0216 16.3999C25.0133 16.4194 25.0022 16.4305 25.0022 16.4416C25.0022 16.4555 25.0077 16.4694 25.0105 16.4777L25.0188 16.4916L25.1883 16.3916L25.2688 16.5055ZM24.5411 16.1638L24.4133 15.786L24.5077 15.7555L24.5855 15.9916L24.6577 15.9694L24.5855 15.7499L24.68 15.7194L24.7522 15.9388L24.8438 15.911L24.7633 15.6666L24.8688 15.6305L24.9966 16.0166L24.5411 16.1638ZM24.555 15.3999L24.5494 15.3638C24.5438 15.336 24.5411 15.3138 24.5272 15.3055C24.5188 15.2972 24.4994 15.2916 24.4855 15.2916C24.4716 15.2972 24.4577 15.2999 24.4494 15.311C24.4411 15.3249 24.4355 15.3416 24.4411 15.3694L24.4466 15.411L24.555 15.3999ZM24.3688 15.5694L24.3411 15.3249C24.3355 15.2694 24.3411 15.2305 24.3633 15.2027C24.3855 15.1749 24.4216 15.1583 24.4688 15.1472C24.5188 15.1416 24.555 15.1527 24.5883 15.1777C24.6188 15.2055 24.6383 15.2472 24.6438 15.3055L24.6522 15.386L24.83 15.3638L24.8494 15.5138L24.3688 15.5694ZM24.3522 14.6305L24.3661 14.4805L24.6522 14.511C24.68 14.5166 24.7077 14.5194 24.73 14.5333C24.7522 14.5416 24.7744 14.561 24.7938 14.5833C24.8133 14.6055 24.8216 14.6249 24.8244 14.6472C24.8327 14.6749 24.8327 14.711 24.83 14.7527C24.8244 14.7805 24.8216 14.8027 24.8161 14.8305C24.8105 14.8583 24.8022 14.8805 24.7883 14.8999C24.7744 14.9194 24.7605 14.936 24.7438 14.9444C24.7244 14.9583 24.7077 14.9666 24.6855 14.9666C24.655 14.9722 24.6272 14.9749 24.605 14.9722L24.3188 14.9416L24.3327 14.7916L24.6244 14.8222C24.6522 14.8277 24.6688 14.8222 24.6883 14.8083C24.7077 14.7944 24.7161 14.7777 24.7161 14.7499C24.7216 14.7222 24.7105 14.7055 24.7022 14.686C24.6883 14.6666 24.6716 14.6583 24.6438 14.6583L24.3522 14.6305ZM24.8272 14.2277L24.855 14.1555C24.8633 14.1333 24.8633 14.1138 24.8605 14.0999C24.855 14.086 24.8411 14.0777 24.8327 14.0722C24.8188 14.0666 24.805 14.0666 24.7966 14.0777C24.7827 14.086 24.7744 14.0999 24.7661 14.1222L24.7383 14.1944L24.8272 14.2277ZM24.6522 14.1638L24.6744 14.1055C24.6827 14.0833 24.6827 14.0638 24.68 14.0555C24.6744 14.0472 24.6661 14.036 24.6522 14.0333C24.6383 14.0277 24.63 14.0277 24.6161 14.0333C24.6077 14.0388 24.5966 14.0527 24.5883 14.0749L24.5661 14.1388L24.6522 14.1638ZM24.4244 14.2444L24.5161 13.9805C24.53 13.936 24.5522 13.9083 24.5855 13.8888C24.6133 13.8749 24.6494 13.8694 24.6772 13.8805C24.705 13.8888 24.7216 13.9083 24.7355 13.9305C24.7438 13.9444 24.7494 13.9666 24.7494 13.9888C24.7688 13.9583 24.7911 13.9388 24.8133 13.9305C24.8355 13.9222 24.8633 13.9222 24.8938 13.9305C24.9161 13.9388 24.9355 13.9527 24.9522 13.9666C24.9661 13.986 24.9744 14.0027 24.98 14.0249C24.98 14.0388 24.98 14.0555 24.9744 14.0833C24.9661 14.1138 24.9605 14.1388 24.9605 14.1472L24.8744 14.3888L24.4244 14.2444ZM24.6688 13.6277L24.7466 13.4999L25.055 13.686L25.1772 13.486L25.2772 13.5499L25.0827 13.8722L24.6688 13.6277ZM24.9883 13.1555L25.0827 13.0416L25.4522 13.3499L25.3577 13.4638L24.9883 13.1555ZM25.6522 12.8944L25.78 12.8388C25.7994 12.8694 25.8077 12.9027 25.8077 12.9333C25.8077 12.9638 25.8022 12.9916 25.7883 13.0194C25.7744 13.0472 25.7522 13.0749 25.7188 13.0999C25.6772 13.1305 25.6411 13.1555 25.605 13.1638C25.5688 13.1722 25.5327 13.1722 25.4855 13.1555C25.4438 13.1416 25.405 13.111 25.3633 13.0638C25.3133 12.9999 25.2911 12.9416 25.2938 12.8833C25.2994 12.8249 25.33 12.7694 25.3883 12.7194C25.4327 12.6777 25.48 12.661 25.5188 12.6555C25.5605 12.6499 25.605 12.6638 25.6494 12.6916L25.5688 12.7972C25.555 12.7888 25.5466 12.7833 25.5383 12.7833C25.5244 12.7777 25.5105 12.7777 25.4966 12.7833C25.4827 12.7888 25.4688 12.7916 25.4605 12.8027C25.4327 12.8249 25.4244 12.8527 25.43 12.8833C25.43 12.9055 25.4494 12.9333 25.4744 12.9694C25.5105 13.011 25.5383 13.0333 25.5661 13.0388C25.5938 13.0444 25.6161 13.0388 25.6383 13.0166C25.6605 12.9972 25.6688 12.9805 25.6688 12.9583C25.6744 12.9499 25.6633 12.9222 25.6522 12.8944ZM26.1383 12.6083L26.0105 12.4777L26.0411 12.6555L26.1383 12.6083ZM26.2133 12.686L26.0633 12.7638L26.0772 12.8444L25.9411 12.9138L25.8827 12.4055L26.0272 12.3333L26.405 12.6777L26.2688 12.7499L26.2133 12.686ZM26.7966 12.186L26.8327 12.4444L26.8688 12.4388C26.8994 12.4333 26.9244 12.4305 26.9327 12.4194C26.9466 12.411 26.9522 12.3972 26.955 12.3777C26.9605 12.3583 26.9605 12.3333 26.955 12.2972C26.9466 12.2472 26.9327 12.2166 26.9133 12.1972C26.8938 12.1777 26.8633 12.1749 26.8272 12.1777L26.7966 12.186ZM26.6383 12.0999L26.8577 12.0694C26.8994 12.0638 26.9355 12.0638 26.9633 12.0749C26.9911 12.0833 27.0188 12.0972 27.0355 12.1166C27.055 12.136 27.0716 12.1583 27.0855 12.1888C27.0994 12.2166 27.1077 12.2472 27.1077 12.2805C27.1161 12.3305 27.1161 12.3722 27.1077 12.3999C27.0994 12.4277 27.0883 12.4555 27.0716 12.4777C27.0522 12.4999 27.0355 12.5138 27.0133 12.5222C26.9855 12.536 26.9577 12.5444 26.9272 12.5499L26.7077 12.5805L26.6383 12.0999ZM27.2911 12.0055L27.6855 12.0333L27.6772 12.1388L27.4272 12.1194L27.4216 12.1972L27.6522 12.2166L27.6438 12.311L27.4161 12.2916L27.4105 12.386L27.6661 12.4055L27.6577 12.5138L27.2522 12.4833L27.2911 12.0055ZM27.9022 12.0638L28.0438 12.1055L27.9438 12.4555L28.1661 12.5194L28.1355 12.6333L27.7661 12.5277L27.9022 12.0638ZM28.7133 12.5944L28.7438 12.6138C28.7661 12.6277 28.7883 12.636 28.8022 12.636C28.8161 12.636 28.83 12.6277 28.8383 12.6138C28.8466 12.5999 28.8466 12.586 28.8466 12.5722C28.8411 12.5583 28.8272 12.5444 28.805 12.5277L28.7688 12.5055L28.7133 12.5944ZM28.7022 12.3416L28.9077 12.4777C28.9522 12.5055 28.98 12.5416 28.9855 12.5777C28.9938 12.6138 28.9855 12.6499 28.9577 12.6916C28.93 12.7333 28.8994 12.7555 28.8577 12.761C28.8161 12.7666 28.7772 12.7555 28.7216 12.7194L28.6522 12.6749L28.5577 12.8249L28.4355 12.7444L28.7022 12.3416ZM29.2244 13.0777L29.305 12.9194L29.1466 13.0055L29.2244 13.0777ZM29.1744 13.1722L29.0522 13.0527L28.98 13.0944L28.8716 12.9888L29.0938 12.8833L29.3383 12.7694L29.4522 12.8833L29.2438 13.3527L29.1355 13.2444L29.1744 13.1722ZM29.6188 13.3777L29.6494 13.4333C29.655 13.4388 29.6633 13.4472 29.6772 13.4638C29.6855 13.4722 29.6966 13.4722 29.705 13.4722C29.7133 13.4722 29.7244 13.4722 29.7327 13.4638C29.7466 13.4555 29.7522 13.4444 29.755 13.4333C29.755 13.4194 29.7494 13.4027 29.7355 13.3777L29.6994 13.3222L29.6188 13.3777ZM29.2966 13.4083L29.7022 13.1499L29.8327 13.3583C29.855 13.3944 29.8744 13.4277 29.8827 13.4527C29.8883 13.4749 29.8883 13.5027 29.8772 13.5249C29.8688 13.5472 29.8494 13.5694 29.8216 13.5833C29.7994 13.5972 29.7772 13.6055 29.7522 13.6055C29.7272 13.6055 29.7077 13.5999 29.6883 13.5916C29.6744 13.5833 29.6577 13.5694 29.6438 13.5555C29.6494 13.5749 29.6522 13.586 29.6494 13.5972C29.6494 13.6055 29.6438 13.6194 29.6411 13.6277C29.6355 13.6416 29.6327 13.6499 29.6272 13.6583L29.5494 13.7944L29.4577 13.6527L29.5383 13.5083C29.5466 13.4888 29.5577 13.4777 29.5577 13.4666C29.5577 13.4527 29.5577 13.4388 29.5494 13.4305L29.5438 13.4222L29.38 13.5277L29.2966 13.4083ZM29.8633 14.0555L30.0077 13.9472L29.8272 13.9555L29.8633 14.0555ZM29.7772 14.1194L29.7188 13.961L29.6383 13.9666L29.5827 13.8249L30.0966 13.8305L30.1522 13.9805L29.7605 14.3166L29.705 14.1722L29.7772 14.1194ZM30.005 14.6305L30.105 14.6166L30.1327 14.8444L29.9272 14.8666C29.8911 14.8249 29.8688 14.7888 29.855 14.7583C29.8411 14.7277 29.8272 14.686 29.8244 14.6388C29.8161 14.5833 29.8188 14.5333 29.8383 14.4972C29.8522 14.461 29.88 14.4277 29.9161 14.4027C29.9522 14.3805 29.9938 14.361 30.0438 14.3583C30.0938 14.3555 30.1438 14.3583 30.1855 14.3722C30.2272 14.3916 30.2577 14.4166 30.2855 14.4527C30.305 14.4833 30.3161 14.5249 30.3272 14.5805C30.3355 14.636 30.3355 14.6722 30.3272 14.6999C30.3216 14.7277 30.3077 14.7499 30.2911 14.7722C30.2716 14.7944 30.2466 14.8083 30.2188 14.8222L30.1744 14.686C30.1938 14.6777 30.205 14.6666 30.2105 14.6499C30.2188 14.636 30.2188 14.6194 30.2188 14.5944C30.2133 14.5638 30.1994 14.536 30.1744 14.5222C30.1466 14.5027 30.1105 14.4999 30.0661 14.5083C30.0161 14.5138 29.98 14.5305 29.9577 14.5499C29.9383 14.5722 29.93 14.5999 29.9355 14.636C29.9355 14.6555 29.9411 14.6666 29.9494 14.6805C29.9577 14.6944 29.9688 14.711 29.98 14.7305L30.0244 14.7249L30.005 14.6305ZM30.3105 15.3499L30.2911 15.4944L30.005 15.4638C29.9772 15.4583 29.9494 15.4555 29.9272 15.4416C29.905 15.4333 29.8827 15.4138 29.8633 15.3916C29.8438 15.3694 29.8355 15.3499 29.8327 15.3277C29.8244 15.2972 29.8244 15.2638 29.8272 15.2222C29.8327 15.1999 29.8355 15.1722 29.8411 15.1444C29.8466 15.1166 29.8605 15.0944 29.8688 15.0749C29.8827 15.0555 29.8966 15.0444 29.9133 15.0305C29.9355 15.0166 29.955 15.0083 29.9716 15.0083C30.0022 15.0027 30.03 14.9999 30.0522 15.0027L30.3383 15.0333L30.3188 15.1777L30.0272 15.1472C29.9994 15.1416 29.9827 15.1472 29.9633 15.161C29.9438 15.1749 29.9355 15.1916 29.9355 15.2194C29.93 15.2472 29.9355 15.2638 29.9494 15.2833C29.9633 15.3027 29.98 15.311 30.0077 15.311L30.3105 15.3499ZM29.8688 15.8999L30.0494 15.9055L29.905 15.7999L29.8688 15.8999ZM29.7605 15.8916L29.8161 15.7333L29.7466 15.6833L29.7966 15.5388L30.1911 15.8666L30.1355 16.0222L29.6216 16.036L29.6716 15.8916H29.7605ZM30.0272 16.336L29.9466 16.4777H29.755L29.8466 16.6472L29.7661 16.7888L29.6216 16.4833L29.4494 16.3833L29.5272 16.2555L29.6994 16.361L30.0272 16.336Z" fill="black"/>
<path d="M27.333 18.2195C25.5607 18.2195 24.1135 16.7751 24.1135 15.0001C24.1135 13.2251 25.5552 11.7862 27.333 11.7862C29.1052 11.7862 30.5524 13.2279 30.5524 15.0001C30.5469 16.7723 29.1052 18.2195 27.333 18.2195ZM27.333 11.8501C25.5969 11.8501 24.183 13.264 24.183 15.0001C24.183 16.7362 25.5969 18.1501 27.333 18.1501C29.0691 18.1501 30.483 16.7362 30.483 15.0001H30.5135H30.483C30.483 13.264 29.0691 11.8501 27.333 11.8501Z" fill="black"/>
<path d="M27.3326 17.3916C26.0103 17.3916 24.927 16.3138 24.927 14.9861C24.927 13.6638 26.0048 12.5861 27.3326 12.5861C28.6548 12.5861 29.7326 13.6638 29.7326 14.9861C29.7326 16.3138 28.6548 17.3916 27.3326 17.3916ZM27.3326 12.6555C26.0464 12.6555 24.9964 13.6999 24.9964 14.9916C24.9964 16.2777 26.0409 17.3277 27.3326 17.3277C28.6187 17.3277 29.6687 16.2777 29.6687 14.9916C29.6687 14.3694 29.427 13.7833 28.9881 13.3416C28.5409 12.8944 27.9548 12.6555 27.3326 12.6555Z" fill="black"/>
<path d="M27.3329 14.1363L27.5329 14.7057L28.1329 14.7196L27.6523 15.0835L27.8246 15.6613L27.3329 15.3196L26.8385 15.6613L27.0107 15.0835L26.5273 14.7196L27.1329 14.7057L27.3329 14.1363Z" fill="#FEDF00"/>
<path d="M27.8524 15.6945L27.333 15.3362L26.8135 15.6945L26.9941 15.089L26.4885 14.7084L27.1191 14.6945L27.3274 14.1001L27.5357 14.6945L28.1663 14.7084L27.6607 15.089L27.8524 15.6945ZM26.5691 14.7307L27.0246 15.0751L26.8607 15.6251L27.333 15.2973L27.8052 15.6251L27.6413 15.0751L28.0969 14.7307L27.5246 14.7168L27.333 14.1751L27.1413 14.7168L26.5691 14.7307Z" fill="black"/>
<path d="M28.427 16.622C28.4076 16.6415 28.327 16.6498 28.3048 16.6498C28.2826 16.6554 28.1992 16.6554 28.1631 16.6554C28.1437 16.6554 28.1048 16.6637 28.0853 16.6637C27.9104 16.6443 28.3631 16.6498 28.427 16.622ZM27.9687 16.4915C27.9826 16.4721 28.0381 16.3471 28.0604 16.3109C28.0826 16.2748 28.1298 16.1804 28.1548 16.1415C28.1687 16.1193 28.227 16.061 28.2409 16.086C28.1409 16.1721 28.0631 16.3221 28.0215 16.4221C28.0159 16.4304 27.9854 16.4915 27.9715 16.5026C27.9576 16.5165 27.9631 16.5443 27.9437 16.547C27.9242 16.5526 27.9381 16.5526 27.9381 16.5526C27.9381 16.5526 27.9548 16.5082 27.9687 16.4915ZM28.627 16.5859C28.627 16.5859 28.5492 16.572 28.4992 16.5582C28.4492 16.5387 28.3687 16.5304 28.2992 16.5304C28.2298 16.5304 28.1687 16.5526 28.1131 16.572C28.0576 16.5943 27.9854 16.5943 27.9854 16.5943C27.9854 16.5943 27.9437 16.5998 27.9631 16.5887C27.9826 16.5804 28.0437 16.5304 28.0437 16.5304L28.0853 16.4748C28.0992 16.4693 28.3048 16.1971 28.2798 16.1248C28.3103 16.0693 28.3492 15.9748 28.3353 15.9554C28.3298 15.9498 28.1715 16.0054 28.1409 16.036C28.0992 16.0721 28.0715 16.1415 28.0631 16.1804C28.0492 16.2221 27.9909 16.2526 27.9909 16.2526C27.9409 16.2887 27.9104 16.3971 27.8909 16.4887C27.8715 16.5804 27.6548 16.6304 27.6548 16.6304C27.6548 16.6304 27.5965 16.6526 27.6465 16.672C27.6548 16.6776 27.677 16.7165 27.702 16.7165C27.7298 16.722 27.8659 16.6609 27.8881 16.6665C27.9326 16.6748 27.9798 16.6887 28.0242 16.7026C28.0742 16.722 28.1187 16.7304 28.1548 16.7165C28.1909 16.7026 28.2465 16.7082 28.2826 16.7165C28.3242 16.7248 28.3631 16.722 28.3909 16.7109C28.4187 16.7026 28.4909 16.6665 28.4909 16.6665C28.4909 16.6665 28.5687 16.6359 28.6131 16.6109C28.652 16.5943 28.627 16.5859 28.627 16.5859Z" fill="#009B3A"/>
<path d="M28.1129 16.7444C28.0824 16.7444 28.049 16.736 28.0129 16.7221C27.9685 16.7083 27.9213 16.6944 27.8768 16.686C27.8685 16.686 27.8268 16.6999 27.7963 16.7083C27.7407 16.7277 27.7101 16.7388 27.6907 16.736C27.6713 16.736 27.6546 16.7166 27.6407 16.6999C27.6351 16.6944 27.6324 16.6916 27.6324 16.6916C27.6268 16.6916 27.6018 16.6833 27.6018 16.661C27.6018 16.6388 27.6296 16.6249 27.6435 16.6194C27.7018 16.6055 27.8574 16.5555 27.8713 16.4916C27.8796 16.4471 27.9129 16.2916 27.9796 16.2471C27.999 16.2388 28.0379 16.211 28.0435 16.1833C28.049 16.1638 28.074 16.0749 28.1296 16.0277C28.149 16.0083 28.324 15.9221 28.349 15.9499C28.3768 15.9805 28.3185 16.1055 28.299 16.1305C28.3046 16.1499 28.299 16.186 28.2574 16.261C28.2157 16.3333 28.1296 16.4555 28.099 16.4888L28.0546 16.5471C28.049 16.5527 28.0351 16.561 28.0185 16.5749C28.0463 16.5694 28.0768 16.5666 28.1101 16.5555C28.1685 16.5333 28.2324 16.511 28.3046 16.511C28.374 16.511 28.4546 16.5194 28.5102 16.5388C28.5546 16.5583 28.6324 16.5666 28.6324 16.5666L28.6268 16.586L28.6324 16.5721C28.6407 16.5777 28.6518 16.5805 28.6518 16.5944C28.6518 16.6138 28.6324 16.6249 28.6157 16.6305C28.5713 16.6527 28.4935 16.686 28.4935 16.686C28.4879 16.6916 28.4213 16.7277 28.3935 16.736C28.3657 16.7444 28.3213 16.7499 28.274 16.7416C28.2463 16.736 28.1935 16.7277 28.1546 16.7416C28.1463 16.7416 28.1268 16.7444 28.1129 16.7444ZM27.8824 16.6555C27.8879 16.6555 27.8879 16.6555 27.8879 16.6555C27.9324 16.6638 27.9824 16.6777 28.0296 16.6916C28.0713 16.7055 28.1157 16.7194 28.149 16.7055C28.1907 16.6916 28.249 16.6971 28.2907 16.7055C28.3268 16.7138 28.3685 16.711 28.3907 16.6999C28.4129 16.6944 28.4685 16.6638 28.4852 16.6555C28.4852 16.6555 28.5629 16.6249 28.6074 16.5999C28.5796 16.5944 28.5296 16.586 28.499 16.5721C28.449 16.5527 28.3685 16.5444 28.3046 16.5444C28.2351 16.5444 28.1768 16.5666 28.124 16.586C28.0657 16.6083 27.9935 16.6083 27.9935 16.6083C27.974 16.6138 27.9574 16.6138 27.949 16.5999C27.949 16.5944 27.9435 16.5805 27.9629 16.5777C27.9768 16.5721 28.0185 16.5416 28.0407 16.5221L28.0851 16.4638C28.1157 16.4333 28.2907 16.1916 28.2713 16.136V16.1277L28.2768 16.1221C28.3046 16.0777 28.3268 16.0083 28.3324 15.9805C28.2963 15.9888 28.1879 16.0305 28.1629 16.0527C28.1324 16.0805 28.1046 16.1444 28.0907 16.1888C28.0768 16.2333 28.0185 16.2694 28.0129 16.2749C27.9713 16.3055 27.9351 16.4166 27.9213 16.4971C27.9018 16.5916 27.6935 16.6416 27.6713 16.6527C27.6657 16.6527 27.6629 16.6583 27.6629 16.6583H27.6685C27.6768 16.6583 27.6824 16.6666 27.6907 16.6777C27.6963 16.6833 27.7101 16.6999 27.7129 16.6999C27.7268 16.6999 27.7713 16.686 27.8046 16.6721C27.8407 16.6583 27.8629 16.6555 27.8824 16.6555ZM28.0824 16.6805C28.0463 16.6749 28.024 16.6749 28.0268 16.6527C28.0268 16.6305 28.0324 16.6305 28.1851 16.6249C28.2713 16.6194 28.3935 16.6166 28.4157 16.6055L28.4213 16.6249L28.4296 16.6388C28.4102 16.6583 28.3602 16.661 28.3102 16.6694H28.2963C28.2768 16.6694 28.2379 16.6749 28.1963 16.6749C28.1768 16.6749 28.1657 16.6749 28.1518 16.6749C28.1435 16.6749 28.1324 16.6749 28.124 16.6805C28.1129 16.6805 28.0963 16.6805 28.0824 16.6805ZM27.9518 16.5694L27.9379 16.5638C27.924 16.5583 27.9185 16.5499 27.9185 16.5444C27.9185 16.536 27.924 16.5305 27.9324 16.5305C27.9379 16.5166 27.9463 16.4999 27.9546 16.486C27.9601 16.4777 27.974 16.4499 27.9851 16.4221C28.0074 16.3777 28.0296 16.3277 28.0435 16.3027C28.0518 16.2888 28.0629 16.2721 28.0713 16.2527C28.0935 16.211 28.1213 16.161 28.1407 16.1333C28.1407 16.1333 28.1907 16.061 28.2324 16.0638C28.2407 16.0638 28.2518 16.0694 28.2546 16.0833L28.2601 16.0971L28.2518 16.1055C28.1379 16.1999 28.0601 16.3833 28.0379 16.4333C28.0324 16.4416 27.9963 16.5027 27.9824 16.5194C27.9824 16.5249 27.9768 16.5277 27.9768 16.5333C27.9713 16.5416 27.9685 16.561 27.9546 16.5638H27.9518V16.5694Z" fill="black"/>
<path d="M28.0269 16.8498C28.0269 16.8498 27.7214 16.6915 27.7075 16.6859C27.6991 16.6859 27.5714 16.6137 27.513 16.5943C27.4714 16.5804 27.413 16.5748 27.3908 16.5748C27.3408 16.5804 27.2603 16.6026 27.2603 16.6026L27.338 16.6332C27.338 16.6332 27.4103 16.6693 27.4436 16.6887C27.4936 16.7165 27.4936 16.7471 27.4936 16.7471L27.7658 16.8693L27.8214 16.9109C27.8241 16.9137 27.8741 16.8415 28.0269 16.8498Z" fill="#009B3A"/>
<path d="M27.8242 16.9304L27.7548 16.8804L27.477 16.7582V16.7499C27.477 16.7499 27.4715 16.7221 27.4326 16.7054C27.3965 16.686 27.327 16.6499 27.327 16.6499L27.2131 16.6054L27.2548 16.5971C27.2604 16.5971 27.3354 16.5749 27.3854 16.5693C27.4076 16.5693 27.4659 16.5693 27.5131 16.5888C27.5492 16.6027 27.6187 16.6332 27.6631 16.6582C27.6826 16.6666 27.7048 16.6777 27.7076 16.6804C27.727 16.686 27.9576 16.8082 28.0298 16.8443L28.0215 16.8721C27.877 16.8638 27.827 16.9277 27.827 16.9277L27.8242 16.9304ZM27.5048 16.7416L27.7742 16.861L27.8242 16.8971C27.8437 16.8777 27.8881 16.8471 27.9742 16.8416C27.8603 16.7832 27.7187 16.711 27.7048 16.7054C27.6992 16.7054 27.6909 16.6999 27.6548 16.6832C27.6104 16.661 27.5465 16.6277 27.5104 16.6138C27.4687 16.5999 27.4159 16.5943 27.3909 16.5999C27.3631 16.5999 27.3326 16.6082 27.3048 16.6138L27.3409 16.6277C27.3409 16.6277 27.4131 16.6638 27.4465 16.6832C27.4881 16.7054 27.502 16.7277 27.5048 16.7416Z" fill="black"/>
<path d="M28.3328 16.2223C28.4273 16.1361 28.4745 16.0167 28.5523 15.95C28.5662 15.9584 28.5662 15.9723 28.5467 16C28.5328 16.0278 28.5106 16.0362 28.5023 16.05C28.4828 16.0723 28.4384 16.1084 28.4245 16.1362C28.4106 16.1584 28.3967 16.1917 28.3551 16.2139C28.3134 16.2361 28.3273 16.2778 28.3245 16.2945C28.319 16.3139 28.2551 16.3584 28.2245 16.4139C28.219 16.4723 28.2162 16.45 28.1801 16.4695C28.2551 16.3723 28.2884 16.3084 28.3328 16.2223ZM28.119 16.4917C28.1134 16.5056 27.9245 16.6111 27.9828 16.5973C28.0412 16.5834 28.2134 16.5195 28.2634 16.4973C28.3217 16.4695 28.3578 16.4167 28.4051 16.3695C28.4495 16.325 28.5967 16.1889 28.619 16.1334C28.6412 16.0778 28.6634 16.0028 28.569 15.8334C28.569 15.8334 28.5551 15.8639 28.519 15.8973C28.4828 15.9278 28.4273 15.9667 28.4273 15.9667L28.3634 16.025C28.369 16.0278 28.1467 16.4278 28.119 16.4917Z" fill="#009B3A"/>
<path d="M27.9742 16.6139C27.9658 16.6139 27.9603 16.6083 27.9547 16.6C27.9464 16.5805 27.9603 16.5722 28.0464 16.5194C28.0686 16.5055 28.0964 16.4889 28.1047 16.4777C28.1353 16.4083 28.3464 16.0277 28.3547 16.0138L28.3603 16.0083L28.4242 15.95C28.4297 15.95 28.4797 15.9138 28.5159 15.8805C28.5464 15.8527 28.5603 15.8222 28.5603 15.8222L28.5742 15.7916L28.5936 15.8222C28.6881 15.9916 28.6742 16.0722 28.6436 16.1361C28.6214 16.1861 28.5075 16.3 28.4436 16.3583L28.4242 16.3777C28.4103 16.3916 28.402 16.4 28.3881 16.4139C28.3575 16.45 28.3242 16.4861 28.2742 16.5083C28.2242 16.5305 28.0464 16.5944 27.9936 16.6083C27.9881 16.6139 27.9769 16.6139 27.9742 16.6139ZM28.1325 16.5C28.127 16.5083 28.1186 16.5139 28.0631 16.55C28.1353 16.5277 28.2214 16.4944 28.2547 16.4777C28.2964 16.4583 28.3242 16.4277 28.3547 16.3916C28.3686 16.3777 28.377 16.3639 28.3908 16.3555L28.4103 16.3361C28.4659 16.2805 28.5797 16.1666 28.602 16.1277C28.6242 16.0777 28.6436 16.0138 28.5659 15.8722C28.5575 15.8861 28.5436 15.9 28.5297 15.9138C28.4936 15.9444 28.4436 15.9833 28.4381 15.9833L28.3797 16.0389C28.3631 16.0722 28.1631 16.4416 28.1325 16.5ZM28.1964 16.4861L28.1742 16.4583C28.2381 16.3639 28.2742 16.3 28.3158 16.2139L28.3242 16.2194L28.3158 16.2111C28.3603 16.1694 28.3964 16.1166 28.4353 16.0666C28.4659 16.0166 28.4992 15.9722 28.5409 15.9388L28.5492 15.9305L28.5631 15.9388C28.5853 15.9527 28.5853 15.9805 28.5686 16.0111C28.5603 16.0305 28.5464 16.0388 28.5381 16.0472C28.5325 16.0527 28.5297 16.0555 28.5242 16.0611C28.5159 16.0694 28.502 16.0833 28.4881 16.0972C28.4742 16.1111 28.452 16.1333 28.4464 16.1416C28.4325 16.1638 28.4159 16.2 28.3742 16.2277C28.352 16.2416 28.352 16.2583 28.352 16.2777C28.352 16.2833 28.352 16.2916 28.352 16.2972C28.3464 16.3111 28.3381 16.325 28.3158 16.3416C28.2936 16.3639 28.2714 16.3861 28.252 16.4194C28.2464 16.4555 28.2436 16.4694 28.2214 16.4777C28.2131 16.4777 28.2047 16.4805 28.1964 16.4861ZM28.5325 16C28.527 16.0055 28.5242 16.0083 28.5186 16.0138C28.5242 16.0083 28.527 16.0055 28.5325 16Z" fill="black"/>
<path d="M28.8825 16.3502C28.8825 16.3502 28.763 16.3418 28.7519 16.3418C28.738 16.3418 28.6741 16.3335 28.5797 16.3335C28.4853 16.3335 28.4491 16.364 28.4241 16.3918C28.3964 16.4224 28.3241 16.4918 28.3241 16.4918L28.3658 16.4863C28.4603 16.414 28.538 16.4418 28.5658 16.4363C28.5964 16.4363 28.6353 16.4363 28.7297 16.4057C28.8297 16.3696 28.8214 16.4057 28.8103 16.4057C28.7658 16.4252 28.7158 16.4335 28.6658 16.4335C28.5936 16.439 28.5297 16.4529 28.5019 16.4529C28.4741 16.4529 28.2603 16.5113 28.2603 16.5113C28.2603 16.5113 28.488 16.5252 28.5158 16.5335C28.538 16.5418 28.5797 16.539 28.6103 16.5252C28.6964 16.4835 28.738 16.4752 28.7741 16.4696C28.8103 16.4613 28.8547 16.439 28.8547 16.439C28.8547 16.439 28.8769 16.4252 28.8991 16.3835C28.913 16.3418 28.8825 16.3502 28.8825 16.3502ZM28.9964 15.7224C29.0102 15.6863 29.0464 15.6029 29.088 15.5668C29.1102 15.5474 29.1519 15.5363 29.1741 15.5252C29.1825 15.5196 29.2464 15.5196 29.1658 15.5446C29.1297 15.5529 29.0852 15.5724 29.0658 15.6085C29.038 15.689 29.0102 15.7585 28.9575 15.8085C28.9158 15.8502 28.8936 15.9029 28.8936 15.9029L28.8519 15.9168C28.9241 15.8724 28.9602 15.7863 28.9964 15.7224ZM29.3686 15.6779C29.3241 15.6918 29.3102 15.7057 29.3102 15.7057C29.2102 15.7335 29.1741 15.7974 29.1297 15.8474C29.1075 15.8752 29.0741 15.8918 28.9741 15.939C28.8797 15.9807 28.8047 16.0446 28.8047 16.0446C28.8047 16.0446 28.7741 16.0502 28.7825 16.0668C28.7825 16.0752 28.8103 16.0668 28.8103 16.0668C28.8103 16.0668 29.0047 16.039 29.088 15.989C29.138 15.9585 29.1686 15.9335 29.2186 15.8585C29.2408 15.8279 29.263 15.764 29.2686 15.8029C29.2741 15.9113 29.1047 16.0168 29.0325 16.0474C28.9908 16.0668 28.9408 16.0696 28.8741 16.0835C28.8047 16.0974 28.7658 16.0918 28.7686 16.0779C28.7769 16.0557 28.7825 16.0502 28.7991 16.0335C28.8297 15.9974 28.9075 15.9835 28.9686 15.9557C29.038 15.9252 29.0991 15.8835 29.1325 15.8418C29.163 15.8057 29.1769 15.7863 29.188 15.7557C29.2102 15.6696 29.2158 15.6252 29.238 15.5918C29.3186 15.4918 29.3325 15.4557 29.338 15.414C29.338 15.4057 29.2964 15.4363 29.2741 15.4502C29.2297 15.4779 29.2158 15.4779 29.1241 15.5002C29.0325 15.5224 29.0325 15.5807 29.0186 15.6085C29.013 15.6168 28.9769 15.6668 28.9602 15.6779C28.9408 15.6863 28.8964 15.7502 28.8825 15.7863C28.8686 15.814 28.8519 15.8307 28.8325 15.8307C28.813 15.8252 28.8686 15.6307 28.8769 15.6002C28.8908 15.5696 28.8908 15.5057 28.8908 15.4807C28.8908 15.4613 28.8908 15.4085 28.8547 15.4002C28.8186 15.3946 28.8186 15.3446 28.8186 15.3446C28.7325 15.4168 28.7825 15.5502 28.7908 15.6252C28.7991 15.7029 28.7714 15.8446 28.7714 15.8446C28.8519 15.8807 28.7908 15.9807 28.763 16.014C28.7353 16.0446 28.6853 16.0557 28.663 16.0835C28.6408 16.114 28.4686 16.3529 28.4686 16.3529L28.6825 16.2946C28.6825 16.2946 28.7019 16.3002 28.6686 16.2724C28.638 16.2502 28.6769 16.1585 28.7047 16.1363C28.7603 16.0946 28.8269 16.1279 28.8269 16.1279C28.8269 16.1279 28.9269 16.1418 29.0491 16.0974C29.1491 16.0557 29.1936 15.9918 29.2436 15.9418C29.2714 15.914 29.3158 15.8279 29.3491 15.7724C29.3547 15.7279 29.388 15.6696 29.3686 15.6779Z" fill="#009B3A"/>
<path d="M28.5412 16.5555C28.5273 16.5555 28.5134 16.5555 28.5051 16.55C28.4912 16.5444 28.3495 16.5361 28.2551 16.5305L28.2495 16.5C28.2578 16.4944 28.2773 16.4916 28.2995 16.4861L28.3051 16.4805C28.3051 16.4805 28.3773 16.4111 28.4051 16.3861C28.4106 16.3805 28.4106 16.3805 28.4134 16.3778L28.4051 16.3833L28.4328 16.3416C28.4412 16.3333 28.6051 16.1 28.6273 16.0694C28.6412 16.05 28.6578 16.0416 28.6828 16.0333C28.7023 16.025 28.7189 16.0139 28.7273 16.0028C28.7467 15.975 28.7773 15.925 28.7689 15.8889C28.7634 15.875 28.7551 15.8667 28.7412 15.8611L28.7273 15.8555L28.7328 15.8416C28.7328 15.8416 28.7606 15.7 28.7523 15.6278C28.7523 15.6139 28.7467 15.5972 28.7439 15.5833C28.7301 15.5055 28.7078 15.4028 28.7856 15.3333L28.8134 15.3111V15.3472C28.8134 15.3472 28.8134 15.3833 28.8356 15.3889C28.8856 15.3972 28.8856 15.4611 28.8856 15.4833C28.8856 15.4889 28.8856 15.5639 28.8662 15.6055C28.8523 15.6361 28.8217 15.7639 28.8162 15.8111C28.8217 15.8055 28.8301 15.7972 28.8384 15.7833C28.8578 15.7472 28.9023 15.6778 28.9245 15.6639C28.9384 15.6583 28.9689 15.6139 28.9745 15.6055C28.9801 15.6 28.9801 15.5917 28.9828 15.5861C28.9912 15.5555 29.0106 15.5055 29.0912 15.4861C29.1106 15.4805 29.1273 15.4778 29.1412 15.4722C29.1912 15.4583 29.205 15.4528 29.2412 15.4361C29.2495 15.4305 29.2606 15.4278 29.2689 15.4167C29.2995 15.3972 29.3106 15.3889 29.3245 15.3944L29.3328 15.4V15.4139C29.3273 15.4639 29.3106 15.5 29.2328 15.6055C29.2189 15.625 29.2134 15.6472 29.2051 15.6833C29.1995 15.7055 29.1967 15.7278 29.1856 15.7611C29.2134 15.7389 29.2495 15.7167 29.2939 15.7028C29.2995 15.6972 29.3162 15.6889 29.3523 15.675C29.3662 15.6694 29.3745 15.6805 29.3745 15.6805C29.3828 15.6889 29.3828 15.7028 29.3384 15.7805L29.3189 15.8083C29.2884 15.8639 29.2495 15.9278 29.2273 15.95C29.2189 15.9583 29.2078 15.9694 29.1995 15.9778C29.1578 16.0222 29.1134 16.0722 29.0273 16.1055C28.9051 16.1555 28.7995 16.1416 28.7967 16.1416C28.7912 16.1416 28.7273 16.1139 28.6884 16.15C28.6689 16.1639 28.6439 16.2139 28.6439 16.2444C28.6439 16.25 28.6439 16.2528 28.6495 16.2583C28.6634 16.2666 28.6801 16.2805 28.6717 16.3C28.6662 16.3083 28.6634 16.3139 28.6523 16.3139L28.6023 16.3278C28.6578 16.3278 28.6967 16.3333 28.7217 16.3361C28.7301 16.3361 28.7356 16.3361 28.7412 16.3361C28.7495 16.3361 28.8467 16.3444 28.8689 16.3444C28.8773 16.3389 28.8912 16.3444 28.8995 16.3528C28.9134 16.3666 28.8995 16.3889 28.8939 16.3972C28.8717 16.4389 28.8439 16.4555 28.8439 16.4555C28.8384 16.4555 28.7995 16.4833 28.7578 16.4861H28.7523C28.7162 16.4944 28.6801 16.5055 28.5967 16.5416C28.5912 16.5444 28.5634 16.5555 28.5412 16.5555ZM28.369 16.5C28.4328 16.5055 28.4995 16.5083 28.5134 16.5139C28.5356 16.5222 28.569 16.5194 28.594 16.5055C28.6801 16.4639 28.7217 16.4555 28.7523 16.45H28.7578C28.7884 16.4444 28.8301 16.4222 28.8301 16.4194C28.8301 16.4194 28.8495 16.4055 28.8662 16.375C28.8717 16.3666 28.8717 16.3666 28.8717 16.3611L28.8662 16.3528V16.3722C28.8217 16.3666 28.7439 16.3639 28.7384 16.3639C28.7328 16.3639 28.7301 16.3639 28.7162 16.3639C28.6884 16.3583 28.6356 16.3555 28.5606 16.3555C28.469 16.3555 28.4384 16.3861 28.419 16.4111C28.4106 16.4194 28.3967 16.4389 28.3773 16.4528C28.4412 16.4222 28.4912 16.425 28.5217 16.425C28.5301 16.425 28.5356 16.425 28.5412 16.425H28.5495C28.5773 16.425 28.619 16.425 28.6995 16.3944C28.7717 16.3666 28.7912 16.375 28.7995 16.3861C28.8051 16.3916 28.8078 16.4 28.8078 16.4083C28.8078 16.4166 28.7995 16.4278 28.7884 16.4278C28.7439 16.4472 28.6884 16.4555 28.6384 16.4583C28.5967 16.4583 28.5606 16.4666 28.5328 16.4722C28.5051 16.4778 28.4884 16.4778 28.4745 16.4778C28.4884 16.4694 28.4328 16.4805 28.369 16.5C28.3745 16.4944 28.3745 16.4944 28.369 16.5ZM28.7745 15.8278C28.7967 15.8416 28.8051 15.8583 28.8106 15.8722C28.8245 15.9278 28.7745 15.9944 28.7606 16.0139C28.7412 16.0333 28.7189 16.0444 28.7023 16.0555C28.6856 16.0666 28.6717 16.075 28.6606 16.0833C28.6412 16.1055 28.5412 16.2416 28.4912 16.3139L28.6356 16.2722C28.6273 16.2666 28.6217 16.2528 28.6217 16.2361C28.6217 16.1944 28.6523 16.1361 28.6773 16.1139C28.6995 16.0944 28.7217 16.0916 28.7467 16.0861C28.7412 16.0805 28.7384 16.0722 28.7412 16.0639C28.7467 16.0444 28.7551 16.0361 28.7634 16.0222C28.7689 16.0166 28.7689 16.0139 28.7717 16.0083C28.7939 15.9805 28.8412 15.9639 28.8856 15.95C28.8939 15.9444 28.9051 15.9417 28.9134 15.9417C28.9273 15.9333 28.9412 15.9278 28.9551 15.9194C28.9634 15.9139 28.9745 15.9111 28.9828 15.9055C29.0328 15.8778 29.0745 15.8472 29.1023 15.8194C29.1328 15.7833 29.1439 15.7694 29.1523 15.7417C29.1606 15.7111 29.1662 15.6861 29.1717 15.6639C29.18 15.6222 29.1856 15.5944 29.2023 15.5722C29.2606 15.5 29.2828 15.4639 29.2939 15.4305L29.2884 15.4361C29.2801 15.4444 29.2662 15.45 29.2606 15.4555C29.2245 15.4778 29.2051 15.4833 29.1523 15.4972C29.1384 15.5028 29.1245 15.5055 29.1023 15.5111C29.0384 15.5305 29.0245 15.5611 29.0162 15.5889C29.0106 15.5972 29.0106 15.6083 29.0078 15.6111C29.0023 15.625 28.9634 15.675 28.9384 15.6833C28.9301 15.6889 28.8828 15.7472 28.8689 15.7833C28.8551 15.8194 28.8245 15.8417 28.7995 15.8389H28.7912L28.7856 15.8305C28.7662 15.8 28.8301 15.5889 28.8301 15.5861C28.8439 15.5555 28.8439 15.4944 28.8439 15.4778C28.8439 15.4611 28.8439 15.4194 28.8217 15.4139C28.7995 15.4083 28.7856 15.3944 28.7773 15.3778C28.7412 15.4333 28.7551 15.5083 28.7689 15.5722C28.7745 15.5917 28.7745 15.6083 28.7773 15.6222C28.8023 15.6805 28.7828 15.7916 28.7745 15.8278ZM28.8245 16.1C28.8301 16.1 28.9189 16.1083 29.0328 16.0694C29.0967 16.0416 29.1384 16.0055 29.1689 15.975C29.1189 16.0166 29.0606 16.0472 29.0273 16.0611C28.9912 16.075 28.9467 16.0833 28.8912 16.0916L28.8634 16.0972C28.8523 16.0944 28.8328 16.0944 28.8245 16.1ZM28.9328 15.9722C28.8884 15.9944 28.8467 16.0278 28.8273 16.0416C28.8828 16.0333 29.0078 16.0055 29.0717 15.9694C29.1217 15.9389 29.1495 15.9139 29.1995 15.8416C29.205 15.8333 29.2134 15.8194 29.2189 15.8111C29.2384 15.7805 29.2467 15.7611 29.2634 15.7666C29.2828 15.7722 29.2828 15.7889 29.2828 15.7944C29.2828 15.8083 29.2828 15.825 29.2745 15.8389C29.2884 15.8167 29.2967 15.7972 29.3106 15.7805L29.33 15.75C29.3439 15.7278 29.3523 15.7139 29.3578 15.7055C29.3356 15.7139 29.33 15.7194 29.33 15.7194L29.3245 15.725C29.2439 15.7472 29.205 15.7972 29.1689 15.8444C29.1634 15.85 29.1606 15.8583 29.1495 15.8639C29.1273 15.8916 29.0939 15.9083 29.0189 15.9444C29.0051 15.9528 28.9912 15.9583 28.9773 15.9666C28.9551 15.9639 28.9467 15.9694 28.9328 15.9722ZM29.3689 15.6805L29.3745 15.6944L29.3689 15.6805ZM28.8523 15.9361L28.8384 15.9055C28.8967 15.8694 28.9301 15.8111 28.9578 15.7555C28.9662 15.7417 28.9717 15.7278 28.9801 15.7139C29.0023 15.6583 29.0356 15.5861 29.0717 15.5555C29.0912 15.5361 29.1162 15.5278 29.1412 15.5194C29.1495 15.5139 29.1551 15.5139 29.1606 15.5111C29.1606 15.5111 29.1967 15.5028 29.2106 15.5167L29.2189 15.5222V15.5305C29.2134 15.5444 29.2051 15.55 29.1634 15.5583C29.1439 15.5639 29.0939 15.5805 29.0717 15.6139C29.0439 15.6916 29.0162 15.7639 28.9634 15.8194C28.9273 15.8555 28.9051 15.9111 28.9051 15.9111L28.8995 15.9166L28.8523 15.9361Z" fill="black"/>
<path d="M28.7606 16.2557C28.78 16.2501 28.78 16.2473 28.8106 16.214C28.8411 16.1834 28.8161 16.1279 28.7689 16.1279C28.7467 16.1279 28.7245 16.1223 28.6772 16.1834C28.6356 16.2418 28.6967 16.264 28.7217 16.264C28.7273 16.264 28.7411 16.2584 28.7606 16.2557Z" fill="#009B3A"/>
<path d="M28.7187 16.2806C28.6965 16.2806 28.6604 16.2667 28.6465 16.2362C28.6409 16.2223 28.6382 16.2001 28.6604 16.1667C28.702 16.1112 28.7298 16.1028 28.7604 16.1028H28.7659C28.7937 16.1028 28.8215 16.1167 28.8354 16.1445C28.8493 16.1723 28.8437 16.2001 28.827 16.2223C28.7965 16.2528 28.7909 16.264 28.7715 16.2667C28.7465 16.2806 28.7326 16.2806 28.7187 16.2806ZM28.7687 16.1445C28.7687 16.1445 28.7632 16.1445 28.7687 16.1445H28.7604C28.7409 16.1445 28.7243 16.1445 28.6909 16.189C28.6854 16.1973 28.677 16.2112 28.6826 16.2195C28.6882 16.2334 28.7104 16.239 28.7243 16.2417C28.7298 16.2417 28.7382 16.2362 28.7548 16.2334C28.7687 16.2278 28.7687 16.2278 28.7965 16.1973C28.8104 16.1834 28.8048 16.1695 28.802 16.1612C28.7909 16.1556 28.7826 16.1445 28.7687 16.1445Z" fill="black"/>
<path d="M28.6465 15.8804C28.6188 15.9248 28.6021 15.9803 28.6243 15.9998C28.6299 16.0053 28.6465 16.0192 28.666 16.0192C28.6854 16.0192 28.7299 15.997 28.7577 15.9553C28.7854 15.9137 28.8077 15.8748 28.7521 15.847C28.7021 15.822 28.6688 15.8442 28.6465 15.8804Z" fill="#009B3A"/>
<path d="M28.6691 16.0417C28.6496 16.0417 28.6329 16.0278 28.6191 16.0195L28.6135 16.0139C28.5774 15.9861 28.5996 15.9195 28.6329 15.8695C28.6635 15.8139 28.7107 15.8 28.7635 15.8278C28.7857 15.8417 28.7996 15.8556 28.8052 15.8722C28.8135 15.9028 28.7968 15.9361 28.7774 15.9639C28.7468 16.0139 28.6913 16.0417 28.6691 16.0417ZM28.6385 15.9806C28.6385 15.9806 28.6385 15.9806 28.6441 15.9861C28.6496 15.9917 28.6635 16 28.6718 16C28.6802 16 28.7218 15.9806 28.7441 15.9445C28.7579 15.925 28.7718 15.9 28.7663 15.8861C28.7663 15.8778 28.7579 15.8722 28.7441 15.8639C28.7302 15.8583 28.6941 15.8417 28.6663 15.8917L28.6468 15.8833L28.6663 15.8917C28.6329 15.9417 28.6329 15.9778 28.6385 15.9806Z" fill="black"/>
<path d="M28.8105 15.3C28.8105 15.3 28.8161 15.2917 28.7966 15.2722C28.7661 15.2417 28.7272 15.1861 28.7272 15.1861C28.6688 15.2167 28.6494 15.2805 28.6494 15.3083C28.6494 15.3361 28.6577 15.3944 28.6494 15.4528C28.6438 15.4722 28.6438 15.4972 28.6133 15.5722C28.5827 15.6444 28.6188 15.7139 28.6216 15.7361C28.6272 15.7583 28.6494 15.8305 28.6494 15.8305C28.6494 15.8305 28.6716 15.8166 28.6799 15.8111C28.6883 15.8055 28.7216 15.8111 28.7216 15.8111C28.7216 15.8111 28.7577 15.7472 28.7577 15.7111C28.7577 15.6833 28.7522 15.6389 28.7383 15.5694C28.7188 15.4694 28.7188 15.4417 28.7327 15.3889C28.7549 15.3361 28.8105 15.3 28.8105 15.3Z" fill="#009B3A"/>
<path d="M28.646 15.8582L28.6377 15.836C28.6377 15.8304 28.6154 15.7638 28.6071 15.736C28.6071 15.736 28.6071 15.7304 28.6016 15.7221C28.5932 15.6916 28.571 15.6277 28.596 15.5582C28.6238 15.4888 28.6266 15.4666 28.6321 15.4443C28.6377 15.4027 28.6377 15.3638 28.6321 15.3305C28.6321 15.3166 28.6321 15.3082 28.6321 15.2999C28.6321 15.2693 28.6543 15.1943 28.7182 15.1638L28.7321 15.1555L28.7404 15.1693C28.7404 15.1693 28.7766 15.2249 28.8043 15.2499C28.8266 15.2777 28.8266 15.2916 28.8238 15.2943L28.8099 15.286L28.8182 15.2999C28.8182 15.2999 28.7682 15.336 28.7599 15.3805C28.746 15.436 28.746 15.461 28.7654 15.5582C28.7793 15.6221 28.7849 15.6721 28.7849 15.6999C28.7849 15.7416 28.7488 15.7999 28.7432 15.8082L28.7377 15.8166H28.7293C28.7154 15.8166 28.6988 15.8166 28.6932 15.8166C28.6877 15.8166 28.6793 15.8249 28.6654 15.8304L28.646 15.8582ZM28.7238 15.2082C28.6821 15.2388 28.6654 15.2888 28.6654 15.3082C28.6654 15.3166 28.6654 15.3277 28.6654 15.336C28.671 15.3666 28.671 15.4082 28.6654 15.4555C28.6599 15.4777 28.6571 15.4999 28.6293 15.5777C28.6071 15.6332 28.6238 15.686 28.6349 15.7138C28.6349 15.7193 28.6404 15.7221 28.6404 15.7277C28.646 15.7416 28.6543 15.7777 28.6627 15.8054C28.6682 15.7999 28.6766 15.7999 28.6821 15.7971C28.6904 15.7971 28.7043 15.7971 28.7127 15.7971C28.721 15.7749 28.7404 15.7388 28.7432 15.7166C28.7432 15.6971 28.7432 15.6582 28.7293 15.5804C28.7099 15.4805 28.7099 15.4499 28.7238 15.3888C28.7321 15.3443 28.7682 15.3082 28.7877 15.2943C28.7877 15.2943 28.7821 15.2888 28.7793 15.286C28.7599 15.2638 28.7377 15.2277 28.7238 15.2082Z" fill="black"/>
<path d="M28.8965 15.3998C28.8965 15.3998 28.9271 15.3915 28.9465 15.3637C28.9688 15.3276 28.9604 15.286 28.9604 15.286C28.9104 15.186 28.8382 15.2665 28.8382 15.2665C28.7771 15.3915 28.8965 15.3998 28.8965 15.3998Z" fill="#009B3A"/>
<path d="M28.8964 15.4194C28.8908 15.4194 28.8408 15.4139 28.8158 15.375C28.7964 15.3472 28.802 15.3056 28.8242 15.2556L28.8297 15.25C28.8297 15.25 28.8658 15.2083 28.9103 15.2139C28.9381 15.2194 28.9658 15.2361 28.9825 15.2722V15.2778C28.9825 15.2778 28.9881 15.3222 28.9631 15.3639C28.9408 15.4 28.9047 15.4083 28.8992 15.4083L28.8936 15.3889L28.8964 15.4194ZM28.8603 15.2778C28.8464 15.3 28.8381 15.3333 28.852 15.3556C28.8658 15.375 28.8881 15.3778 28.8964 15.3833C28.9019 15.3833 28.9242 15.375 28.9325 15.3556C28.9464 15.3278 28.9464 15.3056 28.9464 15.2972C28.9325 15.275 28.9186 15.2611 28.9047 15.2611C28.8881 15.25 28.8631 15.2694 28.8603 15.2778Z" fill="black"/>
<path d="M29.074 15.2139C28.9962 15.2195 28.9601 15.3556 28.9601 15.3556C28.9601 15.3556 28.9462 15.3917 28.9046 15.4139C28.8601 15.4417 28.8851 15.4833 28.8851 15.55C28.8851 15.6195 28.8351 15.7417 28.8351 15.7417L28.8157 15.7833C28.8157 15.7833 28.8157 15.8139 28.8462 15.7556C28.8962 15.6611 28.9462 15.6833 28.9684 15.5833C28.9823 15.5056 29.1101 15.4833 29.1101 15.4833L29.074 15.4778C28.9434 15.4139 29.0823 15.2639 29.1046 15.2361C29.1268 15.2083 29.1518 15.2083 29.074 15.2139Z" fill="#009B3A"/>
<path d="M28.8271 15.8194H28.8215C28.8076 15.8138 28.7993 15.8055 28.7993 15.7916V15.786L28.8188 15.7416C28.8188 15.7416 28.8632 15.6221 28.8632 15.561C28.8632 15.5416 28.8576 15.5249 28.8576 15.5055C28.8521 15.4694 28.8493 15.4277 28.8882 15.4055C28.9188 15.3833 28.9326 15.3555 28.9326 15.3555C28.9382 15.3416 28.9771 15.1999 29.0687 15.1971H29.0771C29.1215 15.1971 29.1354 15.1916 29.1465 15.211C29.1521 15.2305 29.141 15.2388 29.1326 15.2416C29.1271 15.2471 29.1243 15.2499 29.1187 15.2555L29.1132 15.261C29.0549 15.3305 29.0326 15.3833 29.041 15.4194C29.0465 15.4388 29.0604 15.4499 29.0826 15.461L29.1132 15.4666V15.511C29.0826 15.5166 28.9993 15.5416 28.991 15.5916C28.9771 15.6555 28.9493 15.6777 28.9271 15.6999C28.9076 15.7194 28.891 15.7305 28.8688 15.7721C28.8604 15.7944 28.8465 15.8194 28.8271 15.8194ZM29.0743 15.236C29.0243 15.2416 28.9882 15.3305 28.9799 15.3638C28.9799 15.3694 28.9604 15.4083 28.916 15.436C28.8965 15.4444 28.8965 15.4555 28.9021 15.4944C28.9021 15.5138 28.9076 15.5305 28.9076 15.5527C28.9076 15.5888 28.8938 15.6388 28.8854 15.6805C28.891 15.6749 28.8938 15.6721 28.8993 15.6666C28.9215 15.6471 28.941 15.6305 28.9493 15.586C28.9576 15.536 28.9993 15.5083 29.041 15.4916C29.0187 15.4721 29.0049 15.4555 28.9993 15.4333C28.9826 15.3555 29.0465 15.2721 29.0743 15.236Z" fill="black"/>
<path d="M29.052 15.3778C29.0158 15.4556 29.1158 15.4584 29.1436 15.4473C29.1519 15.4417 29.1742 15.4167 29.1742 15.4167C29.2158 15.3584 29.1797 15.3167 29.1547 15.3112C29.1325 15.3056 29.0881 15.3 29.052 15.3778Z" fill="#009B3A"/>
<path d="M29.1104 15.4722C29.0882 15.4722 29.0604 15.4666 29.0465 15.4499C29.0326 15.4416 29.0187 15.4138 29.0382 15.3722C29.0798 15.2805 29.1326 15.286 29.1604 15.2944C29.1743 15.2999 29.1965 15.3138 29.2048 15.3388C29.2132 15.3583 29.2132 15.3888 29.1854 15.4305C29.177 15.4388 29.1576 15.4611 29.1493 15.4666C29.1409 15.4694 29.1243 15.4722 29.1104 15.4722ZM29.1326 15.3277C29.1104 15.3277 29.0882 15.3472 29.0687 15.3861C29.0604 15.4083 29.0632 15.4166 29.0687 15.4166C29.0826 15.4305 29.1243 15.4305 29.1326 15.4249C29.1382 15.4249 29.1465 15.4111 29.1604 15.3972C29.1743 15.3777 29.1798 15.3611 29.1743 15.3416C29.1687 15.3277 29.1604 15.3222 29.1548 15.3194C29.1409 15.3277 29.1382 15.3277 29.1326 15.3277Z" fill="black"/>
<path d="M28.8603 15.0862C28.888 15.1362 28.9603 15.2723 28.9797 15.264C28.988 15.2584 28.9797 15.2334 28.9797 15.2334C28.9797 15.2334 28.9797 15.1973 28.9658 15.1529C28.9519 15.1084 28.9575 15.0473 28.9353 15.0112C28.913 14.9751 28.8575 14.9307 28.8353 14.8696C28.813 14.8112 28.8297 14.7001 28.8297 14.689C28.8297 14.6779 28.838 14.6834 28.8242 14.6696C28.8103 14.6557 28.7186 14.6057 28.7186 14.6057C28.7186 14.6057 28.7242 14.6418 28.7242 14.7057C28.7242 14.7251 28.7186 14.7418 28.7158 14.7696C28.7158 14.7973 28.7297 14.8279 28.7658 14.9057C28.813 14.9862 28.838 15.0418 28.8603 15.0862ZM29.4186 14.4307C29.4186 14.4307 29.3908 14.4751 29.3825 14.4862C29.3742 14.4946 29.2186 14.6279 29.2103 14.6307C29.2019 14.6334 29.1242 14.6612 29.0519 14.8584C28.9797 15.0529 29.0103 15.2362 29.0103 15.2362L29.0464 15.2307L29.0519 15.2112C29.0519 15.2112 29.0658 15.1473 29.0742 15.0973C29.0825 15.0473 29.1381 14.9779 29.1742 14.9279C29.2103 14.8779 29.238 14.8084 29.238 14.8084C29.2797 14.7279 29.2964 14.6529 29.3381 14.5946C29.3381 14.664 29.0797 15.0807 29.0519 15.2251L29.1297 15.2112C29.1936 15.1557 29.2714 15.039 29.3242 14.9612C29.3797 14.8834 29.4019 14.7668 29.4103 14.7112C29.4242 14.6696 29.4186 14.4307 29.4186 14.4307Z" fill="#009B3A"/>
<path d="M28.9744 15.2806C28.9549 15.2806 28.9299 15.2501 28.8438 15.0945C28.8299 15.0723 28.8216 15.0501 28.8077 15.0167C28.7938 14.989 28.7771 14.9529 28.7577 14.9084C28.716 14.8306 28.7021 14.7945 28.7021 14.764C28.7021 14.7501 28.7077 14.7362 28.7077 14.7279C28.7077 14.7195 28.7133 14.7084 28.7133 14.7056C28.7133 14.6417 28.7077 14.6056 28.7077 14.6056L28.7021 14.5751L28.7327 14.5945C28.7605 14.6084 28.8327 14.6501 28.841 14.664C28.8466 14.6723 28.8605 14.6834 28.8466 14.6945C28.8383 14.7751 28.8383 14.8362 28.8521 14.8667C28.866 14.9029 28.8938 14.9306 28.916 14.9584C28.9299 14.9723 28.9438 14.989 28.9521 15.0029C28.9716 15.0306 28.9744 15.0667 28.9799 15.0973C28.9855 15.1167 28.9855 15.1334 28.9883 15.1473C28.9938 15.1556 28.9938 15.1695 28.9966 15.1779C28.991 15.1056 28.9966 14.9862 29.0466 14.8584C29.091 14.7362 29.1466 14.6584 29.2105 14.6279C29.2244 14.6195 29.3688 14.4917 29.3827 14.4834C29.3882 14.4779 29.4049 14.4529 29.4132 14.4334L29.4271 14.4417H29.4466C29.4466 14.4501 29.4466 14.6834 29.4382 14.7362C29.4299 14.7806 29.4077 14.9084 29.3466 14.9917L29.3244 15.0223C29.2688 15.1001 29.2021 15.1945 29.1466 15.2445L29.141 15.2501L29.0355 15.2695L29.0049 15.2751C29.0049 15.2834 28.9994 15.2945 28.991 15.2973C28.9827 15.2779 28.9771 15.2806 28.9744 15.2806ZM28.741 14.6306C28.741 14.6501 28.741 14.6723 28.741 14.7029C28.741 14.7112 28.741 14.7223 28.7355 14.7306C28.7355 14.739 28.7299 14.7529 28.7299 14.7667C28.7299 14.789 28.7494 14.8251 28.7799 14.8945C28.8021 14.939 28.8216 14.9723 28.8355 15.0029C28.8494 15.0334 28.8577 15.0584 28.8716 15.0751C28.916 15.1612 28.9438 15.2029 28.9577 15.2251C28.9577 15.2112 28.9521 15.1834 28.9438 15.1529C28.9383 15.1334 28.9355 15.1167 28.9355 15.0973C28.9299 15.0667 28.9271 15.039 28.9133 15.0167C28.9049 15.0029 28.8938 14.989 28.8827 14.9751C28.8549 14.9473 28.8271 14.9112 28.8133 14.8751C28.7938 14.8251 28.7994 14.7445 28.8077 14.6834C28.8077 14.6779 28.8077 14.6779 28.8077 14.6751C28.8049 14.6695 28.7744 14.6501 28.741 14.6306ZM29.2244 14.6445C29.2244 14.6445 29.2244 14.6445 29.2188 14.6501C29.1494 14.6862 29.0994 14.7862 29.0744 14.864C29.016 15.0195 29.0244 15.1695 29.0327 15.2195H29.041L29.0466 15.2112L29.066 15.0973C29.0744 15.0529 29.116 14.9973 29.1521 14.9473L29.1716 14.9251C29.2021 14.8806 29.2299 14.8112 29.2299 14.8112C29.2494 14.7806 29.2577 14.7473 29.2716 14.7195C29.291 14.6751 29.3077 14.6334 29.3355 14.5973L29.366 14.5556V14.6056C29.366 14.6417 29.3216 14.7334 29.2438 14.8779C29.1799 15.0001 29.1133 15.1362 29.0855 15.214L29.1299 15.2056C29.1799 15.1556 29.2494 15.0612 29.2994 14.9917L29.3216 14.9612C29.3771 14.889 29.3994 14.7667 29.4077 14.7195C29.4132 14.6834 29.416 14.564 29.416 14.489C29.4105 14.4945 29.4105 14.4973 29.4077 14.4973C29.3882 14.5056 29.2327 14.6417 29.2244 14.6445Z" fill="black"/>
<path d="M28.9047 14.4722C28.8631 14.4361 28.8353 14.4277 28.8353 14.4277C28.8353 14.4277 28.8436 14.4999 28.8436 14.5416C28.8436 14.5861 28.8492 14.6611 28.8436 14.6972C28.8436 14.7388 28.8214 14.8027 28.8492 14.8666C28.877 14.9305 28.9075 14.9611 28.9297 14.9972C28.952 15.0333 28.9881 15.2333 28.9881 15.2333C28.9881 15.2333 28.9742 14.9638 28.9881 14.8888C28.9964 14.8166 29.002 14.6972 28.9881 14.6388C28.9686 14.5805 28.9409 14.5138 28.9047 14.4722ZM29.0825 14.2138C29.0964 14.1916 29.1242 14.1416 29.1325 14.0722C29.1381 14.0416 29.1409 13.9916 29.1381 13.9583C29.1381 13.936 29.1298 13.8944 29.1381 13.8944C29.1464 13.8944 29.1381 13.9083 29.1436 13.9388C29.1492 13.9527 29.1381 13.9833 29.1353 14.0305C29.1353 14.0666 29.1298 14.0944 29.1159 14.1388C29.102 14.1805 29.1159 14.2249 29.1075 14.2388C29.0992 14.2527 29.077 14.3027 29.077 14.3027C29.077 14.3027 29.0631 14.3444 29.0631 14.3805C29.0631 14.4166 29.0686 14.4583 29.0686 14.4583C29.0686 14.4583 29.0881 14.4277 29.1242 14.4222C29.1242 14.4222 29.1325 14.3583 29.1325 14.3416C29.1325 14.3249 29.1548 14.1972 29.1686 14.1555C29.1881 14.0972 29.1992 13.9999 29.1686 13.8833C29.1603 13.8527 29.1548 13.7555 29.1548 13.7555C29.1548 13.7555 29.1186 13.7833 29.0964 13.8972C29.0909 13.9277 29.1048 14.0194 29.0964 14.1194C29.0964 14.1749 29.0409 14.3888 29.0381 14.3999" fill="#009B3A"/>
<path d="M28.9741 15.2362C28.9602 15.1584 28.9324 15.0306 28.9185 15.0056C28.9102 14.9917 28.8991 14.9779 28.8908 14.964C28.8713 14.9417 28.8547 14.9084 28.8352 14.8695C28.813 14.814 28.8158 14.764 28.8213 14.7251C28.8213 14.7167 28.8269 14.7029 28.8269 14.6945C28.8269 14.6723 28.8269 14.6306 28.8269 14.6001C28.8269 14.5779 28.8269 14.5584 28.8269 14.5417C28.8269 14.5001 28.8185 14.4279 28.8185 14.4279L28.813 14.4001L28.8408 14.4084C28.8408 14.4084 28.8769 14.4223 28.9185 14.4584C28.963 14.5029 28.9963 14.5862 29.0102 14.6306C29.0296 14.689 29.0241 14.8084 29.0158 14.889C29.0019 14.9612 29.0158 15.2306 29.0158 15.2306L28.9741 15.2362ZM28.8547 14.4584C28.8602 14.4806 28.8602 14.5167 28.8602 14.539C28.8602 14.5529 28.8602 14.5751 28.8602 14.5945C28.8602 14.6306 28.8602 14.6667 28.8602 14.6945C28.8602 14.7029 28.8602 14.7167 28.8547 14.7251C28.8491 14.7612 28.8463 14.8056 28.863 14.8529C28.8824 14.889 28.8991 14.9167 28.9185 14.939C28.9269 14.9529 28.938 14.9667 28.9463 14.9834C28.9519 14.9917 28.9602 15.014 28.9658 15.0417C28.9658 14.9779 28.9658 14.914 28.9713 14.8834C28.9796 14.8056 28.9852 14.6973 28.9713 14.6417C28.9491 14.5695 28.9213 14.514 28.8908 14.4862C28.8769 14.4723 28.863 14.464 28.8547 14.4584ZM29.0546 14.5084L29.0491 14.4501C29.0491 14.4501 29.0491 14.4223 29.0435 14.3917L29.0213 14.3834C29.0269 14.3751 29.0491 14.2834 29.063 14.2056H29.0574L29.063 14.1973C29.0713 14.1556 29.0769 14.1251 29.0769 14.1056C29.0824 14.0556 29.0769 14.0056 29.0769 13.964C29.0769 13.9279 29.0713 13.8945 29.0769 13.8779C29.0991 13.764 29.1352 13.7334 29.1407 13.7279L29.1685 13.7056V13.7362C29.1685 13.764 29.1741 13.8362 29.1824 13.864C29.213 14.0056 29.1907 14.114 29.1769 14.1445C29.163 14.1862 29.1407 14.3084 29.1407 14.3251C29.1407 14.3445 29.1324 14.4029 29.1324 14.4056V14.4195H29.1185C29.0907 14.4251 29.0769 14.4473 29.0769 14.4473L29.0546 14.5084ZM29.0907 14.3056C29.0907 14.3056 29.0769 14.3417 29.0824 14.3751C29.0824 14.389 29.0824 14.4029 29.0824 14.4112C29.0907 14.4056 29.0963 14.4029 29.1046 14.3973C29.1102 14.3751 29.113 14.3417 29.113 14.3279C29.113 14.3056 29.1407 14.1723 29.1491 14.1362C29.1574 14.1084 29.1796 14.0167 29.1546 13.8945C29.1546 13.9029 29.1546 13.914 29.1546 13.9251C29.1546 13.9334 29.1546 13.9445 29.1546 13.9612C29.1546 13.9751 29.1491 13.9917 29.1491 14.0167C29.1491 14.0529 29.1435 14.0862 29.1296 14.1306C29.1241 14.1501 29.1241 14.1723 29.1241 14.1945C29.1241 14.214 29.1241 14.2251 29.1185 14.2362C29.1185 14.2501 29.1019 14.2806 29.0907 14.3056ZM29.1463 13.7945C29.138 13.814 29.1269 13.8445 29.1185 13.8862C29.113 13.9001 29.1185 13.9279 29.1185 13.964C29.1185 13.9834 29.1185 13.9945 29.1241 14.014C29.1241 13.9917 29.1241 13.9695 29.1241 13.9501C29.1241 13.9445 29.1241 13.9362 29.1241 13.9279C29.1185 13.9001 29.1185 13.8723 29.138 13.8695H29.1463L29.1546 13.8751L29.1602 13.8806C29.1519 13.8584 29.1519 13.8279 29.1463 13.7945Z" fill="black"/>
<path d="M29.0827 14.2138C29.0827 14.2194 29.0771 14.2194 29.0771 14.2194L29.0827 14.2138Z" fill="#009B3A"/>
<path d="M29.0908 14.2306L29.063 14.2112C29.063 14.2112 29.063 14.2112 29.0685 14.2056L29.063 14.2112H29.0713L29.0658 14.2056L29.0963 14.2195C29.0963 14.2223 29.0908 14.2278 29.0908 14.2306Z" fill="black"/>
<path d="M28.9382 13.6501C28.9576 13.6501 28.9576 13.6724 28.9521 13.6862C28.9465 13.7057 28.9465 13.7362 28.9465 13.7418C28.9465 13.7501 28.9549 13.7973 28.9604 13.8196C28.9687 13.8418 28.9799 13.8501 28.9743 13.9001C28.9687 13.9307 28.9382 13.9696 28.9521 14.0196C28.9576 14.0473 28.9799 14.0751 28.9882 14.1001C28.9965 14.1196 28.9937 14.1585 28.9937 14.1918C28.9937 14.2251 29.0132 14.2473 29.0132 14.2473C29.0132 14.2473 28.991 14.289 28.9854 14.239C28.9771 14.1807 28.9771 14.1529 28.9632 14.1251C28.9437 14.0807 28.9271 14.0029 28.9576 13.9446C28.9632 13.9307 28.966 13.914 28.966 13.8862C28.966 13.8585 28.9465 13.814 28.9465 13.7862C28.941 13.764 28.9465 13.7168 28.9465 13.7001L28.9382 13.6501ZM28.841 13.9446C28.8465 13.9751 28.8549 14.0001 28.8965 14.0668C28.9104 14.089 28.9326 14.1529 28.9382 14.1723C28.9437 14.1918 28.9465 14.214 28.9465 14.2223C28.9465 14.2279 28.9521 14.2723 28.9521 14.2723V14.2918C28.9521 14.2918 28.8465 14.2335 28.8021 14.1973C28.7576 14.1668 28.7076 14.1196 28.6715 14.0918C28.6354 14.0612 28.5437 13.9557 28.5437 13.8696L28.5021 13.8335C28.5021 13.8335 28.4715 14.0196 28.6215 14.1418C28.6632 14.1779 28.7132 14.214 28.8076 14.2612C28.9076 14.3057 28.8937 14.3473 28.9354 14.4335C28.9771 14.5196 29.0049 14.5751 29.0076 14.5973C29.0132 14.6251 28.9993 15.0029 28.9993 15.0029L29.0049 15.039C29.0049 15.039 29.0965 14.689 29.141 14.6529C29.141 14.6529 29.0549 14.639 29.0604 14.5029L29.0465 14.4112C29.0465 14.4112 29.0271 14.3029 29.0604 14.239C29.0604 14.239 29.0965 14.1168 29.0882 14.0112C29.0799 13.9473 29.0799 13.9307 29.0687 13.8668C29.0549 13.7724 29.0187 13.6362 29.0132 13.6224C28.9993 13.5779 28.9937 13.5668 28.9826 13.5307C28.9771 13.5168 28.9687 13.4724 28.9549 13.4724C28.9465 13.4724 28.9354 13.5279 28.9354 13.5279C28.9354 13.5279 28.916 13.5918 28.9132 13.6057C28.8993 13.6557 28.8715 13.6974 28.8632 13.8112C28.8632 13.8307 28.8576 13.889 28.8549 13.8918C28.841 13.9001 28.841 13.9307 28.841 13.9446Z" fill="#009B3A"/>
<path d="M29.0137 15.0443L28.9831 15.0387L28.9776 15.0026C28.9831 14.8582 28.9915 14.6221 28.9915 14.6026C28.9859 14.5832 28.972 14.5526 28.947 14.4971L28.9248 14.4415C28.9165 14.4193 28.9053 14.3998 28.9026 14.3832C28.8831 14.3332 28.8748 14.3054 28.8081 14.2776C28.7081 14.2332 28.6581 14.1915 28.6164 14.1582C28.4609 14.0304 28.4887 13.8387 28.4942 13.8304L28.4998 13.7998L28.5692 13.8637V13.8721C28.5692 13.9498 28.6553 14.0498 28.6915 14.0804L28.7192 14.1026C28.7498 14.1304 28.7887 14.1609 28.8248 14.1832C28.8553 14.2054 28.9109 14.2387 28.947 14.2609C28.947 14.2471 28.9415 14.2248 28.9415 14.2193C28.9415 14.2137 28.9359 14.1915 28.9331 14.1748C28.9276 14.1554 28.9053 14.0971 28.8915 14.0748L28.8859 14.0609C28.8553 13.9971 28.8442 13.9804 28.8359 13.9415C28.8303 13.9221 28.8359 13.8915 28.8359 13.8832C28.8359 13.8776 28.8415 13.8554 28.8415 13.8387C28.8415 13.8248 28.8415 13.8109 28.847 13.8026C28.8553 13.7248 28.8692 13.6804 28.8831 13.6443C28.8887 13.6248 28.8915 13.6137 28.897 13.5998C28.9026 13.5804 28.9192 13.5193 28.9192 13.5193C28.9331 13.4554 28.9415 13.4498 28.9553 13.4498C28.9776 13.4498 28.9859 13.4804 28.997 13.5082C28.997 13.5137 28.997 13.5165 29.0026 13.5165L29.0081 13.5359C29.0165 13.5582 29.022 13.5721 29.0359 13.6137V13.6221C29.0637 13.7221 29.0803 13.8026 29.0915 13.8637C29.097 13.8943 29.0998 13.9193 29.0998 13.9415L29.1081 14.0054C29.122 14.1137 29.0859 14.2359 29.0803 14.2415C29.0498 14.3054 29.0665 14.4109 29.0665 14.4109L29.0803 14.5026C29.0748 14.6248 29.1442 14.6387 29.1442 14.6387L29.1804 14.6443L29.1526 14.6665C29.1137 14.6943 29.0526 14.9137 29.0137 15.0443ZM28.5192 13.8776C28.5192 13.9359 28.5276 14.0554 28.6331 14.1359C28.6776 14.1721 28.7192 14.2082 28.8192 14.2498C28.8998 14.2859 28.9137 14.3221 28.9331 14.3776C28.9387 14.3971 28.947 14.4137 28.9553 14.4359L28.9776 14.4915C29.0053 14.5498 29.022 14.5859 29.0276 14.6054C29.0331 14.6248 29.022 14.8054 29.0192 14.9193C29.047 14.8276 29.0831 14.7137 29.1109 14.6637C29.0803 14.6498 29.0331 14.6082 29.0415 14.5054L29.0276 14.4193C29.0276 14.4137 29.0137 14.3332 29.0331 14.2637C29.0276 14.2721 29.0137 14.2832 29.0026 14.2832C28.9803 14.2776 28.9803 14.2526 28.9748 14.2415V14.2221C28.9692 14.1776 28.9665 14.1526 28.9553 14.1304C28.9331 14.0804 28.9192 13.9998 28.9498 13.9359C28.9553 13.9276 28.9581 13.9082 28.9581 13.8859C28.9581 13.8721 28.9526 13.8554 28.9498 13.8359C28.9442 13.8165 28.9415 13.8054 28.9415 13.7915C28.9415 13.7721 28.9415 13.7415 28.9415 13.7193V13.6998H28.947C28.947 13.6943 28.947 13.6915 28.947 13.6859C28.9526 13.6776 28.947 13.6665 28.947 13.6665V13.6359C28.9609 13.6359 28.9692 13.6415 28.9748 13.6498C28.9831 13.6637 28.9831 13.6804 28.9803 13.6943C28.9748 13.7082 28.9803 13.7359 28.9803 13.7443C28.9803 13.7526 28.9887 13.7943 28.9942 13.8221C28.9942 13.8276 28.9998 13.8304 28.9998 13.8359C29.0053 13.8554 29.0137 13.8665 29.0081 13.9082C29.0081 13.9221 29.0026 13.9359 28.9942 13.9498C28.9859 13.9721 28.9748 13.9943 28.9803 14.0276C28.9859 14.0415 28.9942 14.0582 29.0026 14.0776C29.0081 14.0859 29.0109 14.0971 29.0165 14.1054C29.022 14.1193 29.022 14.1415 29.022 14.1637C29.022 14.1776 29.022 14.1859 29.022 14.1998C29.022 14.2276 29.0359 14.2443 29.0359 14.2443L29.0415 14.2498C29.0415 14.2443 29.047 14.2443 29.047 14.2415C29.047 14.2415 29.0831 14.1221 29.0692 14.0221L29.0609 13.9582C29.0553 13.9359 29.0553 13.9137 29.0526 13.8804C29.0442 13.8248 29.0303 13.7443 29.0026 13.6443V13.6359C28.9942 13.5998 28.9887 13.5859 28.9803 13.5637L28.972 13.5443C28.972 13.5387 28.9665 13.5359 28.9665 13.5304C28.9665 13.5248 28.9609 13.5221 28.9609 13.5109C28.9609 13.5193 28.9553 13.5304 28.9553 13.5332C28.9553 13.5332 28.9359 13.5971 28.9331 13.6109C28.9276 13.6304 28.9248 13.6415 28.9192 13.6609C28.9053 13.6971 28.8915 13.7387 28.8831 13.8165C28.8831 13.8248 28.8831 13.8387 28.8776 13.8526C28.8776 13.8887 28.872 13.8971 28.872 13.9026C28.872 13.9082 28.8665 13.9332 28.872 13.9443C28.8776 13.9721 28.8859 13.9887 28.9165 14.0498L28.9248 14.0637C28.9331 14.0859 28.9665 14.1498 28.9692 14.1721C28.9748 14.1915 28.9776 14.2165 28.9776 14.2221C28.9776 14.2276 28.9831 14.2721 28.9831 14.2721V14.3221L28.9553 14.3082C28.9498 14.3026 28.8498 14.2443 28.8053 14.2137C28.7692 14.1859 28.7331 14.1554 28.6998 14.1332L28.672 14.1109C28.6414 14.0832 28.5442 13.9804 28.5414 13.8832L28.5192 13.8776Z" fill="black"/>
<path d="M28.9188 14.4221C28.9188 14.4221 28.9049 14.3915 28.8883 14.3721C28.8577 14.336 28.816 14.3026 28.6966 14.2443C28.5772 14.186 28.5466 14.0888 28.4883 14.0499C28.4605 14.0304 28.4077 14.0221 28.4077 14.0221C28.4077 14.0221 28.4633 14.0943 28.4716 14.1165C28.491 14.1471 28.491 14.1721 28.5577 14.2304C28.6216 14.2888 28.7022 14.311 28.7522 14.3249C28.8244 14.3554 28.9188 14.4221 28.9188 14.4221ZM28.5466 13.8638C28.5522 13.8721 28.5772 13.9776 28.641 14.0582C28.741 14.1804 28.9272 14.2721 28.9272 14.2721C28.9077 14.1943 28.8772 14.1082 28.8549 14.0665C28.7688 13.9304 28.541 13.861 28.541 13.861C28.541 13.861 28.541 13.8554 28.5466 13.8638ZM28.8188 13.9221C28.8688 13.8138 28.7188 13.7026 28.6744 13.6276C28.6883 13.6138 28.7105 13.6471 28.7244 13.6693C28.7466 13.6999 28.8188 13.7971 28.8188 13.7971L28.841 13.6971L28.6605 13.5332C28.6605 13.5554 28.6022 13.5776 28.6022 13.5776C28.5772 13.7276 28.8188 13.9221 28.8188 13.9221Z" fill="#009B3A"/>
<path d="M28.9105 14.4362C28.9105 14.4362 28.816 14.3667 28.7466 14.3445H28.7383C28.6883 14.3306 28.6105 14.3084 28.5438 14.2445C28.4855 14.189 28.4744 14.1667 28.4633 14.139L28.4577 14.1251C28.4494 14.1056 28.4077 14.0473 28.3938 14.0306L28.3716 14.0001L28.4132 14.0084C28.4188 14.0084 28.4716 14.0167 28.4994 14.039C28.5271 14.0584 28.5438 14.0806 28.5688 14.1084C28.5994 14.1501 28.641 14.2001 28.7105 14.2306C28.8327 14.289 28.8744 14.3223 28.9049 14.3612C28.9244 14.3806 28.9355 14.4167 28.9355 14.4167L28.9216 14.4251L28.9105 14.4362ZM28.4521 14.0501C28.466 14.0723 28.4827 14.1001 28.4938 14.114C28.4994 14.1195 28.4994 14.1223 28.4994 14.1278C28.5133 14.1501 28.5216 14.1723 28.5716 14.2223C28.6299 14.2778 28.6994 14.3001 28.7521 14.314H28.7605C28.791 14.3223 28.8299 14.3417 28.8605 14.3584C28.8327 14.3306 28.7883 14.3028 28.6966 14.2584C28.6188 14.2223 28.5771 14.1667 28.5466 14.1278C28.5244 14.1001 28.5105 14.0778 28.4883 14.064C28.4744 14.0584 28.4605 14.0556 28.4521 14.0501ZM28.9549 14.3001L28.9244 14.2862C28.916 14.2806 28.7327 14.1945 28.6327 14.0667C28.591 14.0167 28.5549 13.9473 28.5327 13.8723H28.5383C28.5383 13.8667 28.5299 13.8528 28.5438 13.8445L28.5577 13.8362L28.566 13.8445C28.6021 13.8584 28.8021 13.9251 28.8855 14.0584C28.9077 14.1001 28.941 14.1862 28.9577 14.2667L28.9549 14.3001ZM28.5744 13.8862C28.5966 13.9501 28.6299 14.0056 28.6605 14.0501C28.7299 14.1362 28.8521 14.2084 28.9049 14.2417C28.8855 14.1723 28.8633 14.1112 28.841 14.0778C28.7827 13.9723 28.6383 13.9084 28.5744 13.8862ZM28.8049 13.9362C28.7966 13.9278 28.5605 13.7362 28.5855 13.5723V13.564L28.5938 13.5584C28.616 13.5501 28.6383 13.5362 28.6383 13.5306L28.6438 13.4945L28.8577 13.689L28.8299 13.8167C28.8438 13.8528 28.8494 13.889 28.8299 13.9251L28.816 13.9167L28.8049 13.9362ZM28.6188 13.5862C28.6105 13.7001 28.7549 13.8417 28.8105 13.8917C28.8188 13.8278 28.7688 13.7695 28.7188 13.714C28.6966 13.6862 28.6744 13.6584 28.6605 13.6362L28.6521 13.6223L28.6605 13.614C28.666 13.6084 28.6744 13.6056 28.6827 13.6084C28.7021 13.614 28.7133 13.6278 28.7271 13.6501C28.7327 13.6556 28.7327 13.6584 28.7355 13.664C28.7494 13.6862 28.7855 13.7334 28.8077 13.764L28.8216 13.7084L28.6633 13.5667C28.6549 13.5723 28.6327 13.5806 28.6188 13.5862Z" fill="black"/>
<path d="M28.5051 13.664C28.4607 13.6834 28.4468 13.6834 28.4468 13.6834L28.469 13.7473L28.4829 13.7668C28.4829 13.7668 28.5384 13.8473 28.5746 13.8584C28.5884 13.864 28.6384 13.8723 28.694 13.8945C28.7579 13.9223 28.8662 14.014 28.8662 14.014C28.8662 14.014 28.6884 13.814 28.6218 13.664L28.5996 13.5779L28.5357 13.5834C28.5329 13.5807 28.5468 13.6445 28.5051 13.664Z" fill="#009B3A"/>
<path d="M28.8521 14.0279C28.8521 14.0279 28.7465 13.9362 28.6826 13.9084C28.6465 13.8945 28.6132 13.8862 28.591 13.8779C28.5826 13.8723 28.5715 13.8723 28.5688 13.8723C28.5326 13.864 28.4826 13.7917 28.4743 13.7723L28.4549 13.7501L28.4243 13.664H28.4465C28.4465 13.664 28.4604 13.664 28.4965 13.6445C28.5271 13.6306 28.516 13.5862 28.516 13.5862L28.5104 13.564L28.6104 13.5584L28.6382 13.6584C28.7021 13.8001 28.8799 14.0001 28.8799 14.0001L28.8521 14.0279ZM28.4882 13.7417L28.5021 13.7556C28.5243 13.7862 28.566 13.8362 28.5826 13.8417C28.5882 13.8417 28.5965 13.8473 28.6021 13.8473C28.6243 13.8529 28.6604 13.8612 28.7021 13.8779C28.7215 13.8862 28.7382 13.8973 28.7576 13.9084C28.7021 13.839 28.6382 13.7501 28.6076 13.6723L28.5882 13.5945H28.5576C28.5632 13.6223 28.5521 13.6584 28.516 13.6751L28.5104 13.6612L28.516 13.6751C28.4965 13.6834 28.4854 13.689 28.4743 13.6945L28.4882 13.7417Z" fill="black"/>
<path d="M27.8466 13.5362C27.8772 13.564 27.9105 13.5862 27.941 13.6084C27.9827 13.6306 28.091 13.7001 28.1772 13.714C28.1966 13.7195 28.3049 13.7334 28.3049 13.7334C28.3105 13.689 28.3605 13.6834 28.3605 13.6834L28.2105 13.664C28.0883 13.6556 27.9966 13.6056 27.9299 13.5223C28.0244 13.5806 28.1605 13.6723 28.2744 13.6667C28.7327 13.6223 28.1383 13.6112 28.0827 13.5751C28.0272 13.5445 27.9827 13.4834 27.9827 13.4834L27.8466 13.4778C27.841 13.4806 27.7744 13.4778 27.8466 13.5362Z" fill="#009B3A"/>
<path d="M28.3129 13.7499H28.2935C28.2935 13.7499 28.1879 13.736 28.1657 13.7305C28.1074 13.7166 28.0213 13.6805 27.924 13.6221C27.8879 13.5999 27.8546 13.5777 27.824 13.5499C27.8018 13.5305 27.7796 13.5083 27.7879 13.486C27.7963 13.4638 27.8296 13.4638 27.8324 13.4666L27.974 13.4721L27.9796 13.4777C27.9796 13.4777 28.024 13.5333 28.074 13.5638C28.0879 13.5721 28.1824 13.5833 28.2546 13.5916C28.4185 13.611 28.4463 13.6138 28.4463 13.636C28.4463 13.6499 28.4407 13.6638 28.3463 13.6722V13.6944C28.3407 13.6944 28.3102 13.6999 28.3046 13.7305L28.3129 13.7499ZM27.8324 13.4999C27.8379 13.5055 27.8407 13.5138 27.8546 13.5221C27.8824 13.5499 27.9129 13.5721 27.949 13.5916C28.0435 13.6499 28.1213 13.6833 28.1768 13.6972C28.1907 13.7027 28.2546 13.7055 28.2852 13.711C28.2907 13.7027 28.2907 13.6972 28.2935 13.6916L28.2379 13.686C28.2296 13.686 28.224 13.686 28.2157 13.6805H28.1963C28.0768 13.6722 27.9824 13.6249 27.9018 13.536L27.924 13.5083L27.9518 13.5277C27.9796 13.5471 28.0074 13.5638 28.0379 13.5777C28.0018 13.5499 27.974 13.5194 27.9602 13.5055L27.8324 13.4999C27.8324 13.4999 27.8379 13.4999 27.8324 13.4999ZM28.2463 13.6499C28.2518 13.6499 28.2602 13.6499 28.2657 13.6499C28.3157 13.6444 28.3518 13.6416 28.3741 13.636C28.3435 13.6305 28.2963 13.6277 28.2602 13.6221C28.1796 13.6138 28.1185 13.6083 28.0879 13.5999C28.1324 13.6222 28.174 13.6416 28.2185 13.6444L28.2463 13.6499Z" fill="black"/>
<path d="M28.3827 13.7945C28.4133 13.7945 28.4327 13.7862 28.441 13.7529C28.4466 13.7167 28.4327 13.689 28.391 13.6806C28.3688 13.6751 28.3216 13.6723 28.3049 13.7167C28.2883 13.7612 28.3549 13.789 28.3549 13.789C28.3549 13.789 28.3688 13.8001 28.3827 13.7945ZM28.4327 13.5362C28.391 13.5362 28.3827 13.5667 28.3883 13.6306C28.3966 13.6945 28.4938 13.6667 28.4938 13.6667L28.5132 13.6584C28.5132 13.6584 28.5271 13.6501 28.5188 13.6001C28.5132 13.5445 28.4744 13.5362 28.4327 13.5362ZM28.591 13.5779C28.5882 13.5779 28.591 13.5779 28.591 13.5779V13.5779Z" fill="#009B3A"/>
<path d="M28.3769 13.8139C28.363 13.8139 28.3491 13.8084 28.3491 13.8084C28.3436 13.8084 28.3047 13.7889 28.2908 13.7528C28.2852 13.7389 28.2852 13.7251 28.2908 13.7112C28.3102 13.6612 28.3602 13.6556 28.3963 13.6667C28.388 13.6584 28.3769 13.6445 28.3741 13.6306C28.3686 13.5862 28.3741 13.5528 28.388 13.5362C28.3963 13.5223 28.4158 13.5167 28.4325 13.5167C28.4908 13.5167 28.5269 13.5445 28.5325 13.5889C28.5408 13.6445 28.5269 13.6584 28.5186 13.6667L28.4991 13.6751C28.4908 13.6806 28.4575 13.6889 28.4269 13.6806C28.4491 13.7001 28.4575 13.7223 28.4547 13.7584C28.4463 13.8028 28.413 13.8084 28.3825 13.8139H28.3769ZM28.363 13.7001C28.3436 13.7001 28.3269 13.7056 28.3186 13.7278C28.313 13.7334 28.313 13.7362 28.3186 13.7473C28.3241 13.7667 28.3491 13.7778 28.3602 13.7778C28.3602 13.7778 28.3686 13.7834 28.3797 13.7834C28.4102 13.7834 28.4158 13.7751 28.4213 13.7556C28.4269 13.7278 28.4158 13.7112 28.3852 13.7056C28.3769 13.7001 28.3741 13.7001 28.363 13.7001ZM28.4325 13.5501C28.4186 13.5501 28.413 13.5556 28.413 13.5584C28.4075 13.5667 28.3991 13.5806 28.4075 13.6278C28.4075 13.6362 28.413 13.6417 28.4213 13.6473C28.4408 13.6612 28.4797 13.6528 28.4936 13.6473L28.5019 13.6417C28.5019 13.6362 28.5075 13.6223 28.5019 13.5973C28.4963 13.5639 28.4769 13.5501 28.4325 13.5501ZM28.5769 13.6001L28.563 13.5723L28.5825 13.5639H28.588L28.5936 13.5834L28.6075 13.5778L28.5936 13.5834V13.5889L28.5991 13.5973L28.5936 13.5889V13.6028L28.5769 13.6001Z" fill="black"/>
<path d="M28.5881 13.5777C28.5881 13.5777 28.5937 13.5777 28.602 13.5721C28.6214 13.5638 28.6437 13.5166 28.6437 13.5166C28.652 13.4527 28.6076 13.436 28.6076 13.436C28.5298 13.4221 28.527 13.4916 28.527 13.4916C28.5048 13.5805 28.577 13.5777 28.5881 13.5777ZM28.2409 13.2721C28.2464 13.2999 28.2853 13.3443 28.2964 13.3499C28.3048 13.3555 28.3548 13.4138 28.3742 13.436C28.3937 13.4638 28.452 13.5721 28.452 13.5721C28.452 13.5721 28.4603 13.5721 28.4659 13.5638C28.4742 13.5443 28.4242 13.4082 28.4214 13.3999C28.402 13.3582 28.3714 13.3277 28.3437 13.2943C28.3353 13.2888 28.3131 13.2582 28.2853 13.2221C28.3409 13.2916 28.4798 13.4916 28.5214 13.5777C28.5214 13.5777 28.5159 13.4832 28.5131 13.4332C28.4937 13.2888 28.4576 13.2416 28.4437 13.2193C28.4214 13.1777 28.3659 13.1416 28.3298 13.1277C28.2881 13.1138 28.2437 13.0971 28.1937 13.0777C28.1437 13.0638 28.1798 13.1082 28.202 13.1471C28.2187 13.1999 28.2381 13.2443 28.2409 13.2721Z" fill="#009B3A"/>
<path d="M28.4408 13.6002L28.4353 13.5918C28.4131 13.5502 28.3714 13.4724 28.3575 13.4557C28.338 13.4335 28.288 13.3779 28.2797 13.3696L28.2742 13.364C28.2519 13.3418 28.2242 13.3057 28.2186 13.2779C28.213 13.2502 28.1908 13.2057 28.1742 13.164C28.1686 13.1557 28.1658 13.1446 28.1603 13.1363C28.1464 13.1085 28.1325 13.0918 28.1464 13.0724C28.1603 13.0585 28.1769 13.064 28.188 13.0668C28.2186 13.0752 28.2519 13.089 28.2825 13.0974C28.2964 13.1029 28.3103 13.1057 28.3242 13.1168C28.3658 13.1307 28.4242 13.1724 28.4464 13.2168L28.4519 13.2252C28.4714 13.2529 28.5019 13.3029 28.5158 13.439C28.5158 13.4446 28.5158 13.4446 28.5158 13.4474C28.5214 13.4418 28.5214 13.439 28.5242 13.439C28.5436 13.4252 28.5658 13.4196 28.5964 13.4252C28.6186 13.4335 28.6547 13.4613 28.6464 13.5252C28.6408 13.5446 28.6186 13.5835 28.5964 13.5946C28.5881 13.6002 28.5825 13.6002 28.5825 13.6002L28.5742 13.5863V13.6057C28.5658 13.6057 28.5381 13.6057 28.5186 13.5918L28.4881 13.6002C28.4825 13.5918 28.4797 13.5779 28.4686 13.5696C28.4686 13.5779 28.4686 13.589 28.4631 13.5918C28.4547 13.6057 28.4408 13.6113 28.4353 13.6113L28.4408 13.6002ZM28.5881 13.4557C28.5797 13.4557 28.5686 13.4613 28.5603 13.464C28.5464 13.4724 28.5464 13.4946 28.5464 13.4946C28.5408 13.514 28.5381 13.5363 28.5519 13.5502C28.5603 13.564 28.5797 13.564 28.5881 13.564C28.5936 13.564 28.5936 13.564 28.6019 13.5585C28.6075 13.5585 28.6214 13.5363 28.6297 13.514C28.6353 13.4696 28.6075 13.4585 28.6019 13.4557C28.5964 13.4557 28.5908 13.4557 28.5881 13.4557ZM28.2603 13.2724C28.2603 13.2807 28.2686 13.3002 28.3047 13.3418L28.3103 13.3474C28.3158 13.3529 28.3686 13.4113 28.3908 13.4335C28.4047 13.4529 28.4269 13.4974 28.4492 13.5335C28.4436 13.5113 28.4353 13.4835 28.4269 13.4613C28.3714 13.3752 28.3047 13.2835 28.2714 13.2418L28.2992 13.2196L28.3075 13.2335C28.3269 13.2557 28.3492 13.2835 28.3519 13.289L28.3603 13.2974C28.3881 13.3279 28.4186 13.3613 28.4381 13.4029C28.4381 13.4029 28.4464 13.4224 28.4575 13.4474C28.4714 13.4696 28.4853 13.4918 28.4992 13.5113C28.4992 13.489 28.4936 13.4613 28.4936 13.4418C28.4797 13.314 28.4492 13.2696 28.4353 13.2474L28.4297 13.239C28.4103 13.2029 28.3603 13.1668 28.3242 13.1585C28.3103 13.1529 28.2964 13.1502 28.2825 13.139C28.2547 13.1307 28.2242 13.1168 28.1908 13.1085C28.1964 13.114 28.1964 13.1224 28.1992 13.1279C28.2047 13.1363 28.2075 13.1474 28.213 13.1557C28.2325 13.1918 28.2547 13.2363 28.2603 13.2724Z" fill="black"/>
<path d="M28.0517 13.5138C28.1017 13.5555 28.1239 13.586 28.2295 13.5999C28.335 13.6194 28.3434 13.6083 28.3434 13.6083C28.3434 13.6083 28.3989 13.5805 28.3711 13.5583C28.2156 13.4888 28.0656 13.4083 27.9934 13.3166C27.9934 13.3166 28.0072 13.3027 28.0628 13.3583C28.0934 13.3888 28.1128 13.4027 28.135 13.4222C28.1906 13.4638 28.2156 13.4722 28.2711 13.5027C28.3017 13.5222 28.3767 13.5333 28.3767 13.5333C28.3767 13.5333 28.385 13.511 28.3961 13.5055C28.4045 13.5055 28.3906 13.4694 28.3239 13.4138C28.2878 13.3833 28.2545 13.3499 28.2295 13.3083C28.2295 13.3083 28.1517 13.2888 28.0711 13.2777C28.0072 13.2694 27.8906 13.1777 27.8934 13.1999C27.8934 13.2277 27.9128 13.3055 27.9434 13.3555C27.9739 13.4194 28.0017 13.4722 28.0517 13.5138Z" fill="#009B3A"/>
<path d="M28.3327 13.6307C28.3132 13.6307 28.2882 13.6251 28.2271 13.6168C28.1327 13.6029 28.0994 13.5751 28.0577 13.539L28.0382 13.5251L28.0466 13.5112L28.0382 13.5251C27.9882 13.4834 27.9605 13.4334 27.9299 13.389L27.9216 13.3751C27.891 13.3195 27.8716 13.2446 27.8716 13.2112V13.2029L27.8799 13.1946C27.8938 13.1862 27.9105 13.1946 27.9577 13.2223C27.9938 13.2418 28.0382 13.2668 28.066 13.2723C28.1466 13.2862 28.2244 13.3029 28.2299 13.3029H28.2355L28.241 13.3084C28.2688 13.3445 28.2994 13.3807 28.3327 13.4084C28.3744 13.439 28.4188 13.489 28.4105 13.514L28.4049 13.5223L28.391 13.5279C28.391 13.5279 28.3855 13.5362 28.3827 13.5473L28.3771 13.5529C28.3855 13.5612 28.3855 13.5751 28.3855 13.5807C28.3799 13.6084 28.3494 13.6223 28.341 13.6251C28.3521 13.6279 28.3521 13.6307 28.3327 13.6307ZM28.0632 13.5001L28.0827 13.514C28.1244 13.5501 28.1466 13.5695 28.2382 13.5834C28.3188 13.5973 28.3438 13.5918 28.3438 13.5918C28.3577 13.5834 28.366 13.5779 28.366 13.5723C28.1744 13.4918 28.0521 13.4084 27.9855 13.3279L27.9771 13.314L27.9855 13.3057C28.0049 13.2862 28.0299 13.3057 28.0771 13.3473C28.1049 13.3751 28.1271 13.3918 28.1466 13.4057C28.1966 13.4362 28.2188 13.4501 28.2549 13.4751L28.2827 13.489C28.3021 13.4973 28.3466 13.5112 28.3688 13.5168C28.3744 13.5112 28.3771 13.5084 28.3827 13.5029C28.3771 13.4945 28.3605 13.4668 28.3188 13.4334C28.2827 13.4029 28.2494 13.3695 28.2244 13.3334C28.2049 13.3279 28.1382 13.314 28.0688 13.3057C28.0327 13.3001 27.9882 13.2751 27.9466 13.2501C27.9382 13.2445 27.9244 13.2362 27.916 13.2307C27.9216 13.2612 27.9355 13.3168 27.9605 13.3584L27.9688 13.3723C27.991 13.4195 28.0188 13.464 28.0632 13.5001Z" fill="black"/>
<path d="M27.1768 16.6777C27.1323 16.6916 26.7851 16.8193 26.7851 16.8193L26.6907 16.8554C26.8212 16.8249 26.9268 16.8916 26.9268 16.8916L27.3073 16.7138C27.3073 16.7138 27.3073 16.7082 27.299 16.6999C27.2879 16.6999 27.224 16.6638 27.1768 16.6777Z" fill="#009B3A"/>
<path d="M26.9268 16.9138L26.9212 16.9083C26.9212 16.9083 26.8212 16.8444 26.699 16.8722L26.6907 16.8444L26.7851 16.8083C26.799 16.8027 27.1296 16.6805 27.1768 16.6666C27.2351 16.6472 27.3073 16.6944 27.3073 16.6972C27.3212 16.7055 27.3212 16.7166 27.3268 16.7194V16.7277L26.9268 16.9138ZM26.7823 16.8361C26.8546 16.8416 26.9101 16.8666 26.9268 16.8777L27.2851 16.7083C27.2657 16.6999 27.2157 16.6777 27.1796 16.6861C27.1351 16.6999 26.7935 16.8277 26.7879 16.8277L26.7823 16.8361Z" fill="black"/>
<path d="M26.6775 16.8723C26.672 16.8723 26.672 16.8807 26.6775 16.8862C26.697 16.8945 26.6914 16.9001 26.7775 16.914C26.8636 16.9223 26.9219 16.9057 26.9358 16.8918C26.9608 16.8695 26.7247 16.8307 26.6775 16.8723Z" fill="#009B3A"/>
<path d="M26.8272 16.9278C26.8133 16.9278 26.7966 16.9278 26.7772 16.9223C26.7049 16.914 26.691 16.9084 26.6772 16.9001L26.6716 16.8945C26.666 16.889 26.6633 16.8862 26.6577 16.8751C26.6577 16.8667 26.6577 16.8556 26.666 16.8528C26.716 16.8112 26.9216 16.839 26.9466 16.8667C26.9549 16.8751 26.9549 16.8862 26.9466 16.8945C26.9383 16.914 26.891 16.9278 26.8272 16.9278ZM26.6966 16.8778C26.7049 16.8834 26.716 16.8862 26.7827 16.8973C26.8466 16.9056 26.891 16.8973 26.9133 16.889C26.8688 16.8723 26.7383 16.8584 26.6966 16.8778ZM26.6772 16.8723L26.6855 16.8806L26.6772 16.8723Z" fill="black"/>
<path d="M26.1272 15.6304L26.1133 15.5221C26.1133 15.5221 26.0939 15.2304 26.0578 15.1721C26.0522 15.1582 26.0522 15.1304 26.0356 15.1277C25.9939 15.1221 25.9939 15.2193 25.9911 15.3054C25.9272 15.736 26.2689 16.0693 26.2689 16.0693L26.1272 15.6304Z" fill="#009B3A"/>
<path d="M26.2552 16.0859C26.2496 16.0804 25.9052 15.7443 25.9691 15.3082V15.2804C25.9746 15.2082 25.9746 15.1498 25.9996 15.122C26.008 15.1137 26.0191 15.1137 26.0302 15.1137C26.058 15.1137 26.0663 15.1443 26.0663 15.1582C26.0663 15.1637 26.0663 15.1665 26.0719 15.1665C26.1024 15.2248 26.1274 15.4943 26.1274 15.522L26.1413 15.6276L26.283 16.0637L26.2552 16.0859ZM26.033 15.1498C26.0135 15.1637 26.0135 15.2304 26.0107 15.2804V15.3082C25.9663 15.6165 26.133 15.872 26.2246 15.9887L26.1108 15.6332L26.0969 15.5248C26.0885 15.4054 26.0691 15.2193 26.0469 15.1832C26.0413 15.1748 26.0413 15.1693 26.0413 15.1609C26.0385 15.1637 26.033 15.1554 26.033 15.1498Z" fill="black"/>
<path d="M27.8324 16.9138C27.8324 16.9138 27.7963 16.9055 27.8185 16.8777C27.8407 16.8499 27.9046 16.8361 27.9185 16.8361C27.9324 16.8361 27.9685 16.8416 27.9963 16.8444C28.0241 16.85 28.0602 16.875 28.0518 16.8944C28.0379 16.9138 28.0018 16.9305 27.9518 16.9305C27.9074 16.9305 27.888 16.9305 27.8657 16.925C27.8463 16.9194 27.8324 16.9138 27.8324 16.9138Z" fill="#009B3A"/>
<path d="M27.9522 16.9499C27.9077 16.9499 27.8827 16.9499 27.8605 16.9416C27.841 16.936 27.8299 16.9332 27.8299 16.9277C27.8244 16.9277 27.8021 16.9193 27.7994 16.8999C27.7938 16.8916 27.7938 16.8777 27.8077 16.8638C27.8355 16.8332 27.9077 16.8193 27.9216 16.8193C27.9355 16.8193 27.9772 16.8249 28.0022 16.8277C28.0216 16.8332 28.0605 16.8499 28.0716 16.8721C28.0772 16.8804 28.0772 16.8916 28.0716 16.8999C28.0522 16.9277 28.0049 16.9499 27.9522 16.9499ZM27.8383 16.8943C27.8383 16.8943 27.8521 16.8999 27.8688 16.9082C27.8883 16.9138 27.9049 16.9138 27.9466 16.9138C27.9966 16.9138 28.0244 16.8943 28.0327 16.8832C28.0272 16.8832 28.0105 16.8638 27.9883 16.861C27.9605 16.8527 27.9299 16.8527 27.916 16.8527C27.9022 16.8527 27.8466 16.8666 27.8299 16.8888C27.8244 16.8943 27.8244 16.8943 27.8244 16.8943C27.8271 16.8943 27.8327 16.8943 27.8383 16.8943L27.8327 16.9082L27.8383 16.8943Z" fill="black"/>
<path d="M27.4606 16.7082C27.4606 16.7082 27.3411 16.6526 27.23 16.5998C27.08 16.5276 26.9023 16.4276 26.78 16.2443C26.6245 16.0165 26.4884 15.8943 26.4578 15.8721C26.4273 15.8498 26.4217 15.8415 26.4078 15.8526C26.3995 15.8665 26.4023 15.8804 26.4134 15.8971C26.4439 15.9471 26.5217 16.0471 26.5495 16.0971C26.5995 16.1915 26.6995 16.2915 26.6939 16.3526C26.6939 16.361 26.6661 16.3471 26.6661 16.3471C26.6661 16.3471 26.43 16.2665 26.3384 15.9832C26.2689 15.7776 26.2967 15.7137 26.2828 15.6137C26.255 15.4332 26.2523 15.4193 26.1606 15.2137C26.155 15.2082 26.105 15.1221 26.0967 15.1415C26.0884 15.1637 26.105 15.261 26.105 15.261L26.1134 15.3665C26.1134 15.3665 26.105 15.5971 26.105 15.6165C26.105 15.636 26.0467 15.7748 26.2967 16.0221C26.2967 16.0221 26.3023 16.0637 26.2661 16.0276C26.2439 15.9998 26.0606 15.8637 26.0078 15.636C25.9523 15.4082 25.9439 15.1804 25.9856 15.0915C26.0217 15.0054 26.0995 14.7971 26.0661 14.6193C26.0606 14.5998 26.0578 14.5471 26.0439 14.561C26.0384 14.5693 26.0161 14.661 26.0023 14.6915C25.9828 14.736 25.9523 14.7776 25.9439 14.811C25.9245 14.861 25.8384 14.9415 25.8578 15.0887C25.8773 15.2582 25.8884 15.2804 25.9078 15.3443C25.9161 15.3665 25.93 15.4221 25.9217 15.4248C25.9134 15.4304 25.8773 15.3554 25.8773 15.3554C25.8773 15.3554 25.7189 15.0415 25.8189 14.7915C25.9189 14.5415 26.1634 14.2998 26.1634 14.2998C26.1634 14.2998 26.3634 14.1304 26.405 14.0943C26.4245 14.0804 26.4189 14.0665 26.4134 14.0721C26.3634 14.086 25.9773 14.1637 25.8411 14.6276C25.8411 14.6276 25.8328 14.6471 25.8217 14.6415C25.8078 14.636 25.8217 14.6137 25.8217 14.6137C25.8217 14.6137 25.9078 14.286 26.1439 14.136C26.4023 13.9721 26.3745 13.9943 26.4634 13.9443C26.5189 13.9137 26.5689 13.8665 26.6273 13.7637C26.6328 13.7554 26.6578 13.6943 26.655 13.6832C26.6495 13.6748 26.6411 13.6887 26.6356 13.7026C26.6356 13.7026 26.5634 13.8165 26.4495 13.8582C26.3411 13.8943 26.2495 13.8387 26.1356 13.9665C26.0217 14.0887 25.9356 14.261 25.9356 14.261C25.9356 14.261 25.9078 14.3054 25.8995 14.3026C25.8856 14.2971 25.905 14.2582 25.905 14.2582C25.905 14.2582 26.055 13.9387 26.1745 13.8776C26.2939 13.8137 26.4023 13.7498 26.4689 13.6971C26.5495 13.6332 26.6967 13.4748 26.7467 13.4193C26.755 13.4054 26.8328 13.3276 26.8523 13.3054C26.8606 13.2915 26.8884 13.2748 26.8828 13.2693C26.8745 13.261 26.8023 13.2971 26.8023 13.2971C26.8023 13.2971 26.4078 13.4054 26.1606 13.7776C26.1467 13.7971 26.1245 13.8276 26.105 13.8471C26.0773 13.8748 26.0634 13.9193 26.0634 13.9193C26.0439 13.9054 26.205 13.711 26.205 13.711L26.2328 13.5832C26.2328 13.5832 26.2773 13.3971 26.3745 13.261C26.3828 13.2471 26.4439 13.1915 26.4523 13.1804C26.4717 13.1582 26.4161 13.1998 26.4245 13.1887C26.4245 13.1887 26.055 13.4526 26.055 13.7887C26.055 13.8471 26.0189 13.9026 25.9634 13.9804C25.905 14.0665 25.8828 14.1221 25.8578 14.2498C25.8495 14.3054 25.8356 14.3582 25.8273 14.4137C25.8273 14.4137 25.8328 14.4582 25.8134 14.4582C25.7939 14.4526 25.805 14.4165 25.805 14.4165C25.805 14.4165 25.8411 14.1665 25.8689 14.0943C25.8967 14.0221 25.9134 13.9721 25.9134 13.9721C25.9134 13.9721 25.8995 13.786 25.9411 13.6804C25.9773 13.5887 26.0634 13.4721 26.0773 13.4443C26.0828 13.4304 26.1217 13.3498 26.1356 13.2526C26.1356 13.2387 26.1273 13.2526 26.1078 13.2887C26.0661 13.3804 26.0356 13.4026 25.9661 13.4887C25.9661 13.4887 25.7939 13.611 25.7356 13.9804C25.7356 13.9804 25.7356 14.1165 25.7134 14.336C25.6995 14.4943 25.7134 14.6415 25.7273 14.7304C25.7411 14.786 25.7578 14.786 25.7467 14.7943C25.7384 14.7998 25.7523 14.7943 25.7328 14.7526C25.7106 14.7026 25.6911 14.6248 25.6911 14.5221C25.6911 14.3304 25.7106 14.1776 25.7106 14.1776C25.7106 14.1776 25.7245 13.8693 25.5911 13.7276C25.5856 13.7193 25.6134 13.7915 25.6273 13.8582C25.6411 13.9443 25.6134 14.0665 25.605 14.1137C25.5967 14.1582 25.5106 14.3637 25.5411 14.5582C25.5411 14.5582 25.6134 14.886 25.7106 15.0443C25.7106 15.0443 25.7689 15.1137 25.7161 15.0498C25.6661 14.986 25.5606 14.7304 25.5523 14.7082C25.5439 14.686 25.4717 14.5304 25.3967 14.4637C25.3606 14.4276 25.2606 14.3693 25.2606 14.3693C25.2606 14.3693 25.205 14.3276 25.2467 14.3832C25.2773 14.4276 25.3245 14.5054 25.3411 14.5387C25.3856 14.6082 25.4217 14.6832 25.455 14.7582C25.4856 14.8304 25.5689 15.0498 25.5689 15.0498L25.6189 15.186C25.6189 15.186 25.6995 15.2304 25.7467 15.2804C25.7828 15.3221 25.8606 15.4165 25.9245 15.586C25.9523 15.6582 26.0106 15.7276 26.0106 15.7276C26.0106 15.7276 25.9967 15.7498 25.9467 15.6637C25.8967 15.5721 25.8467 15.4054 25.7245 15.2721C25.6328 15.1721 25.3828 15.0665 25.3828 15.0665C25.3828 15.0665 25.5411 15.3471 25.5828 15.3971C25.6523 15.4776 25.7467 15.5887 25.7745 15.6193C25.8023 15.6498 25.9523 15.8387 25.9745 15.8637C26.0106 15.9082 26.0328 15.9332 26.0523 15.9498C26.0939 15.9915 26.2106 16.0693 26.2217 16.0804C26.2217 16.0943 26.2273 16.0804 26.2161 16.0748C26.1606 16.0443 26.1023 15.9943 26.0384 15.9526C25.9745 15.911 25.7245 15.8026 25.5578 15.5721C25.5161 15.5026 25.4995 15.4776 25.4856 15.486C25.4634 15.4943 25.5995 15.936 25.8717 16.0776C25.8717 16.0776 26.1717 16.2137 26.2411 16.2498C26.2773 16.2721 26.3495 16.3054 26.3856 16.3304C26.405 16.3498 26.3661 16.3443 26.3661 16.3443C26.2078 16.3304 25.9745 16.3137 25.8356 16.2304C25.8356 16.2304 25.7773 16.1887 25.8273 16.2498C25.8689 16.2943 25.9411 16.4082 26.0856 16.4776C26.23 16.5415 26.4411 16.5776 26.5217 16.5832C26.5995 16.5887 26.8661 16.5887 26.9217 16.6054C26.9717 16.6248 27.0578 16.6776 27.1078 16.6915C27.1523 16.7054 27.2884 16.761 27.2884 16.761C27.2884 16.761 27.33 16.7832 27.3523 16.7915C27.3745 16.7998 27.48 16.7998 27.4828 16.7832C27.4967 16.7304 27.4606 16.7082 27.4606 16.7082Z" fill="#009B3A"/>
<path d="M27.4107 16.7805C27.3885 16.7805 27.3607 16.7749 27.3524 16.7721C27.3302 16.7638 27.2885 16.7416 27.2885 16.7416C27.2885 16.7416 27.1524 16.6916 27.1107 16.6777C27.0829 16.6694 27.0468 16.6499 27.0163 16.6333C26.9857 16.6138 26.9468 16.5971 26.9246 16.5916C26.8885 16.5777 26.7329 16.5777 26.6302 16.5721C26.5885 16.5721 26.5524 16.5721 26.5302 16.5666C26.4524 16.561 26.2441 16.5249 26.0885 16.461C25.9607 16.4055 25.8885 16.311 25.844 16.2555C25.8357 16.2471 25.8302 16.236 25.8246 16.2333C25.8052 16.211 25.794 16.1971 25.8052 16.1833C25.8135 16.1749 25.8274 16.1777 25.8552 16.1971C25.9968 16.2777 26.2413 16.3027 26.3774 16.311C26.3552 16.2971 26.3274 16.2805 26.2996 16.2666C26.2802 16.2583 26.2635 16.2471 26.2496 16.2388C26.1857 16.1971 25.8857 16.0666 25.8802 16.0666C25.6163 15.936 25.4857 15.5388 25.4857 15.4721C25.4857 15.4666 25.4857 15.4583 25.494 15.4527C25.5218 15.4388 25.544 15.4749 25.5857 15.5471C25.7163 15.7333 25.9079 15.8333 26.0079 15.8916C26.0135 15.8971 26.0218 15.8999 26.0274 15.8999C26.0135 15.886 25.9996 15.8721 25.9857 15.8499C25.9635 15.8194 25.8135 15.6305 25.7857 15.6055C25.7774 15.5971 25.7579 15.5749 25.7357 15.5471C25.694 15.5027 25.6413 15.4333 25.594 15.3833C25.5524 15.3333 25.3996 15.0638 25.394 15.0527L25.3746 15.0166L25.4107 15.0305C25.4163 15.036 25.519 15.0749 25.6163 15.1305L25.5829 15.0277C25.5829 15.0277 25.5052 14.8083 25.469 14.736C25.4385 14.6638 25.3968 14.586 25.3552 14.5166C25.3496 14.5083 25.3413 14.4971 25.3357 14.486C25.3135 14.4499 25.2802 14.3944 25.2579 14.3638C25.244 14.3444 25.2357 14.3277 25.244 14.3194C25.2524 14.311 25.2663 14.3138 25.2885 14.3333C25.294 14.3333 25.3885 14.3916 25.4246 14.4277C25.4968 14.4971 25.5746 14.6555 25.5829 14.6777V14.6833C25.5829 14.6888 25.5885 14.6888 25.5885 14.6916C25.5663 14.6055 25.5524 14.5416 25.5468 14.536C25.5246 14.3805 25.569 14.2166 25.5968 14.1305C25.6024 14.1083 25.6107 14.0944 25.6107 14.086C25.6107 14.0805 25.6163 14.0721 25.6163 14.0638C25.6246 14.0083 25.6468 13.9083 25.6357 13.836C25.6274 13.7944 25.6135 13.7555 25.6079 13.7277C25.5996 13.6999 25.5996 13.6971 25.6079 13.6916L25.6163 13.686L25.6246 13.6944C25.7052 13.7805 25.7329 13.936 25.744 14.0388C25.7496 13.9888 25.7496 13.961 25.7496 13.961C25.8079 13.6055 25.969 13.4749 25.9857 13.461C26.0052 13.4388 26.0163 13.4194 26.0357 13.4027C26.0718 13.3583 26.0996 13.3305 26.1274 13.2666C26.1468 13.2221 26.1552 13.2166 26.169 13.2166C26.1746 13.2166 26.1829 13.2221 26.1774 13.236C26.1691 13.2944 26.1496 13.3638 26.119 13.4305C26.1135 13.4444 26.0996 13.461 26.0829 13.486C26.0524 13.536 26.0024 13.6083 25.9774 13.6666C25.9357 13.7666 25.9496 13.9471 25.9496 13.9471V13.9527V13.9583C25.9496 13.9583 25.9302 14.0083 25.9052 14.086C25.8913 14.1221 25.8746 14.2083 25.8635 14.2805C25.869 14.2666 25.869 14.2527 25.8718 14.2444C25.8996 14.1138 25.9218 14.0583 25.9802 13.9721C26.0302 13.9027 26.0663 13.8499 26.0663 13.7916C26.0663 13.4555 26.4246 13.1916 26.4385 13.1833L26.4441 13.1888V13.1833C26.4441 13.1833 26.4496 13.1777 26.4524 13.1777C26.4746 13.1638 26.4829 13.1583 26.494 13.1694C26.5024 13.1777 26.494 13.1916 26.4885 13.1916C26.4829 13.1971 26.469 13.2138 26.4524 13.2333C26.4329 13.2527 26.4163 13.2694 26.4163 13.2749C26.3218 13.4027 26.2746 13.5888 26.2746 13.5944L26.2607 13.6666C26.5052 13.3805 26.8246 13.2888 26.8302 13.2888C26.9079 13.2527 26.9218 13.261 26.9246 13.2666L26.9302 13.2721V13.2805C26.9302 13.2888 26.9246 13.2944 26.9107 13.3083C26.9052 13.3138 26.9024 13.3221 26.8968 13.3277C26.8829 13.3471 26.8468 13.386 26.8024 13.4333L26.7885 13.4471C26.7802 13.4555 26.7691 13.4666 26.7579 13.4777C26.6885 13.5499 26.5802 13.6694 26.5079 13.7221C26.4496 13.7666 26.3524 13.8277 26.2135 13.9027C26.1052 13.961 25.9635 14.2527 25.9496 14.2749C25.9496 14.2694 25.9552 14.2694 25.9552 14.2666C25.9552 14.2666 26.0468 14.0944 26.1552 13.9721C26.2329 13.886 26.2996 13.8805 26.369 13.8777C26.3996 13.8777 26.4385 13.8721 26.4746 13.8583C26.5746 13.8221 26.6441 13.7277 26.6524 13.7138C26.6579 13.7055 26.6663 13.6833 26.6829 13.6833C26.6885 13.6833 26.6968 13.6888 26.7024 13.6971C26.7079 13.7166 26.6746 13.7888 26.6746 13.7888C26.6052 13.9027 26.5524 13.9444 26.5052 13.9749C26.4774 13.9888 26.4635 13.9971 26.4496 14.0055C26.4135 14.0277 26.3718 14.0471 26.1913 14.1638C26.1052 14.2194 26.0357 14.2999 25.9857 14.3777C26.1274 14.1833 26.3163 14.1055 26.4413 14.0721H26.4468C26.4524 14.0666 26.4607 14.0721 26.4663 14.0805C26.4718 14.0888 26.4718 14.1027 26.4524 14.1221C26.4107 14.1638 26.2163 14.3221 26.2079 14.3277C26.2079 14.3277 25.9635 14.5694 25.8663 14.8138C25.7718 15.0583 25.9246 15.3638 25.9246 15.3694C25.9302 15.3833 25.9385 15.3916 25.944 15.4055C25.9385 15.3971 25.9385 15.3833 25.9302 15.3638L25.9246 15.3555C25.9052 15.2999 25.8968 15.2694 25.8802 15.111C25.8663 14.9971 25.9107 14.9249 25.944 14.8749C25.9524 14.8555 25.9635 14.8444 25.9663 14.8305C25.9718 14.811 25.9857 14.7888 25.994 14.7666C26.0024 14.7471 26.0135 14.7305 26.0218 14.711C26.0302 14.6916 26.0413 14.6555 26.0496 14.6305C26.0579 14.5944 26.0635 14.5805 26.069 14.5749C26.0774 14.5666 26.0885 14.5666 26.0885 14.5666C26.1024 14.5721 26.1079 14.5888 26.1107 14.6249C26.1107 14.6305 26.1107 14.6333 26.1163 14.6388C26.1524 14.8333 26.0607 15.0583 26.0357 15.1194C25.994 15.211 26.0052 15.4388 26.0579 15.661C26.0996 15.8333 26.2163 15.9527 26.2774 16.011C26.1857 15.911 26.0996 15.7805 26.1274 15.6471V15.6416C26.1274 15.6277 26.1357 15.3999 26.1357 15.3916L26.1274 15.286C26.1218 15.2721 26.1079 15.1916 26.119 15.1638C26.1246 15.1583 26.1274 15.1555 26.1329 15.1499C26.1607 15.1499 26.2052 15.2305 26.2052 15.2305C26.2968 15.4388 26.2996 15.4583 26.3274 15.636C26.3329 15.6666 26.3329 15.6999 26.3329 15.7277C26.3329 15.7916 26.3385 15.8638 26.3829 15.9999C26.4746 16.2721 26.7024 16.3555 26.7024 16.3555C26.7079 16.3555 26.7079 16.361 26.7107 16.361C26.7024 16.3305 26.6691 16.2833 26.6385 16.2388C26.6107 16.2027 26.5829 16.1666 26.5663 16.1249C26.5524 16.0971 26.5218 16.0527 26.4885 16.011C26.4663 15.9805 26.4441 15.9471 26.4302 15.9249C26.4218 15.9055 26.4079 15.8888 26.4246 15.8666C26.4302 15.861 26.4329 15.8527 26.4441 15.8527C26.4579 15.8527 26.4663 15.8583 26.4802 15.8721C26.4857 15.8777 26.4885 15.8805 26.494 15.8805C26.5357 15.911 26.6663 16.036 26.8218 16.2583C26.9413 16.436 27.1135 16.536 27.2663 16.6083C27.3746 16.6638 27.4941 16.7166 27.4968 16.7166H27.5024C27.5107 16.7249 27.5468 16.7527 27.5329 16.7749C27.5329 16.7805 27.5246 16.7833 27.5135 16.7888C27.4691 16.7777 27.4385 16.7805 27.4107 16.7805ZM25.8524 16.2277C25.8579 16.2333 25.8579 16.236 25.8607 16.2416C25.9024 16.2971 25.9746 16.386 26.0968 16.436C26.2385 16.4999 26.4468 16.536 26.5246 16.5416C26.5468 16.5416 26.5802 16.5416 26.6191 16.5471C26.7635 16.5527 26.8885 16.5555 26.9246 16.5666C26.9524 16.5749 26.9829 16.5944 27.0191 16.611C27.0496 16.6305 27.0885 16.6471 27.1107 16.6555C27.1552 16.6694 27.2885 16.7194 27.2913 16.7249C27.2913 16.7249 27.3329 16.7471 27.3552 16.7555C27.3774 16.7638 27.4607 16.761 27.4746 16.7499C27.4746 16.7444 27.4607 16.736 27.4524 16.7277C27.4385 16.7221 27.3302 16.6694 27.2246 16.6194C27.0691 16.5416 26.8941 16.4416 26.7691 16.261C26.6191 16.0416 26.4885 15.9194 26.4496 15.8888C26.4441 15.8833 26.4413 15.8805 26.4357 15.8805C26.4302 15.8749 26.4218 15.8721 26.4218 15.8721C26.4218 15.8721 26.4218 15.8721 26.4218 15.8777C26.4163 15.8833 26.4163 15.886 26.4274 15.9055C26.4413 15.9277 26.4635 15.961 26.4857 15.9916C26.5163 16.0333 26.5496 16.0777 26.5635 16.111C26.5829 16.1471 26.6079 16.1833 26.6329 16.2194C26.6746 16.2777 26.7135 16.3333 26.7107 16.3749V16.3833L26.7024 16.3888C26.6968 16.3888 26.6885 16.3971 26.6607 16.3805C26.6524 16.3749 26.4191 16.2944 26.3246 16.0083C26.2746 15.8666 26.2746 15.7888 26.2746 15.7277C26.2746 15.6971 26.2746 15.6694 26.2691 15.636C26.2413 15.4583 26.2385 15.4444 26.1468 15.236C26.1413 15.2277 26.1246 15.1944 26.1052 15.1805C26.1052 15.2027 26.1107 15.2444 26.119 15.2721L26.1274 15.3805C26.1218 15.461 26.119 15.6166 26.119 15.6305C26.119 15.6305 26.119 15.636 26.119 15.6388C26.0913 15.7805 26.2052 15.9249 26.3107 16.0249L26.3163 16.0305V16.036C26.3163 16.0416 26.3163 16.0638 26.3024 16.0666C26.2829 16.0749 26.2718 16.0583 26.2607 16.0471C26.2552 16.0416 26.2524 16.0388 26.2413 16.0333C26.1968 15.9916 26.0829 15.8888 26.0218 15.7277H26.0163C26.0024 15.7277 25.9857 15.7194 25.9468 15.6499C25.9329 15.6221 25.919 15.5916 25.9024 15.5555C25.8607 15.4638 25.8107 15.3555 25.7302 15.2638C25.6607 15.1916 25.5024 15.1138 25.4302 15.0833C25.4746 15.161 25.5802 15.3388 25.6079 15.3749C25.6524 15.4249 25.7079 15.4944 25.7496 15.5388C25.7718 15.5666 25.7913 15.5833 25.7996 15.5971C25.8274 15.6277 25.9774 15.8166 25.9996 15.8416C26.0274 15.8777 26.0496 15.8999 26.0635 15.9138L26.0718 15.9221C26.094 15.9499 26.1496 15.986 26.1913 16.0138C26.2274 16.0416 26.2413 16.0499 26.2413 16.0555L26.2468 16.061C26.2468 16.0666 26.2524 16.0694 26.2468 16.0749L26.2413 16.0833H26.2329C26.2246 16.0833 26.2246 16.0777 26.2191 16.0694C26.1885 16.0499 26.1552 16.0277 26.1246 15.9999C26.0968 15.9805 26.0691 15.9583 26.0385 15.9416C26.0246 15.9333 26.0107 15.9221 25.9885 15.911C25.8829 15.8555 25.694 15.7471 25.5579 15.5555C25.544 15.536 25.5218 15.4971 25.5079 15.4777C25.5218 15.5638 25.6524 15.9194 25.8885 16.036C25.9024 16.0416 26.194 16.1721 26.2579 16.2138C26.2718 16.2221 26.2885 16.2333 26.3079 16.2416C26.344 16.261 26.3802 16.2777 26.4024 16.2999C26.4163 16.3083 26.4163 16.3221 26.4107 16.3277C26.4024 16.3471 26.369 16.3416 26.369 16.3416C26.2413 16.3277 26.0052 16.3055 25.8524 16.2277ZM25.6413 15.1444C25.6607 15.1527 25.7274 15.1944 25.769 15.2388C25.8413 15.3194 25.9052 15.4249 25.9496 15.5471C25.9635 15.5777 25.9802 15.611 25.9996 15.6388V15.6333C25.9413 15.4055 25.9357 15.1749 25.9774 15.0777C26.0052 15.0138 26.0968 14.7999 26.0579 14.6083C26.0579 14.6027 26.0579 14.5999 26.0524 14.5944C26.0524 14.5888 26.0524 14.586 26.0524 14.5805C26.0524 14.586 26.0468 14.5944 26.0468 14.5999C26.0385 14.6305 26.0274 14.6694 26.019 14.686C26.0107 14.7055 25.9996 14.7277 25.9885 14.7444C25.9746 14.7666 25.9663 14.786 25.9607 14.7999C25.9552 14.8138 25.9468 14.8305 25.9329 14.8499C25.9024 14.8999 25.8607 14.9694 25.8746 15.0694C25.894 15.2249 25.9024 15.2555 25.919 15.311L25.9246 15.3194C25.9468 15.3916 25.944 15.411 25.9302 15.4194L25.9246 15.4249H25.9163C25.9107 15.4249 25.8968 15.4194 25.8663 15.3527C25.8607 15.3388 25.7079 15.0333 25.8079 14.7749C25.9079 14.5249 26.1579 14.2833 26.1579 14.2805C26.1635 14.2805 26.3441 14.1249 26.3941 14.0805C26.2302 14.1249 25.9635 14.2527 25.8524 14.6221C25.8524 14.6277 25.844 14.6416 25.8329 14.6444C25.8274 14.6444 25.819 14.6444 25.8135 14.6444C25.8079 14.6388 25.8052 14.636 25.7996 14.6305C25.794 14.6166 25.7996 14.6027 25.8052 14.5999C25.8135 14.5721 25.8996 14.2638 26.1357 14.1194C26.3218 14.0055 26.3579 13.9833 26.3996 13.961C26.4135 13.9527 26.4302 13.9416 26.4552 13.9305C26.4996 13.9027 26.5496 13.861 26.6135 13.7527C26.6135 13.7471 26.6191 13.7471 26.6191 13.7444C26.5885 13.7805 26.5274 13.8388 26.4496 13.8666C26.4079 13.8805 26.3718 13.886 26.3357 13.886C26.2663 13.8916 26.2079 13.8944 26.1413 13.9721C26.0329 14.0944 25.9413 14.2638 25.9413 14.2638C25.9052 14.3194 25.8996 14.3138 25.8913 14.3138C25.8857 14.3138 25.8829 14.3083 25.8774 14.3055C25.8718 14.2916 25.8829 14.2638 25.8857 14.2499C25.8913 14.236 26.0413 13.9277 26.1635 13.8638C26.3052 13.786 26.3996 13.7333 26.4579 13.686C26.5274 13.6305 26.6357 13.5138 26.7024 13.4416C26.7163 13.4277 26.7246 13.4194 26.7329 13.411L26.7468 13.3971C26.7691 13.3749 26.8246 13.3166 26.8385 13.2971C26.8385 13.2916 26.8441 13.2916 26.8468 13.2888C26.8329 13.2944 26.8191 13.3027 26.8024 13.3083C26.7968 13.3083 26.4079 13.4221 26.1663 13.786C26.1524 13.8055 26.1246 13.8416 26.1107 13.8555C26.1052 13.861 26.1052 13.861 26.1024 13.8638C26.0968 13.8694 26.0941 13.8721 26.0941 13.8777C26.0802 13.8999 26.0746 13.9221 26.0746 13.9221L26.069 13.9416L26.0496 13.9277C26.044 13.9221 26.0357 13.9138 26.069 13.8638C26.069 13.8583 26.0746 13.8555 26.0774 13.8555C26.0996 13.8249 26.1329 13.7777 26.1857 13.711L26.2135 13.5888C26.2135 13.5805 26.2579 13.4083 26.3496 13.2749C26.244 13.3694 26.0635 13.5694 26.0635 13.7971C26.0635 13.861 26.0218 13.9194 25.9718 13.9916C25.9135 14.0721 25.894 14.1277 25.8663 14.2555C25.8579 14.311 25.844 14.3638 25.8357 14.4138C25.8357 14.4333 25.8357 14.4555 25.8274 14.4638C25.8218 14.4694 25.819 14.4694 25.8079 14.4694C25.7802 14.4638 25.7857 14.4249 25.7857 14.411C25.7857 14.4027 25.8218 14.161 25.8496 14.0833C25.8718 14.0194 25.8857 13.9749 25.8913 13.961C25.8913 13.9388 25.8774 13.7666 25.919 13.6694C25.9413 13.611 25.9913 13.5333 26.0246 13.4833C26.0385 13.461 26.0524 13.4416 26.0552 13.4333C26.0746 13.3971 26.0857 13.3555 26.0968 13.3194C26.0746 13.3638 26.0524 13.3916 26.019 13.4277C26.0052 13.4471 25.9885 13.4638 25.969 13.486L25.9635 13.4916C25.9635 13.4916 25.794 13.6194 25.7357 13.9721C25.7357 13.9721 25.7357 14.1138 25.7135 14.3221C25.6996 14.4777 25.7135 14.6277 25.7274 14.7138C25.7274 14.7221 25.7329 14.7277 25.7329 14.7333C25.7385 14.7388 25.7385 14.7416 25.7385 14.7471C25.744 14.7527 25.744 14.7555 25.7468 14.761C25.7524 14.7666 25.7552 14.7694 25.7524 14.7805C25.7524 14.7888 25.744 14.7888 25.744 14.7944L25.7357 14.7999L25.7274 14.7944L25.7218 14.7888V14.7805C25.7218 14.7749 25.7218 14.7666 25.7163 14.761C25.7163 14.7555 25.7107 14.7527 25.7107 14.7471C25.6913 14.7055 25.669 14.6333 25.669 14.511C25.669 14.3194 25.6885 14.1666 25.6885 14.161C25.6885 14.161 25.6968 13.9416 25.6246 13.7916C25.6302 13.8055 25.6329 13.8221 25.6329 13.8416C25.6468 13.9194 25.6274 14.0221 25.6135 14.0777C25.6135 14.086 25.6079 14.0916 25.6079 14.0999C25.6079 14.1083 25.5996 14.1277 25.594 14.1499C25.5663 14.236 25.5218 14.3916 25.544 14.5416C25.544 14.5416 25.6079 14.8194 25.6885 14.9833C25.6968 15.0027 25.7079 15.0138 25.7163 15.0249C25.744 15.061 25.7468 15.061 25.7357 15.0694C25.7274 15.0777 25.7218 15.0777 25.6913 15.0388C25.6857 15.0249 25.6774 15.0166 25.6718 15.0027C25.6274 14.9249 25.5663 14.7888 25.5357 14.7083V14.7027C25.5302 14.6833 25.4552 14.5305 25.3857 14.4666C25.3579 14.4444 25.2996 14.4027 25.2663 14.386C25.2885 14.4166 25.3163 14.4638 25.3357 14.4944C25.344 14.5083 25.3496 14.5166 25.3552 14.5249C25.3996 14.5971 25.4357 14.6694 25.4746 14.7471C25.5052 14.8194 25.5829 15.0277 25.5885 15.0388L25.6413 15.1444Z" fill="black"/>
<path d="M29.2132 14.4138C29.2437 14.4221 29.2576 14.5193 29.2576 14.5193C29.2576 14.5193 29.2521 14.4693 29.2521 14.4416C29.2521 14.4138 29.2382 14.3193 29.2382 14.3193L29.2104 14.3388C29.1798 14.3666 29.1604 14.411 29.1604 14.411C29.1604 14.411 29.1882 14.3999 29.2132 14.4138Z" fill="#009B3A"/>
<path d="M29.2414 14.5195C29.2358 14.4779 29.2191 14.4334 29.2108 14.4279C29.1886 14.4195 29.1691 14.4223 29.1691 14.4223L29.1414 14.4279L29.1497 14.4001C29.1497 14.4001 29.1691 14.3501 29.2053 14.3223L29.2553 14.2862L29.2608 14.314C29.2608 14.3195 29.2747 14.414 29.2747 14.4418C29.2747 14.4695 29.2803 14.5195 29.2803 14.5195H29.2414ZM29.1914 14.3917C29.1997 14.3917 29.2108 14.3973 29.2191 14.4001L29.2136 14.4195L29.2191 14.4001C29.2247 14.4001 29.233 14.4056 29.2386 14.414C29.2386 14.3945 29.233 14.3695 29.2303 14.3501L29.2247 14.3556C29.2136 14.3584 29.2025 14.3779 29.1914 14.3917Z" fill="black"/>
</g>
<defs>
<clipPath id="clip0_93_53720">
<rect width="53.3333" height="30" fill="white" transform="translate(0.666016)"/>
</clipPath>
</defs>
</svg>
