<svg width="54" height="30" viewBox="0 0 54 30" fill="none" xmlns="http://www.w3.org/2000/svg">
<g clip-path="url(#clip0_93_9043)">
<path d="M53.3333 -0.0556641H0V29.9443H53.3333V-0.0556641Z" fill="#DE2910"/>
<path d="M7.50004 2.94434L10.1445 11.0832L3.21948 6.05545H11.7806L4.85559 11.086L7.50004 2.94434Z" fill="#FFDE00"/>
<path d="M15.5862 1.56384L15.3362 4.40273L13.8667 1.95829L16.4917 3.07218L13.7112 3.71107L15.5862 1.56384Z" fill="#FFDE00"/>
<path d="M19.075 4.89979L17.7389 7.41924L17.3333 4.59424L19.3194 6.64424L16.5083 6.15535L19.075 4.89979Z" fill="#FFDE00"/>
<path d="M19.4115 9.93072L17.167 11.6918L17.9532 8.94739L18.9337 11.628L16.5698 10.0335L19.4115 9.93072Z" fill="#FFDE00"/>
<path d="M15.5306 12.0389L15.4 14.8889L13.8306 12.5028L16.5 13.5083L13.75 14.2639L15.5306 12.0389Z" fill="#FFDE00"/>
</g>
<defs>
<clipPath id="clip0_93_9043">
<rect width="53.3333" height="30" fill="white"/>
</clipPath>
</defs>
</svg>
