<svg width="54" height="30" viewBox="0 0 54 30" fill="none" xmlns="http://www.w3.org/2000/svg">
<g clip-path="url(#clip0_93_9050)">
<path d="M61.0142 -0.380493H0.255859V30.0001H61.0142V-0.380493Z" fill="#0038A8"/>
<path d="M61.0142 14.8112H0.255859V30.0001H61.0142V14.8112Z" fill="#CE1126"/>
<path d="M26.567 14.8112L0.255859 30.0001V-0.380493" fill="white"/>
<path d="M1.77528 2.25L2.68917 3.03889L3.7475 2.45556L3.27806 3.56944L4.15862 4.39722L2.95306 4.29444L2.44195 5.39167L2.16695 4.21389L0.969727 4.06389L2.00306 3.43889L1.77528 2.25Z" fill="#FCD116"/>
<path d="M22.3615 13.2056L22.3865 14.414L23.5281 14.8112L22.3865 15.2084L22.3615 16.4167L21.6309 15.4528L20.4753 15.8028L21.167 14.8112L20.4753 13.8195L21.6309 14.1695L22.3615 13.2056Z" fill="#FCD116"/>
<path d="M2.44195 24.2278L2.95584 25.3222L4.16139 25.2194L3.28084 26.0472L3.75028 27.1611L2.69195 26.5778L1.77528 27.3694L2.00306 26.1833L0.969727 25.5556L2.16973 25.4056L2.44195 24.2278Z" fill="#FCD116"/>
<path d="M9.70881 8.39722L9.31437 8.79166L9.50881 11.7778C9.44215 11.7833 9.37548 11.7889 9.31159 11.7972L8.95326 9.07222L8.63103 9.39444L9.11437 11.8306C8.71437 11.9083 8.34492 12.0667 8.01992 12.2833L6.63937 10.2167H6.18381L7.85881 12.3972C7.80603 12.4389 7.75603 12.4806 7.70603 12.5222L5.73103 10.2694H5.1727V10.8333L7.42548 12.8083C7.38103 12.8583 7.33937 12.9083 7.30048 12.9611L5.11992 11.2861V11.7417L7.18659 13.1222C6.96714 13.4472 6.81159 13.8194 6.73381 14.2167L4.2977 13.7333L3.96992 14.0556L6.69492 14.4139C6.68659 14.4806 6.68103 14.5444 6.67548 14.6111L3.68937 14.4167L3.29492 14.8111L3.68937 15.2056L6.67548 15.0111C6.68103 15.0778 6.68659 15.1444 6.69492 15.2083L3.96992 15.5667L4.29214 15.8889L6.72826 15.4056C6.80603 15.8056 6.96437 16.175 7.18103 16.5L5.11437 17.8806V18.3333L7.29492 16.6583C7.33659 16.7111 7.37826 16.7611 7.41992 16.8111L5.16714 18.7861V19.3444H5.72548L7.70048 17.0917C7.75048 17.1361 7.80048 17.1778 7.85326 17.2167L6.17826 19.3972H6.63381L8.01437 17.3306C8.33937 17.55 8.71159 17.7056 9.10881 17.7861L8.62548 20.2222L8.9477 20.5444L9.30603 17.8194C9.36992 17.8278 9.43659 17.8333 9.50326 17.8389L9.30881 20.825L9.70326 21.2194L10.0977 20.825L9.90326 17.8389C9.96992 17.8333 10.0366 17.8278 10.1005 17.8194L10.4588 20.5444L10.781 20.2222L10.2977 17.7861C10.6977 17.7083 11.0671 17.55 11.3921 17.3333L12.7727 19.4H13.2283L11.5533 17.2194C11.606 17.1778 11.656 17.1361 11.706 17.0944L13.681 19.3472H14.2394V18.7889L11.9866 16.8139C12.031 16.7639 12.0727 16.7139 12.1116 16.6611L14.2921 18.3361V17.8806L12.2255 16.5C12.4449 16.175 12.6005 15.8028 12.6783 15.4056L15.1144 15.8889L15.4366 15.5667L12.7199 15.2056C12.7283 15.1389 12.7338 15.075 12.7394 15.0083L15.7255 15.2028L16.1199 14.8083L15.7283 14.4167L12.7421 14.6111C12.7366 14.5444 12.731 14.4778 12.7227 14.4139L15.4477 14.0556L15.1255 13.7333L12.6894 14.2167C12.6116 13.8167 12.4533 13.4472 12.2366 13.1222L14.3033 11.7417V11.2861L12.1227 12.9611C12.081 12.9083 12.0394 12.8583 11.9977 12.8083L14.2505 10.8333V10.275H13.6921L11.7116 12.5278C11.6616 12.4833 11.6116 12.4417 11.5588 12.4028L13.2338 10.2222H12.7755L11.3949 12.2889C11.0699 12.0694 10.6977 11.9139 10.3005 11.8361L10.7838 9.39999L10.4616 9.07777L10.1033 11.8028C10.0366 11.7944 9.9727 11.7889 9.90603 11.7833L10.1005 8.79722L9.70881 8.39722Z" fill="#FCD116"/>
</g>
<defs>
<clipPath id="clip0_93_9050">
<rect width="53.3333" height="30" fill="white" transform="translate(0.331055)"/>
</clipPath>
</defs>
</svg>
