<svg width="55" height="30" viewBox="0 0 55 30" fill="none" xmlns="http://www.w3.org/2000/svg">
<g clip-path="url(#clip0_93_9058)">
<path fill-rule="evenodd" clip-rule="evenodd" d="M0.996094 0H54.3294V30H0.996094V0Z" fill="#FE0000"/>
<path fill-rule="evenodd" clip-rule="evenodd" d="M0.996094 0H23.4961V15H0.996094V0Z" fill="#000095"/>
<path d="M12.2461 1.875L9.43221 12.3694L17.1183 4.68889L6.62109 7.5L17.1155 10.3139L9.43498 2.63056L12.2461 13.125L15.06 2.63056L7.37665 10.3139L17.8711 7.5L7.37665 4.68889L15.0628 12.375L12.2461 1.875Z" fill="white"/>
<path d="M12.2461 10.5C13.903 10.5 15.2461 9.15685 15.2461 7.5C15.2461 5.84315 13.903 4.5 12.2461 4.5C10.5892 4.5 9.24609 5.84315 9.24609 7.5C9.24609 9.15685 10.5892 10.5 12.2461 10.5Z" fill="white" stroke="#000095" stroke-width="7.5"/>
</g>
<defs>
<clipPath id="clip0_93_9058">
<rect width="53.3333" height="30" fill="white" transform="translate(0.996094)"/>
</clipPath>
</defs>
</svg>
