<svg width="54" height="30" viewBox="0 0 54 30" fill="none" xmlns="http://www.w3.org/2000/svg">
<g clip-path="url(#clip0_93_11971)">
<path d="M53.9954 0H0.662109V30H53.9954V0Z" fill="#20603D"/>
<path d="M53.9954 0H0.662109V22.5H53.9954V0Z" fill="#FAD201"/>
<path d="M53.9954 0H0.662109V15H53.9954V0Z" fill="#00A1DE"/>
<path d="M50.5951 7.83882L47.2451 8.03327L50.434 9.08882L47.1478 8.40827L49.9506 10.2555L46.9506 8.74994L49.1812 11.2583L46.6728 9.02771L48.1756 12.0277L46.3312 9.22216L47.009 12.511L45.9562 9.32216L45.759 12.6722L45.7173 7.79438L50.5951 7.83882Z" fill="#E5BE01"/>
<path d="M50.5951 7.83889L47.2451 7.64167L50.434 6.58889L47.1478 7.26667L49.9506 5.42222L46.9506 6.92778L49.1812 4.41944L46.6728 6.65L48.1756 3.65L46.3284 6.45L47.009 3.16667L45.9562 6.35556L45.759 3L45.7173 7.88056L50.5951 7.83889Z" fill="#E5BE01"/>
<path d="M40.9231 7.83866L44.2731 8.03311L41.0842 9.08866L44.3703 8.40811L41.5703 10.2581L44.5703 8.75533L42.3398 11.2637L44.8481 9.03311L43.3425 12.0331L45.1898 9.23033L44.5092 12.5192L45.5648 9.33033L45.7592 12.6803L45.8009 7.80255L40.9231 7.83866Z" fill="#E5BE01"/>
<path d="M40.9231 7.83911L44.2731 7.64189L41.0842 6.58911L44.3703 7.26689L41.5703 5.42245L44.5703 6.928L42.337 4.41967L44.8453 6.65022L43.3425 3.65023L45.187 6.45578L44.5092 3.16689L45.562 6.35578L45.7592 3.00578L45.8009 7.88356L40.9231 7.83911Z" fill="#E5BE01"/>
<path d="M45.7593 9.26648C46.5479 9.26648 47.1871 8.62724 47.1871 7.8387C47.1871 7.05016 46.5479 6.41093 45.7593 6.41093C44.9708 6.41093 44.3315 7.05016 44.3315 7.8387C44.3315 8.62724 44.9708 9.26648 45.7593 9.26648Z" fill="#E5BE01"/>
<path d="M45.7592 9.33907C44.9286 9.33907 44.2592 8.66685 44.2592 7.83907C44.2592 7.00852 44.9286 6.33907 45.7592 6.33907C46.5897 6.33907 47.2592 7.0113 47.2592 7.83907C47.2592 8.66685 46.5897 9.33907 45.7592 9.33907ZM45.7592 6.48074C45.0092 6.48074 44.4008 7.08907 44.4008 7.83907C44.4008 8.58907 45.0092 9.1974 45.7592 9.1974C46.5092 9.1974 47.1175 8.58907 47.1175 7.83907C47.1175 7.08907 46.5092 6.48074 45.7592 6.48074Z" fill="#00A1DE"/>
</g>
<defs>
<clipPath id="clip0_93_11971">
<rect width="53.3333" height="30" fill="white" transform="translate(0.662109)"/>
</clipPath>
</defs>
</svg>
