<svg width="54" height="30" viewBox="0 0 54 30" fill="none" xmlns="http://www.w3.org/2000/svg">
<g clip-path="url(#clip0_93_53794)">
<path d="M49.5337 -0.0249023H0.328125V30.0251" fill="#009E49"/>
<path d="M4.45874 30.0251H53.6615V-0.0249023" fill="#CE1126"/>
<path d="M0.727783 32.5137L53.2639 -2.51129L0.727783 32.5137Z" fill="black"/>
<path d="M49.1814 -8.63298L-3.35254 26.3917L4.80772 38.6314L57.3416 3.60667L49.1814 -8.63298Z" fill="#FCD116"/>
<path d="M0.727783 32.5137L53.2639 -2.51129L0.727783 32.5137Z" fill="black"/>
<path d="M50.3578 -6.88543L-2.18701 28.1423L3.64196 36.8863L56.1867 1.85856L50.3578 -6.88543Z" fill="black"/>
<path d="M34.2612 4.26947L35.5862 8.9917L37.9473 8.32503" fill="white"/>
<path d="M34.2612 4.26947L38.1057 7.30836L36.5862 9.23613" fill="white"/>
<path d="M40.0199 4.5L35.9421 7.21667L37.3005 9.25556" fill="white"/>
<path d="M40.02 4.5L38.3172 9.09445L36.02 8.24722" fill="white"/>
<path d="M41.5725 10.0471L37.7281 7.00824L36.2086 8.93602" fill="white"/>
<path d="M41.5724 10.0471L36.6752 9.84993L36.7724 7.39716" fill="white"/>
<path d="M36.7806 13.2418L38.4834 8.64739L36.1862 7.80017" fill="white"/>
<path d="M36.7808 13.2417L35.4558 8.51951L37.8169 7.85284" fill="white"/>
<path d="M32.2557 9.6695L37.153 9.86672L37.2502 7.41394" fill="white"/>
<path d="M32.2557 9.66954L36.3335 6.95288L37.6918 8.99177" fill="white"/>
<path d="M14.2946 17.5779L15.6196 22.3001L17.9807 21.6334" fill="white"/>
<path d="M14.2946 17.5779L18.139 20.6168L16.6196 22.5445" fill="white"/>
<path d="M20.0528 17.8111L15.9778 20.5278L17.3361 22.5667" fill="white"/>
<path d="M20.0535 17.8111L18.3507 22.4055L16.0535 21.5583" fill="white"/>
<path d="M21.6086 23.3583L17.7642 20.3166L16.2448 22.2444" fill="white"/>
<path d="M21.6086 23.3584L16.7114 23.1612L16.8086 20.7084" fill="white"/>
<path d="M16.8175 26.5527L18.5202 21.9582L16.223 21.111" fill="white"/>
<path d="M16.8171 26.5528L15.4921 21.8306L17.8532 21.1639" fill="white"/>
<path d="M12.2919 22.9806L17.1891 23.1778L17.2863 20.725" fill="white"/>
<path d="M12.2919 22.9806L16.3696 20.264L17.728 22.3029" fill="white"/>
</g>
<defs>
<clipPath id="clip0_93_53794">
<rect width="53.3333" height="30" fill="white" transform="translate(0.328125)"/>
</clipPath>
</defs>
</svg>
