<svg width="54" height="30" viewBox="0 0 54 30" fill="none" xmlns="http://www.w3.org/2000/svg">
<g clip-path="url(#clip0_93_11981)">
<path d="M60.3262 0H0.326172V30H60.3262V0Z" fill="#12AD2B"/>
<path d="M60.3262 8.57245H0.326172V21.4308H60.3262V8.57245Z" fill="#FFCE00"/>
<path d="M0.326172 0V30L15.3262 15" fill="#D21034"/>
<path d="M28.1848 10.7141L26.8597 14.7891L28.8986 15.4502" fill="black"/>
<path d="M28.184 10.7141L29.509 14.7891L27.4701 15.4502" fill="black"/>
<path d="M32.2596 13.6749H27.9735V15.8166" fill="black"/>
<path d="M32.2588 13.6749L28.7921 16.1943L27.531 14.461" fill="black"/>
<path d="M30.7046 18.4667L29.3796 14.3917L27.3407 15.0529" fill="black"/>
<path d="M30.7033 18.4669L27.2367 15.9474L28.4978 14.2141" fill="black"/>
<path d="M25.6626 18.4669L29.1293 15.9474L27.8682 14.2141" fill="black"/>
<path d="M25.6626 18.4667L26.9876 14.3917L29.0265 15.0529" fill="black"/>
<path d="M24.1068 13.6749L27.5735 16.1943L28.8346 14.461" fill="black"/>
<path d="M24.1068 13.6749H28.3929V15.8166" fill="black"/>
<path d="M43.1846 10.7141L41.8596 14.7891L43.8985 15.4502" fill="black"/>
<path d="M43.184 10.7141L44.509 14.7891L42.4701 15.4502" fill="black"/>
<path d="M47.2596 13.6749H42.9735V15.8166" fill="black"/>
<path d="M47.2588 13.6749L43.7921 16.1943L42.531 14.461" fill="black"/>
<path d="M45.7046 18.4667L44.3796 14.3917L42.3407 15.0529" fill="black"/>
<path d="M45.7035 18.4669L42.2368 15.9474L43.4979 14.2141" fill="black"/>
<path d="M40.6626 18.4669L44.1293 15.9474L42.8682 14.2141" fill="black"/>
<path d="M40.6626 18.4667L41.9876 14.3917L44.0265 15.0529" fill="black"/>
<path d="M39.1068 13.6749L42.5735 16.1943L43.8346 14.461" fill="black"/>
<path d="M39.1068 13.6749H43.3929V15.8166" fill="black"/>
</g>
<defs>
<clipPath id="clip0_93_11981">
<rect width="53.3333" height="30" fill="white" transform="translate(0.326172)"/>
</clipPath>
</defs>
</svg>
