<svg width="55" height="30" viewBox="0 0 55 30" fill="none" xmlns="http://www.w3.org/2000/svg">
<g clip-path="url(#clip0_93_10372)">
<path d="M54.8749 30.2863V-0.28595H0.447144V30.2891H54.8749V30.2863Z" fill="#006C35"/>
<path d="M37.1859 7.8971C37.447 7.71377 37.6859 7.50544 37.9748 7.35822C37.8943 7.68877 37.6443 7.94433 37.3887 8.15266C37.2609 8.25544 37.3165 8.43877 37.3026 8.58044C37.2304 8.56377 37.1637 8.54433 37.0943 8.52488C37.1609 9.36655 37.2526 10.2027 37.2943 11.0471C37.2998 11.1443 37.3054 11.2471 37.3915 11.3082C37.7776 11.6554 38.1804 11.9999 38.4665 12.4443C38.5776 12.6165 38.6387 12.8165 38.697 13.011C38.7693 12.686 38.7637 12.3499 38.7276 12.0165C38.5859 10.7388 38.4581 9.45266 38.3443 8.16377C38.3331 8.00544 38.3081 7.84155 38.3276 7.68599C38.3387 7.53877 38.4859 7.41655 38.6331 7.42488C38.7193 7.4971 38.772 7.5971 38.8165 7.69988C38.9331 7.96377 39.0415 8.24988 39.0109 8.5471C38.9387 8.52766 38.8693 8.4971 38.7915 8.46933C38.8998 9.34155 39.0054 10.211 39.0665 11.0832C39.097 11.6749 39.1831 12.2665 39.0609 12.8527C38.9526 13.3915 38.6887 13.9388 38.2137 14.2443C37.8165 14.5054 37.3581 14.6471 36.8998 14.7443C36.7109 14.786 36.5165 14.7999 36.3331 14.7499C36.5276 14.6415 36.747 14.5665 36.9554 14.4749C37.2554 14.3471 37.547 14.2054 37.8165 14.0277C38.072 13.8582 38.3359 13.6915 38.5248 13.4415C38.2915 12.8138 37.897 12.2249 37.3415 11.836C37.3581 12.4527 37.3887 13.0832 37.2943 13.6971C37.2776 13.8443 37.2137 13.9721 37.1109 14.0749C37.0443 13.8138 37.0387 13.5443 37.0081 13.286C36.9581 12.7165 36.9054 12.1332 36.8665 11.5638C36.8665 11.4471 36.7887 11.3554 36.7026 11.2888C36.3554 10.9971 36.0304 10.6721 35.6943 10.3665C35.7054 10.7193 35.7609 11.0693 35.7804 11.4165C35.822 11.8915 35.8276 12.3582 35.8776 12.8332C35.9081 13.1638 35.9137 13.511 35.7915 13.8277C35.6693 14.1221 35.3887 14.3777 35.0581 14.3971C34.8804 14.4138 34.7054 14.3971 34.5331 14.3665C34.3498 14.336 34.2081 14.1971 34.1248 14.0415C34.022 13.8527 33.972 13.6388 33.8915 13.4415C33.7387 13.4777 33.5804 13.5082 33.4693 13.6249C33.2359 13.8499 33.1637 14.1915 33.0526 14.486C32.9859 14.6582 32.9109 14.8527 32.7415 14.9443C32.5637 15.0471 32.3443 15.0054 32.1748 14.9082C31.9137 14.7665 31.7581 14.4999 31.6804 14.2249C31.6026 14.011 31.7109 13.7665 31.5776 13.5638C31.4804 13.3804 31.5359 13.161 31.5831 12.9665C31.6859 12.6249 31.8943 12.336 32.1498 12.086C31.8137 11.7943 31.4776 11.4999 31.1415 11.2082C31.172 12.0193 31.2387 12.8249 31.1304 13.6277C31.1137 13.7915 31.0526 13.9443 30.9359 14.061C30.8998 13.9082 30.8748 13.7499 30.8637 13.5971C30.7832 12.711 30.7109 11.8249 30.6498 10.936C30.6443 10.8332 30.6248 10.7221 30.5415 10.6554C30.1998 10.3304 29.8693 9.98322 29.5637 9.61655C29.3859 9.39155 29.2026 9.16377 29.1109 8.89433C29.0748 8.78322 29.0443 8.62488 29.1526 8.54155C29.2748 8.55266 29.3859 8.60821 29.4943 8.66377C29.6887 8.77488 29.872 8.92488 30.0304 9.09155C30.1026 9.16377 30.1387 9.26099 30.1693 9.35544C30.0665 9.35544 29.9748 9.34988 29.8748 9.34988C30.0748 9.63599 30.3137 9.89988 30.5831 10.1249C30.5581 9.3721 30.4748 8.61655 30.4415 7.86377C30.4415 7.76099 30.4415 7.64988 30.5137 7.56933C30.5804 7.4971 30.6776 7.46655 30.7693 7.43599C30.9331 7.67488 31.0554 7.94433 31.122 8.23044C31.1526 8.34155 31.147 8.46099 31.1387 8.57766C31.0665 8.56099 30.997 8.53599 30.9304 8.51655C30.9776 9.12766 31.0415 9.73321 31.0831 10.3471C31.0887 10.4332 31.0943 10.5193 31.1193 10.6082C31.1554 10.6693 31.2054 10.711 31.2581 10.7554C31.6748 11.1082 32.0943 11.4638 32.522 11.8054C32.7776 11.586 33.022 11.361 33.2748 11.1471C33.3359 11.0971 33.3915 11.0499 33.4387 10.9943C33.4859 10.9443 33.4693 10.8721 33.4693 10.811C33.3887 10.0777 33.3276 9.33877 33.2609 8.60544C33.2443 8.33599 33.1998 8.06933 33.1998 7.81099C33.1943 7.65266 33.3165 7.49433 33.4748 7.48877C33.547 7.48322 33.5776 7.56099 33.6137 7.60544C33.7304 7.81377 33.822 8.03877 33.8748 8.2721C33.9054 8.38321 33.8915 8.50266 33.8693 8.61933C33.8026 8.58877 33.7304 8.55822 33.6693 8.52766C33.7554 9.21933 33.8276 9.90822 33.8943 10.6027C34.0776 10.4693 34.2415 10.311 34.4137 10.1638C34.6026 9.99988 34.7998 9.84155 34.9831 9.66933C34.7637 9.43599 34.5359 9.21655 34.3109 8.98599C34.1693 8.83877 33.9998 8.69988 33.9387 8.49155C33.8915 8.34433 33.922 8.19155 33.9498 8.0471C34.2137 8.09433 34.4443 8.24988 34.6581 8.40822C34.8054 8.51933 34.9331 8.6471 35.0665 8.78044C35.0554 8.48877 35.0193 8.19433 34.9943 7.90266C34.9943 7.79155 34.9831 7.66933 35.0609 7.57766C35.1276 7.50544 35.2248 7.47488 35.3109 7.43599C35.4831 7.66099 35.5859 7.93044 35.6581 8.19988C35.6943 8.3221 35.6943 8.44433 35.6887 8.5721C35.6165 8.55544 35.5415 8.53599 35.4693 8.5221C35.4943 8.7471 35.5165 8.96655 35.547 9.18877C35.822 8.98044 36.0776 8.74433 36.3581 8.53599C36.4554 8.44433 36.622 8.37766 36.622 8.21933C36.6276 8.04988 36.5915 7.87766 36.6165 7.71099C36.6331 7.56377 36.7748 7.4471 36.922 7.45544C37.0581 7.58044 37.1081 7.74988 37.1859 7.8971ZM35.747 9.51655C35.6998 9.56655 35.6081 9.61377 35.6193 9.69433C35.6554 9.76655 35.7276 9.8221 35.7831 9.88321C36.1248 10.1943 36.4498 10.5138 36.8137 10.7999C36.8026 10.4693 36.7665 10.1415 36.747 9.81099C36.7165 9.46377 36.7054 9.11377 36.6693 8.76655C36.3498 9.00266 36.0581 9.2721 35.747 9.51655ZM34.8776 8.90544C34.9554 8.99155 35.0248 9.07488 35.1026 9.16099C35.1026 9.07488 35.097 8.99155 35.097 8.90544C35.0248 8.90544 34.947 8.90544 34.8776 8.90544ZM34.0498 10.9527C33.9887 11.0027 33.922 11.061 33.9276 11.1415C33.922 11.5693 33.9693 12.0082 33.8609 12.4193C33.8359 12.5277 33.7581 12.5971 33.6831 12.6638C33.5859 12.2554 33.5804 11.8332 33.5109 11.4165C33.2554 11.6193 33.0165 11.8388 32.7776 12.0582C32.9165 12.211 33.047 12.3749 33.0998 12.5777C33.1776 12.8638 33.0887 13.1943 32.8498 13.3888C32.5581 13.6277 32.172 13.6693 31.8109 13.7138C31.8609 13.9471 31.9137 14.1971 32.0498 14.3971C32.1359 14.5138 32.2804 14.6277 32.4331 14.5804C32.597 14.5332 32.697 14.3777 32.7581 14.2332C32.8748 13.9388 33.0081 13.6415 33.1804 13.3721C33.322 13.1471 33.5526 12.9638 33.822 12.9554C33.9081 12.961 34.0304 12.936 34.0831 13.0277C34.1998 13.2277 34.2415 13.461 34.3887 13.6443C34.6387 13.9693 35.1637 13.9749 35.4581 13.7054C35.5609 13.6138 35.5609 13.4721 35.5443 13.3443C35.4054 12.2277 35.3109 11.0971 35.1915 9.98044C34.8054 10.3054 34.4331 10.6332 34.0498 10.9527ZM31.9665 12.8638C31.8998 12.9499 31.8637 13.0527 31.8387 13.1582C32.1026 13.1888 32.3748 13.1277 32.6081 12.9943C32.6804 12.9471 32.7609 12.8777 32.747 12.7804C32.7304 12.5915 32.5693 12.4554 32.4248 12.3415C32.2637 12.5027 32.1054 12.6749 31.9665 12.8638Z" fill="white"/>
<path d="M20.883 7.417C20.9553 7.36978 21.0219 7.45311 21.0664 7.50311C21.208 7.67533 21.3608 7.85033 21.4441 8.06422C21.3719 8.07533 21.2969 8.08366 21.2247 8.10033C21.2414 8.43644 21.5247 8.667 21.608 8.98644C21.6691 9.18644 21.6747 9.39478 21.633 9.592C21.5719 9.86144 21.3469 10.0976 21.0719 10.142C20.7469 10.1976 20.3803 10.1226 20.1386 9.87811C19.9803 9.71978 19.9191 9.49478 19.8469 9.292C19.7691 9.567 19.658 9.83089 19.4636 10.0448C19.3525 10.1726 19.2025 10.2642 19.0553 10.3392C19.0969 11.092 19.1719 11.842 19.1053 12.592C19.0803 12.8059 19.0691 13.0559 18.8747 13.1976C18.8025 12.9031 18.7941 12.592 18.758 12.2809C18.6914 11.6587 18.6469 11.0337 18.5803 10.4114C18.3969 10.3642 18.1969 10.3253 18.0553 10.192C17.8219 9.97811 17.7441 9.64755 17.7608 9.34478C17.7664 9.11144 17.8414 8.88089 17.8997 8.64755C17.8136 8.73922 17.7414 8.84755 17.6997 8.96422C17.5775 9.342 17.4914 9.73366 17.3219 10.0892C17.2553 10.2309 17.133 10.3503 16.9803 10.3809C16.7914 10.4226 16.5664 10.4114 16.4191 10.2642C16.2608 10.1059 16.2247 9.87255 16.1997 9.65866C16.1886 9.43922 16.1691 9.20589 16.2719 9.00033C16.333 8.87811 16.4553 8.81144 16.5636 8.74477C16.4914 8.86144 16.4108 8.97811 16.3914 9.117C16.3664 9.30589 16.4025 9.50311 16.4386 9.68644C16.4636 9.79755 16.4858 9.91978 16.5775 10.0031C16.7164 10.1253 16.9441 10.1142 17.0719 9.992C17.1441 9.91422 17.1803 9.81422 17.2136 9.717C17.3303 9.35589 17.4275 8.98922 17.5747 8.63644C17.7025 8.34478 17.9358 8.06144 18.2664 7.99477C18.2303 8.392 18.0469 8.76422 18.0358 9.167C18.0303 9.34478 18.0469 9.54478 18.1636 9.68089C18.2497 9.79755 18.3969 9.83922 18.5358 9.88089C18.4997 9.33644 18.4497 8.78922 18.4136 8.23922C18.4025 8.03644 18.3664 7.83089 18.4025 7.62811C18.433 7.48644 18.5858 7.43922 18.7025 7.39478C18.9275 7.72533 19.0886 8.117 19.0858 8.51978C19.008 8.50311 18.9386 8.48366 18.8608 8.46978C18.908 8.93366 18.958 9.40866 19.008 9.86978C19.2025 9.80866 19.3803 9.692 19.4914 9.517C19.7219 9.18644 19.7553 8.75311 19.6441 8.36977C19.5969 8.20589 19.5219 8.05311 19.4858 7.88644C19.4497 7.72811 19.5636 7.56422 19.7053 7.51422C19.7719 7.48366 19.8025 7.56422 19.8275 7.61144C19.9136 7.80033 19.9441 8.01422 19.9858 8.22255C20.0358 8.49755 19.9858 8.78366 20.0886 9.04755C20.1691 9.27255 20.3191 9.48089 20.533 9.59755C20.7053 9.69478 20.9053 9.71422 21.0997 9.68366C21.1969 9.667 21.2719 9.58644 21.2941 9.49478C21.3414 9.317 21.2775 9.12811 21.1969 8.96422C21.0191 8.592 20.7997 8.242 20.7191 7.83922C20.6886 7.70866 20.7303 7.50866 20.883 7.417Z" fill="white"/>
<path d="M28.9855 7.85002C29.0966 7.66113 29.2772 7.51391 29.4744 7.41669C29.4244 7.55835 29.3355 7.6778 29.2605 7.80002C29.1994 7.89169 29.1994 8.0028 29.1938 8.10002C29.3327 8.09447 29.4633 8.06947 29.5966 8.03891C29.5605 8.14724 29.5244 8.25835 29.4244 8.32502C29.3133 8.4028 29.1494 8.4528 29.0272 8.36113C28.9077 8.23335 28.8938 8.00835 28.9855 7.85002Z" fill="white"/>
<path d="M21.6695 7.60005C21.7306 7.50838 21.8418 7.47782 21.9306 7.43616C22.114 7.66949 22.2251 7.9556 22.2973 8.24727C22.3279 8.35838 22.314 8.47227 22.3029 8.58338C22.2362 8.56393 22.164 8.53616 22.1029 8.51671C22.1806 9.06116 22.2751 9.60282 22.3362 10.1417C22.6473 9.98894 22.9362 9.8056 23.264 9.66671C23.3668 9.61949 23.4723 9.60005 23.5862 9.58894C23.5445 9.6806 23.5001 9.76671 23.4029 9.80838C23.0612 9.9806 22.7112 10.1334 22.3723 10.3223C22.4029 10.5917 22.4334 10.8667 22.4695 11.1389C22.6223 10.9389 22.7612 10.6945 23.0251 10.6334C23.0362 10.7806 22.989 10.9556 23.0973 11.0723C23.2612 11.2 23.4834 11.1223 23.6418 11.0056C23.6306 10.7917 23.689 10.5834 23.7279 10.3778C23.7945 10.4084 23.8751 10.4195 23.9001 10.4945C23.9723 10.6945 23.9501 10.9112 23.9001 11.1056C23.8501 11.3306 23.6668 11.4973 23.4612 11.6C23.339 11.6612 23.1862 11.6973 23.0473 11.6417C22.9056 11.5862 22.8168 11.4528 22.7223 11.3306C22.6418 11.5334 22.5029 11.7167 22.4973 11.9473C22.4723 12.4306 22.2834 12.8889 21.9973 13.2723C21.4973 13.9306 20.7279 14.3223 19.9501 14.55C19.5029 14.6723 19.0334 14.7834 18.564 14.7639C18.3084 14.7584 18.0501 14.7028 17.8306 14.5639C17.7334 14.5028 17.6529 14.4167 17.5612 14.3612C17.4445 14.3417 17.3223 14.3723 17.1945 14.3723C16.9001 14.3834 16.6029 14.3917 16.314 14.3417C16.6667 14.225 17.0279 14.1334 17.3751 14.0056C17.2779 13.375 17.4056 12.7167 17.7279 12.1667C17.814 12.0195 17.9279 11.8917 18.0501 11.7806C17.9473 11.9834 17.8251 12.1778 17.7751 12.4028C17.6529 12.8778 17.6584 13.3806 17.8001 13.8389C18.039 13.7612 18.2779 13.6556 18.5084 13.5528C19.0445 13.3195 19.5695 13.0639 20.064 12.7362C20.2473 12.6084 20.4362 12.4723 20.5584 12.2778C20.6195 12.1806 20.6056 12.0695 20.6056 11.9612C20.3501 12.0112 20.1056 12.1306 19.8362 12.125C19.6723 12.1139 19.4945 12.0778 19.3779 11.9528C19.2612 11.825 19.2556 11.6362 19.2751 11.475C19.3112 11.2612 19.4029 11.0473 19.5751 10.9084C19.7695 10.7445 20.0584 10.75 20.2834 10.8528C20.5029 10.9556 20.6251 11.1695 20.7306 11.3667C21.0612 11.2445 21.2862 10.95 21.6112 10.8112C21.6223 10.9806 21.6056 11.1778 21.7334 11.3112C21.8112 11.4084 21.9417 11.4028 22.0445 11.4139C22.0279 11.1445 21.9834 10.8778 21.9473 10.6195C21.8362 9.73893 21.7223 8.85005 21.6251 7.96394C21.6223 7.84449 21.6084 7.70838 21.6695 7.60005ZM19.6501 11.4389C19.6195 11.5 19.6917 11.5417 19.7362 11.5612C19.914 11.6223 20.1084 11.5806 20.2917 11.55C20.1945 11.4473 20.0834 11.3362 19.9306 11.3306C19.8334 11.325 19.6917 11.3306 19.6501 11.4389ZM20.939 11.8056C20.9501 11.9834 20.9556 12.1667 20.8973 12.3362C20.8001 12.6223 20.5862 12.85 20.3612 13.0445C19.9279 13.3973 19.4223 13.6306 18.9334 13.8862C18.714 14.0139 18.4806 14.1167 18.2417 14.2167C18.5417 14.2362 18.8417 14.1862 19.139 14.1667C19.5917 14.1362 20.0306 14.0084 20.4473 13.8417C20.8862 13.6639 21.3084 13.4334 21.6501 13.0917C21.8584 12.8889 22.0223 12.6389 22.0945 12.3528C22.1306 12.2112 22.1306 12.0667 22.1362 11.9195C21.9584 11.9139 21.7695 11.9195 21.6112 11.8278C21.4834 11.7556 21.4112 11.6139 21.3362 11.4917C21.2112 11.6056 21.0723 11.7139 20.939 11.8056Z" fill="white"/>
<path d="M25.7355 7.5863C25.8022 7.51408 25.9188 7.52519 25.9966 7.57519C26.1689 7.6863 26.2661 7.89741 26.2577 8.09463C26.2522 8.19185 26.2105 8.27241 26.18 8.35852C26.155 8.23074 26.1633 8.09463 26.1022 7.97519C26.0161 7.85297 25.8466 7.82797 25.7411 7.73074C25.6994 7.69741 25.6827 7.62241 25.7355 7.5863Z" fill="white"/>
<path d="M28.1553 7.6529C28.1664 7.57512 28.2414 7.48901 28.3275 7.53623C28.5581 7.64735 28.7248 7.86123 28.8275 8.09179C28.747 8.09179 28.6636 8.08623 28.5886 8.08068C28.6303 8.23901 28.6692 8.39179 28.7359 8.53901C28.822 8.7529 28.9498 8.95568 28.9859 9.19179C29.0275 9.4529 28.9803 9.74179 28.797 9.94179C28.4553 10.3251 27.7664 10.2585 27.4775 9.84457C27.3664 9.69734 27.3053 9.5279 27.247 9.35568C27.1498 9.7279 26.9525 10.0835 26.6164 10.2779C26.2748 10.4862 25.822 10.4557 25.4942 10.2362C25.2942 10.1085 25.1581 9.88346 25.1581 9.64457C25.1331 9.29734 25.2692 8.97234 25.3164 8.63623C25.2359 8.72234 25.1581 8.81401 25.122 8.93068C24.9803 9.30846 24.922 9.71123 24.7192 10.0668C24.622 10.2362 24.4636 10.389 24.2664 10.4029C24.072 10.414 23.8581 10.3418 23.747 10.1723C23.6442 10.014 23.6248 9.82512 23.6248 9.63623C23.6303 9.35568 23.697 9.06957 23.8248 8.81957C23.8248 9.17234 23.7164 9.55846 23.897 9.88901C23.9831 10.0723 24.222 10.1807 24.4053 10.0779C24.5692 9.97512 24.6442 9.78623 24.7053 9.61401C24.8275 9.24179 24.9609 8.86401 25.1442 8.51957C25.222 8.3779 25.3025 8.23346 25.4359 8.13346C25.5025 8.0779 25.5942 8.0779 25.6748 8.06123C25.6914 8.3779 25.5164 8.6529 25.4553 8.9529C25.3942 9.21679 25.3775 9.5279 25.5664 9.74734C25.7803 9.9779 26.1331 10.0335 26.4275 9.95568C26.8359 9.8279 27.1303 9.41679 27.147 8.99179C27.1581 8.73623 27.172 8.46123 27.0359 8.23901C26.9748 8.12235 26.8636 8.00012 26.9136 7.8529C26.9442 7.70568 27.0525 7.59179 27.1748 7.5279C27.2609 7.66957 27.3386 7.81957 27.3581 7.98623C27.4053 8.37235 27.4081 8.77234 27.547 9.14179C27.6275 9.35568 27.7553 9.57512 27.9692 9.6779C28.1692 9.77512 28.4164 9.79457 28.6109 9.69457C28.7331 9.63346 28.7636 9.48068 28.7331 9.35846C28.6525 8.95568 28.372 8.63623 28.2442 8.24735C28.1664 8.05846 28.1136 7.85568 28.1553 7.6529Z" fill="white"/>
<path d="M32.1189 7.56911C32.2411 7.51356 32.4189 7.558 32.48 7.68578C32.505 7.74689 32.4633 7.80245 32.4133 7.83856C32.3272 7.82189 32.2494 7.77745 32.1744 7.74133C32.0717 7.93022 32.0217 8.14411 31.9606 8.358C31.9189 8.25522 31.8828 8.14967 31.8189 8.06356C31.7383 7.95245 31.605 7.89411 31.5133 7.79411C31.4828 7.70245 31.5911 7.60522 31.6772 7.63022C31.805 7.67189 31.8856 7.78856 31.9633 7.89411C31.9967 7.78022 32.0161 7.63578 32.1189 7.56911Z" fill="white"/>
<path d="M16.247 8.03884C16.3498 7.82495 16.5414 7.66662 16.7553 7.56384C16.7053 7.70551 16.6137 7.82495 16.5414 7.94995C16.4803 8.04162 16.4914 8.15273 16.4803 8.24995C16.6192 8.23884 16.7498 8.20829 16.8887 8.16384C16.847 8.27217 16.8081 8.38884 16.7053 8.45828C16.597 8.53606 16.4414 8.58051 16.3275 8.50551C16.1998 8.40551 16.1748 8.19717 16.247 8.03884Z" fill="white"/>
<path d="M23.794 7.75283C23.8301 7.56949 24.1051 7.57505 24.1968 7.71116C24.2579 7.81394 24.2829 7.91949 24.344 8.02227C24.394 8.12505 24.4607 8.2306 24.4245 8.34727C24.3746 8.5306 24.2357 8.67782 24.2162 8.87782C24.2829 8.84727 24.344 8.81671 24.4107 8.7806C24.394 8.88338 24.4107 9.01393 24.3023 9.07227C24.1745 9.13338 24.0107 9.01116 24.0273 8.86949C24.044 8.61393 24.2912 8.42227 24.2162 8.15005C23.9662 8.4806 23.6246 8.77782 23.2079 8.84171C23.3912 8.69449 23.594 8.59727 23.7634 8.42505C23.8718 8.32227 23.9412 8.19449 24.0134 8.07227C23.9246 7.98338 23.7718 7.90282 23.794 7.75283ZM23.9662 7.73894C24.0079 7.80005 24.0634 7.85005 24.119 7.88616C24.094 7.81116 24.0384 7.75838 23.9662 7.73894Z" fill="white"/>
<path d="M22.4829 7.8724C22.569 7.85295 22.6774 7.81684 22.7468 7.89184C22.9607 8.09184 23.0579 8.40017 22.9857 8.68073C22.9385 8.5724 22.9051 8.46128 22.8468 8.35851C22.769 8.17795 22.569 8.06406 22.4829 7.8724Z" fill="white"/>
<path d="M20.5832 7.98901C20.6693 8.08624 20.711 8.2029 20.6943 8.33068C20.5526 8.35013 20.4082 8.39179 20.2721 8.42791C20.1943 8.44735 20.1137 8.39179 20.0943 8.31679C20.0887 8.23068 20.1193 8.1529 20.136 8.07235C20.1665 8.15846 20.1971 8.24179 20.2221 8.33346C20.2582 8.31679 20.2998 8.3029 20.3332 8.28624C20.3332 8.20846 20.3332 8.1279 20.3332 8.05568C20.3637 8.05568 20.3943 8.05568 20.4137 8.05568C20.4248 8.12235 20.4387 8.19735 20.4498 8.26402C20.4971 8.25846 20.536 8.2529 20.5887 8.24735C20.5832 8.16124 20.5832 8.07513 20.5832 7.98901Z" fill="white"/>
<path d="M32.569 8.17802C32.6801 8.14191 32.8023 8.1308 32.9217 8.1308C32.8606 8.19746 32.7995 8.25858 32.7134 8.29469C32.3051 8.45858 31.8884 8.57524 31.4967 8.78358C31.5329 8.8558 31.569 8.92524 31.6051 8.99746C31.5079 8.9808 31.3967 8.9808 31.3301 8.90024C31.2634 8.83913 31.2579 8.72246 31.3356 8.66691C31.4023 8.61691 31.4745 8.58913 31.5495 8.5558C31.8856 8.42802 32.2217 8.28913 32.569 8.17802Z" fill="white"/>
<path d="M26.4028 8.46642C26.45 8.42476 26.5055 8.39976 26.55 8.3692C26.5444 8.52198 26.5972 8.65532 26.6611 8.79143C26.7278 8.92476 26.6722 9.11643 26.5139 9.15254C26.375 9.19976 26.2528 9.11087 26.1611 9.03587C26.0833 9.10254 26.0028 9.19421 25.8916 9.17754C25.6833 9.16643 25.5861 8.92198 25.6278 8.7442C25.6444 8.62754 25.7389 8.55531 25.8222 8.48031C25.8111 8.60254 25.7611 8.72476 25.7916 8.85254C25.8166 8.93865 25.9139 8.93865 25.9861 8.96365C26.0111 8.83032 26.0166 8.68865 26.0528 8.54698C26.0639 8.47476 26.1555 8.4692 26.2 8.43587C26.2111 8.55254 26.2055 8.6692 26.2416 8.78309C26.2722 8.86921 26.3694 8.89421 26.4416 8.93587C26.475 8.77198 26.4028 8.6192 26.4028 8.46642Z" fill="white"/>
<path d="M20.2777 8.68068C20.3638 8.68068 20.4722 8.66401 20.5416 8.73623C20.7416 8.93623 20.8416 9.24179 20.7666 9.51679C20.6944 9.33345 20.6388 9.13068 20.4805 8.98623C20.3888 8.90568 20.2916 8.80846 20.2777 8.68068Z" fill="white"/>
<path d="M32.4916 9.38901C32.5333 9.33901 32.5888 9.3029 32.6388 9.26678C32.6388 9.40845 32.6861 9.53623 32.7472 9.65845C32.8083 9.78067 32.8083 9.98067 32.6611 10.0362C32.5222 10.0973 32.3861 10.0251 32.2749 9.94456C32.1888 10.0112 32.0805 10.0973 31.9527 10.0612C31.7694 10.0196 31.6916 9.80567 31.7222 9.63901C31.7333 9.51678 31.8388 9.43623 31.9222 9.35845C31.9055 9.48623 31.8499 9.61956 31.8861 9.74456C31.9166 9.83067 32.0138 9.81123 32.0861 9.83067C32.1111 9.68345 32.0972 9.53623 32.1583 9.39734C32.2 9.36123 32.2555 9.34178 32.3055 9.31956C32.3111 9.44734 32.2888 9.58901 32.3527 9.70567C32.3944 9.77789 32.4805 9.78345 32.5527 9.80845C32.5472 9.66956 32.5083 9.5279 32.4916 9.38901Z" fill="white"/>
<path d="M37.3997 9.58867C37.3636 9.497 37.4359 9.41089 37.5275 9.41089C37.6747 9.41089 37.7886 9.53311 37.8581 9.64978C37.9803 9.88867 38.0414 10.1859 37.9386 10.4387C37.8886 10.2081 37.8914 9.91922 37.6775 9.76644C37.5859 9.71644 37.4747 9.68033 37.3997 9.58867Z" fill="white"/>
<path d="M29.247 10.0974C29.3137 10.0252 29.4193 10.0002 29.5109 10.0252C29.6276 10.1363 29.6082 10.3418 29.5109 10.4585C29.3387 10.6835 29.0582 10.7891 28.7776 10.7891C28.9498 10.6863 29.1443 10.6307 29.2971 10.5029C29.3693 10.4529 29.3582 10.3557 29.3693 10.2779C29.2887 10.2891 29.2054 10.3085 29.1304 10.3196C29.1637 10.2418 29.1943 10.1641 29.247 10.0974Z" fill="white"/>
<path d="M33.2164 10.2722C33.2664 10.2611 33.3386 10.225 33.3748 10.2833C33.3331 10.4167 33.1914 10.4722 33.0803 10.5278C32.6581 10.7278 32.2442 10.9445 31.822 11.1556C31.8053 11.1139 31.7803 11.0833 31.7609 11.0445C31.9942 10.8722 32.2553 10.7445 32.5109 10.6C32.747 10.4861 32.9692 10.3528 33.2164 10.2722Z" fill="white"/>
<path d="M25.2138 10.6031C25.2249 10.517 25.286 10.4559 25.3305 10.3948C25.6555 10.7476 25.9305 11.1587 26.0805 11.6226C26.2221 12.067 26.2582 12.5309 26.3443 12.9892C26.3916 13.2198 26.4305 13.4642 26.5832 13.6475C26.686 13.7753 26.8332 13.8559 26.9693 13.9337C26.9999 13.7864 27.036 13.6337 27.1693 13.5475C27.5832 13.2725 28.061 13.1031 28.536 12.9503C28.1527 12.9392 27.761 12.9503 27.3805 12.9448C27.0693 12.9392 26.7527 12.9642 26.4471 12.9087C26.4582 12.792 26.4582 12.6698 26.5277 12.5614C26.6693 12.3281 26.9138 12.1892 27.1555 12.067C27.5166 11.8837 27.8777 11.7198 28.2721 11.6142C28.1694 11.5059 28.0166 11.3892 28.0582 11.217C28.1305 11.0142 28.3082 10.8142 28.5332 10.8198C28.7832 10.8198 29.0221 10.9226 29.236 11.0448C29.3638 11.1309 29.5277 11.217 29.5721 11.3753C29.5666 11.4864 29.5055 11.5892 29.4443 11.6753C29.3055 11.8448 29.0666 11.8337 28.8638 11.8531C28.8527 11.9864 28.8332 12.1476 28.6999 12.2142C28.6582 12.1059 28.6193 12.0059 28.5721 11.8976C28.0832 11.9892 27.6444 12.2392 27.2638 12.5448C28.3499 12.5503 29.4305 12.5253 30.5138 12.5281C30.586 12.5337 30.6555 12.5392 30.7277 12.5476C30.6805 12.8337 30.3916 12.9753 30.136 13.0364C29.6221 13.1475 29.1055 13.2503 28.5971 13.3531C28.2138 13.4309 27.8221 13.5225 27.4749 13.6948C27.3471 13.7559 27.2416 13.8642 27.1499 13.9809C27.4055 14.0781 27.6694 14.1337 27.936 14.1837C28.0221 14.2031 28.1499 14.2253 28.1693 14.3309C28.2055 14.4725 28.211 14.667 28.0721 14.7587C27.8999 14.8003 27.7249 14.7587 27.5527 14.7281C27.0777 14.6559 26.6249 14.4059 26.3555 14.0059C26.1471 13.7142 26.0916 13.3475 26.0332 13.0031C25.8943 13.192 25.7582 13.3864 25.586 13.542C25.1277 13.9753 24.5721 14.292 23.9916 14.542C23.7916 14.6337 23.5388 14.6587 23.3332 14.5364C23.1916 14.4503 23.1388 14.2753 23.0777 14.1337C22.5416 14.4087 21.9916 14.6725 21.3971 14.7864C21.0305 14.8531 20.6582 14.9031 20.286 14.8975C20.4805 14.8003 20.6832 14.7281 20.8777 14.6531C21.5249 14.3837 22.161 14.0837 22.7888 13.7559C22.8666 13.7087 22.961 13.6698 23.0138 13.5975C23.0749 13.4337 23.0805 13.2614 23.1666 13.1031C23.2527 12.9142 23.4166 12.767 23.5832 12.6559C23.4721 12.9003 23.3527 13.1559 23.3193 13.4253C23.6971 13.1948 24.0582 12.9364 24.3749 12.6198C24.4555 12.5281 24.5749 12.417 24.5277 12.2837C24.4666 12.0948 24.3693 11.9226 24.2971 11.7392C24.1888 11.4698 24.0638 11.1892 24.0888 10.892C24.0943 10.7948 24.1666 10.7226 24.211 10.6531C24.4721 10.8226 24.6332 11.0976 24.7805 11.3614C24.7305 11.3726 24.6693 11.3809 24.6166 11.3976C24.7193 11.6726 24.8805 11.917 24.9277 12.2142C24.9638 12.4392 24.911 12.6892 24.7499 12.8559C24.3471 13.2892 23.8527 13.6142 23.3832 13.967C23.4638 14.0142 23.5555 14.0753 23.6527 14.0698C23.8471 14.0642 24.036 13.9975 24.2138 13.9225C24.861 13.6364 25.3971 13.1587 25.9416 12.7142C25.8027 12.1837 25.5638 11.6892 25.311 11.2114C25.2499 11.0198 25.1888 10.8114 25.2138 10.6031ZM28.3499 11.2948C28.4166 11.3864 28.5027 11.4587 28.611 11.4976C28.7694 11.5337 28.9221 11.4364 29.0444 11.3337C28.8971 11.2226 28.7221 11.1309 28.536 11.1309C28.4471 11.1337 28.3499 11.2087 28.3499 11.2948Z" fill="white"/>
<path d="M17.0968 10.6029C17.1024 10.5362 17.1579 10.4612 17.2357 10.4696C17.4357 10.4501 17.5774 10.6112 17.6996 10.739C17.7662 10.8057 17.8162 10.8973 17.7774 10.9946C17.7524 11.1029 17.6301 11.0973 17.5468 11.1168C17.369 11.1279 17.2968 11.3196 17.1635 11.4029C16.894 11.5862 16.5579 11.7334 16.2218 11.689C16.3024 11.5723 16.4412 11.5196 16.569 11.4807C16.8079 11.4029 17.0079 11.2251 17.1801 11.0473C17.1329 10.8973 17.0718 10.7557 17.0968 10.6029ZM17.2107 10.6223C17.2218 10.7196 17.2468 10.8223 17.2968 10.9029C17.3329 10.8251 17.369 10.739 17.3996 10.664C17.3357 10.6473 17.2718 10.6335 17.2107 10.6223ZM17.4746 10.989C17.5412 10.9834 17.6024 10.9723 17.669 10.9696C17.6579 10.8834 17.6385 10.8001 17.6024 10.7251C17.519 10.7807 17.5107 10.8918 17.4746 10.989Z" fill="white"/>
<path d="M27.1164 10.6471C27.1525 10.5999 27.2136 10.5749 27.2581 10.5444C27.2581 10.7444 27.3997 10.8916 27.4164 11.0833C27.4331 11.2833 27.1831 11.3777 27.0303 11.2916C26.9831 11.2555 26.9442 11.2194 26.9025 11.1833C26.8219 11.2555 26.7303 11.361 26.6081 11.336C26.4192 11.2999 26.3164 11.0805 26.3525 10.9027C26.3692 10.7805 26.4692 10.6999 26.5608 10.6277C26.5442 10.7444 26.4997 10.8583 26.5136 10.9805C26.5247 11.0721 26.6247 11.0971 26.6969 11.1388C26.7442 11.0055 26.7581 10.8583 26.7775 10.711C26.7886 10.6333 26.8858 10.6194 26.9358 10.5833C26.9414 10.6999 26.9358 10.8221 26.9719 10.936C27.0081 11.0138 27.0886 11.0527 27.1553 11.0999C27.2219 10.9499 27.1219 10.7971 27.1164 10.6471Z" fill="white"/>
<path d="M17.7 11.3666C17.8028 11.3193 17.9084 11.2638 18.0223 11.2554C18.1306 11.2499 18.1806 11.4138 18.1 11.4804C17.9778 11.5777 17.8306 11.6138 17.6862 11.6804C17.3556 11.8388 17.025 11.9916 16.7028 12.1638C16.6306 12.211 16.5445 12.1999 16.4695 12.1832C16.5167 12.086 16.5806 11.9999 16.6778 11.9443C17.0056 11.7277 17.3528 11.5388 17.7 11.3666Z" fill="white"/>
<path d="M30.1077 11.5389C30.1327 11.4278 30.2605 11.4111 30.3577 11.375C30.3827 11.5389 30.3994 11.7056 30.4994 11.8389C30.4494 11.8444 30.3911 11.85 30.3466 11.8556C30.2744 11.9639 30.1994 12.0806 30.0827 12.1361C29.8883 12.2333 29.6688 12.2333 29.455 12.2222C29.68 12.1611 29.955 12.1444 30.1022 11.9417C30.2022 11.825 30.0966 11.6722 30.1077 11.5389Z" fill="white"/>
<path d="M34.5661 11.7026C34.5966 11.6109 34.7049 11.6109 34.7799 11.6248C34.9438 11.6554 35.0661 11.7942 35.1661 11.9109C35.2438 11.9831 35.2688 12.1137 35.1966 12.2026C35.0883 12.2887 34.9216 12.2387 34.8244 12.3498C34.5383 12.6748 34.1049 12.8859 33.6688 12.8387C33.7494 12.722 33.8883 12.6692 34.0216 12.6303C34.2605 12.5526 34.4549 12.3692 34.6272 12.197C34.5799 12.0387 34.5077 11.872 34.5661 11.7026ZM34.6772 11.7692C34.6883 11.872 34.7133 11.972 34.7494 12.0637C34.7911 11.9859 34.8299 11.9054 34.8577 11.8248C34.7938 11.8054 34.7272 11.7831 34.6772 11.7692ZM35.0188 11.8915C34.9827 11.9692 34.9577 12.0553 34.9383 12.1359C35.0049 12.1303 35.0661 12.1192 35.1327 12.1165C35.1161 12.0387 35.1022 11.9581 35.0661 11.8859C35.0549 11.8859 35.03 11.8915 35.0188 11.8915Z" fill="white"/>
<path d="M23.3996 11.875C23.5107 11.7666 23.7107 11.825 23.7829 11.9528C23.819 12.025 23.7413 12.0805 23.7107 12.1361C23.6496 12.1 23.594 12.0583 23.5274 12.0389C23.4663 12.0222 23.4496 12.0889 23.4302 12.1305C23.3579 12.3 23.3218 12.4778 23.2718 12.65C23.2302 12.5416 23.1996 12.4361 23.1329 12.3389C23.0607 12.2361 22.944 12.1805 22.8579 12.1C22.7774 12.0333 22.8635 11.8861 22.9607 11.9C23.0996 11.9166 23.1802 12.0416 23.2718 12.1305C23.3079 12.05 23.3357 11.9472 23.3996 11.875Z" fill="white"/>
<path d="M16.3079 12.8558C16.419 12.6669 16.5995 12.5197 16.7967 12.4225C16.7467 12.5642 16.6579 12.6864 16.5829 12.8086C16.5218 12.9003 16.5218 13.0086 16.5162 13.103C16.6551 13.0975 16.7856 13.0725 16.9245 13.0475C16.8884 13.1558 16.8467 13.2725 16.7467 13.3336C16.6356 13.4058 16.4773 13.4614 16.3606 13.3697C16.2273 13.228 16.2162 13.0086 16.3079 12.8558Z" fill="white"/>
<path d="M25.7244 13.7167C25.8272 13.7001 25.9439 13.6556 26.03 13.7278C26.1161 13.7834 26.1467 13.9306 26.0661 14.0084C25.9439 14.0751 25.78 14.0389 25.68 14.1306C25.6967 14.2778 25.8078 14.3945 25.8328 14.5334C25.8383 14.6251 25.7661 14.6973 25.7244 14.7667C25.6939 14.6251 25.6744 14.4751 25.5967 14.3501C25.5494 14.2584 25.48 14.1723 25.4994 14.0639C25.5244 13.9473 25.6467 13.8917 25.7328 13.8334C25.73 13.8084 25.7244 13.7612 25.7244 13.7167Z" fill="white"/>
<path d="M30.2494 13.8891C30.2967 13.7724 30.4078 13.7169 30.5106 13.6558C30.4689 13.753 30.3994 13.8447 30.3883 13.9502C30.4356 14.0363 30.5106 14.0974 30.5522 14.1835C30.5633 14.3308 30.3522 14.353 30.2772 14.2613C30.1883 14.1641 30.1994 14.0058 30.2494 13.8891Z" fill="white"/>
<path d="M29.1579 13.7249C29.3218 13.6694 29.4996 13.7249 29.6468 13.8111C29.5385 14.0305 29.294 14.086 29.1107 14.2194C29.1162 14.2388 29.1218 14.2861 29.1218 14.3111C29.2496 14.3166 29.3857 14.3305 29.4996 14.2638C29.6468 14.1861 29.7996 14.111 29.9635 14.0805C29.8357 14.1916 29.7079 14.3055 29.5801 14.411C29.4274 14.5333 29.2135 14.5333 29.0301 14.4833C28.944 14.4527 28.8301 14.3749 28.8579 14.2638C28.9051 14.1222 29.0468 14.0499 29.1579 13.9694C29.0774 13.9638 28.9996 13.9583 28.919 13.9527C28.9857 13.8638 29.0468 13.7527 29.1579 13.7249Z" fill="white"/>
<path d="M33.4385 14.1276C33.3774 14.061 33.433 13.9499 33.5163 13.9387C33.6746 13.9082 33.8107 14.0415 33.883 14.1693C33.9913 14.3471 33.9857 14.5721 33.8941 14.761C33.8635 14.6332 33.8635 14.4971 33.7968 14.3776C33.708 14.2554 33.5468 14.236 33.4385 14.1276Z" fill="white"/>
<path d="M36.1106 14.2108C36.33 14.133 36.5495 14.033 36.7828 14.0524C36.7328 14.1386 36.6661 14.2163 36.5634 14.2524C36.1967 14.3858 35.8245 14.5136 35.4689 14.6608C35.3578 14.7108 35.2384 14.7525 35.1161 14.7775C35.105 14.7413 35.0856 14.7108 35.0745 14.6747C35.4022 14.4858 35.7578 14.3524 36.1106 14.2108Z" fill="white"/>
<path d="M35.3967 21.4195H33.5773V21.2473C33.6578 21.1751 33.7717 21.0778 33.7717 21.0223C33.7717 20.9251 33.5412 20.7278 33.4912 20.7278C33.4301 20.7278 33.2106 20.9306 33.2106 21.0223C33.2106 21.0834 33.3134 21.1695 33.3939 21.2417L33.3995 21.2473V21.4251H19.0662C19.5745 21.9306 20.3356 21.9251 21.8523 21.939C23.2078 21.9584 23.2023 21.9584 33.3995 21.939V22.1223C33.3189 22.1945 33.2162 22.2917 33.2162 22.3473C33.2162 22.4445 33.4356 22.6417 33.4967 22.6417C33.5384 22.6417 33.6745 22.5306 33.7412 22.4334H34.3689C34.4106 22.5056 34.5023 22.5445 34.6134 22.5445C34.7245 22.5445 34.8162 22.4973 34.8578 22.4334H35.6106C35.7023 22.5417 35.8356 22.5445 35.9106 22.5445C36.1967 22.5334 36.2634 22.3862 36.2634 21.8834C36.2523 21.4556 35.9662 21.4112 35.3967 21.4195ZM35.5273 22.2778H34.8606C34.8189 22.2056 34.7273 22.1612 34.6162 22.1612C34.5051 22.1612 34.4134 22.2084 34.3717 22.2778H33.7551C33.7189 22.2278 33.6467 22.1612 33.5912 22.1195V21.9362H35.5078H35.5384C35.4967 22.0723 35.4939 22.1862 35.5273 22.2778Z" fill="white"/>
</g>
<defs>
<clipPath id="clip0_93_10372">
<rect width="53.3333" height="30" fill="white" transform="translate(0.994141)"/>
</clipPath>
</defs>
</svg>
