<svg width="55" height="30" viewBox="0 0 55 30" fill="none" xmlns="http://www.w3.org/2000/svg">
<g clip-path="url(#clip0_93_12005)">
<path d="M54.4759 -2.88078H0.836975V32.8776H54.4759V-2.88078Z" fill="#00853F"/>
<path d="M54.4753 -2.88078H18.7169V32.8776H54.4753V-2.88078Z" fill="#FDEF42"/>
<path d="M54.4758 -2.88078H36.5953V32.8776H54.4758V-2.88078Z" fill="#E31B23"/>
<path d="M27.6558 9.03891L25.8141 14.7056L28.6502 15.6306L27.6558 9.03891Z" fill="#00853F"/>
<path d="M27.6563 9.03891L29.498 14.7056L26.6619 15.6306L27.6563 9.03891Z" fill="#00853F"/>
<path d="M33.3226 13.1584H27.3643V16.139L33.3226 13.1584Z" fill="#00853F"/>
<path d="M33.3222 13.1584L28.5028 16.664L26.75 14.2501L33.3222 13.1584Z" fill="#00853F"/>
<path d="M31.1621 19.8224L29.3204 14.1557L26.4843 15.0807L31.1621 19.8224Z" fill="#00853F"/>
<path d="M31.1612 19.8221L26.339 16.3165L28.0917 13.9026L31.1612 19.8221Z" fill="#00853F"/>
<path d="M24.1498 19.8221L28.972 16.3165L27.2193 13.9026L24.1498 19.8221Z" fill="#00853F"/>
<path d="M24.1498 19.8224L25.9915 14.1557L28.8276 15.0807L24.1498 19.8224Z" fill="#00853F"/>
<path d="M21.9893 13.1584L26.8115 16.664L28.5643 14.2501L21.9893 13.1584Z" fill="#00853F"/>
<path d="M21.9893 13.1584H27.9504V16.139L21.9893 13.1584Z" fill="#00853F"/>
</g>
<defs>
<clipPath id="clip0_93_12005">
<rect width="53.3333" height="30" fill="white" transform="translate(0.989258)"/>
</clipPath>
</defs>
</svg>
