<svg width="54" height="30" viewBox="0 0 54 30" fill="none" xmlns="http://www.w3.org/2000/svg">
<g clip-path="url(#clip0_93_10406)">
<path d="M53.6595 0H0.326172V30H53.6595V0Z" fill="#ED2939"/>
<path d="M53.6595 15H0.326172V30H53.6595V15Z" fill="white"/>
<path d="M15.7591 7.49988C15.7591 10.6165 13.2341 13.1416 10.1174 13.1416C7.00074 13.1416 4.47852 10.6165 4.47852 7.49988C4.47852 4.38322 7.00352 1.85822 10.1202 1.85822C13.2368 1.85822 15.7591 4.38322 15.7591 7.49988Z" fill="white"/>
<path d="M17.5321 7.49993C17.5321 10.4444 15.146 12.8305 12.2016 12.8305C9.25711 12.8305 6.87378 10.4444 6.87378 7.49993C6.87378 4.55548 9.25989 2.16937 12.2016 2.16937C15.1432 2.16937 17.5321 4.55548 17.5321 7.49993Z" fill="#ED2939"/>
<path d="M10.8184 7.63629L10.0517 7.05018L9.28506 7.63907L9.5795 6.69184L8.81006 6.10573L9.76006 6.10851L10.0517 5.15851L10.3434 6.10851L11.2934 6.10573L10.5239 6.68907L10.8184 7.63629Z" fill="white"/>
<path d="M16.8317 7.63629L16.065 7.05018L15.2984 7.63629L15.5928 6.68907L14.8234 6.10573L15.7734 6.10851L16.065 5.15851L16.3567 6.10851L17.3067 6.10573L16.5372 6.68907L16.8317 7.63629Z" fill="white"/>
<path d="M13.8262 5.40566L13.0595 4.81955L12.2929 5.40844L12.5873 4.46122L11.8179 3.87789L12.7679 3.88066L13.0595 2.93066L13.3512 3.88066L14.3012 3.87789L13.5318 4.46122L13.8262 5.40566Z" fill="white"/>
<path d="M11.9434 11.2052L11.1767 10.6163L10.4101 11.208L10.7045 10.2608L9.93506 9.67745L10.8851 9.68022L11.1767 8.73022L11.4684 9.68022L12.4184 9.67745L11.6489 10.2608L11.9434 11.2052Z" fill="white"/>
<path d="M15.7066 11.2056L14.9399 10.6167L14.1732 11.2056L14.4677 10.2584L13.6982 9.67507L14.6482 9.67784L14.9399 8.72784L15.2316 9.67784L16.1816 9.67507L15.4121 10.2584L15.7066 11.2056Z" fill="white"/>
</g>
<defs>
<clipPath id="clip0_93_10406">
<rect width="53.3333" height="30" fill="white" transform="translate(0.326172)"/>
</clipPath>
</defs>
</svg>
