<svg width="55" height="30" viewBox="0 0 55 30" fill="none" xmlns="http://www.w3.org/2000/svg">
<g clip-path="url(#clip0_93_53831)">
<path d="M0.990234 0H54.3236V30H0.990234V0Z" fill="#012A87"/>
<path d="M0.990234 0H54.3236V15H0.990234V0Z" fill="#DC171D"/>
<path d="M0.990234 0V30L20.9902 15L0.990234 0Z" fill="white"/>
<path d="M11.0896 11.3197L11.0952 11.0863C11.0952 11.0863 10.9674 10.8863 11.1146 10.6724C11.1146 10.6724 10.809 10.5113 10.8813 10.253C10.8813 10.253 10.6007 10.1808 10.6202 9.87243C10.6202 9.87243 10.3202 9.85299 10.2868 9.60021C10.2868 9.60021 9.98682 9.64743 9.85349 9.40021C9.85349 9.40021 9.55904 9.46132 9.48126 9.25299C9.48126 9.25299 9.19515 9.35299 9.02849 9.1141C9.02849 9.1141 8.72849 9.23355 8.60071 9.00854C8.47293 9.23632 8.17293 9.1141 8.17293 9.1141C8.00626 9.35299 7.72015 9.25299 7.72015 9.25299C7.6396 9.45855 7.34793 9.40021 7.34793 9.40021C7.2146 9.64743 6.9146 9.60021 6.9146 9.60021C6.88682 9.85299 6.58682 9.87243 6.58682 9.87243C6.6146 10.178 6.33404 10.2447 6.33404 10.2447C6.40626 10.4974 6.10071 10.6641 6.10071 10.6641C6.24793 10.878 6.12849 11.078 6.12849 11.078L6.12293 11.2919L11.0896 11.3197Z" fill="#FFFF00"/>
<path d="M11.0896 11.3197L11.0952 11.0863C11.0952 11.0863 10.9674 10.8863 11.1146 10.6724C11.1146 10.6724 10.809 10.5113 10.8813 10.253C10.8813 10.253 10.6007 10.1808 10.6202 9.87243C10.6202 9.87243 10.3202 9.85299 10.2868 9.60021C10.2868 9.60021 9.98682 9.64743 9.85349 9.40021C9.85349 9.40021 9.55904 9.46132 9.48126 9.25299C9.48126 9.25299 9.19515 9.35299 9.02849 9.1141C9.02849 9.1141 8.72849 9.23355 8.60071 9.00854C8.47293 9.23632 8.17293 9.1141 8.17293 9.1141C8.00626 9.35299 7.72015 9.25299 7.72015 9.25299C7.6396 9.45855 7.34793 9.40021 7.34793 9.40021C7.2146 9.64743 6.9146 9.60021 6.9146 9.60021C6.88682 9.85299 6.58682 9.87243 6.58682 9.87243C6.6146 10.178 6.33404 10.2447 6.33404 10.2447C6.40626 10.4974 6.10071 10.6641 6.10071 10.6641C6.24793 10.878 6.12849 11.078 6.12849 11.078L6.12293 11.2919L11.0896 11.3197Z" fill="#F9D90F"/>
<path d="M11.09 11.3334H11.0844L6.11774 11.3139L6.1233 11.0862C6.1233 11.0862 6.24274 10.8917 6.09552 10.6862L6.08997 10.6806L6.09552 10.6751C6.09552 10.6751 6.39552 10.5139 6.3233 10.2695V10.2639H6.32885C6.34274 10.2639 6.59552 10.1917 6.57608 9.89728V9.89172H6.58163C6.58163 9.89172 6.87608 9.86395 6.90108 9.62506V9.6195H6.90663C6.90663 9.6195 7.20108 9.66672 7.32608 9.42506V9.4195H7.33163C7.33163 9.4195 7.61774 9.47228 7.69274 9.28061V9.27506H7.6983C7.6983 9.27506 7.97885 9.3695 8.13719 9.13617L8.14274 9.13061H8.1483C8.1483 9.13061 8.44274 9.2445 8.56219 9.03061L8.56774 9.01672L8.5733 9.03061C8.69274 9.25006 8.98719 9.13617 8.98719 9.13061H8.99274L8.9983 9.13617C9.15941 9.3695 9.43719 9.27506 9.43719 9.27506H9.44274V9.28061C9.5233 9.47506 9.80386 9.4195 9.80941 9.4195H9.81497V9.42506C9.94274 9.66395 10.2344 9.6195 10.2344 9.6195H10.24V9.62506C10.2677 9.87228 10.5594 9.89172 10.5594 9.89172H10.565V9.89728C10.5455 10.1917 10.8039 10.2639 10.8177 10.2639H10.8233V10.2695C10.7566 10.5167 11.0511 10.6751 11.0566 10.6751L11.0622 10.6806L11.0566 10.6862C10.9177 10.8917 11.0372 11.0862 11.0372 11.0862L11.0316 11.3195H11.0261L11.09 11.3334ZM6.13719 11.2862L11.0844 11.3056L11.09 11.0862C11.0761 11.0584 10.9761 10.8723 11.1039 10.6723C11.0566 10.6445 10.8094 10.4862 10.8705 10.2584C10.8233 10.2445 10.6039 10.1584 10.6177 9.88617C10.565 9.88061 10.3233 9.83895 10.29 9.61395C10.2372 9.6195 9.98441 9.63339 9.86219 9.41395C9.81497 9.4195 9.56774 9.44728 9.48997 9.26672C9.44274 9.28061 9.19552 9.33895 9.03719 9.12783C8.98997 9.14172 8.73719 9.22228 8.61774 9.02783C8.4983 9.22228 8.24552 9.14172 8.1983 9.12783C8.04552 9.34172 7.7983 9.28061 7.74552 9.26672C7.66497 9.45283 7.41774 9.4195 7.3733 9.41395C7.25385 9.63339 7.00108 9.6195 6.94552 9.61395C6.91219 9.84172 6.66497 9.88061 6.61774 9.88617C6.63163 10.1584 6.41219 10.2473 6.36497 10.2584C6.42608 10.4862 6.18441 10.6445 6.13163 10.6723C6.26497 10.8723 6.16497 11.0584 6.15108 11.0862L6.13719 11.2862Z" fill="black"/>
<path d="M10.9757 11.0333C10.1952 10.9527 9.29515 10.7721 8.60348 11.161C8.13682 10.8888 7.4896 10.8999 6.94237 10.9555C6.64237 11.0083 6.2896 11.0083 5.97571 11.061L5.92293 11.0666C5.35626 11.1055 4.84237 10.9388 4.35071 10.7138C4.50349 11.5999 4.68404 12.5138 4.7646 13.4416C4.95071 14.8221 4.11182 15.9749 4.45904 17.336C4.6646 17.9888 5.38682 18.3694 6.0396 18.4416C6.67849 18.4805 7.33404 18.5805 7.92571 18.7083C8.0396 18.736 8.17293 18.7805 8.24515 18.8138C8.40626 18.8805 8.52571 18.9805 8.63126 19.086C8.98404 18.7138 9.51182 18.6138 10.0257 18.5582C10.9535 18.4527 12.0924 18.511 12.6646 17.6721V17.6249C12.9701 17.1583 12.9313 16.4527 12.7979 15.9249C12.7924 15.7388 12.7368 15.5777 12.7118 15.4055C12.1452 13.911 12.6313 12.2249 12.8729 10.7194C12.5729 10.8805 12.2452 10.9583 11.9118 11.0388C11.6452 11.0721 11.3507 11.0583 11.084 11.0444L10.9757 11.0333Z" fill="#DC171D"/>
<path d="M12.1434 15.3194C12.1378 15.4194 12.1906 15.4916 12.2101 15.586C12.3156 16.2388 12.4239 17.1055 11.7489 17.5138C11.0017 17.986 10.0295 17.786 9.16839 18.0333C8.99617 18.0805 8.76283 18.2388 8.63505 18.3527C8.5545 18.2999 8.48228 18.2249 8.38228 18.1805C7.67672 17.7999 6.74894 17.9277 5.94894 17.7277C5.54894 17.5999 5.1295 17.2888 5.0295 16.8749C4.76839 15.7944 5.39617 14.8749 5.32394 13.8083C5.27672 12.9888 5.13783 12.2083 4.95172 11.4416C5.5795 11.736 6.29894 11.7805 7.0045 11.6416C7.52394 11.5694 8.13228 11.5694 8.61839 11.7888C8.88505 11.6749 9.2045 11.6221 9.49061 11.5888C10.0434 11.6416 10.6378 11.7416 11.2045 11.736C11.5851 11.7166 11.9323 11.6083 12.2573 11.4638C12.0573 12.7194 11.6767 14.0471 12.1434 15.3194Z" fill="#62AFE1"/>
<path d="M11.0184 15.5722L11.0129 14.3778H11.1601L9.34065 13.2056L9.33509 12.5917H9.50731L8.59342 11.9389L7.68509 12.5945H7.85731L7.86287 13.2083L6.05731 14.3806H6.20453L6.21009 15.575L11.0184 15.5722Z" fill="white"/>
<path d="M11.0376 15.614H11.0181L6.1709 15.6084L6.16534 14.414H5.92645L7.82645 13.1806V12.6279H7.56534L8.59312 11.889L9.62645 12.6279H9.36534V13.1806L11.2792 14.414H11.0403L11.0459 15.5751L11.0376 15.614ZM6.25145 15.5334H10.9792L10.9737 14.339H11.0265L9.2959 13.2279L9.29034 12.5556H9.38478L8.59867 11.989L7.81256 12.5556H7.90701L7.91256 13.2279L6.19312 14.3418H6.2459L6.25145 15.5334Z" fill="black"/>
<path d="M11.5763 17.1391V17.5113L5.70959 17.5058V17.1335L11.5763 17.1391Z" fill="white"/>
<path d="M11.6184 17.5529L5.67114 17.5474V17.1001H5.71003L11.5378 17.1057V17.0918L11.5906 17.1057L11.585 17.1446H11.6184V17.5529ZM5.7517 17.4668L11.5378 17.4724V17.1779L5.74336 17.1724L5.7517 17.4668Z" fill="black"/>
<path d="M6.09579 17.1194L6.09023 15.8583H6.32912L6.31523 17.1305L6.32912 15.8638L5.99023 15.861V15.5888L11.2375 15.5944V15.861H10.9097L10.9152 17.1416L10.9013 15.861H11.1402L11.1458 17.1221" fill="white"/>
<path d="M10.8767 17.139L10.8628 15.8195H11.1906V15.6251L6.02394 15.6195V15.814H6.05172H6.36561V15.8279L6.36005 17.1334H6.2795L6.29339 15.9057L6.13228 15.9001L6.13783 17.1195H6.05728V15.9001H5.95172V15.5529L11.2712 15.5584V15.9057H11.1906L11.1962 17.1334H11.1156L11.1101 15.9057H10.9489L10.9545 17.1445L10.8767 17.139ZM10.7045 16.8473H9.92394L9.91839 15.8862H10.6989L10.7045 16.8473ZM10.0045 16.7723H10.6295L10.6239 15.9723H9.99617L10.0045 16.7723ZM7.22394 16.8473H6.48505L6.4795 15.8862H7.26005L7.26561 16.8057H7.22672V16.8473H7.22394ZM6.56283 16.7668H7.19061L7.18505 15.9668H6.55728L6.56283 16.7668ZM10.5184 16.6612H10.1184L10.1128 16.114H10.1517V16.0751H10.5128L10.5184 16.6612ZM10.1906 16.5862H10.4378V16.1529H10.1906V16.5862ZM7.07117 16.6612H6.67117V16.0751H7.07117V16.6612ZM6.75172 16.5807H6.99894V16.1473H6.75172V16.5807ZM7.18505 15.439V15.4112H6.4795L6.47394 14.4584H7.2545L7.26005 15.3973L7.18505 15.439ZM6.55728 15.3334H7.18505L7.1795 14.5334H6.55172L6.55728 15.3334ZM10.6628 15.414H9.91561V14.4529H10.6962L10.7017 15.3723H10.6628V15.414ZM9.99617 15.339H10.6239L10.6184 14.539H9.99061L9.99617 15.339ZM9.47672 15.414H8.73783L8.73228 14.4529H9.51283L9.51839 15.3723H9.4795V15.414H9.47672ZM8.81005 15.3334H9.43783L9.43228 14.5334H8.8045L8.81005 15.3334ZM8.5295 15.414H7.74894V14.4529H8.5295V15.414ZM7.8295 15.3334H8.45728V14.5334H7.8295V15.3334ZM10.5101 15.2334H10.1101V14.6862H10.1489V14.6473H10.5101V15.2334ZM10.1851 15.1529H10.4323V14.7195H10.1851V15.1529ZM9.32394 15.2334H8.92394V14.6862H8.96283V14.6473H9.32394V15.2334ZM9.0045 15.1529H9.25172V14.7195H9.0045V15.1529ZM8.34339 15.2334H7.94339V14.6862H7.98228V14.6473H8.34339V15.2334ZM8.01839 15.1529H8.26561V14.7195H8.01839V15.1529ZM7.07117 15.2279H6.67117V14.6807H6.71005V14.639H7.07117V15.2279ZM6.74339 15.1473H6.99061V14.714H6.74339V15.1473Z" fill="black"/>
<path d="M9.65077 15.1055L9.65632 17.1333H7.61743L7.61188 15.1055H9.65077Z" fill="white"/>
<path d="M9.69617 17.1724L7.58228 17.1668L7.57672 15.0668H9.69061V15.1057L9.69617 17.1724ZM9.45172 17.0946H9.61839L9.61283 15.7279H9.44061L9.45172 17.0946ZM7.89617 17.0946H9.36839L9.36283 15.7279H7.89061L7.89617 17.0946ZM7.65728 17.0946H7.81839L7.81283 15.7279H7.65728V17.0946ZM7.65728 15.6474H9.61839V15.1474H7.65728V15.6474ZM10.3962 14.2807H6.70172L7.94894 13.3668H9.26283L10.4239 14.2141L10.4045 14.2474L10.3962 14.2807ZM6.93783 14.2002H10.2712L9.23228 13.4391H7.96283L6.93783 14.2002ZM9.18506 13.2613H8.02394V12.6752H9.18506V13.2613ZM8.09617 13.1807H9.10172V12.7474H8.09617V13.1807Z" fill="black"/>
<path d="M9.18529 13.2613H8.02417V12.6752H9.18529V13.2613ZM8.09639 13.1807H9.10195V12.7474H8.09639V13.1807Z" fill="black"/>
<path d="M8.88987 13.1334H8.31764V12.8001H8.88987V13.1334ZM8.38987 13.0529H8.80931V12.8807H8.38987V13.0529ZM9.3232 12.5945H7.87598L8.57598 12.1001L8.59542 12.1334L8.61487 12.1001L9.3232 12.5945ZM8.1232 12.514H9.07598L8.59542 12.1751L8.1232 12.514Z" fill="black"/>
<path d="M11.0378 11.839C11.21 11.8334 11.2517 12.5445 11.2517 12.9001C11.3989 12.939 11.7239 13.1473 11.8711 13.3334H10.2183C10.3572 13.1529 10.685 12.9473 10.8322 12.9001C10.8239 12.5473 10.8628 11.8334 11.0378 11.839Z" fill="white"/>
<path d="M8.55143 15.5529H8.27921L8.34032 15.4473C8.32087 15.4084 8.2931 15.3196 8.34032 15.2418L8.27921 15.1279H8.55976L8.4931 15.2473C8.52087 15.2946 8.53199 15.3668 8.4931 15.4473L8.55143 15.5529ZM8.40976 15.4807H8.42365L8.4181 15.4668L8.40976 15.4807ZM8.4181 15.2668C8.36532 15.3196 8.40421 15.4001 8.4181 15.4196C8.46254 15.339 8.4181 15.2723 8.4181 15.2668ZM8.40421 15.2057L8.40976 15.2196L8.41532 15.2057H8.40421ZM9.58476 15.5529H9.31254L9.37365 15.4473C9.35421 15.4084 9.32643 15.3196 9.37365 15.2418L9.31254 15.1279H9.5931L9.52643 15.2473C9.55421 15.2946 9.57365 15.3668 9.52643 15.4473L9.58476 15.5529ZM9.4431 15.4807H9.45699L9.45143 15.4668L9.4431 15.4807ZM9.45143 15.2723C9.39865 15.3251 9.43754 15.4112 9.45143 15.4251V15.4196C9.49587 15.3473 9.45699 15.2807 9.45143 15.2723ZM9.43754 15.2057L9.4431 15.2196L9.44865 15.2057H9.43754ZM9.25699 15.5529H8.98476L9.04587 15.4473C9.02643 15.4084 8.99865 15.314 9.04587 15.2418L9.01254 15.1807L9.04587 15.1612V15.1223H9.25976L9.1931 15.2418C9.22087 15.289 9.23199 15.3612 9.1931 15.4418L9.25699 15.5529ZM9.10976 15.4807H9.12365L9.1181 15.4668L9.10976 15.4807ZM9.1181 15.2723C9.06532 15.3251 9.10421 15.4057 9.11254 15.4251C9.17087 15.3473 9.12921 15.2807 9.1181 15.2723ZM9.10976 15.2057L9.11532 15.2196L9.12087 15.2057H9.10976ZM8.92365 15.5529H8.65143L8.71254 15.4473C8.6931 15.4084 8.66532 15.314 8.71254 15.2418L8.67921 15.1807L8.71254 15.1612V15.1223H8.92643L8.85976 15.2418C8.88754 15.289 8.89865 15.3612 8.85976 15.4418L8.92365 15.5529ZM8.78476 15.4807H8.79865L8.7931 15.4668L8.78476 15.4807ZM8.79032 15.2723C8.7431 15.3251 8.77643 15.4057 8.78476 15.4251C8.83754 15.3473 8.79587 15.2807 8.79032 15.2723ZM8.78476 15.2057L8.79032 15.2196L8.79587 15.2057H8.78476ZM8.2181 15.5529H7.94587L8.00699 15.4473C7.98754 15.4084 7.95976 15.3196 8.00699 15.2418L7.97365 15.1807L8.00699 15.1612V15.1223H8.22087L8.15976 15.2418C8.18754 15.289 8.19865 15.3612 8.15976 15.4418L8.2181 15.5529ZM8.07643 15.4723H8.09032L8.08476 15.4584L8.07643 15.4723ZM8.08476 15.2668C8.03198 15.3196 8.07087 15.4001 8.08476 15.4196C8.13754 15.339 8.09032 15.2723 8.08476 15.2668ZM8.07643 15.2057L8.08199 15.2196L8.08754 15.2057H8.07643ZM7.9181 15.5529H7.64587L7.70699 15.4473C7.68754 15.4084 7.65976 15.3196 7.70699 15.2418L7.67365 15.189L7.70699 15.1696V15.1307H7.92087L7.85421 15.2501C7.88199 15.2973 7.8931 15.3696 7.85421 15.4501L7.9181 15.5529ZM7.77643 15.4723H7.79032L7.78476 15.4584L7.77643 15.4723ZM7.78476 15.2668C7.73199 15.3196 7.77087 15.4001 7.78476 15.4196C7.82921 15.3473 7.79032 15.2807 7.78476 15.2668ZM7.77643 15.2057L7.78199 15.2196L7.78754 15.2057H7.77643ZM11.9514 13.3668H10.1375L10.1848 13.3057C10.332 13.1196 10.632 12.9251 10.7903 12.8723C10.7903 12.6334 10.8098 11.9862 10.957 11.839C10.9903 11.8112 11.0181 11.8057 11.0375 11.8057C11.0653 11.8057 11.0903 11.8196 11.1181 11.839C11.2792 11.9918 11.2903 12.7001 11.2903 12.8723C11.4514 12.9334 11.757 13.1251 11.8959 13.3057L11.9514 13.3668ZM10.2959 13.2862H11.7764C11.6153 13.1251 11.357 12.9668 11.2375 12.9334L11.2098 12.9279V12.9001C11.2098 12.4723 11.157 11.9946 11.057 11.8946C11.0431 11.8807 11.0375 11.8807 11.0292 11.8807V11.8418V11.8751C11.0237 11.8751 11.0153 11.8751 11.0014 11.889C10.9014 11.989 10.8542 12.4751 10.8542 12.8946V12.9223L10.8264 12.9279C10.7181 12.9668 10.457 13.1279 10.2959 13.2862Z" fill="black"/>
<path d="M8.64264 19.7333C9.40375 19.7333 10.3426 19.5806 10.7815 19.3528L11.7482 19.2667L11.7676 20.4472C10.9482 20.9 9.06209 20.9944 8.6482 20.9944C8.23431 20.9944 6.32042 20.9 5.50098 20.4472L5.51487 19.2667L6.48153 19.3528C6.91764 19.5806 7.88431 19.7333 8.64264 19.7333Z" fill="#F9D90F"/>
<path d="M8.62912 20.9999C8.23468 20.9999 6.32912 20.9138 5.49579 20.4527H5.49023V20.4471L5.50412 19.261H5.50968L6.4819 19.3471C6.89579 19.561 7.84857 19.7277 8.64301 19.7277C8.64857 19.7277 8.6569 19.7277 8.66246 19.7277C9.4569 19.7277 10.3625 19.5665 10.7819 19.3471H10.7875L11.7597 19.261L11.7791 20.4554H11.7736C10.9458 20.9165 9.05412 21.0027 8.66801 21.0027C8.65135 20.9999 8.63746 20.9999 8.62912 20.9999ZM5.50412 20.4388C6.33746 20.8915 8.2319 20.986 8.62357 20.986C8.63746 20.986 8.64301 20.986 8.6569 20.986C9.04301 20.986 10.9236 20.8999 11.7513 20.4471L11.7319 19.286L10.7791 19.3721C10.3597 19.5915 9.44579 19.7527 8.65135 19.7527C8.64579 19.7527 8.63746 19.7527 8.6319 19.7527C7.8319 19.7527 6.87912 19.586 6.45968 19.3721L5.5069 19.286L5.50412 20.4388Z" fill="black"/>
<path d="M3.00986 14.7138L3.86264 14.986L3.60153 16.3666L2.79597 16.4944C2.79597 16.486 2.66264 15.761 3.00986 14.7138Z" fill="#F9D90F"/>
<path d="M2.79017 16.4945V16.489C2.79017 16.4834 2.65684 15.7501 3.00406 14.7084H3.00962V14.7029L3.87073 14.9751V14.9807L3.60962 16.3612H3.60406L2.79017 16.4945ZM3.01795 14.7195C2.69851 15.6862 2.79017 16.3862 2.8124 16.4723L3.59851 16.3529L3.85128 14.9918L3.01795 14.7195Z" fill="black"/>
<path d="M3.60371 16.3474L2.79816 16.4863L3.30371 15.7585L3.60371 16.3474Z" fill="#7E7E7E"/>
<path d="M3.60371 16.3474L2.79816 16.4863L3.30371 15.7585L3.60371 16.3474Z" fill="#F9B60F"/>
<path d="M2.77625 16.4942L3.30958 15.7415L3.60958 16.3415L3.60402 16.347V16.3526L2.77625 16.4942ZM3.30958 15.7803L2.82347 16.472L3.59569 16.3387L3.30958 15.7803Z" fill="black"/>
<path d="M2.50432 15.6998L3.32376 15.7609C3.34321 16.4554 3.42376 19.1082 6.59043 19.2471L6.49043 20.2137C2.63765 20.2526 2.34321 16.9665 2.50432 15.6998Z" fill="#F9D90F"/>
<path d="M5.51784 20.4194L5.51228 20.3999L6.34006 20.2194C5.07339 20.1999 4.09283 19.8138 3.42617 19.0666C2.55117 18.0861 2.37617 16.6388 2.49561 15.7H2.50117V15.6944H2.51783L3.33728 15.7555V15.7611C3.4095 18.5222 5.15117 19.1749 6.59839 19.2416H6.60395L6.50395 20.2222H6.49839C6.47061 20.2222 6.44561 20.2222 6.42617 20.2222L5.51784 20.4194ZM2.5095 15.7138C2.39561 16.6527 2.57061 18.0944 3.43728 19.0611C4.11783 19.8222 5.11784 20.2083 6.41784 20.2083L6.47895 20.1944V20.2083C6.47895 20.2083 6.47895 20.2083 6.4845 20.2083L6.5845 19.2611C5.24561 19.1999 4.29839 18.6805 3.77061 17.7222C3.35117 16.9527 3.32339 16.1 3.31783 15.7722L2.5095 15.7138Z" fill="black"/>
<path d="M14.2037 14.7196L13.3565 14.9863L13.6232 16.3585L14.4287 16.4863C14.4287 16.4946 14.5621 15.7668 14.2037 14.7196Z" fill="#FFFF00"/>
<path d="M14.2037 14.7196L13.3565 14.9863L13.6232 16.3585L14.4287 16.4863C14.4287 16.4946 14.5621 15.7668 14.2037 14.7196Z" fill="#F9D90F"/>
<path d="M14.437 16.5057H14.4314L13.6176 16.3724V16.3668L13.3453 14.9863H13.3509L14.1981 14.7196V14.7252V14.7196V14.7252H14.2037C14.5564 15.764 14.4314 16.4974 14.4314 16.5057H14.437ZM13.6287 16.3529L14.4231 16.4807C14.437 16.3946 14.5231 15.7002 14.1953 14.7279L13.362 14.989L13.6287 16.3529Z" fill="black"/>
<path d="M13.6239 16.3473L14.4295 16.4945L13.9156 15.7667L13.6239 16.3473Z" fill="#7E7E7E"/>
<path d="M13.6239 16.3473L14.4295 16.4945L13.9156 15.7667L13.6239 16.3473Z" fill="#F9B60F"/>
<path d="M14.4512 16.5056L14.4317 16.5L13.6262 16.3528V16.3473L13.6206 16.3417L13.9206 15.7473L13.9262 15.7611L14.4512 16.5056ZM13.6373 16.3389L14.4095 16.4778L13.915 15.7834L13.6373 16.3389Z" fill="black"/>
<path d="M14.7228 15.7138L13.9034 15.7666C13.8895 16.461 13.8312 19.1138 10.6645 19.2527L10.77 20.2194C14.6228 20.2666 14.8895 16.9721 14.7228 15.7138Z" fill="#F9D90F"/>
<path d="M11.751 20.4277L10.8454 20.2277C10.8176 20.2277 10.7926 20.2277 10.7649 20.2277H10.7593V20.2222L10.6537 19.2499H10.6593C12.1065 19.1833 13.8399 18.5305 13.8871 15.7694V15.7638H13.8926L14.7121 15.7111V15.7166H14.7176C14.8454 16.6638 14.6787 18.1111 13.8176 19.0833C13.1565 19.8305 12.1843 20.2166 10.9176 20.2305L11.7454 20.4111L11.751 20.4277ZM10.7899 20.1999L10.851 20.2138C12.1454 20.2138 13.1454 19.8277 13.8176 19.0749C14.6787 18.1083 14.8371 16.6694 14.7176 15.7277L13.9121 15.7805C13.9065 16.1083 13.8843 16.9527 13.4732 17.7277C12.9593 18.6888 12.0121 19.2083 10.6732 19.2666L10.7787 20.2138H10.7843L10.7899 20.1999Z" fill="black"/>
<path d="M8.1297 20.3139C8.11025 20.3278 8.07692 20.3334 8.04359 20.3278L7.89081 20.3223L7.9047 20.1278L8.05748 20.1334C8.08525 20.1334 8.11025 20.1389 8.12414 20.1528C8.15747 20.1667 8.17136 20.2 8.16303 20.2389C8.16303 20.2806 8.15192 20.3 8.1297 20.3139ZM7.87136 20.6139L7.88525 20.3806L8.06581 20.3945C8.12692 20.4 8.16581 20.3806 8.19359 20.3556C8.22692 20.3278 8.24081 20.2889 8.24081 20.25C8.24636 20.2028 8.23525 20.1556 8.20192 20.1306C8.17414 20.1028 8.13525 20.0834 8.08248 20.0834L7.8297 20.0695L7.79636 20.6167H7.87136V20.6139ZM8.42414 20.1612H8.61025H8.42414ZM8.42414 20.1612H8.61025H8.42414ZM8.42414 20.1612H8.61025H8.42414ZM8.42414 20.1612H8.61025H8.42414ZM8.42414 20.1612H8.61025C8.63803 20.1612 8.65748 20.1667 8.67692 20.175C8.7047 20.1889 8.71581 20.2139 8.71581 20.2556C8.71581 20.2973 8.70192 20.3167 8.68248 20.3278C8.66303 20.3417 8.63525 20.3473 8.59636 20.3473H8.41581L8.42414 20.1612ZM8.42414 20.6389V20.4056H8.59636C8.6297 20.4056 8.64914 20.4056 8.66303 20.4195C8.69081 20.4334 8.70192 20.4584 8.70192 20.4917L8.70748 20.5862C8.70748 20.6056 8.70748 20.6195 8.70748 20.6334C8.70748 20.6389 8.71303 20.6473 8.71303 20.6528H8.80748V20.6389C8.79359 20.6334 8.78803 20.6195 8.78803 20.6056C8.78248 20.5917 8.78248 20.5778 8.78248 20.5584V20.4862C8.78248 20.4528 8.77692 20.4334 8.76303 20.4195C8.74914 20.4 8.73525 20.3917 8.71581 20.3862C8.74359 20.3723 8.76303 20.3584 8.77692 20.3389C8.79081 20.3195 8.79636 20.2917 8.79636 20.2584C8.79636 20.1973 8.76859 20.1528 8.71581 20.1306C8.68803 20.1167 8.64914 20.1112 8.61025 20.1112H8.35192V20.6584L8.42414 20.6389ZM9.0047 20.5278C8.97136 20.4889 8.95192 20.4334 8.95192 20.375C8.94637 20.3028 8.96581 20.2417 8.99914 20.2028C9.03248 20.1639 9.0797 20.1417 9.13803 20.1362C9.19914 20.1362 9.24359 20.15 9.28525 20.1889C9.32414 20.2278 9.34636 20.275 9.34636 20.3417C9.34636 20.4028 9.34081 20.4556 9.30748 20.5084C9.2797 20.5556 9.23525 20.5806 9.16859 20.5889C9.09081 20.5862 9.04359 20.5667 9.0047 20.5278ZM8.91859 20.1806C8.88525 20.2334 8.87137 20.3 8.87137 20.375C8.87692 20.4556 8.9047 20.5278 8.95192 20.575C9.0047 20.6278 9.0797 20.6556 9.16581 20.6473C9.26025 20.6417 9.32692 20.6084 9.3797 20.5417C9.41859 20.4806 9.44081 20.4139 9.43248 20.3362C9.42692 20.2639 9.4047 20.2028 9.36581 20.1556C9.31303 20.0945 9.23803 20.0695 9.13803 20.0695C9.0297 20.0723 8.96303 20.1139 8.91859 20.1806ZM11.4964 19.3945C11.5491 19.3889 11.5964 19.3889 11.6353 19.4C11.6964 19.4195 11.7353 19.4667 11.763 19.5334L11.6908 19.5473C11.6769 19.5084 11.6519 19.4806 11.6186 19.4667C11.5853 19.4528 11.5519 19.4473 11.5047 19.4528C11.4575 19.4584 11.4103 19.4862 11.3853 19.525C11.3575 19.5723 11.3464 19.625 11.3575 19.7056C11.3714 19.7667 11.3908 19.8195 11.4297 19.8584C11.463 19.8917 11.5158 19.9056 11.5825 19.8973C11.6353 19.8917 11.6769 19.8695 11.7019 19.8362C11.7297 19.8028 11.7408 19.7556 11.7297 19.6889L11.5575 19.7167L11.5519 19.6556L11.7991 19.6167L11.8464 19.9112L11.7991 19.9167L11.7658 19.85C11.7464 19.8834 11.7269 19.9028 11.7047 19.9167C11.6714 19.9445 11.6325 19.9556 11.5853 19.9639C11.5186 19.9778 11.4575 19.9639 11.4047 19.925C11.3436 19.8778 11.3047 19.8112 11.2908 19.725C11.2769 19.6306 11.2908 19.5584 11.3297 19.4973C11.363 19.4334 11.4241 19.4 11.4964 19.3945ZM12.0519 19.3473L12.2241 19.2806C12.2519 19.275 12.2714 19.2667 12.2853 19.275C12.3186 19.275 12.338 19.2945 12.3519 19.3362C12.3658 19.3695 12.3658 19.3973 12.3519 19.4167C12.338 19.4362 12.313 19.45 12.2797 19.4639L12.113 19.525L12.0519 19.3473ZM12.2297 19.8056L12.1436 19.5862L12.3103 19.525C12.3436 19.5195 12.363 19.5112 12.3769 19.5112C12.4047 19.5167 12.4297 19.5306 12.4436 19.5639L12.4825 19.65C12.488 19.6695 12.4964 19.6834 12.5019 19.6889C12.5019 19.6945 12.5075 19.7028 12.5158 19.7084L12.6019 19.675L12.5964 19.6612C12.5825 19.6612 12.5686 19.6556 12.563 19.6417C12.5575 19.6278 12.5491 19.6139 12.5436 19.6028L12.5158 19.5362C12.5019 19.5084 12.488 19.4889 12.4769 19.475C12.4575 19.4695 12.438 19.4612 12.4158 19.4612C12.4353 19.4417 12.4491 19.4223 12.4491 19.3945C12.4547 19.3667 12.4491 19.3417 12.4436 19.3084C12.4241 19.2473 12.3769 19.2139 12.3241 19.2139C12.2908 19.2139 12.2575 19.2195 12.2186 19.2334L11.9714 19.3195L12.1714 19.8389L12.2297 19.8056ZM12.8714 19.5334L12.5575 19.0723L12.9047 18.8528L12.9436 18.9056L12.663 19.0862L12.7575 19.225L13.0186 19.0584L13.0519 19.1112L12.7908 19.2778L12.8964 19.4306L13.1825 19.2445L13.2214 19.2973L12.8714 19.5334ZM13.1436 18.7195L13.238 18.6195C13.2769 18.5723 13.3241 18.5528 13.3714 18.5584C13.4186 18.5639 13.4714 18.5862 13.5186 18.6306C13.5325 18.6445 13.5464 18.6584 13.5575 18.6695C13.5769 18.6973 13.5908 18.7223 13.6047 18.75C13.6103 18.7834 13.6103 18.8112 13.5991 18.8445C13.5936 18.8584 13.5797 18.8778 13.5603 18.8973L13.463 19L13.1436 18.7195ZM13.6241 18.9389C13.6908 18.8667 13.7047 18.7917 13.663 18.7056C13.6353 18.6528 13.6019 18.6112 13.563 18.5723C13.5019 18.5195 13.4436 18.4917 13.3825 18.4917C13.3103 18.4862 13.2547 18.5112 13.2019 18.5723L13.0491 18.7389L13.4686 19.1056L13.6241 18.9389ZM13.9519 18.5139L13.463 18.2278L13.5019 18.1667L13.988 18.4528L13.9519 18.5139ZM14.1436 18.1806L13.6158 17.9667L13.7686 17.6L13.8353 17.6278L13.7075 17.9334L13.8686 17.9945L13.988 17.7139L14.0491 17.7417L13.9297 18.0223L14.1103 18.0945L14.238 17.7889L14.3047 17.8167L14.1436 18.1806ZM14.3853 17.5334L13.8325 17.4139L13.8519 17.3278L14.3658 17.1556L13.9186 17.0556L13.9325 16.9889L14.4853 17.1084L14.4658 17.1889L13.9519 17.3612L14.3991 17.4612L14.3853 17.5334ZM14.338 16.8334L14.3436 16.7667C14.3769 16.7667 14.4047 16.7612 14.4241 16.7528C14.463 16.7334 14.4853 16.6917 14.4908 16.6251C14.4908 16.5973 14.4908 16.5723 14.4853 16.5445C14.4714 16.4973 14.4464 16.4723 14.4047 16.4723C14.3714 16.4723 14.3519 16.4778 14.338 16.4917C14.3241 16.5112 14.3103 16.5389 14.2991 16.5778L14.2714 16.6501C14.2575 16.6973 14.238 16.7306 14.2241 16.7501C14.1964 16.7834 14.163 16.7973 14.1186 16.7889C14.0658 16.7834 14.0241 16.7612 13.9991 16.7223C13.9714 16.6889 13.9603 16.6362 13.9658 16.5751C13.9714 16.5139 13.9936 16.4695 14.0269 16.4362C14.0603 16.4028 14.1075 16.3834 14.1658 16.3889L14.1603 16.4556C14.1269 16.4556 14.1075 16.4612 14.088 16.4751C14.0547 16.4945 14.0408 16.5278 14.0353 16.5806C14.0297 16.6278 14.0353 16.6528 14.0547 16.6806C14.0741 16.7001 14.0936 16.7139 14.1214 16.7139C14.1491 16.7139 14.1686 16.7084 14.1825 16.6862C14.1964 16.6723 14.2019 16.6389 14.2214 16.5917L14.2491 16.5195C14.263 16.4862 14.2769 16.4584 14.2964 16.4389C14.3297 16.4056 14.3686 16.3917 14.4158 16.4001C14.4769 16.4056 14.5214 16.4334 14.5436 16.4806C14.563 16.5278 14.5769 16.5806 14.5714 16.6417C14.5658 16.7084 14.5436 16.7612 14.5047 16.7945C14.4519 16.8278 14.3964 16.8389 14.338 16.8334ZM2.87692 16.8001L2.8908 16.8667C2.85747 16.8723 2.83803 16.8862 2.81858 16.9001C2.78525 16.9334 2.77969 16.9723 2.78525 17.0389C2.7908 17.0667 2.79914 17.0917 2.81303 17.1112C2.8408 17.1501 2.8658 17.1723 2.91303 17.1639C2.9408 17.1584 2.96025 17.1445 2.97414 17.1251C2.97969 17.1056 2.98803 17.0723 2.99358 17.0306L2.99914 16.9501C2.99914 16.9028 3.00469 16.8639 3.01858 16.8445C3.03803 16.8056 3.0658 16.7834 3.11303 16.7778C3.16025 16.7723 3.20747 16.7778 3.24636 16.8112C3.28525 16.8389 3.31303 16.8834 3.31858 16.9445C3.33247 16.9973 3.32414 17.0501 3.30469 17.0973C3.28525 17.1445 3.24358 17.1695 3.17692 17.1778L3.16303 17.1112C3.1908 17.0973 3.2158 17.0917 3.22969 17.0778C3.25747 17.0501 3.26303 17.0112 3.24914 16.9584C3.24358 16.9112 3.22969 16.8862 3.20192 16.8723C3.18247 16.8528 3.15469 16.8445 3.13525 16.8528C3.10747 16.8584 3.08803 16.8723 3.08247 16.9001C3.07692 16.9139 3.07692 16.9528 3.06858 17.0001L3.06303 17.0806C3.06303 17.1195 3.05747 17.1473 3.04358 17.1751C3.02414 17.2139 2.9908 17.2417 2.93803 17.2473C2.87692 17.2612 2.82414 17.2417 2.7908 17.2001C2.75747 17.1612 2.72969 17.1139 2.72414 17.0528C2.71025 16.9862 2.72414 16.9251 2.75192 16.8862C2.77136 16.8334 2.81858 16.8056 2.87692 16.8001ZM2.84358 17.5195L3.38247 17.3584L3.51025 17.7389L3.44358 17.7584L3.34358 17.4445L3.17692 17.4917L3.27136 17.7778L3.21025 17.7973L3.1158 17.5112L2.93525 17.5639L3.0408 17.8834L2.97414 17.9028L2.84358 17.5195ZM3.08525 18.1806L3.58525 17.9139L3.63803 18.0084L3.29914 18.3695L3.79914 18.2834L3.85192 18.3778L3.35747 18.6389L3.32414 18.5778L3.61858 18.425C3.63247 18.4195 3.64636 18.4112 3.67136 18.3973C3.69081 18.3834 3.71858 18.3695 3.74358 18.3584L3.24358 18.4445L3.21025 18.3778L3.54914 18.0167L3.53525 18.0223C3.52136 18.0278 3.50747 18.0362 3.48247 18.05C3.46303 18.0639 3.44914 18.0695 3.42969 18.0778L3.13525 18.2389L3.08525 18.1806ZM4.01025 18.9139C3.98247 18.9084 3.96303 18.8945 3.93803 18.8667L3.83247 18.7612L3.97136 18.6334L4.07692 18.7389C4.09636 18.7584 4.11025 18.7778 4.11581 18.7917C4.12136 18.825 4.11581 18.8528 4.08803 18.8778C4.06303 18.9139 4.03803 18.9195 4.01025 18.9139ZM3.61025 18.9667L3.78247 18.8056L3.90192 18.9334C3.94081 18.9723 3.98247 18.9945 4.02136 18.9945C4.06025 18.9945 4.10192 18.975 4.13525 18.9473C4.16858 18.9139 4.18803 18.875 4.18803 18.8334C4.18803 18.7917 4.16858 18.7528 4.13525 18.7195L3.95469 18.5389L3.5408 18.9195L3.61025 18.9667ZM4.10469 19.4056L4.40469 18.9389L4.75747 19.1528L4.71858 19.2056L4.43247 19.0334L4.34636 19.1723L4.61303 19.3334L4.57969 19.3862L4.31303 19.225L4.21303 19.3862L4.50747 19.5584L4.47414 19.6112L4.10469 19.4056ZM4.99081 19.3195L5.17136 19.3806C5.19914 19.3862 5.21858 19.4 5.22414 19.4084C5.24358 19.4278 5.25192 19.4612 5.23803 19.5028C5.22414 19.5362 5.21025 19.5556 5.18525 19.5639C5.16581 19.5695 5.13247 19.5695 5.09914 19.5584L4.93247 19.5056L4.99081 19.3195ZM4.83803 19.7723L4.91025 19.5528L5.07692 19.6056C5.1047 19.6112 5.1297 19.625 5.13803 19.6334C5.15747 19.6528 5.16581 19.6806 5.15192 19.7139L5.12414 19.8C5.11858 19.8195 5.11858 19.8334 5.11025 19.8389C5.11025 19.8445 5.11025 19.8528 5.11025 19.8584L5.19636 19.8862L5.20192 19.8723C5.19636 19.8667 5.18803 19.8528 5.18803 19.8334C5.18803 19.8195 5.19358 19.8056 5.20192 19.7862L5.22136 19.7139C5.22692 19.6806 5.23525 19.6612 5.22692 19.6417C5.22136 19.6223 5.20747 19.6084 5.19358 19.5945C5.22136 19.5889 5.24636 19.5806 5.26581 19.5667C5.28525 19.5473 5.29914 19.5278 5.31303 19.4945C5.33247 19.4334 5.31858 19.3889 5.2797 19.3473C5.26025 19.3278 5.22692 19.3139 5.18525 19.2945L4.93247 19.2139L4.76025 19.7334L4.83803 19.7723Z" fill="#012A87"/>
<path d="M5.59042 10.2944C5.65709 10.1416 6.25153 9.71387 8.2182 9.89998C8.2182 9.89998 8.55154 10.1 8.74598 10.0722C8.85987 10.0583 8.67931 10.0778 8.53209 9.95831C8.38487 9.83887 8.35153 9.59164 8.6932 9.5972C9.02653 9.60275 10.2876 9.67775 10.3126 9.79164C10.3321 9.90553 9.64598 9.95275 9.3932 9.94442C9.13209 9.93887 9.16542 10.0639 9.42098 10.0583C10.221 10.0305 11.0932 9.74442 12.0154 10.3972C12.121 10.4778 11.7349 10.4916 11.4349 10.3639C11.4349 10.3639 10.621 10.4028 10.2682 10.35C10.2682 10.35 9.99598 10.5694 9.64876 10.55C9.69598 10.6639 9.52098 11.0889 8.40987 10.7694C8.22931 10.8222 7.56265 10.9361 7.63765 10.7361C7.46542 10.7361 7.15709 10.7889 7.10987 10.6972C7.06265 10.5972 7.64876 10.45 7.75709 10.3444C7.75709 10.3444 6.5182 10.3583 6.28487 10.2722C6.28487 10.2666 5.55153 10.4333 5.59042 10.2944Z" fill="#BC715F"/>
<path d="M5.99028 12.0279C6.01806 11.9946 6.02917 11.9279 6.08472 11.9279C6.20417 11.9613 6.29028 12.189 6.44583 12.0418C6.49861 12.0279 6.51806 12.1029 6.56528 12.1085C6.59306 12.2363 6.69306 12.0807 6.76528 12.089C6.92639 12.0168 7.12639 12.0029 7.3125 12.0363C7.31806 12.1557 7.22639 12.2974 7.09861 12.364C7.09861 12.4835 7.2125 12.564 7.2125 12.6918C7.19306 12.739 7.2125 12.8113 7.14028 12.8251C7.05417 12.8113 6.96806 12.7974 6.89306 12.7529C6.8875 12.7474 6.87917 12.7251 6.85972 12.7335C6.85417 12.7724 6.9125 12.814 6.94028 12.8613C6.89306 12.9335 6.82083 12.8668 6.75972 12.8668C6.74028 12.914 6.75972 12.9668 6.7125 12.9946C6.63195 12.9946 6.61806 12.9085 6.57361 12.8613C6.52639 12.914 6.60695 12.9474 6.62083 12.989C6.5875 13.1501 6.59306 13.3085 6.43472 13.4168L6.32917 13.4696C6.30139 13.389 6.31528 13.264 6.29583 13.1835C6.22917 13.289 6.18195 13.3779 6.09028 13.464C5.98472 13.4307 5.91806 13.2974 5.89028 13.1918C5.84306 13.064 5.87083 12.9196 5.97083 12.8251C5.9375 12.7585 5.82361 12.7724 5.80417 12.6779C5.63195 12.564 5.5375 12.8724 5.42361 12.7113C5.39028 12.564 5.42917 12.3779 5.5375 12.264C5.50972 12.2029 5.43194 12.2168 5.38472 12.1835C5.27917 12.089 5.11806 11.9974 5.13195 11.8307C5.41806 11.7196 5.77639 11.8001 5.99028 12.0279Z" fill="#008830"/>
<path d="M6.1434 12.0056C6.13785 12.139 6.23785 12.0445 6.31007 12.1251C6.24896 12.1056 6.21007 12.2251 6.15729 12.1528L6.12396 12.1862C6.1434 12.2334 6.18507 12.239 6.1434 12.2917C6.08229 12.3195 6.07118 12.239 6.0434 12.2056C6.03785 12.1917 6.04896 12.1667 6.02952 12.1584C5.99618 12.1862 5.95729 12.1973 5.91007 12.1917C5.89618 12.164 5.87118 12.1306 5.89618 12.1112C5.9434 12.0501 6.01563 12.1306 6.04896 12.0917C6.05452 12.0528 6.02118 12.0056 6.06285 11.9778C6.09063 11.9862 6.12952 11.9667 6.1434 12.0056ZM6.51007 12.1195C6.51563 12.1473 6.49618 12.1806 6.52952 12.2001C6.57674 12.1723 6.62396 12.1945 6.64896 12.239C6.64896 12.2667 6.65452 12.2917 6.62118 12.3056L6.55452 12.2917C6.56007 12.2778 6.53507 12.2723 6.52674 12.2584C6.4934 12.2528 6.47952 12.2723 6.45452 12.2917C6.47396 12.3195 6.51563 12.3306 6.50174 12.364C6.46285 12.4028 6.44063 12.3306 6.39618 12.3501C6.36285 12.3362 6.41007 12.2778 6.35729 12.2556C6.29618 12.2556 6.33785 12.3501 6.26285 12.3167C6.23507 12.289 6.21007 12.2501 6.23507 12.2167C6.2684 12.1973 6.31563 12.2028 6.34063 12.2306C6.39618 12.1667 6.40452 11.9806 6.51007 12.1195ZM6.05729 12.314C6.08507 12.3528 6.05174 12.414 6.09063 12.4612C6.15174 12.3473 6.21007 12.489 6.27674 12.4751C6.29618 12.5028 6.28229 12.5362 6.29063 12.5695C6.20452 12.5973 6.09618 12.6223 6.0184 12.5501L5.99896 12.5778C6.04618 12.6167 6.08507 12.6723 6.05174 12.7445C5.98507 12.7584 5.88507 12.7584 5.85174 12.6917C5.83229 12.639 5.89063 12.5973 5.83229 12.5528C5.78507 12.6056 5.7934 12.6806 5.69896 12.6334C5.64618 12.6001 5.62674 12.539 5.65174 12.4862C5.71285 12.3917 5.81285 12.4862 5.87952 12.4473C5.88507 12.3667 5.86007 12.3001 5.93229 12.2528C5.99063 12.2278 6.0184 12.2806 6.05729 12.314Z" fill="#F9D90F"/>
<path d="M6.30452 12.3669C6.27674 12.5002 6.17118 12.3613 6.12396 12.353C6.19063 12.2391 6.22952 12.3863 6.30452 12.3669ZM6.62396 12.5141C6.55174 12.5335 6.56285 12.4474 6.52952 12.4085L6.55729 12.3808C6.57674 12.4141 6.59618 12.4724 6.62396 12.5141Z" fill="white"/>
<path d="M6.52381 12.4861C6.54326 12.5333 6.47659 12.5722 6.5377 12.6056C6.55715 12.5917 6.57659 12.5722 6.58492 12.5583C6.63215 12.5722 6.69048 12.5778 6.72381 12.6306C6.75715 12.7306 6.65715 12.7306 6.60437 12.7583H6.54326C6.55715 12.7306 6.51548 12.7195 6.50992 12.6972C6.48215 12.6917 6.4627 12.6972 6.44881 12.725C6.4627 12.7861 6.53492 12.8389 6.4627 12.8917C6.39604 12.8861 6.29048 12.9111 6.29604 12.8195C6.26826 12.7667 6.3627 12.6861 6.2627 12.6806C6.22937 12.7528 6.19604 12.8195 6.10992 12.7528L6.12381 12.6528C6.20437 12.6528 6.30437 12.6722 6.34326 12.5806C6.37104 12.5139 6.30437 12.4528 6.3627 12.4C6.4377 12.3722 6.48492 12.4278 6.52381 12.4861Z" fill="#F9D90F"/>
<path d="M6.46257 12.6389C6.48202 12.6916 6.42924 12.6916 6.40146 12.7194C6.36813 12.7194 6.34035 12.7055 6.31535 12.6861C6.30146 12.625 6.34313 12.6194 6.38202 12.5916C6.42369 12.5722 6.43757 12.6194 6.46257 12.6389Z" fill="black"/>
<path d="M6.41776 12.6723C6.41221 12.6862 6.39832 12.6779 6.38443 12.6862L6.37054 12.6251C6.39554 12.6195 6.42888 12.6334 6.41776 12.6723Z" fill="white"/>
</g>
<defs>
<clipPath id="clip0_93_53831">
<rect width="53.3333" height="30" fill="white" transform="translate(0.990234)"/>
</clipPath>
</defs>
</svg>
