<svg width="54" height="30" viewBox="0 0 54 30" fill="none" xmlns="http://www.w3.org/2000/svg">
<g clip-path="url(#clip0_93_3829)">
<path d="M-3.00616 0H56.9938V30H-3.00616V0Z" fill="#FF0000"/>
<path d="M-3.00616 0H56.9938V20H-3.00616V0Z" fill="#005CE5"/>
<path d="M-3.00616 0H56.9938V10H-3.00616V0Z" fill="white"/>
<path fill-rule="evenodd" clip-rule="evenodd" d="M11.9925 5.2608C11.9254 5.26092 11.8584 5.26226 11.7916 5.26424C10.4928 5.2979 9.27341 5.63332 8.40517 6.04235L8.40529 6.04352C8.31032 6.08319 8.21734 6.12297 8.12891 6.16276L8.42734 10.8373C8.63413 13.28 10.2261 14.7023 11.9949 15.2608C13.7636 14.7023 15.3555 13.28 15.5623 10.8373L15.8591 6.17757C15.7704 6.13172 15.6775 6.08727 15.5827 6.04346L15.5828 6.0423C14.6702 5.61238 13.3699 5.26313 11.997 5.26086C11.996 5.26086 11.995 5.26074 11.994 5.26074C11.9935 5.2608 11.993 5.2608 11.9925 5.2608Z" fill="#005CE5"/>
<path fill-rule="evenodd" clip-rule="evenodd" d="M11.9947 8.495L11.1217 10.1998L10.5573 9.4666L9.08246 11.4156C9.10912 11.5366 9.14044 11.6534 9.17457 11.7675C9.3393 12.0454 9.65582 12.3628 10.0618 12.3628C10.3839 12.3628 10.7061 12.1051 11.0282 12.1051C11.3504 12.1051 11.6725 12.3628 11.9947 12.3628C12.3169 12.3628 12.639 12.1051 12.9612 12.1051C13.2833 12.1051 13.6055 12.3628 13.9276 12.3628C14.3299 12.3628 14.6443 12.0514 14.8103 11.7752C14.8458 11.6581 14.8776 11.5376 14.9051 11.4131L13.4322 9.46672L12.8678 10.1999L11.9947 8.495ZM11.0282 12.3627C10.7061 12.3627 10.3839 12.6205 10.0618 12.6205C9.80679 12.6205 9.5878 12.5302 9.41811 12.4021C9.47802 12.5292 9.54143 12.6529 9.61073 12.77C9.74361 12.8526 9.8947 12.9085 10.0618 12.9085C10.3839 12.9085 10.7061 12.6508 11.0282 12.6508C11.3504 12.6508 11.6725 12.9085 11.9947 12.9085C12.3169 12.9085 12.639 12.6508 12.9612 12.6508C13.2833 12.6508 13.6055 12.9085 13.9276 12.9085C14.0923 12.9085 14.2413 12.8539 14.3728 12.7732C14.4421 12.6566 14.5055 12.5333 14.5655 12.4066C14.3966 12.5323 14.1796 12.6205 13.9276 12.6205C13.6054 12.6205 13.2833 12.3628 12.9611 12.3628C12.6389 12.3628 12.3168 12.6205 11.9946 12.6205C11.6726 12.6205 11.3504 12.3627 11.0282 12.3627ZM11.0282 12.9085C10.7061 12.9085 10.3839 13.1662 10.0618 13.1662C9.99176 13.1662 9.9252 13.158 9.86074 13.1456C10.4181 13.8902 11.1784 14.3886 11.994 14.6752C12.8079 14.389 13.5671 13.8903 14.1241 13.1469C14.061 13.1587 13.9958 13.1662 13.9275 13.1662C13.6053 13.1662 13.2832 12.9085 12.9611 12.9085C12.6389 12.9085 12.3168 13.1662 11.9946 13.1662C11.6726 13.1662 11.3504 12.9085 11.0282 12.9085Z" fill="white"/>
<path fill-rule="evenodd" clip-rule="evenodd" d="M10.5411 5.8855H11.2721L10.9066 6.51836" fill="#FFE500"/>
<path fill-rule="evenodd" clip-rule="evenodd" d="M12.7293 5.8855H13.4602L13.0948 6.51836" fill="#FFE500"/>
<path fill-rule="evenodd" clip-rule="evenodd" d="M11.6355 7.35059H12.3664L12.0009 7.98346" fill="#FFE500"/>
<path fill-rule="evenodd" clip-rule="evenodd" d="M11.9939 5.26062C11.9244 5.26062 11.855 5.2634 11.7856 5.2634C11.855 5.26062 11.9244 5.26062 11.9939 5.26062ZM8.405 6.04396C8.31056 6.08284 8.21612 6.12451 8.13 6.1634L8.42723 10.8384C8.63278 13.2801 10.2272 14.7023 11.9939 15.2606C13.7633 14.7023 15.355 13.2801 15.5605 10.8384L15.8578 6.17729C15.7689 6.13007 15.6772 6.08562 15.5828 6.04396L15.305 10.6829C15.1133 13.0579 13.6355 14.4412 11.9939 14.9829C10.3522 14.4412 8.87445 13.0579 8.68278 10.6829L8.405 6.04396Z" fill="#FF0000"/>
</g>
<defs>
<clipPath id="clip0_93_3829">
<rect width="53.3333" height="30" fill="white" transform="translate(0.327148)"/>
</clipPath>
</defs>
</svg>
