<svg width="54" height="30" viewBox="0 0 54 30" fill="none" xmlns="http://www.w3.org/2000/svg">
<g clip-path="url(#clip0_93_7420)">
<path d="M53.7031 -2.80579H0.286499V32.8053H53.7031V-2.80579Z" fill="#EE1C25"/>
<path d="M53.7031 -2.80579H0.286499V20.9359H53.7031V-2.80579Z" fill="#0B4EA2"/>
<path d="M53.7031 -2.80579H0.286499V9.06366H53.7031V-2.80579Z" fill="white"/>
<path d="M23.6421 5.56335H23.1615H16.3059H9.45594H8.97539L8.92817 6.04391C8.91705 6.14947 8.6615 8.65502 8.6615 14.1578C8.6615 16.7467 9.53372 19.0245 11.2615 20.9356C12.4671 22.2772 14.0448 23.405 16.0809 24.3828L16.3115 24.4967L16.5421 24.3828C18.5782 23.405 20.1587 22.2772 21.3615 20.9356C23.0837 19.0245 23.9615 16.7384 23.9615 14.1578C23.9615 8.65502 23.7059 6.15224 23.6948 6.04391L23.6421 5.56335Z" fill="white"/>
<path d="M16.306 23.9022C13.3782 22.4883 9.18933 19.6939 9.18933 14.1495C9.18933 8.60501 9.456 6.09668 9.456 6.09668H16.3116H23.1671C23.1671 6.09668 23.4338 8.61335 23.4338 14.1495C23.4227 19.6939 19.2366 22.4883 16.306 23.9022Z" fill="#EE1C25"/>
<path d="M16.9339 12.7031C17.7284 12.7142 19.2728 12.7448 20.6506 12.2865C20.6506 12.2865 20.6145 12.7781 20.6145 13.3559C20.6145 13.9309 20.6506 14.4254 20.6506 14.4254C19.3867 14.0031 17.8256 13.992 16.9339 14.0031V17.0587H15.6811V14.0031C14.7839 13.992 13.2311 14.0031 11.9645 14.4254C11.9645 14.4254 12.0006 13.9337 12.0006 13.3559C12.0006 12.7809 11.9645 12.2865 11.9645 12.2865C13.3423 12.7504 14.8895 12.7142 15.6811 12.7031V10.7809C14.9561 10.7754 13.9173 10.8115 12.7367 11.2031C12.7367 11.2031 12.7728 10.7115 12.7728 10.1337C12.7728 9.55592 12.7367 9.06425 12.7367 9.06425C13.9117 9.45592 14.9506 9.49203 15.6756 9.48647C15.6395 8.26981 15.2839 6.73926 15.2839 6.73926C15.2839 6.73926 16.0145 6.79759 16.3061 6.79759C16.5978 6.79759 17.3284 6.73926 17.3284 6.73926C17.3284 6.73926 16.9728 8.26981 16.9367 9.48647C17.6617 9.49203 18.7006 9.45592 19.8756 9.06425C19.8756 9.06425 19.8395 9.55592 19.8395 10.1337C19.8395 10.7115 19.8756 11.2031 19.8756 11.2031C18.7006 10.8115 17.6561 10.7754 16.9311 10.7809V12.7031H16.9339Z" fill="white"/>
<path d="M16.3057 16.7283C14.828 16.7283 14.0391 18.7755 14.0391 18.7755C14.0391 18.7755 13.6002 17.8088 12.3946 17.8088C11.5807 17.8088 10.9807 18.5338 10.5974 19.2033C12.0807 21.5588 14.4446 23.0144 16.3002 23.9088C18.1585 23.0116 20.5252 21.5588 22.003 19.2033C21.6224 18.5338 21.0224 17.8088 20.2057 17.8088C19.0002 17.8088 18.5613 18.7755 18.5613 18.7755C18.5613 18.7755 17.7835 16.7283 16.3057 16.7283Z" fill="#0B4EA2"/>
</g>
<defs>
<clipPath id="clip0_93_7420">
<rect width="53.3333" height="30" fill="white" transform="translate(0.328125)"/>
</clipPath>
</defs>
</svg>
