<svg width="65" height="38" viewBox="0 0 65 38" fill="none" xmlns="http://www.w3.org/2000/svg">
<path d="M3.17554 35V4.76941H56.8228L3.17554 35Z" fill="#0051BA"/>
<path d="M3.17554 35.0001H56.8228V6.58899L3.17554 35.0001Z" fill="#215B33"/>
<path d="M3.17554 33.4112L56.8228 6.58899L3.17554 33.4112Z" fill="black"/>
<path d="M62.8152 0.169259L0.382324 34.9042L1.78015 37.4166L64.213 2.68172L62.8152 0.169259Z" fill="#FCD116"/>
<path d="M12.5613 11.9528L11.7307 14.5L13.0057 14.9166L12.5613 11.9528Z" fill="white"/>
<path d="M12.5616 11.9528L13.3922 14.5L12.1172 14.9166L12.5616 11.9528Z" fill="white"/>
<path d="M15.1116 13.8029H12.4282V15.1445L15.1116 13.8029Z" fill="white"/>
<path d="M15.1118 13.8029L12.9396 15.3779L12.1562 14.2973L15.1118 13.8029Z" fill="white"/>
<path d="M10.0142 13.8029L12.1864 15.3779L12.978 14.2917L10.0142 13.8029Z" fill="white"/>
<path d="M10.0142 13.8029H12.6975V15.1445L10.0142 13.8029Z" fill="white"/>
<path d="M14.1395 16.8083L13.3089 14.2611L12.0339 14.6778L14.1395 16.8083Z" fill="white"/>
<path d="M14.1393 16.8083L11.967 15.2333L12.7587 14.1472L14.1393 16.8083Z" fill="white"/>
<path d="M10.9866 16.8083L13.1588 15.2333L12.3671 14.1472L10.9866 16.8083Z" fill="white"/>
<path d="M10.9866 16.8083L11.8171 14.2611L13.0921 14.6778L10.9866 16.8083Z" fill="white"/>
<path d="M7.26415 7.41382L6.43359 9.96104L7.70859 10.3777L7.26415 7.41382Z" fill="white"/>
<path d="M7.26451 7.41382L8.09507 9.96104L6.82007 10.3777L7.26451 7.41382Z" fill="white"/>
<path d="M9.81956 9.26941H7.13623V10.6111L9.81956 9.26941Z" fill="white"/>
<path d="M9.82006 9.26941L7.64784 10.8444L6.8645 9.7583L9.82006 9.26941Z" fill="white"/>
<path d="M4.71704 9.26941L6.88926 10.8444L7.68093 9.7583L4.71704 9.26941Z" fill="white"/>
<path d="M4.71704 9.26941H7.40038V10.6111L4.71704 9.26941Z" fill="white"/>
<path d="M8.84213 12.2666L8.01157 9.71936L6.73657 10.136L8.84213 12.2666Z" fill="white"/>
<path d="M8.8422 12.2667L6.67554 10.6917L7.45887 9.60559L8.8422 12.2667Z" fill="white"/>
<path d="M5.68921 12.2667L7.86143 10.6917L7.06976 9.60559L5.68921 12.2667Z" fill="white"/>
<path d="M5.68921 12.2666L6.51977 9.71936L7.79477 10.136L5.68921 12.2666Z" fill="white"/>
<path d="M17.8618 16.4916L17.0312 19.0388L18.3062 19.4555L17.8618 16.4916Z" fill="white"/>
<path d="M17.8617 16.4916L18.6922 19.0388L17.4172 19.4555L17.8617 16.4916Z" fill="white"/>
<path d="M20.4087 18.3444H17.7253V19.686L20.4087 18.3444Z" fill="white"/>
<path d="M20.4089 18.3444L18.2367 19.9194L17.4451 18.8333L20.4089 18.3444Z" fill="white"/>
<path d="M15.3064 18.3444L17.4786 19.9194L18.2703 18.8333L15.3064 18.3444Z" fill="white"/>
<path d="M15.3064 18.3444H17.9897V19.686L15.3064 18.3444Z" fill="white"/>
<path d="M19.4366 21.3418L18.6061 18.7946L17.3311 19.2112L19.4366 21.3418Z" fill="white"/>
<path d="M19.4364 21.3417L17.2642 19.7667L18.0558 18.6805L19.4364 21.3417Z" fill="white"/>
<path d="M16.2839 21.3417L18.4562 19.7667L17.6645 18.6805L16.2839 21.3417Z" fill="white"/>
<path d="M16.2839 21.3418L17.1145 18.7946L18.3895 19.2112L16.2839 21.3418Z" fill="white"/>
<path d="M17.8617 7.41382L18.6922 9.96104L17.4172 10.3777L17.8617 7.41382Z" fill="white"/>
<path d="M17.8618 7.41382L17.0312 9.96104L18.3062 10.3777L17.8618 7.41382Z" fill="white"/>
<path d="M15.3064 9.26941H17.9897V10.6111L15.3064 9.26941Z" fill="white"/>
<path d="M15.3064 9.26941L17.4786 10.8444L18.262 9.7583L15.3064 9.26941Z" fill="white"/>
<path d="M20.4089 9.26941L18.2367 10.8444L17.4451 9.7583L20.4089 9.26941Z" fill="white"/>
<path d="M20.4087 9.26941H17.7253V10.6111L20.4087 9.26941Z" fill="white"/>
<path d="M16.2839 12.2666L17.1145 9.71936L18.3895 10.136L16.2839 12.2666Z" fill="white"/>
<path d="M16.2839 12.2667L18.4562 10.6917L17.6645 9.60559L16.2839 12.2667Z" fill="white"/>
<path d="M19.4364 12.2667L17.2642 10.6917L18.0558 9.60559L19.4364 12.2667Z" fill="white"/>
<path d="M19.4366 12.2666L18.6061 9.71936L17.3311 10.136L19.4366 12.2666Z" fill="white"/>
<path d="M7.26451 16.4916L8.09507 19.0388L6.82007 19.4555L7.26451 16.4916Z" fill="white"/>
<path d="M7.26415 16.4916L6.43359 19.0388L7.70859 19.4555L7.26415 16.4916Z" fill="white"/>
<path d="M4.71704 18.3444H7.40038V19.686L4.71704 18.3444Z" fill="white"/>
<path d="M4.71704 18.3444L6.88926 19.9194L7.68093 18.8333L4.71704 18.3444Z" fill="white"/>
<path d="M9.82006 18.3444L7.64784 19.9194L6.8645 18.8388L9.82006 18.3444Z" fill="white"/>
<path d="M9.81956 18.3444H7.13623V19.686L9.81956 18.3444Z" fill="white"/>
<path d="M5.68921 21.3418L6.51977 18.7946L7.79477 19.2112L5.68921 21.3418Z" fill="white"/>
<path d="M5.68921 21.3417L7.86143 19.7667L7.06976 18.6805L5.68921 21.3417Z" fill="white"/>
<path d="M8.84215 21.3417L6.66992 19.7667L7.46159 18.6805L8.84215 21.3417Z" fill="white"/>
<path d="M8.84213 21.3418L8.01157 18.7946L6.73657 19.2112L8.84213 21.3418Z" fill="white"/>
</svg>
