<svg width="54" height="30" viewBox="0 0 54 30" fill="none" xmlns="http://www.w3.org/2000/svg">
<g clip-path="url(#clip0_93_12029)">
<path d="M53.6517 0H0.318359V30H53.6517V0Z" fill="#4189DD"/>
<path d="M26.9848 7.78074L24.7542 14.6446L28.1903 15.7613L26.9848 7.78074Z" fill="white"/>
<path d="M26.9855 7.78074L29.216 14.6446L25.7799 15.7613L26.9855 7.78074Z" fill="white"/>
<path d="M33.8542 12.7698H26.6292V16.3809L33.8542 12.7698Z" fill="white"/>
<path d="M33.8542 12.7698L28.0098 17.0142L25.8903 14.0892L33.8542 12.7698Z" fill="white"/>
<path d="M20.116 12.7698L25.9604 17.0142L28.0799 14.0892L20.116 12.7698Z" fill="white"/>
<path d="M20.116 12.7698H27.341V16.3809L20.116 12.7698Z" fill="white"/>
<path d="M31.2294 20.8445L28.9988 13.9751L25.5655 15.0889L31.2294 20.8445Z" fill="white"/>
<path d="M31.2299 20.8443L25.3854 16.5999L27.5104 13.6749L31.2299 20.8443Z" fill="white"/>
<path d="M22.741 20.8443L28.5854 16.5999L26.4604 13.6749L22.741 20.8443Z" fill="white"/>
<path d="M22.741 20.8445L24.9715 13.9751L28.4049 15.0889L22.741 20.8445Z" fill="white"/>
</g>
<defs>
<clipPath id="clip0_93_12029">
<rect width="53.3333" height="30" fill="white" transform="translate(0.318359)"/>
</clipPath>
</defs>
</svg>
