<svg width="55" height="30" viewBox="0 0 55 30" fill="none" xmlns="http://www.w3.org/2000/svg">
<g clip-path="url(#clip0_93_10416)">
<path d="M54.6958 -0.33606H0.615192V30.3362H54.6958V-0.33606Z" fill="white"/>
<path d="M12.2344 9.33069L16.4872 2.95013L12.2344 9.33069ZM13.8316 10.3946L18.0844 4.01402L13.8316 10.3946ZM15.4261 11.4585L19.6788 5.07791L15.4261 11.4585Z" fill="black"/>
<path d="M15.9565 11.8109L14.8926 11.0998L19.1454 4.71927L20.2093 5.43038L15.9565 11.8109ZM14.3621 10.747L13.2982 10.0359L17.551 3.65538L18.6149 4.36649L14.3621 10.747ZM12.7676 9.68316L11.7037 8.97205L15.9565 2.59149L17.0204 3.3026L12.7676 9.68316Z" fill="black"/>
<path d="M35.6284 24.9222L39.8812 18.5417L35.6284 24.9222ZM37.2228 25.9861L41.4756 19.6056L37.2228 25.9861ZM38.8173 27.05L43.0701 20.6695L38.8173 27.05Z" fill="black"/>
<path d="M39.3518 27.4083L38.2879 26.6972L42.5407 20.3166L43.6045 21.0277L39.3518 27.4083ZM37.7573 26.3444L36.6934 25.6333L40.9462 19.2527L42.0101 19.9638L37.7573 26.3444ZM36.1601 25.2805L35.0962 24.5694L39.349 18.1888L40.4129 18.9L36.1601 25.2805Z" fill="black"/>
<path d="M36.6926 21.0276L42.0093 24.5693L36.6926 21.0276Z" fill="black"/>
<path d="M36.8721 20.7563L36.5177 21.2879L41.8362 24.8334L42.1906 24.3017L36.8721 20.7563Z" fill="white"/>
<path d="M27.6539 22.6695C31.8896 22.6695 35.3233 19.2358 35.3233 15.0001C35.3233 10.7644 31.8896 7.33063 27.6539 7.33063C23.4182 7.33063 19.9844 10.7644 19.9844 15.0001C19.9844 19.2358 23.4182 22.6695 27.6539 22.6695Z" fill="#CD2E3A"/>
<path d="M21.2729 10.7472C20.0979 12.5111 20.5729 14.8889 22.3367 16.0639C24.1006 17.2389 26.4784 16.7639 27.6534 15C28.8284 13.2361 31.2062 12.7611 32.9701 13.9361C34.7339 15.1111 35.2089 17.4889 34.0339 19.2527C31.6812 22.775 26.9228 23.7305 23.4006 21.3805C19.8784 19.0305 18.9229 14.2694 21.2729 10.7472Z" fill="#0047A0"/>
<path d="M16.49 27.05L12.2344 20.6695L16.49 27.05ZM18.0844 25.9861L13.8316 19.6056L18.0844 25.9861ZM19.6788 24.9222L15.4261 18.5417L19.6788 24.9222Z" fill="black"/>
<path d="M15.9565 27.4083L11.7037 21.0277L12.7676 20.3166L17.0204 26.6972L15.9565 27.4083ZM17.551 26.3444L13.2982 19.9638L14.3621 19.2527L18.6149 25.6333L17.551 26.3444ZM19.1482 25.2805L14.8926 18.9L15.9565 18.1888L20.2093 24.5694L19.1482 25.2805Z" fill="black"/>
<path d="M39.8812 11.4585L35.6284 5.07791L39.8812 11.4585ZM41.4756 10.3946L37.2228 4.01402L41.4756 10.3946ZM43.0728 9.33069L38.8201 2.95013L43.0728 9.33069Z" fill="black"/>
<path d="M39.3505 11.8109L35.0978 5.43038L36.1617 4.71927L40.4144 11.0998L39.3505 11.8109ZM40.945 10.747L36.6922 4.36649L37.7561 3.65538L42.0089 10.0359L40.945 10.747ZM42.5394 9.68316L38.2867 3.3026L39.3505 2.59149L43.6033 8.97205L42.5394 9.68316Z" fill="black"/>
<path d="M15.1599 23.3277L16.7543 22.2638L15.1599 23.3277ZM36.6932 8.9721L38.5544 7.73044L36.6932 8.9721ZM40.1488 6.6721L41.7432 5.60822L40.1488 6.6721Z" fill="black"/>
<path d="M15.3401 23.5942L14.9873 23.0609L16.5818 21.997L16.9346 22.5276L15.3401 23.5942ZM36.8707 9.23868L36.5179 8.70813L38.379 7.46646L38.7318 7.99702L36.8707 9.23868ZM40.3262 6.93868L39.9734 6.40813L41.5679 5.34424L41.9207 5.87479L40.3262 6.93868Z" fill="white"/>
</g>
<defs>
<clipPath id="clip0_93_10416">
<rect width="53.3333" height="30" fill="white" transform="translate(0.987305)"/>
</clipPath>
</defs>
</svg>
