<svg width="54" height="30" viewBox="0 0 54 30" fill="none" xmlns="http://www.w3.org/2000/svg">
<g clip-path="url(#clip0_93_9020)">
<path d="M57.3182 0H-2.68182V30H57.3182V0Z" fill="#006600"/>
<path d="M57.3182 0H-2.68182V21.4306H57.3182V0Z" fill="white"/>
<path d="M57.3182 0H-2.68182V8.56944H57.3182V0Z" fill="#CC0000"/>
<path d="M26.1175 14.6C26.2675 14.3444 26.5925 14.2555 26.848 14.4055C27.0091 14.5 27.1092 14.6666 27.1119 14.85V16.9944H27.5175V14.85C27.5286 14.5555 27.773 14.3194 28.0675 14.3305C28.2536 14.3361 28.423 14.4361 28.5119 14.5944C28.7314 13.9305 28.373 13.2138 27.7119 12.9944C27.0508 12.775 26.3314 13.1333 26.1119 13.7944C26.0314 14.0638 26.0314 14.3444 26.1175 14.6Z" fill="#F8C300"/>
<path d="M26.4047 14.0388C26.7658 13.9638 27.1352 14.1277 27.3185 14.45C27.5047 14.1305 27.8685 13.9638 28.2324 14.0388C28.163 13.5333 27.6963 13.1833 27.1935 13.2527C26.7824 13.3111 26.463 13.6361 26.4047 14.0388Z" fill="white"/>
<path d="M27.1182 16.139C27.0376 17.0334 26.2487 17.6945 25.3487 17.614C24.9876 17.5779 24.6432 17.4279 24.3793 17.1779C24.0348 18.0473 23.0487 18.4668 22.1793 18.1223C22.0487 18.0723 21.9293 18.0084 21.8182 17.9223C21.9737 19.4834 24.3126 19.1612 24.4876 17.6473C25.2237 18.9362 26.8376 18.5668 27.3126 16.9862L27.1182 16.139Z" fill="#F8C300"/>
<path d="M27.518 16.139C27.5985 17.0334 28.3874 17.6945 29.2874 17.614C29.6486 17.5779 29.993 17.4279 30.2569 17.1779C30.6013 18.0473 31.5875 18.4668 32.4569 18.1223C32.5875 18.0723 32.7069 18.0084 32.818 17.9223C32.6625 19.4834 30.3236 19.1612 30.1486 17.6473C29.4124 18.9362 27.7985 18.5668 27.3235 16.9862L27.518 16.139Z" fill="#F8C300"/>
<path d="M25.5545 18.9139C25.2295 19.6195 24.5739 19.7389 24.0045 19.1695C24.0045 19.1695 24.235 19.0084 24.4795 18.9639C24.435 18.7695 24.5295 18.5 24.66 18.35C24.7989 18.4445 24.9961 18.6361 25.0461 18.8611C25.3878 18.8139 25.5545 18.9139 25.5545 18.9139Z" fill="#F8C300"/>
<path d="M28.1066 18.8359C27.6705 19.4748 27.0066 19.4915 26.5371 18.8359C26.5371 18.8359 26.7927 18.7109 27.0371 18.7109C27.0232 18.5109 27.1621 18.2554 27.3177 18.1359C27.4371 18.2498 27.6038 18.472 27.6121 18.6998C27.9621 18.7109 28.1066 18.8359 28.1066 18.8359Z" fill="#F8C300"/>
<path d="M30.6435 19.1693C30.1074 19.7332 29.4491 19.6387 29.0935 18.9137C29.0935 18.9137 29.363 18.8332 29.6074 18.8693C29.6268 18.6693 29.8018 18.4443 29.9768 18.3443C30.0768 18.4804 30.2018 18.7249 30.1768 18.9499C30.5185 19.0249 30.6435 19.1693 30.6435 19.1693Z" fill="#F8C300"/>
<path d="M31.3788 20.8139C28.7232 20.025 25.9149 20.025 23.2593 20.8139L23.0649 20.1583C25.851 19.3278 28.7899 19.3278 31.576 20.1583L31.3788 20.8139Z" fill="#F8C300"/>
<path d="M27.3177 9.21381L27.9483 11.1555L26.2983 9.95547H28.3372L26.6872 11.1555L27.3177 9.21381Z" fill="#F8C300"/>
<path d="M24.3177 10.0195L24.9483 11.9556L23.2983 10.7611H25.3372L23.6872 11.9556L24.3177 10.0195Z" fill="#F8C300"/>
<path d="M22.1236 12.2138L22.7542 14.1555L21.1042 12.9555H23.1431L21.4931 14.1555L22.1236 12.2138Z" fill="#F8C300"/>
<path d="M21.3177 15.2138L21.9483 17.1555L20.2983 15.9555H22.3372L20.6872 17.1555L21.3177 15.2138Z" fill="#F8C300"/>
<path d="M30.3182 10.0195L29.6877 11.9556L31.3377 10.7611H29.2988L30.9488 11.9556L30.3182 10.0195Z" fill="#F8C300"/>
<path d="M32.5123 12.2138L31.8817 14.1555L33.5317 12.9555H31.4929L33.1429 14.1555L32.5123 12.2138Z" fill="#F8C300"/>
<path d="M33.3182 15.2138L32.6877 17.1555L34.3377 15.9555H32.2988L33.9488 17.1555L33.3182 15.2138Z" fill="#F8C300"/>
</g>
<defs>
<clipPath id="clip0_93_9020">
<rect width="53.3333" height="30" fill="white" transform="translate(0.651367)"/>
</clipPath>
</defs>
</svg>
