<svg width="54" height="30" viewBox="0 0 54 30" fill="none" xmlns="http://www.w3.org/2000/svg">
<g clip-path="url(#clip0_93_17528)">
<path d="M54.2258 -0.0332642H0.425781V30.0334H54.2258V-0.0332642Z" fill="#267842"/>
<path d="M0.425781 -0.0332642V15.0001H54.2258V30.0334L0.425781 -0.0332642ZM0.425781 30.0334H27.3258V-0.0332642H54.2258L0.425781 30.0334Z" fill="#13547D"/>
<path d="M0.425781 30.0334L54.2258 -0.0332642L0.425781 30.0334ZM0.425781 15.0001H54.2258H0.425781ZM0.425781 -0.0332642L54.2258 30.0334L0.425781 -0.0332642ZM27.3258 -0.0332642V30.0334V-0.0332642Z" fill="black"/>
<path d="M54.0343 30.239L27.6509 15.4918V30.0334H27.0009V15.4918L0.617616 30.239L0.237061 29.8279L26.3204 15.2501H0.425949V14.7501H26.3204L0.237061 0.172341L0.617616 -0.23877L27.0009 14.5084V-0.033214H27.6509V14.5084L54.0343 -0.23877L54.4148 0.172341L28.3315 14.7501H54.2259V15.2501H28.3315L54.4148 29.8279L54.0343 30.239Z" fill="white"/>
<path d="M27.3265 27.0279C33.9692 27.0279 39.3543 21.6429 39.3543 15.0001C39.3543 8.35737 33.9692 2.97235 27.3265 2.97235C20.6837 2.97235 15.2987 8.35737 15.2987 15.0001C15.2987 21.6429 20.6837 27.0279 27.3265 27.0279Z" fill="white"/>
<path d="M34.9238 9.10274C34.8516 9.10274 34.7766 9.06941 34.7266 9.01108C33.0266 6.91108 30.5099 5.62774 27.8127 5.49163C27.6738 5.4833 27.5655 5.36663 27.5738 5.22774C27.5821 5.08885 27.6988 4.98052 27.8377 4.98885C30.6766 5.13608 33.3294 6.4833 35.1155 8.69719C35.2044 8.80552 35.1877 8.96386 35.0766 9.04719C35.0349 9.08608 34.9822 9.10274 34.9238 9.10274Z" fill="#267842"/>
<path d="M37.0845 14.7499C36.9512 14.7499 36.8428 14.6444 36.8345 14.511C36.7456 12.836 36.2206 11.2083 35.3012 9.79993C35.2262 9.68326 35.2595 9.52771 35.3762 9.45271C35.4928 9.37771 35.6484 9.41104 35.7234 9.52771C36.6873 11.0055 37.2428 12.7222 37.3345 14.4833C37.3428 14.6222 37.2345 14.7388 37.0956 14.7472C37.0928 14.7499 37.09 14.7499 37.0845 14.7499Z" fill="#13547D"/>
<path d="M35.5098 20.5832C35.4626 20.5832 35.4126 20.5693 35.3709 20.5415C35.2542 20.4665 35.2209 20.311 35.2959 20.1943C36.2098 18.786 36.7403 17.1582 36.8292 15.4832C36.8376 15.3443 36.9542 15.2415 37.0931 15.2443C37.232 15.2527 37.3403 15.3693 37.332 15.5082C37.2403 17.2693 36.6848 18.986 35.7209 20.4638C35.6737 20.5443 35.5959 20.5832 35.5098 20.5832Z" fill="#267842"/>
<path d="M27.8259 25.0083C27.6926 25.0083 27.5842 24.9028 27.5759 24.7694C27.5676 24.6306 27.6759 24.5139 27.8148 24.5056C30.512 24.3667 33.0315 23.0861 34.7287 20.9861C34.8176 20.8778 34.9759 20.8611 35.0787 20.9472C35.187 21.0361 35.2037 21.1945 35.1176 21.2972C33.3315 23.5056 30.6787 24.8583 27.8398 25.0056C27.8342 25.0083 27.8314 25.0083 27.8259 25.0083Z" fill="#13547D"/>
<path d="M26.8255 25.0082C26.8199 25.0082 26.8171 25.0082 26.8116 25.0082C23.9727 24.861 21.3199 23.5138 19.5338 21.2999C19.4449 21.1915 19.4616 21.0332 19.5727 20.9499C19.681 20.861 19.8394 20.8777 19.9227 20.9888C21.6227 23.0888 24.1394 24.3721 26.8366 24.5082C26.9755 24.5165 27.0838 24.6332 27.0755 24.7721C27.0671 24.9054 26.9588 25.0082 26.8255 25.0082Z" fill="#267842"/>
<path d="M19.1433 20.5834C19.0599 20.5834 18.9794 20.5417 18.9349 20.4695C17.971 18.9917 17.4155 17.275 17.3238 15.5139C17.3155 15.375 17.4238 15.2584 17.5627 15.25C17.7016 15.2417 17.8183 15.35 17.8266 15.4889C17.9155 17.1639 18.4405 18.7917 19.3599 20.2C19.4349 20.3167 19.4016 20.4722 19.2849 20.5472C19.2349 20.5695 19.1877 20.5834 19.1433 20.5834Z" fill="#13547D"/>
<path d="M17.5674 14.75C17.5619 14.75 17.5591 14.75 17.5536 14.75C17.4147 14.7416 17.3063 14.625 17.3147 14.4861C17.4063 12.725 17.9619 11.0083 18.9258 9.53051C19.0008 9.41385 19.1563 9.38051 19.273 9.45551C19.3897 9.53051 19.423 9.68607 19.348 9.80274C18.4341 11.2111 17.9036 12.8388 17.8147 14.5138C17.8091 14.6444 17.7008 14.75 17.5674 14.75Z" fill="#267842"/>
<path d="M19.7286 9.10274C19.6731 9.10274 19.6147 9.08608 19.5703 9.04719C19.462 8.9583 19.4453 8.79997 19.5314 8.69719C21.3175 6.48885 23.9703 5.13608 26.8092 4.98885C26.9481 4.98052 27.0647 5.08885 27.0731 5.22774C27.0814 5.36663 26.9731 5.4833 26.8342 5.49163C24.1369 5.63052 21.6175 6.91108 19.9203 9.01108C19.8731 9.07497 19.8008 9.10274 19.7286 9.10274Z" fill="#13547D"/>
<path d="M27.076 3.22516V4.72794L27.326 4.3946L27.076 4.22794L26.9094 3.97794L26.576 4.22794H28.0788L27.7455 3.97794L27.5788 4.22794L27.3288 4.3946L27.5788 4.72794V3.22516L27.3288 3.55849L27.5788 3.72516L27.7455 3.97516L28.0788 3.72516H26.576L26.9094 3.97516L27.076 3.72516L27.326 3.55849L27.076 3.22516Z" fill="#267842"/>
<path d="M29.2431 3.37775L28.9681 4.85552L29.2764 4.57219L29.0598 4.36386L28.9431 4.08886L28.5681 4.27219L30.0459 4.54719L29.7625 4.23886L29.5542 4.45552L29.2792 4.57219L29.4625 4.94719L29.7375 3.46941L29.4292 3.75275L29.6459 3.96108L29.7625 4.23608L30.1375 4.05275L28.6598 3.77775L28.9431 4.08608L29.1514 3.86941L29.4264 3.75275L29.2431 3.37775Z" fill="#267842"/>
<path d="M31.3484 3.93066L30.8068 5.33345L31.1623 5.11122L30.9901 4.864L30.9234 4.57233L30.5234 4.68622L31.9262 5.22789L31.704 4.87233L31.4568 5.04456L31.1651 5.11122L31.279 5.51122L31.8207 4.10844L31.4651 4.33067L31.6373 4.57789L31.704 4.86956L32.104 4.75567L30.7012 4.214L30.9234 4.56956L31.1707 4.39733L31.4623 4.33067L31.3484 3.93066Z" fill="#267842"/>
<path d="M33.3154 4.85541L32.521 6.13319L32.9099 5.98318L32.7849 5.70819L32.7765 5.40819L32.3599 5.44707L33.6376 6.24152L33.4876 5.85263L33.2126 5.97763L32.9126 5.98596L32.9515 6.40263L33.746 5.12485L33.3571 5.27485L33.4821 5.54985L33.4904 5.84985L33.9071 5.81096L32.6293 5.01652L32.7793 5.40541L33.0543 5.28041L33.3543 5.27207L33.3154 4.85541Z" fill="#267842"/>
<path d="M35.0726 6.13062L34.0587 7.24173L34.4671 7.16117L34.3948 6.8695L34.4421 6.57228L34.0254 6.53062L35.1365 7.54451L35.056 7.13617L34.7643 7.20839L34.4671 7.16117L34.4254 7.57784L35.4393 6.46673L35.0309 6.54728L35.1032 6.83895L35.056 7.13617L35.4726 7.17784L34.3615 6.16395L34.4421 6.57228L34.7337 6.50006L35.0309 6.54728L35.0726 6.13062Z" fill="#267842"/>
<path d="M36.5704 7.70541L35.3732 8.61097H35.7898L35.7732 8.31097L35.8732 8.02763L35.4732 7.91096L36.3787 9.10819V8.69152L36.0787 8.70819L35.7954 8.60819L35.6787 9.00819L36.876 8.10263H36.4593L36.476 8.40263L36.376 8.68597L36.776 8.80264L35.8704 7.60541V8.02208L36.1704 8.00541L36.4537 8.10541L36.5704 7.70541Z" fill="#13547D"/>
<path d="M37.7569 9.52505L36.4125 10.1945L36.8208 10.2695L36.8597 9.96949L37.0097 9.7056L36.6375 9.51672L37.3069 10.8612L37.3819 10.4528L37.0819 10.4139L36.818 10.2639L36.6291 10.6362L37.9736 9.96672L37.5653 9.89172L37.5264 10.1917L37.3764 10.4556L37.7486 10.6445L37.0791 9.30005L37.0041 9.70838L37.3041 9.74727L37.568 9.89727L37.7569 9.52505Z" fill="#13547D"/>
<path d="M38.5839 11.5388L37.1394 11.9527L37.5283 12.1027L37.62 11.8138L37.8172 11.5832L37.4838 11.3277L37.8977 12.7721L38.0477 12.3832L37.7588 12.2916L37.5283 12.0943L37.2727 12.4277L38.7172 12.0138L38.3283 11.8638L38.2366 12.1527L38.0394 12.3832L38.3727 12.6388L37.9588 11.1943L37.8088 11.5832L38.0977 11.6749L38.3283 11.8721L38.5839 11.5388Z" fill="#13547D"/>
<path d="M39.0253 13.6639L37.5309 13.8028L37.8864 14.0195L38.0281 13.7556L38.2614 13.5667L37.9809 13.2584L38.1198 14.7528L38.3364 14.3973L38.0725 14.2556L37.8837 14.0223L37.5753 14.3028L39.0698 14.1639L38.7142 13.9473L38.5725 14.2112L38.3392 14.4L38.6198 14.7084L38.4809 13.2139L38.2642 13.5695L38.5281 13.7112L38.717 13.9445L39.0253 13.6639Z" fill="#13547D"/>
<path d="M39.0764 15.8361L37.5819 15.6973L37.8903 15.9778L38.0791 15.7445L38.343 15.6028L38.1264 15.2473L37.9875 16.7417L38.268 16.4334L38.0347 16.2445L37.893 15.9806L37.5375 16.1973L39.0319 16.3361L38.7236 16.0556L38.5347 16.2889L38.2708 16.4306L38.4875 16.7861L38.6264 15.2917L38.3458 15.6L38.5791 15.7889L38.7208 16.0528L39.0764 15.8361Z" fill="#267842"/>
<path d="M38.7224 17.9807L37.278 17.5668L37.5335 17.9001L37.7641 17.7029L38.053 17.6112L37.903 17.2224L37.4891 18.6668L37.8224 18.4112L37.6252 18.1807L37.5335 17.8918L37.1447 18.0418L38.5891 18.4557L38.3335 18.1223L38.103 18.3196L37.8141 18.4112L37.9641 18.8001L38.378 17.3557L38.0447 17.6112L38.2419 17.8418L38.3335 18.1307L38.7224 17.9807Z" fill="#267842"/>
<path d="M37.9791 20.0222L36.6346 19.3527L36.8235 19.725L37.0874 19.575L37.3874 19.5361L37.3124 19.1277L36.643 20.4722L37.0152 20.2833L36.8652 20.0194L36.8263 19.7222L36.418 19.7972L37.7624 20.4666L37.5735 20.0944L37.3096 20.2444L37.0096 20.2833L37.0846 20.6916L37.7541 19.3472L37.3819 19.5361L37.5319 19.8L37.5707 20.1L37.9791 20.0222Z" fill="#267842"/>
<path d="M36.8756 21.8973L35.6784 20.9918L35.7951 21.3918L36.0784 21.2918L36.3784 21.3084V20.8918L35.4673 22.089L35.8673 21.9723L35.7673 21.689L35.784 21.389H35.3673L36.5645 22.2946L36.4479 21.8946L36.1645 21.9946L35.8645 21.9779V22.3946L36.7701 21.1973L36.3701 21.314L36.4701 21.5973L36.4534 21.8973H36.8756Z" fill="#267842"/>
<path d="M35.4428 23.5362L34.4289 22.425L34.4706 22.8417L34.7678 22.7945L35.0595 22.8667L35.14 22.4584L34.0289 23.4723L34.4456 23.4306L34.3984 23.1334L34.4706 22.8417L34.0623 22.7612L35.0762 23.8723L35.0345 23.4556L34.7373 23.5028L34.4456 23.4306L34.365 23.8389L35.4762 22.825L35.0595 22.8667L35.1067 23.1639L35.0345 23.4556L35.4428 23.5362Z" fill="#13547D"/>
<path d="M33.7394 24.8807L32.9449 23.6029L32.9061 24.0196L33.206 24.0279L33.481 24.1529L33.6311 23.764L32.3533 24.5585L32.7699 24.5973L32.7783 24.2973L32.9033 24.0223L32.5144 23.8723L33.3088 25.1501L33.3477 24.7335L33.0477 24.7251L32.7727 24.6001L32.6227 24.989L33.9005 24.1946L33.4838 24.1557L33.4755 24.4557L33.3505 24.7307L33.7394 24.8807Z" fill="#13547D"/>
<path d="M31.8149 25.8915L31.2733 24.4888L31.1594 24.8888L31.451 24.9554L31.6983 25.1277L31.9205 24.7721L30.5177 25.3138L30.9177 25.4277L30.9844 25.136L31.1566 24.8888L30.801 24.6665L31.3427 26.0693L31.4566 25.6693L31.1649 25.6027L30.9177 25.4304L30.6955 25.786L32.0983 25.2443L31.6983 25.1304L31.6316 25.4221L31.4594 25.6693L31.8149 25.8915Z" fill="#13547D"/>
<path d="M29.7343 26.5306L29.4593 25.0529L29.2759 25.4279L29.5509 25.5445L29.7593 25.7612L30.0426 25.4529L28.5648 25.7279L28.9398 25.9112L29.0565 25.6362L29.2731 25.4279L28.9648 25.1445L29.2398 26.6223L29.4231 26.2473L29.1481 26.1306L28.9398 25.914L28.6565 26.2223L30.1343 25.9473L29.7593 25.764L29.6426 26.039L29.4259 26.2473L29.7343 26.5306Z" fill="#13547D"/>
<path d="M27.5755 26.7749V25.2721L27.3255 25.6054L27.5755 25.7721L27.7422 26.0221L28.0755 25.7721H26.5728L26.9061 26.0221L27.0728 25.7721L27.3228 25.6054L27.0728 25.2721V26.7749L27.3228 26.4415L27.0728 26.2749L26.9061 26.0249L26.5728 26.2749H28.0755L27.7422 26.0249L27.5755 26.2749L27.3255 26.4415L27.5755 26.7749Z" fill="#13547D"/>
<path d="M25.4087 26.6223L25.6837 25.1445L25.3754 25.4279L25.5921 25.6362L25.7087 25.9112L26.0837 25.7279L24.6059 25.4529L24.8893 25.7612L25.0976 25.5445L25.3726 25.4279L25.1893 25.0529L24.9143 26.5306L25.2226 26.2473L25.0059 26.039L24.8893 25.764L24.5143 25.9473L25.9921 26.2223L25.7087 25.914L25.5004 26.1306L25.2254 26.2473L25.4087 26.6223Z" fill="#267842"/>
<path d="M23.3043 26.0693L23.8459 24.6665L23.4904 24.8888L23.6626 25.136L23.7293 25.4277L24.1293 25.3138L22.7265 24.7721L22.9487 25.1277L23.1959 24.9554L23.4876 24.8888L23.3737 24.4888L22.832 25.8915L23.1876 25.6693L23.0154 25.4221L22.9487 25.1304L22.5487 25.2443L23.9515 25.786L23.7293 25.4304L23.482 25.6027L23.1904 25.6693L23.3043 26.0693Z" fill="#267842"/>
<path d="M21.3373 25.1445L22.1317 23.8667L21.7428 24.0167L21.8678 24.2917L21.8762 24.5917L22.2928 24.5528L21.0151 23.7584L21.1651 24.1473L21.4401 24.0223L21.7401 24.014L21.7012 23.5973L20.9067 24.8751L21.2956 24.7251L21.1706 24.4501L21.1623 24.1501L20.7456 24.189L22.0234 24.9834L21.8734 24.5945L21.5984 24.7195L21.2984 24.7278L21.3373 25.1445Z" fill="#267842"/>
<path d="M19.5791 23.8695L20.593 22.7584L20.1846 22.8389L20.2569 23.1306L20.2096 23.4278L20.6263 23.4695L19.5152 22.4556L19.5957 22.8639L19.8874 22.7917L20.1846 22.8389L20.2263 22.4222L19.2124 23.5334L19.6207 23.4528L19.5485 23.1611L19.5957 22.8639L19.1791 22.8222L20.2902 23.8361L20.2096 23.4278L19.918 23.5L19.6207 23.4528L19.5791 23.8695Z" fill="#267842"/>
<path d="M18.0811 22.2946L19.2783 21.389H18.8616L18.8783 21.689L18.7783 21.9723L19.1783 22.089L18.2727 20.8918V21.3084L18.5727 21.2918L18.8561 21.3918L18.9727 20.9918L17.7755 21.8973H18.1922L18.1755 21.5973L18.2755 21.314L17.8755 21.1973L18.7811 22.3946V21.9779L18.4811 21.9946L18.1977 21.8946L18.0811 22.2946Z" fill="#13547D"/>
<path d="M16.8957 20.4751L18.2402 19.8056L17.8319 19.7306L17.793 20.0306L17.643 20.2945L18.0152 20.4834L17.3457 19.139L17.2707 19.5473L17.5707 19.5862L17.8346 19.7362L18.0235 19.364L16.6791 20.0334L17.0874 20.1084L17.1263 19.8084L17.2763 19.5445L16.9041 19.3556L17.5735 20.7001L17.6485 20.2918L17.3485 20.2529L17.0846 20.1029L16.8957 20.4751Z" fill="#13547D"/>
<path d="M16.0678 18.4612L17.5122 18.0473L17.1233 17.8973L17.0317 18.1862L16.8344 18.4168L17.1678 18.6724L16.7539 17.2279L16.6039 17.6168L16.8928 17.7085L17.1233 17.9057L17.3789 17.5723L15.9344 17.9862L16.3233 18.1362L16.415 17.8473L16.6122 17.6168L16.2789 17.3612L16.6928 18.8057L16.8428 18.4168L16.5539 18.3251L16.3233 18.1279L16.0678 18.4612Z" fill="#13547D"/>
<path d="M15.6259 16.3361L17.1203 16.1973L16.7648 15.9806L16.6231 16.2445L16.3898 16.4334L16.6703 16.7417L16.5314 15.2473L16.3148 15.6028L16.5786 15.7445L16.7675 15.9778L17.0759 15.6973L15.5814 15.8361L15.937 16.0528L16.0786 15.7889L16.312 15.6L16.0314 15.2917L16.1703 16.7861L16.387 16.4306L16.1231 16.2889L15.9342 16.0556L15.6259 16.3361Z" fill="#13547D"/>
<path d="M15.576 14.1639L17.0705 14.3028L16.7622 14.0223L16.5733 14.2556L16.3094 14.3973L16.526 14.7528L16.6649 13.2584L16.3844 13.5667L16.6177 13.7556L16.7594 14.0195L17.1149 13.8028L15.6205 13.6639L15.9288 13.9445L16.1177 13.7112L16.3816 13.5695L16.1649 13.2139L16.026 14.7084L16.3066 14.4L16.0733 14.2112L15.9316 13.9473L15.576 14.1639Z" fill="#267842"/>
<path d="M15.9291 12.0194L17.3735 12.4333L17.118 12.0999L16.8874 12.2972L16.5985 12.3888L16.7485 12.7777L17.1624 11.3333L16.8291 11.5888L17.0263 11.8194L17.118 12.1083L17.5069 11.9583L16.0624 11.5444L16.318 11.8777L16.5485 11.6805L16.8374 11.5888L16.6874 11.2L16.2735 12.6444L16.6069 12.3888L16.4096 12.1583L16.318 11.8694L15.9291 12.0194Z" fill="#267842"/>
<path d="M16.6737 9.97791L18.0181 10.6474L17.8293 10.2751L17.5654 10.4251L17.2654 10.464L17.3404 10.8724L18.0098 9.52792L17.6376 9.7168L17.7876 9.98069L17.8265 10.2779L18.2348 10.2029L16.8904 9.53347L17.0793 9.90569L17.3431 9.75569L17.6432 9.7168L17.5681 9.30847L16.8987 10.6529L17.2709 10.464L17.1209 10.2001L17.082 9.90014L16.6737 9.97791Z" fill="#267842"/>
<path d="M17.7755 8.10263L18.9727 9.00819L18.8561 8.60819L18.5727 8.70819L18.2727 8.69152V9.10819L19.1783 7.91096L18.7783 8.02763L18.8783 8.31097L18.8616 8.61097H19.2783L18.0811 7.70541L18.1977 8.10541L18.4811 8.00541L18.7811 8.02208V7.60541L17.8755 8.80264L18.2755 8.68597L18.1755 8.40263L18.1922 8.10263H17.7755Z" fill="#267842"/>
<path d="M19.2091 6.46386L20.223 7.57497L20.1813 7.1583L19.8841 7.20552L19.5924 7.1333L19.5119 7.54164L20.623 6.52775L20.2063 6.56941L20.2536 6.86664L20.1813 7.1583L20.5897 7.23886L19.5758 6.12775L19.6174 6.54441L19.9147 6.49719L20.2063 6.56941L20.2869 6.16108L19.1758 7.17497L19.5924 7.1333L19.5452 6.83608L19.6174 6.54441L19.2091 6.46386Z" fill="#13547D"/>
<path d="M20.9114 5.1196L21.7058 6.39738L21.7447 5.98071L21.4447 5.97238L21.1697 5.84738L21.0197 6.23627L22.2975 5.44183L21.8808 5.40294L21.8725 5.70294L21.7475 5.97794L22.1364 6.12794L21.3419 4.85016L21.303 5.26683L21.603 5.27516L21.878 5.40016L22.028 5.01127L20.7502 5.80571L21.1669 5.8446L21.1752 5.5446L21.3002 5.2696L20.9114 5.1196Z" fill="#13547D"/>
<path d="M22.8374 4.10844L23.3791 5.51122L23.493 5.11122L23.2013 5.04456L22.9541 4.87233L22.7319 5.22789L24.1346 4.68622L23.7346 4.57233L23.668 4.864L23.4957 5.11122L23.8513 5.33345L23.3096 3.93066L23.1957 4.33067L23.4874 4.39733L23.7346 4.56956L23.9569 4.214L22.5541 4.75567L22.9541 4.86956L23.0207 4.57789L23.193 4.33067L22.8374 4.10844Z" fill="#13547D"/>
<path d="M24.9177 3.46941L25.1927 4.94719L25.376 4.57219L25.101 4.45552L24.8927 4.23886L24.6094 4.54719L26.0871 4.27219L25.7121 4.08886L25.5955 4.36386L25.3788 4.57219L25.6871 4.85552L25.4121 3.37775L25.2288 3.75275L25.5038 3.86941L25.7121 4.08608L25.9955 3.77775L24.5177 4.05275L24.8927 4.23608L25.0094 3.96108L25.226 3.75275L24.9177 3.46941Z" fill="#13547D"/>
<path d="M25.8563 9.29176C24.6202 9.41398 22.4118 9.95565 21.634 10.3362C21.2007 10.5445 20.7118 11.0084 20.5368 11.3806C20.2118 12.0584 20.2479 12.7168 20.6757 13.6473C21.0507 14.4862 21.2674 15.1806 21.2674 15.5695C21.2674 15.8945 21.2674 15.9001 21.6229 16.2334L21.9785 16.5668L21.7368 16.8334C21.6035 16.9806 21.4952 17.1168 21.4952 17.1473C21.4952 17.1779 21.5452 17.2473 21.6091 17.3029C21.7674 17.4529 21.7507 17.5084 21.5424 17.5084C21.309 17.5084 20.9424 17.614 20.8896 17.689C20.8729 17.7195 20.8952 17.8112 20.9479 17.8862C21.0368 18.0195 21.0285 18.0251 20.8507 18.1418C20.7452 18.2056 20.609 18.3168 20.5452 18.3834C20.4479 18.4918 20.4479 18.514 20.5313 18.5751C20.6118 18.6334 20.6118 18.6556 20.484 18.8001C20.2868 19.0306 20.2507 19.2473 20.3757 19.339C20.484 19.4195 20.9507 19.4195 21.0813 19.339C21.1146 19.314 21.2146 19.339 21.2868 19.389C21.4257 19.4806 21.4424 19.4779 21.659 19.3556L21.8924 19.2251L22.0313 19.3751C22.1896 19.5556 22.3118 19.5668 22.5396 19.4473C22.6285 19.4001 22.7729 19.3723 22.8702 19.3751C23.0118 19.389 23.0702 19.4334 23.1924 19.6584C23.4229 20.0806 23.6229 20.089 23.8146 19.6723C23.9285 19.4334 24.0118 19.4168 24.0118 19.639C24.0118 19.9223 24.2618 20.039 24.5035 19.8529C24.5618 19.8056 24.6285 19.764 24.6535 19.764C24.6757 19.764 24.7757 19.9195 24.8674 20.1056C25.0229 20.4112 25.2729 20.689 25.3896 20.689C25.4118 20.689 25.4952 20.6418 25.5618 20.5834C25.6674 20.5029 25.7007 20.4001 25.7202 20.1501C25.7341 19.9668 25.7535 19.8195 25.7702 19.8195C25.7841 19.8195 25.9257 19.8918 26.0841 19.9695C26.2507 20.0584 26.6257 20.1751 26.9313 20.2362C27.5618 20.3668 27.7507 20.4668 28.0535 20.8501C28.1757 21.0001 28.3118 21.1501 28.3618 21.1918C28.5507 21.3473 29.0396 21.2223 29.1646 20.9834C29.1952 20.9195 29.2229 20.7445 29.2229 20.5945C29.2229 20.4306 29.2702 20.2529 29.3313 20.1445C29.3896 20.0445 29.4535 19.8112 29.4702 19.6112C29.5118 19.1279 29.6841 18.814 30.1841 18.3418C31.0979 17.4862 31.8702 16.6168 32.1646 16.1001C32.3868 15.7112 32.8035 15.2556 33.0618 15.1279C33.3035 14.9973 33.4285 14.9779 33.3702 15.0779C33.3479 15.1084 33.3479 15.2001 33.3646 15.2751C33.4118 15.4584 33.6618 15.5418 33.9813 15.4723C34.3202 15.3918 34.4618 15.289 34.5979 15.014C34.6646 14.8751 34.8146 14.7168 34.9563 14.6306C35.2202 14.464 35.3396 14.3334 35.3396 14.2223C35.3396 14.1751 35.1424 13.9501 34.9063 13.7251C34.6646 13.4945 34.2535 13.0473 33.9952 12.7306C31.8535 10.089 29.1868 8.96676 25.8563 9.29176ZM28.0785 9.51676C29.5452 9.69731 30.8924 10.239 32.0702 11.1195C32.5202 11.4529 33.3396 12.2168 33.5202 12.4723L33.6285 12.6279L33.1979 12.489C32.9563 12.414 32.7229 12.3501 32.6757 12.3501C32.6285 12.3501 32.4785 12.2445 32.3507 12.1112C32.0368 11.8056 31.4368 11.4501 30.8813 11.2473C29.7341 10.8168 28.6091 10.7973 25.8757 11.139C25.1896 11.2279 24.6535 11.2612 24.0479 11.2473C22.6702 11.2223 22.5646 11.2306 22.3729 11.3279C22.1591 11.4362 22.0757 11.5779 22.0757 11.8251C22.0757 12.2918 22.4591 12.639 23.3785 12.9806C23.6452 13.0862 23.8452 13.2612 23.8091 13.364C23.7424 13.5445 23.5785 13.5695 22.8868 13.4973C22.3118 13.439 22.1896 13.4473 22.0063 13.5223C21.7729 13.6223 21.6813 13.8279 21.7729 14.0445C21.8063 14.1168 22.0035 14.3918 22.2118 14.6584C22.4257 14.9251 22.584 15.1723 22.5702 15.2084C22.5563 15.2473 22.4118 15.289 22.2452 15.3168C22.0785 15.3418 21.9063 15.389 21.8618 15.4223C21.7285 15.539 21.7729 15.7862 21.959 15.964C22.0563 16.0556 22.1313 16.1779 22.1313 16.2362C22.1313 16.3168 22.0674 16.2945 21.8229 16.0973L21.5174 15.8584L21.4841 15.4418C21.4424 14.9779 21.2868 14.5029 20.8535 13.5029C20.5785 12.8779 20.5618 12.8084 20.5618 12.3473C20.5563 11.9306 20.5785 11.8056 20.7118 11.5251C21.0868 10.7112 21.9146 10.2945 24.2063 9.77509C25.4924 9.48898 27.0091 9.39176 28.0785 9.51676ZM32.3729 12.6168C32.9785 12.7084 33.5285 12.889 33.9479 13.139C34.2118 13.2945 35.1202 14.1084 35.1674 14.2279C35.1896 14.2862 35.0174 14.4418 34.9341 14.4418C34.9035 14.4418 34.8368 14.3251 34.7785 14.1862C34.6396 13.8723 34.4479 13.7862 33.6646 13.689C32.3702 13.5223 30.3118 13.7362 29.1341 14.1556C27.5757 14.7112 26.7424 15.4473 26.4118 16.5473C26.3452 16.7695 26.2146 17.0279 26.1229 17.1362C25.9479 17.3418 25.6257 17.4695 25.4007 17.4362C25.2924 17.4223 25.3257 17.3779 25.6479 17.1473C26.2535 16.7001 26.2952 16.3834 25.7618 16.1168C25.4979 15.9834 25.4202 15.9695 24.6757 15.9695C24.0396 15.9751 23.7646 16.0029 23.3479 16.1084C23.0563 16.1806 22.8063 16.2584 22.7896 16.289C22.7757 16.314 22.8785 16.3473 23.0202 16.3612C23.3952 16.4084 23.7813 16.6584 23.9146 16.9445C24.0729 17.3084 24.0702 18.1834 23.9007 18.3973C23.7618 18.5779 23.6035 18.589 23.4091 18.4306C23.3285 18.3668 23.1868 18.314 23.0952 18.314C22.8535 18.314 22.5368 18.4806 22.4646 18.639C22.4063 18.7695 22.3979 18.7695 22.2424 18.689C22.1535 18.6418 22.0285 18.6001 21.9757 18.6001C21.8202 18.6001 21.5618 18.8223 21.5618 18.9473C21.5618 19.0806 21.4118 19.214 21.3785 19.1112C21.3563 19.0529 21.3035 19.0612 21.1368 19.1418C20.9646 19.2223 20.9035 19.2306 20.8313 19.1751C20.7424 19.1001 20.7729 18.8168 20.8952 18.6612C20.9285 18.614 21.009 18.4779 21.0702 18.3556C21.1285 18.2334 21.2285 18.1056 21.2924 18.0723C21.4924 17.9668 21.8979 17.5473 21.8979 17.4334C21.8979 17.3834 21.8396 17.2945 21.7729 17.2501C21.6146 17.1334 21.6674 17.0751 21.9563 17.0695C22.2063 17.064 22.4368 16.889 22.4952 16.6612C22.5535 16.439 22.4202 16.0473 22.2285 15.8334C22.0896 15.6834 22.0729 15.6501 22.1618 15.6834C22.4257 15.7834 22.4868 15.7751 22.7452 15.6195C22.9007 15.5306 23.4091 15.2556 23.8757 15.0056L24.7368 14.5556H24.0229C23.2452 14.5556 22.7229 14.4556 22.4813 14.2751C22.3229 14.1529 22.0979 13.8112 22.1507 13.7668C22.1674 13.7501 22.5091 13.7668 22.9202 13.8001C23.5507 13.864 23.7563 13.8584 24.3729 13.7834C25.3424 13.6529 26.4785 13.4418 27.6841 13.1529C28.2341 13.0223 28.9035 12.8695 29.1702 12.8056C30.3035 12.5418 31.4479 12.4695 32.3729 12.6168ZM33.9479 14.6584C33.9813 14.6834 34.0285 14.8334 34.0452 15.0001C34.0785 15.2973 34.0757 15.3001 33.9118 15.3334C33.8202 15.3584 33.6896 15.3501 33.6202 15.3334C33.5229 15.3001 33.5063 15.2584 33.5285 15.1279C33.5452 15.039 33.5341 14.9445 33.4979 14.9056C33.4507 14.8584 33.4924 14.8056 33.6313 14.7251C33.8479 14.6001 33.8618 14.5945 33.9479 14.6584Z" fill="#13547D"/>
</g>
<defs>
<clipPath id="clip0_93_17528">
<rect width="53.3333" height="30" fill="white" transform="translate(0.65918)"/>
</clipPath>
</defs>
</svg>
