<svg width="55" height="30" viewBox="0 0 55 30" fill="none" xmlns="http://www.w3.org/2000/svg">
<g clip-path="url(#clip0_93_11308)">
<path d="M54.3275 0H0.994141V30H54.3275V0Z" fill="#006A4E"/>
<path d="M54.3275 6H0.994141V12H54.3275V6Z" fill="#FFCE00"/>
<path d="M54.3275 18H0.994141V24H54.3275V18Z" fill="#FFCE00"/>
<path d="M18.9941 0H0.994141V18H18.9941V0Z" fill="#D21034"/>
<path d="M9.99411 3.2999L8.23022 8.7249L11.0858 9.65545" fill="white"/>
<path d="M9.99438 3.2999L11.7583 8.7249L8.90271 9.65545" fill="white"/>
<path d="M15.4195 7.23603H9.71948V10.236" fill="white"/>
<path d="M15.4189 7.23603L10.805 10.5833L9.04114 8.15825" fill="white"/>
<path d="M13.3414 13.6139L11.5775 8.18885L8.72754 9.11941" fill="white"/>
<path d="M13.3417 13.614L8.7334 10.2612L10.4973 7.83062" fill="white"/>
<path d="M6.64709 13.614L11.2554 10.2612L9.49154 7.83062" fill="white"/>
<path d="M6.64709 13.6139L8.41098 8.18885L11.2665 9.11941" fill="white"/>
<path d="M4.56897 7.23603L9.18286 10.5833L10.9467 8.1527" fill="white"/>
<path d="M4.56897 7.23603H10.269V10.236" fill="white"/>
</g>
<defs>
<clipPath id="clip0_93_11308">
<rect width="53.3333" height="30" fill="white" transform="translate(0.994141)"/>
</clipPath>
</defs>
</svg>
