<svg width="55" height="30" viewBox="0 0 55 30" fill="none" xmlns="http://www.w3.org/2000/svg">
<g clip-path="url(#clip0_93_11323)">
<path d="M0.992188 0H54.3255V30H0.992188V0Z" fill="#E70013"/>
<path d="M27.6591 22.5C31.8012 22.5 35.1591 19.1421 35.1591 15C35.1591 10.8579 31.8012 7.5 27.6591 7.5C23.5169 7.5 20.1591 10.8579 20.1591 15C20.1591 19.1421 23.5169 22.5 27.6591 22.5Z" fill="white"/>
<path d="M27.6591 9.375C24.5535 9.375 22.0341 11.8944 22.0341 15C22.0341 18.1056 24.5535 20.625 27.6591 20.625C29.4563 20.6222 31.1396 19.7639 32.1952 18.3139C31.3674 19.075 30.2841 19.5 29.1591 19.5C26.673 19.5 24.6591 17.4861 24.6591 15C24.6591 12.5139 26.673 10.5 29.1591 10.5C30.2841 10.5028 31.3674 10.9278 32.1952 11.6889C31.1396 10.2361 29.4563 9.37778 27.6591 9.375Z" fill="#E70013"/>
<path d="M25.7841 15L31.8896 13.0167L28.1174 18.2111V11.7889L31.8896 16.9834L25.7841 15Z" fill="#E70013"/>
</g>
<defs>
<clipPath id="clip0_93_11323">
<rect width="53.3333" height="30" fill="white" transform="translate(0.992188)"/>
</clipPath>
</defs>
</svg>
