<svg width="55" height="30" viewBox="0 0 55 30" fill="none" xmlns="http://www.w3.org/2000/svg">
<g clip-path="url(#clip0_93_9068)">
<path d="M54.3265 -0.305664H0.993164V30.0916H54.3265V-0.305664Z" fill="#00843D"/>
<path d="M23.4378 3.36652C24.7711 3.93874 25.7017 5.26374 25.7017 6.80263C25.7017 8.86652 24.0295 10.5443 21.96 10.5443C21.0323 10.5443 20.1906 10.2082 19.535 9.65263C19.9406 9.82763 20.3823 9.92763 20.8461 9.95263C22.91 10.0415 24.6545 8.44429 24.7434 6.38041C24.8045 5.18041 24.2823 4.09152 23.4378 3.36652Z" fill="white"/>
<path d="M19.8706 6.11662L20.2956 4.81384L19.1873 5.6194H20.5595L19.4511 4.81384L19.8706 6.11662Z" fill="white"/>
<path d="M19.8706 4.19175L20.2956 2.88898L19.1873 3.69453H20.5595L19.4484 2.88898L19.8706 4.19175Z" fill="white"/>
<path d="M21.7742 5.18058L22.1992 3.87781L21.0908 4.68336H22.4658L21.3575 3.87781L21.7742 5.18058Z" fill="white"/>
<path d="M17.9711 7.05278L18.3961 5.75L17.285 6.55556H18.6573L17.5489 5.75L17.9711 7.05278Z" fill="white"/>
<path d="M19.8706 8.0388L20.2956 6.73602L19.1873 7.54158H20.5595L19.4511 6.73602L19.8706 8.0388Z" fill="white"/>
<path d="M14.5819 0.0361938H6.46521V30.0945H14.5819V0.0361938Z" fill="#D22630"/>
<path d="M6.46521 -1.94983V-1.65538L6.92077 -1.23038L6.76521 -1.08594L7.09021 -0.78594L6.94577 -0.655385V-0.847051H6.66521V-0.622051L7.29577 -0.0303845H7.61521L7.65132 -0.23594H7.46521L7.66521 -0.422051L8.16521 0.0279487L7.66521 0.483504L7.46521 0.305727H7.65132L7.61521 0.0946155H7.29577L6.67077 0.686282V0.911282H6.95132V0.722393L7.09577 0.852949L6.77077 1.15295L6.92632 1.29739L6.47077 1.72239V2.01684L7.24299 1.29462L7.08743 1.15017L7.41243 0.850171L7.13188 0.591838L7.31799 0.422393L7.67077 0.750171L8.44854 0.0335042L7.66799 -0.683162L7.31243 -0.352607L7.12632 -0.522051L7.40688 -0.783162L7.08188 -1.08316L7.23743 -1.22761L6.46521 -1.94983ZM6.46521 -0.522051V0.586282L6.64577 0.400171V0.18906H6.83743L6.99299 0.0335042L6.83743 -0.122051H6.64577V-0.338718L6.46521 -0.522051ZM7.78188 -0.124829L7.75688 0.025171L7.78188 0.180727L7.94854 0.025171L7.78188 -0.124829Z" fill="#383739"/>
<path d="M6.46521 -1.91937V-1.68326L6.95132 -1.22771L6.79577 -1.08326L7.12077 -0.783262L6.92632 -0.59715V-0.816595H6.69021V-0.622151L7.30688 -0.0471504H7.59299L7.62354 -0.213817H7.41799L7.67354 -0.455484L8.19854 0.0306273L7.66799 0.516738L7.41799 0.280627H7.6291L7.59854 0.113961H7.31243L6.69577 0.688961V0.883405H6.93188V0.663961L7.12632 0.850072L6.80132 1.15007L6.95688 1.29452L6.47077 1.75007V1.98063L7.21243 1.29452L7.05688 1.15007L7.38188 0.855627L7.10132 0.594516L7.31799 0.394516L7.67354 0.725072L8.41521 0.0334049L7.66799 -0.652706L7.31243 -0.32215L7.09576 -0.52215L7.37632 -0.783262L7.05132 -1.08326L7.20688 -1.22771L6.46521 -1.91937ZM6.46521 -0.486039V0.561183L6.62632 0.400072V0.163961H6.83188L6.96243 0.0334049L6.83188 -0.0971504H6.62632V-0.327706C6.62354 -0.330484 6.46521 -0.486039 6.46521 -0.486039ZM7.79576 -0.0860393L7.77632 0.0250717L7.79576 0.136183L7.90965 0.0250717L7.79576 -0.0860393Z" fill="#FFC72C"/>
<path d="M6.46521 3.52228V3.81672L6.92077 4.24172L6.76521 4.38617L7.09021 4.68617L6.94577 4.81672V4.62506H6.66521V4.85006L7.29577 5.44172H7.61521L7.65132 5.23617H7.46521L7.66521 5.05006L8.16521 5.50561L7.66521 5.96117L7.46521 5.77506H7.65132L7.61521 5.56395H7.29577L6.66521 6.15561V6.38061H6.94577V6.18895L7.09021 6.3195L6.76521 6.6195L6.92077 6.76395L6.46521 7.19728V7.49173L7.23743 6.7695L7.08188 6.62506L7.40688 6.32506L7.12632 6.06395L7.31243 5.8945L7.66799 6.22506L8.44854 5.50839L7.66799 4.78617L7.31243 5.11672L7.12632 4.94728L7.40688 4.68617L7.08188 4.38895L7.23743 4.2445L6.46521 3.52228ZM6.46521 4.95006V6.05561L6.64577 5.8695V5.65284H6.83743L6.99299 5.49728L6.83743 5.34172H6.64577V5.12506L6.46521 4.95006ZM7.78188 5.3445L7.75688 5.4945L7.78188 5.65006L7.94854 5.4945L7.78188 5.3445Z" fill="#383739"/>
<path d="M6.46521 3.55255V3.78866L6.95132 4.24422L6.79577 4.38866L7.12077 4.68866L6.92632 4.87477V4.65533H6.69021V4.84977L7.30688 5.42477H7.59299L7.62354 5.25811H7.41799L7.67354 5.01644L8.2041 5.50255L7.67354 5.98866L7.41799 5.75255H7.6291L7.59854 5.58588H7.31243L6.69577 6.16644V6.36088H6.93188V6.14144L7.12632 6.32755L6.80132 6.62755L6.95688 6.772L6.47077 7.22755V7.46366L7.21243 6.77755L7.05688 6.63311L7.38188 6.33311L7.10132 6.072L7.31799 5.87199L7.67354 6.20255L8.42077 5.51644L7.66799 4.81922L7.31243 5.14977L7.09577 4.94977L7.37632 4.68866L7.05132 4.38866L7.20688 4.24422L6.46521 3.55255ZM6.46521 4.98311V6.03033L6.62632 5.86922V5.63866H6.83188L6.96243 5.50811L6.83188 5.37755H6.62632V5.14144L6.46521 4.98311ZM7.79577 5.38588L7.77632 5.497L7.79577 5.60811L7.90965 5.497L7.79577 5.38588Z" fill="#FFC72C"/>
<path d="M6.46521 9.17206V9.4665L6.92077 9.8915L6.76521 10.0359L7.09021 10.3359L6.94577 10.4665V10.2748H6.66521V10.4998L7.29577 11.0915H7.61521L7.65132 10.8859H7.46521L7.66521 10.6998L8.16521 11.1554L7.66521 11.6109L7.46521 11.4248H7.65132L7.61521 11.2137H7.29577L6.67077 11.7998V12.0248H6.95132V11.8332L7.09577 11.9637L6.77077 12.2721L6.92632 12.4165L6.47077 12.8415V13.1387L7.24299 12.4165L7.08743 12.2721L7.41243 11.9721L7.13188 11.7109L7.31799 11.5415L7.67354 11.8721L8.4541 11.1554L7.66799 10.4387L7.31243 10.7693L7.12632 10.5998L7.40688 10.3387L7.08188 10.0387L7.23743 9.89428L6.46521 9.17206ZM6.46521 10.5998V11.7082L6.64577 11.5221V11.3054H6.83743L6.99299 11.1498L6.83743 10.9943H6.64577V10.7776L6.46521 10.5998ZM7.78188 10.9943L7.75688 11.1443L7.78188 11.2998L7.94854 11.1443L7.78188 10.9943Z" fill="#383739"/>
<path d="M6.46521 9.20294V9.43905L6.95132 9.89461L6.79577 10.0391L7.12077 10.3391L6.92632 10.5252V10.3057H6.69021V10.5002L7.30688 11.0752H7.59299L7.62354 10.9085H7.41799L7.67354 10.6668L8.2041 11.1529L7.67354 11.6391L7.41799 11.4029H7.6291L7.59854 11.2363H7.31243L6.69577 11.8113V12.0057H6.93188V11.7863L7.12632 11.9724L6.80132 12.2779L6.95688 12.4224L6.47077 12.8779V13.1141L7.21243 12.4279L7.05688 12.2835L7.38188 11.9835L7.10132 11.7224L7.31799 11.5224L7.67354 11.8529L8.42077 11.1668L7.66799 10.4696L7.31243 10.8002L7.09577 10.6002L7.37632 10.3391L7.05132 10.0391L7.20688 9.89461L6.46521 9.20294ZM6.46521 10.6363V11.6835L6.62632 11.5224V11.2918H6.83188L6.96243 11.1613L6.83188 11.0307H6.62632V10.8002C6.62354 10.7918 6.46521 10.6363 6.46521 10.6363ZM7.79577 11.0363L7.77632 11.1474L7.79577 11.2585L7.90965 11.1474L7.79577 11.0363Z" fill="#FFC72C"/>
<path d="M6.46521 14.8224V15.1168L6.92077 15.5418L6.76521 15.6863L7.09021 15.9863L6.94577 16.1168V15.9252H6.66521V16.1502L7.29577 16.7418H7.61521L7.65132 16.5363H7.46521L7.66521 16.3502L8.16521 16.8057L7.66521 17.2613L7.46521 17.0835H7.65132L7.61521 16.8668H7.29577L6.66521 17.4585V17.6835H6.94577V17.4918L7.09021 17.6224L6.76521 17.9224L6.92077 18.0668L6.46521 18.4946V18.7891L7.23743 18.0668L7.08188 17.9224L7.40688 17.6224L7.12632 17.3613L7.31243 17.1918L7.66799 17.5224L8.44854 16.8057L7.66799 16.0891L7.31243 16.4196L7.12632 16.2502L7.40688 15.9891L7.08188 15.6891L7.23743 15.5446L6.46521 14.8224ZM6.46521 16.2502V17.3585L6.64577 17.1724V16.9557H6.83743L6.99299 16.8002L6.83743 16.6446H6.64577V16.4279L6.46521 16.2502ZM7.78188 16.6474L7.75688 16.7974L7.78188 16.9529L7.94854 16.7974L7.78188 16.6474Z" fill="#383739"/>
<path d="M6.46521 14.8528V15.0889L6.95132 15.5444L6.79577 15.6889L7.12077 15.9889L6.92632 16.175V15.9556H6.69021V16.15L7.30688 16.725H7.59299L7.62354 16.5583H7.41799L7.67354 16.3167L8.2041 16.8028L7.67354 17.2889L7.41799 17.0528H7.6291L7.59854 16.8861H7.31243L6.69577 17.4611V17.6556H6.93188V17.4361L7.12632 17.6222L6.80132 17.9222L6.95688 18.0667L6.47077 18.5222V18.7583L7.21243 18.0722L7.05688 17.9278L7.38188 17.6278L7.10132 17.3667L7.31799 17.1667L7.67354 17.4972L8.42077 16.8111L7.66799 16.1139L7.31243 16.4444L7.09577 16.2444L7.37632 15.9833L7.05132 15.6833L7.20688 15.5389L6.46521 14.8528ZM6.46521 16.2861V17.3333L6.62632 17.1722V16.9417H6.83188L6.96243 16.8111L6.83188 16.6806H6.62632V16.45C6.62354 16.4417 6.46521 16.2861 6.46521 16.2861ZM7.79577 16.6861L7.77632 16.7972L7.79577 16.9083L7.90965 16.7972L7.79577 16.6861Z" fill="#FFC72C"/>
<path d="M6.46521 20.475V20.7695L6.92077 21.1945L6.76521 21.3389L7.09021 21.6389L6.94577 21.7695V21.5778H6.66521V21.8028L7.29577 22.3945H7.61521L7.65132 22.1889H7.46521L7.66521 22.0028L8.16521 22.4584L7.66521 22.9139L7.46521 22.7278H7.65132L7.61521 22.5167H7.29577L6.66521 23.1084V23.3334H6.94577V23.1417L7.09021 23.2723L6.76521 23.5723L6.92077 23.7167L6.46521 24.15V24.4445L7.23743 23.7223L7.08188 23.5778L7.40688 23.2778L7.12632 23.0167L7.31243 22.8473L7.66799 23.1778L8.44854 22.4611L7.66799 21.7389L7.31243 22.0695L7.12632 21.9L7.40688 21.6389L7.08188 21.3389L7.23743 21.1945L6.46521 20.475ZM6.46521 21.9028V23.0111L6.64577 22.825V22.6084H6.83743L6.99299 22.4528L6.83743 22.2973H6.64577V22.0806L6.46521 21.9028ZM7.78188 22.2973L7.75688 22.4473L7.78188 22.6028L7.94854 22.4473L7.78188 22.2973Z" fill="#383739"/>
<path d="M6.46521 20.5027V20.7389L6.95132 21.1944L6.79577 21.3389L7.12077 21.6389L6.92632 21.825V21.6055H6.69021V21.8L7.30688 22.375H7.59299L7.62354 22.2083H7.41799L7.67354 21.9666L8.2041 22.4527L7.67077 22.9444L7.41521 22.7083H7.62632L7.59577 22.5416H7.30965L6.69299 23.1166V23.3111H6.9291V23.0916L7.12354 23.2777L6.79854 23.5777L6.9541 23.7222L6.46799 24.1777V24.4139L7.20965 23.7277L7.0541 23.5833L7.3791 23.2833L7.09854 23.0222L7.31521 22.8222L7.67077 23.1527L8.41799 22.4666L7.66521 21.7694L7.30965 22.1L7.09299 21.9L7.37354 21.6389L7.04854 21.3389L7.2041 21.1944L6.46521 20.5027ZM6.46521 21.9361V22.9777L6.62632 22.8166V22.5861H6.83188L6.96243 22.4555L6.83188 22.325H6.62632V22.0944C6.62354 22.0916 6.46521 21.9361 6.46521 21.9361ZM7.79577 22.3361L7.77632 22.4472L7.79577 22.5583L7.90965 22.4472L7.79577 22.3361Z" fill="#FFC72C"/>
<path d="M14.5792 -1.94983V-1.65538L14.1236 -1.23038L14.2792 -1.08594L13.9542 -0.78594L14.0986 -0.655385V-0.847051H14.3792V-0.622051L13.7431 -0.024829H13.4264L13.3903 -0.230385H13.5764L13.3764 -0.416496L12.8764 0.0335042L13.3764 0.48906L13.5764 0.302949H13.3903L13.4264 0.0918376H13.7458L14.3708 0.683504V0.908504H14.0903V0.722393L13.9458 0.852949L14.2708 1.15295L14.1153 1.29739L14.5736 1.72239V2.01684L13.8014 1.29462L13.9569 1.15017L13.6319 0.852949L13.9125 0.591838L13.7264 0.422393L13.3736 0.750171L12.5958 0.0335042L13.3764 -0.683162L13.7319 -0.352607L13.9181 -0.522051L13.6375 -0.783162L13.9625 -1.08316L13.8069 -1.22761L14.5792 -1.94983ZM14.5792 -0.522051V0.586282L14.3986 0.400171V0.18906H14.2069L14.0514 0.0335042L14.2069 -0.122051H14.3986V-0.338718L14.5792 -0.522051ZM13.2625 -0.124829L13.2875 0.025171L13.2625 0.180727L13.0958 0.025171L13.2625 -0.124829Z" fill="#383739"/>
<path d="M14.5799 -1.91937V-1.68326L14.0938 -1.22771L14.2494 -1.08326L13.9244 -0.783262L14.1188 -0.59715V-0.816595H14.3549V-0.62215L13.7327 -0.0443726H13.4466L13.416 -0.211039H13.6271L13.3771 -0.452706L12.8466 0.036183L13.3771 0.522294L13.6271 0.286183H13.416L13.4466 0.119516H13.7327L14.3494 0.694516V0.888961H14.1132V0.669516L13.9188 0.855627L14.2438 1.15841L14.0882 1.30285L14.5744 1.7584V1.98896L13.8327 1.30285L13.9882 1.15841L13.6632 0.858405L13.9438 0.597294L13.7271 0.397294L13.3716 0.72785L12.6327 0.036183L13.3799 -0.649928L13.7355 -0.319373L13.9521 -0.519373L13.6716 -0.780484L13.9938 -1.08326L13.8382 -1.22771L14.5799 -1.91937ZM14.5799 -0.486039V0.561183L14.4188 0.400072V0.163961H14.216L14.0855 0.0334051L14.216 -0.0971503H14.4216V-0.327706C14.4216 -0.330484 14.5799 -0.486039 14.5799 -0.486039ZM13.2494 -0.0860392L13.2688 0.0250719L13.2494 0.136183L13.1355 0.0250719L13.2494 -0.0860392Z" fill="#FFC72C"/>
<path d="M14.5785 3.52228V3.81672L14.123 4.24172L14.2785 4.38617L13.9535 4.68617L14.098 4.81672V4.62505H14.3785V4.85005L13.7424 5.4445H13.4257L13.3896 5.23894H13.5757L13.3757 5.05283L12.8757 5.50839L13.3757 5.96394L13.5757 5.77783H13.3896L13.4257 5.56672H13.7452L14.3757 6.15839V6.38339H14.0952V6.19172L13.9507 6.32228L14.2757 6.62228L14.1202 6.76672L14.5757 7.19172V7.48616L13.8035 6.76394L13.9591 6.6195L13.6341 6.3195L13.9146 6.05839L13.7285 5.88894L13.373 6.2195L12.5924 5.50283L13.373 4.78061L13.7285 5.11117L13.9146 4.94172L13.6341 4.68061L13.9591 4.38061L13.8035 4.23617L14.5785 3.52228ZM14.5785 4.95005V6.05561L14.398 5.8695V5.65283H14.2063L14.0507 5.49728L14.2063 5.34172H14.398V5.12505L14.5785 4.95005ZM13.2619 5.3445L13.2869 5.4945L13.2619 5.65005L13.0952 5.4945L13.2619 5.3445Z" fill="#383739"/>
<path d="M14.5799 3.55255V3.78866L14.0938 4.24422L14.2494 4.38866L13.9244 4.68866L14.1188 4.87477V4.65533H14.3549V4.84977L13.7382 5.42477H13.4521L13.4216 5.25811H13.6327L13.3771 5.01644L12.8466 5.50255L13.3771 5.98866L13.6327 5.75255H13.4216L13.4521 5.58588H13.7382L14.3549 6.16644V6.36088H14.1188V6.14144L13.9244 6.32755L14.2494 6.62755L14.0938 6.772L14.5799 7.22755V7.46366L13.8382 6.77755L13.9938 6.63311L13.6688 6.33311L13.9494 6.072L13.7327 5.87199L13.3771 6.20255L12.6327 5.51644L13.3799 4.81922L13.7355 5.14977L13.9521 4.94977L13.6716 4.68866L13.9938 4.38866L13.8382 4.24422L14.5799 3.55255ZM14.5799 4.98311V6.03033L14.4188 5.86922V5.63866H14.216L14.0855 5.50811L14.216 5.37755H14.4216V5.14144L14.5799 4.98311ZM13.2494 5.38588L13.2688 5.497L13.2494 5.60811L13.1355 5.497L13.2494 5.38588Z" fill="#FFC72C"/>
<path d="M14.5792 9.17206V9.4665L14.1236 9.8915L14.2792 10.0359L13.9542 10.3359L14.0986 10.4665V10.2748H14.3792V10.4998L13.7486 11.0915H13.4292L13.393 10.8859H13.5792L13.3792 10.6998L12.8792 11.1554L13.3792 11.6109L13.5792 11.4248H13.393L13.4292 11.2137H13.7486L14.3792 11.8054V12.0304H14.0986V11.8387L13.9542 11.9693L14.2792 12.2693L14.1236 12.4137L14.5792 12.8387V13.1332L13.8069 12.4109L13.9625 12.2665L13.6375 11.9665L13.9181 11.7054L13.7319 11.5359L13.3764 11.8665L12.5958 11.1443L13.3764 10.4276L13.7319 10.7582L13.9181 10.5887L13.6375 10.3276L13.9625 10.0276L13.8069 9.88317L14.5792 9.17206ZM14.5792 10.5998V11.7082L14.3986 11.5221V11.3054H14.2069L14.0514 11.1498L14.2069 10.9943H14.3986V10.7776L14.5792 10.5998ZM13.2625 10.9943L13.2875 11.1443L13.2625 11.2998L13.0958 11.1443L13.2625 10.9943Z" fill="#383739"/>
<path d="M14.5799 9.20294V9.43905L14.0938 9.89461L14.2494 10.0391L13.9244 10.3391L14.1188 10.5252V10.3057H14.3549V10.5002L13.7382 11.0752H13.4521L13.4216 10.9085H13.6327L13.3771 10.6668L12.8466 11.1529L13.3771 11.6391L13.6327 11.4029H13.4216L13.4521 11.2363H13.7382L14.3549 11.8113V12.0057H14.1188V11.7863L13.9244 11.9724L14.2494 12.2724L14.0938 12.4168L14.5799 12.8724V13.1085L13.8382 12.4224L13.9938 12.2779L13.6688 11.9779L13.9494 11.7168L13.7327 11.5168L13.3771 11.8474L12.6327 11.1557L13.3799 10.4696L13.7355 10.8002L13.9521 10.6002L13.6716 10.3391L13.9966 10.0391L13.841 9.89461L14.5799 9.20294ZM14.5799 10.6363V11.6835L14.4188 11.5224V11.2918H14.216L14.0855 11.1613L14.216 11.0307H14.4216V10.8002C14.4216 10.7918 14.5799 10.6363 14.5799 10.6363ZM13.2494 11.0363L13.2688 11.1474L13.2494 11.2585L13.1355 11.1474L13.2494 11.0363Z" fill="#FFC72C"/>
<path d="M14.5792 14.8224V15.1168L14.1236 15.5418L14.2792 15.6863L13.9542 15.9863L14.0986 16.1168V15.9252H14.3792V16.1502L13.7486 16.7418H13.4292L13.393 16.5363H13.5792L13.3792 16.3502L12.8792 16.8057L13.3792 17.2613L13.5792 17.0752H13.393L13.4292 16.8641H13.7486L14.3792 17.4557V17.6807H14.0986V17.4891L13.9542 17.6196L14.2792 17.9196L14.1236 18.0641L14.5792 18.4891V18.7835L13.8069 18.0613L13.9625 17.9168L13.6375 17.6168L13.9181 17.3557L13.7319 17.1863L13.3764 17.5279L12.5958 16.8113L13.3764 16.0946L13.7319 16.4252L13.9181 16.2557L13.6375 15.9946L13.9625 15.6946L13.8069 15.5502L14.5792 14.8224ZM14.5792 16.2502V17.3585L14.3986 17.1724V16.9557H14.2069L14.0514 16.8002L14.2069 16.6446H14.3986V16.4279L14.5792 16.2502ZM13.2625 16.6474L13.2875 16.7974L13.2625 16.9529L13.0958 16.7974L13.2625 16.6474Z" fill="#383739"/>
<path d="M14.5799 14.8528V15.0889L14.0938 15.5444L14.2494 15.6889L13.9244 15.9889L14.1188 16.175V15.9556H14.3549V16.15L13.7382 16.725H13.4521L13.4216 16.5583H13.6327L13.3771 16.3167L12.8466 16.8056L13.3771 17.2917L13.6327 17.0556H13.4216L13.4521 16.8889H13.7382L14.3549 17.4639V17.6583H14.1188V17.4389L13.9244 17.625L14.2494 17.925L14.0938 18.0694L14.5799 18.525V18.7611L13.8382 18.075L13.9938 17.9306L13.6688 17.6306L13.9494 17.3694L13.7327 17.1694L13.3771 17.5L12.6327 16.8167L13.3799 16.1306L13.7355 16.4611L13.9521 16.2611L13.6716 16L13.9966 15.7L13.841 15.5556L14.5799 14.8528ZM14.5799 16.2861V17.3333L14.4188 17.1722V16.9417H14.216L14.0855 16.8111L14.216 16.6806H14.4216V16.45C14.4216 16.4417 14.5799 16.2861 14.5799 16.2861ZM13.2494 16.6861L13.2688 16.7972L13.2494 16.9083L13.1355 16.7972L13.2494 16.6861Z" fill="#FFC72C"/>
<path d="M14.5792 20.475V20.7695L14.1236 21.1945L14.2792 21.3389L13.9542 21.6389L14.0986 21.7695V21.5778H14.3792V21.8028L13.7486 22.3945H13.4292L13.393 22.1889H13.5792L13.3792 22.0028L12.8792 22.4584L13.3792 22.9139L13.5792 22.7278H13.393L13.4292 22.5167H13.7486L14.3792 23.1084V23.3334H14.0986V23.1417L13.9542 23.2723L14.2792 23.5723L14.1236 23.7167L14.5792 24.1417V24.4362L13.8069 23.7139L13.9625 23.5695L13.6375 23.2778L13.9181 23.0167L13.7319 22.8473L13.3764 23.1778L12.5958 22.4612L13.3764 21.7445L13.7319 22.075L13.9181 21.9056L13.6375 21.6445L13.9625 21.3445L13.8069 21.2L14.5792 20.475ZM14.5792 21.9028V23.0112L14.3986 22.825V22.6084H14.2069L14.0514 22.4528L14.2069 22.2973H14.3986V22.0806L14.5792 21.9028ZM13.2625 22.2973L13.2875 22.4473L13.2625 22.6028L13.0958 22.4473L13.2625 22.2973Z" fill="#383739"/>
<path d="M14.5787 20.5027V20.7389L14.0926 21.1944L14.2482 21.3389L13.9232 21.6389L14.1176 21.825V21.6055H14.3537V21.8L13.7315 22.375H13.4454L13.4148 22.2083H13.6259L13.3704 21.9666L12.8398 22.4527L13.3704 22.9389L13.6259 22.7027H13.4148L13.4454 22.5361H13.7315L14.3482 23.1111V23.3055H14.1121V23.0861L13.9176 23.2722L14.2426 23.5722L14.0871 23.7166L14.5732 24.1722V24.4083L13.8315 23.7222L13.9871 23.5777L13.6621 23.2777L13.9426 23.0166L13.7259 22.8166L13.3704 23.1472L12.6232 22.4611L13.3704 21.775L13.7259 22.1055L13.9426 21.9055L13.6621 21.6444L13.9871 21.3444L13.8315 21.2L14.5787 20.5027ZM14.5787 21.9361V22.9777L14.4176 22.8166V22.5861H14.2148L14.0843 22.4555L14.2148 22.325H14.4204V22.0944C14.4204 22.0916 14.5787 21.9361 14.5787 21.9361ZM13.2482 22.3361L13.2676 22.4472L13.2482 22.5583L13.1343 22.4472L13.2482 22.3361Z" fill="#FFC72C"/>
<path d="M7.12074 26.6251C7.15963 26.7945 7.29574 26.9251 7.33185 27.1001C7.39574 26.9139 7.45685 26.7584 7.41241 26.5584C7.38185 26.4139 7.25685 26.3139 7.24574 26.1639C7.10963 26.2862 7.08185 26.4556 7.12074 26.6251ZM7.09019 27.3417C7.2013 27.4973 7.35963 27.6112 7.53185 27.6917C7.49574 27.5556 7.56241 27.4556 7.63185 27.3473C7.71796 27.2167 7.75685 27.0917 7.68741 26.9417C7.65685 27.0167 7.61241 27.0806 7.56241 27.1473C7.48741 27.2528 7.43741 27.3417 7.4263 27.4723C7.34019 27.4084 7.3013 27.3112 7.25685 27.2167C7.18741 27.0806 7.07074 26.9723 6.94019 26.8973C6.97074 27.0556 6.99574 27.2167 7.09019 27.3417ZM7.71796 27.8028C7.69296 27.8889 7.67352 27.9723 7.67907 28.0639C7.60407 27.9834 7.50963 27.9251 7.41796 27.8584C7.29852 27.7639 7.15685 27.6917 7.06241 27.5667C7.0763 27.7473 7.1513 27.8973 7.30407 28.0084C7.45963 28.1223 7.64852 28.1889 7.8013 28.3084C7.7763 28.1417 7.84019 28.0139 7.89019 27.8584C7.93463 27.7139 7.89018 27.5667 7.79574 27.4584C7.79296 27.5834 7.7513 27.6862 7.71796 27.8028ZM8.06796 28.3584C8.09852 28.4834 8.18741 28.5834 8.25407 28.7C8.08741 28.65 7.94296 28.5612 7.79296 28.4751C7.61241 28.3806 7.42352 28.3139 7.26241 28.1889C7.34296 28.4834 7.54296 28.6612 7.83463 28.7445C8.03463 28.8056 8.2013 28.7751 8.44018 28.8695C8.40963 28.7028 8.36518 28.5278 8.28463 28.3834C8.22352 28.2778 8.15963 28.1723 8.11796 28.0528C8.06796 28.1528 8.04296 28.2473 8.06796 28.3584ZM8.67907 28.8139C8.73463 28.9084 8.80963 28.9945 8.90407 29.0584C8.66796 29.0723 8.47907 28.9223 8.25407 28.9195C8.11518 28.9139 7.97907 28.9584 7.83463 28.9445C8.00407 29.0584 8.18463 29.1612 8.39018 29.1889C8.65963 29.2251 8.91241 29.1528 9.20685 29.1834C9.06796 29.0834 8.99574 28.9528 8.91241 28.8139C8.79852 28.6389 8.69296 28.5139 8.47074 28.4834C8.55963 28.5751 8.60963 28.7001 8.67907 28.8139ZM9.50963 29.2C9.09296 29.2695 8.69852 29.3612 8.2763 29.3667C8.74852 29.5334 9.19296 29.5612 9.66518 29.3917C9.92074 29.3028 10.1124 29.2528 10.3013 29.2667C10.5819 29.2862 10.9235 29.3973 11.2985 29.7917L11.443 29.6723C10.9069 29.1945 10.2013 29.0862 9.50963 29.2Z" fill="#FFC72C"/>
<path d="M7.48191 3.55552L6.83191 3.15552V2.19996L7.48191 1.79996V1.29996L8.09858 0.930519H8.59024L9.5208 0.399963H11.5236L12.4541 0.924963H12.9458L13.5625 1.29441V1.79996L14.2152 2.20274V3.1583L13.5652 3.5583V4.06385L12.9486 4.4333H12.4569L11.5264 4.95552H9.5208L8.59024 4.43052H8.09858L7.48191 4.06107V3.55552Z" fill="#383739"/>
<path d="M9.52647 0.419373L8.59592 0.944373H8.1098L7.5098 1.30548V1.81104L6.85425 2.20826V3.13882L7.50425 3.53326V4.04437L8.10147 4.40548H8.59314L9.52369 4.93048H11.5181L12.4487 4.40548H12.9404L13.5404 4.04437V3.54437L14.1904 3.14993V2.21382L13.5404 1.81937V1.30826L12.9404 0.94715H12.4487L11.5181 0.42215H9.52647V0.419373ZM9.57925 0.616595H11.4681L12.3987 1.14159H12.8848L13.3404 1.41659V1.92215L13.9931 2.31937V3.04159L13.3431 3.43604V3.94159L12.8876 4.21659H12.4015L11.4654 4.74437H9.57647L8.64591 4.21937H8.1598L7.70425 3.94437V3.44437L7.05425 3.04993V2.31937L7.70425 1.92493V1.41382L8.1598 1.13882H8.64591L9.57925 0.616595Z" fill="#00843D"/>
<path d="M10.5124 2.68876V0.635986H9.58463L8.65407 1.16099H8.16796L7.72629 1.42765V1.93321L7.07629 2.33321V2.66932H10.5374V4.7221H11.4652L12.3957 4.1971H12.8818L13.3235 3.93043V3.42488L13.9735 3.02488V2.68876H10.5124Z" fill="#FFC72C"/>
<path d="M7.07117 2.68876V3.02488L7.72117 3.42488V3.93043L8.16283 4.1971H8.64894L9.5795 4.7221H10.5073V2.66932H13.9684V2.33321L13.3184 1.93321V1.42765L12.8767 1.16099H12.3906L11.4601 0.635986H10.5323V2.68876H7.07117Z" fill="white"/>
<path d="M8.48776 1.35282L8.32665 1.20282L8.16554 1.30282L8.32665 1.45282L8.12109 1.57782H8.57109L8.95998 1.94449L9.08498 1.81393L8.70998 1.45838V1.21671L8.48776 1.35282Z" fill="#383739"/>
<path d="M9.24875 1.28599L9.08764 1.13599L8.92652 1.23599L9.08764 1.38599L8.88208 1.51099H9.33208L9.71819 1.87765L9.84319 1.7471L9.46819 1.39154V1.14988L9.24875 1.28599Z" fill="#383739"/>
<path d="M8.43185 1.77781L8.27074 1.62781L8.10963 1.72781L8.27074 1.87781L8.06519 2.00281H8.51518L8.90129 2.36947L9.02629 2.23892L8.65129 1.88336V1.6417L8.43185 1.77781Z" fill="#383739"/>
<path d="M10.5211 0.616516H10.1156L9.90447 0.822072H9.48781L9.18225 0.983183L9.2517 1.15818L9.52114 1.01374H9.64058L10.0573 1.49429L10.5128 1.21929L10.5211 0.616516Z" fill="#383739"/>
<path d="M8.3291 1.22772L8.47355 1.36383L8.3541 1.43883L8.20966 1.30272L8.3291 1.22772ZM8.68744 1.25272V1.46383L9.0541 1.80828L8.95966 1.90828L8.58466 1.55272H8.2041L8.68744 1.25272Z" fill="#D22630"/>
<path d="M9.08523 1.16119L9.22968 1.2973L9.11024 1.3723L8.96579 1.23619L9.08523 1.16119ZM9.44635 1.18619V1.3973L9.81301 1.74175L9.71857 1.84175L9.34357 1.48619H8.96301L9.44635 1.18619Z" fill="#D22630"/>
<path d="M8.27396 1.65845L8.4184 1.79456L8.29896 1.86956L8.15451 1.73345L8.27396 1.65845ZM8.63507 1.68345V1.89456L9.00173 2.239L8.90729 2.339L8.53229 1.98345H8.15173L8.63507 1.68345Z" fill="#D22630"/>
<path d="M10.5124 0.635986H10.1263L9.91521 0.841542H9.49854L9.21521 0.985986L9.27077 1.1221L9.52632 0.985986H9.66243L10.0735 1.46099L10.5152 1.19154L10.5124 0.635986Z" fill="#D22630"/>
<path d="M8.48776 4.00835L8.32665 4.15835L8.16554 4.05835L8.32665 3.90835L8.12109 3.78335H8.57109L8.9572 3.41669L9.0822 3.54724L8.7072 3.9028V4.14446L8.48776 4.00835Z" fill="#383739"/>
<path d="M9.24875 4.07769L9.08764 4.22769L8.92652 4.12769L9.08764 3.97769L8.88208 3.85269H9.33208L9.71819 3.48602L9.84319 3.61658L9.47097 3.97213V4.2138L9.24875 4.07769Z" fill="#383739"/>
<path d="M8.43185 3.58068L8.27074 3.73068L8.10963 3.63068L8.27074 3.48068L8.06519 3.35568H8.51518L8.90129 2.98901L9.02629 3.11957L8.65129 3.47513V3.71679L8.43185 3.58068Z" fill="#383739"/>
<path d="M10.5211 4.74429H10.1156L9.90447 4.53874H9.48781L9.18225 4.37763L9.2517 4.20263L9.52114 4.34707H9.64058L10.0573 3.86652L10.5128 4.14152L10.5211 4.74429Z" fill="#383739"/>
<path d="M8.3291 4.13338L8.47355 3.99726L8.3541 3.92226L8.20966 4.05838L8.3291 4.13338ZM8.68744 4.10837V3.89726L9.0541 3.55282L8.95966 3.45282L8.58466 3.80838H8.2041L8.68744 4.10837Z" fill="#D22630"/>
<path d="M9.08523 4.19734L9.22968 4.06123L9.11024 3.98623L8.96579 4.12234L9.08523 4.19734ZM9.44635 4.17234V3.96123L9.81301 3.61678L9.71857 3.51678L9.34357 3.87234H8.96301L9.44635 4.17234Z" fill="#D22630"/>
<path d="M8.27396 3.70283L8.4184 3.56672L8.29896 3.49172L8.15451 3.62783L8.27396 3.70283ZM8.63507 3.67783V3.46672L9.00173 3.12228L8.90729 3.02228L8.53229 3.37783H8.15173L8.63507 3.67783Z" fill="#D22630"/>
<path d="M10.513 4.72496H10.1269L9.91579 4.51941H9.49912L9.21301 4.37496L9.26857 4.23885L9.52412 4.37496H9.66024L10.0713 3.89996L10.513 4.16941V4.72496Z" fill="#D22630"/>
<path d="M8.22378 2.02507L8.02934 1.95563L8.02378 1.96118L7.77378 2.13618V2.18063L7.37378 2.68618L7.77378 3.19174V3.23618L8.02934 3.41118L8.22378 3.34174L8.10434 3.26118V3.11118L8.14878 3.05563H8.35989V2.3084H8.14878L8.10434 2.25285V2.10285L8.22378 2.02507Z" fill="#383739"/>
<path d="M7.79276 2.13908L8.02887 1.97241L8.17331 2.02797L8.08443 2.08908V2.25852L8.14554 2.32797H8.34554V3.03352H8.14554L8.08443 3.10297V3.27241L8.17331 3.33352L8.02887 3.38908L7.79276 3.22241V3.17797L7.39832 2.68075L7.79276 2.18352V2.13908Z" fill="#D22630"/>
<path d="M12.5519 1.35282L12.713 1.20282L12.8742 1.30282L12.713 1.45282L12.9186 1.57782H12.4658L12.0797 1.94449L11.9547 1.81393L12.3297 1.45838V1.21671L12.5519 1.35282Z" fill="#383739"/>
<path d="M11.7957 1.28599L11.9568 1.13599L12.118 1.23599L11.9568 1.38599L12.1624 1.51099H11.7124L11.3263 1.87765L11.2013 1.7471L11.5763 1.39154V1.14988L11.7957 1.28599Z" fill="#383739"/>
<path d="M12.6134 1.77781L12.7745 1.62781L12.9356 1.72781L12.7745 1.87781L12.98 2.00281H12.53L12.1439 2.36947L12.0189 2.23892L12.3939 1.88336V1.6417L12.6134 1.77781Z" fill="#383739"/>
<path d="M10.5205 0.616516H10.9261L11.1372 0.822072H11.5538L11.8594 0.983183L11.79 1.15818L11.5205 1.01374H11.4011L10.9844 1.49429L10.5288 1.21929L10.5205 0.616516Z" fill="#383739"/>
<path d="M12.7152 1.22772L12.5708 1.36383L12.6902 1.43883L12.8347 1.30272L12.7152 1.22772ZM12.3569 1.25272V1.46383L11.9902 1.80828L12.0847 1.90828L12.4597 1.55272H12.8402L12.3569 1.25272Z" fill="#D22630"/>
<path d="M11.9598 1.16119L11.8154 1.2973L11.9348 1.3723L12.0793 1.23619L11.9598 1.16119ZM11.5987 1.18619V1.3973L11.2321 1.74175L11.3265 1.84175L11.7015 1.48619H12.0821L11.5987 1.18619Z" fill="#D22630"/>
<path d="M12.771 1.65845L12.6265 1.79456L12.746 1.86956L12.8904 1.73345L12.771 1.65845ZM12.4099 1.68345V1.89456L12.0432 2.239L12.1377 2.339L12.5127 1.98345H12.8932L12.4099 1.68345Z" fill="#D22630"/>
<path d="M10.5316 0.635986H10.9177L11.1288 0.841542H11.5455L11.8316 0.985986L11.7761 1.1221L11.5205 0.985986H11.3844L10.9733 1.46099L10.5316 1.19154V0.635986Z" fill="#D22630"/>
<path d="M12.5519 4.00835L12.713 4.15835L12.8742 4.05835L12.713 3.90835L12.9186 3.78335H12.4658L12.0797 3.41669L11.9547 3.54724L12.3297 3.9028V4.14446L12.5519 4.00835Z" fill="#383739"/>
<path d="M11.7957 4.07769L11.9568 4.22769L12.118 4.12769L11.9568 3.97769L12.1624 3.85269H11.7124L11.3263 3.48602L11.2013 3.61658L11.5763 3.97213V4.2138L11.7957 4.07769Z" fill="#383739"/>
<path d="M12.6134 3.58068L12.7745 3.73068L12.9356 3.63068L12.7745 3.48068L12.98 3.35568H12.53L12.1439 2.98901L12.0189 3.11957L12.3939 3.47513V3.71679L12.6134 3.58068Z" fill="#383739"/>
<path d="M10.5205 4.74429H10.9261L11.1372 4.53874H11.5538L11.8594 4.37763L11.79 4.20263L11.5205 4.34707H11.4011L10.9844 3.86652L10.5288 4.14152L10.5205 4.74429Z" fill="#383739"/>
<path d="M12.7152 4.13338L12.5708 3.99726L12.6902 3.92226L12.8347 4.05838L12.7152 4.13338ZM12.3569 4.10837V3.89726L11.9902 3.55282L12.0847 3.45282L12.4597 3.80838H12.8402L12.3569 4.10837Z" fill="#D22630"/>
<path d="M11.9598 4.19734L11.8154 4.06123L11.9348 3.98623L12.0793 4.12234L11.9598 4.19734ZM11.5987 4.17234V3.96123L11.2321 3.61678L11.3265 3.51678L11.7015 3.87234H12.0821L11.5987 4.17234Z" fill="#D22630"/>
<path d="M12.771 3.70283L12.6265 3.56672L12.746 3.49172L12.8904 3.62783L12.771 3.70283ZM12.4099 3.67783V3.46672L12.0432 3.12228L12.1377 3.02228L12.5127 3.37783H12.8932L12.4099 3.67783Z" fill="#D22630"/>
<path d="M10.5316 4.72496H10.9177L11.1288 4.51941H11.5455L11.8316 4.37496L11.7761 4.23885L11.5205 4.37496H11.3844L10.9733 3.89996L10.5316 4.16941V4.72496Z" fill="#D22630"/>
<path d="M12.8206 2.02507L13.015 1.95563L13.0206 1.96118L13.2706 2.13618V2.18063L13.6706 2.68618L13.2706 3.19174V3.23618L13.015 3.41118L12.8206 3.34174L12.94 3.26118V3.11118L12.8956 3.05563H12.6873V2.3084H12.8984L12.9428 2.25285V2.10285L12.8206 2.02507Z" fill="#383739"/>
<path d="M13.2483 2.13908L13.0122 1.97241L12.8678 2.02797L12.9567 2.08908V2.25852L12.8956 2.32797H12.6956V3.03352H12.8956L12.9567 3.10297V3.27241L12.8678 3.33352L13.0122 3.38908L13.2483 3.22241V3.17797L13.6428 2.68075L13.2483 2.18352V2.13908Z" fill="#D22630"/>
<path d="M7.87664 3.10547L7.76553 3.01102V2.96658L7.52942 2.68047L7.76553 2.39436V2.34991L7.87664 2.25547L8.07109 2.41658H7.9572L8.12386 2.58602H8.50442L8.80442 2.34991V1.73325H9.55719L10.4294 1.19713V1.05825L10.2933 0.969356H10.2544L10.11 1.0638L10.0905 1.13325L9.97664 0.97769L10.1961 0.791578H10.2322L10.4822 0.611023H10.5766L10.8266 0.791578H10.8627L11.0822 0.97769L10.9683 1.13325L10.9489 1.0638L10.8044 0.969356H10.7655L10.6294 1.05825V1.19713L11.4933 1.73325H12.2461V2.34991L12.5461 2.58602H12.9266L13.0933 2.41658H12.9794L13.1739 2.25547L13.285 2.34991V2.39436L13.5211 2.68047L13.285 2.96658V3.01102L13.1739 3.10547L12.9794 2.94436H13.0933L12.9266 2.77491H12.5461L12.2461 3.01102V3.62769H11.4933L10.6211 4.1638V4.30269L10.7572 4.39158H10.7961L10.9405 4.29713L10.96 4.22769L11.0739 4.38324L10.8544 4.56936H10.8183L10.5683 4.74991H10.4739L10.2239 4.56936H10.1877L9.96831 4.38324L10.0822 4.22769L10.1016 4.29713L10.2461 4.39158H10.285L10.4211 4.30269V4.1638L9.54886 3.62769H8.79608V3.01102L8.49608 2.77491H8.11553L7.94886 2.94436H8.06275L7.87664 3.10547Z" fill="#383739"/>
<path d="M10.5319 4.40845L10.6263 4.48345L10.5319 4.55845V4.40845ZM10.2319 4.54456L10.4819 4.72512H10.5124V4.58623L10.3819 4.48623L10.5124 4.38623V4.11956L9.58188 3.54456H8.89577V2.97234L8.53744 2.69456H8.00133L7.86522 2.84456L7.7291 2.69456H7.56799L7.78744 2.96123V3.00567L7.87355 3.08067L8.01244 2.96956H7.93744V2.93901L8.11799 2.7529H8.51799L8.83466 2.99734V3.6029H9.57077L10.4569 4.14456V4.31123L10.3069 4.41123H10.2513L10.0958 4.30567L10.0847 4.26678L10.0097 4.37234L10.2097 4.53901H10.2291V4.54456H10.2319ZM7.86799 2.55012L7.97355 2.66956H7.76244L7.86799 2.55012ZM10.5124 0.805674L10.418 0.880674L10.5124 0.955674V0.805674ZM13.0708 2.68901L13.1763 2.80845L13.2819 2.68901H13.0708ZM10.8124 0.82234L10.5624 0.641785H10.5319V0.780674L10.6624 0.880674L10.5319 0.980673V1.24734L11.4652 1.81956H12.1513V2.38901L12.5069 2.66401H13.043L13.1791 2.51401L13.3152 2.66401H13.4763L13.2569 2.39734V2.3529L13.1708 2.2779L13.0319 2.38901H13.1124V2.41401L12.9319 2.60012H12.5319L12.2152 2.35567V1.7529H11.4791L10.593 1.21123V1.04456L10.743 0.944562H10.7986L10.9541 1.05012L10.9652 1.08901L11.0402 0.983451L10.8402 0.816785H10.8124V0.82234Z" fill="#FFC72C"/>
<path d="M10.5128 4.55289L10.4184 4.47789L10.5128 4.40289V4.55289ZM7.97394 2.68901L7.86839 2.80845L7.76283 2.68901H7.97394ZM10.8128 4.54456L10.5628 4.72512H10.5323V4.68901V4.58345L10.6628 4.48345L10.5323 4.38345V4.11678L11.4628 3.54178H12.1489V2.96956L12.5045 2.69456H13.0406L13.1767 2.84456L13.3128 2.69456H13.4739L13.2545 2.96123V3.00567L13.1684 3.08067L13.0295 2.96956H13.1101V2.93901L12.9295 2.7529H12.5295L12.2128 2.99734V3.6029H11.4767L10.5906 4.14456V4.31123L10.7406 4.41123H10.7962L10.9517 4.30567L10.9628 4.26678L11.0378 4.37234L10.8378 4.53901H10.8184V4.54456H10.8128ZM13.1767 2.55012L13.0712 2.66956H13.2823L13.1767 2.55012ZM10.2323 0.82234L10.4823 0.641785H10.5128V0.780674L10.3823 0.880674L10.5128 0.980673V1.24734L9.58228 1.81956H8.89617V2.38901L8.54061 2.66401H8.0045L7.86839 2.51401L7.73228 2.66401H7.57117L7.79061 2.39734V2.3529L7.87672 2.2779L8.01561 2.38901H7.93783V2.41401L8.11839 2.60012H8.51839L8.83505 2.35567V1.7529H9.57117L10.4573 1.21123V1.04456L10.3073 0.944562H10.2517L10.0962 1.05012L10.0851 1.08901L10.0101 0.983451L10.2101 0.816785C10.2017 0.82234 10.2323 0.82234 10.2323 0.82234ZM10.5323 0.952896L10.6267 0.877896L10.5323 0.802896V0.952896Z" fill="white"/>
<path d="M10.5128 2.68894V1.27228L9.58506 1.83894H8.91283V2.40006L8.57117 2.66672H10.5351V4.08339L11.4628 3.51672H12.1351V2.96117L12.4767 2.6945L10.5128 2.68894Z" fill="#00843D"/>
<path d="M8.57349 2.68894L8.91515 2.95561V3.51672H9.58738L10.5152 4.08339V2.6695H12.479L12.1374 2.40283V1.83894H11.4652L10.5374 1.27228V2.68894H8.57349Z" fill="#D22630"/>
<path d="M9.5267 1.9943L9.36559 1.8443L9.20448 1.9443L9.36559 2.0943L9.16003 2.2193H9.61003L9.99615 2.58597L10.1211 2.45541L9.74615 2.09985V1.85819L9.5267 1.9943Z" fill="#383739"/>
<path d="M11.5185 3.37237L11.6796 3.52237L11.8407 3.42237L11.6796 3.27237L11.8852 3.14737H11.4352L11.0491 2.7807L10.9241 2.91126L11.2991 3.26681V3.50848L11.5185 3.37237Z" fill="#383739"/>
<path d="M9.5267 3.37237L9.36559 3.52237L9.20448 3.42237L9.36559 3.27237L9.16003 3.14737H9.61003L9.99615 2.7807L10.1211 2.91126L9.74615 3.26681V3.50848L9.5267 3.37237Z" fill="#383739"/>
<path d="M11.5185 1.9943L11.6796 1.8443L11.8407 1.9443L11.6796 2.0943L11.8852 2.2193H11.4352L11.0491 2.58597L10.9241 2.45541L11.2991 2.09985V1.85819L11.5185 1.9943Z" fill="#383739"/>
<path d="M11.6791 3.49173L11.5347 3.35562L11.6541 3.28062L11.7986 3.41673L11.6791 3.49173ZM11.318 3.46673V3.25562L10.9513 2.91117L11.0458 2.81117L11.4208 3.16673H11.8013L11.318 3.46673ZM9.36523 1.86951L9.50968 2.00562L9.39023 2.08062L9.24579 1.94451L9.36523 1.86951ZM9.72635 1.89451V2.10562L10.093 2.45006L9.99857 2.55006L9.62079 2.19451H9.24023L9.72635 1.89451Z" fill="#D22630"/>
<path d="M11.6791 1.86951L11.5347 2.00562L11.6541 2.08062L11.7986 1.94451L11.6791 1.86951ZM11.318 1.89451V2.10562L10.9513 2.45006L11.0458 2.55006L11.4236 2.19451H11.8041L11.318 1.89451ZM9.36523 3.49173L9.50968 3.35562L9.39023 3.28062L9.24579 3.41673L9.36523 3.49173ZM9.72635 3.46673V3.25562L10.093 2.91117L9.99857 2.81117L9.62079 3.16673H9.24023L9.72635 3.46673Z" fill="#00843D"/>
<path d="M11.5178 2.68058L10.5205 3.34169L9.52332 2.68058L10.5205 2.01947L11.5178 2.68058Z" fill="#383739"/>
<path d="M10.5132 2.05017L9.58264 2.67239H11.4604L10.5299 2.05017V3.31128L11.466 2.68906H9.5882L10.5188 3.31128V2.05017H10.5132Z" fill="white"/>
<path d="M10.7878 2.91107V3.09163H10.2573V2.91107H9.91003V2.45552H10.2545V2.27496H10.785V2.45552H11.1323V2.91107H10.7878Z" fill="#383739"/>
<path d="M10.2767 2.28894V2.4695H9.93225V2.66394H10.5073V2.28894H10.2767ZM10.5323 2.6695H11.1073V2.47505H10.7628V2.28894H10.5267L10.5323 2.6695ZM9.93225 2.68894V2.88338H10.2767V3.06394H10.5128V2.68894H9.93225ZM10.5323 3.0695H10.7684V2.88894H11.1128V2.68894H10.5378V3.0695H10.5323Z" fill="#D22630"/>
<path d="M12.2213 10.2334V9.94453H13.0213V9.65287H13.8241V7.01398H13.0213V6.72231H12.2186V6.43064H11.4158V6.13898H9.62135V6.43064H8.81857V6.72231H8.01579V7.01398H7.21301V9.65287H8.01579V9.94453H8.81857V10.2362H9.62135V10.5279H11.4158V10.2362H12.2213V10.2334Z" fill="#383739"/>
<path d="M9.65165 6.15537V6.44703H8.84887V6.7387H8.04887V7.02759H7.24609V9.62759H8.04887V9.91925H8.85165V10.2109H9.65443V10.4998H11.4016V10.2081H12.2044V9.91648H13.0072V9.62481H13.81V7.02759H13.0072V6.73592H12.2044V6.44425H11.4016V6.15259H9.65165V6.15537ZM9.85998 6.36648H11.1822V6.65814H11.985V6.94981H12.7878V7.24148H13.5905V9.41648H12.7878V9.70814H11.985V9.99981H11.1822V10.2915H9.85998V9.99981H9.0572V9.70814H8.25443V9.41648H7.45165V7.24148H8.25443V6.94981H9.0572V6.65814H9.85998V6.36648Z" fill="#FFC72C"/>
<path d="M9.07907 9.9779V9.68623H8.27629V9.39456H7.47351V7.26678H8.27629V6.97512H9.07907V6.68345H9.88184V6.39178H11.1652V6.68345H11.9652V6.97512H12.768V7.26678H13.5707V9.39456H12.768V9.68623H11.9652V9.9779H11.1624V10.2696H9.88184V9.9779H9.07907Z" fill="#D22630"/>
<path d="M9.26536 6.89728L9.05981 6.74172V7.04172L8.85981 7.16672V6.97506L8.66814 7.1445L8.47647 6.97506V7.16672L8.25703 7.02783V7.30839L8.07647 7.43894V7.2695L7.86536 7.42506L7.65425 7.2695V7.43894L7.45425 7.2945V8.14172H7.21814V8.52783H7.45425V9.37506L7.65425 9.23061V9.40006L7.86536 9.2445L8.07647 9.40006V9.23061L8.25703 9.36117V9.63895L8.47647 9.50006V9.69172L8.66814 9.52228L8.85981 9.69172V9.50006L9.05981 9.62506V9.92506L9.26536 9.7695V9.98061L9.47092 9.80006L9.67647 9.98061V9.7695L9.86258 9.90839V10.2278L10.1431 9.97228V10.2667L10.5293 10.0223L10.9154 10.2667V9.97228L11.1959 10.2278V9.90284L11.382 9.76395V9.97506L11.5876 9.7945L11.7931 9.97506V9.76395L11.9987 9.9195V9.6195L12.1987 9.4945V9.68617L12.3904 9.51672L12.582 9.68617V9.4945L12.8015 9.63339V9.35284L12.982 9.22228V9.39172L13.1931 9.23617L13.4043 9.39172V9.22228L13.6043 9.36672V8.5195H13.8404V8.13339H13.6043V7.28617L13.4043 7.43061V7.26117L13.1931 7.41672L12.982 7.26117V7.43061L12.8015 7.30006V7.0195L12.582 7.15839V6.97228L12.3904 7.14172L12.1987 6.97228V7.16394L11.9987 7.03894V6.73894L11.7931 6.8945V6.68339L11.5876 6.86394L11.382 6.68339V6.8945L11.1959 6.75561V6.43617L10.9154 6.69172V6.39728L10.5293 6.64172L10.1431 6.39728V6.69172L9.86258 6.43617V6.75561L9.67647 6.8945V6.68339L9.47092 6.86394L9.26536 6.68339V6.89728Z" fill="#383739"/>
<path d="M7.67635 7.47755V7.30811L7.86801 7.44422L7.87357 7.43866L8.05968 7.30255V7.472L8.25968 7.32755V9.322L8.05968 9.17755V9.347L7.86801 9.21088L7.67635 9.347V9.17755L7.47635 9.322V8.49977H7.24023V8.15811H7.47635V7.33311L7.67635 7.47755Z" fill="#00843D"/>
<path d="M9.29015 6.73901L9.47071 6.90012L9.65126 6.73901V6.94457L9.85682 6.78901V9.88068L9.65126 9.72513V9.93068L9.47071 9.76957L9.29015 9.93068V9.72235L9.08459 9.8779V6.78901L9.29015 6.94457V6.73901Z" fill="#00843D"/>
<path d="M11.7539 6.73901L11.5734 6.90012L11.3928 6.73901V6.94457L11.1873 6.78901V9.88068L11.3928 9.72513V9.93068L11.5734 9.76957L11.7539 9.93068V9.72235L11.9595 9.8779V6.78901L11.7539 6.94457V6.73901Z" fill="#00843D"/>
<path d="M13.3684 7.47755V7.30811L13.1767 7.44422L13.1711 7.43866L12.985 7.30255V7.472L12.785 7.32755V9.322L12.985 9.17755V9.347L13.1767 9.21088L13.3684 9.347V9.17755L13.5684 9.322V8.49977H13.8045V8.15811H13.5684V7.33311L13.3684 7.47755Z" fill="#00843D"/>
<path d="M8.49886 7.02759L8.66831 7.17759L8.83775 7.02759V7.20814L9.0572 7.06925V9.59425L8.83775 9.45537V9.63592L8.66831 9.48592L8.49886 9.63592V9.45537L8.27942 9.59425V7.06925L8.49886 7.20814V7.02759Z" fill="#FFC72C"/>
<path d="M10.157 6.73891L9.87646 6.48335V10.175L10.157 9.91946V10.225L10.5181 9.9889L10.8792 10.225V9.91946L11.1598 10.175V6.48335L10.8792 6.73891V6.43335L10.5181 6.66946L10.157 6.43335V6.73891Z" fill="#FFC72C"/>
<path d="M12.5465 7.02759L12.377 7.17759L12.2076 7.02759V7.20814L11.9882 7.06925V9.59425L12.2076 9.45537V9.63592L12.377 9.48592L12.5465 9.63592V9.45537L12.7659 9.59425V7.06925L12.5465 7.20814V7.02759Z" fill="#FFC72C"/>
<path d="M7.78185 7.96925C7.80685 7.99425 7.8374 8.00537 7.86796 8.00537C7.90407 8.00537 7.92907 7.99425 7.95407 7.96925C8.02907 7.89425 8.03463 7.75259 8.03463 7.65259C8.03463 7.65259 7.94574 7.74703 7.92907 7.7637C7.91796 7.74425 7.86796 7.65814 7.86796 7.65814C7.86796 7.65814 7.81796 7.74425 7.80685 7.7637C7.79296 7.74981 7.70129 7.65259 7.70129 7.65259C7.70129 7.75537 7.70685 7.8887 7.78185 7.96925Z" fill="#383739"/>
<path d="M8.61837 7.75548L8.55448 7.69159V7.56659L8.41003 7.70271L8.6767 7.96937L8.94337 7.70271L8.79892 7.56659V7.69159L8.73504 7.75548V7.52771L8.84892 7.43326L8.68226 7.29437L8.51559 7.43326L8.62948 7.52771L8.61837 7.75548Z" fill="#383739"/>
<path d="M9.42135 7.50002L9.35746 7.43613V7.31113L9.21301 7.44724L9.47968 7.71391L9.74635 7.44724L9.6019 7.31113V7.43613L9.52135 7.50002V7.27502L9.63524 7.18058L9.46857 7.04169L9.3019 7.18058L9.41579 7.27502V7.50002H9.42135Z" fill="#383739"/>
<path d="M7.86817 7.69983C7.88206 7.72483 7.92372 7.79427 7.92372 7.79427C7.92372 7.79427 7.98484 7.73038 8.00984 7.70538C8.00428 7.8165 7.97928 7.90539 7.94039 7.94983C7.92095 7.96928 7.89595 7.98039 7.87095 7.98039C7.84595 7.98039 7.82095 7.96928 7.8015 7.94983C7.75706 7.90539 7.73206 7.81927 7.73206 7.70538C7.75706 7.73038 7.81817 7.79427 7.81817 7.79427C7.83206 7.76372 7.84595 7.73316 7.86817 7.69983Z" fill="white"/>
<path d="M9.50134 7.26384V7.54995L9.6069 7.4444V7.35828L9.70134 7.44717L9.47079 7.67773L9.24023 7.44717L9.33468 7.35828V7.4444L9.44023 7.54995V7.26384L9.34023 7.17773L9.47079 7.06384L9.60134 7.17773L9.50134 7.26384Z" fill="white"/>
<path d="M8.6991 7.51934V7.80545L8.80466 7.69989V7.61378L8.8991 7.70267L8.66854 7.93322L8.43799 7.70267L8.53243 7.61378V7.69989L8.63799 7.80545V7.51934L8.53799 7.43322L8.66854 7.31934L8.7991 7.43322L8.6991 7.51934Z" fill="#D22630"/>
<path d="M13.2621 7.96925C13.2371 7.99425 13.2065 8.00537 13.1759 8.00537C13.1398 8.00537 13.1148 7.99425 13.0898 7.96925C13.0148 7.89425 13.0093 7.75259 13.0093 7.65259C13.0093 7.65259 13.0982 7.74703 13.1148 7.7637C13.1259 7.74425 13.1759 7.65814 13.1759 7.65814C13.1759 7.65814 13.2259 7.74425 13.2371 7.7637C13.2509 7.74981 13.3426 7.65259 13.3426 7.65259C13.3426 7.75537 13.3371 7.8887 13.2621 7.96925Z" fill="#383739"/>
<path d="M12.4271 7.75548L12.4909 7.69159V7.56659L12.6354 7.70271L12.3687 7.96937L12.1021 7.70271L12.2465 7.56659V7.69159L12.3104 7.75548V7.52771L12.1965 7.43326L12.3632 7.29437L12.5298 7.43326L12.4159 7.52771L12.4271 7.75548Z" fill="#383739"/>
<path d="M11.6241 7.50002L11.688 7.43613V7.31113L11.8324 7.44724L11.5657 7.71391L11.2991 7.44724L11.4435 7.31113V7.43613L11.5074 7.50002V7.27502L11.3935 7.18058L11.5602 7.04169L11.7268 7.18058L11.613 7.27502V7.50002H11.6241Z" fill="#383739"/>
<path d="M13.1767 7.69983C13.1628 7.72483 13.1211 7.79427 13.1211 7.79427C13.1211 7.79427 13.06 7.73038 13.035 7.70538C13.0406 7.8165 13.0656 7.90539 13.1045 7.94983C13.1239 7.96928 13.1489 7.98039 13.1739 7.98039C13.1989 7.98039 13.2239 7.96928 13.2434 7.94983C13.2878 7.90539 13.3128 7.81927 13.3128 7.70538C13.2878 7.73038 13.2267 7.79427 13.2267 7.79427C13.2128 7.76372 13.1989 7.73316 13.1767 7.69983Z" fill="white"/>
<path d="M11.5424 7.26384V7.54995L11.4369 7.4444V7.35828L11.3424 7.44717L11.573 7.67773L11.8035 7.44717L11.7091 7.35828V7.4444L11.6035 7.54995V7.26384L11.7035 7.17773L11.573 7.06384L11.4424 7.17773L11.5424 7.26384Z" fill="white"/>
<path d="M12.3455 7.51934V7.80545L12.24 7.69989V7.61378L12.1455 7.70267L12.3761 7.93322L12.6066 7.70267L12.5122 7.61378V7.69989L12.4066 7.80545V7.51934L12.5066 7.43322L12.3761 7.31934L12.2455 7.43322L12.3455 7.51934Z" fill="#D22630"/>
<path d="M10.8374 7.5944L10.7513 7.47496L10.9707 7.2694L10.7652 7.09996V7.2194L10.6791 7.2944V7.07774L10.8735 6.93329L10.5235 6.67218L10.1735 6.93329L10.368 7.07774V7.2944L10.2818 7.2194V7.09996L10.0763 7.2694L10.2957 7.47496L10.2096 7.5944H10.8374Z" fill="#383739"/>
<path d="M10.2515 7.57495L10.3265 7.47495L10.1099 7.27495L10.2599 7.14995V7.23606L10.3904 7.34717V7.07217L10.2099 6.94162L10.5265 6.71106L10.8432 6.94162L10.6626 7.07217V7.34717L10.7932 7.23606V7.14995L10.9432 7.27495L10.7265 7.47495L10.8015 7.57495H10.2515Z" fill="#D22630"/>
<path d="M10.3632 6.93878L10.5243 7.05822L10.6854 6.93878L10.5243 6.81934L10.5187 6.82489L10.3632 6.93878Z" fill="#383739"/>
<path d="M10.5205 6.84155C10.5316 6.85266 10.6261 6.92211 10.6455 6.93044C10.6261 6.94433 10.5316 7.01655 10.5205 7.01933C10.5094 7.00822 10.415 6.93878 10.3955 6.93044C10.4177 6.92211 10.5122 6.85266 10.5205 6.84155Z" fill="#00843D"/>
<path d="M7.78185 8.69731C7.80685 8.67231 7.8374 8.66119 7.86796 8.66119C7.90407 8.66119 7.92907 8.67231 7.95407 8.69731C8.02907 8.77231 8.03463 8.91397 8.03463 9.01397C8.03463 9.01397 7.94574 8.91953 7.92907 8.90286C7.91796 8.9223 7.86796 9.00842 7.86796 9.00842C7.86796 9.00842 7.81796 8.9223 7.80685 8.90286C7.79296 8.91675 7.70129 9.01397 7.70129 9.01397C7.70129 8.90564 7.70685 8.77231 7.78185 8.69731Z" fill="#383739"/>
<path d="M8.61837 8.90554L8.55448 8.96943V9.09443L8.41003 8.95832L8.6767 8.69165L8.94337 8.95832L8.79892 9.09443V8.97221L8.73504 8.90832V9.13332L8.84892 9.22776L8.68226 9.36665L8.51559 9.22776L8.62948 9.13332L8.61837 8.90554Z" fill="#383739"/>
<path d="M9.42135 9.16128L9.35746 9.22517V9.35017L9.21301 9.21406L9.47968 8.94739L9.74635 9.21406L9.6019 9.35017V9.22517L9.53801 9.16128V9.38628L9.6519 9.48073L9.48524 9.61962L9.31857 9.48073L9.43246 9.38628V9.16128H9.42135Z" fill="#383739"/>
<path d="M7.86817 8.96122C7.88206 8.93622 7.92372 8.86677 7.92372 8.86677C7.92372 8.86677 7.98484 8.93066 8.00984 8.95566C8.00428 8.84455 7.97928 8.75566 7.94039 8.71122C7.92095 8.69178 7.89595 8.68066 7.87095 8.68066C7.84595 8.68066 7.82095 8.69178 7.8015 8.71122C7.75706 8.75566 7.73206 8.84177 7.73206 8.95566C7.75706 8.93066 7.81817 8.86677 7.81817 8.86677C7.83206 8.89733 7.84595 8.92789 7.86817 8.96122Z" fill="white"/>
<path d="M9.50134 9.3971V9.11099L9.6069 9.21655V9.30266L9.70134 9.21377L9.47079 8.98322L9.24023 9.21377L9.33468 9.30266V9.21655L9.44023 9.11099V9.3971L9.34023 9.48322L9.47079 9.59711L9.60134 9.48322L9.50134 9.3971Z" fill="white"/>
<path d="M8.6991 9.14167V8.85556L8.80466 8.96112V9.04723L8.8991 8.95834L8.66854 8.72778L8.43799 8.95834L8.53243 9.04723V8.96112L8.63799 8.85556V9.14167L8.53799 9.22778L8.66854 9.34167L8.7991 9.22778L8.6991 9.14167Z" fill="#D22630"/>
<path d="M13.2621 8.69731C13.2371 8.67231 13.2065 8.66119 13.1759 8.66119C13.1398 8.66119 13.1148 8.67231 13.0898 8.69731C13.0148 8.77231 13.0093 8.91397 13.0093 9.01397C13.0093 9.01397 13.0982 8.91953 13.1148 8.90286C13.1259 8.9223 13.1759 9.00842 13.1759 9.00842C13.1759 9.00842 13.2259 8.9223 13.2371 8.90286C13.2509 8.91675 13.3426 9.01397 13.3426 9.01397C13.3426 8.90564 13.3371 8.77231 13.2621 8.69731Z" fill="#383739"/>
<path d="M12.4265 8.90578L12.4904 8.96967V9.09467L12.6348 8.95856L12.3737 8.69745L12.1071 8.96411L12.2515 9.10022V8.97522L12.3154 8.91133V9.13633L12.2015 9.23078L12.3682 9.36966L12.5348 9.23078L12.4209 9.13633L12.4265 8.90578Z" fill="#383739"/>
<path d="M11.6234 9.16128L11.6873 9.22517V9.35017L11.8317 9.21406L11.5706 8.94739L11.304 9.21406L11.4484 9.35017V9.22517L11.5123 9.16128V9.38628L11.3984 9.48073L11.5651 9.61962L11.7317 9.48073L11.6178 9.38628V9.16128H11.6234Z" fill="#383739"/>
<path d="M13.1767 8.96122C13.1628 8.93622 13.1211 8.86677 13.1211 8.86677C13.1211 8.86677 13.06 8.93066 13.035 8.95566C13.0406 8.84455 13.0656 8.75566 13.1045 8.71122C13.1239 8.69178 13.1489 8.68066 13.1739 8.68066C13.1989 8.68066 13.2239 8.69178 13.2434 8.71122C13.2878 8.75566 13.3128 8.84177 13.3128 8.95566C13.2878 8.93066 13.2267 8.86677 13.2267 8.86677C13.2128 8.89733 13.1989 8.92789 13.1767 8.96122Z" fill="white"/>
<path d="M11.5424 9.3971V9.11099L11.4369 9.21655V9.30266L11.3424 9.21377L11.573 8.98322L11.8035 9.21377L11.7091 9.30266V9.21655L11.6035 9.11099V9.3971L11.7035 9.48322L11.573 9.59711L11.4424 9.48322L11.5424 9.3971Z" fill="white"/>
<path d="M12.3455 9.14167V8.85556L12.24 8.96112V9.04723L12.1455 8.95834L12.3761 8.72778L12.6066 8.95834L12.5122 9.04723V8.96112L12.4066 8.85556V9.14167L12.5066 9.22778L12.3761 9.34167L12.2455 9.22778L12.3455 9.14167Z" fill="#D22630"/>
<path d="M10.8374 9.06665L10.7513 9.1861L10.9707 9.39165L10.7652 9.5611V9.44165L10.6791 9.36665V9.58332L10.8735 9.72776L10.5235 9.98887L10.1735 9.72776L10.368 9.58332V9.36665L10.2818 9.44165V9.5611L10.0763 9.39165L10.2957 9.1861L10.2096 9.06665H10.8374Z" fill="#383739"/>
<path d="M10.2515 9.08612L10.3265 9.18612L10.1099 9.38612L10.2599 9.51112V9.42501L10.3904 9.3139V9.5889L10.2099 9.71945L10.5265 9.95001L10.8432 9.71945L10.6626 9.5889V9.3139L10.7932 9.42501V9.51112L10.9432 9.38612L10.7265 9.18612L10.8015 9.08612H10.2515Z" fill="#D22630"/>
<path d="M10.3632 9.72223L10.5243 9.60278L10.6854 9.72223L10.5243 9.84167L10.5187 9.83612L10.3632 9.72223Z" fill="#383739"/>
<path d="M10.5205 9.81955C10.5316 9.80844 10.6261 9.739 10.6455 9.73067C10.6261 9.71678 10.5316 9.64456 10.5205 9.64178C10.5094 9.6529 10.415 9.72234 10.3955 9.73067C10.4177 9.739 10.5122 9.80844 10.5205 9.81955Z" fill="#00843D"/>
<path d="M13.3739 8.20538H13.0211V8.06649H11.9433L11.1906 7.57483H11.1878H9.84889L9.09611 8.06649H8.01833V8.20538H7.66833V8.44983H8.01833V8.58872H9.09611L9.84889 9.08038H11.1906L11.9433 8.58872H13.0211V8.44983H13.3711V8.20538H13.3739Z" fill="#383739"/>
<path d="M9.85688 7.60019L9.10411 8.08908H8.04299V8.22797H7.69299V8.43352H8.04299V8.57241H9.10411L9.85688 9.06964H11.1847L11.9319 8.57241H12.993V8.43352H13.343V8.22797H12.993V8.08908H11.9319L11.1847 7.59741H9.85688V7.60019ZM9.87633 7.66963H11.168L11.8541 8.11963V8.18908H12.6208V8.47519H11.8541V8.54464L11.168 8.99464H9.87633L9.19022 8.54464V8.47519H8.41799V8.18908H9.19022V8.11963L9.87633 7.66963Z" fill="#D22630"/>
<path d="M11.1626 7.6889L11.8348 8.13057V8.21112H12.6014V8.45557H11.8348V8.53612L11.1626 8.97779H9.882L9.20978 8.53612V8.45001H8.44312V8.20557H9.20978V8.12501L9.882 7.68335H11.1653V7.6889H11.1626Z" fill="#D22630"/>
<path d="M9.55185 8.58049L9.84352 8.79716L10.0352 8.65271L9.92407 8.5666L9.84352 8.62771L9.77407 8.57771L10.8657 7.75549H10.6463L9.55185 8.58049ZM10.1824 8.90271H10.4019L11.4935 8.08049L11.2019 7.86383L11.0102 8.00827L11.1213 8.09438L11.2019 8.03327L11.2713 8.08327L10.1824 8.90271ZM10.6435 8.90271H10.863L9.77129 8.08049L9.84074 8.03049L9.92129 8.0916L10.0324 8.00549L9.84074 7.86105L9.54907 8.07771L10.6435 8.90271ZM11.2741 8.58049L11.2046 8.63049L11.1241 8.56938L11.013 8.65549L11.2046 8.79994L11.4963 8.58327L10.4046 7.76105H10.1852L11.2741 8.58049Z" fill="#383739"/>
<path d="M9.32971 8.33038L9.52416 8.46094L9.7186 8.33038L9.52416 8.19983L9.32971 8.33038Z" fill="#383739"/>
<path d="M10.3263 8.33038L10.5207 8.46094L10.7152 8.33038L10.5207 8.19983L10.3263 8.33038Z" fill="#383739"/>
<path d="M11.7152 8.33038L11.5207 8.46094L11.3263 8.33038L11.5207 8.19983L11.7152 8.33038Z" fill="#383739"/>
<path d="M11.4602 8.58076L11.2047 8.77243L11.0491 8.65854L11.1241 8.60299L11.2047 8.6641L11.3102 8.58354L10.2491 7.78632H10.3991L11.4602 8.58076ZM10.7991 8.88076H10.6491L9.58801 8.08354L9.84357 7.89187L9.99912 8.00576L9.92412 8.06132L9.84357 8.00021L9.73801 8.08076L10.7991 8.88076ZM10.3963 8.88076H10.2463L11.3075 8.08354L11.2019 8.00298L11.1213 8.06409L11.0463 8.00854L11.2019 7.89465L11.4575 8.08632L10.3963 8.88076ZM10.6491 7.78076H10.7991L9.73801 8.57798L9.84357 8.65854L9.92412 8.59743L9.99912 8.65299L9.84357 8.76687L9.58801 8.57521L10.6491 7.78076Z" fill="#FFC72C"/>
<path d="M9.52665 8.22504L9.6822 8.33059L9.52665 8.43615L9.37109 8.33059L9.52665 8.22504Z" fill="#00843D"/>
<path d="M10.5208 8.22504L10.6763 8.33059L10.5208 8.43615L10.3652 8.33059L10.5208 8.22504Z" fill="#00843D"/>
<path d="M11.5187 8.22504L11.3632 8.33059L11.5187 8.43615L11.6743 8.33059L11.5187 8.22504Z" fill="#00843D"/>
<path d="M7.0905 13.7723L7.0155 13.8834L7.15161 13.9889L7.0155 14.0945L7.0905 14.2056L7.25162 14.225L7.40717 14.1056L7.79328 14.35V14.1445L7.55162 13.9889L7.79328 13.8334V13.6278L7.40717 13.8723L7.25162 13.7528L7.0905 13.7723Z" fill="#383739"/>
<path d="M7.0905 13.0638L7.0155 13.1749L7.15161 13.2805L7.0155 13.386L7.0905 13.4971L7.25162 13.5166L7.40717 13.3971L7.79328 13.6416V13.436L7.55162 13.2805L7.79328 13.1249V12.9194L7.40717 13.1638L7.25162 13.0444L7.0905 13.0638Z" fill="#383739"/>
<path d="M7.0905 14.8971L7.0155 14.786L7.15161 14.6804L7.0155 14.5749L7.0905 14.4638L7.25162 14.4443L7.40717 14.5638L7.79328 14.3193V14.5249L7.55162 14.6804L7.79328 14.836V15.0416L7.40717 14.7971L7.25162 14.9166L7.0905 14.8971Z" fill="#383739"/>
<path d="M13.9542 13.7723L14.0292 13.8834L13.8931 13.9889L14.0292 14.0945L13.9542 14.2056L13.7931 14.225L13.6376 14.1056L13.2515 14.35V14.1445L13.4931 13.9889L13.2515 13.8334V13.6278L13.6376 13.8723L13.7931 13.7528L13.9542 13.7723Z" fill="#383739"/>
<path d="M13.9542 13.0638L14.0292 13.1749L13.8931 13.2805L14.0292 13.386L13.9542 13.4971L13.7931 13.5166L13.6376 13.3971L13.2515 13.6416V13.436L13.4931 13.2805L13.2515 13.1249V12.9194L13.6376 13.1638L13.7931 13.0444L13.9542 13.0638Z" fill="#383739"/>
<path d="M13.9542 14.8971L14.0292 14.786L13.8931 14.6804L14.0292 14.5749L13.9542 14.4638L13.7931 14.4443L13.6376 14.5638L13.2515 14.3193V14.5249L13.4931 14.6804L13.2515 14.836V15.0416L13.6376 14.7971L13.7931 14.9166L13.9542 14.8971Z" fill="#383739"/>
<path d="M12.41 11.8416V12.1388H12.6267V12.2693H12.8378V12.0332H12.6517V11.8471H12.41V11.8416Z" fill="#383739"/>
<path d="M13.0432 12.3084V12.6029H13.2599V12.7334H13.471V12.4973H13.2793V12.3057H13.0432V12.3084Z" fill="#383739"/>
<path d="M8.63469 11.8416V12.1388H8.41802V12.2693H8.20691V12.0332H8.39302V11.8471H8.63469V11.8416Z" fill="#383739"/>
<path d="M12.41 16.1194V15.8249H12.6267V15.6944H12.8378V15.9305H12.6517V16.1166H12.41V16.1194Z" fill="#383739"/>
<path d="M8.63469 16.1194V15.8249H8.41802V15.6944H8.20691V15.9305H8.39302V16.1166H8.63469V16.1194Z" fill="#383739"/>
<path d="M13.0432 15.6555V15.3638H13.2599V15.2333H13.471V15.4694H13.2793V15.6555H13.0432Z" fill="#383739"/>
<path d="M8.0013 12.3084V12.6029H7.78463V12.7334H7.57629V12.4973H7.76241V12.3057H8.0013V12.3084Z" fill="#383739"/>
<path d="M8.0013 15.6555V15.3638H7.78463V15.2333H7.57629V15.4694H7.76241V15.6555H8.0013Z" fill="#383739"/>
<path d="M11.3126 11.8363C11.2987 11.8224 11.1459 11.6752 11.1459 11.6752L10.9848 11.8252C10.9848 11.8252 11.1098 11.9446 11.1237 11.9613L10.9431 12.1363H11.2098L11.3042 12.0418L11.3987 12.1363H11.6653L11.4848 11.9613C11.4987 11.9474 11.6237 11.8252 11.6237 11.8252L11.4626 11.6752C11.4181 11.7335 11.3626 11.7835 11.3126 11.8363Z" fill="#383739"/>
<path d="M10.5212 11.8363C10.5073 11.8224 10.3545 11.6752 10.3545 11.6752L10.1934 11.8252C10.1934 11.8252 10.3184 11.9446 10.3323 11.9613L10.1517 12.1363H10.4184L10.5128 12.0418L10.6073 12.1363H10.874L10.6934 11.9613C10.7073 11.9474 10.8323 11.8252 10.8323 11.8252L10.6712 11.6752C10.6323 11.7335 10.5767 11.7835 10.5212 11.8363Z" fill="#383739"/>
<path d="M9.73202 11.8363C9.74591 11.8224 9.89869 11.6752 9.89869 11.6752L10.0598 11.8252C10.0598 11.8252 9.9348 11.9446 9.92091 11.9613L10.1015 12.1363H9.8348L9.74035 12.0418L9.64591 12.1363H9.37646L9.55702 11.9613C9.54313 11.9474 9.41813 11.8252 9.41813 11.8252L9.57924 11.6752C9.62647 11.7335 9.68202 11.7835 9.73202 11.8363Z" fill="#383739"/>
<path d="M11.3126 16.1248C11.2987 16.1387 11.1459 16.2859 11.1459 16.2859L10.9848 16.1359C10.9848 16.1359 11.1098 16.0165 11.1237 15.9998L10.9431 15.8248H11.2098L11.3042 15.9193L11.3987 15.8248H11.6653L11.4848 15.9998C11.4987 16.0137 11.6237 16.1359 11.6237 16.1359L11.4626 16.2859C11.4181 16.2304 11.3626 16.1804 11.3126 16.1248Z" fill="#383739"/>
<path d="M10.5212 16.1248C10.5073 16.1387 10.3545 16.2859 10.3545 16.2859L10.1934 16.1359C10.1934 16.1359 10.3184 16.0165 10.3323 15.9998L10.1517 15.8248H10.4184L10.5128 15.9193L10.6073 15.8248H10.874L10.6934 15.9998C10.7073 16.0137 10.8323 16.1359 10.8323 16.1359L10.6712 16.2859C10.6323 16.2304 10.5767 16.1804 10.5212 16.1248Z" fill="#383739"/>
<path d="M9.73202 16.1248C9.74591 16.1387 9.89869 16.2859 9.89869 16.2859L10.0598 16.1359C10.0598 16.1359 9.9348 16.0165 9.92091 15.9998L10.1015 15.8248H9.8348L9.74035 15.9193L9.64591 15.8248H9.37646L9.55702 15.9998C9.54313 16.0137 9.41813 16.1359 9.41813 16.1359L9.57924 16.2859C9.62647 16.2304 9.68202 16.1804 9.73202 16.1248Z" fill="#383739"/>
<path d="M7.76794 14.1472V14.2972L7.40127 14.0667L7.24016 14.1917L7.10127 14.1778L7.04016 14.0917L7.1846 13.9805L7.04016 13.8694L7.10127 13.7833L7.24016 13.7694L7.40127 13.8944L7.76794 13.6639V13.8139L7.50683 13.9805L7.76794 14.1472Z" fill="#00843D"/>
<path d="M7.76794 13.4416V13.5916L7.40127 13.3611L7.24016 13.4861L7.10127 13.4722L7.04016 13.3861L7.1846 13.275L7.04016 13.1639L7.10127 13.0778L7.24016 13.0639L7.40127 13.1889L7.76794 12.9583V13.1083L7.50683 13.275L7.76794 13.4416Z" fill="#00843D"/>
<path d="M7.76794 14.5223V14.3723L7.40127 14.6028L7.24016 14.4778L7.10127 14.4917L7.04016 14.5778L7.1846 14.6889L7.04016 14.8L7.10127 14.8861L7.24016 14.9L7.40127 14.775L7.76794 15.0056V14.8556L7.50683 14.6889L7.76794 14.5223Z" fill="#00843D"/>
<path d="M13.2767 14.1472V14.2972L13.6434 14.0667L13.8045 14.1917L13.9434 14.1778L14.0045 14.0917L13.8601 13.9805L14.0045 13.8694L13.9434 13.7833L13.8045 13.7694L13.6434 13.8944L13.2767 13.6639V13.8139L13.5378 13.9805L13.2767 14.1472Z" fill="#00843D"/>
<path d="M13.2767 13.4416V13.5916L13.6434 13.3611L13.8045 13.4861L13.9434 13.4722L14.0045 13.3861L13.8601 13.275L14.0045 13.1639L13.9434 13.0778L13.8045 13.0639L13.6434 13.1889L13.2767 12.9583V13.1083L13.5378 13.275L13.2767 13.4416Z" fill="#00843D"/>
<path d="M13.2767 14.5223V14.3723L13.6434 14.6028L13.8045 14.4778L13.9434 14.4917L14.0045 14.5778L13.8601 14.6889L14.0045 14.8L13.9434 14.8861L13.8045 14.9L13.6434 14.775L13.2767 15.0056V14.8556L13.5378 14.6889L13.2767 14.5223Z" fill="#00843D"/>
<path d="M12.6262 11.8665V12.0526H12.8123V12.2471H12.6456V12.1165H12.429V11.8665H12.6262Z" fill="#00843D"/>
<path d="M13.2574 12.3279V12.5141H13.4435V12.7085H13.2768V12.5779H13.0602V12.3279H13.2574Z" fill="#00843D"/>
<path d="M8.41817 11.8665V12.0526H8.23206V12.2471H8.39872V12.1165H8.61539V11.8665H8.41817Z" fill="#00843D"/>
<path d="M12.6262 16.0999V15.9137H12.8123V15.7193H12.6456V15.8499H12.429V16.0999H12.6262Z" fill="#00843D"/>
<path d="M8.41817 16.0999V15.9137H8.23206V15.7193H8.39872V15.8499H8.61539V16.0999H8.41817Z" fill="#00843D"/>
<path d="M13.2574 15.6333V15.4471H13.4435V15.2527H13.2768V15.3832H13.0602V15.6333H13.2574Z" fill="#00843D"/>
<path d="M7.78755 12.3279V12.5141H7.60144V12.7085H7.76811V12.5779H7.98478V12.3279H7.78755Z" fill="#00843D"/>
<path d="M7.78755 15.6333V15.4471H7.60144V15.2527H7.76811V15.3832H7.98478V15.6333H7.78755Z" fill="#00843D"/>
<path d="M11.1483 11.7083C11.1622 11.7222 11.315 11.8694 11.315 11.8694C11.315 11.8694 11.465 11.725 11.4817 11.7083C11.4955 11.7194 11.5955 11.8139 11.6122 11.8278C11.5983 11.8416 11.4733 11.9639 11.4733 11.9639L11.6344 12.1194H11.4289L11.3233 12.0194L11.2178 12.1194H11.0122L11.1733 11.9639C11.1733 11.9639 11.0483 11.8444 11.0344 11.8278C11.0317 11.8111 11.1317 11.7222 11.1483 11.7083Z" fill="#00843D"/>
<path d="M10.3575 11.7083C10.3714 11.7222 10.5242 11.8694 10.5242 11.8694C10.5242 11.8694 10.6742 11.725 10.6908 11.7083C10.7047 11.7194 10.8047 11.8139 10.8214 11.8278C10.8075 11.8416 10.6825 11.9639 10.6825 11.9639L10.8436 12.1194H10.6325L10.5269 12.0194L10.4214 12.1194H10.2158L10.3769 11.9639C10.3769 11.9639 10.2519 11.8444 10.238 11.8278C10.2464 11.8111 10.3464 11.7222 10.3575 11.7083Z" fill="#00843D"/>
<path d="M9.89614 11.7083C9.88226 11.7222 9.72948 11.8694 9.72948 11.8694C9.72948 11.8694 9.57948 11.725 9.56281 11.7083C9.54892 11.7194 9.44892 11.8139 9.43226 11.8278C9.44614 11.8416 9.57114 11.9639 9.57114 11.9639L9.41003 12.1194H9.61559L9.72115 12.0194L9.8267 12.1194H10.0323L9.87114 11.9639C9.87114 11.9639 9.99614 11.8444 10.01 11.8278C10.0128 11.8111 9.91003 11.7222 9.89614 11.7083Z" fill="#00843D"/>
<path d="M11.1483 16.2554C11.1622 16.2415 11.315 16.0943 11.315 16.0943C11.315 16.0943 11.465 16.2387 11.4817 16.2554C11.4955 16.2443 11.5955 16.1499 11.6122 16.136C11.5983 16.1221 11.4733 15.9999 11.4733 15.9999L11.6344 15.8443H11.4289L11.3233 15.9443L11.2178 15.8443H11.0122L11.1733 15.9999C11.1733 15.9999 11.0483 16.1193 11.0344 16.136C11.0317 16.1499 11.1317 16.2443 11.1483 16.2554Z" fill="#00843D"/>
<path d="M10.3575 16.2554C10.3714 16.2415 10.5242 16.0943 10.5242 16.0943C10.5242 16.0943 10.6742 16.2387 10.6908 16.2554C10.7047 16.2443 10.8047 16.1499 10.8214 16.136C10.8075 16.1221 10.6825 15.9999 10.6825 15.9999L10.8436 15.8443H10.6325L10.5269 15.9443L10.4214 15.8443H10.2158L10.3769 15.9999C10.3769 15.9999 10.2519 16.1193 10.238 16.136C10.2464 16.1499 10.3464 16.2443 10.3575 16.2554Z" fill="#00843D"/>
<path d="M9.89614 16.2554C9.88226 16.2415 9.72948 16.0943 9.72948 16.0943C9.72948 16.0943 9.57948 16.2387 9.56281 16.2554C9.54892 16.2443 9.44892 16.1499 9.43226 16.136C9.44614 16.1221 9.57114 15.9999 9.57114 15.9999L9.41003 15.8443H9.61559L9.72115 15.9443L9.8267 15.8443H10.0323L9.87114 15.9999C9.87114 15.9999 9.99614 16.1193 10.01 16.136C10.0128 16.1499 9.91003 16.2443 9.89614 16.2554Z" fill="#00843D"/>
<path d="M8.39874 15.3832V15.8443H12.646V15.3832H13.2765V12.5776H12.646V12.1165H8.39874V12.5776H7.76819V15.3832H8.39874Z" fill="#383739"/>
<path d="M8.4184 12.139V12.6001H7.78784V15.364H8.4184V15.8251H12.6267V15.364H13.2573V12.6001H12.6267V12.139H8.4184ZM8.68784 12.314H12.349V12.7612L12.499 12.8723H13.0767V15.0918H12.5045L12.3545 15.2029V15.6529H8.6934V15.2056L8.5434 15.0945H7.9684V12.8751H8.54062L8.69617 12.764L8.68784 12.314Z" fill="#FFC72C"/>
<path d="M8.71261 12.3388V12.7499L9.26261 12.3388H8.71261ZM11.7793 12.3388L12.3293 12.7499V12.3388H11.7793ZM7.99316 12.8944V13.2749L8.51539 12.8944H7.99316ZM12.532 12.8944L13.0543 13.2805V12.8944H12.532ZM13.057 14.6832L12.5348 15.0694H13.057V14.6832ZM7.99316 14.6888V15.0749H8.51539L7.99316 14.6888ZM8.71261 15.2194V15.6249H9.26261L8.71261 15.2194ZM12.332 15.2194L11.782 15.6249H12.332V15.2194Z" fill="#D22630"/>
<path d="M11.7458 12.3388C11.7513 12.3444 13.0486 13.2999 13.0569 13.3055V14.6582C13.0458 14.6638 11.7486 15.6249 11.7458 15.6249H9.30135C9.29579 15.6194 7.99857 14.6638 7.99023 14.6582V13.3055C8.00135 13.2999 9.29857 12.3388 9.30135 12.3388H11.7458Z" fill="#00843D"/>
<path d="M8.30442 14.8138L8.15442 14.6388L8.29331 14.4722L8.15442 14.3055L8.29331 14.1388L8.15442 13.9722L8.29331 13.8055L8.15442 13.6388L8.29331 13.4722L8.15442 13.3055L8.30442 13.1305H12.7489L12.8989 13.3055L12.76 13.4722L12.8989 13.6388L12.76 13.8055L12.8989 13.9722L12.76 14.1388L12.8989 14.3055L12.76 14.4722L12.8989 14.6388L12.7489 14.8138H8.30442ZM11.3544 12.55L11.1794 12.4L11.0128 12.5389L10.8461 12.4L10.6794 12.5389L10.5128 12.4L10.3461 12.5389L10.1794 12.4L10.0128 12.5389L9.84609 12.4L9.67109 12.55V15.4166L9.84609 15.5666L10.0128 15.4277L10.1794 15.5666L10.3461 15.4277L10.5128 15.5666L10.6794 15.4277L10.8461 15.5666L11.0128 15.4277L11.1794 15.5666L11.3544 15.4166V12.55Z" fill="#383739"/>
<path d="M11.0042 12.5581L10.8487 12.4276L10.6931 12.5581V15.4025L10.8487 15.5331L11.0042 15.4025V12.5581Z" fill="#FFC72C"/>
<path d="M10.3461 12.5581L10.1906 12.4276L10.035 12.5581V15.4025L10.1906 15.5331L10.3461 15.4025V12.5581Z" fill="#FFC72C"/>
<path d="M8.31293 14.7916L8.18237 14.6361L8.31293 14.4805H12.7352L12.8657 14.6361L12.7352 14.7916H8.31293Z" fill="#FFC72C"/>
<path d="M12.7323 13.8248L12.8629 13.9804L12.7323 14.1359H8.30731L8.17676 13.9804L8.30731 13.8248H12.7323Z" fill="#FFC72C"/>
<path d="M12.7323 13.4805L12.8629 13.3249L12.7323 13.1694H8.30731L8.17676 13.3249L8.30731 13.4805H12.7323Z" fill="#FFC72C"/>
<path d="M11.3344 12.5581L11.1789 12.4276L11.0233 12.5581V15.4025L11.1789 15.5331L11.3344 15.4025V12.5581Z" fill="#D22630"/>
<path d="M10.0158 12.5581L9.86027 12.4276L9.70471 12.5581V15.4025L9.86027 15.5331L10.0158 15.4025V12.5581Z" fill="#D22630"/>
<path d="M8.31293 14.4611L8.18237 14.3055L8.31293 14.15H12.7352L12.8657 14.3055L12.7352 14.4611H8.31293Z" fill="#D22630"/>
<path d="M8.31293 13.8056L8.18237 13.6501L8.31293 13.4945H12.7352L12.8657 13.6501L12.7352 13.8056H8.31293Z" fill="#D22630"/>
<path d="M10.6763 15.4025L10.5208 15.5331L10.3652 15.4025V12.5581L10.5208 12.4276L10.6763 12.5581V15.4025Z" fill="#D22630"/>
<path d="M12.0043 12.614H9.02374V12.8501H8.64319V15.114H9.02374V15.3501H12.0154V15.114H12.396V12.8501H12.0154V12.614H12.0043Z" fill="#383739"/>
<path d="M9.04877 12.6335V12.8696H8.66821V15.089H9.04877V15.3251H9.36544L8.74321 14.8029V13.1585L9.36544 12.6363L9.04877 12.6335ZM11.6849 12.6335L12.3071 13.1557V14.8029L11.6849 15.3251H11.996V15.089H12.3765V12.8696H11.996V12.6335H11.6849Z" fill="#D22630"/>
<path d="M9.396 12.6335C9.39044 12.639 8.76544 13.1585 8.75989 13.164V14.7918C8.771 14.7974 9.39044 15.3168 9.396 15.3224H11.6516C11.6571 15.3168 12.2766 14.7974 12.2877 14.7918V13.164C12.2766 13.1585 11.6627 12.639 11.6516 12.6335H9.396ZM9.42933 12.7252H11.6127L12.1877 13.2113V14.7529L11.6127 15.2335H9.42933L8.85433 14.7529V13.2113L9.42933 12.7252Z" fill="#00843D"/>
<path d="M10.0063 14.7776L10.1063 14.8165L10.1257 14.9304L10.0007 15.0415L10.1813 15.2165H10.0119L9.88685 15.097L9.76185 15.2165H9.59241L9.77296 15.0415L9.64796 14.9304L9.66741 14.8165L9.76741 14.7776L9.89241 14.8776L9.89796 14.872L10.0063 14.7776Z" fill="#00843D"/>
<path d="M10.6488 14.7776L10.7488 14.8165L10.7682 14.9304L10.6432 15.0415L10.8238 15.2165H10.6543L10.5293 15.097L10.4043 15.2165H10.2349L10.4154 15.0415L10.2904 14.9304L10.3099 14.8165L10.4099 14.7776L10.5349 14.8776L10.5404 14.872L10.6488 14.7776Z" fill="#00843D"/>
<path d="M11.0382 14.7776L10.9382 14.8165L10.9187 14.9304L11.0437 15.0415L10.8632 15.2165H11.0326L11.1576 15.097L11.2826 15.2165H11.452L11.2715 15.0415L11.3965 14.9304L11.377 14.8165L11.277 14.7776L11.152 14.8776L11.1465 14.872L11.0382 14.7776Z" fill="#00843D"/>
<path d="M10.0063 13.1861L10.1063 13.1472L10.1257 13.0333L10.0007 12.9222L10.1813 12.7472H10.0119L9.88685 12.8666L9.76185 12.7472H9.59241L9.77296 12.9222L9.64796 13.0333L9.66741 13.1472L9.76741 13.1861L9.89241 13.0861L9.89796 13.0916L10.0063 13.1861Z" fill="#00843D"/>
<path d="M10.6488 13.1861L10.7488 13.1472L10.7682 13.0333L10.6432 12.9222L10.8238 12.7472H10.6543L10.5293 12.8666L10.4043 12.7472H10.2349L10.4154 12.9222L10.2904 13.0333L10.3099 13.1472L10.4099 13.1861L10.5349 13.0861L10.5404 13.0916L10.6488 13.1861Z" fill="#00843D"/>
<path d="M11.0382 13.1861L10.9382 13.1472L10.9187 13.0333L11.0437 12.9222L10.8632 12.7472H11.0326L11.1576 12.8666L11.2826 12.7472H11.452L11.2715 12.9222L11.3965 13.0333L11.377 13.1472L11.277 13.1861L11.152 13.0861L11.1465 13.0916L11.0382 13.1861Z" fill="#00843D"/>
<path d="M12.1716 13.3696L12.0771 13.4501L12.1716 13.5307V13.6668L12.0216 13.5418C12.0216 13.5418 11.9216 13.6307 11.9105 13.6418C11.8994 13.6418 11.8049 13.6279 11.7966 13.6279C11.791 13.6168 11.7605 13.564 11.7577 13.5529C11.7688 13.5418 11.8577 13.4529 11.8577 13.4529C11.8577 13.4529 11.7688 13.364 11.7577 13.3529C11.7632 13.3418 11.7938 13.289 11.7966 13.2779C11.8077 13.2779 11.9021 13.264 11.9105 13.264C11.916 13.2696 12.0216 13.364 12.0216 13.364L12.1716 13.239V13.3696Z" fill="#00843D"/>
<path d="M12.1716 13.9001L12.0771 13.9806L12.1716 14.0612V14.1973L12.0216 14.0723C12.0216 14.0723 11.9216 14.1612 11.9105 14.1668C11.8994 14.1668 11.8049 14.1529 11.7966 14.1529C11.791 14.1418 11.7605 14.089 11.7577 14.0779C11.7688 14.0668 11.8577 13.9779 11.8577 13.9779C11.8577 13.9779 11.7688 13.889 11.7577 13.8779C11.7632 13.8668 11.7938 13.814 11.7966 13.8029C11.8077 13.8029 11.9021 13.789 11.9105 13.789C11.916 13.7945 12.0216 13.889 12.0216 13.889L12.1716 13.764V13.9001Z" fill="#00843D"/>
<path d="M12.1716 14.5916L12.0771 14.511L12.1716 14.4305V14.2944L12.0216 14.4194C12.0216 14.4194 11.9216 14.3305 11.9105 14.3194C11.8994 14.3194 11.8049 14.3333 11.7966 14.3333C11.791 14.3444 11.7605 14.3972 11.7577 14.4083C11.7688 14.4194 11.8577 14.5083 11.8577 14.5083C11.8577 14.5083 11.7688 14.5972 11.7577 14.6083C11.7632 14.6194 11.7938 14.6722 11.7966 14.6833C11.8077 14.6833 11.9021 14.6972 11.9105 14.6972C11.916 14.6916 12.0216 14.6027 12.0216 14.6027L12.1716 14.7277V14.5916Z" fill="#00843D"/>
<path d="M8.87378 13.3696L8.96822 13.4501L8.87378 13.5307V13.6668L9.02378 13.5418C9.02378 13.5418 9.12378 13.6307 9.13489 13.6418C9.146 13.6418 9.24045 13.6279 9.24878 13.6279C9.25434 13.6168 9.28489 13.564 9.28767 13.5529C9.27656 13.5418 9.18767 13.4529 9.18767 13.4529C9.18767 13.4529 9.27656 13.364 9.28767 13.3529C9.28211 13.3418 9.25156 13.289 9.24878 13.2779C9.23767 13.2779 9.14322 13.264 9.13489 13.264C9.12933 13.2696 9.02378 13.364 9.02378 13.364L8.87378 13.239V13.3696Z" fill="#00843D"/>
<path d="M8.87378 13.9001L8.96822 13.9806L8.87378 14.0612V14.1973L9.02378 14.0723C9.02378 14.0723 9.12378 14.1612 9.13489 14.1668C9.146 14.1668 9.24045 14.1529 9.24878 14.1529C9.25434 14.1418 9.28489 14.089 9.28767 14.0779C9.27656 14.0668 9.18767 13.9779 9.18767 13.9779C9.18767 13.9779 9.27656 13.889 9.28767 13.8779C9.28211 13.8668 9.25156 13.814 9.24878 13.8029C9.23767 13.8029 9.14322 13.789 9.13489 13.789C9.12933 13.7945 9.02378 13.889 9.02378 13.889L8.87378 13.764V13.9001Z" fill="#00843D"/>
<path d="M8.87378 14.5916L8.96822 14.511L8.87378 14.4305V14.2944L9.02378 14.4194C9.02378 14.4194 9.12378 14.3305 9.13489 14.3194C9.146 14.3194 9.24045 14.3333 9.24878 14.3333C9.25434 14.3444 9.28489 14.3972 9.28767 14.4083C9.27656 14.4194 9.18767 14.5083 9.18767 14.5083C9.18767 14.5083 9.27656 14.5972 9.28767 14.6083C9.28211 14.6194 9.25156 14.6722 9.24878 14.6833C9.23767 14.6833 9.14322 14.6972 9.13489 14.6972C9.12933 14.6916 9.02378 14.6027 9.02378 14.6027L8.87378 14.7277V14.5916Z" fill="#00843D"/>
<path d="M9.43483 12.75C9.42927 12.7556 8.90427 13.1972 8.87928 13.2167C8.92372 13.2556 8.97372 13.2972 9.01816 13.3361C9.02927 13.325 9.12372 13.2417 9.12372 13.2417L9.25983 13.2611L9.31539 13.3611C9.31539 13.3611 9.23483 13.4417 9.22094 13.4556C9.23483 13.4694 9.31539 13.55 9.31539 13.55L9.25983 13.65L9.12372 13.6639C9.12372 13.6639 9.03483 13.5833 9.01816 13.575L8.86816 13.7V13.7389C8.91816 13.7778 8.96816 13.825 9.01816 13.8639C9.02927 13.8528 9.12372 13.775 9.12372 13.775L9.25983 13.7889L9.31539 13.8889C9.31539 13.8889 9.23483 13.9694 9.22094 13.9833C9.23483 13.9972 9.31539 14.0778 9.31539 14.0778L9.25983 14.1778L9.12372 14.1917C9.12372 14.1917 9.03483 14.1111 9.01816 14.0972L8.86816 14.2222V14.2667L9.01816 14.3917C9.02927 14.3805 9.12372 14.2972 9.12372 14.2972L9.25983 14.3167L9.31539 14.4167C9.31539 14.4167 9.23483 14.4972 9.22094 14.5111C9.23483 14.525 9.31539 14.6055 9.31539 14.6055L9.25983 14.7055L9.12372 14.725C9.12372 14.725 9.03483 14.6444 9.01816 14.6305C8.97372 14.6694 8.92372 14.7111 8.87928 14.7444C8.90427 14.7639 9.42927 15.2055 9.43483 15.2111H9.55428L9.72927 15.0417L9.61539 14.9417L9.63483 14.8028L9.75427 14.7528L9.87372 14.8472L9.99316 14.7528L10.1126 14.8028L10.1376 14.9417L10.0237 15.0417L10.1932 15.2083L10.3626 15.0417L10.2487 14.9417L10.2682 14.8028L10.3876 14.7528L10.5071 14.8472L10.6265 14.7528L10.7459 14.8028L10.7654 14.9417L10.6515 15.0417L10.8209 15.2083L10.9904 15.0417L10.8765 14.9417L10.8959 14.8028L11.0154 14.7528L11.1348 14.8472L11.2543 14.7528L11.3737 14.8028L11.3932 14.9417L11.2793 15.0417L11.4543 15.2111H11.5737C11.5793 15.2055 12.1043 14.7639 12.1293 14.7444C12.0848 14.7055 12.0348 14.6639 11.9904 14.6305C11.9793 14.6417 11.8904 14.725 11.8904 14.725L11.7543 14.7055L11.6987 14.6055C11.6987 14.6055 11.7793 14.525 11.7932 14.5111C11.7793 14.4972 11.6987 14.4167 11.6987 14.4167L11.7543 14.3167L11.8904 14.2972C11.8904 14.2972 11.9793 14.3778 11.9904 14.3917L12.1404 14.2667V14.2222L11.9904 14.0972C11.9793 14.1083 11.8904 14.1917 11.8904 14.1917L11.7543 14.1778L11.6987 14.0778C11.6987 14.0778 11.7793 13.9972 11.7932 13.9833C11.7793 13.9694 11.6987 13.8889 11.6987 13.8889L11.7543 13.7889L11.8904 13.775C11.8904 13.775 11.9793 13.8555 11.9904 13.8639C12.0404 13.825 12.0904 13.7833 12.1404 13.7444V13.6944L11.9904 13.575C11.9793 13.5861 11.8904 13.6639 11.8904 13.6639L11.7543 13.65L11.6987 13.55C11.6987 13.55 11.7793 13.4694 11.7932 13.4556C11.7793 13.4417 11.6987 13.3611 11.6987 13.3611L11.7543 13.2611L11.8904 13.2417C11.8904 13.2417 11.9793 13.3222 11.9904 13.3361C12.0348 13.2972 12.0848 13.2611 12.1348 13.2222C12.1154 13.2083 11.5848 12.7611 11.5793 12.7556H11.4598L11.2848 12.925L11.3987 13.025L11.3793 13.1639L11.2598 13.2194L11.1404 13.125L11.0209 13.2194L10.9015 13.1639L10.8821 13.025L10.9959 12.925L10.8265 12.7583L10.6571 12.925L10.7709 13.025L10.7515 13.1639L10.6321 13.2194L10.5126 13.125L10.3932 13.2194L10.2737 13.1639L10.2543 13.025L10.3682 12.925L10.1987 12.7583L10.0293 12.925L10.1432 13.025L10.1182 13.1611L9.99872 13.2167L9.87927 13.1222L9.75983 13.2167L9.64039 13.1611L9.62094 13.0222L9.73483 12.9222L9.55428 12.7528L9.43483 12.75ZM8.87372 13.925V14.0361L8.93761 13.9805L8.87372 13.925Z" fill="#D22630"/>
<path d="M9.88522 15.1277L9.79077 15.2139H9.97688L9.88522 15.1277Z" fill="white"/>
<path d="M10.5211 15.1277L10.4323 15.2139H10.6184L10.5211 15.1277Z" fill="white"/>
<path d="M11.1596 15.1277L11.0652 15.2139H11.2513L11.1596 15.1277Z" fill="white"/>
<path d="M9.79077 12.75L9.88522 12.8389L9.97966 12.75H9.79077Z" fill="white"/>
<path d="M10.4261 12.75L10.5206 12.8389L10.615 12.75H10.4261Z" fill="white"/>
<path d="M11.0681 12.75L11.1626 12.8389L11.257 12.75H11.0681Z" fill="white"/>
<path d="M12.1709 13.3945L12.1071 13.45L12.1709 13.5V13.3945Z" fill="white"/>
<path d="M12.1709 13.9252L12.1071 13.9807L12.1709 14.0363V13.9252Z" fill="white"/>
<path d="M12.1709 14.4611L12.1071 14.5166L12.1709 14.5722V14.4611Z" fill="white"/>
<path d="M8.87378 13.3945V13.5056L8.93767 13.45L8.87378 13.3945Z" fill="white"/>
<path d="M8.87378 13.9252V14.0363L8.93767 13.9807L8.87378 13.9252Z" fill="white"/>
<path d="M8.87378 14.4583V14.5694L8.93767 14.5139L8.87378 14.4583Z" fill="white"/>
<path d="M11.0686 13.8054V13.6137H10.8769V13.4026H10.1714V13.6137H9.97971V13.8054H9.71582V14.1609H9.98249V14.3526H10.1742V14.5637H10.8797V14.3526H11.0714V14.1609H11.338V13.8054H11.0686Z" fill="#383739"/>
<path d="M10.5126 13.4252V13.6418L10.2071 13.8168V13.9724H9.73206V13.8279H9.99872V13.6363H10.1904V13.4252H10.5126Z" fill="#FFC72C"/>
<path d="M10.5316 14.5362V14.3196L10.8372 14.1446V13.989H11.3122V14.1335H11.0483V14.3251H10.8566V14.5362H10.5316Z" fill="#FFC72C"/>
<path d="M10.8372 13.9724V13.8168L10.5316 13.6418V13.4252H10.8538V13.6363H11.0455V13.8279H11.3122V13.9724H10.8372Z" fill="white"/>
<path d="M9.73206 13.9915H10.2071V14.1471L10.5126 14.3221V14.5387H10.1932V14.3276H10.0015V14.136H9.73483L9.73206 13.9915Z" fill="white"/>
<path d="M10.2271 13.9915V14.136L10.5076 14.2971V13.9915H10.2271Z" fill="#D22630"/>
<path d="M10.5126 13.6667L10.2321 13.8278V13.9722H10.5126V13.6667Z" fill="#00843D"/>
<path d="M10.8184 13.9722V13.8278L10.5378 13.6667V13.9722H10.8184Z" fill="#D22630"/>
<path d="M10.5316 14.2971L10.8122 14.136V13.9915H10.5316V14.2971Z" fill="#00843D"/>
<path d="M7.94894 17.7528V18.3389H7.38783V18.8695H6.82117V20.3889H7.38783V20.925H7.94894V21.5111H9.98228L10.3378 21.7278L10.1712 21.8278H9.44617L9.38506 21.7584H10.0406L9.8545 21.5722H8.91283L9.33783 22.0195H10.2184L10.5184 21.8389L10.8184 22.0195H11.6989L12.1239 21.5722H11.1878L11.0017 21.7584H11.6601L11.5989 21.8278H10.8739L10.7045 21.7222L11.0601 21.5056H13.0934V20.925H13.6545V20.3945H14.2212V18.8778H13.6545V18.3473H13.0934V17.7611H11.0601L10.7045 17.5445L10.8739 17.4389H11.5989L11.6601 17.5084H11.0045L11.1906 17.6945H12.1323L11.7073 17.2473H10.8267L10.5267 17.4278L10.2267 17.2473H9.34617L8.91561 17.6945H9.85728L10.0434 17.5084H9.38783L9.44895 17.4389H10.1739L10.3434 17.5445L9.98783 17.7611H7.94894V17.7528Z" fill="#D22630"/>
<path d="M11.0541 21.4861H13.0735V20.9H13.6291V20.3694H14.1957V18.8972H13.6291V18.3667H13.0735V17.7778H11.0541L10.2152 17.2722H9.34851L8.96518 17.6722H9.84573L9.99018 17.5278H9.33462L9.43462 17.4139H10.1763L11.1291 17.9861H12.8624V18.5722H13.4235V19.1028H13.9902V20.1556H13.4235V20.6861H12.8624V21.2778H11.1291L10.1763 21.85H9.43462L9.33462 21.7389H9.99018L9.84573 21.5944H8.96518L9.35129 21.9944H10.2152L11.0541 21.4861ZM9.91518 21.275H8.18184V20.6889H7.62629V20.1583H7.05962V19.1056H7.62629V18.575H8.18184V17.9889H9.91518L10.868 17.4167H11.6096L11.7096 17.5305H11.0596L11.2041 17.675H12.0846L11.6985 17.2778H10.8318L9.99573 17.7833H7.97629V18.3694H7.41518V18.9H6.84851V20.3722H7.41518V20.9028H7.97629V21.4889H9.99573L10.8318 21.9944H11.6985L12.0846 21.5944H11.2041L11.0596 21.7389H11.7096L11.6096 21.85H10.868L9.91518 21.275Z" fill="#FFC72C"/>
<path d="M12.6903 20.5249V21.111H11.0764L10.5209 21.4443L9.96533 21.111H8.35422V20.5249H7.79311V19.9943H7.22644V19.2832H7.79311V18.7499H8.35422V18.1638H9.96255H9.96811L10.5237 17.8193L11.0792 18.1554H12.6931V18.7416H13.2542V19.2721H13.8209V19.9832H13.2542V20.5249H12.6903Z" fill="#00843D"/>
<path d="M8.56299 20.3138V20.8805H9.4491L8.56299 20.2944V20.3138Z" fill="#383739"/>
<path d="M8.56299 18.9502V18.3835H9.4491L8.56299 18.9724V18.9502Z" fill="#383739"/>
<path d="M12.4819 20.3138V20.8805H11.5958L12.4819 20.2944V20.3138Z" fill="#383739"/>
<path d="M12.4819 18.9502V18.3835H11.5958L12.4819 18.9696V18.9502Z" fill="#383739"/>
<path d="M8.58459 20.3333L9.37626 20.8583H8.58459V20.3333Z" fill="#D22630"/>
<path d="M8.58459 18.9307C8.61515 18.9113 9.32626 18.439 9.37626 18.4057H8.58459V18.9307Z" fill="#D22630"/>
<path d="M12.4599 20.3333C12.4293 20.3528 11.7182 20.825 11.6682 20.8583H12.4599V20.3333Z" fill="#D22630"/>
<path d="M12.4599 18.9307C12.4293 18.9113 11.7182 18.439 11.6682 18.4057H12.4599V18.9307Z" fill="#D22630"/>
<path d="M9.69077 19.4778V19.1862H9.59077L9.11577 18.8917L9.11021 18.8973L8.63799 19.1917H8.53799V19.4834H8.31299V19.7945H8.53799V20.0834H8.63799L9.11299 20.3778L9.58799 20.0834H9.68799V19.7917H10.0297V19.4806L9.69077 19.4778Z" fill="#383739"/>
<path d="M9.12114 18.9167L9.55725 19.1861H8.68781L9.12114 18.9167ZM9.55447 20.0778L9.11836 20.3472L8.68225 20.0778H9.55447Z" fill="#D22630"/>
<path d="M9.4517 19.4973V19.7667H8.91003V19.4973H9.4517Z" fill="#D22630"/>
<path d="M9.67094 19.7862V20.0556H9.12927V19.7862H9.67094Z" fill="#FFC72C"/>
<path d="M9.10978 19.7862V20.0556H8.56812V19.7862H9.10978Z" fill="#FFC72C"/>
<path d="M10.0125 19.4973V19.7667H9.47083V19.4973H10.0125Z" fill="#FFC72C"/>
<path d="M8.88481 19.4973V19.7667H8.34314V19.4973H8.88481Z" fill="#FFC72C"/>
<path d="M9.67094 19.2056V19.4751H9.12927V19.2056H9.67094Z" fill="#FFC72C"/>
<path d="M9.10978 19.2056V19.4751H8.56812V19.2056H9.10978Z" fill="#FFC72C"/>
<path d="M8.73468 19.5583V19.7083H8.49023V19.5583H8.73468Z" fill="#383739"/>
<path d="M8.95966 19.2667V19.4167H8.71521V19.2667H8.95966Z" fill="#383739"/>
<path d="M9.52118 19.2667V19.4167H9.27673V19.2667H9.52118Z" fill="#383739"/>
<path d="M9.2984 19.5583V19.7083H9.05396V19.5583H9.2984Z" fill="#383739"/>
<path d="M9.85983 19.5583V19.7083H9.61816V19.5583H9.85983Z" fill="#383739"/>
<path d="M9.52118 19.8474V19.9974H9.27673V19.8474H9.52118Z" fill="#383739"/>
<path d="M8.95966 19.8474V19.9974H8.71521V19.8474H8.95966Z" fill="#383739"/>
<path d="M8.71263 19.5833H8.51819V19.6889H8.71263V19.5833Z" fill="white"/>
<path d="M8.93468 19.2917H8.74023V19.3972H8.93468V19.2917Z" fill="white"/>
<path d="M9.5017 19.2917H9.30725V19.3972H9.5017V19.2917Z" fill="white"/>
<path d="M9.27354 19.5833H9.0791V19.6889H9.27354V19.5833Z" fill="white"/>
<path d="M9.83995 19.5833H9.64551V19.6889H9.83995V19.5833Z" fill="white"/>
<path d="M9.5017 19.8723H9.30725V19.9778H9.5017V19.8723Z" fill="white"/>
<path d="M8.93468 19.8723H8.74023V19.9778H8.93468V19.8723Z" fill="white"/>
<path d="M11.3537 19.4778V19.1862H11.4537L11.9287 18.8917L11.9343 18.8973L12.4065 19.1917H12.5065V19.4834H12.7315V19.7945H12.5065V20.0834H12.4065L11.9259 20.3751L11.4509 20.0806H11.3509V19.7889H11.0093V19.4778H11.3537Z" fill="#383739"/>
<path d="M11.9243 18.9167L11.4882 19.1861H12.3548L11.9243 18.9167ZM11.4909 20.0778L11.927 20.3472L12.3632 20.0778H11.4909Z" fill="#D22630"/>
<path d="M11.5924 19.4973V19.7667H12.1341V19.4973H11.5924Z" fill="#D22630"/>
<path d="M11.3732 19.7862V20.0556H11.9148V19.7862H11.3732Z" fill="#FFC72C"/>
<path d="M11.9352 19.7862V20.0556H12.4768V19.7862H11.9352Z" fill="#FFC72C"/>
<path d="M11.0316 19.4973V19.7667H11.5733V19.4973H11.0316Z" fill="#FFC72C"/>
<path d="M12.16 19.4973V19.7667H12.7017V19.4973H12.16Z" fill="#FFC72C"/>
<path d="M11.3732 19.2056V19.4751H11.9148V19.2056H11.3732Z" fill="#FFC72C"/>
<path d="M11.9352 19.2056V19.4751H12.4768V19.2056H11.9352Z" fill="#FFC72C"/>
<path d="M12.304 19.5583V19.7083H12.5484V19.5583H12.304Z" fill="#383739"/>
<path d="M12.0846 19.2667V19.4167H12.329V19.2667H12.0846Z" fill="#383739"/>
<path d="M11.5233 19.2667V19.4167H11.7678V19.2667H11.5233Z" fill="#383739"/>
<path d="M11.7461 19.5583V19.7083H11.9905V19.5583H11.7461Z" fill="#383739"/>
<path d="M11.1852 19.5583V19.7083H11.4296V19.5583H11.1852Z" fill="#383739"/>
<path d="M11.5233 19.8474V19.9974H11.7678V19.8474H11.5233Z" fill="#383739"/>
<path d="M12.0846 19.8474V19.9974H12.329V19.8474H12.0846Z" fill="#383739"/>
<path d="M12.3326 19.5833H12.5271V19.6889H12.3326V19.5833Z" fill="white"/>
<path d="M12.1036 19.2917H12.2981V19.3972H12.1036V19.2917Z" fill="white"/>
<path d="M11.5432 19.2917H11.7377V19.3972H11.5432V19.2917Z" fill="white"/>
<path d="M11.7705 19.5833H11.965V19.6889H11.7705V19.5833Z" fill="white"/>
<path d="M11.2047 19.5833H11.3992V19.6889H11.2047V19.5833Z" fill="white"/>
<path d="M11.5432 19.8723H11.7377V19.9778H11.5432V19.8723Z" fill="white"/>
<path d="M12.1036 19.8723H12.2981V19.9778H12.1036V19.8723Z" fill="white"/>
<path d="M11.0934 18.9916V19.2833H10.9934L10.5184 19.5777L10.5128 19.5721L10.0406 19.2777H9.94059V18.986H9.66003V18.6749H9.94059V18.3833H10.0406L10.5156 18.0888L10.9906 18.3833H11.0906V18.6749H11.3711V18.986H11.0906V18.9916H11.0934Z" fill="#383739"/>
<path d="M10.5207 19.5528L10.9568 19.2834H10.0902L10.5207 19.5528ZM10.9568 18.389L10.5207 18.1195L10.0846 18.389H10.9568Z" fill="#FFC72C"/>
<path d="M11.0733 18.6806V18.4112H10.5316V18.6806H11.0733Z" fill="#D22630"/>
<path d="M10.5125 18.6806V18.4112H9.97083V18.6806H10.5125Z" fill="#D22630"/>
<path d="M11.3539 18.9723V18.7029H10.8123V18.9723H11.3539Z" fill="#D22630"/>
<path d="M10.7931 18.9723V18.7029H10.2515V18.9723H10.7931Z" fill="#D22630"/>
<path d="M10.2319 18.9723V18.7029H9.69019V18.9723H10.2319Z" fill="#D22630"/>
<path d="M11.0733 19.261V18.9915H10.5316V19.261H11.0733Z" fill="#D22630"/>
<path d="M10.5125 19.261V18.9915H9.97083V19.261H10.5125Z" fill="#D22630"/>
<path d="M10.3628 18.4693V18.6193H10.1211V18.4693H10.3628Z" fill="#383739"/>
<path d="M10.9234 18.4693V18.6193H10.679V18.4693H10.9234Z" fill="#383739"/>
<path d="M10.0825 18.761V18.911H9.83801V18.761H10.0825Z" fill="#383739"/>
<path d="M10.6428 18.761V18.911H10.3983V18.761H10.6428Z" fill="#383739"/>
<path d="M11.2103 18.761V18.911H10.9658V18.761H11.2103Z" fill="#383739"/>
<path d="M10.3628 19.0502V19.2002H10.1211V19.0502H10.3628Z" fill="#383739"/>
<path d="M10.9234 19.0502V19.2002H10.679V19.0502H10.9234Z" fill="#383739"/>
<path d="M10.3428 18.4945H10.1483V18.6001H10.3428V18.4945Z" fill="white"/>
<path d="M10.904 18.4945H10.7096V18.6001H10.904V18.4945Z" fill="white"/>
<path d="M10.0576 18.7862H9.86316V18.8917H10.0576V18.7862Z" fill="white"/>
<path d="M10.6241 18.7862H10.4241V18.8917H10.6185V18.7862H10.6241Z" fill="white"/>
<path d="M11.1847 18.7862H10.9902V18.8917H11.1847V18.7862Z" fill="white"/>
<path d="M10.3428 19.0748H10.1483V19.1804H10.3428V19.0748Z" fill="white"/>
<path d="M10.904 19.0748H10.7096V19.1804H10.904V19.0748Z" fill="white"/>
<path d="M11.0934 20.5834V20.875H10.9934L10.5184 21.1695L10.5128 21.1639L10.0406 20.8695H9.94059V20.5778H9.66003V20.2723H9.94059V19.9806H10.0406L10.5156 19.6862L10.9906 19.9806H11.0906V20.2723H11.3711V20.5834H11.0934Z" fill="#383739"/>
<path d="M10.5207 21.1444L10.9568 20.8749H10.0902L10.5207 21.1444ZM10.9568 19.9833L10.5207 19.7138L10.0846 19.9833H10.9568Z" fill="#FFC72C"/>
<path d="M11.0733 20.2722V20.0027H10.5316V20.2722H11.0733Z" fill="#D22630"/>
<path d="M10.5125 20.2722V20.0027H9.97083V20.2722H10.5125Z" fill="#D22630"/>
<path d="M11.3539 20.5638V20.2944H10.8123V20.5638H11.3539Z" fill="#D22630"/>
<path d="M10.7931 20.5638V20.2944H10.2515V20.5638H10.7931Z" fill="#D22630"/>
<path d="M10.2319 20.5638V20.2944H9.69019V20.5638H10.2319Z" fill="#D22630"/>
<path d="M11.0733 20.8555V20.5833H10.5316V20.8528H11.0733V20.8555Z" fill="#D22630"/>
<path d="M10.5125 20.8555V20.5833H9.97083V20.8528H10.5125V20.8555Z" fill="#D22630"/>
<path d="M10.3628 20.0638V20.2138H10.1211V20.0638H10.3628Z" fill="#383739"/>
<path d="M10.9234 20.0638V20.2138H10.679V20.0638H10.9234Z" fill="#383739"/>
<path d="M10.0825 20.3528V20.5028H9.83801V20.3528H10.0825Z" fill="#383739"/>
<path d="M10.6428 20.3528V20.5028H10.3983V20.3528H10.6428Z" fill="#383739"/>
<path d="M11.2103 20.3528V20.5028H10.9658V20.3528H11.2103Z" fill="#383739"/>
<path d="M10.3628 20.6445V20.7945H10.1211V20.6445H10.3628Z" fill="#383739"/>
<path d="M10.9234 20.6445V20.7945H10.679V20.6445H10.9234Z" fill="#383739"/>
<path d="M10.3428 20.0888H10.1483V20.1944H10.3428V20.0888Z" fill="white"/>
<path d="M10.904 20.0888H10.7096V20.1944H10.904V20.0888Z" fill="white"/>
<path d="M10.0576 20.3777H9.86316V20.4833H10.0576V20.3777Z" fill="white"/>
<path d="M10.6241 20.3777H10.4241V20.4833H10.6185V20.3777H10.6241Z" fill="white"/>
<path d="M11.1847 20.3777H10.9902V20.4833H11.1847V20.3777Z" fill="white"/>
<path d="M10.3428 20.6694H10.1483V20.7749H10.3428V20.6694Z" fill="white"/>
<path d="M10.904 20.6694H10.7096V20.7749H10.904V20.6694Z" fill="white"/>
<path d="M7.45129 24.05L9.55963 22.9167H9.56518H11.493L13.6013 24.05V25.9195L11.493 27.05H9.56518L7.45685 25.9167V24.0472H7.45129V24.05Z" fill="#383739"/>
<path d="M9.56533 22.9388L7.47644 24.0666V25.9111L9.56533 27.0388H11.4848L13.5737 25.9111V24.0666L11.4848 22.9388H9.56533ZM9.60144 23.0888H11.4459L13.4237 24.15V25.8138L11.4459 26.875H9.60144L7.62366 25.8138V24.15L9.60144 23.0888Z" fill="#00843D"/>
<path d="M10.5321 24.9722V26.8555H11.4376L13.4015 25.7972V24.9916H10.5126V23.1083H9.6043L7.64319 24.1666V24.9722H10.5321Z" fill="#FFC72C"/>
<path d="M10.5127 24.9722V26.8555H9.60439L7.6405 25.7972V24.9916H10.5322V23.1083H11.4377L13.4016 24.1666V24.9722H10.5127Z" fill="white"/>
<path d="M10.6985 26.7499V26.2026L10.5235 26.3137L10.3485 26.2026V26.7499H9.80126L10.1707 26.4804V26.0943L9.60404 25.7387H9.20959V24.2304H9.60404L10.1707 23.8749V23.4887L9.80126 23.2193H9.83737H10.354V23.7665L10.529 23.6554L10.704 23.7665V23.2193H11.2513L10.8818 23.4887V23.8749L11.4485 24.2304H11.8429V25.7332H11.4485L10.8818 26.0887V26.4749L11.2513 26.7443H10.7013V26.7499H10.6985Z" fill="#383739"/>
<path d="M10.7237 23.2333V23.7944L10.532 23.675V23.8361L11.3931 24.3861H11.6792V24.9722H11.8154V24.25H11.4348L10.8598 23.8833V23.4722L11.1848 23.2305L10.7237 23.2333ZM9.22925 24.9916V25.7139H9.60425L10.1876 26.0833V26.4944L9.86258 26.7361H10.3237V26.175L10.5098 26.2944V26.1278L9.64869 25.5805H9.36814V24.9944L9.22925 24.9916Z" fill="#FFC72C"/>
<path d="M9.8598 23.2333L10.1848 23.4749V23.8861L9.60425 24.2499H9.22925V24.9722H9.36536V24.3861H9.64591L10.507 23.8388V23.6777L10.3209 23.7972V23.2361L9.8598 23.2333ZM11.6792 24.9916V25.5777H11.3931L10.532 26.1249V26.2916L10.7237 26.1722V26.7333H11.1848L10.8598 26.4916V26.0833L11.4348 25.7138H11.8154V24.9916H11.6792Z" fill="white"/>
<path d="M9.38983 25.5582H9.6565L10.5232 26.1082L11.3898 25.5582H11.6565V24.411H11.3898H11.3843L10.5176 23.861L9.65094 24.411H9.38428L9.38983 25.5582Z" fill="#D22630"/>
<path d="M11.1242 25.2526H11.3103V25.1665H11.1714V25.0054H11.4658V25.4109H11.1797V25.6859H10.5936V25.2915H10.8547V25.4526H10.7547V25.5331H11.0242V25.3831L9.92138 24.7109H9.73527V24.797H9.87416V24.9581H9.57971V24.5526H9.86582V24.2776H9.87693H10.4519V24.672H10.1908V24.5109H10.2908V24.4304H10.0214V24.5804L11.1242 25.2526ZM11.0242 24.5859V24.4359H10.7547V24.5165H10.8547V24.6776H10.5936V24.2831H11.1797V24.5581H11.4658V24.9637H11.1714V24.8026H11.3103V24.7165H11.1242L10.0214 25.3887V25.5387H10.2908V25.4581H10.1908V25.297H10.4519V25.6943H9.86582V25.4193H9.57971V25.0137H9.87416V25.1748H9.73527V25.2609H9.92138L11.0242 24.5859Z" fill="#383739"/>
<path d="M11.0436 25.3666V25.5527H10.7269V25.4333H10.8269V25.3194H10.6102V25.6749H11.1602V25.3999H11.4463V25.0388H11.188V25.1527H11.3269V25.2833H11.1158L9.99912 24.6027V24.4166H10.3158V24.536H10.2158V24.6499H10.4325V24.2944H9.88523V24.5694H9.59912V24.9305H9.85468V24.8166H9.71579V24.686H9.9269L11.0436 25.3666ZM11.1186 24.686H11.3297V24.8166H11.1908V24.9305H11.4463V24.5694H11.1602V24.2944H10.613V24.6499H10.8297V24.5305H10.7297V24.411H11.0463V24.5972L9.9269 25.2777H9.71579V25.1472H9.85468V25.0333H9.59912V25.3944H9.88523V25.6694H10.4325V25.3138H10.2158V25.4277H10.3158V25.5472H9.99912V25.361L11.1186 24.686Z" fill="white"/>
<path d="M12.977 25.0779V25.6696H12.7271V25.4585H12.4771V25.6696H12.2271V25.0779H12.4771V25.2891H12.7271V25.0779H12.977Z" fill="#383739"/>
<path d="M12.0797 25.8583V26.4499H11.8297V26.2388H11.5797V26.4499H11.3297V25.8583H11.5797V26.0694H11.8297V25.8583H12.0797Z" fill="#383739"/>
<path d="M12.977 24.886V24.2944H12.7271V24.5055H12.4771V24.2944H12.2271V24.886H12.4771V24.6805H12.7271V24.8916H12.977V24.886Z" fill="#383739"/>
<path d="M8.06799 25.0779V25.6696H8.318V25.4585H8.568V25.6696H8.818V25.0779H8.568V25.2891H8.318V25.0779H8.06799Z" fill="#383739"/>
<path d="M8.06799 24.886V24.2944H8.318V24.5055H8.568V24.2944H8.818V24.886H8.568V24.6805H8.318V24.8916H8.06799V24.886Z" fill="#383739"/>
<path d="M12.0797 24.1056V23.514H11.8297V23.7251H11.5797V23.514H11.3297V24.1056H11.5797V23.8945H11.8297V24.1056H12.0797Z" fill="#383739"/>
<path d="M8.96521 25.8583V26.4499H9.21521V26.2388H9.46521V26.4499H9.71521V25.8583H9.46521V26.0694H9.21521V25.8583H8.96521Z" fill="#383739"/>
<path d="M8.96521 24.1056V23.514H9.21521V23.7251H9.46521V23.514H9.71521V24.1056H9.46521V23.8945H9.21521V24.1056H8.96521Z" fill="#383739"/>
<path d="M12.2286 23.6943V24.1416H13.0592L12.2286 23.6943Z" fill="#383739"/>
<path d="M8.81541 26.2696V25.8224H7.98486L8.81541 26.2696Z" fill="#383739"/>
<path d="M8.81541 23.6943V24.1416H7.98486L8.81541 23.6943Z" fill="#383739"/>
<path d="M12.2286 26.2696V25.8224H13.0592L12.2286 26.2696Z" fill="#383739"/>
<path d="M12.7515 25.4389V25.65H12.957V25.1028H12.7515V25.3139H12.457V25.1028H12.2515V25.65H12.457V25.4389H12.7515Z" fill="#D22630"/>
<path d="M11.8536 26.2196V26.4307H12.0592V25.8835H11.8536V26.0946H11.5592V25.8835H11.3536V26.4307H11.5592V26.2196H11.8536Z" fill="#D22630"/>
<path d="M12.7515 24.5277V24.3166H12.957V24.8611H12.7515V24.65H12.457V24.8611H12.2515V24.3138H12.457V24.525H12.7515V24.5277Z" fill="#D22630"/>
<path d="M8.29357 25.4389V25.65H8.08801V25.1028H8.29357V25.3139H8.58801V25.1028H8.79357V25.65H8.58801V25.4389H8.29357Z" fill="#D22630"/>
<path d="M8.29357 24.5277V24.3166H8.08801V24.8611H8.29357V24.65H8.58801V24.8611H8.79357V24.3138H8.58801V24.525H8.29357V24.5277Z" fill="#D22630"/>
<path d="M11.8536 23.7446V23.5334H12.0592V24.0807H11.8536V23.8696H11.5592V24.0807H11.3536V23.5334H11.5592V23.7446H11.8536Z" fill="#D22630"/>
<path d="M9.19042 26.2196V26.4307H8.98486V25.8835H9.19042V26.0946H9.48486V25.8835H9.69042V26.4307H9.48486V26.2196H9.19042Z" fill="#D22630"/>
<path d="M9.19042 23.7446V23.5334H8.98486V24.0807H9.19042V23.8696H9.48486V24.0807H9.69042V23.5334H9.48486V23.7446H9.19042Z" fill="#D22630"/>
<path d="M12.2541 23.7305V24.1221H12.9763L12.2541 23.7305ZM8.06799 25.8499L8.79299 26.2416V25.8499H8.06799Z" fill="#FFC72C"/>
<path d="M8.78799 23.7305L8.06299 24.1221H8.78799V23.7305ZM12.2547 25.8499V26.2416L12.9797 25.8499H12.2547Z" fill="white"/>
<path d="M13.9243 26.6251C13.8854 26.7945 13.7493 26.9251 13.7132 27.1001C13.6493 26.9139 13.5882 26.7584 13.6326 26.5584C13.6632 26.4139 13.7882 26.3139 13.7993 26.1639C13.9354 26.2862 13.9632 26.4556 13.9243 26.6251ZM13.9604 27.3417C13.8493 27.4973 13.6909 27.6112 13.5187 27.6917C13.5548 27.5556 13.4882 27.4556 13.4187 27.3473C13.3326 27.2167 13.2937 27.0917 13.3632 26.9417C13.3937 27.0167 13.4382 27.0806 13.4882 27.1473C13.5632 27.2528 13.6132 27.3417 13.6243 27.4723C13.7104 27.4084 13.7493 27.3112 13.7937 27.2167C13.8632 27.0806 13.9798 26.9723 14.1104 26.8973C14.0798 27.0556 14.0493 27.2167 13.9604 27.3417ZM13.3271 27.8028C13.3521 27.8889 13.3715 27.9723 13.3659 28.0639C13.4409 27.9834 13.5354 27.9251 13.6271 27.8584C13.7465 27.7639 13.8882 27.6917 13.9826 27.5667C13.9687 27.7473 13.8937 27.8973 13.7409 28.0084C13.5854 28.1223 13.3965 28.1889 13.2437 28.3084C13.2687 28.1417 13.2048 28.0139 13.1548 27.8584C13.1104 27.7139 13.1548 27.5667 13.2493 27.4584C13.2521 27.5834 13.2937 27.6862 13.3271 27.8028ZM12.9771 28.3584C12.9465 28.4834 12.8576 28.5834 12.7909 28.7C12.9576 28.65 13.1021 28.5612 13.2521 28.4751C13.4326 28.3806 13.6215 28.3139 13.7826 28.1889C13.7021 28.4834 13.5021 28.6612 13.2104 28.7445C13.0104 28.8056 12.8437 28.7751 12.6048 28.8695C12.6354 28.7028 12.6798 28.5278 12.7604 28.3834C12.8215 28.2778 12.8854 28.1723 12.9271 28.0528C12.9826 28.1528 13.0076 28.2473 12.9771 28.3584ZM12.3715 28.8139C12.3159 28.9084 12.2409 28.9945 12.1465 29.0584C12.3826 29.0723 12.5715 28.9223 12.7965 28.9195C12.9354 28.9139 13.0715 28.9584 13.2159 28.9445C13.0465 29.0584 12.8659 29.1612 12.6604 29.1889C12.3909 29.2251 12.1382 29.1528 11.8437 29.1834C11.9826 29.0834 12.0548 28.9528 12.1382 28.8139C12.2521 28.6389 12.3576 28.5139 12.5798 28.4834C12.4854 28.5751 12.4354 28.7001 12.3715 28.8139ZM11.5354 29.2C11.9521 29.2695 12.3465 29.3612 12.7687 29.3667C12.2965 29.5334 11.8521 29.5612 11.3798 29.3917C11.1243 29.3028 10.9326 29.2528 10.7437 29.2667C10.4632 29.2862 10.1215 29.3973 9.7465 29.7917L9.60205 29.6723C10.1382 29.1945 10.8437 29.0862 11.5354 29.2Z" fill="#FFC72C"/>
</g>
<defs>
<clipPath id="clip0_93_9068">
<rect width="53.3333" height="30" fill="white" transform="translate(0.993164)"/>
</clipPath>
</defs>
</svg>
