<svg width="54" height="30" viewBox="0 0 54 30" fill="none" xmlns="http://www.w3.org/2000/svg">
<g clip-path="url(#clip0_93_17577)">
<path d="M-2.21002 -0.0945435H27.8816C32.0344 8.21657 28.6678 18.3221 20.3594 22.4749C12.0511 26.6277 1.94276 23.261 -2.21002 14.9527V-0.0945435Z" fill="#002868"/>
<path d="M27.2094 16.2971L12.8344 9.11097L-1.53782 16.2971L-2.88226 13.6082L9.47052 7.43042L-2.88226 1.24986L-1.53782 -1.43903L12.8344 5.74986L27.2094 -1.43903L28.5539 1.24986L16.2011 7.43042L28.5539 13.6082L27.2094 16.2971Z" fill="white"/>
<path d="M27.4369 15.85L12.8341 8.55281L-1.76587 15.85L-2.65753 14.0556L10.5925 7.43059L-2.65753 0.802807L-1.76587 -0.991638L12.8341 6.30559L27.4369 -0.991638L28.3286 0.802807L15.0786 7.43059L28.3286 14.0556L27.4369 15.85Z" fill="#CE1126"/>
<path d="M15.3424 17.461H10.3285V9.93599H-4.71875V4.9221H10.3285V-2.60291H15.3424V4.9221H30.3896V9.93599H15.3424V17.461Z" fill="white"/>
<path d="M14.34 17.461H11.3316V8.93324H-2.21002V5.9249H11.3316V-0.0945435H14.34V5.9249H30.39V8.93324H14.34V17.461Z" fill="#CE1126"/>
<path d="M-2.21002 14.9527H27.8816V-0.0945435H57.9761V29.9999H-2.21002" fill="#002868"/>
<path d="M48.1949 8.68347V13.1974C48.1949 16.2057 46.6893 19.4474 42.9282 21.2029C39.1671 19.4474 37.6615 16.2085 37.6615 13.1974V8.68347H48.1949Z" fill="#FCD116"/>
<path d="M42.9283 21.4221L42.8422 21.3832C41.0366 20.5415 39.6477 19.3276 38.7088 17.772C37.8922 16.4137 37.4588 14.8332 37.4588 13.197V8.48315H48.3922V13.197C48.3922 14.8332 47.9616 16.4109 47.1422 17.7776C46.2088 19.3332 44.8144 20.5471 43.0088 21.3887L42.9283 21.4221ZM37.8644 8.88315V13.197C37.8644 14.8165 38.3616 18.8054 42.9311 20.9804C47.5005 18.8026 47.9977 14.8165 47.9977 13.197V8.88315H37.8644Z" fill="black"/>
<path d="M42.9278 21.3972L42.8528 21.3611C41.0528 20.5195 39.6667 19.3084 38.7361 17.7611C37.9194 16.4056 37.4861 14.8278 37.4861 13.1973V8.50836H48.3694V13.1973C48.3694 14.8278 47.9389 16.4084 47.1194 17.7611C46.1861 19.3111 44.8028 20.5195 43.0028 21.3611L42.9278 21.3972ZM37.8389 8.85836V13.1973C37.8389 14.8223 38.3361 18.825 42.9306 21.0111C47.525 18.8306 48.0222 14.8278 48.0222 13.1973V8.85836H37.8389Z" fill="white"/>
<path d="M41.028 13.6526C40.8864 13.8832 40.6558 13.9332 40.4753 13.8582C40.2836 13.7832 40.1197 13.3415 39.928 13.1054C39.7475 12.8748 39.6975 12.9748 39.5725 12.8332C39.453 12.7026 39.2669 12.6026 38.9697 12.461C38.803 12.386 38.6392 12.3165 38.5225 12.0304C38.5669 11.911 38.6892 11.811 38.778 11.7748C38.8725 11.7443 38.9475 11.6054 38.9586 11.4832C38.9725 11.3665 39.0753 11.2415 39.2086 11.1526C39.1447 11.1665 39.0142 11.1387 38.953 11.0971C38.8975 11.0471 38.803 11.0582 38.7475 11.1026C38.6919 11.1415 38.6225 11.1526 38.5225 11.1415C38.5614 11.111 38.628 11.0415 38.6392 10.9748C38.6503 10.911 38.7197 10.8804 38.8642 10.8804C39.0058 10.8804 39.0947 10.7137 39.2114 10.7137C39.1308 10.7137 39.1475 10.5721 39.1919 10.5693C38.9919 10.5304 39.0169 10.3693 39.0975 10.3693C39.0919 10.3443 39.0669 10.3193 38.9725 10.2887C38.8808 10.2582 38.928 10.1721 38.9975 10.1221C38.9336 9.99707 38.9919 9.90262 39.0919 9.82207C38.9503 9.81651 39.1058 9.62207 39.1419 9.51651C39.1808 9.41651 39.1975 9.39985 39.2419 9.46651C39.2919 9.52207 39.4086 9.65818 39.5392 9.69151C39.6642 9.7304 39.7392 9.79707 39.7642 9.90818C39.7892 10.0248 39.8392 10.0776 39.9808 10.1276C40.1253 10.1721 40.3225 10.2943 40.2975 10.5582C40.4142 10.5637 40.4919 10.5971 40.5642 10.6526" fill="#FCAD56"/>
<path d="M40.6425 13.9001C40.5814 13.9001 40.5258 13.889 40.4758 13.864C40.3564 13.814 40.2453 13.6279 40.1286 13.4279C40.0647 13.3113 39.9925 13.1974 39.9286 13.1113C39.823 12.9807 39.7675 12.9557 39.7091 12.9363C39.6647 12.9224 39.623 12.9057 39.5675 12.8446C39.4508 12.714 39.2758 12.6196 38.9647 12.4779L38.9508 12.4668C38.7953 12.3974 38.6286 12.3224 38.5203 12.0418V12.0363C38.5647 11.9168 38.6869 11.8168 38.7814 11.7751C38.8758 11.7446 38.948 11.6057 38.9564 11.4946C38.9675 11.389 39.0508 11.2696 39.1869 11.1724C39.1175 11.1779 39.0119 11.1529 38.9508 11.1113C38.8953 11.0613 38.8064 11.0751 38.7508 11.1168C38.6897 11.1557 38.6203 11.1668 38.5203 11.1557C38.5147 11.1557 38.5147 11.1557 38.5147 11.1501C38.5147 11.1446 38.5147 11.1446 38.5147 11.1446C38.5286 11.1307 38.6203 11.0529 38.6258 10.9835C38.6314 10.9196 38.7119 10.8835 38.8564 10.8835C38.9258 10.8835 38.9869 10.839 39.0425 10.7974C39.0814 10.7668 39.123 10.7363 39.1675 10.7279C39.1536 10.7168 39.1425 10.6974 39.1369 10.6668C39.1369 10.6363 39.1425 10.6029 39.1619 10.5863C39.0564 10.5613 39.0175 10.4946 39.0203 10.4446C39.0258 10.4085 39.0453 10.3835 39.0758 10.3807C39.0647 10.3613 39.0397 10.3418 38.9564 10.3113C38.9175 10.2974 38.9064 10.2751 38.9008 10.2557C38.8953 10.2196 38.9258 10.1751 38.9703 10.139C38.9203 10.0335 38.9453 9.93903 39.0564 9.8418C39.0369 9.83625 39.0258 9.83069 39.0175 9.81681C38.9925 9.77792 39.0314 9.69736 39.073 9.62236C39.0925 9.58625 39.1091 9.55292 39.1175 9.52792C39.1369 9.47236 39.1564 9.43625 39.1786 9.43347C39.1925 9.43347 39.2091 9.44458 39.2286 9.47236L39.2342 9.47792C39.2842 9.53903 39.3953 9.65847 39.5203 9.69458C39.6508 9.73347 39.7258 9.80569 39.7508 9.91403C39.7758 10.0307 39.8258 10.0807 39.9619 10.1307C40.0675 10.1613 40.3036 10.2668 40.2841 10.5613C40.3897 10.5668 40.4758 10.5974 40.5453 10.6557C40.5508 10.6557 40.5508 10.6613 40.5453 10.6668C40.5453 10.6724 40.5397 10.6724 40.5341 10.6668C40.4647 10.6113 40.3841 10.5807 40.273 10.5751H40.2675V10.5696C40.2925 10.2779 40.0619 10.1724 39.9564 10.1446C39.8203 10.0946 39.7647 10.039 39.7397 9.91958C39.7147 9.81958 39.6453 9.75014 39.5203 9.71403C39.3897 9.67792 39.2786 9.55292 39.2286 9.49458L39.223 9.48903C39.2036 9.46403 39.1925 9.45292 39.1842 9.45292C39.1703 9.45292 39.148 9.49736 39.1341 9.53903C39.123 9.56958 39.1091 9.60014 39.0897 9.63347C39.0536 9.70292 39.0147 9.77792 39.0342 9.81403C39.0397 9.82514 39.0536 9.83347 39.0786 9.83347C39.0841 9.83347 39.0842 9.83347 39.0842 9.83903C39.0842 9.84458 39.0842 9.84458 39.0842 9.84458C38.9675 9.93903 38.9397 10.0307 38.9925 10.1362C38.9925 10.1418 38.9925 10.1418 38.9925 10.1474C38.948 10.1835 38.9175 10.2224 38.923 10.2585C38.9286 10.2779 38.9369 10.2946 38.9675 10.3029C39.0536 10.3335 39.0869 10.3585 39.098 10.389V10.3946L39.0925 10.4001C39.0619 10.4001 39.0425 10.4251 39.0369 10.4557C39.0314 10.5057 39.0758 10.5668 39.1869 10.5863C39.1925 10.5863 39.1925 10.5918 39.1925 10.5918C39.1925 10.5974 39.1869 10.5974 39.1869 10.5974C39.1675 10.6029 39.1508 10.6363 39.1564 10.6724C39.1564 10.6863 39.1675 10.7279 39.2064 10.7279C39.2119 10.7279 39.2119 10.7335 39.2119 10.7335L39.2064 10.739C39.1564 10.739 39.1064 10.7751 39.0564 10.814C38.9953 10.8585 38.9369 10.9057 38.8619 10.9057C38.7203 10.9057 38.6508 10.9363 38.6425 10.9974C38.6369 11.0613 38.5675 11.1279 38.5369 11.1529C38.6286 11.164 38.6869 11.1474 38.7425 11.114C38.798 11.0696 38.898 11.0529 38.9592 11.1085C39.0203 11.1529 39.1508 11.1724 39.2092 11.164C39.2147 11.164 39.2147 11.164 39.2203 11.1696C39.2203 11.1751 39.2203 11.1751 39.2203 11.1807C39.0786 11.2751 38.9842 11.4001 38.9758 11.5057C38.9647 11.6224 38.8897 11.7668 38.7897 11.8029C38.698 11.839 38.5842 11.939 38.5397 12.0529C38.6453 12.3279 38.8064 12.4001 38.9619 12.4696L38.9814 12.4807C39.2869 12.6251 39.4675 12.7224 39.5841 12.8529C39.6341 12.9085 39.6758 12.9279 39.7147 12.9446C39.7703 12.964 39.8341 12.989 39.9397 13.1251C40.0091 13.2168 40.0814 13.3307 40.1453 13.4474C40.2564 13.639 40.3647 13.8335 40.4869 13.8779C40.6564 13.9474 40.8869 13.914 41.0286 13.6724C41.0286 13.6668 41.0341 13.6668 41.0397 13.6724C41.0453 13.6724 41.0453 13.6779 41.0397 13.6835C40.9341 13.8335 40.7841 13.9001 40.6425 13.9001Z" fill="black"/>
<path d="M41.3753 10.2583C41.3753 10.4083 41.4448 10.5028 41.5309 10.5805C41.6253 10.6555 41.7059 10.7222 41.6864 10.8111C41.667 10.9111 41.7059 10.9778 41.7864 11.0361C41.8781 11.1 41.9364 11.1778 41.9114 11.3028C41.8864 11.4278 41.9059 11.5028 41.9559 11.6C42.0059 11.6944 42.0976 11.7694 42.0559 11.9222C42.0142 12.075 42.0364 12.2722 42.0864 12.375C42.1309 12.4694 42.0864 12.5444 41.9948 12.7166C41.9031 12.8833 41.8531 12.9416 41.6726 13.0083C41.4809 13.0639 41.4726 13.1778 41.4726 13.375C41.4726 13.575 41.342 13.675 41.0976 13.6416C40.8476 13.8472 40.692 13.6028 40.6253 13.2944C40.5615 12.9889 40.5503 12.6528 40.1781 12.3861C39.8115 12.1111 39.9587 11.6444 40.2698 11.4583C40.5753 11.2778 40.542 10.7361 40.5003 10.4055C40.4698 10.075 40.692 9.88331 40.8559 9.70276C41.092 9.76665 41.3753 10.1139 41.3753 10.2583Z" fill="#FFA1A1"/>
<path d="M40.9282 13.7C40.9087 13.7 40.8893 13.6945 40.8671 13.6889C40.7559 13.65 40.6726 13.4972 40.6254 13.2722C40.6143 13.2333 40.6115 13.1917 40.6004 13.1528C40.5504 12.8806 40.5004 12.6 40.1782 12.3695C40.0282 12.2583 39.9532 12.0972 39.9615 11.9278C39.9726 11.7333 40.0921 11.5361 40.2671 11.4306C40.5587 11.2611 40.5393 10.7472 40.4976 10.3833C40.4671 10.0833 40.6476 9.89724 40.8032 9.73057C40.8226 9.71113 40.8393 9.69446 40.8587 9.67502C40.8587 9.67502 40.8643 9.66946 40.8698 9.67502C41.0948 9.76668 41.3809 10.1111 41.3809 10.2556C41.3809 10.4167 41.4615 10.5056 41.5365 10.5722L41.542 10.5778C41.6337 10.6528 41.7115 10.7139 41.692 10.8139C41.6782 10.9056 41.7032 10.9639 41.7865 11.0333C41.867 11.0889 41.942 11.1639 41.917 11.3056C41.892 11.4306 41.9115 11.5056 41.9615 11.5972C41.9726 11.6167 41.9865 11.6361 41.9976 11.6583C42.042 11.7278 42.092 11.8028 42.0615 11.925C42.0254 12.0667 42.042 12.2667 42.092 12.3722C42.1365 12.4639 42.0976 12.5417 42.017 12.6945L42.0032 12.7195C41.917 12.8806 41.867 12.9445 41.6782 13.0111C41.492 13.0667 41.4837 13.1778 41.4837 13.3667C41.4837 13.4611 41.4532 13.5333 41.3976 13.5833C41.3337 13.6389 41.2309 13.6583 41.1004 13.6389C41.0421 13.675 40.9837 13.7 40.9282 13.7ZM40.8671 9.68613C40.8532 9.70002 40.8309 9.72224 40.8171 9.73613C40.6615 9.89724 40.4865 10.0833 40.5171 10.3778C40.5559 10.75 40.5809 11.2611 40.2809 11.4361C40.1115 11.5417 39.9893 11.7333 39.9809 11.9222C39.9754 12.0417 40.0059 12.2139 40.1921 12.3528C40.5171 12.5889 40.5671 12.875 40.6171 13.1445C40.6226 13.1833 40.6309 13.225 40.6421 13.2639C40.6865 13.4833 40.7726 13.6361 40.8782 13.6695C40.9421 13.6945 41.0226 13.6695 41.1032 13.6056H41.1087C41.2337 13.625 41.3337 13.6056 41.4004 13.5556C41.4504 13.5111 41.4809 13.4389 41.4809 13.35C41.4809 13.1583 41.492 13.0389 41.6865 12.9778C41.867 12.9139 41.917 12.8472 42.0032 12.6917L42.0143 12.6667C42.0948 12.5167 42.1309 12.4472 42.0893 12.3611C42.0337 12.2556 42.0198 12.05 42.0587 11.9056C42.0893 11.7889 42.0448 11.7195 41.9976 11.65C41.9837 11.6306 41.9726 11.6111 41.9615 11.5889C41.9115 11.4972 41.892 11.4195 41.917 11.2889C41.942 11.1583 41.8726 11.0889 41.7976 11.0333C41.7059 10.9639 41.6782 10.8972 41.692 10.8028C41.7115 10.7111 41.6309 10.6528 41.542 10.5833L41.5365 10.5778C41.4615 10.5139 41.3754 10.4222 41.3754 10.2528C41.3698 10.1167 41.0893 9.77779 40.8671 9.68613Z" fill="black"/>
<path d="M40.8426 12.3945C40.7732 12.2278 40.6982 12.0695 40.8815 11.7167C41.0732 11.3612 40.9509 11.0889 40.8954 10.9084C40.8398 10.7334 40.8259 10.5667 40.8954 10.4917C40.9704 10.4223 41.0009 10.375 41.0121 10.2612C41.0176 10.1445 41.1121 10.1862 41.1287 10.2417C41.1426 10.2973 41.1537 10.3917 41.0537 10.5639C40.9537 10.7389 41.3343 11.1667 41.1593 11.6223C41.0398 11.9445 41.1982 12.3501 41.2593 12.6306C41.3204 12.9112 41.3593 13.5889 40.9426 13.6889C41.2204 13.5528 40.9537 12.6612 40.8426 12.3945Z" fill="#F1B2DC"/>
<path d="M40.9372 13.7001C40.9317 13.7001 40.9317 13.7001 40.9317 13.6946C40.9317 13.689 40.9317 13.689 40.9372 13.6834C41.2178 13.5418 40.9428 12.6307 40.8428 12.3946L40.8372 12.3834C40.7678 12.2223 40.6956 12.0584 40.8761 11.7112C41.0456 11.389 40.9678 11.139 40.9067 10.9584C40.9011 10.939 40.8956 10.9223 40.8928 10.9084C40.8289 10.714 40.8289 10.5584 40.8928 10.4862C40.9622 10.4223 40.9983 10.3751 41.0039 10.2612C41.0094 10.1918 41.0428 10.1807 41.0539 10.1807C41.0844 10.1807 41.1178 10.2057 41.1289 10.2418C41.1428 10.3112 41.1483 10.4084 41.0539 10.5668C41.015 10.6362 41.0539 10.7473 41.1039 10.889C41.1733 11.0946 41.265 11.3557 41.165 11.6251C41.0706 11.8807 41.1539 12.1973 41.2205 12.4529C41.2344 12.5168 41.2511 12.5723 41.265 12.6279C41.3094 12.8779 41.3705 13.5946 40.9372 13.7001ZM40.8483 12.389C40.9483 12.6251 41.2094 13.4612 40.9789 13.6668C41.3511 13.5251 41.2955 12.8584 41.2455 12.6279C41.2344 12.5723 41.215 12.5112 41.2011 12.4529C41.1317 12.1973 41.0511 11.8751 41.1455 11.614C41.2455 11.3473 41.1594 11.0918 41.0844 10.8862C41.0344 10.7418 40.9928 10.6307 41.0344 10.5557C41.1261 10.4001 41.1261 10.3112 41.1094 10.239C41.1039 10.214 41.0733 10.189 41.0483 10.189C41.0233 10.189 41.0094 10.214 41.0094 10.2529C41.0039 10.3779 40.9706 10.4223 40.8928 10.489C40.8317 10.5529 40.8317 10.7057 40.8928 10.8946C40.8983 10.9084 40.9039 10.9307 40.9067 10.9446C40.9678 11.1307 41.0483 11.3807 40.8761 11.7057C40.7011 12.0473 40.765 12.2112 40.8372 12.3668L40.8483 12.389Z" fill="black"/>
<path d="M39.0059 12.3555C38.9948 12.3555 38.992 12.3555 38.9809 12.3555C38.9754 12.3555 38.9754 12.3499 38.9754 12.3443C38.9754 12.3388 38.9809 12.3388 38.9865 12.3388C39.0559 12.3527 39.0865 12.3082 39.1031 12.2749C39.1226 12.2305 39.1393 12.1999 39.2031 12.1943C39.2643 12.1943 39.3643 12.1749 39.3837 12.1305C39.3948 12.111 39.4087 12.0999 39.4337 12.0943C39.4643 12.0832 39.5087 12.0693 39.5504 11.9999C39.5615 11.9805 39.5643 11.9638 39.5754 11.9443C39.6254 11.8277 39.6809 11.7082 39.8309 11.6582C39.8365 11.6582 39.842 11.6582 39.842 11.6638C39.842 11.6693 39.842 11.6693 39.8365 11.6749C39.6948 11.7193 39.642 11.8416 39.592 11.9555C39.5809 11.9749 39.5782 11.9943 39.567 12.011C39.5226 12.0916 39.4754 12.1055 39.4476 12.1166C39.4281 12.1221 39.4115 12.1277 39.4087 12.1416C39.3837 12.1971 39.2781 12.2166 39.2143 12.2166C39.1587 12.2221 39.1448 12.2416 39.1281 12.286C39.092 12.3305 39.0531 12.3555 39.0059 12.3555ZM39.217 11.1666H39.2115C39.2059 11.161 39.2115 11.161 39.2115 11.1555C39.2504 11.1193 39.317 11.086 39.3781 11.0555C39.4587 11.0166 39.5393 10.9749 39.5698 10.9249C39.5698 10.9193 39.5754 10.9193 39.5809 10.9193C39.5865 10.9193 39.5865 10.9249 39.5865 10.9305C39.5559 10.9805 39.4698 11.0249 39.392 11.0666C39.3226 11.0971 39.2587 11.1305 39.217 11.1666C39.2226 11.1666 39.217 11.1666 39.217 11.1666ZM39.4726 10.7499C39.442 10.7499 39.4087 10.7443 39.367 10.7388C39.3115 10.7332 39.2615 10.7277 39.2115 10.7277C39.2059 10.7277 39.2059 10.7221 39.2059 10.7221C39.2059 10.7166 39.2115 10.7166 39.2115 10.7166C39.2615 10.711 39.3226 10.7221 39.3726 10.7277C39.4532 10.7388 39.5282 10.7416 39.5393 10.7166C39.5393 10.711 39.5448 10.711 39.5504 10.711C39.5559 10.711 39.5559 10.7166 39.5559 10.7221C39.5393 10.7443 39.5143 10.7499 39.4726 10.7499ZM39.9698 10.7443C39.9643 10.7443 39.9587 10.7388 39.9643 10.7332C40.0004 10.6527 40.0837 10.5582 40.2893 10.5582C40.2948 10.5582 40.2948 10.5638 40.2948 10.5638L40.2893 10.5693C40.1337 10.5693 40.0226 10.6249 39.9726 10.736C39.9754 10.7443 39.9754 10.7443 39.9698 10.7443ZM39.8698 10.6693C39.8643 10.6638 39.8587 10.6638 39.8643 10.6582C39.8837 10.6193 39.8698 10.5971 39.8504 10.5666C39.8254 10.536 39.7948 10.4971 39.8143 10.4166V10.411C39.8393 10.2916 39.8393 10.2805 39.7337 10.2499C39.6726 10.236 39.6726 10.1943 39.6726 10.1555C39.6726 10.111 39.6726 10.0555 39.6031 9.9999C39.5726 9.9749 39.5643 9.94435 39.5532 9.91379C39.5393 9.86935 39.5282 9.82212 39.442 9.79712C39.4365 9.79712 39.4365 9.79157 39.4365 9.78601C39.4365 9.78046 39.442 9.78046 39.4476 9.78046C39.542 9.80546 39.5587 9.86101 39.567 9.90546C39.5782 9.93601 39.5809 9.96101 39.6115 9.98601C39.6865 10.0471 39.6865 10.1055 39.6865 10.1527C39.6865 10.1916 39.6865 10.2221 39.7365 10.2388C39.8531 10.2693 39.8476 10.2943 39.8281 10.4138V10.4249C39.8087 10.4943 39.8393 10.536 39.8587 10.5666C39.8782 10.5971 39.9031 10.6277 39.8781 10.6721C39.8754 10.6693 39.8698 10.6693 39.8698 10.6693ZM39.192 10.5888C39.1865 10.5888 39.1865 10.5832 39.1865 10.5832L39.192 10.5777C39.2532 10.5777 39.3837 10.5332 39.4032 10.4527C39.4032 10.4471 39.4087 10.4471 39.4143 10.4471C39.4198 10.4471 39.4198 10.4527 39.4198 10.4582C39.392 10.5443 39.2587 10.5888 39.192 10.5888ZM39.0976 10.3888C39.092 10.3888 39.092 10.3832 39.092 10.3832L39.0976 10.3777C39.1782 10.3777 39.267 10.3666 39.3587 10.3027C39.3643 10.3027 39.3643 10.3027 39.3698 10.3027C39.3698 10.3082 39.3698 10.3082 39.3698 10.3138C39.2726 10.3777 39.1837 10.3888 39.0976 10.3888ZM38.9976 10.1416C38.9976 10.1416 38.992 10.1416 38.992 10.136C38.992 10.1305 38.992 10.1305 38.992 10.1249C39.017 10.1055 39.0559 10.1055 39.0976 10.1055C39.142 10.1055 39.1976 10.1055 39.242 10.0693C39.2476 10.0693 39.2476 10.0693 39.2531 10.0693C39.2531 10.0749 39.2531 10.0749 39.2531 10.0805C39.1976 10.1166 39.1476 10.1166 39.0976 10.1166C39.0559 10.1221 39.0282 10.1221 38.9976 10.1416C39.0032 10.1416 39.0032 10.1416 38.9976 10.1416ZM39.2337 9.88601C39.2282 9.88601 39.2281 9.88046 39.2281 9.88046C39.2281 9.86935 39.2226 9.86657 39.217 9.86101C39.1976 9.84157 39.1531 9.84712 39.117 9.84712C39.1059 9.84712 39.1032 9.84712 39.0976 9.84712C39.092 9.84712 39.092 9.84157 39.092 9.84157L39.0976 9.83601C39.1032 9.83601 39.1115 9.83601 39.117 9.83601C39.1531 9.83601 39.2031 9.83046 39.2281 9.85546C39.2393 9.86657 39.242 9.8749 39.242 9.88601C39.2365 9.88601 39.2337 9.88601 39.2337 9.88601Z" fill="black"/>
<path d="M45.0924 10.9862C45.0924 10.9862 44.6508 10.6139 44.2897 10.3639C43.9285 10.1139 43.4869 9.80838 43.4869 9.74172C43.5563 9.69172 43.9285 9.93338 44.4341 10.2389C44.9508 10.5556 45.2369 10.8612 45.2369 10.8612L45.0924 10.9862ZM45.0619 11.2362C45.0619 11.2362 44.6369 10.9806 44.2147 10.7945C43.773 10.6139 43.1174 10.6139 43.0452 10.55C43.0452 10.4862 43.8119 10.45 44.3535 10.6695C44.9091 10.925 45.2008 11.1112 45.2008 11.1112L45.0619 11.2362ZM45.0563 11.6639C45.0563 11.6639 44.5897 11.4473 44.1397 11.3473C43.698 11.2473 43.0702 11.2834 42.9952 11.2278C42.9952 11.1639 43.773 11.0362 44.3535 11.2278C44.9452 11.4084 45.1952 11.5334 45.1952 11.5334L45.0563 11.6639ZM45.0313 12.0945C45.0313 12.0945 44.6813 11.8528 44.2147 11.8028C43.773 11.7584 43.1924 12.0945 43.1174 12.0278C43.1174 11.9639 43.623 11.5973 44.2619 11.6556C44.8841 11.7195 45.1785 11.9612 45.1785 11.9612L45.0313 12.0945ZM45.1758 10.7306C45.1758 10.7306 44.7285 10.325 44.7285 10.0473C44.7285 9.80283 45.0008 9.42505 45.1202 9.42505C45.0563 9.55005 44.848 9.80005 44.848 10.0473C44.848 10.2973 45.3202 10.6028 45.3202 10.6028L45.1758 10.7306Z" fill="#9E540A"/>
<path d="M45.0311 12.1C45.0255 12.1 45.0255 12.1 45.0311 12.1C45.0255 12.0944 44.67 11.8583 44.2144 11.8083C43.9533 11.7833 43.6422 11.8888 43.4172 11.9694C43.2561 12.025 43.145 12.0611 43.1172 12.0333V12.0277C43.1172 12.0138 43.1311 11.9916 43.1616 11.9666C43.2727 11.8666 43.7144 11.5944 44.2644 11.65C44.8811 11.7111 45.1811 11.9555 45.1811 11.9611V11.9666V11.9722L45.0311 12.1ZM44.1338 11.7944C44.1644 11.7944 44.1894 11.7944 44.22 11.8C44.6505 11.8444 44.9922 12.0611 45.0338 12.0861L45.17 11.9694C45.1255 11.9333 44.8283 11.725 44.2672 11.6694C43.7144 11.6138 43.2839 11.8861 43.1727 11.9861C43.1477 12.0111 43.1366 12.025 43.1339 12.0305C43.1644 12.05 43.2839 12.0055 43.42 11.9611C43.6172 11.8888 43.8866 11.7944 44.1338 11.7944ZM45.0561 11.6666C45.0561 11.6666 45.0505 11.6666 45.0561 11.6666C45.0505 11.6611 44.5838 11.45 44.1394 11.35C43.8977 11.2944 43.6033 11.2805 43.3672 11.2694C43.1727 11.2583 43.0311 11.2555 42.995 11.2305L42.9894 11.225C42.9894 11.2194 42.995 11.2138 43.0005 11.2055C43.095 11.1361 43.8144 11.0388 44.3589 11.2166C44.9394 11.3972 45.1977 11.5222 45.2005 11.5222L45.2061 11.5277V11.5333L45.0561 11.6666ZM43.0033 11.225C43.0422 11.2444 43.1839 11.2555 43.3589 11.2611C43.595 11.2722 43.8894 11.2861 44.1366 11.3416C44.5616 11.4361 45.0033 11.6333 45.0505 11.6527L45.1866 11.5361C45.1366 11.5111 44.8755 11.3944 44.3589 11.2361C43.8116 11.0611 43.095 11.1611 43.0033 11.225C43.0089 11.2222 43.0089 11.225 43.0033 11.225ZM45.0616 11.2416C45.0505 11.2361 44.6255 10.9805 44.2144 10.8C43.9477 10.6888 43.6089 10.65 43.3561 10.6138C43.1894 10.5944 43.0755 10.5777 43.045 10.5527V10.5472C43.045 10.5416 43.0505 10.5361 43.0561 10.5333C43.1422 10.4722 43.8589 10.4583 44.3644 10.6638C44.9172 10.9194 45.2061 11.1 45.2116 11.1055L45.2172 11.1111V11.1166L45.0616 11.2416C45.0672 11.2416 45.0616 11.2416 45.0616 11.2416ZM43.0533 10.55C43.0839 10.5694 43.2033 10.5861 43.3533 10.6055C43.6033 10.6361 43.945 10.6805 44.2116 10.7916C44.6033 10.9611 45.0088 11.2027 45.0533 11.2277L45.1894 11.1111C45.1394 11.0805 44.8533 10.9111 44.3505 10.6805C43.8311 10.4638 43.1339 10.5 43.0533 10.55C43.0589 10.55 43.0589 10.55 43.0533 10.55ZM45.0922 10.9916C45.0811 10.9861 44.645 10.6166 44.2838 10.3694C43.7866 10.0277 43.4755 9.80274 43.4755 9.74163C43.4755 9.74163 43.4755 9.73607 43.4811 9.73607C43.545 9.69163 43.8283 9.86107 44.2533 10.1222C44.3144 10.1583 44.3727 10.1972 44.4394 10.2333C44.945 10.5444 45.2422 10.85 45.2422 10.8555V10.8611V10.8666L45.0922 10.9916C45.095 10.9916 45.095 10.9916 45.0922 10.9916ZM43.495 9.74718C43.5144 9.82218 44.0366 10.1833 44.2922 10.3583C44.6338 10.5944 45.045 10.9361 45.0894 10.975L45.2255 10.8583C45.1866 10.8194 44.9005 10.5333 44.4283 10.2472C44.3644 10.2083 44.3033 10.1722 44.2422 10.1361C43.8616 9.89718 43.5616 9.71107 43.495 9.74718ZM45.1755 10.7361C45.17 10.7361 45.17 10.7361 45.1755 10.7361C45.1505 10.7166 44.7227 10.3194 44.7227 10.0444C44.7227 9.80274 44.9894 9.41663 45.12 9.41663C45.12 9.41663 45.1255 9.41663 45.1255 9.42218V9.42774C45.1116 9.45829 45.0866 9.49718 45.0616 9.5444C44.9755 9.68052 44.8616 9.86663 44.8616 10.05C44.8616 10.2944 45.3227 10.5972 45.3283 10.6027L45.3338 10.6083V10.6138L45.1755 10.7361ZM45.1061 9.43051C44.9894 9.45551 44.7338 9.80551 44.7338 10.0416C44.7338 10.2972 45.1255 10.675 45.17 10.7138L45.3005 10.5972C45.2366 10.5583 44.8338 10.275 44.8338 10.0416C44.8338 9.85551 44.9533 9.66663 45.0394 9.53052C45.07 9.49163 45.0922 9.46107 45.1061 9.43051Z" fill="black"/>
<path d="M45.1759 10.7305C45.1759 10.7305 45.2676 10.3249 45.2676 10.0472C45.2676 9.67494 45.0009 9.33883 45.0259 9.24438C45.1204 9.33883 45.3815 9.61661 45.3815 10.0472C45.3815 10.4222 45.3176 10.6027 45.3176 10.6027L45.1759 10.7305Z" fill="#9E540A"/>
<path d="M45.176 10.736C45.1704 10.736 45.1704 10.736 45.176 10.736C45.1704 10.736 45.1704 10.7304 45.1704 10.7249C45.1704 10.7193 45.2565 10.3138 45.2565 10.0415C45.2565 9.81655 45.1621 9.60544 45.0871 9.44988C45.0426 9.34988 45.0065 9.27488 45.0176 9.23877C45.0176 9.23877 45.0176 9.23322 45.0232 9.23322C45.0287 9.23322 45.0287 9.23322 45.0287 9.23322C45.2704 9.47488 45.3899 9.74433 45.3899 10.0415C45.3899 10.4138 45.3287 10.5971 45.326 10.6027C45.326 10.6027 45.326 10.6027 45.326 10.6082L45.176 10.736ZM45.0315 9.25544C45.0315 9.29433 45.0621 9.36099 45.101 9.4471C45.1704 9.60266 45.2704 9.81933 45.2704 10.0443C45.2704 10.286 45.2065 10.6221 45.1843 10.711L45.3093 10.5999C45.3149 10.5804 45.3704 10.3999 45.3704 10.0471C45.3732 9.75544 45.2565 9.49155 45.0315 9.25544Z" fill="black"/>
<path d="M45.2804 10.5945C45.2804 10.475 45.236 10.3695 45.161 10.2889C45.061 10.1695 44.911 10.1334 44.7554 10.1584C44.5638 10.1889 44.4138 10.3028 44.3249 10.4806C44.1999 10.7111 44.1832 10.9611 44.1804 11.2084C44.1804 12.0556 44.211 12.4028 44.236 13.2334C44.2415 13.4778 44.286 13.9806 44.1721 14.3778C44.1277 14.5472 44.0777 14.7028 44.0027 14.8695C44.0527 14.6639 44.0777 14.5528 44.1027 14.3972C44.1721 13.9917 44.1527 13.6056 44.1415 13.2278C44.1165 12.4556 44.0721 12.0584 44.0471 11.125C44.0415 10.8445 44.0665 10.6278 44.1971 10.4028C44.3388 10.1723 44.5721 10.0028 44.8443 10.0028C44.961 10.0028 45.0499 10.0223 45.1443 10.0778C45.336 10.1778 45.4193 10.3834 45.4193 10.5945H45.2804Z" fill="#9E540A"/>
<path d="M44.0031 14.8973C43.9976 14.8973 43.992 14.8973 43.992 14.8973C43.9726 14.8917 43.9615 14.8723 43.967 14.8528C44.017 14.6473 44.042 14.5417 44.067 14.3862C44.1309 14.0112 44.117 13.65 44.1059 13.2973V13.2278C44.0948 12.8806 44.0809 12.6167 44.067 12.3362C44.0476 11.9945 44.0281 11.6445 44.017 11.1278C44.0115 10.8473 44.0365 10.6223 44.1726 10.3861C44.3281 10.125 44.5893 9.96393 44.8504 9.96393C44.9809 9.96393 45.0754 9.98893 45.1726 10.0445C45.3587 10.1445 45.4698 10.3445 45.4698 10.5917C45.4698 10.6111 45.4559 10.6278 45.4337 10.6278L45.292 10.6334C45.2809 10.6334 45.2726 10.6278 45.2615 10.6223C45.2559 10.6167 45.2504 10.6084 45.2504 10.5973C45.2504 10.4917 45.2115 10.3917 45.1393 10.3167C45.0531 10.2167 44.9198 10.1723 44.7643 10.1973C44.5893 10.2278 44.4476 10.3334 44.3587 10.4973C44.2393 10.7167 44.2226 10.95 44.217 11.2084C44.217 11.7695 44.2309 12.1167 44.2476 12.5167C44.2587 12.7167 44.2615 12.9473 44.2726 13.2278C44.2726 13.2639 44.2781 13.3084 44.2781 13.3528C44.2893 13.625 44.3087 14.0389 44.2087 14.3806C44.1587 14.575 44.1032 14.7278 44.0393 14.8778C44.0282 14.8889 44.017 14.8973 44.0031 14.8973ZM44.8393 10.0389C44.6031 10.0389 44.367 10.1834 44.2281 10.4195C44.0976 10.6389 44.0781 10.85 44.0837 11.1223C44.0976 11.6389 44.1198 11.9889 44.1337 12.325C44.1476 12.6056 44.1643 12.8723 44.1726 13.2167V13.2861C44.1837 13.5973 44.192 13.9223 44.1531 14.2584C44.2226 13.9473 44.2087 13.5917 44.192 13.35C44.192 13.3056 44.1865 13.2584 44.1865 13.225C44.1754 12.9445 44.167 12.7195 44.1615 12.5139C44.1476 12.1139 44.1309 11.7612 44.1309 11.2C44.1365 10.9278 44.1559 10.6889 44.2809 10.4528C44.3809 10.2667 44.542 10.1473 44.742 10.1112C44.9226 10.0806 45.0837 10.1306 45.1837 10.2556C45.2587 10.3362 45.3031 10.4362 45.3087 10.5473L45.3726 10.5417C45.3615 10.3417 45.267 10.175 45.117 10.0945C45.042 10.0584 44.9559 10.0389 44.8393 10.0389Z" fill="#FCD116"/>
<path d="M45.2817 10.5944C45.2817 10.475 45.2373 10.3694 45.1623 10.2889C45.0623 10.1694 44.9123 10.1333 44.7567 10.1583C44.5651 10.1889 44.4151 10.3027 44.3262 10.4805C44.2012 10.7111 44.1845 10.9611 44.1817 11.2083C44.1817 12.0555 44.2123 12.4027 44.2373 13.2333C44.2429 13.4777 44.2873 13.9805 44.1734 14.3777C44.129 14.5472 44.079 14.7027 44.004 14.8694C44.054 14.6639 44.079 14.5527 44.104 14.3972C44.1734 13.9916 44.154 13.6055 44.1429 13.2277C44.1179 12.4555 44.0734 12.0583 44.0484 11.125C44.0429 10.8444 44.0679 10.6277 44.1984 10.4027C44.3401 10.1722 44.5734 10.0027 44.8456 10.0027C44.9623 10.0027 45.0512 10.0222 45.1456 10.0777C45.3373 10.1777 45.4206 10.3833 45.4206 10.5944H45.2817Z" fill="#9E540A"/>
<path d="M45.3175 13.6193C45.3175 13.6193 45.1425 13.936 45.0119 14.161C44.8814 14.386 44.7702 14.436 44.6702 14.3665C44.5758 14.2971 44.6563 14.1165 44.7341 14.0249C44.8147 13.9332 45.2313 13.5276 45.2313 13.5276L45.3175 13.6193Z" fill="#9E540A"/>
<path d="M44.7569 14.4C44.7263 14.4 44.6958 14.3889 44.6652 14.3695C44.6402 14.35 44.6263 14.325 44.6208 14.2889C44.6096 14.2028 44.6652 14.0889 44.7263 14.0223C44.8013 13.9362 45.218 13.5306 45.2235 13.525C45.2291 13.5195 45.2291 13.5195 45.2346 13.525L45.3263 13.6167C45.3263 13.6167 45.3319 13.6223 45.3263 13.6278C45.3263 13.6334 45.1513 13.9445 45.0207 14.1695C44.9346 14.3112 44.8596 14.3889 44.7902 14.4056C44.7763 14.3973 44.7652 14.4 44.7569 14.4ZM45.2319 13.5389C45.1874 13.5834 44.8096 13.9445 44.7402 14.0306C44.6846 14.0945 44.6291 14.2112 44.6402 14.2862C44.6458 14.3167 44.6541 14.3417 44.6791 14.3556C44.7152 14.3806 44.7485 14.3862 44.7846 14.3806C44.8541 14.3667 44.9263 14.2889 45.0041 14.15C45.1235 13.9389 45.2846 13.6528 45.3096 13.6139L45.2319 13.5389Z" fill="black"/>
<path d="M45.3614 13.6445C45.3614 13.6445 45.292 14 45.2364 14.2611C45.1864 14.5167 45.0947 14.6084 44.9919 14.5778C44.8753 14.5528 44.8975 14.3473 44.9419 14.2361C44.9864 14.125 45.2475 13.5889 45.2475 13.5889L45.3614 13.6445Z" fill="#9E540A"/>
<path d="M45.0307 14.5804C45.0168 14.5804 45.0057 14.5804 44.9918 14.5749C44.9613 14.5693 44.9418 14.5499 44.9279 14.5193C44.8891 14.4388 44.9085 14.2999 44.939 14.2221C44.9835 14.1166 45.2446 13.5804 45.2446 13.5749C45.2446 13.5749 45.2446 13.5693 45.2502 13.5693H45.2557L45.3724 13.6249C45.3779 13.6249 45.3779 13.6304 45.3779 13.6304C45.3779 13.636 45.3085 13.9916 45.2529 14.2471C45.2224 14.4138 45.1724 14.5138 45.1085 14.5527C45.0752 14.5777 45.0557 14.5804 45.0307 14.5804ZM45.2502 13.5943C45.2196 13.6554 44.9891 14.136 44.9446 14.2304C44.9085 14.3166 44.8946 14.4416 44.9307 14.511C44.9446 14.536 44.9668 14.5499 44.9918 14.5554C45.0279 14.5666 45.0613 14.561 45.0863 14.5443C45.1474 14.5082 45.1974 14.4082 45.2279 14.2471C45.2779 14.011 45.3446 13.6804 45.3529 13.6416L45.2502 13.5943Z" fill="black"/>
<path d="M45.4373 13.6528C45.4373 13.6528 45.4373 14.0194 45.4373 14.2806C45.4373 14.5417 45.3734 14.6528 45.2567 14.6472C45.1401 14.6417 45.1151 14.4417 45.1401 14.3222C45.1595 14.2056 45.3151 13.625 45.3151 13.625L45.4373 13.6528Z" fill="#9E540A"/>
<path d="M45.2671 14.6527C45.2615 14.6527 45.2615 14.6527 45.256 14.6527C45.2254 14.6527 45.2004 14.6388 45.181 14.6082C45.131 14.5443 45.1199 14.4082 45.1421 14.3165C45.1616 14.2054 45.3171 13.6249 45.3171 13.6193C45.3171 13.6138 45.3227 13.6138 45.3282 13.6138L45.4477 13.6443C45.4532 13.6443 45.4532 13.6499 45.4532 13.6499V14.2777C45.4532 14.4471 45.4282 14.5582 45.3727 14.6138C45.3365 14.6415 45.3004 14.6527 45.2671 14.6527ZM45.3227 13.6332C45.3088 13.6971 45.1671 14.2138 45.1477 14.3193C45.1282 14.411 45.1366 14.536 45.1866 14.5999C45.206 14.6249 45.2254 14.636 45.2504 14.6388C45.2893 14.6388 45.3199 14.6277 45.3449 14.6027C45.3949 14.5527 45.4199 14.4471 45.4199 14.2777V13.6554L45.3227 13.6332Z" fill="black"/>
<path d="M45.7835 10.9862C45.7835 10.9862 46.2252 10.614 46.5863 10.364C46.9474 10.114 47.3891 9.80844 47.3891 9.74178C47.3196 9.69178 46.9474 9.93344 46.4419 10.239C45.9252 10.5557 45.6391 10.8612 45.6391 10.8612L45.7835 10.9862ZM45.8141 11.2362C45.8141 11.2362 46.2391 10.9807 46.6613 10.7946C47.103 10.614 47.7585 10.614 47.8308 10.5501C47.8308 10.4862 47.0641 10.4501 46.5224 10.6696C45.9669 10.9251 45.6752 11.1112 45.6752 11.1112L45.8141 11.2362ZM45.8169 11.664C45.8169 11.664 46.2835 11.4473 46.7335 11.3473C47.1752 11.2473 47.803 11.2834 47.878 11.2279C47.878 11.164 47.1002 11.0362 46.5196 11.2279C45.928 11.4084 45.678 11.5334 45.678 11.5334L45.8169 11.664ZM45.8419 12.0946C45.8419 12.0946 46.1919 11.8529 46.6585 11.8029C47.1002 11.7584 47.6808 12.0946 47.7558 12.0279C47.7558 11.964 47.2502 11.5973 46.6113 11.6557C45.9891 11.7196 45.6946 11.9612 45.6946 11.9612L45.8419 12.0946ZM45.703 10.7307C45.703 10.7307 46.1502 10.3251 46.1502 10.0473C46.1502 9.80289 45.878 9.42511 45.7585 9.42511C45.8224 9.55011 46.0308 9.80011 46.0308 10.0473C46.0308 10.2973 45.5585 10.6029 45.5585 10.6029L45.703 10.7307Z" fill="#9E540A"/>
<path d="M45.8421 12.1L45.6921 11.975V11.9694V11.9639C45.6977 11.9639 45.9921 11.7194 46.6088 11.6528C47.1644 11.5972 47.6033 11.8694 47.7116 11.9694C47.7421 11.9944 47.756 12.0139 47.756 12.0305V12.0361C47.7199 12.0667 47.6144 12.025 47.456 11.9722C47.231 11.8917 46.9199 11.7861 46.6588 11.8111C46.2033 11.8639 45.8533 12.1 45.8421 12.1C45.8477 12.1 45.8477 12.1 45.8421 12.1ZM45.7116 11.9694L45.8477 12.0861C45.8866 12.0611 46.2282 11.8444 46.6616 11.8C46.9227 11.775 47.2394 11.8805 47.4644 11.9611C47.6005 12.0055 47.7144 12.0472 47.7505 12.0305C47.7449 12.0194 47.7366 12.0055 47.7116 11.9861C47.6005 11.8861 47.1644 11.6194 46.6171 11.6694C46.0533 11.7222 45.7588 11.9333 45.7116 11.9694ZM45.8171 11.6667L45.6671 11.5417C45.6671 11.5417 45.6616 11.5361 45.6671 11.5361C45.6671 11.5361 45.6671 11.5305 45.6727 11.5305C45.6727 11.5305 45.9283 11.4055 46.5144 11.225C47.0616 11.05 47.7783 11.1444 47.8727 11.2139C47.8838 11.2194 47.8838 11.225 47.8838 11.2333C47.8838 11.2333 47.8838 11.2389 47.8783 11.2389C47.8421 11.2639 47.7032 11.275 47.506 11.2778C47.2699 11.2889 46.9755 11.3028 46.7338 11.3583C46.2894 11.4528 45.8283 11.6667 45.8171 11.6667C45.8227 11.6667 45.8171 11.6667 45.8171 11.6667ZM45.6866 11.5361L45.8227 11.6528C45.8671 11.6333 46.3088 11.4361 46.7366 11.3417C46.9783 11.2861 47.2727 11.2722 47.5144 11.2611C47.6894 11.25 47.8366 11.2472 47.8699 11.225C47.8699 11.225 47.8699 11.2194 47.8644 11.2194C47.7783 11.1583 47.0616 11.0583 46.5199 11.2333C45.9977 11.3972 45.7366 11.5111 45.6866 11.5361ZM45.8144 11.2417C45.8144 11.2417 45.8088 11.2417 45.8144 11.2417L45.6644 11.1167C45.6644 11.1167 45.6588 11.1111 45.6644 11.1111C45.6644 11.1111 45.6644 11.1055 45.6699 11.1055C45.6755 11.1055 45.9671 10.9194 46.5171 10.6639C47.0227 10.4583 47.7421 10.4722 47.8255 10.5333C47.831 10.5389 47.8366 10.5444 47.8366 10.5472V10.5528C47.806 10.5778 47.6921 10.5917 47.5255 10.6139C47.2755 10.6444 46.9338 10.6889 46.6671 10.8C46.2505 10.9805 45.8227 11.2361 45.8144 11.2417ZM45.6838 11.1111L45.8199 11.2278C45.8644 11.2028 46.2727 10.9611 46.6616 10.7917C46.9282 10.6805 47.2727 10.6361 47.5255 10.6055C47.6755 10.5861 47.7921 10.5694 47.8255 10.55C47.8255 10.55 47.8255 10.55 47.8199 10.5444C47.7449 10.4944 47.0477 10.4639 46.5255 10.675C46.0199 10.9111 45.7338 11.0805 45.6838 11.1111ZM45.7838 10.9917C45.7783 10.9917 45.7783 10.9917 45.7838 10.9917L45.6338 10.8667V10.8611V10.8555C45.6394 10.85 45.931 10.5444 46.4366 10.2333C46.5005 10.1944 46.5616 10.1583 46.6227 10.1222C47.0477 9.8611 47.331 9.69166 47.3949 9.7361L47.4005 9.74166C47.4005 9.80277 47.0949 10.0278 46.5921 10.3694C46.2282 10.6194 45.7921 10.9861 45.7838 10.9917ZM45.6477 10.8611L45.7838 10.9778C45.8283 10.9389 46.2394 10.5972 46.581 10.3611C46.8366 10.1861 47.3644 9.82499 47.3783 9.74999C47.3144 9.71388 47.006 9.89999 46.6255 10.1361C46.5644 10.1722 46.506 10.2111 46.4394 10.2472C45.9727 10.5305 45.6866 10.8139 45.6477 10.8611ZM45.7033 10.7361C45.6977 10.7361 45.6977 10.7361 45.7033 10.7361L45.5533 10.6111V10.6055C45.5533 10.6055 45.5533 10.6 45.5588 10.6C45.5644 10.5944 46.0255 10.2944 46.0255 10.0472C46.0255 9.86666 45.9088 9.67499 45.8255 9.54166C45.7949 9.49721 45.7755 9.4611 45.7616 9.42499V9.41944L45.7671 9.41388C45.8977 9.41388 46.1644 9.79999 46.1644 10.0417C46.1533 10.3194 45.7227 10.7139 45.7033 10.7361ZM45.5671 10.6055L45.6977 10.7222C45.7421 10.6778 46.1338 10.3 46.1338 10.05C46.1338 9.81388 45.8838 9.46388 45.7616 9.43888C45.7755 9.46943 45.7977 9.49999 45.8227 9.53888C45.9088 9.67499 46.0283 9.86388 46.0283 10.05C46.0338 10.2833 45.6338 10.5583 45.5671 10.6055Z" fill="black"/>
<path d="M45.7037 10.7305C45.7037 10.7305 45.6121 10.3249 45.6121 10.0472C45.6121 9.67494 45.8787 9.33883 45.8537 9.24438C45.7593 9.33883 45.4982 9.61661 45.4982 10.0472C45.4982 10.4222 45.5621 10.6027 45.5621 10.6027L45.7037 10.7305Z" fill="#9E540A"/>
<path d="M45.7033 10.736C45.6977 10.736 45.6977 10.736 45.7033 10.736L45.5533 10.611C45.5533 10.611 45.5533 10.611 45.5533 10.6055C45.5533 10.6055 45.4894 10.4194 45.4894 10.0444C45.4894 9.74713 45.6088 9.47769 45.8505 9.23602H45.8561C45.8561 9.23602 45.8616 9.23602 45.8616 9.24158C45.8727 9.28047 45.8366 9.35269 45.7922 9.45269C45.7227 9.60825 45.6227 9.81936 45.6227 10.0444C45.6227 10.3166 45.7088 10.7221 45.7088 10.7277C45.7088 10.7305 45.7088 10.7305 45.7033 10.736ZM45.5616 10.5999L45.6866 10.711C45.6727 10.6249 45.6005 10.286 45.6005 10.0444C45.6005 9.81936 45.7005 9.60269 45.7699 9.44713C45.8088 9.36102 45.8394 9.29713 45.8394 9.25547C45.6088 9.49158 45.4922 9.75269 45.4922 10.0416C45.5033 10.3944 45.5561 10.5805 45.5616 10.5999Z" fill="black"/>
<path d="M45.5936 10.5944C45.5936 10.475 45.638 10.3694 45.713 10.2889C45.813 10.1694 45.963 10.1333 46.1186 10.1583C46.3102 10.1889 46.4602 10.3027 46.5491 10.4805C46.6741 10.7111 46.6908 10.9611 46.6936 11.2083C46.6936 12.0555 46.663 12.4027 46.638 13.2333C46.6325 13.4777 46.588 13.9805 46.7019 14.3777C46.7464 14.5472 46.7964 14.7027 46.8714 14.8694C46.8214 14.6639 46.7964 14.5527 46.7714 14.3972C46.7019 13.9916 46.7214 13.6055 46.7325 13.2277C46.7575 12.4555 46.8019 12.0583 46.8269 11.125C46.8325 10.8444 46.8075 10.6277 46.6769 10.4027C46.5352 10.1722 46.3019 10.0027 46.0297 10.0027C45.913 10.0027 45.8241 10.0222 45.7297 10.0777C45.538 10.1777 45.4547 10.3833 45.4547 10.5944H45.5936Z" fill="#9E540A"/>
<path d="M46.8734 14.8972C46.8595 14.8972 46.8429 14.8861 46.8373 14.8778C46.7679 14.7333 46.7179 14.5778 46.6679 14.3806C46.5734 14.0389 46.5873 13.6278 46.5984 13.3528C46.5984 13.3083 46.604 13.2611 46.604 13.2278C46.6151 12.9472 46.6234 12.7167 46.629 12.5167C46.6429 12.1167 46.6595 11.7639 46.6595 11.2028C46.654 10.9417 46.6401 10.7111 46.5179 10.4945C46.4262 10.3278 46.2873 10.2222 46.1123 10.1945C45.9568 10.1695 45.8262 10.2083 45.7401 10.3139C45.6707 10.3945 45.629 10.4889 45.629 10.5945C45.629 10.6056 45.6234 10.6139 45.6179 10.6195C45.6123 10.625 45.604 10.6306 45.5873 10.6306L45.4457 10.625C45.4262 10.625 45.4095 10.6111 45.4095 10.5889C45.4095 10.3445 45.5207 10.1417 45.7068 10.0417C45.7984 9.98612 45.8984 9.96112 46.029 9.96112C46.2957 9.96112 46.5568 10.1222 46.7068 10.3833C46.8484 10.6195 46.8679 10.8445 46.8623 11.125C46.8484 11.6417 46.8262 11.9917 46.8123 12.3333C46.7984 12.6139 46.7818 12.8806 46.7734 13.225V13.2945C46.7623 13.6417 46.7484 14.0028 46.8123 14.3833C46.8373 14.5389 46.8623 14.6445 46.9123 14.85C46.9179 14.8695 46.9068 14.8889 46.8873 14.8945C46.8818 14.8972 46.8762 14.8972 46.8734 14.8972ZM46.029 10.1139C46.0595 10.1139 46.0929 10.1195 46.1234 10.125C46.3179 10.1611 46.4845 10.2806 46.5845 10.4667C46.7095 10.6972 46.7262 10.9445 46.7345 11.2083C46.7345 11.7695 46.7207 12.1222 46.704 12.5222C46.6929 12.7222 46.6901 12.9528 46.679 13.2333C46.679 13.2695 46.6734 13.3139 46.6734 13.3583C46.6623 13.6028 46.6484 13.9611 46.7123 14.2667C46.6679 13.9306 46.6818 13.6056 46.6929 13.2945V13.2222C46.704 12.875 46.7179 12.6111 46.7318 12.3306C46.7512 11.9889 46.7707 11.6389 46.7818 11.1278C46.7873 10.8556 46.7679 10.6472 46.6373 10.425C46.4957 10.1889 46.2623 10.0445 46.0262 10.0445C45.9095 10.0445 45.8262 10.0639 45.7457 10.1139C45.5957 10.1945 45.5012 10.3583 45.4901 10.5611L45.554 10.5667C45.5651 10.4556 45.604 10.3556 45.679 10.2695C45.7679 10.1639 45.8901 10.1139 46.029 10.1139Z" fill="#FCD116"/>
<path d="M45.5936 10.5944C45.5936 10.475 45.638 10.3694 45.713 10.2889C45.813 10.1694 45.963 10.1333 46.1186 10.1583C46.3102 10.1889 46.4602 10.3027 46.5491 10.4805C46.6741 10.7111 46.6908 10.9611 46.6936 11.2083C46.6936 12.0555 46.663 12.4027 46.638 13.2333C46.6325 13.4777 46.588 13.9805 46.7019 14.3777C46.7464 14.5472 46.7964 14.7027 46.8714 14.8694C46.8214 14.6639 46.7964 14.5527 46.7714 14.3972C46.7019 13.9916 46.7214 13.6055 46.7325 13.2277C46.7575 12.4555 46.8019 12.0583 46.8269 11.125C46.8325 10.8444 46.8075 10.6277 46.6769 10.4027C46.5352 10.1722 46.3019 10.0027 46.0297 10.0027C45.913 10.0027 45.8241 10.0222 45.7297 10.0777C45.538 10.1777 45.4547 10.3833 45.4547 10.5944H45.5936Z" fill="#9E540A"/>
<path d="M45.5565 13.6193C45.5565 13.6193 45.7316 13.936 45.8621 14.161C45.9927 14.386 46.1038 14.436 46.2038 14.3665C46.2982 14.2971 46.2177 14.1165 46.1399 14.0249C46.0593 13.9332 45.6427 13.5276 45.6427 13.5276L45.5565 13.6193Z" fill="#9E540A"/>
<path d="M46.1199 14.3999C46.1088 14.3999 46.1005 14.3999 46.0894 14.3944C46.0144 14.3805 45.9394 14.2999 45.8588 14.1583C45.7283 13.9388 45.5533 13.6221 45.5533 13.6166C45.5533 13.611 45.5533 13.611 45.5533 13.6055L45.6449 13.5138C45.6505 13.5083 45.6505 13.5083 45.656 13.5138C45.6616 13.5194 46.0783 13.9194 46.1533 14.011C46.2144 14.0805 46.2699 14.1971 46.2588 14.2777C46.2533 14.3138 46.2394 14.3388 46.2144 14.3583C46.1783 14.3916 46.1505 14.3999 46.1199 14.3999ZM45.5616 13.6194C45.581 13.6583 45.7421 13.9444 45.8671 14.1555C45.9477 14.2971 46.0227 14.3721 46.0866 14.386C46.1227 14.3971 46.156 14.386 46.1922 14.361C46.2116 14.3471 46.2283 14.3221 46.231 14.2916C46.2422 14.211 46.1866 14.0999 46.131 14.036C46.0616 13.9555 45.6894 13.5888 45.6394 13.5444L45.5616 13.6194Z" fill="black"/>
<path d="M45.5127 13.6445C45.5127 13.6445 45.5821 14.0001 45.6377 14.2612C45.6877 14.5168 45.7793 14.6084 45.8821 14.5779C45.9988 14.5529 45.9766 14.3473 45.9321 14.2362C45.8877 14.1251 45.6266 13.589 45.6266 13.589L45.5127 13.6445Z" fill="#9E540A"/>
<path d="M45.8426 14.5805C45.8176 14.5805 45.7981 14.575 45.7787 14.5611C45.7148 14.5222 45.662 14.4194 45.6342 14.2555C45.5787 14 45.5092 13.6444 45.5092 13.6389C45.5092 13.6333 45.5092 13.6333 45.5148 13.6333L45.6315 13.5778H45.637C45.637 13.5778 45.6426 13.5778 45.6426 13.5833C45.6481 13.5889 45.9092 14.125 45.9481 14.2305C45.9787 14.3055 46.0037 14.4472 45.9592 14.5278C45.9454 14.5583 45.9204 14.5778 45.8954 14.5833C45.8676 14.5805 45.8537 14.5805 45.8426 14.5805ZM45.5231 13.65C45.5342 13.6944 45.5926 14.0222 45.6481 14.2555C45.6787 14.4166 45.7287 14.5166 45.7898 14.5528C45.8204 14.5666 45.8509 14.5722 45.8842 14.5639C45.9092 14.5583 45.9287 14.5444 45.9454 14.5194C45.9815 14.45 45.9648 14.325 45.9315 14.2389C45.8926 14.1389 45.6565 13.6611 45.6259 13.6028L45.5231 13.65Z" fill="black"/>
<path d="M45.4368 13.6528C45.4368 13.6528 45.4368 14.0194 45.4368 14.2806C45.4368 14.5417 45.5007 14.6528 45.6174 14.6472C45.734 14.6417 45.759 14.4417 45.734 14.3222C45.7146 14.2056 45.559 13.625 45.559 13.625L45.4368 13.6528Z" fill="#9E540A"/>
<path d="M45.6085 14.6527C45.5696 14.6527 45.5391 14.6416 45.5141 14.6166C45.4585 14.5666 45.4335 14.4555 45.4335 14.2805V13.6527C45.4335 13.6472 45.4335 13.6472 45.4391 13.6472L45.5585 13.6166C45.5641 13.6166 45.5641 13.6166 45.5696 13.6222C45.5696 13.6277 45.7252 14.2083 45.7446 14.3194C45.7641 14.4111 45.7558 14.5444 45.7058 14.6111C45.6863 14.6361 45.6613 14.65 45.6308 14.6555C45.6169 14.6527 45.6113 14.6527 45.6085 14.6527ZM45.4419 13.6583V14.2805C45.4419 14.45 45.4669 14.5555 45.5169 14.6055C45.5419 14.6305 45.5724 14.6416 45.6113 14.6416C45.6363 14.6416 45.6613 14.6277 45.6752 14.6027C45.7252 14.5389 45.7363 14.4111 45.7141 14.3222C45.7002 14.2166 45.5585 13.7 45.5391 13.6361L45.4419 13.6583Z" fill="black"/>
<path d="M45.4369 13.6501C45.1064 13.6446 45.0703 13.5251 45.0703 13.5251C45.0703 13.5251 45.0258 13.3751 45.0203 13.2807C45.0147 13.2668 44.9258 13.0807 44.9508 13.0001C44.9203 12.9251 44.8453 12.7446 44.9119 12.7085C44.8814 12.6168 44.8314 12.5168 44.8203 12.4279C44.7953 12.3585 44.7286 12.2085 44.7814 12.1557C44.7814 12.1557 44.6619 11.9057 44.7175 11.839C44.7175 11.839 44.6619 11.5946 44.7175 11.5335C44.7175 11.5335 44.7175 11.2835 44.7814 11.2168C44.7814 11.2168 44.7814 10.9724 44.8369 10.9112C44.8369 10.9251 45.0119 10.564 45.4286 10.564L45.4231 11.0946H45.4286V13.6474H45.4369V13.6501Z" fill="#9E540A"/>
<path d="M45.4365 13.6529C45.1004 13.6473 45.0643 13.5279 45.0643 13.5223C45.0643 13.5223 45.0198 13.3723 45.0143 13.2779C45.0032 13.264 44.9198 13.0779 44.9448 12.9918C44.9143 12.9112 44.8393 12.7418 44.9059 12.7001C44.9004 12.6807 44.8921 12.6612 44.8809 12.639C44.8504 12.5696 44.8254 12.4946 44.8198 12.4223L44.8143 12.4029C44.7837 12.3279 44.7393 12.2029 44.7837 12.1473C44.7698 12.1112 44.6726 11.8973 44.7226 11.8307C44.7171 11.8001 44.6726 11.5862 44.7226 11.5251C44.7226 11.4946 44.7282 11.2751 44.7865 11.2084C44.7865 11.1779 44.7921 10.964 44.8476 10.8973C44.8476 10.8973 44.8532 10.8918 44.8532 10.8862C44.9948 10.6696 45.2032 10.5501 45.4393 10.5501H45.4448V10.5557L45.4393 11.0834C45.4448 11.0834 45.4448 11.089 45.4448 11.089V13.6473C45.4421 13.6501 45.4421 13.6529 45.4365 13.6529C45.4421 13.6529 45.4365 13.6529 45.4365 13.6529ZM44.8504 10.9196C44.8004 10.9834 44.7948 11.2168 44.7948 11.2196V11.2251C44.7337 11.2862 44.7337 11.5307 44.7337 11.5362V11.5418C44.6782 11.6029 44.7337 11.8418 44.7337 11.8418V11.8473C44.6893 11.8973 44.7643 12.0834 44.7976 12.1529C44.7976 12.1584 44.7976 12.1584 44.7976 12.164C44.7532 12.2084 44.8032 12.3334 44.8282 12.4057L44.8337 12.4251C44.8393 12.4946 44.8698 12.5668 44.8948 12.6362C44.9059 12.6612 44.9143 12.6807 44.9198 12.7057C44.9198 12.7112 44.9198 12.7112 44.9143 12.7168C44.8504 12.7473 44.9282 12.9334 44.9532 12.9973V13.0029C44.9337 13.0723 45.0032 13.2446 45.0226 13.2779C45.0226 13.2779 45.0226 13.2779 45.0226 13.2834C45.0282 13.3751 45.0726 13.5251 45.0726 13.5251C45.0726 13.5251 45.1087 13.6362 45.4226 13.6446V11.1112H45.4171V11.1057L45.4226 10.5779C45.1921 10.5779 44.9921 10.6973 44.8559 10.9084C44.8559 10.9168 44.8559 10.9196 44.8504 10.9196Z" fill="black"/>
<path d="M45.4373 13.4029C45.2929 13.4029 45.1068 13.3835 45.0151 13.2835C45.0151 13.2779 45.0151 13.2779 45.0151 13.2724C45.0207 13.2724 45.0207 13.2724 45.0262 13.2724C45.1123 13.3668 45.2984 13.389 45.4318 13.389C45.4373 13.389 45.4373 13.3946 45.4373 13.3946C45.4373 13.3946 45.4429 13.4029 45.4373 13.4029ZM45.4373 13.1529C45.1457 13.1529 44.9651 13.0335 44.9595 13.0335C44.9595 13.0335 44.9595 13.0335 44.9595 13.0279C44.9595 13.0279 44.954 13.014 44.9457 12.9974C44.9457 12.9918 44.9457 12.9918 44.9512 12.9863C44.9568 12.9863 44.9623 12.9863 44.9623 12.9918C44.9679 13.0057 44.9734 13.0168 44.9734 13.0224C44.9929 13.0335 45.1651 13.139 45.4401 13.139C45.4457 13.139 45.4457 13.1446 45.4457 13.1446C45.4457 13.1446 45.4429 13.1529 45.4373 13.1529ZM45.4373 12.8474C45.0262 12.8418 44.9318 12.7529 44.9095 12.7113C44.9095 12.7057 44.9095 12.7057 44.9151 12.7002C44.9207 12.7002 44.9262 12.7002 44.9262 12.7057C44.9401 12.7363 45.0262 12.8252 45.4429 12.8363C45.4484 12.8363 45.4484 12.8418 45.4484 12.8418C45.4429 12.8474 45.4429 12.8474 45.4373 12.8474ZM45.4373 12.5946C44.9068 12.5946 44.8457 12.4696 44.8401 12.464L44.8207 12.4279C44.8207 12.4224 44.8207 12.4168 44.8262 12.4168C44.8318 12.4168 44.8373 12.4168 44.8373 12.4224L44.8568 12.4613C44.8568 12.4613 44.9207 12.5807 45.4373 12.5807C45.4429 12.5807 45.4429 12.5863 45.4429 12.5863C45.4429 12.5863 45.4429 12.5946 45.4373 12.5946ZM45.4373 12.289C44.9068 12.2835 44.7901 12.1696 44.7845 12.164C44.779 12.1585 44.7845 12.1585 44.7845 12.1529C44.7901 12.1474 44.7901 12.1529 44.7957 12.1529C44.7957 12.1529 44.9151 12.2696 45.4373 12.2779C45.4429 12.2779 45.4429 12.2835 45.4429 12.2835C45.4429 12.2835 45.4429 12.289 45.4373 12.289ZM45.4373 11.9752C44.9095 11.9752 44.729 11.8557 44.7262 11.8502C44.7207 11.8502 44.7207 11.8446 44.7262 11.839C44.7262 11.8335 44.7318 11.8335 44.7373 11.839C44.7373 11.839 44.9179 11.964 45.4401 11.964C45.4457 11.964 45.4457 11.9696 45.4457 11.9696C45.4457 11.9696 45.4429 11.9752 45.4373 11.9752ZM45.4373 11.6668C44.9095 11.6613 44.729 11.5474 44.7262 11.5418C44.7207 11.5418 44.7207 11.5363 44.7262 11.5307C44.7262 11.5252 44.7318 11.5252 44.7373 11.5307C44.7373 11.5307 44.9179 11.6502 45.4401 11.6557C45.4457 11.6557 45.4457 11.6613 45.4457 11.6613C45.4457 11.6613 45.4429 11.6668 45.4373 11.6668ZM45.4373 11.3557C44.9068 11.3502 44.7901 11.2363 44.7845 11.2307C44.779 11.2252 44.7845 11.2252 44.7845 11.2196C44.7901 11.214 44.7901 11.214 44.7957 11.2196C44.7957 11.2196 44.9151 11.3363 45.4373 11.3446C45.4429 11.3446 45.4429 11.3502 45.4429 11.3502C45.4429 11.3502 45.4429 11.3557 45.4373 11.3557ZM45.4318 11.1113C45.3929 11.1113 45.0262 11.1057 44.9651 11.0474L44.8457 10.9279C44.8401 10.9224 44.8401 10.9224 44.8457 10.9168C44.8512 10.9113 44.8512 10.9113 44.8568 10.9168L44.9762 11.0363C45.0207 11.0807 45.2984 11.0974 45.4373 11.0974C45.4429 11.0974 45.4429 11.1029 45.4429 11.1029C45.4429 11.1029 45.4373 11.1113 45.4318 11.1113Z" fill="black"/>
<path d="M45.4368 13.6499C45.7674 13.6443 45.8035 13.5249 45.8035 13.5249C45.8035 13.5249 45.848 13.3749 45.8535 13.2804C45.8591 13.2666 45.948 13.0804 45.923 12.9999C45.9535 12.9249 46.0285 12.7443 45.9618 12.7082C45.9924 12.6166 46.0424 12.5166 46.0535 12.4277C46.0785 12.3582 46.1452 12.2082 46.0924 12.1554C46.0924 12.1554 46.2118 11.9054 46.1563 11.8388C46.1563 11.8388 46.2118 11.5943 46.1563 11.5332C46.1563 11.5332 46.1563 11.2832 46.0924 11.2166C46.0924 11.2166 46.0924 10.9721 46.0368 10.911C46.0368 10.9249 45.8618 10.5638 45.4452 10.5638L45.4507 11.0943H45.4368V13.6499Z" fill="#9E540A"/>
<path d="M45.4371 13.6526C45.4371 13.6526 45.4315 13.6526 45.4371 13.6526C45.4315 13.6471 45.4315 13.6471 45.4315 13.6471V11.0999C45.4315 11.0943 45.4371 11.0943 45.4371 11.0943L45.4315 10.5665V10.561H45.4371C45.6732 10.561 45.8843 10.6804 46.0232 10.8971C46.0288 10.9026 46.0288 10.9026 46.0288 10.9082C46.0843 10.9693 46.0899 11.1888 46.0899 11.2193C46.151 11.2832 46.151 11.5054 46.1538 11.536C46.2038 11.5999 46.1593 11.811 46.1538 11.8415C46.2038 11.9054 46.1093 12.1221 46.0927 12.1582C46.1371 12.2082 46.0871 12.3332 46.0621 12.4138L46.0565 12.4332C46.051 12.5026 46.0204 12.5776 45.9954 12.6499C45.9843 12.6693 45.9815 12.6888 45.9704 12.711C46.0343 12.7499 45.9649 12.9276 45.9315 13.0026C45.9565 13.0888 45.8704 13.2693 45.8621 13.2888C45.8565 13.3832 45.8121 13.5304 45.8121 13.5332C45.8093 13.5276 45.7732 13.6499 45.4371 13.6526ZM45.4427 11.111V13.6443C45.7593 13.6332 45.7927 13.5249 45.7927 13.5249C45.7927 13.5249 45.8371 13.3749 45.8427 13.2832C45.8427 13.2832 45.8427 13.2832 45.8427 13.2776C45.8621 13.2388 45.9343 13.0721 45.9121 13.0026V12.9971C45.9371 12.936 46.0177 12.7471 45.951 12.7165C45.9454 12.7165 45.9454 12.711 45.9454 12.7054C45.9565 12.686 45.9593 12.661 45.9704 12.636C46.001 12.5665 46.026 12.4943 46.0315 12.4249L46.0371 12.4054C46.0621 12.336 46.1121 12.2054 46.0677 12.1638C46.0677 12.1638 46.0621 12.1582 46.0677 12.1526C46.0982 12.0832 46.1732 11.8971 46.1315 11.8471V11.8415C46.1315 11.8415 46.1871 11.5999 46.1315 11.5415V11.536C46.1315 11.536 46.1315 11.286 46.0704 11.2249V11.2221C46.0704 11.2221 46.0704 10.986 46.0149 10.9221C46.0093 10.9221 46.0093 10.9165 46.0038 10.9082C45.8621 10.6971 45.6621 10.5832 45.4371 10.5776L45.4427 11.1054C45.4538 11.1054 45.4482 11.1054 45.4427 11.111C45.4482 11.111 45.4482 11.111 45.4427 11.111Z" fill="black"/>
<path d="M45.4371 13.4029C45.4315 13.4029 45.4315 13.3974 45.4315 13.3974L45.4371 13.3918C45.5788 13.3918 45.7621 13.3724 45.8427 13.2751C45.8427 13.2696 45.8482 13.2696 45.8538 13.2751C45.8593 13.2751 45.8593 13.2807 45.8538 13.2862C45.7677 13.3835 45.5843 13.4029 45.4371 13.4029ZM45.4371 13.1529C45.4315 13.1529 45.4315 13.1474 45.4315 13.1474L45.4371 13.1418C45.7121 13.1418 45.8843 13.0362 45.9038 13.0251C45.9038 13.0196 45.9093 13.0112 45.9149 12.9946C45.9149 12.989 45.9204 12.989 45.926 12.989C45.9315 12.989 45.9315 12.9946 45.9315 13.0001C45.926 13.0196 45.9177 13.0307 45.9177 13.0307C45.9177 13.0307 45.9177 13.0307 45.9177 13.0362C45.9093 13.0362 45.7288 13.1529 45.4371 13.1529ZM45.4371 12.8474C45.4315 12.8474 45.4315 12.8418 45.4315 12.8418C45.4315 12.8362 45.4371 12.8362 45.4371 12.8362C45.8482 12.8307 45.9343 12.7362 45.9538 12.7057C45.9538 12.7001 45.9593 12.7001 45.9649 12.7001C45.9704 12.7001 45.9704 12.7057 45.9704 12.7112C45.9454 12.7501 45.8482 12.8418 45.4371 12.8474ZM45.4371 12.5946C45.4315 12.5946 45.4315 12.589 45.4315 12.589L45.4371 12.5835C45.9538 12.5835 46.0177 12.464 46.0177 12.464L46.0371 12.4251C46.0371 12.4196 46.0427 12.4196 46.0482 12.4196C46.0538 12.4196 46.0538 12.4251 46.0538 12.4307L46.0343 12.4696C46.0288 12.4696 45.9704 12.5946 45.4371 12.5946ZM45.4371 12.289C45.4315 12.289 45.4315 12.2835 45.4315 12.2835L45.4371 12.2779C45.9593 12.2724 46.0788 12.1585 46.0788 12.1529C46.0843 12.1474 46.0843 12.1474 46.0899 12.1529C46.0954 12.1585 46.0954 12.1585 46.0899 12.164C46.0843 12.164 45.9704 12.2835 45.4371 12.289ZM45.4371 11.9751C45.4315 11.9751 45.4315 11.9696 45.4315 11.9696L45.4371 11.964C45.9593 11.964 46.1399 11.8446 46.1399 11.839C46.1454 11.839 46.1454 11.839 46.151 11.839C46.151 11.8446 46.151 11.8446 46.151 11.8501C46.1454 11.8529 45.9649 11.9751 45.4371 11.9751ZM45.4371 11.6668C45.4315 11.6668 45.4315 11.6612 45.4315 11.6612L45.4371 11.6557C45.9593 11.6501 46.1399 11.5307 46.1399 11.5307C46.1454 11.5307 46.1454 11.5307 46.151 11.5307C46.151 11.5362 46.151 11.5362 46.151 11.5418C46.1454 11.5473 45.9649 11.664 45.4371 11.6668ZM45.4371 11.3557C45.4315 11.3557 45.4315 11.3501 45.4315 11.3501L45.4371 11.3446C45.9593 11.339 46.0788 11.2251 46.0788 11.2196C46.0843 11.214 46.0843 11.214 46.0899 11.2196C46.0954 11.2251 46.0954 11.2251 46.0899 11.2307C46.0843 11.2307 45.9704 11.3473 45.4371 11.3557ZM45.4427 11.1112C45.4371 11.1112 45.4371 11.1057 45.4371 11.1057C45.4371 11.1001 45.4427 11.1001 45.4427 11.1001C45.5843 11.1001 45.8538 11.0862 45.9038 11.039L46.0232 10.9196C46.0288 10.914 46.0288 10.914 46.0343 10.9196C46.0399 10.9251 46.0399 10.9251 46.0343 10.9307L45.9149 11.0501C45.8482 11.1057 45.4871 11.1112 45.4427 11.1112Z" fill="black"/>
<path d="M42.9276 19.4165C42.6554 19.6665 42.136 19.5082 41.9749 19.3915C41.8054 19.4471 41.3526 19.2721 41.2332 19.0748C40.9082 19.1193 40.7915 18.6526 40.8526 18.5332C40.9443 18.3582 40.7832 18.2415 40.8971 18.1276C41.0526 17.9776 40.8054 17.8304 40.961 17.7304C41.111 17.6248 40.9221 17.4498 41.0776 17.3332C41.2332 17.2137 40.9971 17.0526 41.1582 16.9665C41.3193 16.8804 41.1387 16.6693 41.2776 16.5915C41.4193 16.5109 41.1971 16.2998 41.3832 16.2109C41.5637 16.1165 41.4026 15.9554 41.5499 15.886C41.7054 15.8054 41.5637 15.636 41.7054 15.5804C41.8721 15.511 41.7499 15.3304 41.886 15.2804C42.0054 15.236 41.9304 15.1248 42.0054 15.0248H42.9276" fill="#009E49"/>
<path d="M42.5374 19.5584C42.3069 19.5584 42.0763 19.4667 41.9763 19.4028C41.8069 19.4584 41.3597 19.2861 41.2347 19.0861C41.0902 19.1056 40.993 19.0223 40.943 18.95C40.8485 18.8195 40.8124 18.6139 40.8485 18.5389C40.8874 18.4528 40.8735 18.3834 40.8624 18.3222C40.8485 18.2584 40.8319 18.1917 40.893 18.1278C40.968 18.0528 40.9485 17.9834 40.9235 17.9111C40.9041 17.8473 40.8791 17.7806 40.9597 17.7306C41.0291 17.6806 41.0235 17.6139 41.0152 17.5389C41.0041 17.4695 40.9958 17.3945 41.0763 17.3334C41.1513 17.2778 41.1319 17.2084 41.1124 17.1417C41.093 17.0778 41.0735 17.0111 41.1569 16.9667C41.2374 16.9278 41.2263 16.85 41.2208 16.775C41.2097 16.7056 41.2069 16.6306 41.2763 16.5889C41.3374 16.5528 41.3263 16.4945 41.3124 16.4223C41.2985 16.3417 41.2763 16.2556 41.3819 16.2028C41.4735 16.1528 41.4735 16.0861 41.4735 16.0278C41.4735 15.9723 41.4735 15.9111 41.543 15.8778C41.618 15.8389 41.618 15.7778 41.6235 15.7167C41.6235 15.6556 41.6291 15.6 41.7041 15.5723C41.7847 15.5361 41.7958 15.4778 41.7985 15.4111C41.8041 15.3556 41.8124 15.2945 41.8847 15.2695C41.9485 15.2445 41.9541 15.2056 41.9597 15.15C41.9652 15.1111 41.9708 15.0584 41.9985 15.0139L42.0041 15.0084H42.9319C42.9374 15.0084 42.9374 15.0139 42.9374 15.0139L42.9319 15.0195H42.0097C41.9791 15.0584 41.9735 15.1056 41.9708 15.1445C41.9652 15.2 41.9597 15.25 41.8902 15.2806C41.8291 15.3056 41.8208 15.35 41.8152 15.4111C41.8041 15.4723 41.8013 15.5417 41.7097 15.5806C41.6458 15.6056 41.6402 15.6556 41.6402 15.7167C41.6402 15.7778 41.6347 15.8473 41.5541 15.8861C41.4902 15.9167 41.4902 15.9667 41.4902 16.0223C41.4902 16.0861 41.4902 16.1584 41.3902 16.2139C41.2958 16.2639 41.3097 16.3389 41.3263 16.4195C41.3402 16.4834 41.3513 16.5556 41.2874 16.5945C41.2263 16.6306 41.2319 16.7 41.2374 16.7639C41.2485 16.8445 41.2513 16.925 41.168 16.9695C41.093 17.0084 41.1069 17.0639 41.1291 17.1306C41.1485 17.1945 41.168 17.2723 41.0902 17.3361C41.0208 17.3917 41.0263 17.4556 41.0347 17.5306C41.0458 17.6 41.0541 17.675 40.9735 17.7306C40.9041 17.775 40.9235 17.8306 40.943 17.8973C40.968 17.9667 40.993 18.0473 40.9069 18.1278C40.8513 18.1889 40.8624 18.2445 40.8763 18.3084C40.8902 18.3722 40.9069 18.4445 40.8624 18.5334C40.8319 18.5973 40.8569 18.7945 40.9541 18.9306C41.0041 19 41.0958 19.0806 41.2347 19.0611C41.2402 19.0611 41.2402 19.0611 41.2402 19.0667C41.3597 19.2611 41.8069 19.4334 41.9735 19.3778H41.9791C42.1347 19.4834 42.6569 19.6528 42.9208 19.4028C42.9263 19.3973 42.9263 19.4028 42.9319 19.4028C42.9374 19.4084 42.9319 19.4084 42.9319 19.4139C42.8291 19.5223 42.6847 19.5584 42.5374 19.5584Z" fill="black"/>
<path d="M41.9752 19.3972C41.9557 19.3861 41.9446 19.3722 41.939 19.3527C41.9252 19.2916 41.9752 19.1916 42.0252 19.1166C42.0557 19.0777 42.0446 19.0361 42.0363 18.9972C42.0224 18.9361 42.0057 18.8722 42.0724 18.7916C42.1363 18.7166 42.1224 18.6416 42.1113 18.5666C42.1002 18.5055 42.0974 18.4472 42.1307 18.3972C42.1668 18.3472 42.1557 18.2916 42.1446 18.2305C42.1335 18.1611 42.1196 18.0889 42.1696 18.0194C42.214 17.9639 42.2002 17.9083 42.1835 17.8527C42.1696 17.7889 42.1529 17.7222 42.214 17.6527C42.2752 17.5777 42.2585 17.5111 42.2446 17.4527C42.2307 17.3972 42.2196 17.3361 42.264 17.2777C42.3085 17.2277 42.2946 17.1833 42.2835 17.1333C42.2696 17.0777 42.2529 17.0139 42.3085 16.9333C42.3585 16.8639 42.3446 16.8083 42.3279 16.7527C42.314 16.6916 42.2918 16.6333 42.3585 16.5527C42.414 16.4777 42.3974 16.4111 42.389 16.3472C42.3752 16.2833 42.364 16.2111 42.414 16.1361C42.4696 16.0611 42.4529 16.0166 42.4446 15.9666C42.4335 15.9222 42.4196 15.8722 42.4585 15.8C42.4974 15.7277 42.4835 15.6833 42.4696 15.6389C42.4557 15.5889 42.439 15.5444 42.5002 15.4722C42.5502 15.4111 42.5363 15.3722 42.5196 15.3166C42.5057 15.2611 42.4835 15.2 42.5446 15.1222C42.5446 15.1166 42.5502 15.1166 42.5557 15.1222C42.5613 15.1277 42.5613 15.1277 42.5557 15.1333C42.5002 15.2083 42.5168 15.2639 42.5363 15.3194C42.5502 15.3694 42.5668 15.4194 42.5168 15.4861C42.4613 15.55 42.4779 15.5916 42.4918 15.6416C42.5057 15.6861 42.5224 15.7361 42.4807 15.8111C42.4446 15.8805 42.4557 15.9222 42.4668 15.9666C42.4807 16.0166 42.4918 16.0666 42.4363 16.1472C42.3863 16.2166 42.3974 16.2833 42.4113 16.3472C42.4252 16.4166 42.4363 16.4889 42.3807 16.5639C42.3196 16.6389 42.3363 16.6944 42.3502 16.7555C42.364 16.8111 42.3807 16.8722 42.3307 16.95C42.2807 17.0277 42.2946 17.0861 42.3113 17.1416C42.3252 17.1972 42.3363 17.2416 42.2918 17.3027C42.2529 17.3583 42.2613 17.4083 42.2779 17.4639C42.2918 17.5277 42.3085 17.6 42.2418 17.6805C42.1863 17.75 42.2029 17.8111 42.2168 17.8722C42.2307 17.9277 42.2474 17.9889 42.1974 18.0527C42.1529 18.1166 42.1613 18.1889 42.1724 18.2527C42.1835 18.3166 42.1918 18.3777 42.1529 18.4277C42.1168 18.4722 42.1279 18.5222 42.1335 18.5889C42.1446 18.6639 42.1585 18.75 42.089 18.825C42.0279 18.9 42.0446 18.9611 42.0529 19.0166C42.064 19.0611 42.0724 19.1083 42.0418 19.1527C41.9918 19.2166 41.9474 19.3194 41.9557 19.3777C41.9613 19.3916 41.9668 19.4083 41.9807 19.4139C41.9863 19.4139 41.9863 19.4194 41.9863 19.425C41.9807 19.3972 41.9752 19.3972 41.9752 19.3972ZM41.239 19.0861C41.239 19.0861 41.2335 19.0861 41.2335 19.0805C41.1974 19.025 41.2196 18.9111 41.2974 18.8305C41.3335 18.7944 41.3335 18.7555 41.3279 18.7055C41.3279 18.6444 41.3224 18.5805 41.389 18.5111C41.439 18.4611 41.4335 18.4111 41.4252 18.35C41.414 18.2861 41.4057 18.2083 41.4807 18.1305C41.5502 18.0555 41.5502 17.975 41.5446 17.9C41.539 17.8305 41.5335 17.7555 41.6002 17.6889C41.6613 17.6277 41.6557 17.5694 41.6502 17.5027C41.6446 17.4333 41.639 17.3611 41.7057 17.2972C41.7668 17.2361 41.7613 17.1861 41.7557 17.1277C41.7502 17.0666 41.7418 17.0083 41.8057 16.9333C41.8696 16.8639 41.8668 16.8083 41.8613 16.7416C41.8557 16.6805 41.8502 16.6166 41.9168 16.55C41.9807 16.4889 41.9779 16.4333 41.9724 16.375C41.9668 16.3194 41.9613 16.2555 42.0224 16.1805C42.0835 16.1 42.0724 16.0444 42.0585 15.9944C42.0474 15.9444 42.039 15.8889 42.089 15.8194C42.139 15.7555 42.139 15.7027 42.139 15.6527C42.139 15.5916 42.139 15.5277 42.2085 15.4416C42.2696 15.3666 42.264 15.3111 42.2585 15.25C42.2529 15.1944 42.2474 15.1333 42.3085 15.0694C42.314 15.0639 42.314 15.0639 42.3196 15.0694C42.3252 15.075 42.3252 15.075 42.3196 15.0805C42.2585 15.1416 42.264 15.1972 42.2696 15.25C42.2752 15.3055 42.2835 15.3694 42.2196 15.45C42.1557 15.5305 42.1557 15.5916 42.1557 15.65C42.1557 15.7055 42.1557 15.7611 42.1057 15.825C42.0557 15.8889 42.0668 15.9416 42.0752 15.9916C42.0863 16.0472 42.1002 16.1083 42.0363 16.1916C41.9807 16.2611 41.9863 16.3222 41.9918 16.3777C41.9974 16.4389 42.0029 16.4972 41.9307 16.5639C41.8696 16.625 41.8752 16.6833 41.8807 16.7444C41.8863 16.8083 41.8918 16.875 41.8252 16.9444C41.764 17.0139 41.7696 17.0694 41.7752 17.1305C41.7807 17.1861 41.789 17.2472 41.7252 17.3111C41.6613 17.375 41.664 17.4416 41.6696 17.5055C41.6752 17.5694 41.6807 17.6416 41.614 17.7055C41.5529 17.7666 41.5585 17.8361 41.564 17.9055C41.5696 17.9861 41.5752 18.0666 41.4946 18.1472C41.4252 18.2222 41.4335 18.2916 41.4446 18.3583C41.4557 18.4194 41.464 18.475 41.4057 18.5333C41.3418 18.5972 41.3446 18.6583 41.3446 18.7194C41.3446 18.7694 41.3502 18.8139 41.3085 18.8555C41.2224 18.9416 41.2168 19.0472 41.2474 19.0916C41.2446 19.075 41.2446 19.0805 41.239 19.0861Z" fill="black"/>
<path d="M42.9295 19.4168C43.2017 19.6668 43.7212 19.5085 43.8823 19.3918C44.0517 19.4474 44.5045 19.2724 44.6239 19.0751C44.9489 19.1196 45.0656 18.6529 45.0045 18.5335C44.9128 18.3585 45.0739 18.2418 44.96 18.1279C44.8045 17.9779 45.0517 17.8307 44.8962 17.7307C44.7462 17.6251 44.935 17.4501 44.7795 17.3335C44.6239 17.214 44.86 17.0529 44.6989 16.9668C44.5378 16.8807 44.7184 16.6696 44.5795 16.5918C44.4406 16.514 44.66 16.3001 44.4739 16.2113C44.2934 16.1168 44.4545 15.9557 44.3073 15.8863C44.1517 15.8057 44.2934 15.6363 44.1517 15.5807C43.9851 15.5113 44.1073 15.3307 43.9712 15.2807C43.8517 15.2363 43.9267 15.1251 43.8517 15.0251H42.9295" fill="#009E49"/>
<path d="M43.3209 19.5585C43.1764 19.5585 43.0347 19.5223 42.9236 19.4223C42.9181 19.4168 42.9181 19.4168 42.9236 19.4112C42.9292 19.4057 42.9292 19.4057 42.9347 19.4112C43.2014 19.6612 43.7264 19.4918 43.8764 19.3862H43.882C44.0431 19.4418 44.4931 19.2696 44.6153 19.0751L44.6209 19.0696C44.7625 19.089 44.8514 19.0085 44.9014 18.939C45.0014 18.8029 45.0264 18.6085 44.9931 18.5418C44.9486 18.4557 44.9625 18.3807 44.9792 18.3168C44.9931 18.2529 45.0042 18.1973 44.9486 18.1362C44.8625 18.0557 44.8931 17.9751 44.9125 17.9057C44.932 17.8418 44.9514 17.7862 44.882 17.739C44.8014 17.6835 44.8125 17.6085 44.8209 17.539C44.832 17.4696 44.8403 17.3973 44.7653 17.3446C44.6847 17.2807 44.7042 17.2029 44.7264 17.139C44.7459 17.0751 44.7625 17.0196 44.6875 16.9779C44.5959 16.9335 44.607 16.8529 44.6181 16.7723C44.6292 16.7029 44.632 16.6362 44.5681 16.6029C44.4986 16.564 44.5125 16.4918 44.5292 16.4279C44.5431 16.3529 44.5597 16.2723 44.4653 16.2223C44.3653 16.1723 44.3653 16.0973 44.3653 16.0307C44.3653 15.9751 44.3653 15.9251 44.3014 15.8946C44.2153 15.8501 44.2153 15.7835 44.2153 15.7251C44.2153 15.664 44.2097 15.614 44.1459 15.589C44.0542 15.5529 44.0514 15.4779 44.0403 15.4196C44.0347 15.3585 44.0264 15.3085 43.9653 15.289C43.8959 15.264 43.8903 15.2085 43.8847 15.1529C43.8792 15.114 43.8736 15.0668 43.8459 15.0279H42.9375C42.932 15.0279 42.932 15.0223 42.932 15.0223L42.9375 15.0168H43.8653C43.8653 15.0168 43.8709 15.0168 43.8709 15.0223C43.907 15.0668 43.9097 15.114 43.9097 15.1585C43.9153 15.214 43.9209 15.2585 43.9847 15.2779C44.0542 15.3029 44.0597 15.364 44.0709 15.4196C44.082 15.4807 44.0847 15.5446 44.1653 15.5807C44.2403 15.6112 44.2403 15.6723 44.2459 15.7251C44.2459 15.7862 44.2514 15.8446 44.3264 15.8862C44.3959 15.9223 44.3959 15.9779 44.3959 16.0362C44.3959 16.1001 44.3959 16.1668 44.4875 16.2112C44.5931 16.2668 44.5792 16.3529 44.557 16.4307C44.5431 16.5001 44.532 16.5557 44.5931 16.5973C44.6625 16.6362 44.6542 16.714 44.6486 16.7835C44.6375 16.8585 44.6347 16.9335 44.7125 16.9751C44.7986 17.0196 44.7764 17.0862 44.757 17.1501C44.7375 17.214 44.7181 17.2807 44.7931 17.3418C44.8736 17.4029 44.8625 17.4779 44.8542 17.5473C44.8459 17.6168 44.8347 17.6835 44.9097 17.739C44.9847 17.789 44.9653 17.8557 44.9459 17.9196C44.9209 17.989 44.9014 18.0612 44.9764 18.1362C45.0375 18.2001 45.0209 18.2612 45.007 18.3307C44.9931 18.3918 44.9764 18.4612 45.0209 18.5473C45.057 18.6279 45.0264 18.8279 44.9264 18.9585C44.8709 19.0279 44.782 19.114 44.6347 19.0946C44.5097 19.2946 44.0625 19.4612 43.8931 19.4112C43.782 19.4668 43.5514 19.5585 43.3209 19.5585Z" fill="black"/>
<path d="M43.8813 19.3972C43.8813 19.3972 43.8757 19.3972 43.8757 19.3916C43.8757 19.3861 43.8757 19.3861 43.8813 19.3805C43.8952 19.375 43.9007 19.3611 43.9063 19.3444C43.9202 19.2889 43.8702 19.1889 43.8202 19.1194C43.7896 19.075 43.8007 19.0278 43.8091 18.9833C43.8229 18.9278 43.8396 18.8666 43.7729 18.7916C43.7063 18.7166 43.7174 18.6305 43.7285 18.5555C43.7396 18.4944 43.7424 18.4389 43.7091 18.3944C43.6702 18.3389 43.6785 18.2778 43.6896 18.2194C43.7007 18.1555 43.7146 18.0833 43.6646 18.0194C43.6202 17.9555 43.6341 17.9 43.6452 17.8389C43.6591 17.7778 43.6757 17.7194 43.6202 17.6472C43.5563 17.5666 43.5702 17.4972 43.5841 17.4305C43.5979 17.375 43.6091 17.3194 43.5702 17.2694C43.5257 17.2139 43.5341 17.1639 43.5507 17.1083C43.5646 17.0528 43.5813 16.9916 43.5313 16.9166C43.4757 16.8416 43.4924 16.7805 43.5118 16.7222C43.5257 16.6611 43.5424 16.6055 43.4868 16.5305C43.4257 16.45 43.4424 16.3805 43.4563 16.3139C43.4702 16.25 43.4813 16.1833 43.4313 16.1139C43.3757 16.0333 43.3868 15.9833 43.4007 15.9333C43.4118 15.8889 43.4257 15.8416 43.3868 15.7778C43.3479 15.7028 43.3618 15.6528 43.3757 15.6083C43.3896 15.5583 43.4007 15.5166 43.3507 15.4528C43.2952 15.3889 43.3118 15.3361 43.3313 15.2861C43.3452 15.2305 43.3674 15.1805 43.3118 15.1C43.3118 15.0944 43.3118 15.0944 43.3118 15.0889C43.3174 15.0889 43.3174 15.0889 43.3229 15.0889C43.3841 15.175 43.3618 15.2333 43.3479 15.2833C43.3341 15.3333 43.3174 15.3778 43.3674 15.4389C43.4229 15.5083 43.4118 15.5555 43.3979 15.6055C43.3841 15.65 43.3729 15.6972 43.4091 15.7666C43.4479 15.8416 43.4341 15.8861 43.4229 15.9333C43.4091 15.9833 43.3979 16.0278 43.4535 16.1028C43.5091 16.1778 43.4924 16.2472 43.4785 16.3139C43.4646 16.3833 43.4535 16.45 43.5091 16.5194C43.5729 16.6 43.5535 16.6611 43.5396 16.7194C43.5257 16.775 43.5091 16.8305 43.5591 16.9C43.6146 16.9861 43.5979 17.0444 43.5841 17.1C43.5702 17.15 43.5591 17.1944 43.6035 17.2444C43.6479 17.3055 43.6396 17.3611 43.6229 17.4194C43.6091 17.4833 43.5924 17.55 43.6535 17.6194C43.7146 17.6944 43.6979 17.7611 43.6841 17.8194C43.6702 17.875 43.6535 17.9305 43.6979 17.9861C43.7479 18.0555 43.7368 18.1278 43.7229 18.1972C43.7118 18.2583 43.7035 18.3139 43.7368 18.3639C43.7757 18.4139 43.7674 18.4694 43.7563 18.5333C43.7452 18.6083 43.7368 18.6833 43.7952 18.7583C43.8591 18.8389 43.8452 18.9028 43.8313 18.9639C43.8202 19.0083 43.8118 19.05 43.8424 19.0833C43.8979 19.1528 43.9424 19.2583 43.9285 19.3194C43.9118 19.3722 43.9035 19.3861 43.8813 19.3972ZM44.6257 19.0861C44.6202 19.0861 44.6202 19.0861 44.6257 19.0861C44.6202 19.0805 44.6146 19.0805 44.6202 19.075C44.6452 19.0305 44.6396 18.9194 44.5591 18.8389C44.5202 18.8 44.5229 18.7528 44.5229 18.7028C44.5229 18.6416 44.5285 18.5833 44.4618 18.5166C44.4063 18.4611 44.4174 18.4 44.4229 18.3416C44.4341 18.2778 44.4424 18.2111 44.3729 18.1305C44.2979 18.05 44.3035 17.9694 44.3035 17.8889C44.3091 17.8194 44.3091 17.7472 44.2535 17.6889C44.1896 17.625 44.1924 17.5583 44.1979 17.4944C44.2035 17.425 44.2091 17.3639 44.1424 17.3C44.0785 17.2361 44.0813 17.175 44.0924 17.1194C44.0979 17.0639 44.1035 17.0028 44.0424 16.9333C43.9729 16.8639 43.9785 16.7972 43.9868 16.7333C43.9924 16.6722 43.9979 16.6139 43.9368 16.5528C43.8674 16.4889 43.8729 16.4278 43.8757 16.3666C43.8813 16.3111 43.8868 16.25 43.8313 16.1805C43.7674 16.0944 43.7813 16.0389 43.7924 15.9805C43.8035 15.9305 43.8118 15.8805 43.7618 15.8139C43.7118 15.75 43.7118 15.6944 43.7118 15.6389C43.7118 15.5778 43.7118 15.5194 43.6479 15.4389C43.5841 15.3583 43.5868 15.2944 43.5979 15.2389C43.6035 15.1833 43.6091 15.1278 43.5479 15.0694C43.5424 15.0639 43.5424 15.0639 43.5479 15.0583C43.5535 15.0527 43.5535 15.0527 43.5591 15.0583C43.6229 15.1222 43.6202 15.1833 43.6091 15.2389C43.6035 15.2944 43.5952 15.3555 43.6591 15.4305C43.7285 15.5166 43.7285 15.575 43.7285 15.6416C43.7285 15.6972 43.7285 15.7472 43.7785 15.8083C43.8341 15.8778 43.8229 15.9333 43.8091 15.9833C43.7979 16.0389 43.7896 16.0944 43.8452 16.1694C43.9063 16.2444 43.9007 16.3111 43.8952 16.3639C43.8896 16.425 43.8841 16.475 43.9507 16.5389C44.0146 16.6028 44.0118 16.6694 44.0063 16.7305C44.0007 16.7944 43.9952 16.8555 44.0618 16.9222C44.1257 16.9972 44.1229 17.0583 44.1118 17.1166C44.1063 17.1722 44.1007 17.2278 44.1618 17.2861C44.2313 17.3555 44.2257 17.4278 44.2174 17.4916C44.2118 17.5555 44.2063 17.6166 44.2674 17.6778C44.3285 17.7416 44.3285 17.8194 44.3229 17.8889C44.3174 17.9639 44.3118 18.0444 44.3868 18.1194C44.4618 18.2 44.4507 18.275 44.4424 18.3389C44.4313 18.4 44.4285 18.45 44.4785 18.5C44.5424 18.5639 44.5424 18.6361 44.5396 18.6944C44.5396 18.7444 44.5341 18.7861 44.5702 18.8194C44.6507 18.9 44.6702 19.0139 44.6341 19.0694C44.6257 19.0861 44.6257 19.0861 44.6257 19.0861Z" fill="black"/>
<path d="M42.9283 19.4221C42.9228 19.4221 42.9228 19.4165 42.9228 19.4165V15.0277C42.9228 15.0221 42.9283 15.0221 42.9283 15.0221L42.9339 15.0277V19.4165C42.9339 19.4221 42.9339 19.4221 42.9283 19.4221Z" fill="#009E49"/>
<path d="M42.9287 19.4221C42.9232 19.4221 42.9176 19.4166 42.9232 19.411C42.9537 19.311 42.9371 19.2416 42.9232 19.1694C42.9037 19.0888 42.887 19.0194 42.9371 18.9082C42.9815 18.8082 42.9509 18.7416 42.9232 18.6832C42.8926 18.6194 42.862 18.5582 42.9232 18.4638C42.9843 18.3694 42.9621 18.2832 42.9371 18.1888C42.9121 18.1027 42.887 18.0027 42.9232 17.8777C42.9537 17.7666 42.9343 17.7027 42.9121 17.6332C42.8926 17.5582 42.8732 17.4832 42.9232 17.361C42.9732 17.2416 42.9482 17.1444 42.9287 17.0499C42.9093 16.9694 42.8926 16.8944 42.9232 16.8138C42.9593 16.7221 42.9482 16.6444 42.9343 16.5721C42.9232 16.5082 42.9148 16.436 42.9343 16.3555C42.9537 16.286 42.9398 16.2305 42.9204 16.1694C42.9009 16.0944 42.8759 16.0194 42.9204 15.9082C42.9593 15.8027 42.9454 15.6916 42.9259 15.5777C42.9121 15.4721 42.8898 15.361 42.9204 15.2416C42.9204 15.236 42.9259 15.236 42.9315 15.236C42.9371 15.236 42.9371 15.2416 42.9371 15.2471C42.9121 15.3638 42.9259 15.4721 42.9426 15.5777C42.9621 15.6944 42.9787 15.8027 42.9371 15.9138C42.8926 16.0249 42.9176 16.0944 42.9371 16.1638C42.9509 16.2194 42.9732 16.2805 42.9509 16.3555C42.9259 16.4305 42.9398 16.4971 42.9509 16.5666C42.9648 16.6416 42.9759 16.7221 42.9398 16.8166C42.9093 16.8971 42.9259 16.9666 42.9454 17.0471C42.9648 17.1388 42.9898 17.2388 42.9398 17.3638C42.8898 17.4805 42.9093 17.5499 42.9287 17.6249C42.9482 17.6944 42.9676 17.7666 42.9398 17.8749C42.9093 17.9999 42.9343 18.0944 42.9537 18.1805C42.9787 18.2805 43.0037 18.3666 42.9398 18.4666C42.8787 18.5582 42.9093 18.611 42.9398 18.6777C42.9704 18.7388 43.0009 18.8027 42.9537 18.9138C42.9037 19.0194 42.9232 19.0888 42.9398 19.1694C42.9537 19.2388 42.9759 19.3138 42.9398 19.4138C42.9343 19.4221 42.9343 19.4221 42.9287 19.4221Z" fill="black"/>
<path d="M43.0254 16.0474C42.9948 16.1168 43.1198 16.2779 43.0504 16.4029C42.9754 16.5224 43.0892 16.7085 43.0115 16.8585C42.9309 17.0085 43.1309 17.2001 43.0559 17.3751C42.9754 17.5501 43.0948 17.7724 43.0559 17.9307C43.0254 18.0974 43.1365 18.4085 43.0559 18.5224C42.9754 18.6418 43.1365 18.6724 43.042 18.964C42.9476 19.2557 42.8865 19.0085 42.942 18.9196C43.0615 18.7251 42.8115 18.664 42.9281 18.4724C43.0448 18.2807 42.8587 18.1474 42.9281 17.8807C42.992 17.6501 42.8337 17.589 42.9281 17.364C43.0226 17.1335 42.8587 16.9918 42.9281 16.8168C42.9976 16.6418 42.8892 16.5196 42.942 16.3612C42.9865 16.1946 42.8476 16.1168 42.9281 15.914C42.9948 15.7196 43.0531 15.9751 43.0254 16.0474ZM42.4976 16.2474C42.4531 16.3224 42.5726 16.4668 42.467 16.614C42.392 16.714 42.517 16.8335 42.4115 16.9807C42.342 17.0807 42.4809 17.2057 42.3865 17.3529C42.3226 17.4335 42.4309 17.5946 42.3559 17.7085C42.2809 17.8335 42.3948 17.9335 42.2615 18.1001C42.1865 18.1918 42.317 18.4057 42.2365 18.4751C42.1559 18.5446 42.2309 18.8168 42.1726 18.8501C42.1226 18.8946 42.1726 19.0918 42.0309 19.1307C42.1004 19.0362 41.9615 18.939 42.0754 18.8057C42.1948 18.664 42.0559 18.5085 42.1392 18.4085C42.2198 18.3029 42.0892 18.164 42.1837 18.0335C42.2781 17.9085 42.1142 17.8029 42.2281 17.6612C42.3476 17.5168 42.1837 17.4057 42.2781 17.2862C42.3726 17.1696 42.2226 17.0918 42.3226 16.9362C42.4281 16.7862 42.2531 16.7057 42.3726 16.5557C42.4892 16.4057 42.3226 16.2835 42.4281 16.1335C42.5337 15.9835 42.3892 15.9418 42.4726 15.7918C42.6226 15.8446 42.5476 16.1724 42.4976 16.2474ZM42.1809 15.8362C42.117 15.9362 42.2059 16.0557 42.1115 16.1835C42.017 16.314 42.1115 16.4807 42.017 16.5835C41.9226 16.6835 42.042 16.8835 41.9226 16.964C41.8031 17.0446 41.8781 17.289 41.7809 17.3696C41.6837 17.4501 41.7809 17.6862 41.6754 17.8001C41.5698 17.9168 41.6198 18.1668 41.5559 18.2224C41.5004 18.2779 41.6365 18.3974 41.5365 18.4779C41.4309 18.5585 41.4309 18.7224 41.292 18.8279C41.3726 18.7474 41.267 18.6279 41.3865 18.5057C41.5031 18.389 41.3365 18.2751 41.4781 18.1251C41.6226 17.9751 41.4726 17.8085 41.5976 17.6779C41.7226 17.5529 41.5726 17.4112 41.7031 17.2807C41.8281 17.1557 41.6781 17.0612 41.8031 16.914C41.9337 16.7724 41.7837 16.664 41.9087 16.5335C42.0392 16.4085 41.8948 16.314 42.0142 16.1612C42.1337 16.0057 41.9754 15.9362 42.0837 15.7946C42.1337 15.7307 42.1337 15.6751 42.1337 15.6251C42.217 15.4501 42.217 15.7862 42.1809 15.8362Z" fill="#FCD116"/>
<path d="M42.0319 19.1305C42.0319 19.1305 42.0263 19.1305 42.0263 19.1249C42.0263 19.1249 42.0263 19.1194 42.0263 19.1138C42.0569 19.0749 42.0458 19.0333 42.0374 18.9944C42.0236 18.9333 42.0069 18.8694 42.0736 18.7888C42.1374 18.7138 42.1236 18.6388 42.1124 18.5638C42.1013 18.5027 42.0986 18.4444 42.1319 18.3944C42.168 18.3444 42.1569 18.2888 42.1458 18.2277C42.1347 18.1583 42.1208 18.0861 42.1708 18.0166C42.2152 17.9611 42.2013 17.9055 42.1847 17.8499C42.1708 17.7861 42.1541 17.7194 42.2152 17.6499C42.2763 17.5749 42.2597 17.5083 42.2458 17.4499C42.2319 17.3944 42.2208 17.3333 42.2652 17.2749C42.3097 17.2249 42.2958 17.1805 42.2847 17.1305C42.2708 17.0749 42.2541 17.0111 42.3097 16.9305C42.3597 16.8611 42.3458 16.8055 42.3291 16.7499C42.3152 16.6888 42.293 16.6305 42.3597 16.5499C42.4152 16.4749 42.3986 16.4083 42.3902 16.3444C42.3763 16.2805 42.3652 16.2083 42.4152 16.1333C42.4708 16.0583 42.4541 16.0138 42.4458 15.9638C42.4347 15.9194 42.4208 15.8694 42.4597 15.7972C42.4597 15.7916 42.4652 15.7916 42.4708 15.7916C42.5097 15.8055 42.5347 15.8361 42.5513 15.8833C42.5902 16.0027 42.5402 16.1999 42.5013 16.2583C42.4874 16.2888 42.4902 16.3222 42.5013 16.3749C42.5152 16.4444 42.5374 16.5361 42.4652 16.6249C42.4291 16.6694 42.4402 16.7166 42.4513 16.7694C42.4624 16.8333 42.4708 16.9111 42.4124 16.9888C42.3819 17.0333 42.393 17.0805 42.4069 17.1333C42.4208 17.1972 42.443 17.2749 42.3874 17.3527C42.3569 17.3888 42.368 17.4444 42.3763 17.5027C42.3874 17.5666 42.3958 17.6444 42.3569 17.7083C42.3263 17.7583 42.3263 17.8083 42.3319 17.8583C42.3374 17.9222 42.343 18.0027 42.2624 18.0944C42.2263 18.1333 42.243 18.2111 42.2513 18.2805C42.2652 18.3611 42.2763 18.4305 42.2374 18.4722C42.1986 18.5083 42.1986 18.6027 42.1986 18.6888C42.1986 18.7638 42.2041 18.8305 42.1736 18.8499C42.1597 18.8638 42.1541 18.8999 42.1486 18.9416C42.1374 19.0111 42.1263 19.0999 42.0319 19.1305C42.0374 19.1305 42.0319 19.1305 42.0319 19.1305ZM42.4736 15.7944C42.4374 15.8583 42.4486 15.9055 42.4624 15.9444C42.4763 15.9944 42.4874 16.0444 42.4319 16.1249C42.3819 16.1944 42.393 16.2611 42.4069 16.3249C42.4208 16.3944 42.4319 16.4666 42.3763 16.5416C42.3152 16.6166 42.3319 16.6722 42.3458 16.7333C42.3597 16.7888 42.3763 16.8499 42.3263 16.9277C42.2763 17.0055 42.2902 17.0638 42.3069 17.1194C42.3208 17.1749 42.3319 17.2194 42.2874 17.2805C42.2486 17.3361 42.2569 17.3861 42.2736 17.4416C42.2874 17.5055 42.3041 17.5777 42.2374 17.6583C42.1819 17.7277 42.1986 17.7888 42.2124 17.8499C42.2263 17.9055 42.243 17.9666 42.193 18.0305C42.1486 18.0944 42.1569 18.1666 42.168 18.2305C42.1791 18.2944 42.1874 18.3555 42.1486 18.4055C42.1124 18.4499 42.1236 18.4999 42.1291 18.5666C42.1402 18.6416 42.1541 18.7277 42.0847 18.8027C42.0236 18.8777 42.0402 18.9388 42.0486 18.9944C42.0597 19.0333 42.068 19.0749 42.0486 19.1111C42.1124 19.0805 42.1236 19.0055 42.1347 18.9361C42.1402 18.8916 42.1458 18.8555 42.1652 18.8361C42.1902 18.8222 42.1847 18.7555 42.1847 18.6861C42.1847 18.5944 42.1791 18.4999 42.2291 18.4611C42.268 18.4305 42.2541 18.3611 42.2402 18.2861C42.2263 18.2111 42.2152 18.1305 42.2513 18.0861C42.3263 17.9944 42.3208 17.9249 42.3152 17.8611C42.3097 17.8055 42.3097 17.7555 42.3458 17.6999C42.3847 17.6388 42.3763 17.5694 42.3652 17.4999C42.3541 17.4388 42.3513 17.3805 42.3791 17.3388C42.4291 17.2638 42.4152 17.1944 42.393 17.1277C42.3791 17.0722 42.368 17.0166 42.4041 16.9666C42.4597 16.8916 42.4486 16.8222 42.4402 16.7555C42.4291 16.6999 42.4263 16.6499 42.4597 16.5999C42.5208 16.5138 42.5041 16.4333 42.4902 16.3583C42.4791 16.3083 42.4708 16.2666 42.4902 16.2333C42.5291 16.1722 42.5763 15.9833 42.5402 15.8666C42.5291 15.8361 42.5041 15.8111 42.4736 15.7944ZM42.9597 19.0999C42.9486 19.0999 42.9402 19.0944 42.9347 19.0805C42.9097 19.0444 42.9097 18.9555 42.9402 18.9111C42.9958 18.8166 42.9652 18.7555 42.9347 18.6916C42.8986 18.6277 42.8708 18.5611 42.9291 18.4666C42.9902 18.3722 42.968 18.2861 42.943 18.1916C42.918 18.1055 42.893 18.0055 42.9291 17.8805C42.9597 17.7694 42.9402 17.7055 42.918 17.6361C42.8986 17.5611 42.8791 17.4861 42.9291 17.3638C42.9791 17.2444 42.9541 17.1472 42.9347 17.0527C42.9152 16.9722 42.8986 16.8972 42.9291 16.8166C42.9652 16.7249 42.9541 16.6472 42.9402 16.5749C42.9291 16.5111 42.9208 16.4388 42.9402 16.3583C42.9597 16.2888 42.9458 16.2333 42.9263 16.1722C42.9069 16.0972 42.8819 16.0222 42.9263 15.9111C42.9402 15.8611 42.9569 15.8361 42.9763 15.8305C42.9819 15.8305 42.9958 15.8305 43.0069 15.8444C43.0374 15.8833 43.0513 15.9944 43.0319 16.0388C43.0208 16.0638 43.0319 16.1083 43.0458 16.1583C43.0652 16.2277 43.0958 16.3194 43.0569 16.3999C43.0208 16.4555 43.0319 16.5305 43.0374 16.6111C43.0485 16.6972 43.0569 16.7805 43.018 16.8555C42.9819 16.9249 43.0069 17.0055 43.0374 17.0916C43.068 17.1833 43.0986 17.2777 43.0624 17.3666C43.018 17.4666 43.0374 17.5777 43.0513 17.6888C43.0652 17.7749 43.0763 17.8555 43.0624 17.9249C43.0486 17.9944 43.0624 18.0916 43.0736 18.1861C43.0874 18.3166 43.1097 18.4527 43.0597 18.5166C43.0236 18.5666 43.0347 18.5972 43.0541 18.6472C43.0736 18.7083 43.1041 18.7916 43.0486 18.9527C43.0208 19.0499 42.9902 19.0999 42.9597 19.0999ZM42.9791 15.8499C42.968 15.8499 42.9541 15.8611 42.9402 15.9194C42.8958 16.0305 42.9152 16.0999 42.9402 16.1749C42.9541 16.2305 42.9763 16.2916 42.9541 16.3666C42.9291 16.4416 42.943 16.5083 42.9541 16.5777C42.968 16.6527 42.9791 16.7333 42.943 16.8277C42.9124 16.9083 42.9291 16.9777 42.9486 17.0583C42.968 17.1499 42.993 17.2499 42.943 17.3749C42.893 17.4916 42.9124 17.5611 42.9319 17.6361C42.9513 17.7055 42.9708 17.7777 42.943 17.8861C42.9124 18.0111 42.9374 18.1055 42.9569 18.1916C42.9819 18.2916 43.0069 18.3777 42.943 18.4777C42.8874 18.5694 42.918 18.6277 42.9486 18.6888C42.9847 18.7527 43.018 18.8194 42.9541 18.9194C42.9291 18.9583 42.9291 19.0444 42.9486 19.0805C42.9541 19.0916 42.9597 19.0916 42.9624 19.0916C42.9736 19.0916 43.0013 19.0777 43.0374 18.9611C43.0874 18.7999 43.0624 18.7194 43.043 18.6638C43.0291 18.6138 43.0124 18.5777 43.0541 18.5194C43.0986 18.4555 43.0847 18.3249 43.0652 18.1972C43.0513 18.1027 43.0402 18.0027 43.0541 17.9305C43.068 17.8611 43.0597 17.7805 43.043 17.6999C43.0236 17.5888 43.0069 17.4749 43.0541 17.3749C43.0902 17.2888 43.0597 17.1999 43.0291 17.1083C42.9986 17.0166 42.968 16.9388 43.0097 16.8583C43.0458 16.7833 43.0347 16.6972 43.0291 16.6166C43.018 16.5361 43.0097 16.4555 43.0486 16.3972C43.0874 16.3277 43.0624 16.2416 43.0374 16.1722C43.0235 16.1222 43.0069 16.0722 43.0235 16.0416C43.043 16.0027 43.0291 15.8972 42.9986 15.8611C42.9902 15.8555 42.9847 15.8499 42.9791 15.8499ZM41.3013 18.8388H41.2958C41.2958 18.8333 41.2958 18.8333 41.2958 18.8277C41.3319 18.7916 41.3319 18.7527 41.3263 18.7027C41.3263 18.6416 41.3208 18.5777 41.3874 18.5083C41.4374 18.4583 41.4319 18.4083 41.4236 18.3472C41.4124 18.2833 41.4041 18.2055 41.4791 18.1277C41.5486 18.0527 41.5486 17.9722 41.543 17.8972C41.5374 17.8277 41.5319 17.7527 41.5986 17.6861C41.6597 17.6249 41.6541 17.5666 41.6486 17.4999C41.643 17.4305 41.6374 17.3583 41.7041 17.2944C41.7652 17.2333 41.7597 17.1833 41.7541 17.1249C41.7486 17.0638 41.7402 17.0055 41.8041 16.9305C41.868 16.8611 41.8652 16.8055 41.8597 16.7388C41.8541 16.6777 41.8486 16.6138 41.9152 16.5472C41.9791 16.4861 41.9763 16.4305 41.9708 16.3722C41.9652 16.3166 41.9597 16.2527 42.0208 16.1777C42.0819 16.0972 42.0708 16.0416 42.0569 15.9916C42.0458 15.9416 42.0374 15.8861 42.0874 15.8166C42.1374 15.7555 42.1374 15.7 42.1374 15.65C42.1569 15.5944 42.1736 15.5861 42.1819 15.5861C42.1874 15.5861 42.193 15.5861 42.1958 15.5972C42.2208 15.6361 42.2152 15.8138 42.1902 15.8527C42.1652 15.8972 42.1652 15.9444 42.1708 15.9944C42.1763 16.0555 42.1763 16.1249 42.1263 16.1999C42.0819 16.2638 42.0819 16.3361 42.0819 16.4055C42.0819 16.4749 42.0819 16.5472 42.0319 16.5999C41.993 16.6444 41.993 16.7166 41.9958 16.7805C42.0013 16.8555 42.0013 16.9361 41.9347 16.9805C41.8736 17.0194 41.8652 17.1111 41.8597 17.1972C41.8541 17.2777 41.8458 17.3472 41.7986 17.3888C41.7541 17.4249 41.7541 17.4999 41.7541 17.5805C41.7541 17.6722 41.7486 17.7611 41.693 17.8222C41.6319 17.8861 41.6236 17.9916 41.618 18.0833C41.6124 18.1527 41.6041 18.2194 41.5791 18.2444C41.5597 18.2638 41.568 18.2999 41.5847 18.3388C41.5986 18.3888 41.6236 18.4555 41.5652 18.5055C41.5152 18.5416 41.4902 18.5999 41.4597 18.6555C41.4152 18.7111 41.3791 18.7805 41.3013 18.8388C41.3041 18.8388 41.3013 18.8388 41.3013 18.8388ZM42.1486 15.6444C42.1486 15.6944 42.1486 15.7555 42.0986 15.8138C42.0486 15.8777 42.0597 15.9305 42.068 15.9805C42.0791 16.0361 42.093 16.0972 42.0291 16.1805C41.9736 16.2499 41.9791 16.3111 41.9847 16.3666C41.9902 16.4277 41.9958 16.4861 41.9236 16.5527C41.8624 16.6138 41.868 16.6722 41.8736 16.7333C41.8791 16.7972 41.8847 16.8638 41.818 16.9333C41.7569 17.0027 41.7624 17.0583 41.768 17.1194C41.7736 17.1749 41.7819 17.2361 41.718 17.2999C41.6541 17.3638 41.6569 17.4305 41.6624 17.4944C41.668 17.5583 41.6736 17.6305 41.6069 17.6944C41.5458 17.7555 41.5513 17.8249 41.5569 17.8944C41.5624 17.9749 41.568 18.0555 41.4874 18.1361C41.418 18.2111 41.4263 18.2805 41.4374 18.3472C41.4486 18.4083 41.4569 18.4638 41.3986 18.5222C41.3347 18.5861 41.3374 18.6472 41.3374 18.7083C41.3374 18.7388 41.3374 18.7722 41.3263 18.7999C41.3763 18.7499 41.4013 18.6944 41.4263 18.6388C41.4569 18.5777 41.4819 18.5222 41.5319 18.4833C41.5874 18.4388 41.568 18.3888 41.5458 18.3333C41.5319 18.2944 41.5208 18.2527 41.5458 18.2222C41.5708 18.1972 41.5763 18.1416 41.5847 18.0722C41.5958 17.9777 41.6041 17.8722 41.6652 17.7999C41.7208 17.7388 41.7208 17.6555 41.7208 17.5638C41.7208 17.4833 41.7263 17.4027 41.7708 17.3638C41.8097 17.3277 41.8208 17.2527 41.8263 17.1777C41.8374 17.0861 41.8402 16.9972 41.9124 16.9527C41.9736 16.9138 41.968 16.8361 41.968 16.7611C41.9624 16.6916 41.9624 16.6194 42.0069 16.5694C42.0513 16.5194 42.0513 16.4527 42.0513 16.3833C42.0513 16.3138 42.0513 16.2388 42.1013 16.1666C42.1513 16.1027 42.1458 16.0361 42.1458 15.9722C42.1402 15.9166 42.1402 15.8666 42.1708 15.8222C42.1902 15.7916 42.2013 15.6222 42.1763 15.5805C42.1763 15.5805 42.1763 15.575 42.1708 15.575C42.1763 15.5888 42.168 15.5888 42.1486 15.6444Z" fill="black"/>
<path d="M42.0565 15.1748C42.0565 13.8554 42.2371 13.3998 42.9288 13.3998C43.6204 13.3998 43.801 13.8554 43.801 15.1748H42.0565Z" fill="#CE1126"/>
<path d="M43.8032 15.1779H42.0588C42.0533 15.1779 42.0533 15.1723 42.0533 15.1723C42.0533 13.8085 42.2588 13.3918 42.931 13.3918C43.6032 13.3918 43.8088 13.8085 43.8088 15.1723C43.806 15.1779 43.806 15.1779 43.8032 15.1779ZM42.0671 15.164H43.7977C43.7977 13.814 43.5977 13.4029 42.9338 13.4029C42.2727 13.4029 42.0671 13.814 42.0671 15.164Z" fill="black"/>
<path d="M42.0565 15.1748C42.0565 13.8554 42.2371 13.3998 42.9288 13.3998C42.6121 13.3998 42.4232 13.6443 42.3732 13.8054C42.3177 13.9721 42.3482 13.9554 42.4177 13.8971C42.4871 13.836 42.4565 13.9721 42.3927 14.0471C42.3371 14.1221 42.276 14.3443 42.3621 14.2721C42.4427 14.1971 42.5065 14.2776 42.4177 14.4026C42.326 14.5221 42.251 14.8082 42.3427 14.7082C42.4343 14.6082 42.4482 14.7721 42.3927 14.8526C42.3427 14.9332 42.3482 15.0082 42.3927 14.9721C42.4427 14.9332 42.4371 15.1026 42.3927 15.1721H42.0565V15.1748ZM43.2565 15.1471C43.2565 14.9526 43.2621 14.4943 43.1565 14.3443C43.0815 14.2248 43.0815 14.0998 43.1704 14.2387C43.2621 14.3804 43.301 14.3082 43.2399 14.1693C43.1649 13.9943 43.0649 13.7971 43.0899 13.7637C43.1204 13.7193 43.1399 13.7387 43.2065 13.8332C43.2704 13.9276 43.2815 13.7887 43.2121 13.6915C43.1427 13.5998 43.1482 13.586 43.2927 13.6471C43.5482 13.7526 43.6732 14.0637 43.6732 15.0971L43.2565 15.1471Z" fill="black"/>
<path d="M42.3927 15.1779H42.0621C42.0565 15.1779 42.0565 15.1723 42.0565 15.1723C42.0565 13.8085 42.2621 13.3918 42.9343 13.3918C42.9399 13.3918 42.9399 13.3973 42.9399 13.3973L42.9343 13.4029C42.6232 13.4029 42.4315 13.6473 42.3815 13.8029C42.3454 13.9085 42.351 13.9223 42.3565 13.9223C42.3621 13.9223 42.3704 13.9223 42.4177 13.8835C42.4371 13.864 42.4538 13.864 42.4621 13.8696C42.4871 13.889 42.4482 13.989 42.401 14.0446C42.3565 14.1057 42.3149 14.2501 42.3371 14.2696C42.3427 14.2751 42.351 14.2696 42.3621 14.2585C42.401 14.2196 42.4371 14.2223 42.4538 14.239C42.4788 14.264 42.4843 14.3196 42.4288 14.4001C42.3538 14.5057 42.2982 14.7001 42.3177 14.7168C42.3177 14.7168 42.3288 14.7168 42.3427 14.6973C42.3788 14.6585 42.4038 14.6585 42.4121 14.6723C42.4482 14.6973 42.4371 14.7973 42.401 14.8529C42.3649 14.914 42.3621 14.964 42.3704 14.9696C42.376 14.9751 42.3815 14.9696 42.3899 14.964C42.4038 14.9529 42.4149 14.9585 42.4204 14.964C42.451 14.989 42.4343 15.1196 42.401 15.1751C42.3927 15.1779 42.3927 15.1779 42.3927 15.1779ZM42.0677 15.164H42.3899C42.426 15.1029 42.4288 14.9946 42.4093 14.9723C42.4093 14.9723 42.4038 14.9668 42.3954 14.9723C42.376 14.9862 42.3649 14.9835 42.3593 14.9779C42.3399 14.964 42.3482 14.8973 42.3843 14.8418C42.4204 14.7862 42.4232 14.7001 42.3982 14.6807C42.3843 14.6668 42.3593 14.6918 42.3427 14.7057C42.3371 14.7168 42.3121 14.7362 42.2982 14.7251C42.2677 14.7001 42.3343 14.4835 42.4038 14.389C42.4482 14.3196 42.4538 14.264 42.4343 14.2473C42.4204 14.2335 42.3899 14.2418 42.3593 14.2668C42.3399 14.2807 42.3232 14.2862 42.3149 14.2779C42.2843 14.2473 42.3343 14.0918 42.3788 14.0335C42.4288 13.9779 42.4482 13.889 42.4399 13.8779C42.4399 13.8779 42.4288 13.8779 42.4149 13.8918C42.3704 13.9307 42.351 13.9418 42.3399 13.9307C42.326 13.9196 42.326 13.8946 42.3593 13.7946C42.3982 13.664 42.5343 13.4723 42.7593 13.4085C42.2315 13.4835 42.0677 13.9362 42.0677 15.164ZM43.2565 15.1529C43.2565 15.1529 43.251 15.1529 43.2565 15.1529C43.251 15.1473 43.251 15.1473 43.251 15.1473V15.1168C43.251 14.9112 43.251 14.489 43.151 14.3501C43.101 14.2751 43.0815 14.189 43.1065 14.1751C43.1204 14.164 43.1454 14.1862 43.176 14.2362C43.2149 14.3001 43.2454 14.3112 43.251 14.3057C43.2649 14.3001 43.2649 14.2501 43.2315 14.1696C43.2177 14.1307 43.1954 14.0835 43.176 14.0446C43.1065 13.8835 43.0593 13.7835 43.0815 13.7529C43.0927 13.7418 43.101 13.7279 43.1177 13.7279C43.1427 13.7279 43.1621 13.7585 43.2093 13.8223C43.2232 13.8418 43.2343 13.8529 43.2399 13.8529C43.2399 13.8529 43.2454 13.8529 43.2454 13.8473C43.2565 13.8223 43.2454 13.7529 43.2065 13.6973C43.1677 13.6473 43.1565 13.6279 43.1677 13.6112C43.1788 13.6001 43.2038 13.6001 43.2982 13.6418C43.5427 13.7418 43.6843 14.014 43.6843 15.0973C43.6843 15.1029 43.6788 15.1029 43.6788 15.1029L43.2565 15.1529ZM43.1093 14.1862C43.0982 14.1918 43.1093 14.2668 43.1593 14.3418C43.2593 14.4862 43.2593 14.914 43.2593 15.1196V15.1446L43.6593 15.0946C43.6593 14.0251 43.5177 13.7612 43.2843 13.6612C43.1899 13.6223 43.1732 13.6223 43.1677 13.6251C43.1677 13.6251 43.1621 13.639 43.2065 13.6946C43.2454 13.7501 43.2621 13.8307 43.251 13.8612C43.2454 13.8723 43.2399 13.8751 43.2371 13.8751C43.226 13.8751 43.2121 13.864 43.1927 13.839C43.1565 13.789 43.1315 13.7473 43.1177 13.7473C43.1121 13.7473 43.1038 13.7529 43.0927 13.7668C43.0788 13.7918 43.1315 13.9223 43.1871 14.0418C43.2065 14.0807 43.2232 14.1223 43.2427 14.1668C43.2788 14.2418 43.2815 14.3029 43.2565 14.3168C43.2371 14.3279 43.201 14.3029 43.1621 14.2418C43.126 14.1862 43.1149 14.1862 43.1093 14.1862Z" fill="black"/>
<path d="M42.9276 15.3583C42.6526 15.3583 42.3499 15.3139 42.1499 15.2333C41.9082 15.1389 41.8999 15.0583 41.9804 14.9583C42.0443 14.8833 42.1721 14.9278 42.2971 14.9833C42.4165 15.0333 42.7526 15.075 42.9304 15.075C43.1054 15.075 43.4471 15.0361 43.5637 14.9806C43.6887 14.9306 43.8137 14.8861 43.8804 14.9611C43.961 15.0611 43.9498 15.1417 43.711 15.2361C43.5054 15.3194 43.2054 15.3583 42.9276 15.3583Z" fill="#CE1126"/>
<path d="M42.9287 15.3694C42.6371 15.3694 42.3426 15.3194 42.1454 15.2444C42.0148 15.1944 41.9454 15.1389 41.9287 15.0833C41.9176 15.0444 41.9343 15.0028 41.9732 14.9583C42.0426 14.8778 42.1732 14.9278 42.2954 14.9833C42.4148 15.0333 42.7565 15.0694 42.9287 15.0694C43.101 15.0694 43.4398 15.0333 43.5621 14.975C43.6982 14.9194 43.8176 14.8805 43.8843 14.9611C43.9232 15.0111 43.9398 15.0528 43.9287 15.0861C43.9148 15.1416 43.8426 15.1917 43.7121 15.2472C43.5176 15.3194 43.2204 15.3694 42.9287 15.3694ZM42.076 14.9278C42.0398 14.9278 42.0121 14.9389 41.9843 14.9666C41.9482 15.0111 41.9343 15.0472 41.9454 15.0833C41.9593 15.1333 42.026 15.1833 42.151 15.2333C42.3426 15.3083 42.6371 15.3583 42.9232 15.3583C43.2093 15.3583 43.5093 15.3083 43.6954 15.2333C43.826 15.1833 43.8898 15.1333 43.901 15.0833C43.9121 15.0472 43.8954 15.0139 43.8621 14.9666C43.801 14.8972 43.6871 14.9361 43.5565 14.9861C43.4371 15.0416 43.0954 15.0805 42.9204 15.0805C42.751 15.0805 42.4037 15.0444 42.2843 14.9889C42.2065 14.9528 42.1315 14.9278 42.076 14.9278Z" fill="black"/>
</g>
<defs>
<clipPath id="clip0_93_17577">
<rect width="53.3333" height="30" fill="white" transform="translate(0.65625)"/>
</clipPath>
</defs>
</svg>
