<svg width="55" height="32" viewBox="0 0 55 32" fill="none" xmlns="http://www.w3.org/2000/svg">
<path d="M54.5388 2H0.797119V28.8694H54.5388V2Z" fill="#012169"/>
<path d="M0.797852 2L27.6673 15.4361L0.797852 2ZM27.6673 2L0.797852 15.4361L27.6673 2Z" fill="black"/>
<path d="M27.067 16.6362L14.2308 10.2167L1.39751 16.6362L0.19751 14.2362L11.2281 8.71672L0.19751 3.20005L1.39751 0.800049L14.2308 7.21672L27.067 0.800049L28.267 3.20005L17.2364 8.71672L28.267 14.2362L27.067 16.6362Z" fill="white"/>
<path d="M0.796631 2L27.6661 15.4361L0.796631 2ZM27.6661 2L0.796631 15.4361L27.6661 2Z" fill="black"/>
<path d="M27.2692 16.236L14.2303 9.71937L1.19419 16.236L0.396973 14.6333L12.2303 8.71659L0.396973 2.8027L1.19419 1.19714L14.2303 7.71381L27.2692 1.19714L28.0636 2.8027L16.2331 8.71659L28.0636 14.6333L27.2692 16.236Z" fill="#C8102E"/>
<path d="M0.797119 8.71667H29.9055H0.797119ZM14.2305 2V17.675V2Z" fill="black"/>
<path d="M16.4693 17.675H11.9916V10.9556H0.797119V6.47778H11.9916V2H16.4693V6.47778H29.9055V10.9556H16.4693V17.675Z" fill="white"/>
<path d="M0.797119 8.71667H29.9055H0.797119ZM14.2305 2V17.675V2Z" fill="black"/>
<path d="M15.5749 17.675H12.8888V10.0611H0.797119V7.375H12.8888V2H15.5749V7.375H29.9055V10.0611H15.5749V17.675Z" fill="#C8102E"/>
<path d="M0.797119 17H27.6666V2H54.536V32H0.797119V17Z" fill="#009CDE"/>
<path d="M27.4053 26.0417L28.8553 30.5112L25.0525 27.7501H29.758L25.9553 30.5112L27.4053 26.0417Z" fill="#FEDD00"/>
<path d="M35.897 24.7139L34.4415 29.1833L32.9915 24.7139L36.7942 27.475H32.0942L35.897 24.7139Z" fill="#FEDD00"/>
<path d="M35.897 18.6971L34.4415 23.1666L32.9915 18.6971L36.7942 21.4583H32.0942L35.897 18.6971Z" fill="#FEDD00"/>
<path d="M42.1109 23.1945L40.6553 27.6639L39.2053 23.1945L43.0081 25.9556H38.3081L42.1109 23.1945Z" fill="#FEDD00"/>
<path d="M42.1109 10.1056L40.6553 14.575L39.2053 10.1056L43.0081 12.8667H38.3081L42.1109 10.1056Z" fill="#FEDD00"/>
<path d="M44.7194 18.6L46.1694 23.0694L42.3694 20.3055H47.0694L43.2666 23.0666L44.7194 18.6Z" fill="#FEDD00"/>
<path d="M47.3336 8.31946L45.8836 12.7889L44.4336 8.31946L48.2364 11.0806H43.5364L47.3336 8.31946Z" fill="#FEDD00"/>
<path d="M49.9695 15.2194L51.4195 19.6888L47.6167 16.9277H52.3167L48.5139 19.6888L49.9695 15.2194Z" fill="#FEDD00"/>
<path d="M49.9695 3.67505L51.4195 8.14449L47.6167 5.38338H52.3167L48.5139 8.14449L49.9695 3.67505Z" fill="#FEDD00"/>
</svg>
