<svg width="54" height="30" viewBox="0 0 54 30" fill="none" xmlns="http://www.w3.org/2000/svg">
<g clip-path="url(#clip0_93_11328)">
<path d="M53.6576 0H0.324219V30H53.6576V0Z" fill="black"/>
<path d="M53.6576 5H0.324219V15H53.6576V5Z" fill="#FCDC04"/>
<path d="M53.6576 10H0.324219V15H53.6576V10Z" fill="#D90000"/>
<path d="M53.6576 20H0.324219V30H53.6576V20Z" fill="#FCDC04"/>
<path d="M53.6576 25H0.324219V30H53.6576V25Z" fill="#D90000"/>
<path d="M26.991 19.6751C29.5729 19.6751 31.666 17.582 31.666 15.0001C31.666 12.4182 29.5729 10.3251 26.991 10.3251C24.409 10.3251 22.316 12.4182 22.316 15.0001C22.316 17.582 24.409 19.6751 26.991 19.6751Z" fill="white"/>
<path d="M26.1654 11.4193L25.8598 10.8582C25.9737 10.7443 26.1737 10.6526 26.4904 10.6526C26.4904 10.6721 26.4598 11.2637 26.4598 11.2637L26.1654 11.4193Z" fill="#D90000"/>
<path d="M26.1542 11.4554L25.8292 10.8609L25.8431 10.8471C25.9819 10.7082 26.2069 10.6332 26.4875 10.6332H26.5125V10.6582C26.5125 10.6776 26.4819 11.2137 26.4819 11.2721V11.2859L26.1542 11.4554ZM25.8958 10.8637L26.1764 11.3832L26.4375 11.2471C26.4486 11.0415 26.4625 10.7609 26.4681 10.6776C26.2153 10.6859 26.0208 10.7443 25.8958 10.8637Z" fill="black"/>
<path d="M26.46 11.2693L26.5044 10.6554C26.5044 10.6554 27.135 10.6193 27.4738 11.0248C27.4794 11.0193 27.1377 11.5054 27.1377 11.5054L26.46 11.2693Z" fill="#FCDC04"/>
<path d="M27.1458 11.536L26.4347 11.2916L26.4791 10.6304H26.4986C26.5236 10.6304 27.143 10.5943 27.4875 11.011C27.5014 11.0221 27.5014 11.0221 27.3236 11.2804L27.1458 11.536ZM26.4847 11.2554L27.1236 11.4749C27.2375 11.311 27.393 11.086 27.4375 11.0304C27.143 10.6916 26.6375 10.6804 26.5236 10.6804L26.4847 11.2554Z" fill="black"/>
<path d="M27.1466 11.5003L27.4577 11.0198C27.6633 11.2392 27.7522 11.3892 27.7827 11.6253C27.7883 11.6309 27.2938 11.7448 27.2938 11.7392C27.2911 11.7392 27.1522 11.5059 27.1466 11.5003Z" fill="#D90000"/>
<path d="M27.28 11.7691L27.2606 11.7636V11.7497C27.2467 11.7191 27.13 11.5247 27.1217 11.5136L27.1078 11.4997L27.1217 11.4858L27.4467 10.9802L27.4661 11.0052C27.68 11.2302 27.7606 11.3858 27.7967 11.6163L27.8078 11.6275L27.7967 11.6386C27.7856 11.6691 27.2911 11.7691 27.28 11.7691ZM27.1772 11.4997C27.2078 11.5441 27.2772 11.6636 27.3078 11.7136C27.3772 11.6997 27.6772 11.6275 27.7578 11.608C27.7272 11.4025 27.6467 11.258 27.4633 11.058L27.1772 11.4997Z" fill="black"/>
<path d="M26.3213 19.4055C26.3213 19.4055 26.9018 18.7416 28.0268 18.8861C27.8574 18.6111 27.3074 18.6416 27.3074 18.6416C27.3074 18.6416 27.1379 17.3472 27.2713 17.2861C27.4074 17.2222 27.9657 17.2916 27.9657 17.2916C28.0407 17.2916 28.1657 17.0916 28.0657 16.9611C27.9657 16.8305 27.6657 16.3472 27.7907 16.2472C27.9102 16.1527 28.5768 16.3027 28.5768 16.3027L26.6963 13.8972C26.6963 13.8972 26.5074 12.9916 26.8852 12.5583C27.3491 12.1722 27.2991 11.7583 27.2852 11.7638C27.2213 11.3444 26.5852 11.0388 26.1491 11.4277C25.8935 11.7388 26.0629 11.9722 26.0629 11.9722C26.0629 11.9722 25.3935 12.1527 25.3685 12.2722C25.3435 12.3861 26.1241 12.2527 26.1241 12.2527L26.0491 12.7888C26.0491 12.7888 24.5296 14.1749 25.6935 15.3694C25.7046 15.3638 25.7296 15.3138 25.7296 15.3138C25.7296 15.3138 26.1407 15.8194 26.5685 15.9277C26.9741 16.3416 26.9324 16.2777 26.9324 16.2777C26.9324 16.2777 27.0129 16.9333 26.9379 17.0583C26.8379 17.0277 25.8018 16.9888 25.6518 17.0472C25.5129 17.0916 24.9824 17.0611 25.1157 17.9333C25.2157 17.6972 25.3046 17.4944 25.3046 17.4944C25.3046 17.4944 25.2907 17.8083 25.4157 17.9194C25.3963 17.5888 25.5352 17.3638 25.5352 17.3638C25.5352 17.3638 25.5602 17.7249 25.6407 17.7777C25.7213 17.8305 25.7213 17.1916 26.1602 17.2472C26.5991 17.3027 26.9213 17.2833 26.9213 17.2833C26.9213 17.2833 27.0713 18.5333 27.0213 18.6472C26.7018 18.5722 25.9407 18.6777 25.8907 18.8722C26.3352 18.8472 26.5463 18.8972 26.5463 18.8972C26.5463 18.8972 26.2102 19.2138 26.3213 19.4055Z" fill="black"/>
<path d="M26.3162 19.4442L26.2968 19.4136C26.1968 19.2497 26.4218 18.9997 26.5162 18.9081C26.4301 18.8942 26.2357 18.8719 25.9162 18.8942H25.8801L25.8912 18.8581C25.9468 18.6386 26.7051 18.5525 27.0273 18.6136C27.0468 18.4692 26.9773 17.7747 26.9218 17.3025C26.8412 17.3025 26.5523 17.3081 26.1829 17.2636C25.9023 17.2275 25.8134 17.5025 25.7579 17.6636C25.7329 17.7442 25.719 17.7831 25.6884 17.7942C25.6773 17.7997 25.6634 17.7942 25.6523 17.7886C25.5884 17.7442 25.5579 17.5581 25.5412 17.4386C25.5023 17.5275 25.4468 17.6942 25.4607 17.9025L25.4662 17.9636L25.4218 17.9247C25.3357 17.8497 25.3107 17.6997 25.3023 17.5942C25.2662 17.6803 25.2134 17.7997 25.1579 17.9303L25.1218 18.0108L25.1079 17.9247C24.9884 17.1386 25.4023 17.0636 25.5968 17.0303C25.6218 17.0247 25.6468 17.0192 25.6607 17.0164C25.8162 16.9553 26.7607 16.9914 26.9412 17.0219C26.9857 16.8969 26.9468 16.4664 26.9273 16.2858C26.8884 16.2608 26.7968 16.1719 26.5718 15.9414C26.1912 15.8414 25.8412 15.4525 25.7468 15.3469C25.7329 15.3719 25.7218 15.3775 25.7162 15.383L25.7023 15.3942L25.6884 15.3803C25.3773 15.0664 25.2329 14.7053 25.244 14.3164C25.269 13.5219 25.9634 12.8414 26.0384 12.7719L26.1079 12.2775C25.919 12.3136 25.444 12.383 25.369 12.308C25.3579 12.2969 25.3551 12.2775 25.3579 12.2636C25.3829 12.1497 25.8773 11.9997 26.044 11.9525C26.0051 11.8775 25.9329 11.6636 26.1495 11.408C26.3495 11.2219 26.6245 11.1719 26.8801 11.2636C27.1162 11.3497 27.2912 11.5386 27.3245 11.7497C27.344 11.7858 27.3801 12.1886 26.919 12.5692C26.569 12.9692 26.719 13.8053 26.7329 13.8803L28.6468 16.3358L28.5773 16.3219C28.3134 16.2608 27.8912 16.1969 27.8134 16.2608C27.8023 16.2719 27.7995 16.2803 27.794 16.2997C27.7801 16.4442 27.9995 16.8192 28.094 16.9386C28.144 17.0025 28.1495 17.0997 28.1079 17.1886C28.0773 17.2497 28.0273 17.3081 27.9718 17.3081C27.8107 17.2886 27.3912 17.2469 27.2857 17.2969C27.2162 17.3331 27.2551 17.9969 27.3357 18.6081C27.4468 18.6025 27.8968 18.6081 28.0551 18.8636L28.0801 18.9081L28.0301 18.9025C26.9301 18.7636 26.3495 19.4081 26.344 19.4164L26.3162 19.4442ZM26.1551 18.8386C26.4357 18.8386 26.5662 18.8747 26.5745 18.8747L26.619 18.8858L26.5829 18.9164C26.494 18.9969 26.2884 19.2164 26.3218 19.3553C26.4468 19.2303 27.0079 18.7442 27.9662 18.8442C27.7773 18.6303 27.3107 18.6553 27.3051 18.6553H27.2801L27.2745 18.6303C27.2357 18.3247 27.1134 17.3164 27.2495 17.2497C27.3884 17.1858 27.9357 17.2497 27.9607 17.2553C27.9801 17.2553 28.0218 17.2192 28.0468 17.1664C28.0607 17.1358 28.0968 17.0414 28.0412 16.9664C27.9718 16.8803 27.7107 16.4719 27.7301 16.2914C27.7357 16.2608 27.744 16.2358 27.7662 16.2164C27.8773 16.1303 28.3273 16.2108 28.5051 16.2525L26.6662 13.8969V13.8886C26.6551 13.8525 26.4773 12.9692 26.8607 12.5275C27.2468 12.208 27.2718 11.8719 27.2607 11.783H27.2551L27.2495 11.7525C27.219 11.558 27.0607 11.383 26.8357 11.3025C26.5968 11.2164 26.3468 11.2636 26.1607 11.433C25.9218 11.7219 26.0745 11.9386 26.0801 11.9442L26.0995 11.9747L26.0634 11.9858C25.744 12.0719 25.3995 12.1997 25.3829 12.2664C25.4134 12.3053 25.7829 12.2719 26.1079 12.2164L26.144 12.2108L26.0634 12.7914L26.0579 12.7969C26.0468 12.8025 25.2968 13.4969 25.2718 14.3108C25.2607 14.6803 25.3968 15.0164 25.6829 15.3164C25.6884 15.3053 25.694 15.2969 25.6968 15.2858L25.7162 15.2553L25.7412 15.2858C25.7468 15.2914 26.1523 15.7858 26.5662 15.8969H26.5718L26.5773 15.9025C26.8718 16.208 26.9273 16.2469 26.9384 16.2525L26.9273 16.2664L26.9468 16.2608L26.9579 16.2803L26.9523 16.2858C26.9662 16.3997 27.0273 16.9469 26.9523 17.0664L26.9412 17.0803L26.9218 17.0747C26.8218 17.0442 25.7968 17.0108 25.6523 17.0636C25.6329 17.0692 25.6079 17.0747 25.5829 17.0775C25.394 17.1136 25.0468 17.1775 25.1218 17.8275C25.2079 17.6275 25.2773 17.4664 25.2773 17.4664L25.3273 17.4775C25.3273 17.4831 25.3162 17.6969 25.3884 17.8275C25.3884 17.5386 25.5134 17.3414 25.519 17.3386L25.5579 17.2747L25.5634 17.3497C25.5745 17.4886 25.6079 17.6942 25.6523 17.7386C25.6634 17.7247 25.6773 17.6775 25.6884 17.6442C25.744 17.4803 25.844 17.1692 26.169 17.2081C26.6051 17.2581 26.9245 17.2442 26.9245 17.2442H26.9495L26.9551 17.2692C26.969 17.3997 27.1051 18.5303 27.0551 18.6497L27.044 18.6692L27.0245 18.6636C26.7245 18.5942 26.0634 18.6886 25.944 18.8331C26.0301 18.8386 26.1023 18.8386 26.1551 18.8386Z" fill="black"/>
<path d="M26.5024 12.5861C26.5024 12.5861 25.3968 13.8055 25.8718 14.7417C25.8968 14.6111 25.8857 14.5305 25.9024 14.5361C25.8774 14.5222 26.0385 14.6472 26.0274 14.6222C26.0329 14.5583 25.9774 14.4111 25.9774 14.4111C26.0274 14.4222 26.0774 14.4361 26.1274 14.4472C26.0968 14.3917 26.0662 14.3361 26.0412 14.2861C26.1107 14.2972 26.1801 14.3 26.2524 14.3111C26.2524 14.3111 26.1774 14.1111 26.2024 14.1111C26.2274 14.1111 26.3774 14.1222 26.3774 14.1222C26.0607 13.5555 26.3551 13.0861 26.5024 12.5861Z" fill="#9CA69C"/>
<path d="M25.8792 14.8138L25.8431 14.7499C25.3625 13.811 26.4625 12.5804 26.4792 12.5693L26.5236 12.5943C26.4931 12.6999 26.4598 12.7999 26.4236 12.8999C26.2848 13.2943 26.1542 13.6693 26.3986 14.111L26.4236 14.1499L26.3792 14.1443C26.3431 14.1388 26.2681 14.1332 26.2292 14.1332C26.2348 14.1693 26.2598 14.2388 26.2792 14.2971L26.2931 14.336L26.0875 14.311L26.1764 14.4804L26.0153 14.4415C26.0292 14.4915 26.0514 14.5665 26.0514 14.611L26.057 14.6249L26.0375 14.6388C26.0125 14.6527 25.9514 14.6082 25.9125 14.5749V14.5804C25.9125 14.6165 25.907 14.6693 25.8931 14.7415L25.8792 14.8138ZM26.4403 12.6943C26.2042 12.9832 25.5514 13.9054 25.8598 14.6499C25.8653 14.6193 25.8653 14.5999 25.8653 14.5804C25.8653 14.561 25.8653 14.5443 25.8709 14.536L25.8653 14.5304L25.8903 14.4943L25.9098 14.5082L25.9042 14.5193L25.9153 14.5138C25.9209 14.5193 25.9653 14.5527 25.9959 14.5749C25.9848 14.5193 25.9598 14.4443 25.9514 14.4138L25.9375 14.3693L26.0764 14.4054L25.9903 14.2499L26.2098 14.2749C26.1542 14.1193 26.1653 14.0999 26.1736 14.0888L26.1792 14.0777H26.1931C26.207 14.0777 26.2792 14.0832 26.3236 14.0888C26.0986 13.6443 26.2348 13.2527 26.3681 12.8777C26.3959 12.8193 26.4209 12.7554 26.4403 12.6943Z" fill="#9CA69C"/>
<path d="M26.8857 11.5359C26.8857 11.5359 26.9468 11.9554 26.7163 12.0804C26.6801 12.1054 26.5357 12.1554 26.5551 12.2415C26.5801 12.3554 26.644 12.3359 26.7357 12.3165C26.9774 12.2692 27.2524 11.7609 26.8857 11.5359Z" fill="#9CA69C"/>
<path d="M26.6405 12.3553C26.6211 12.3553 26.6016 12.3498 26.5849 12.3414C26.5599 12.3275 26.5405 12.297 26.5294 12.247C26.5099 12.1609 26.6044 12.1109 26.6655 12.0831C26.6794 12.0775 26.6905 12.0692 26.7016 12.0636C26.9155 11.9498 26.8627 11.5498 26.8627 11.5442L26.8572 11.4942L26.9016 11.5192C27.0516 11.6081 27.1155 11.7581 27.0822 11.9331C27.046 12.1275 26.8933 12.3136 26.7433 12.3386L26.7322 12.3442C26.696 12.3498 26.6711 12.3553 26.6405 12.3553ZM26.9155 11.5886C26.9266 11.7081 26.921 11.9998 26.7266 12.1025C26.721 12.1081 26.7072 12.1136 26.6905 12.122C26.6294 12.1525 26.5711 12.1859 26.5794 12.2331C26.5905 12.2692 26.5988 12.2886 26.6155 12.297C26.6349 12.3109 26.6766 12.3025 26.721 12.2914L26.7349 12.2859C26.8655 12.2609 27.0044 12.0914 27.0349 11.922C27.046 11.8386 27.0516 11.6942 26.9155 11.5886Z" fill="#9CA69C"/>
<path d="M26.3908 11.9889C26.4399 11.9889 26.4797 11.9491 26.4797 11.9C26.4797 11.8509 26.4399 11.8111 26.3908 11.8111C26.3417 11.8111 26.3019 11.8509 26.3019 11.9C26.3019 11.9491 26.3417 11.9889 26.3908 11.9889Z" fill="white"/>
<path d="M26.1211 12.25C26.06 12.3 25.7573 12.6139 26.0573 12.7361C26.3711 12.65 26.2878 12.5917 26.3572 12.5222C26.3545 12.375 26.1961 12.3389 26.1211 12.25Z" fill="#D90000"/>
<path d="M26.0551 12.7611L26.044 12.7555C25.9579 12.7194 25.9079 12.6694 25.8996 12.6C25.8746 12.45 26.0551 12.2639 26.0996 12.225L26.119 12.2111L26.1329 12.2305C26.1579 12.2611 26.1885 12.2805 26.2218 12.3055C26.2913 12.3555 26.3718 12.4111 26.3718 12.5194V12.5305L26.3663 12.5361C26.3524 12.55 26.3468 12.5666 26.3357 12.5861C26.3107 12.65 26.2746 12.6972 26.0551 12.7555V12.7611ZM26.1162 12.2861C26.0524 12.3472 25.9301 12.4916 25.9524 12.5972C25.9635 12.6472 25.9968 12.6833 26.0579 12.7083C26.2635 12.6528 26.2829 12.6083 26.2968 12.5694C26.3024 12.5555 26.3107 12.5333 26.3274 12.5139C26.3218 12.4389 26.2662 12.4 26.2024 12.3528C26.1718 12.3305 26.1412 12.3111 26.1162 12.2861Z" fill="black"/>
<path d="M26.7908 15.264C26.777 15.3334 26.7047 15.589 26.802 15.7834C27.0658 15.6723 27.1908 15.7029 27.2825 15.764C27.0603 15.589 26.9769 15.514 26.7908 15.264Z" fill="#9CA69C"/>
<path d="M26.7857 15.8194L26.7746 15.8C26.6802 15.6055 26.7385 15.3638 26.7607 15.275L26.7746 15.2111L26.8052 15.2555C26.9913 15.5055 27.0746 15.575 27.2913 15.75L27.2607 15.7888C27.1802 15.7333 27.0663 15.7027 26.8052 15.8138L26.7857 15.8194ZM26.8024 15.325C26.783 15.425 26.7524 15.6055 26.8135 15.7555C26.9635 15.6944 27.0691 15.6805 27.1496 15.6916C27.0163 15.5805 26.9357 15.5 26.8024 15.325Z" fill="#9CA69C"/>
<path d="M27.2468 16.475L27.2607 17.0695C27.2607 17.0695 27.4662 17.1056 27.5662 17.0695C27.6607 17.0306 27.5607 16.6556 27.2468 16.475Z" fill="white"/>
<path d="M27.4466 17.1112C27.3577 17.1112 27.266 17.0973 27.2604 17.0973L27.241 17.0918L27.2216 16.4307L27.2604 16.4501C27.5104 16.5946 27.6354 16.8696 27.6243 17.0057C27.6188 17.0668 27.5882 17.0862 27.5743 17.0918C27.541 17.1057 27.491 17.1112 27.4466 17.1112ZM27.2854 17.0446C27.341 17.0557 27.4854 17.0696 27.5549 17.0446C27.566 17.039 27.5688 17.0251 27.5743 17.0001C27.5854 16.8862 27.4799 16.6557 27.2743 16.514L27.2854 17.0446Z" fill="white"/>
<path d="M28.7523 16.5446C28.7523 16.5446 28.3662 15.6196 27.3911 15.3835C26.4106 15.1474 26.5411 14.1085 26.6217 14.0446C26.6661 13.9557 26.6967 13.8141 26.9773 13.9502C27.2578 14.0863 28.5578 14.7363 28.7412 14.7696C28.9273 14.8057 28.7662 16.5696 28.7523 16.5446Z" fill="#9CA69C"/>
<path d="M28.7457 16.5807L28.7318 16.5612C28.7263 16.5501 28.343 15.6473 27.3874 15.4168C26.8318 15.2862 26.6374 14.9057 26.5735 14.6112C26.5124 14.3501 26.5485 14.0918 26.5985 14.0362C26.6041 14.0307 26.6041 14.0251 26.6096 14.0168C26.6291 13.9668 26.6596 13.9057 26.7235 13.8807C26.7874 13.8557 26.8735 13.8695 26.9874 13.9251C27.0513 13.9557 27.1735 14.014 27.318 14.0862C27.7985 14.3223 28.6068 14.7168 28.7485 14.7418C28.7985 14.7529 28.8291 14.8279 28.843 14.9807C28.8791 15.3445 28.818 16.5418 28.7624 16.5668L28.7457 16.5807ZM26.7791 13.9195C26.7652 13.9195 26.743 13.9195 26.7346 13.9251C26.6902 13.939 26.6707 13.9862 26.6485 14.0307C26.643 14.0418 26.643 14.0445 26.6374 14.0557V14.0612L26.6318 14.0668C26.6068 14.0918 26.5513 14.3418 26.6263 14.6307C26.6957 14.8945 26.8818 15.2418 27.3957 15.3668C28.2152 15.5612 28.6263 16.2418 28.7402 16.4668C28.7763 16.1557 28.8596 14.9918 28.7513 14.8112C28.7457 14.8001 28.7374 14.7973 28.7374 14.7973C28.593 14.7723 27.8124 14.3918 27.2985 14.1362C27.1541 14.0668 27.0346 14.0057 26.968 13.9751C26.8902 13.939 26.8291 13.9195 26.7791 13.9195Z" fill="black"/>
<path d="M27.8219 15.3804C27.8081 15.3915 29.1331 16.161 28.7331 16.8249C29.1136 16.5749 28.9886 16.1387 28.9886 16.1387C28.9886 16.1387 29.2997 16.9443 28.5497 17.3332C28.6303 17.4026 28.6858 17.3887 28.6858 17.3887L28.5553 17.5193C28.5553 17.5193 28.4942 17.6137 28.9997 17.3693C28.8608 17.4804 28.8497 17.5582 28.8497 17.5582C28.8497 17.5582 28.8858 17.6637 29.2136 17.3776C28.9497 17.6637 28.8886 17.8138 28.8886 17.8082C29.6081 17.7443 31.1692 15.4082 28.3942 14.7193C28.5442 14.8748 28.5247 14.8554 28.5247 14.8554L27.8219 15.3804Z" fill="#D90000"/>
<path d="M28.8915 17.8392H28.886L28.8665 17.8336V17.7892H28.8776C28.9165 17.7197 28.9721 17.6392 29.0415 17.5503C28.9665 17.6003 28.9054 17.6142 28.8665 17.6058C28.836 17.5947 28.8276 17.5753 28.8276 17.5697V17.5642V17.5586C28.8276 17.5531 28.8387 17.5142 28.8832 17.4531C28.5776 17.5919 28.5526 17.5642 28.5387 17.5475C28.5276 17.5336 28.5276 17.5169 28.5332 17.5031L28.5387 17.4975L28.6276 17.4086C28.6026 17.3975 28.5721 17.3836 28.5332 17.3531L28.5026 17.3281L28.5332 17.3142C28.9943 17.0753 29.0471 16.6781 29.0221 16.4142C29.0026 16.5531 28.9332 16.7253 28.7471 16.8447L28.711 16.8086C28.8665 16.5531 28.8415 16.1086 27.8665 15.4392C27.8026 15.3947 27.7971 15.3947 27.8026 15.3781V15.3642L27.8137 15.3586L28.4943 14.8475C28.4804 14.8281 28.4443 14.7975 28.3832 14.7364L28.3221 14.6725L28.4082 14.6919C29.8832 15.0558 30.0443 15.8725 30.0082 16.3225C29.9471 17.0919 29.2887 17.7919 28.9026 17.8336C28.8971 17.8392 28.8915 17.8392 28.8915 17.8392ZM29.2026 17.3642L29.2387 17.4003C29.1082 17.5392 29.0026 17.6753 28.9443 17.7808C29.3193 17.6947 29.9054 17.0419 29.9582 16.3253C30.0137 15.5947 29.4943 15.0447 28.4776 14.7697C28.4971 14.7947 28.5165 14.8086 28.5276 14.8253L28.5415 14.8392C28.5554 14.8586 28.5526 14.8642 28.5471 14.8753L28.5276 14.8892L28.5221 14.8836L27.8609 15.3781C27.8721 15.3836 27.8804 15.3919 27.8915 15.3975C28.786 16.0169 28.9026 16.4586 28.7971 16.7364C29.0582 16.4975 28.9665 16.1558 28.961 16.1419L29.0054 16.1281C29.011 16.1392 29.3054 16.9336 28.586 17.3392C28.636 17.3697 28.6665 17.3642 28.6665 17.3642L28.7526 17.3447L28.5915 17.5086C28.6359 17.4975 28.7415 17.4642 28.9804 17.3475L29.0054 17.3864C28.9054 17.4669 28.8748 17.5253 28.8693 17.5503H28.8748C28.9054 17.5614 28.986 17.5503 29.2026 17.3642Z" fill="black"/>
<path d="M27.8796 15.1557C28.0601 15.2863 28.124 15.3252 28.1435 15.3919C27.9796 15.3557 27.8296 15.3669 27.8296 15.3669C27.8296 15.3669 27.474 15.028 27.4101 15.003C27.3601 15.003 27.0851 14.828 27.0851 14.828C26.9463 14.7585 26.8213 14.278 27.3296 14.4168C27.8546 14.6668 27.9296 14.6863 27.9296 14.6863C28.1407 14.7502 28.349 14.8168 28.5601 14.8807C28.6796 15.0169 28.799 15.1502 28.9212 15.2863C28.9212 15.2863 28.2768 14.9669 28.1962 14.9613C28.3712 15.1057 28.4712 15.3002 28.4712 15.3002C28.2712 15.2391 28.0962 15.1863 27.8796 15.1557Z" fill="white"/>
<path d="M28.1802 15.4195L28.1357 15.4084C27.9746 15.3723 27.8302 15.3834 27.8302 15.3834H27.819L27.8079 15.3723C27.6718 15.2417 27.4468 15.0362 27.3968 15.0112C27.3357 15.0001 27.1329 14.8723 27.0663 14.8306C26.9774 14.7862 26.8968 14.6001 26.9468 14.4751C26.9718 14.4056 27.0579 14.3056 27.3329 14.3751C27.8468 14.6195 27.9329 14.6445 27.9329 14.6445L28.5691 14.8445L28.9329 15.2556L28.9024 15.2945C28.7163 15.2056 28.4468 15.0751 28.2913 15.0084C28.4163 15.139 28.4802 15.2695 28.4857 15.2723L28.5107 15.3223L28.4163 15.2917C28.2607 15.2473 28.1274 15.2056 27.9718 15.1779C28.0913 15.264 28.1357 15.3028 28.1579 15.364L28.1802 15.4195ZM27.8857 15.3362C27.9357 15.3362 28.0107 15.3417 28.0968 15.3556C28.0663 15.3167 28.0024 15.2751 27.8913 15.1945L27.8663 15.1751L27.8857 15.1306C28.0802 15.1612 28.2413 15.2056 28.4246 15.2556C28.3857 15.1917 28.2996 15.0695 28.1857 14.9751L28.1246 14.9251L28.2052 14.9306C28.2691 14.9362 28.6302 15.1056 28.8191 15.2001L28.5496 14.8945L27.9302 14.7001C27.9246 14.7001 27.8496 14.6751 27.3246 14.4251C27.1496 14.3806 27.0385 14.4001 27.0052 14.4945C26.9663 14.6001 27.0413 14.7584 27.1052 14.789C27.2357 14.8751 27.3913 14.9584 27.419 14.964H27.4302C27.494 14.989 27.7913 15.2695 27.8496 15.3278C27.8524 15.3362 27.8663 15.3362 27.8857 15.3362Z" fill="black"/>
<path d="M25.3768 12.2942C25.3768 12.2942 25.9907 12.1442 26.0657 12.1637L25.3768 12.2942Z" fill="black"/>
<path d="M25.3804 12.3192L25.3693 12.2692C25.4749 12.2442 25.9943 12.1192 26.0749 12.1442L26.061 12.1942C26.0165 12.1804 25.6777 12.2498 25.3804 12.3192Z" fill="white"/>
</g>
<defs>
<clipPath id="clip0_93_11328">
<rect width="53.3333" height="30" fill="white" transform="translate(0.324219)"/>
</clipPath>
</defs>
</svg>
