<svg width="54" height="30" viewBox="0 0 54 30" fill="none" xmlns="http://www.w3.org/2000/svg">
<g clip-path="url(#clip0_93_17718)">
<path d="M0.319031 0H53.569V30H0.319031V0Z" fill="white"/>
<path d="M20.0717 3.33337H53.6522V6.66671H20.0717V3.33337Z" fill="#0038A8"/>
<path d="M20.0717 10H53.6522V13.3333H20.0717V10Z" fill="#0038A8"/>
<path d="M0.318359 16.6666H53.6517V20H0.318359V16.6666Z" fill="#0038A8"/>
<path d="M0.318359 23.3334H53.6517V26.6667H0.318359V23.3334Z" fill="#0038A8"/>
<path d="M9.5714 9.96112L10.1242 10.7861C7.85751 12.4278 9.24362 13.3944 7.63251 13.925C8.63251 12.95 7.49917 12.8 8.34084 10.7667" fill="#FCD116"/>
<path d="M7.42438 14.0473L7.5966 13.8806C8.07716 13.4084 8.04938 13.1556 7.99105 12.739C7.93827 12.3306 7.86604 11.7668 8.29105 10.7445L8.31049 10.6918L8.41049 10.7334L8.39105 10.7862C7.97716 11.7806 8.04938 12.3279 8.0966 12.7279C8.14382 13.1001 8.17716 13.3806 7.82993 13.789C8.35771 13.5612 8.43827 13.2501 8.54938 12.8473C8.68271 12.339 8.86882 11.6418 10.0438 10.7751L9.49105 9.95009L9.58271 9.88898L10.191 10.8029L10.1494 10.8362C8.96882 11.689 8.7966 12.3445 8.65493 12.8751C8.52993 13.3473 8.42993 13.7223 7.6466 13.9806L7.42438 14.0473Z" fill="#7B3F00"/>
<path d="M8.52683 9.21944L8.33517 10.1917C5.57406 9.74999 5.86295 11.4167 4.36017 10.65C5.75183 10.6694 5.08795 9.74999 7.12128 8.90833" fill="#FCD116"/>
<path d="M5.06038 10.9084C4.86038 10.9084 4.6326 10.8501 4.3326 10.7001L4.12427 10.5945L4.36316 10.6001C5.03816 10.6056 5.21038 10.3917 5.46871 10.0612C5.72982 9.7334 6.0826 9.28063 7.1076 8.85563L7.16038 8.83618L7.20204 8.93618L7.14927 8.95563C6.15482 9.36951 5.82149 9.78896 5.55482 10.1278C5.31593 10.4278 5.13538 10.6556 4.59649 10.7001C5.13538 10.914 5.41038 10.7528 5.77149 10.5417C6.22982 10.2751 6.85205 9.91396 8.29093 10.1334L8.4826 9.1584L8.59093 9.17785L8.37705 10.2584L8.32427 10.2501C6.88538 10.0223 6.29649 10.3584 5.82427 10.6362C5.57705 10.7806 5.3576 10.9084 5.06038 10.9084Z" fill="#7B3F00"/>
<path d="M8.52692 9.21929L8.09359 9.14429L8.09914 9.16373C6.93803 9.44984 6.30747 9.9304 5.81303 10.2971C5.56581 10.4776 5.35192 10.636 5.12136 10.7221C4.96859 10.7804 4.80192 10.7971 4.64081 10.7804C5.84081 11.2054 5.76025 9.78873 8.33525 10.1998L8.52692 9.21929Z" fill="#7B3F00"/>
<path d="M5.06049 10.8752C4.93271 10.8752 4.79382 10.8502 4.63271 10.7946L4.42438 10.7224L4.64382 10.7474C4.80216 10.7668 4.96327 10.7474 5.11049 10.6891C5.34382 10.6029 5.56327 10.4418 5.7966 10.2696L5.82993 10.2446C6.32438 9.87794 6.94382 9.4196 8.06327 9.13905L8.05494 9.10571L8.55494 9.19738L8.35494 10.2224L8.32994 10.2168C6.88271 9.98349 6.28827 10.3307 5.81049 10.6085C5.56049 10.7529 5.3466 10.8752 5.06049 10.8752ZM4.82716 10.8002C5.2216 10.8918 5.46605 10.7474 5.78549 10.5613C6.26605 10.2807 6.86049 9.93349 8.31327 10.1613L8.49383 9.23627L8.1216 9.1696V9.17516L8.0966 9.18071C6.96882 9.45571 6.34938 9.91405 5.85493 10.2807L5.8216 10.3057C5.58827 10.4807 5.36327 10.6446 5.1216 10.7307C5.03271 10.7724 4.93271 10.7946 4.82716 10.8002Z" fill="#7B3F00"/>
<path d="M4.75679 10.7807C4.62901 10.7807 4.49012 10.7557 4.33734 10.7057L4.37623 10.6001C4.9429 10.8001 5.27623 10.5529 5.78178 10.1807C6.26234 9.82233 6.92067 9.339 8.07345 9.05566L8.09845 9.16122C6.96512 9.43622 6.34567 9.90011 5.84567 10.2668C5.45678 10.5529 5.15123 10.7807 4.75679 10.7807Z" fill="#7B3F00"/>
<path d="M9.94602 8.33347L9.17102 7.55847L5.67102 12.6112L10.7294 9.11125L9.94602 8.33347L5.67102 12.6085L9.94602 8.33347Z" fill="#FCD116"/>
<path d="M5.45166 12.8279L9.15999 7.47235L10.8072 9.11957L5.45166 12.8279ZM9.9461 8.40846L6.13777 12.2196L10.6378 9.10568L9.9461 8.40846ZM9.17666 7.6418L6.06277 12.1418L9.8711 8.33346L9.17666 7.6418Z" fill="#7B3F00"/>
<path d="M8.31783 7.95848L7.49283 8.51126C5.85116 6.24459 4.8845 7.63071 4.35394 6.01959C5.32894 7.01959 5.48728 5.89181 7.52061 6.72793" fill="#FCD116"/>
<path d="M7.47894 8.58042L7.44561 8.53876C6.59283 7.3582 5.93727 7.18598 5.40672 7.04431C4.9345 6.91931 4.5595 6.81931 4.30116 6.03597L4.22894 5.81097L4.39561 5.9832C4.86783 6.46375 5.12061 6.43598 5.54283 6.3832C5.95672 6.33042 6.51783 6.2582 7.54283 6.6832L7.59561 6.70264L7.55394 6.80264L7.50116 6.7832C6.50672 6.36931 5.97616 6.43598 5.55394 6.48875C5.18172 6.53598 4.89561 6.56931 4.48728 6.22209C4.71505 6.74986 5.02616 6.83042 5.42894 6.94153C5.93727 7.07486 6.6345 7.26098 7.50116 8.43598L8.32616 7.8832L8.38727 7.97487L7.47894 8.58042Z" fill="#7B3F00"/>
<path d="M8.31786 7.95844L8.06509 7.59733L8.05675 7.61122C7.03175 6.99177 6.24842 6.88622 5.63731 6.79733C5.33175 6.75011 5.07064 6.71122 4.8512 6.60566C4.70398 6.539 4.57064 6.43344 4.47064 6.30566C5.01786 7.45289 5.96509 6.39733 7.49564 8.51122L8.31786 7.95844Z" fill="#7B3F00"/>
<path d="M7.48526 8.54164L7.47138 8.5222C6.61026 7.33053 5.94637 7.15553 5.41304 7.01664C5.00748 6.90831 4.68526 6.82497 4.44637 6.31664L4.35193 6.11664L4.49082 6.28886C4.59082 6.41386 4.7186 6.51386 4.86304 6.58053C5.08804 6.68608 5.35749 6.72775 5.6436 6.76664L5.68526 6.77219C6.2936 6.86386 7.05749 6.97775 8.04638 7.5722L8.06027 7.54442L8.35193 7.95831L7.48526 8.54164ZM4.58526 6.45831C4.80471 6.79997 5.07693 6.87219 5.43249 6.96664C5.97137 7.10831 6.63804 7.28608 7.50471 8.4722L8.28527 7.9472L8.07138 7.63886L8.06582 7.64442L8.04082 7.63053C7.04638 7.02497 6.28804 6.91664 5.67415 6.82497L5.63249 6.81942C5.34082 6.77775 5.07137 6.73331 4.83804 6.62775C4.74637 6.58053 4.66026 6.52775 4.58526 6.45831Z" fill="#7B3F00"/>
<path d="M8.05729 7.60828C7.05728 7.00272 6.29617 6.88883 5.68228 6.79994C5.04895 6.7055 4.59617 6.63883 4.31006 6.04161L4.41006 5.99438C4.66839 6.53605 5.07673 6.59994 5.70173 6.68883C6.29339 6.77494 7.10173 6.89716 8.11562 7.51383L8.05729 7.60828Z" fill="#7B3F00"/>
<path d="M9.94603 8.33315V7.23315L3.89325 8.33315L9.94048 9.43316V8.33315H3.89325" fill="#FCD116"/>
<path d="M10.0046 9.49996L3.5907 8.33329L10.0046 7.16663V9.49996ZM4.51014 8.39163L9.89625 9.37218V8.39163H4.51014ZM4.51014 8.27496H9.89625V7.2944L4.51014 8.27496Z" fill="#7B3F00"/>
<path d="M9.94542 8.33337V9.43337V8.33337H3.89819L9.94542 9.43337" fill="#7B3F00"/>
<path d="M9.05951 6.91386L8.08729 6.72219C8.52895 3.96108 6.86229 4.24997 7.62895 2.74719C7.60951 4.14164 8.57618 3.59441 9.42062 5.62219" fill="#FCD116"/>
<path d="M9.10378 6.98061L8.02323 6.76673L8.03156 6.71395C8.25934 5.27506 7.92323 4.68617 7.64545 4.21395C7.39823 3.78895 7.20656 3.45561 7.57878 2.7195L7.68434 2.51117L7.67879 2.75006C7.67045 3.43617 7.90379 3.62506 8.25101 3.92228C8.5899 4.20839 9.04545 4.5945 9.4649 5.60839L9.48434 5.66117L9.38434 5.70284L9.3649 5.65006C8.95934 4.65839 8.53156 4.29173 8.18434 4.00284C7.8649 3.73617 7.62601 3.53061 7.58434 2.98339C7.37045 3.52228 7.53156 3.79728 7.74267 4.15839C8.00934 4.61672 8.37045 5.23895 8.15101 6.67784L9.12601 6.8695L9.10378 6.98061Z" fill="#7B3F00"/>
<path d="M9.05992 6.91376L9.13492 6.48043L9.11547 6.48598C8.82936 5.32487 8.34881 4.69432 7.98214 4.19987C7.80159 3.95265 7.64326 3.73876 7.55714 3.5082C7.49881 3.35543 7.48214 3.18876 7.49881 3.02765C7.07381 4.22765 8.49047 4.14709 8.07936 6.72209L9.05992 6.91376Z" fill="#7B3F00"/>
<path d="M9.07943 6.94181L8.05443 6.74181L8.05999 6.71681C8.29332 5.26958 7.9461 4.67514 7.66832 4.19736C7.45999 3.83625 7.29332 3.55014 7.47666 3.01681L7.54888 2.80847L7.52388 3.02792C7.50443 3.18625 7.52388 3.34736 7.58221 3.49458C7.66832 3.72792 7.82943 3.94736 8.00166 4.18069L8.02665 4.21403C8.39332 4.70847 8.85165 5.32792 9.13221 6.44736L9.16554 6.43903L9.07943 6.94181ZM8.11832 6.70014L9.04332 6.8807L9.10999 6.50847H9.10443L9.09888 6.48347C8.82388 5.35569 8.36554 4.73625 7.99888 4.24181L7.97388 4.20847C7.79888 3.97514 7.63499 3.75014 7.54888 3.50847C7.51554 3.41403 7.49054 3.31403 7.48777 3.20847C7.3961 3.60292 7.54054 3.84736 7.72666 4.16681C7.99888 4.65292 8.34332 5.25292 8.11832 6.70014Z" fill="#7B3F00"/>
<path d="M9.12353 6.48068C8.84853 5.34735 8.38464 4.72791 8.01797 4.22791C7.63742 3.71402 7.35964 3.3418 7.58464 2.72235L7.69019 2.76124C7.49019 3.32791 7.73742 3.66124 8.10964 4.1668C8.46797 4.64735 8.95131 5.30568 9.23464 6.45846L9.12353 6.48068Z" fill="#7B3F00"/>
<path d="M9.94587 8.33348L10.7209 7.55848L5.66809 4.05847L9.16809 9.11681L9.94587 8.33348L5.67087 4.05847L9.94587 8.33348Z" fill="#FCD116"/>
<path d="M9.15999 9.19448L5.45166 3.83893L10.81 7.54726L9.15999 9.19448ZM6.05999 4.52504L9.17388 9.02504L9.86555 8.33337L6.05999 4.52504ZM6.13777 4.44726L9.94611 8.25559L10.6378 7.56393L6.13777 4.44726Z" fill="#7B3F00"/>
<path d="M9.94602 8.33348L9.17102 9.10848L9.94602 8.33348L5.67102 4.05847L9.17102 9.11681" fill="#7B3F00"/>
<path d="M10.3235 6.70553L9.77075 5.88053C12.0374 4.23886 10.6513 3.27219 12.2624 2.74164C11.2624 3.71664 12.3902 3.88053 11.5485 5.9083" fill="#FCD116"/>
<path d="M10.3099 6.78053L9.7016 5.86664L9.74327 5.8333C10.9238 4.98053 11.096 4.32497 11.2377 3.79442C11.3627 3.32219 11.4627 2.94719 12.246 2.68886L12.471 2.61664L12.2988 2.7833C11.8183 3.25553 11.846 3.51108 11.8988 3.93053C11.9516 4.34442 12.0183 4.90553 11.5933 5.93053L11.5738 5.9833L11.4738 5.94164L11.4933 5.88886C11.9072 4.89442 11.8405 4.36386 11.7877 3.94164C11.7405 3.56664 11.7072 3.2833 12.0544 2.87497C11.5266 3.10275 11.446 3.41386 11.3349 3.81664C11.2016 4.32497 11.0155 5.02219 9.84049 5.88886L10.3933 6.71386L10.3099 6.78053Z" fill="#7B3F00"/>
<path d="M10.3235 6.70538L10.6846 6.4526L10.6708 6.44427C11.2902 5.41927 11.3958 4.63593 11.4846 4.02482C11.5319 3.71927 11.5708 3.45815 11.6763 3.23871C11.743 3.09149 11.8485 2.95815 11.9763 2.85815C10.8291 3.40538 11.8846 4.3526 9.77075 5.88315L10.3235 6.70538Z" fill="#7B3F00"/>
<path d="M10.3191 6.73883L9.73853 5.87216L9.75797 5.85827C10.9496 4.99716 11.1246 4.33327 11.2635 3.79994C11.3719 3.39439 11.4552 3.07216 11.9635 2.83328L12.1635 2.73883L11.9913 2.87772C11.8663 2.97772 11.7663 3.1055 11.6996 3.24994C11.5941 3.47494 11.5524 3.74439 11.5135 4.0305L11.508 4.07216C11.4163 4.6805 11.3024 5.44439 10.708 6.43327L10.7357 6.44716L10.3191 6.73883ZM9.80519 5.88605L10.3302 6.66661L10.6385 6.45272L10.633 6.44716L10.6469 6.42216C11.2524 5.42772 11.3607 4.66939 11.4524 4.0555L11.458 4.01383C11.4996 3.72216 11.5441 3.45272 11.6496 3.21939C11.6913 3.12772 11.7496 3.03883 11.8163 2.96105C11.4746 3.1805 11.4024 3.45272 11.308 3.80827C11.1719 4.35272 10.9941 5.02494 9.80519 5.88605Z" fill="#7B3F00"/>
<path d="M10.7655 6.49989L10.671 6.44156C11.2766 5.44156 11.3905 4.68045 11.4794 4.06656C11.5738 3.43322 11.6405 2.98045 12.2377 2.69434L12.2849 2.79434C11.7432 3.05267 11.6794 3.461 11.5905 4.086C11.5044 4.67211 11.3849 5.48045 10.7655 6.49989Z" fill="#7B3F00"/>
<path d="M9.94564 8.3333H11.0456L9.94564 2.28607L8.84564 8.3333H9.94564V2.28607V8.3333Z" fill="#FCD116"/>
<path d="M11.1132 8.39179H8.77985L9.94651 1.97791L11.1132 8.39179ZM10.0048 8.27513H10.9854L10.0048 2.89457V8.27513ZM8.91318 8.27513H9.89374V2.89457L8.91318 8.27513Z" fill="#7B3F00"/>
<path d="M9.94564 8.3333H8.84564H9.94564V2.28607L8.84564 8.3333" fill="#7B3F00"/>
<path d="M11.366 7.44727L11.5576 6.47504C14.3187 6.91671 14.0299 5.25004 15.5326 6.01671C14.1382 5.99727 14.7576 6.92227 12.7271 7.76393" fill="#FCD116"/>
<path d="M12.6983 7.83891L12.6566 7.73891L12.7094 7.71947C13.7011 7.31114 14.0427 6.89169 14.3177 6.5528C14.5649 6.24725 14.7566 6.01947 15.2983 5.9778C14.7594 5.76391 14.4844 5.92502 14.1233 6.13614C13.6649 6.4028 13.0427 6.76391 11.6038 6.54447L11.4122 7.51947L11.3038 7.50002L11.5177 6.41947L11.5705 6.4278C13.0094 6.65558 13.5983 6.31947 14.0705 6.04169C14.4955 5.79447 14.8288 5.6028 15.5649 5.97503L15.7733 6.08058L15.5344 6.07502C14.8594 6.06669 14.6761 6.28336 14.4011 6.61669C14.1344 6.94447 13.7622 7.39725 12.7483 7.81669L12.6983 7.83891Z" fill="#7B3F00"/>
<path d="M11.366 7.44719L11.7993 7.52219L11.7937 7.50275C12.9549 7.21664 13.5854 6.73608 14.0799 6.36941C14.3271 6.18886 14.541 6.03052 14.7715 5.94441C14.9243 5.88608 15.091 5.86941 15.2521 5.88608C14.0521 5.46108 14.1326 6.87775 11.5576 6.46664L11.366 7.44719Z" fill="#7B3F00"/>
<path d="M11.8329 7.55849L11.3329 7.46682L11.5329 6.44182L11.5579 6.44738C13.0051 6.68071 13.5996 6.33349 14.0773 6.05571C14.4384 5.84738 14.7246 5.68071 15.2579 5.86405L15.4662 5.93627L15.2468 5.91127C15.0884 5.89182 14.9273 5.91127 14.7801 5.9696C14.5468 6.05571 14.3273 6.21682 14.094 6.38905L14.0607 6.41405C13.5662 6.78071 12.9468 7.23905 11.8273 7.5196L11.8329 7.55849ZM11.394 7.42793L11.7662 7.4946V7.48905L11.7912 7.48349C12.919 7.20849 13.5384 6.75016 14.0329 6.38349L14.0662 6.35849C14.2996 6.18349 14.5246 6.0196 14.7662 5.93349C14.8607 5.90016 14.9607 5.87516 15.0662 5.87238C14.6718 5.78071 14.4273 5.92516 14.1079 6.11127C13.6273 6.39182 13.0329 6.73905 11.5801 6.51127L11.394 7.42793Z" fill="#7B3F00"/>
<path d="M11.8243 7.61391L11.7993 7.50836C12.9326 7.23336 13.5521 6.76947 14.0521 6.4028C14.566 6.02224 14.9382 5.74447 15.5576 5.96947L15.5188 6.07502C14.9521 5.87502 14.6188 6.12224 14.1132 6.49447C13.6382 6.84724 12.9799 7.33336 11.8243 7.61391Z" fill="#7B3F00"/>
<path d="M9.94605 8.33338L10.7211 9.10838L14.2211 4.05005L9.16272 7.55005L9.94605 8.33338L14.2211 4.05838L9.94605 8.33338Z" fill="#FCD116"/>
<path d="M10.7321 9.19448L9.0849 7.54726L14.4432 3.83893L10.7321 9.19448ZM10.0238 8.33337L10.7155 9.02504L13.8349 4.52504L10.0238 8.33337ZM9.25712 7.56115L9.94879 8.25281L13.7571 4.44448L9.25712 7.56115Z" fill="#7B3F00"/>
<path d="M9.94605 8.33347L9.17105 7.55847L9.94605 8.33347L14.2211 4.05847L9.16272 7.55847" fill="#7B3F00"/>
<path d="M11.5766 8.70823L12.4016 8.15546C14.0433 10.4221 15.0099 9.03601 15.5405 10.6471C14.5655 9.64712 14.3822 10.7666 12.3488 9.92212" fill="#FCD116"/>
<path d="M15.6598 10.8584L15.4931 10.6862C15.0209 10.2 14.7459 10.2334 14.332 10.2806C13.9125 10.3278 13.3459 10.3945 12.3237 9.97226L12.2709 9.95282L12.3125 9.85282L12.3653 9.87226C13.3598 10.2862 13.8931 10.2195 14.3237 10.1723C14.7042 10.1306 14.9903 10.0973 15.4042 10.4445C15.1764 9.91671 14.8653 9.83615 14.4625 9.72504C13.9542 9.59171 13.257 9.4056 12.3903 8.2306L11.5653 8.78337L11.5042 8.69171L12.4181 8.08337L12.4514 8.12504C13.3042 9.3056 13.9598 9.47782 14.4903 9.61948C14.9625 9.74448 15.3375 9.84448 15.5959 10.6278L15.6598 10.8584Z" fill="#7B3F00"/>
<path d="M11.5766 8.70823L11.8294 9.06935L11.8377 9.05546C12.8627 9.6749 13.646 9.78046 14.2572 9.86935C14.5627 9.91657 14.8238 9.95546 15.0433 10.061C15.1905 10.1277 15.3238 10.2332 15.4238 10.361C14.8766 9.21379 13.9294 10.2693 12.3988 8.15546L11.5766 8.70823Z" fill="#7B3F00"/>
<path d="M15.5431 10.5529L15.4042 10.3807C15.3042 10.2557 15.1764 10.1557 15.032 10.089C14.807 9.98346 14.5375 9.94179 14.2514 9.9029L14.2098 9.89734C13.6014 9.80568 12.8375 9.69179 11.8486 9.09734L11.8348 9.12512L11.5431 8.71123L12.4098 8.13068L12.4236 8.15012C13.2848 9.34179 13.9486 9.51679 14.482 9.65568C14.8875 9.76401 15.2098 9.84734 15.4487 10.3557L15.5431 10.5529ZM11.8264 9.02512L11.8514 9.03901C12.8459 9.64457 13.6042 9.7529 14.2181 9.84457L14.2598 9.85012C14.5514 9.89179 14.8209 9.93623 15.0542 10.0418C15.1459 10.0835 15.2348 10.1418 15.3125 10.2085C15.0931 9.86679 14.8209 9.79457 14.4653 9.70012C13.9264 9.55846 13.2598 9.38068 12.3931 8.19456L11.6125 8.71957L11.8264 9.02512Z" fill="#7B3F00"/>
<path d="M15.4854 10.6724C15.2271 10.1307 14.8187 10.0668 14.1937 9.97792C13.6021 9.89181 12.7937 9.76958 11.7798 9.15292L11.8382 9.05847C12.8382 9.66403 13.5993 9.77792 14.2132 9.86681C14.8465 9.96125 15.2993 10.0279 15.5854 10.6251L15.4854 10.6724Z" fill="#7B3F00"/>
<path d="M9.94666 8.33315V9.43316L15.9939 8.33315L9.94666 7.23315V8.33315H15.9939Z" fill="#FCD116"/>
<path d="M9.89081 9.49996V7.16663L16.3047 8.33329L9.89081 9.49996ZM10.0047 8.39163V9.37218L15.3908 8.39163H10.0047ZM10.0047 8.27496H15.3908L10.0047 7.2944V8.27496Z" fill="#7B3F00"/>
<path d="M9.94666 8.33315V7.23315V8.33315H15.9939L9.94666 7.23315" fill="#7B3F00"/>
<path d="M10.8319 9.75281L11.8041 9.94447C11.3624 12.7056 13.0291 12.4167 12.2624 13.9195C12.2819 12.525 11.3624 13.1723 10.5208 11.1389" fill="#FCD116"/>
<path d="M12.2044 14.1582L12.2099 13.9193C12.2183 13.2443 12.0016 13.0666 11.671 12.8054C11.3433 12.5443 10.8905 12.1804 10.471 11.1638L10.4516 11.111L10.5516 11.0693L10.571 11.1221C10.9794 12.1166 11.4044 12.4499 11.7377 12.7221C12.0377 12.9638 12.2655 13.1471 12.3099 13.6888C12.5238 13.1499 12.3627 12.8749 12.1516 12.5138C11.8849 12.0554 11.5238 11.4332 11.7433 9.99434L10.7683 9.80267L10.7877 9.69434L11.8683 9.90823L11.8599 9.961C11.6322 11.3999 11.9683 11.9888 12.246 12.461C12.4933 12.886 12.6849 13.2193 12.3127 13.9554L12.2044 14.1582Z" fill="#7B3F00"/>
<path d="M10.8325 9.75281L10.7575 10.1861L10.777 10.1806C11.0631 11.3417 11.5436 11.9723 11.9103 12.4667C12.0908 12.7139 12.2492 12.9278 12.3353 13.1584C12.3936 13.3111 12.4103 13.4778 12.3936 13.6389C12.8186 12.4389 11.402 12.5195 11.8131 9.94447L10.8325 9.75281Z" fill="#7B3F00"/>
<path d="M12.3324 13.8582L12.3574 13.6388C12.3768 13.4804 12.3574 13.3193 12.299 13.1721C12.2129 12.9388 12.0518 12.7193 11.8796 12.486L11.8546 12.4527C11.4879 11.9582 11.0296 11.3388 10.749 10.2193L10.7157 10.2277L10.8074 9.72766L11.8324 9.92766L11.8268 9.95266C11.5935 11.3999 11.9407 11.9943 12.2185 12.4721C12.4268 12.8332 12.5935 13.1193 12.4101 13.6527L12.3324 13.8582ZM10.7907 10.1527L10.7963 10.1777C11.0713 11.3054 11.5296 11.9249 11.8963 12.4193L11.9213 12.4527C12.0963 12.686 12.2601 12.911 12.3463 13.1527C12.3796 13.2471 12.4046 13.3471 12.4074 13.4527C12.499 13.0582 12.3546 12.8138 12.1685 12.4943C11.8879 12.0138 11.5407 11.4193 11.7685 9.96655L10.8435 9.78599L10.7768 10.1582L10.7907 10.1527Z" fill="#7B3F00"/>
<path d="M12.3127 13.9418L12.2072 13.9029C12.4072 13.3362 12.1599 13.0029 11.7877 12.4973C11.4294 12.0168 10.9461 11.3584 10.6627 10.2057L10.7683 10.1807C11.0433 11.314 11.5072 11.9334 11.8738 12.4334C12.2599 12.9473 12.5322 13.3196 12.3127 13.9418Z" fill="#7B3F00"/>
<path d="M9.94602 8.33338L9.17102 9.10838L14.2294 12.6084L10.7294 7.55005L9.94602 8.33338L14.221 12.6084L9.94602 8.33338Z" fill="#FCD116"/>
<path d="M14.4432 12.8279L9.0849 9.11957L10.7321 7.47235L14.4432 12.8279ZM9.25712 9.10568L13.7571 12.2196L9.94601 8.40846L9.25712 9.10568ZM10.0238 8.33346L13.8321 12.1418L10.7182 7.6418L10.0238 8.33346Z" fill="#7B3F00"/>
<path d="M9.94666 8.33338L10.7217 7.55838L9.94666 8.33338L14.2216 12.6084L10.7217 7.55005" fill="#7B3F00"/>
<path d="M9.57087 9.96112L9.20976 10.2139L9.22365 10.2222C8.6042 11.2472 8.49865 12.0306 8.40976 12.6417C8.36253 12.9472 8.32365 13.2083 8.21809 13.4278C8.15142 13.575 8.04587 13.7083 7.91809 13.8083C9.06531 13.2611 8.00976 12.3139 10.1236 10.7833L9.57087 9.96112Z" fill="#7B3F00"/>
<path d="M7.72693 13.9278L7.89915 13.7889C8.02415 13.6889 8.12415 13.5611 8.19082 13.4167C8.29637 13.1917 8.33804 12.9222 8.37693 12.6361L8.38248 12.5945C8.47415 11.9861 8.58804 11.2222 9.18249 10.2334L9.15471 10.2195L9.5686 9.9278L10.1492 10.7945L10.1408 10.8083C8.94915 11.6695 8.77415 12.3333 8.63526 12.8667C8.52693 13.2722 8.4436 13.5945 7.93526 13.8333L7.72693 13.9278ZM9.25193 10.2139L9.2436 10.2389C8.63804 11.2333 8.52971 11.9917 8.43804 12.6056L8.43248 12.6472C8.39082 12.9389 8.34637 13.2083 8.24082 13.4417C8.19915 13.5333 8.14082 13.6222 8.07415 13.7C8.41582 13.4806 8.48804 13.2083 8.58248 12.8528C8.72415 12.3139 8.90193 11.6472 10.088 10.7806L9.56582 10L9.25193 10.2139Z" fill="#7B3F00"/>
<path d="M7.65739 13.9722L7.61017 13.8722C8.15183 13.6139 8.21572 13.2055 8.30461 12.5805C8.39072 11.9888 8.51295 11.1805 9.12961 10.1666L9.22406 10.225C8.6185 11.225 8.50461 11.9861 8.41572 12.6C8.3185 13.2333 8.25183 13.6916 7.65739 13.9722Z" fill="#7B3F00"/>
<path d="M9.94564 8.33337H8.84564L9.94564 14.3806L11.0456 8.33337H9.94564V14.3806V8.33337Z" fill="#FCD116"/>
<path d="M9.94651 14.6915L8.77985 8.27765H11.1132L9.94651 14.6915ZM10.0048 8.39154V13.7776L10.9854 8.39154H10.0048ZM8.91318 8.39154L9.89374 13.7776V8.39154H8.91318Z" fill="#7B3F00"/>
<path d="M9.94666 8.33337H11.0467H9.94666V14.3806L11.0467 8.33337" fill="#7B3F00"/>
<path d="M9.94602 8.33337L10.721 9.10837L9.94602 8.33337L5.67102 12.6084L10.7294 9.10837" fill="#7B3F00"/>
<path d="M9.94651 10.3471C11.0587 10.3471 11.9604 9.44546 11.9604 8.33322C11.9604 7.22098 11.0587 6.31934 9.94651 6.31934C8.83427 6.31934 7.93262 7.22098 7.93262 8.33322C7.93262 9.44546 8.83427 10.3471 9.94651 10.3471Z" fill="#FCD116"/>
<path d="M9.94649 10.4056C8.80482 10.4056 7.87427 9.47784 7.87427 8.33339C7.87427 7.18895 8.80205 6.26117 9.94649 6.26117C11.0909 6.26117 12.0187 7.18895 12.0187 8.33339C12.0187 9.47784 11.0909 10.4056 9.94649 10.4056ZM9.94649 6.37228C8.86593 6.37228 7.98538 7.25284 7.98538 8.33339C7.98538 9.41395 8.86593 10.2945 9.94649 10.2945C11.027 10.2945 11.9076 9.41395 11.9076 8.33339C11.9076 7.25284 11.027 6.37228 9.94649 6.37228Z" fill="#7B3F00"/>
<path d="M11.4328 7.52774C11.305 7.67497 11.2328 7.41941 10.7717 7.41941C10.3133 7.41941 10.2383 7.69441 10.1661 7.63886C10.0939 7.58052 10.5522 7.25274 10.6994 7.2333C10.8467 7.21385 11.2661 7.36108 11.4328 7.52774ZM10.8994 7.69163C11.0272 7.79997 10.9189 8.03886 10.7911 8.03886C10.6633 8.03886 10.4244 7.81941 10.5328 7.67219" fill="#7B3F00"/>
<path d="M10.2931 7.85843C10.3125 7.63899 10.4931 7.6001 10.7875 7.6001C11.082 7.6001 11.2125 7.81954 11.3209 7.87509C11.1931 7.87509 11.082 7.69454 10.7875 7.69454C10.4931 7.69454 10.4931 7.69454 10.2931 7.87509V7.85843ZM10.3514 7.90843C10.4236 7.8001 10.5181 8.01676 10.7181 8.01676C10.9181 8.01676 11.0264 7.95843 11.157 7.86954C11.2848 7.77787 10.9709 8.08898 10.7709 8.08898C10.5709 8.09176 10.2931 7.98621 10.3514 7.90843Z" fill="#7B3F00"/>
<path d="M8.91775 7.6723C8.82608 7.71119 8.67886 7.89175 8.91775 8.01952C8.73719 7.89452 8.88442 7.70841 8.91775 7.6723Z" fill="#7B3F00"/>
<path d="M10.9769 7.6723C11.0158 7.71119 11.163 7.89175 10.9769 8.01952C11.213 7.89452 11.0658 7.70841 10.9769 7.6723Z" fill="#7B3F00"/>
<path d="M9.652 8.46118C9.48533 8.50007 9.54367 8.73618 9.39367 8.75563C9.24644 8.77507 9.17422 8.93618 9.19367 8.9223C9.28533 8.85007 9.48811 8.79452 9.63255 8.79452C9.777 8.79452 9.81311 8.88618 9.94089 8.88618C10.0687 8.88618 10.1076 8.79452 10.2492 8.79452C10.3909 8.79452 10.5964 8.85285 10.6881 8.9223C10.7076 8.94174 10.6298 8.77507 10.4881 8.75563C10.3409 8.73618 10.3964 8.49729 10.2298 8.46118C10.2298 8.5334 10.2881 8.51952 10.302 8.62785C10.302 8.71952 10.1353 8.71952 10.102 8.62785C10.1409 8.77507 10.0298 8.77507 9.93533 8.77507C9.84367 8.77507 9.73533 8.77507 9.76867 8.62785C9.72978 8.71952 9.56867 8.71952 9.56867 8.62785C9.59922 8.51952 9.652 8.5334 9.652 8.46118Z" fill="#7B3F00"/>
<path d="M9.08544 9.08618C8.93822 9.19451 8.90488 9.25285 8.88544 9.38062C8.9271 9.30562 8.9521 9.27229 8.98544 9.22785C8.9771 9.22229 8.97155 9.21951 8.96044 9.21951C8.96877 9.21951 8.97988 9.22507 8.98822 9.22507C9.01044 9.18618 9.0271 9.16118 9.08544 9.08618Z" fill="#7B3F00"/>
<path d="M8.99104 9.21954C8.98549 9.21954 8.98549 9.21954 8.99104 9.21954C9.01049 9.22788 9.03271 9.22788 9.06327 9.22788C9.03827 9.2251 9.01327 9.21954 8.99104 9.21954Z" fill="#7B3F00"/>
<path d="M9.05762 9.22784C9.17151 9.24729 9.26317 9.27506 9.34373 9.30006C9.44928 9.29173 9.5854 9.26673 9.94928 9.26673C10.3104 9.26673 10.4493 9.29173 10.5548 9.30006C10.6354 9.27229 10.7271 9.24729 10.841 9.22784C10.641 9.22784 10.3687 9.08618 10.2465 9.08618C10.0993 9.08618 10.0604 9.12507 9.95206 9.12507C9.84373 9.12507 9.80484 9.08618 9.65762 9.08618C9.52706 9.08618 9.26039 9.22784 9.05762 9.22784Z" fill="#7B3F00"/>
<path d="M10.8374 9.22781C10.8624 9.22781 10.8846 9.22226 10.9096 9.21948V9.21393C10.8791 9.21948 10.8568 9.22504 10.8374 9.22781Z" fill="#7B3F00"/>
<path d="M10.9048 9.21939C10.9132 9.21939 10.9243 9.21384 10.9326 9.21384C10.9243 9.2194 10.9132 9.22217 10.9076 9.22217C10.941 9.2694 10.9659 9.29717 11.0076 9.37495C10.9882 9.24717 10.9493 9.18884 10.8076 9.08051C10.866 9.16106 10.8854 9.18606 10.9048 9.21939Z" fill="#7B3F00"/>
<path d="M10.9123 9.2251C10.9095 9.2251 10.9095 9.2251 10.9123 9.2251C10.7206 9.29732 10.6512 9.31121 10.5512 9.3001C10.3762 9.35843 10.2317 9.41399 9.94561 9.41399C9.6595 9.41399 9.51783 9.35565 9.34005 9.3001C9.24005 9.30843 9.16783 9.29454 8.97894 9.21954C9.55394 9.46677 9.49283 9.55843 9.94561 9.55843C10.3984 9.55843 10.3373 9.47232 10.9123 9.2251Z" fill="#7B3F00"/>
<path d="M8.98566 9.22501C8.98566 9.22501 8.98566 9.21945 8.98566 9.22501C8.97733 9.21945 8.96622 9.21945 8.95789 9.21667C8.96622 9.21945 8.97733 9.21945 8.98566 9.22501Z" fill="#7B3F00"/>
<path d="M10.9098 9.22484C10.9181 9.21928 10.9237 9.21928 10.9376 9.2165C10.9265 9.21372 10.9181 9.21928 10.9098 9.22484Z" fill="#7B3F00"/>
<path d="M8.4599 7.52774C8.58768 7.67497 8.6599 7.41941 9.12101 7.41941C9.58212 7.41941 9.65434 7.69441 9.72656 7.63886C9.79879 7.58052 9.34045 7.25274 9.19323 7.2333C9.04601 7.21385 8.62657 7.36108 8.4599 7.52774ZM8.99323 7.69163C8.86545 7.79997 8.97379 8.03886 9.10157 8.03886C9.22934 8.03886 9.46823 7.81941 9.3599 7.67219" fill="#7B3F00"/>
<path d="M9.59943 7.85843C9.57999 7.63899 9.39943 7.6001 9.10499 7.6001C8.81054 7.6001 8.67999 7.81954 8.57166 7.87509C8.69943 7.87509 8.81054 7.68898 9.10499 7.68898C9.39943 7.68898 9.39943 7.68898 9.59943 7.87509V7.85843ZM9.54388 7.90843C9.47166 7.80009 9.37721 8.01676 9.17721 8.01676C8.97721 8.01676 8.86888 7.95842 8.73832 7.86954C8.61054 7.77787 8.91888 8.08898 9.12443 8.08898C9.32999 8.08898 9.59943 7.9862 9.54388 7.90843Z" fill="#7B3F00"/>
<path d="M9.94555 9.72766C9.85388 9.72766 9.61777 9.78599 9.94555 9.78599C10.2761 9.78044 10.0372 9.72766 9.94555 9.72766Z" fill="#7B3F00"/>
</g>
<defs>
<clipPath id="clip0_93_17718">
<rect width="53.3333" height="30" fill="white" transform="translate(0.318359)"/>
</clipPath>
</defs>
</svg>
