<svg width="54" height="30" viewBox="0 0 54 30" fill="none" xmlns="http://www.w3.org/2000/svg">
<g clip-path="url(#clip0_93_9436)">
<path d="M0.658203 0H60.6582V30H0.658203V0Z" fill="#1EB53A"/>
<path d="M0.658203 0H60.6582V15H0.658203V0Z" fill="#0099B5"/>
<path d="M0.658203 9.60004H60.6582V20.4H0.658203V9.60004Z" fill="#CE1126"/>
<path d="M0.658203 10.1998H60.6582V19.7998H0.658203V10.1998Z" fill="white"/>
<path d="M9.05807 8.39983C11.0463 8.39983 12.6581 6.78805 12.6581 4.79983C12.6581 2.8116 11.0463 1.19983 9.05807 1.19983C7.06984 1.19983 5.45807 2.8116 5.45807 4.79983C5.45807 6.78805 7.06984 8.39983 9.05807 8.39983Z" fill="white"/>
<path d="M10.2582 8.39983C12.2464 8.39983 13.8582 6.78805 13.8582 4.79983C13.8582 2.8116 12.2464 1.19983 10.2582 1.19983C8.26998 1.19983 6.6582 2.8116 6.6582 4.79983C6.6582 6.78805 8.26998 8.39983 10.2582 8.39983Z" fill="#0099B5"/>
<path d="M16.9781 6.96112L16.7559 7.64445L17.0976 7.75834" fill="white"/>
<path d="M16.9778 6.96112L17.2 7.64445L16.8583 7.75834" fill="white"/>
<path d="M17.6615 7.45831H16.942V7.81942" fill="white"/>
<path d="M17.6608 7.45831L17.0775 7.88331L16.8664 7.58887" fill="white"/>
<path d="M16.2944 7.45831L16.8777 7.88331L17.0888 7.58887" fill="white"/>
<path d="M16.2944 7.45831H17.0138V7.81942" fill="white"/>
<path d="M17.405 8.26128L17.1828 7.57794L16.8411 7.69183" fill="white"/>
<path d="M17.405 8.26113L16.8217 7.83613L17.0328 7.54169" fill="white"/>
<path d="M16.5524 8.26113L17.1358 7.83613L16.9247 7.54169" fill="white"/>
<path d="M16.5524 8.26128L16.7747 7.57794L17.1163 7.69183" fill="white"/>
<path d="M16.9781 4.08063L16.7559 4.76396L17.0976 4.87785" fill="white"/>
<path d="M16.9778 4.08063L17.2 4.76396L16.8583 4.87785" fill="white"/>
<path d="M17.6615 4.57782H16.942V4.93893" fill="white"/>
<path d="M17.6608 4.57782L17.0775 5.00282L16.8664 4.70837" fill="white"/>
<path d="M16.2944 4.57782L16.8777 5.00282L17.0888 4.70837" fill="white"/>
<path d="M16.2944 4.57782H17.0138V4.93893" fill="white"/>
<path d="M17.405 5.38316L17.1828 4.69983L16.8411 4.81372" fill="white"/>
<path d="M17.405 5.38339L16.8217 4.95839L17.0328 4.66394" fill="white"/>
<path d="M16.5524 5.38339L17.1358 4.95839L16.9247 4.66394" fill="white"/>
<path d="M16.9781 1.19983L16.7559 1.88316L17.0976 1.99705" fill="white"/>
<path d="M16.9778 1.19983L17.2 1.88316L16.8583 1.99705" fill="white"/>
<path d="M17.6615 1.69745H16.942V2.05856" fill="white"/>
<path d="M17.6608 1.69745L17.0775 2.12245L16.8664 1.828" fill="white"/>
<path d="M16.2944 1.69745L16.8777 2.12245L17.0888 1.828" fill="white"/>
<path d="M16.2944 1.69745H17.0138V2.05856" fill="white"/>
<path d="M17.405 2.50267L17.1828 1.81934L16.8411 1.93322" fill="white"/>
<path d="M17.405 2.50289L16.8217 2.07789L17.0328 1.78345" fill="white"/>
<path d="M16.5524 2.50289L17.1358 2.07789L16.9247 1.78345" fill="white"/>
<path d="M19.8578 6.96112L19.6356 7.64445L19.9773 7.75834" fill="white"/>
<path d="M19.858 6.96112L20.0802 7.64445L19.7385 7.75834" fill="white"/>
<path d="M20.5411 7.45831H19.8217V7.81942" fill="white"/>
<path d="M20.541 7.45831L19.9577 7.88331L19.7466 7.58887" fill="white"/>
<path d="M19.1743 7.45831L19.7577 7.88331L19.9688 7.58887" fill="white"/>
<path d="M19.1743 7.45831H19.8938V7.81942" fill="white"/>
<path d="M20.2832 8.26128L20.061 7.57794L19.7193 7.69183" fill="white"/>
<path d="M20.2833 8.26113L19.7 7.83613L19.9111 7.54169" fill="white"/>
<path d="M19.4326 8.26113L20.016 7.83613L19.8048 7.54169" fill="white"/>
<path d="M19.8578 4.08063L19.6356 4.76396L19.9773 4.87785" fill="white"/>
<path d="M19.858 4.08063L20.0802 4.76396L19.7385 4.87785" fill="white"/>
<path d="M20.5411 4.57782H19.8217V4.93893" fill="white"/>
<path d="M19.1743 4.57782L19.7577 5.00282L19.9688 4.70837" fill="white"/>
<path d="M19.1743 4.57782H19.8938V4.93893" fill="white"/>
<path d="M20.2832 5.38316L20.061 4.69983L19.7193 4.81372" fill="white"/>
<path d="M19.4326 5.38339L20.016 4.95839L19.8048 4.66394" fill="white"/>
<path d="M19.8578 1.19983L19.6356 1.88316L19.9773 1.99705" fill="white"/>
<path d="M19.858 1.19983L20.0802 1.88316L19.7385 1.99705" fill="white"/>
<path d="M20.5411 1.69745H19.8217V2.05856" fill="white"/>
<path d="M19.1743 1.69745L19.7577 2.12245L19.9688 1.828" fill="white"/>
<path d="M19.1743 1.69745H19.8938V2.05856" fill="white"/>
<path d="M20.2832 2.50267L20.061 1.81934L19.7193 1.93322" fill="white"/>
<path d="M19.4326 2.50289L20.016 2.07789L19.8048 1.78345" fill="white"/>
<path d="M22.7393 6.96112L22.5171 7.64445L22.8588 7.75834" fill="white"/>
<path d="M22.7392 6.96112L22.9614 7.64445L22.6198 7.75834" fill="white"/>
<path d="M23.4223 7.45831H22.7029V7.81942" fill="white"/>
<path d="M23.4225 7.45831L22.8392 7.88331L22.6281 7.58887" fill="white"/>
<path d="M22.0558 7.45831L22.6391 7.88331L22.8502 7.58887" fill="white"/>
<path d="M22.0558 7.45831H22.7752V7.81942" fill="white"/>
<path d="M23.1642 8.26128L22.9419 7.57794L22.6003 7.69183" fill="white"/>
<path d="M23.1644 8.26113L22.5811 7.83613L22.7922 7.54169" fill="white"/>
<path d="M22.3105 8.26113L22.8938 7.83613L22.6827 7.54169" fill="white"/>
<path d="M22.7393 4.08063L22.5171 4.76396L22.8588 4.87785" fill="white"/>
<path d="M22.7392 4.08063L22.9614 4.76396L22.6198 4.87785" fill="white"/>
<path d="M23.4223 4.57782H22.7029V4.93893" fill="white"/>
<path d="M22.0558 4.57782L22.6391 5.00282L22.8502 4.70837" fill="white"/>
<path d="M22.0558 4.57782H22.7752V4.93893" fill="white"/>
<path d="M23.1642 5.38316L22.9419 4.69983L22.6003 4.81372" fill="white"/>
<path d="M22.3105 5.38339L22.8938 4.95839L22.6827 4.66394" fill="white"/>
<path d="M22.7393 1.19983L22.5171 1.88316L22.8588 1.99705" fill="white"/>
<path d="M22.7392 1.19983L22.9614 1.88316L22.6198 1.99705" fill="white"/>
<path d="M23.4223 1.69745H22.7029V2.05856" fill="white"/>
<path d="M22.0558 1.69745L22.6391 2.12245L22.8502 1.828" fill="white"/>
<path d="M22.0558 1.69745H22.7752V2.05856" fill="white"/>
<path d="M23.1642 2.50267L22.9419 1.81934L22.6003 1.93322" fill="white"/>
<path d="M22.3105 2.50289L22.8938 2.07789L22.6827 1.78345" fill="white"/>
<path d="M11.2188 6.96112L10.9966 7.64445L11.3382 7.75834" fill="white"/>
<path d="M11.2197 6.96112L11.4419 7.64445L11.1002 7.75834" fill="white"/>
<path d="M11.9033 7.45831H11.1839V7.81942" fill="white"/>
<path d="M11.9028 7.45831L11.3194 7.88331L11.1083 7.58887" fill="white"/>
<path d="M10.5332 7.45831L11.1165 7.88331L11.3276 7.58887" fill="white"/>
<path d="M10.5332 7.45831H11.2526V7.81942" fill="white"/>
<path d="M11.6449 8.26128L11.4227 7.57794L11.0811 7.69183" fill="white"/>
<path d="M11.6438 8.26113L11.0605 7.83613L11.2716 7.54169" fill="white"/>
<path d="M10.7913 8.26113L11.3746 7.83613L11.1635 7.54169" fill="white"/>
<path d="M10.7913 8.26128L11.0135 7.57794L11.3551 7.69183" fill="white"/>
<path d="M14.0967 6.96112L13.8745 7.64445L14.2161 7.75834" fill="white"/>
<path d="M14.0967 6.96112L14.319 7.64445L13.9773 7.75834" fill="white"/>
<path d="M14.7828 7.45831H14.0634V7.81942" fill="white"/>
<path d="M14.7829 7.45831L14.1996 7.88331L13.9885 7.58887" fill="white"/>
<path d="M13.4134 7.45831L13.9967 7.88331L14.2078 7.58887" fill="white"/>
<path d="M13.4134 7.45831H14.1328V7.81942" fill="white"/>
<path d="M14.5251 8.26128L14.3028 7.57794L13.9612 7.69183" fill="white"/>
<path d="M14.5253 8.26113L13.942 7.83613L14.1531 7.54169" fill="white"/>
<path d="M13.6727 8.26113L14.2561 7.83613L14.0449 7.54169" fill="white"/>
<path d="M13.6727 8.26128L13.895 7.57794L14.2366 7.69183" fill="white"/>
<path d="M14.0967 4.08063L13.8745 4.76396L14.2161 4.87785" fill="white"/>
<path d="M14.0967 4.08063L14.319 4.76396L13.9773 4.87785" fill="white"/>
<path d="M14.7828 4.57782H14.0634V4.93893" fill="white"/>
<path d="M14.7829 4.57782L14.1996 5.00282L13.9885 4.70837" fill="white"/>
<path d="M13.4134 4.57782L13.9967 5.00282L14.2078 4.70837" fill="white"/>
<path d="M13.4134 4.57782H14.1328V4.93893" fill="white"/>
<path d="M14.5251 5.38316L14.3028 4.69983L13.9612 4.81372" fill="white"/>
<path d="M14.5253 5.38339L13.942 4.95839L14.1531 4.66394" fill="white"/>
<path d="M13.6727 5.38339L14.2561 4.95839L14.0449 4.66394" fill="white"/>
<path d="M13.6727 5.38316L13.895 4.69983L14.2366 4.81372" fill="white"/>
</g>
<defs>
<clipPath id="clip0_93_9436">
<rect width="53.3333" height="30" fill="white" transform="translate(0.658203)"/>
</clipPath>
</defs>
</svg>
