<svg width="62" height="38" viewBox="0 0 62 38" fill="none" xmlns="http://www.w3.org/2000/svg">
<path d="M58.5077 4H1.66602V34H58.5077V4Z" fill="#009543"/>
<path d="M58.5077 4H1.66602V19H58.5077V4Z" fill="#D21034"/>
<path d="M1.66602 4L28.191 16.3167H58.5077V21.6861H28.191L1.66602 34" fill="black"/>
<path d="M3.12993 37.1527L0.202148 30.8472L25.7216 18.9999L0.202148 7.15272L3.12993 0.847168L28.9577 12.8416H61.9827V25.1583H28.9577L3.12993 37.1527Z" fill="#FDCE12"/>
<path d="M2.46075 35.7167L0.863525 32.2805L27.7691 19.7889H58.508V23.5778H28.6107L2.46075 35.7167ZM58.508 18.2111H27.7746L0.871859 5.71666L2.46908 2.28333L28.6163 14.4222H58.508V18.2111Z" fill="black"/>
<path d="M8.41857 21.8667V23.5778C9.9019 23.5778 12.8269 22.4417 12.8269 18.7722C12.8269 15.1028 9.71301 14.4222 8.78246 14.4222C7.8519 14.4222 4.97412 15.0917 4.97412 18.0917C4.97412 21.0917 7.79079 21.3695 8.34634 21.3695C8.9019 21.3695 10.9852 20.8695 10.7519 18.6167C10.7519 19.2556 10.0325 20.6056 8.51579 20.6056C6.99912 20.6056 6.06023 19.4806 6.06023 18.3695C6.06023 17.2584 6.9769 15.775 8.57412 15.775C10.1713 15.775 11.3408 17.1889 11.3408 18.6222C11.3352 20.0472 10.2102 21.8667 8.41857 21.8667Z" fill="#FDCE12"/>
<path d="M7.11084 19.6443L7.19973 19.6998C7.19973 19.6998 7.89973 18.0943 9.79417 16.9526C9.55528 17.086 8.2914 17.7165 7.11084 19.6443Z" fill="#FDCE12"/>
<path d="M7.21042 19.739L7.07153 19.6501L7.08542 19.6306C7.60209 18.7779 8.4882 17.6223 9.74931 16.9473L9.77987 16.9279L9.80487 16.9723C7.94098 18.0973 7.22709 19.689 7.22153 19.7084L7.21042 19.739ZM7.14931 19.639L7.19376 19.664C7.2382 19.5695 7.41598 19.2223 7.74376 18.7806C7.50764 19.0834 7.3132 19.3723 7.14931 19.639Z" fill="#FDCE12"/>
<path d="M7.29387 19.3666C7.29387 19.3666 7.07164 18.9194 7.26887 18.7222C7.46609 18.5249 7.3772 19.2472 7.3772 19.2472L7.46053 19.1277C7.46053 19.1277 7.3272 18.5777 7.47442 18.4638C7.61887 18.3499 7.54942 18.9888 7.54942 18.9888L7.63831 18.8749C7.63831 18.8749 7.54387 18.3444 7.68276 18.2444C7.82165 18.1444 7.73276 18.7444 7.73276 18.7444L7.84109 18.6249C7.84109 18.6249 7.76609 18.1194 7.93554 17.9999C8.10498 17.8805 7.95498 18.4805 7.95498 18.4805L8.06887 18.3555C8.06887 18.3555 8.01887 17.8944 8.16331 17.786C8.30776 17.686 8.18276 18.2222 8.18276 18.2222L8.29109 18.1138C8.29109 18.1138 8.26054 17.6833 8.39943 17.5833C8.53831 17.4833 8.41331 17.9944 8.41331 17.9944L8.52165 17.886C8.52165 17.886 8.49665 17.4555 8.67443 17.3694C8.8522 17.2833 8.64387 17.7749 8.64387 17.7749L8.76331 17.6749C8.76331 17.6749 8.8022 17.1694 8.9522 17.1249C9.10498 17.0805 8.88276 17.5722 8.88276 17.5722L8.99109 17.4833C8.99109 17.4833 9.04665 17.0527 9.21332 16.9972C9.37721 16.9472 9.10498 17.3944 9.10498 17.3944L9.21332 17.311C9.21332 17.311 9.33276 16.8805 9.49109 16.8305C9.64943 16.786 9.3272 17.236 9.3272 17.236L9.43554 17.161C9.43554 17.161 9.60498 16.7694 9.75221 16.7444C9.89109 16.7194 9.59387 17.0666 9.59387 17.0666L9.72721 16.9916C9.72721 16.9916 9.94943 16.586 10.03 16.7083C10.105 16.8333 9.71332 17.0166 9.71332 17.0166L9.57998 17.0916C9.57998 17.0916 10.055 16.8694 10.1105 16.9833C10.1661 17.0972 9.46054 17.1722 9.46054 17.1722L9.34665 17.2472C9.34665 17.2472 9.82165 17.1138 9.76332 17.2333C9.70776 17.3527 9.23832 17.3277 9.23832 17.3277L9.12998 17.4027C9.12998 17.4027 9.60498 17.2888 9.54109 17.3972C9.47721 17.5055 9.01609 17.4972 9.01609 17.4972L8.9022 17.5916C8.9022 17.5916 9.36332 17.4722 9.29943 17.611C9.22998 17.7499 8.70498 17.7444 8.70498 17.7444L8.57165 17.8638C8.57165 17.8638 9.06332 17.6999 9.01887 17.8249C8.97443 17.9583 8.41887 18.0194 8.41887 18.0194L8.29387 18.1444C8.29387 18.1444 8.81887 17.9666 8.66609 18.1305C8.50776 18.2944 8.12998 18.3333 8.12998 18.3333L7.9772 18.5166C7.9772 18.5166 8.5022 18.1999 8.42443 18.3833C8.34943 18.561 7.84387 18.6805 7.84387 18.6805L7.73554 18.8055C7.73554 18.8055 8.2022 18.5333 8.15776 18.686C8.11331 18.8388 7.60776 18.9944 7.60776 18.9944L7.52442 19.1083C7.52442 19.1083 8.07442 18.7805 8.02998 18.9444C7.98554 19.1083 7.45498 19.2277 7.45498 19.2277L7.38553 19.3277C7.38553 19.3277 7.89665 19.036 7.9022 19.1749C7.90776 19.3138 7.3022 19.4583 7.3022 19.4583L7.29387 19.3666Z" fill="#FDCE12"/>
<path d="M10.1164 19.6443L10.0275 19.6998C10.0275 19.6998 9.32755 18.0943 7.43311 16.9526C7.67199 17.086 8.93588 17.7165 10.1164 19.6443Z" fill="#FDCE12"/>
<path d="M10.0159 19.7389L10.002 19.7139C9.99648 19.6945 9.28259 18.1028 7.4187 16.9778L7.4437 16.9333L7.47426 16.9528C8.73815 17.6278 9.62148 18.7833 10.1381 19.6361L10.152 19.6556L10.0159 19.7389ZM9.48537 18.7778C9.81315 19.2195 9.99092 19.5611 10.0354 19.6611L10.0798 19.6361C9.91315 19.3722 9.7187 19.0833 9.48537 18.7778Z" fill="#FDCE12"/>
<path d="M9.93258 19.3666C9.93258 19.3666 10.1548 18.9194 9.95758 18.7222C9.76036 18.5249 9.84925 19.2472 9.84925 19.2472L9.76591 19.1277C9.76591 19.1277 9.89925 18.5777 9.75203 18.4638C9.60758 18.3499 9.67702 18.9888 9.67702 18.9888L9.58814 18.8749C9.58814 18.8749 9.68258 18.3444 9.54369 18.2444C9.4048 18.1444 9.49369 18.7444 9.49369 18.7444L9.38536 18.6249C9.38536 18.6249 9.46036 18.1194 9.29091 17.9999C9.12147 17.8805 9.27147 18.4805 9.27147 18.4805L9.15758 18.3555C9.15758 18.3555 9.20758 17.8944 9.06313 17.786C8.91869 17.686 9.04369 18.2222 9.04369 18.2222L8.93536 18.1138C8.93536 18.1138 8.96591 17.6833 8.82702 17.5833C8.68813 17.4833 8.81313 17.9944 8.81313 17.9944L8.7048 17.886C8.7048 17.886 8.7298 17.4555 8.55202 17.3694C8.37425 17.2805 8.58258 17.7749 8.58258 17.7749L8.46313 17.6749C8.46313 17.6749 8.42425 17.1694 8.27424 17.1249C8.12147 17.0805 8.34369 17.5722 8.34369 17.5722L8.23536 17.4833C8.23536 17.4833 8.1798 17.0527 8.01313 16.9972C7.84924 16.9472 8.12147 17.3944 8.12147 17.3944L8.01313 17.311C8.01313 17.311 7.89369 16.8805 7.73536 16.8305C7.57702 16.786 7.89924 17.236 7.89924 17.236L7.79091 17.161C7.79091 17.161 7.62147 16.7694 7.47424 16.7444C7.33535 16.7194 7.63258 17.0666 7.63258 17.0666L7.49924 16.9916C7.49924 16.9916 7.27702 16.586 7.19647 16.7083C7.12147 16.8333 7.51313 17.0166 7.51313 17.0166L7.64647 17.0916C7.64647 17.0916 7.17147 16.8694 7.11591 16.9833C7.06035 17.0972 7.76591 17.1722 7.76591 17.1722L7.8798 17.2472C7.8798 17.2472 7.4048 17.1138 7.46313 17.2333C7.51869 17.3527 7.98813 17.3277 7.98813 17.3277L8.09647 17.4027C8.09647 17.4027 7.62147 17.2888 7.68536 17.3972C7.74924 17.5055 8.21036 17.4972 8.21036 17.4972L8.32425 17.5916C8.32425 17.5916 7.86313 17.4722 7.92702 17.611C7.99647 17.7499 8.52147 17.7444 8.52147 17.7444L8.6548 17.8638C8.6548 17.8638 8.16313 17.6999 8.20758 17.8249C8.25202 17.9583 8.80758 18.0194 8.80758 18.0194L8.93258 18.1444C8.93258 18.1444 8.40758 17.9666 8.56036 18.1305C8.71869 18.2944 9.09647 18.3333 9.09647 18.3333L9.24925 18.5166C9.24925 18.5166 8.72425 18.1999 8.80202 18.3833C8.87702 18.561 9.38258 18.6805 9.38258 18.6805L9.49091 18.8055C9.49091 18.8055 9.02425 18.5333 9.06869 18.686C9.11314 18.8388 9.61869 18.9944 9.61869 18.9944L9.70202 19.1083C9.70202 19.1083 9.15202 18.7805 9.19647 18.9444C9.24091 19.1083 9.77147 19.2277 9.77147 19.2277L9.84091 19.3277C9.84091 19.3277 9.3298 19.036 9.32425 19.1749C9.31869 19.3138 9.92425 19.4583 9.92425 19.4583L9.93258 19.3666Z" fill="#FDCE12"/>
</svg>
