<svg width="54" height="30" viewBox="0 0 54 30" fill="none" xmlns="http://www.w3.org/2000/svg">
<g clip-path="url(#clip0_93_11362)">
<path d="M53.9896 0H0.65625V30H53.9896V0Z" fill="#198A00"/>
<path d="M48.6313 10.7141H37.9174V30.0002H48.6313V10.7141Z" fill="#DE2010"/>
<path d="M53.9902 10.7141H43.2763V30.0002H53.9902V10.7141Z" fill="#EF7D00"/>
<path d="M48.6347 10.7141H43.2763V30.0002H48.6347V10.7141Z" fill="black"/>
<path d="M50.0559 3.60546C50.0559 3.60546 51.8975 2.88324 52.0753 2.73324C52.1559 2.82213 51.3364 3.73046 49.7447 4.06657C51.1892 3.75268 52.4225 2.76935 52.6753 2.7999C52.7475 2.81379 52.7336 3.76102 49.4197 4.57768C51.7086 4.02768 53.042 3.01379 53.0253 3.1249C53.042 3.14713 52.7975 3.92213 50.792 4.5249C51.3503 4.40546 52.8697 3.55546 52.8531 3.72213C52.9031 3.78879 51.3836 5.57491 48.6392 4.99435C50.8309 5.51379 52.2531 4.25824 52.4559 4.27768C52.4975 4.28324 52.0503 5.38046 49.2892 5.44713C50.6142 5.31935 50.2308 5.44157 50.2308 5.44157C50.2308 5.44157 49.4503 5.99991 48.5114 5.61935C49.2503 5.80546 49.3308 5.81102 49.3475 5.87213C49.2975 5.94713 48.6892 6.05824 48.1058 5.76657C48.5781 5.94435 49.0003 5.97491 49.0086 6.04435C49.0003 6.06657 48.7003 6.22213 48.4308 6.11102C48.1642 5.99991 45.6947 4.60546 45.6947 4.60546L49.9003 3.54991L50.0559 3.60546Z" fill="#EF7D00"/>
<path d="M48.6418 6.18072C48.5724 6.18072 48.4974 6.16961 48.4251 6.13905C48.1585 6.02794 45.7863 4.69183 45.6863 4.6335C45.6779 4.62794 45.6724 4.61961 45.6724 4.61127C45.6724 4.60294 45.6807 4.59461 45.689 4.59183L49.8946 3.53627C49.9001 3.5335 49.9029 3.53627 49.9085 3.53627L50.0529 3.58627C50.1863 3.5335 51.8918 2.86127 52.0585 2.72239C52.0696 2.71405 52.0807 2.71683 52.0918 2.72516C52.1057 2.73905 52.1057 2.76127 52.0974 2.78627C52.064 2.89461 51.8446 3.12794 51.5057 3.36405C51.6946 3.26683 51.8668 3.16683 52.0168 3.0835C52.3501 2.89461 52.5751 2.76961 52.6751 2.7835C52.689 2.78627 52.7113 2.79739 52.714 2.85294C52.714 2.90294 52.6918 3.17239 52.1613 3.54461C52.1557 3.55016 52.1474 3.55294 52.1418 3.5585C52.389 3.43072 52.5863 3.32239 52.7279 3.24461C52.9696 3.1085 53.0057 3.09183 53.0335 3.1085C53.0418 3.11405 53.0474 3.12239 53.0474 3.13072C53.0501 3.13905 53.0474 3.15294 53.039 3.17516C53.0251 3.22239 52.9196 3.4835 52.4613 3.8085C52.7029 3.70294 52.8224 3.66683 52.8585 3.69461C52.8696 3.70016 52.8724 3.71127 52.8751 3.72516C52.8807 3.73905 52.8696 3.76127 52.8501 3.79461C52.7974 3.87516 52.614 4.08627 52.3029 4.31405C52.3751 4.27794 52.4224 4.2585 52.4557 4.26127C52.4696 4.26405 52.4807 4.27516 52.4779 4.29461C52.4724 4.36405 52.3168 4.64461 51.8668 4.9085C51.5668 5.0835 51.0724 5.28905 50.2974 5.40016C50.3029 5.40572 50.3029 5.4085 50.3029 5.41405C50.3057 5.42238 50.3085 5.44738 50.239 5.47238C50.1974 5.50016 49.7835 5.77238 49.2168 5.7835C49.3335 5.81683 49.3557 5.83627 49.3668 5.87516C49.3696 5.88072 49.3668 5.88905 49.364 5.89461C49.3335 5.93905 49.1724 5.98627 48.9501 5.98905C49.0001 6.00572 49.0224 6.02238 49.0251 6.05016C49.0251 6.05572 49.0251 6.0585 49.0224 6.06127C49.0168 6.07516 48.989 6.09461 48.9363 6.11961C48.9001 6.13627 48.7807 6.18072 48.6418 6.18072ZM45.7613 4.61961C46.1224 4.82238 48.2001 5.99183 48.4418 6.09461C48.6613 6.18627 48.9113 6.08627 48.9751 6.04738C48.9418 6.02794 48.8363 6.00572 48.7363 5.98072C48.7307 5.97794 48.7251 5.97794 48.7196 5.97516C48.5251 5.95294 48.3085 5.90016 48.0974 5.79461C48.0863 5.78905 48.0807 5.77516 48.0863 5.76127C48.0918 5.75016 48.1057 5.74461 48.1168 5.74738C48.3418 5.8335 48.5585 5.8835 48.7196 5.91961C49.0251 5.95294 49.2668 5.90572 49.3224 5.86683C49.3001 5.84183 49.2224 5.81961 49.0001 5.76405C48.8446 5.74738 48.6779 5.71127 48.5085 5.63905C48.4974 5.6335 48.4918 5.62238 48.4946 5.6085C48.4974 5.59461 48.5113 5.58905 48.5224 5.59461C48.6585 5.62794 48.7751 5.65572 48.8696 5.6835C48.9224 5.69738 48.9668 5.70572 49.0085 5.71683C49.6974 5.78627 50.2168 5.42516 50.2224 5.42238C50.2251 5.41961 50.2279 5.41961 50.2279 5.41683H50.2307C50.2113 5.41405 50.1779 5.41405 50.1335 5.41405C49.8807 5.44461 49.6029 5.46683 49.2946 5.47238C49.2807 5.47238 49.2724 5.46127 49.2696 5.45016C49.2668 5.43627 49.2779 5.42794 49.2918 5.42516C49.7418 5.3835 49.989 5.36683 50.1307 5.36683C51.0001 5.26127 51.5418 5.04461 51.8585 4.85572C52.2613 4.61683 52.4029 4.38072 52.4335 4.3085C52.3835 4.32239 52.289 4.37516 52.1724 4.43905C52.0446 4.5085 51.8779 4.60016 51.6751 4.69461C51.6585 4.70294 51.6418 4.71127 51.6224 4.71961C51.3863 4.83072 51.0918 4.93905 50.7474 5.01961C50.164 5.16127 49.4529 5.21127 48.639 5.01961C48.6251 5.01683 48.6168 5.00572 48.6224 4.99183C48.6251 4.97794 48.6363 4.96961 48.6501 4.97238C49.4724 5.14461 50.1807 5.10294 50.7557 4.96683C51.0835 4.88627 51.3696 4.77516 51.6113 4.66961C51.8446 4.5585 52.039 4.44183 52.1863 4.33905C52.6085 4.04739 52.8224 3.77794 52.8363 3.72794V3.72516C52.7779 3.71127 52.4918 3.84183 52.1918 3.97794C51.9307 4.12794 51.5918 4.28627 51.1529 4.43905C51.0168 4.49183 50.8974 4.53072 50.8029 4.55016C50.789 4.55294 50.7779 4.54461 50.7751 4.5335C50.7724 4.52238 50.7807 4.5085 50.7918 4.50294C50.9168 4.46683 51.0307 4.42794 51.1446 4.38905C51.4029 4.28905 51.7113 4.14461 52.0001 4.01405C52.0557 3.98905 52.1085 3.96405 52.1557 3.94183C52.364 3.82239 52.5168 3.71127 52.6279 3.61683C52.8974 3.38627 52.9863 3.2085 53.0057 3.14739C52.964 3.16405 52.8696 3.21683 52.764 3.27516C52.5307 3.40572 52.1501 3.61683 51.6418 3.84461C51.1835 4.07516 50.5974 4.28627 49.8946 4.48072C49.7474 4.52239 49.5946 4.56127 49.439 4.60016C49.4251 4.60294 49.414 4.59461 49.4085 4.5835C49.4057 4.56961 49.414 4.5585 49.4251 4.55294C49.589 4.51127 49.7474 4.47239 49.8946 4.43072C50.564 4.24183 51.1363 4.01961 51.6029 3.8085C52.4085 3.41127 52.6113 3.07239 52.6585 2.93905C52.6835 2.86961 52.6807 2.83072 52.6751 2.81961C52.5863 2.81405 52.3529 2.94739 52.0529 3.11405C51.7474 3.28627 51.3557 3.50294 50.9113 3.70016C50.6029 3.84461 50.2196 3.98905 49.7585 4.08627C49.7446 4.08905 49.7335 4.08072 49.7307 4.06683C49.7279 4.05294 49.7363 4.04183 49.7501 4.03905C50.1501 3.95294 50.5363 3.81405 50.889 3.6585C51.0751 3.56961 51.2307 3.4835 51.3529 3.40294C51.7224 3.16961 51.9668 2.93072 52.0418 2.80016C52.0474 2.79183 52.0501 2.7835 52.0557 2.77794C51.7307 2.97239 50.1418 3.59739 50.0724 3.62516C50.0668 3.62794 50.0613 3.62794 50.0557 3.62516L49.9085 3.57516L45.7613 4.61961Z" fill="black"/>
<path d="M45.1119 7.37241C44.7425 7.37241 44.7314 7.67519 44.7314 7.67519C44.7314 7.67519 44.7008 7.69741 44.7203 7.84185C44.7814 7.74463 44.8119 7.7113 44.8119 7.7113C44.8536 7.71685 45.0231 7.76408 45.2897 7.57241C45.0453 7.80574 45.1925 7.89463 45.1925 7.89463C45.1925 7.89463 45.1342 8.07797 45.3203 8.11408C45.262 8.03908 45.2981 7.97519 45.2981 7.97519C45.2981 7.97519 45.5592 7.95019 45.5425 7.65852C45.5536 7.92241 45.7092 7.98908 45.7092 7.98908C45.7092 7.98908 45.7092 8.13352 45.8786 8.14741C45.787 8.07241 45.8092 7.95574 45.8092 7.95574C45.8092 7.95574 46.0286 7.8113 45.8425 7.5613C45.9536 7.50019 46.0453 7.3363 46.0453 7.3363C46.0453 7.3363 45.8925 7.27519 45.8231 7.22796C45.7897 7.1613 45.8175 6.80296 45.8175 6.80296L45.7258 6.33907L45.4647 7.0613C45.4758 6.9613 45.4814 7.37241 45.1119 7.37241Z" fill="#EF7D00"/>
<path d="M45.8781 8.16949C45.8781 8.16949 45.8753 8.16949 45.8781 8.16949C45.7225 8.15838 45.692 8.04172 45.6864 8.00283C45.6559 7.98616 45.5864 7.93338 45.5447 7.81394C45.492 7.95005 45.3614 7.98616 45.3142 7.99727C45.3086 8.01672 45.3031 8.05561 45.3392 8.10005C45.3447 8.10838 45.3447 8.11949 45.342 8.12783C45.3364 8.13616 45.3281 8.14172 45.317 8.13894C45.2559 8.12505 45.2114 8.09727 45.1836 8.05561C45.1503 8.00005 45.1586 7.93338 45.1642 7.90561C45.1503 7.89172 45.1309 7.86672 45.1253 7.82505C45.1197 7.78061 45.1364 7.73061 45.1697 7.67783C44.9892 7.76949 44.8697 7.75005 44.8197 7.74172C44.8058 7.75561 44.7808 7.79449 44.7392 7.85838C44.7336 7.86672 44.7253 7.87227 44.7142 7.86949C44.7031 7.86672 44.6975 7.85838 44.6947 7.85005C44.6808 7.73338 44.692 7.68894 44.7058 7.66949C44.7114 7.61672 44.7586 7.35283 45.1086 7.35283C45.2059 7.35283 45.2836 7.32227 45.342 7.26394C45.4086 7.19449 45.4309 7.10838 45.4364 7.07227C45.4364 7.06949 45.4364 7.06672 45.4364 7.06394C45.4364 7.05283 45.4392 7.03894 45.4475 7.03061L45.6975 6.33616C45.7031 6.32505 45.7114 6.31949 45.7198 6.32227C45.7309 6.32227 45.7392 6.3306 45.742 6.34172L45.8336 6.8056C45.8336 6.80838 45.8336 6.81116 45.8336 6.81116C45.8225 6.94172 45.8114 7.16394 45.8309 7.21672C45.9003 7.26394 46.042 7.31949 46.0448 7.31949C46.0503 7.32227 46.0559 7.32783 46.0586 7.33338C46.0614 7.33894 46.0614 7.34727 46.0559 7.35283C46.0503 7.35838 45.9725 7.50283 45.8642 7.57227C45.917 7.65283 45.9364 7.72783 45.9253 7.80283C45.9086 7.89727 45.8448 7.95561 45.817 7.97505C45.8142 8.00005 45.8142 8.08061 45.8809 8.13338C45.8892 8.13894 45.892 8.15005 45.8864 8.16116C45.8975 8.16394 45.8892 8.16949 45.8781 8.16949ZM45.567 7.66672C45.5809 7.90283 45.7114 7.96116 45.7198 7.96394C45.7281 7.96949 45.7336 7.97783 45.7336 7.98616C45.7336 7.99172 45.7364 8.06949 45.8142 8.10283C45.7725 8.03061 45.7836 7.95283 45.7836 7.94727C45.7864 7.94172 45.7892 7.93338 45.7947 7.93338C45.7947 7.93338 45.8753 7.88061 45.8892 7.78616C45.9003 7.71949 45.8781 7.64727 45.8225 7.57505C45.817 7.56949 45.817 7.56116 45.817 7.55561C45.8198 7.55005 45.8225 7.54172 45.8309 7.54172C45.9114 7.50005 45.9809 7.39727 46.0114 7.35005C45.9642 7.33061 45.8642 7.28894 45.8086 7.25005C45.8059 7.24727 45.8031 7.24449 45.8003 7.24172C45.767 7.17505 45.7864 6.87783 45.7947 6.80838L45.7198 6.43338L45.492 7.06394C45.4836 7.14727 45.4059 7.40283 45.1114 7.40283C44.7697 7.40283 44.7558 7.66949 44.7558 7.68061C44.7558 7.68616 44.7531 7.69449 44.7503 7.69727C44.7475 7.70005 44.7392 7.71949 44.742 7.77783C44.7781 7.72227 44.7975 7.70283 44.8003 7.70283C44.8058 7.69727 44.8142 7.69449 44.8225 7.69727C44.8253 7.69727 44.8281 7.69727 44.8336 7.70005C44.8864 7.70838 45.042 7.73616 45.2836 7.56394C45.2947 7.55838 45.3059 7.55838 45.317 7.56949C45.3281 7.58061 45.3225 7.59172 45.3142 7.60283C45.1975 7.71672 45.1781 7.78894 45.1809 7.83061C45.1864 7.86949 45.2114 7.88616 45.2114 7.88616C45.2197 7.89172 45.2253 7.90283 45.2225 7.91394C45.2225 7.91394 45.2003 7.98616 45.2336 8.04172C45.2447 8.05838 45.2586 8.07505 45.2781 8.08338C45.2586 8.02227 45.2836 7.97783 45.2836 7.97505C45.2892 7.96949 45.2947 7.96116 45.3031 7.96116C45.3114 7.96116 45.5336 7.93616 45.5253 7.68061C45.5253 7.67505 45.5253 7.67505 45.5253 7.66949C45.5253 7.65561 45.5364 7.64727 45.5475 7.64449C45.5614 7.64449 45.5697 7.65283 45.5725 7.66672C45.567 7.65838 45.567 7.66394 45.567 7.66672Z" fill="black"/>
<path d="M46.9362 6.33348C46.9445 6.33903 47.2139 6.61681 47.4723 6.60014C47.5695 6.52514 47.2695 6.36126 47.2695 6.32237C47.3751 6.41126 47.8223 6.76125 48.1056 6.63625C48.2195 6.48903 47.9028 6.50848 47.5528 6.1057C47.7973 6.25292 48.4056 6.5807 48.689 6.4557C48.8112 6.33626 48.0556 5.96403 47.8028 5.67237L47.1528 5.36681L46.2667 6.02792L46.9362 6.33348Z" fill="#EF7D00"/>
<path d="M47.9706 6.68869C47.815 6.68869 47.6455 6.60814 47.5067 6.5248C47.5122 6.53869 47.5178 6.55258 47.5178 6.56647C47.5178 6.58036 47.5122 6.60258 47.49 6.61925C47.4844 6.62202 47.4817 6.6248 47.4761 6.6248C47.2372 6.63869 46.9928 6.42202 46.9261 6.35258L46.265 6.05813C46.2567 6.05258 46.2511 6.04702 46.2511 6.03869C46.2511 6.03036 46.2539 6.02202 46.2594 6.01647L47.1455 5.35536C47.1511 5.3498 47.1622 5.3498 47.1705 5.35258L47.8205 5.65813C47.8233 5.66091 47.8261 5.66369 47.8289 5.66369C47.9344 5.78591 48.1372 5.92758 48.3178 6.05258C48.5706 6.22758 48.7261 6.33869 48.7344 6.4248C48.7372 6.44702 48.7289 6.46369 48.715 6.47758C48.7122 6.48036 48.7094 6.48314 48.7094 6.48314C48.4539 6.59702 47.9622 6.36369 47.7011 6.21647C47.8261 6.33036 47.9372 6.39702 48.0178 6.44425C48.0983 6.49147 48.1511 6.52202 48.1622 6.56925C48.1678 6.59425 48.1567 6.62202 48.1344 6.65258C48.1317 6.65536 48.1289 6.65814 48.1261 6.65814C48.0705 6.68036 48.0233 6.68869 47.9706 6.68869ZM47.2733 6.2998C47.2789 6.2998 47.2844 6.30258 47.2872 6.30536C47.34 6.3498 47.8067 6.73591 48.0928 6.61647C48.1039 6.5998 48.1094 6.58591 48.1067 6.5748C48.1011 6.5498 48.0511 6.51925 47.9872 6.48314C47.8789 6.41925 47.7094 6.32202 47.5372 6.12202C47.5289 6.11369 47.5289 6.0998 47.5372 6.08869C47.5455 6.08036 47.5594 6.07758 47.5678 6.08313C47.7011 6.16369 48.3761 6.56091 48.6789 6.43591C48.6817 6.43036 48.6844 6.43036 48.6844 6.42202C48.6789 6.35536 48.4817 6.21925 48.29 6.08591C48.1094 5.96091 47.9067 5.81925 47.7955 5.69425L47.1622 5.39702L46.3233 6.02758L46.9511 6.30814C46.9539 6.30814 46.9567 6.31091 46.9567 6.31369L46.9594 6.31647C47.0039 6.36091 47.2344 6.5748 47.4567 6.5748C47.4622 6.5748 47.4622 6.5748 47.4678 6.5748C47.4733 6.56925 47.4733 6.56647 47.4733 6.56091C47.4733 6.52202 47.3844 6.45258 47.3344 6.41091C47.2761 6.36369 47.2511 6.34425 47.2511 6.32202C47.2511 6.31369 47.2567 6.30536 47.265 6.2998C47.265 6.30258 47.2678 6.2998 47.2733 6.2998Z" fill="black"/>
<path d="M45.9398 4.06948C45.9398 4.06948 46.2398 3.90559 47.4425 3.98892C47.5731 4.00281 48.262 3.77226 48.4814 3.70559C48.8314 3.64448 49.9425 3.42226 50.2425 3.21392C50.4537 3.1917 50.1842 3.57226 49.9175 3.65837C49.6314 3.77781 48.6009 4.10281 48.237 4.06115C48.6759 4.0667 48.4314 4.39448 47.7009 4.23893C48.0509 4.4167 47.9203 4.44726 47.9203 4.44726C47.9203 4.44726 47.3037 4.47781 47.1398 4.35004C47.5537 4.4917 47.3842 4.5417 47.3842 4.5417C47.3842 4.5417 46.962 4.57781 46.7675 4.49726C47.0675 4.57781 46.912 4.63337 46.912 4.63337C46.912 4.63337 46.6675 4.66948 46.4675 4.60281C46.2648 4.53892 45.9564 4.06948 45.9398 4.06948Z" fill="#EF7D00"/>
<path d="M46.753 4.66912C46.6669 4.66912 46.5614 4.66079 46.4586 4.62746C46.2975 4.57468 46.0808 4.29134 45.978 4.15523C45.9558 4.12745 45.9336 4.0969 45.9252 4.08857C45.9197 4.08579 45.9141 4.08023 45.9141 4.07468C45.9114 4.06357 45.9169 4.05245 45.928 4.0469C45.9419 4.04134 46.2475 3.88023 47.4419 3.96079C47.5447 3.97468 48.0475 3.81357 48.3197 3.72745C48.3808 3.70801 48.4363 3.69134 48.4725 3.68023H48.4752C48.8363 3.61912 49.9336 3.3969 50.228 3.19412C50.2336 3.19134 50.2336 3.18856 50.2391 3.18856C50.3197 3.18023 50.3363 3.2219 50.3391 3.24134C50.3613 3.34968 50.1391 3.61079 49.9225 3.68023C49.678 3.78301 48.8947 4.03579 48.4363 4.08023C48.4502 4.09134 48.4613 4.10245 48.4697 4.11634C48.4836 4.14134 48.478 4.16912 48.4558 4.1969C48.3863 4.28301 48.1613 4.33301 47.8336 4.28857C47.9502 4.36079 47.9669 4.40245 47.9613 4.42745C47.9558 4.45523 47.9336 4.46912 47.9197 4.46912C47.9169 4.46912 47.9169 4.46912 47.9141 4.46912C47.8975 4.46912 47.6363 4.48301 47.4086 4.45523C47.4308 4.47745 47.4363 4.49412 47.4336 4.50801C47.4336 4.54968 47.3863 4.56357 47.3808 4.56634C47.378 4.56634 47.3752 4.56634 47.3752 4.56634C47.3613 4.56912 47.1502 4.58579 46.9586 4.56634C46.9641 4.57468 46.9669 4.58301 46.9669 4.59412C46.9697 4.63579 46.9169 4.65523 46.9113 4.65523C46.9086 4.65523 46.9086 4.65523 46.9058 4.65523C46.9113 4.65801 46.8447 4.66912 46.753 4.66912ZM45.9808 4.07745C45.9891 4.08857 46.003 4.10523 46.0169 4.12745C46.1169 4.26079 46.328 4.53579 46.4725 4.58301C46.6558 4.64412 46.8808 4.61634 46.9058 4.61357C46.9141 4.60801 46.9252 4.60246 46.928 4.59968C46.928 4.59968 46.9225 4.58023 46.8391 4.55245C46.8086 4.5469 46.7808 4.53857 46.7558 4.52745C46.7447 4.5219 46.7391 4.51079 46.7419 4.4969C46.7475 4.48301 46.7586 4.47745 46.7725 4.48301C46.8058 4.49134 46.8308 4.49968 46.853 4.50801C47.0475 4.54968 47.3447 4.53023 47.3752 4.52745C47.3836 4.52468 47.3891 4.51912 47.3891 4.51634C47.3891 4.51357 47.3863 4.49134 47.2863 4.44412C47.2169 4.43023 47.1586 4.40801 47.1225 4.37745C47.1141 4.3719 47.1086 4.35801 47.1169 4.3469C47.1225 4.33579 47.1336 4.33301 47.1475 4.33579C47.2169 4.35801 47.2669 4.38023 47.3086 4.3969C47.5308 4.44412 47.878 4.43023 47.9141 4.43023C47.9169 4.43023 47.9197 4.42745 47.9197 4.42745C47.9197 4.42745 47.9197 4.38579 47.6891 4.26634C47.678 4.26079 47.6752 4.24968 47.678 4.23579C47.6836 4.2219 47.6919 4.21912 47.7058 4.2219C48.103 4.30801 48.3669 4.24412 48.4225 4.1719C48.4363 4.15523 48.4308 4.1469 48.428 4.14412C48.4197 4.12468 48.3808 4.10245 48.3002 4.09412C48.2752 4.09412 48.253 4.09134 48.2308 4.08857C48.2169 4.08579 48.2086 4.07468 48.2086 4.06357C48.2086 4.04968 48.2197 4.04134 48.2308 4.04134C48.253 4.04134 48.278 4.04412 48.3002 4.0469C48.303 4.0469 48.3058 4.0469 48.3086 4.0469C48.7169 4.0469 49.6447 3.75245 49.903 3.64134C50.1141 3.5719 50.303 3.32745 50.2891 3.25801C50.2863 3.25245 50.2836 3.23856 50.2475 3.24134C49.9391 3.44968 48.8447 3.66912 48.4836 3.73301C48.4447 3.74412 48.3947 3.76079 48.3308 3.78023C47.9336 3.90801 47.5391 4.02745 47.4363 4.01634C46.4613 3.94412 46.0808 4.04412 45.9808 4.07745Z" fill="black"/>
<path d="M46.4207 6.48591L46.4651 7.21369C46.4651 7.21369 46.4429 7.2498 46.4207 7.2748C46.3984 7.29703 45.8568 7.19703 45.9318 7.57758C45.9318 7.73314 45.9373 7.77203 46.0484 7.86092C46.0179 7.75814 46.0262 7.68869 46.0262 7.68869C46.0262 7.68869 46.179 7.77203 46.329 7.54425C46.229 7.77203 46.2984 7.85258 46.3234 7.85814C46.3457 7.89981 46.2818 8.08314 46.4873 8.07758C46.4096 8.00814 46.4457 7.91092 46.4457 7.91092C46.4457 7.91092 46.6596 7.87758 46.5846 7.5248C46.6623 7.45536 46.6929 7.52203 46.6929 7.52203C46.6929 7.52203 46.7151 7.73314 46.904 7.68869C46.9901 7.73036 46.8901 7.84703 46.8901 7.84703C46.8901 7.84703 47.0262 7.8498 47.0651 7.74425C47.104 7.63869 47.154 7.4498 46.929 7.37203C46.9012 7.29703 47.0179 7.29147 47.0179 7.29147C47.0179 7.29147 47.1596 7.33314 47.2012 7.3998C47.2429 7.46369 47.229 7.22758 47.0512 7.20536C46.8346 7.1998 46.8207 7.15814 46.8207 7.1498C46.8207 7.14147 46.7846 6.61925 46.7679 6.46925L46.4207 6.48591Z" fill="#EF7D00"/>
<path d="M46.4842 8.0971C46.312 8.0971 46.312 7.9721 46.3092 7.90543C46.3092 7.89432 46.3092 7.87766 46.3064 7.8721C46.2925 7.86377 46.2814 7.84988 46.2731 7.83043C46.2592 7.7971 46.2481 7.74154 46.2675 7.65543C46.1786 7.73321 46.0981 7.72766 46.0536 7.71932C46.0536 7.7471 46.0592 7.7971 46.0759 7.85543C46.0786 7.86654 46.0759 7.87766 46.0675 7.88043C46.0592 7.88599 46.0481 7.88599 46.0398 7.88043C45.9175 7.78877 45.912 7.73877 45.912 7.58043C45.8953 7.49154 45.9092 7.41654 45.9536 7.36377C46.0481 7.24988 46.2509 7.25266 46.362 7.25543C46.3814 7.25543 46.4009 7.25543 46.412 7.25543C46.4259 7.24154 46.437 7.2221 46.4453 7.21099L46.4036 6.49154C46.4036 6.47765 46.412 6.46654 46.4259 6.46654L46.7759 6.44432C46.7898 6.44432 46.7981 6.45265 46.8009 6.46654C46.8175 6.61099 46.8536 7.09432 46.8536 7.14432C46.8592 7.14988 46.8953 7.17488 47.062 7.18043H47.0647C47.1925 7.1971 47.2481 7.31377 47.2536 7.38321C47.2564 7.41099 47.2481 7.43043 47.2314 7.43599C47.2231 7.43877 47.2064 7.44154 47.1897 7.41377C47.162 7.36932 47.0648 7.33043 47.0259 7.31654C47.0064 7.31932 46.9731 7.32488 46.9647 7.34154C46.962 7.34432 46.9592 7.3471 46.962 7.35543C47.037 7.38321 47.0898 7.42765 47.1148 7.48321C47.1481 7.55265 47.1425 7.64432 47.1009 7.75266C47.0536 7.8721 46.9092 7.86932 46.9009 7.86932C46.8925 7.86932 46.8842 7.86377 46.8786 7.85543C46.8731 7.8471 46.8759 7.83599 46.8842 7.83043C46.8981 7.81654 46.9314 7.76654 46.9259 7.73321C46.9259 7.72766 46.9203 7.71932 46.912 7.71377C46.8592 7.72488 46.8092 7.71654 46.7703 7.68877C46.7009 7.64154 46.6842 7.54988 46.6814 7.52766C46.6786 7.5221 46.6731 7.51654 46.6648 7.51377C46.6536 7.51099 46.6398 7.51932 46.6231 7.53043C46.6481 7.66654 46.637 7.7721 46.587 7.84432C46.5509 7.8971 46.5009 7.91654 46.4786 7.92488C46.4731 7.94988 46.4648 8.01099 46.5148 8.05543C46.5203 8.06099 46.5259 8.0721 46.5203 8.08043C46.5147 8.08877 46.5064 8.09432 46.4981 8.09432C46.487 8.0971 46.4842 8.0971 46.4842 8.0971ZM46.3342 7.51377C46.3397 7.51377 46.3425 7.51377 46.3453 7.51654C46.3564 7.5221 46.3592 7.53599 46.3564 7.5471C46.2925 7.69154 46.3036 7.76654 46.3147 7.79988C46.3231 7.81932 46.3314 7.82766 46.3342 7.82766C46.3397 7.83043 46.3453 7.83321 46.3481 7.83877C46.3564 7.85266 46.3564 7.87488 46.3592 7.90266C46.362 7.96099 46.362 8.02488 46.437 8.04154C46.4009 7.9721 46.4259 7.8971 46.4286 7.89432C46.4314 7.88599 46.4397 7.88043 46.4481 7.88043C46.4509 7.88043 46.5009 7.8721 46.5425 7.81377C46.5842 7.74988 46.5953 7.64988 46.5675 7.5221C46.5648 7.51377 46.5675 7.50543 46.5731 7.49988C46.6064 7.46932 46.6398 7.45821 46.6675 7.46099C46.7036 7.46654 46.7203 7.49988 46.7203 7.50266C46.7203 7.50543 46.7231 7.50821 46.7231 7.50821C46.7231 7.50821 46.7342 7.5971 46.7925 7.64154C46.8231 7.66377 46.8592 7.66654 46.9036 7.65543C46.9092 7.65266 46.9147 7.65543 46.9203 7.65821C46.9453 7.6721 46.962 7.69154 46.9647 7.71654C46.9703 7.74988 46.9592 7.78321 46.9425 7.80821C46.9786 7.79988 47.0259 7.77766 47.0481 7.72766C47.087 7.63043 47.0897 7.55543 47.062 7.49432C47.0397 7.44432 46.9925 7.40821 46.9259 7.38599C46.9203 7.38321 46.912 7.37765 46.912 7.3721C46.9009 7.33877 46.9064 7.31932 46.9175 7.30543C46.9453 7.26377 47.0147 7.25821 47.0231 7.25821C47.0259 7.25821 47.0286 7.25821 47.0314 7.25821C47.0453 7.26377 47.137 7.29154 47.1953 7.33877C47.1898 7.32488 47.1814 7.30821 47.1731 7.29154C47.1536 7.26099 47.1175 7.22765 47.0592 7.21654C46.8897 7.21099 46.8064 7.18321 46.8064 7.13599C46.8064 7.1221 46.7731 6.65265 46.7536 6.48321L46.4509 6.50265L46.4925 7.20821C46.4925 7.21377 46.4925 7.21932 46.487 7.2221C46.487 7.22488 46.462 7.26099 46.4397 7.28321C46.4286 7.2971 46.412 7.29432 46.3592 7.29432C46.2648 7.29154 46.0703 7.28877 45.9897 7.38599C45.9536 7.42765 45.9453 7.48877 45.9564 7.56377C45.9564 7.56654 45.9564 7.56654 45.9564 7.56932C45.9564 7.68877 45.9592 7.73321 46.012 7.78877C46.0009 7.7221 46.0064 7.67765 46.0064 7.67488C46.0092 7.66654 46.012 7.66099 46.0203 7.65821C46.0259 7.65266 46.0342 7.65266 46.0425 7.65821C46.0481 7.66099 46.1786 7.72766 46.312 7.51932C46.3175 7.51932 46.3259 7.51377 46.3342 7.51377ZM46.8509 7.14154C46.8509 7.14154 46.8509 7.14432 46.8509 7.14154V7.14154Z" fill="black"/>
<path d="M47.1787 7.1084C47.1815 7.07507 46.8093 6.61396 46.901 6.55562C46.9954 6.57229 47.151 6.7834 47.276 6.71396C47.2371 6.6334 47.126 6.67784 46.9982 6.46951C46.8704 6.2334 46.8537 5.87784 46.4037 5.48896C46.6926 5.89729 47.3482 6.13896 47.376 6.01951C47.4037 5.90007 46.7982 5.44729 46.8287 5.33896C46.9482 5.56118 47.5565 6.06118 48.0065 6.01951C48.0371 5.92229 47.6398 5.73062 47.5371 5.55007C47.251 5.37507 46.4843 4.76673 46.4704 4.62784C46.1926 4.25562 46.0176 4.14451 45.9371 4.10007C45.9037 4.06673 45.8982 4.0334 45.8926 4.01396C45.7204 3.64173 45.9482 3.51951 46.0843 3.50284C46.1926 3.49173 46.226 3.5084 46.3037 3.46951C46.2093 3.43618 46.1149 3.40562 46.0204 3.37229C46.1426 3.45284 46.4565 3.3834 46.3899 3.61951C46.526 3.57229 46.8176 3.25284 46.0593 3.18062C45.8121 2.92229 44.7954 2.77229 44.5399 3.9084C44.5593 3.92229 44.5704 3.93896 44.6371 3.98062C44.3149 3.83618 43.451 3.72784 43.1371 3.68062C42.2926 3.4584 41.4176 2.91951 41.3315 2.98618C41.2176 3.03062 41.8426 3.56396 41.8093 3.57507C41.2704 3.28618 40.776 3.0834 40.3176 2.89451C39.9954 2.7834 39.6732 2.52507 39.6371 2.57507C39.5204 2.80007 40.1537 3.36673 40.2732 3.4334C40.3899 3.49729 41.3204 3.89451 41.3093 3.89729C39.9065 3.31396 39.6732 3.2084 39.601 3.14173C39.476 3.11673 39.176 2.74451 39.0926 2.76673C39.0482 2.8084 39.1399 3.39729 39.8093 3.66118C39.9176 3.7334 41.2426 4.16951 41.2287 4.20284C41.2232 4.21118 39.7121 3.63062 39.6538 3.6084C39.3621 3.50284 39.0038 3.13618 38.9371 3.17784C38.8732 3.21673 39.101 3.61396 39.3982 3.73896C39.5538 3.80007 40.1454 4.07229 40.6788 4.24173C40.7121 4.25284 39.7176 3.89729 39.2399 3.71118C39.0232 3.60284 38.9204 3.46396 38.8871 3.49173C38.8371 3.52229 38.9676 4.1084 40.5038 4.44173C40.5454 4.45562 41.0426 4.3334 41.0204 4.35007C41.0149 4.35562 40.5232 4.45284 40.476 4.44729C40.4343 4.44173 40.1649 4.47784 40.1593 4.48896C40.1426 4.53062 40.2565 4.73896 41.051 4.69451C41.151 4.68896 41.7037 4.51118 41.6565 4.55007C41.6343 4.56951 40.9065 4.78618 40.851 4.78896C40.8038 4.79451 40.5482 4.81951 40.5371 4.84451C40.526 4.87784 40.726 5.02784 41.151 5.05284C41.5288 5.07229 42.2426 4.84173 42.2315 4.85562C42.2176 4.86951 41.5426 5.0834 41.5232 5.09451C41.501 5.1084 41.251 5.11951 41.2426 5.13618C41.2232 5.17784 41.601 5.50284 42.7176 5.1584C42.6065 5.29729 42.0649 5.39173 42.0649 5.41673C42.0621 5.4334 42.1843 5.54451 42.3732 5.58062C42.4676 5.60007 42.5982 5.59451 42.7149 5.57784C42.926 5.53896 43.151 5.46118 43.4371 5.21951C43.4704 5.29451 42.726 5.64173 42.7621 5.67507C42.9232 5.81118 43.4593 5.6584 43.4954 5.63896C43.5287 5.62229 44.5287 5.10562 44.526 5.04451C44.5399 5.12229 43.2399 5.77229 43.2537 5.79729C43.3371 5.91951 43.7843 5.79173 43.8037 5.78062C43.826 5.76951 44.3704 5.49729 44.3871 5.49173C44.401 5.4834 43.7454 5.84451 43.8037 5.90007C43.776 6.1334 44.8315 5.73896 44.9149 5.68896C44.9565 5.66396 44.4093 5.9084 44.4065 6.02784C44.5815 6.30284 45.1482 6.21396 45.2371 6.15562C45.2787 6.12507 45.1843 6.3584 45.2149 6.33896C45.226 6.3334 45.3371 6.21118 45.3787 6.12507C45.3649 6.20284 45.3037 6.32229 45.2676 6.4584C45.2315 6.59451 45.2204 6.75284 45.1704 6.91951C45.1593 6.99173 45.5176 6.77784 45.4649 6.26396C45.4954 6.53062 45.351 7.03062 45.3899 7.05562C45.4649 7.1084 45.676 6.8084 45.6954 6.60284C45.7565 6.70562 45.8871 6.91951 46.001 6.96951C45.9871 6.81396 46.0037 6.82229 45.951 6.66673C45.9815 6.46396 45.9843 6.1834 45.9926 5.86396C46.2982 6.39729 46.4204 6.62507 46.3343 7.0334C46.4232 7.06673 46.5704 6.74729 46.5565 6.5834C46.6676 7.05284 47.1704 7.11951 47.1787 7.1084Z" fill="#EF7D00"/>
<path d="M47.1677 7.13303C47.1593 7.13303 47.1482 7.13303 47.1343 7.13025C47.1149 7.12748 46.7204 7.06637 46.5649 6.71081C46.5371 6.84692 46.4649 6.9997 46.3954 7.05248C46.3621 7.0747 46.3343 7.0747 46.3204 7.06637C46.3093 7.06081 46.3038 7.05248 46.3065 7.03859C46.3843 6.66914 46.2927 6.45803 46.0121 5.96081C46.0065 6.24414 45.9982 6.48581 45.9732 6.67192C46.0093 6.78581 46.0121 6.81359 46.0149 6.88303C46.0177 6.90525 46.0177 6.93581 46.0204 6.97192C46.0204 6.98025 46.0177 6.98859 46.0093 6.99414C46.0038 6.9997 45.9954 6.9997 45.9871 6.99692C45.8843 6.95248 45.776 6.78581 45.7038 6.6747C45.6621 6.84414 45.5315 7.04137 45.4427 7.08303C45.4093 7.09692 45.3871 7.09137 45.3732 7.08025C45.3482 7.06359 45.351 7.01914 45.3871 6.82192C45.3927 6.7997 45.3954 6.78025 45.3982 6.75525C45.3454 6.84692 45.2843 6.91081 45.2315 6.94414C45.1982 6.96359 45.1732 6.96637 45.1565 6.95803C45.1454 6.95248 45.1399 6.93581 45.1427 6.92192C45.1427 6.91914 45.1427 6.91914 45.1427 6.91914C45.1704 6.82748 45.1843 6.73581 45.201 6.65248C45.2121 6.58581 45.2232 6.52192 45.2399 6.46081C45.2565 6.3997 45.2788 6.33859 45.2982 6.28859C45.2649 6.32748 45.2371 6.35803 45.2232 6.36914C45.2093 6.37748 45.1982 6.3747 45.1899 6.36914C45.1704 6.35525 45.176 6.33025 45.1954 6.26081C45.201 6.24414 45.2065 6.21914 45.2093 6.1997C45.1149 6.23859 44.8871 6.27192 44.6843 6.23303C44.5399 6.20525 44.4371 6.14414 44.376 6.0497C44.3732 6.04414 44.3704 6.04136 44.3704 6.03581C44.3704 5.98581 44.4399 5.9247 44.5315 5.86636C44.2538 5.96081 43.9093 6.0497 43.8038 5.98303C43.7815 5.96914 43.7677 5.94414 43.7677 5.91359C43.7649 5.90803 43.7621 5.8997 43.7649 5.89414C43.7677 5.86914 43.8093 5.82748 43.8871 5.76914C43.8399 5.79136 43.8065 5.80803 43.8038 5.81081C43.7982 5.81359 43.3232 5.96636 43.2232 5.82192C43.2232 5.82192 43.2232 5.81914 43.2204 5.81914C43.2093 5.79692 43.2065 5.79136 43.3371 5.71636C43.1538 5.76081 42.8565 5.80525 42.7343 5.70248C42.7288 5.69692 42.7232 5.68859 42.726 5.67747C42.7288 5.65803 42.7482 5.63859 42.8538 5.57748C42.801 5.59136 42.7565 5.5997 42.7093 5.61081C42.5732 5.63025 42.4482 5.63025 42.3565 5.61359C42.1843 5.58025 42.0315 5.4747 42.0288 5.4247C42.0288 5.39692 42.0482 5.39136 42.1843 5.35525C42.2927 5.3247 42.4482 5.28581 42.5621 5.23303C41.5288 5.51636 41.2288 5.19136 41.226 5.18859C41.2093 5.16636 41.2038 5.1497 41.2093 5.13581C41.2204 5.11636 41.2427 5.11359 41.3871 5.09692C41.4288 5.09136 41.4899 5.08581 41.501 5.08303C41.5149 5.07747 41.5538 5.06359 41.676 5.02192C41.4871 5.06081 41.2871 5.09136 41.1371 5.08303C40.7482 5.06081 40.5454 4.93859 40.5093 4.88025C40.501 4.86636 40.4982 4.85525 40.501 4.84136C40.5093 4.81914 40.5427 4.80247 40.7982 4.77192C40.8121 4.76914 40.826 4.76914 40.8315 4.76636C40.8454 4.76359 40.9149 4.74692 41.0038 4.72192C40.3538 4.75525 40.1815 4.61359 40.1371 4.5497C40.1204 4.5247 40.1149 4.49692 40.1204 4.48025C40.1288 4.45525 40.2399 4.43859 40.3343 4.43025C39.8371 4.31081 39.4482 4.15247 39.1788 3.95803C38.9538 3.79414 38.8565 3.63581 38.8399 3.54136C38.8343 3.4997 38.8454 3.48025 38.8538 3.47192C38.8843 3.44692 38.9232 3.47747 38.9871 3.5247C39.0454 3.56914 39.1232 3.63025 39.2288 3.68581C39.2371 3.69136 39.2482 3.69136 39.2565 3.69692C39.0454 3.55803 38.8871 3.30803 38.8788 3.20525C38.876 3.17192 38.8899 3.15803 38.901 3.15247C38.9427 3.12469 39.0177 3.17747 39.1815 3.2997C39.251 3.35247 39.326 3.40803 39.4065 3.46081C39.1871 3.27747 39.076 3.05247 39.0454 2.88025C39.0371 2.83025 39.0315 2.76636 39.0565 2.74414C39.0593 2.74136 39.0621 2.73858 39.0649 2.73858C39.1177 2.72469 39.2038 2.79969 39.3371 2.92192C39.426 3.00525 39.5315 3.10247 39.5843 3.11358C39.5899 3.11358 39.5927 3.11636 39.5954 3.11914C39.6371 3.16081 39.7593 3.22192 40.1621 3.39692C39.9565 3.23303 39.4788 2.77192 39.5927 2.55803L39.5954 2.55525C39.626 2.51358 39.6954 2.55525 39.8538 2.64414C39.9815 2.71636 40.1427 2.80803 40.3038 2.86358C40.7538 3.04692 41.1982 3.23303 41.6871 3.48581C41.6677 3.46636 41.6454 3.44692 41.626 3.4247C41.376 3.17747 41.2593 3.04969 41.2732 2.98581C41.276 2.97192 41.2843 2.96081 41.2982 2.95247C41.3482 2.91914 41.4899 2.98581 41.826 3.13858C42.176 3.2997 42.651 3.51914 43.1204 3.64414C43.1565 3.6497 43.201 3.65803 43.2538 3.66358C43.5843 3.71081 44.1649 3.79136 44.4954 3.89692C44.4954 3.89414 44.4954 3.89136 44.4954 3.88858C44.6315 3.28025 44.9704 3.06636 45.2315 2.99414C45.5538 2.90525 45.9038 2.99969 46.0482 3.14414C46.3732 3.17747 46.5482 3.25803 46.5621 3.38303C46.576 3.49692 46.451 3.60247 46.376 3.62747C46.3677 3.63025 46.3593 3.62747 46.3538 3.62192C46.3482 3.61636 46.3454 3.60803 46.3482 3.5997C46.3621 3.55803 46.3593 3.52192 46.3427 3.4997C46.3343 3.48581 46.3204 3.47747 46.3065 3.46636C46.3038 3.47192 46.301 3.47747 46.2927 3.48025C46.2343 3.50525 46.1982 3.50525 46.1482 3.50803C46.126 3.50803 46.0954 3.51081 46.0621 3.51358C46.0288 3.51914 45.9177 3.54136 45.8593 3.64136C45.8121 3.72747 45.8232 3.84692 45.8899 3.99414C45.8899 3.99414 45.8899 3.99692 45.8927 3.9997L45.8954 4.00525C45.901 4.0247 45.9093 4.04692 45.9315 4.0747C46.0871 4.15803 46.2677 4.33858 46.4704 4.60803C46.4732 4.61358 46.476 4.61636 46.476 4.62192C46.4899 4.73859 47.2093 5.32747 47.5315 5.52748C47.5371 5.53025 47.5371 5.53303 47.5399 5.53581C47.5871 5.61914 47.7038 5.70803 47.8065 5.78581C47.9371 5.88581 48.0343 5.95803 48.0121 6.0247C48.0093 6.03303 48.001 6.03859 47.9899 6.04136C47.9732 6.04414 47.9538 6.04414 47.9371 6.04414C47.6954 6.04414 47.4149 5.90525 47.1927 5.74414C47.3232 5.87748 47.3982 5.96636 47.3843 6.02192C47.3788 6.03581 47.3704 6.06081 47.3288 6.06914C47.226 6.08859 46.9677 5.9997 46.726 5.83581C46.8204 5.98303 46.8704 6.12192 46.9149 6.24414C46.9427 6.32192 46.9677 6.39414 47.0038 6.45525C47.076 6.5747 47.1399 6.60525 47.1954 6.62748C47.2315 6.64414 47.2649 6.66081 47.2843 6.6997C47.2899 6.71081 47.2843 6.7247 47.2732 6.73303C47.1788 6.78581 47.0788 6.70803 46.9954 6.64414C46.9593 6.61636 46.9232 6.59136 46.8982 6.58025C46.8871 6.64414 47.0315 6.85525 47.1093 6.96914C47.1788 7.06914 47.1927 7.09137 47.1899 7.10803C47.1899 7.11359 47.1871 7.11359 47.1843 7.11914C47.1927 7.13025 47.1843 7.13303 47.1677 7.13303ZM46.551 6.56914C46.5621 6.56914 46.5732 6.5747 46.5732 6.58581C46.6677 6.95525 47.0204 7.06359 47.1371 7.08025C47.1232 7.05803 47.101 7.0247 47.0788 6.99414C46.951 6.80803 46.8482 6.64414 46.8621 6.56636C46.8677 6.5497 46.876 6.53581 46.8871 6.53025C46.8927 6.5247 46.8982 6.5247 46.9038 6.5247C46.9454 6.53303 46.9871 6.56636 47.0371 6.60248C47.101 6.65248 47.1732 6.70525 47.2371 6.69692C47.226 6.68859 47.2121 6.68025 47.1899 6.66914C47.1343 6.64414 47.0593 6.60803 46.9788 6.47748C46.9427 6.41081 46.9177 6.33859 46.8871 6.25803C46.8315 6.10803 46.7677 5.93303 46.6204 5.74414C46.5315 5.67192 46.451 5.58859 46.3871 5.4997C46.3815 5.48859 46.3815 5.47747 46.3927 5.46636C46.401 5.45803 46.4149 5.45803 46.426 5.46636C46.5232 5.5497 46.5982 5.63025 46.6593 5.71081C46.9204 5.92192 47.2427 6.03859 47.3399 6.01914C47.3454 6.01914 47.3565 6.01359 47.3593 6.00803C47.3704 5.96081 47.2038 5.7997 47.0843 5.68025C46.9038 5.50248 46.7927 5.39136 46.8121 5.32747C46.8149 5.31914 46.8232 5.31081 46.8343 5.31081C46.8454 5.30803 46.8538 5.31636 46.8565 5.3247C46.9732 5.54136 47.5538 6.01636 47.9871 5.99414C47.9704 5.95248 47.8732 5.87748 47.801 5.82192C47.6954 5.74136 47.5815 5.65248 47.526 5.56359C47.2677 5.40247 46.4927 4.80803 46.4538 4.63303C46.2565 4.36914 46.0815 4.19414 45.9315 4.11636C45.9288 4.11358 45.926 4.11358 45.926 4.11081C45.8927 4.0747 45.8843 4.04136 45.876 4.01914V4.01636C45.801 3.85525 45.7927 3.72192 45.8482 3.62192C45.9149 3.50247 46.0482 3.4747 46.0871 3.46914C46.126 3.46358 46.1538 3.46358 46.176 3.46358C46.1982 3.46358 46.2177 3.46081 46.2343 3.45803C46.2121 3.4497 46.1871 3.44136 46.1649 3.43303C46.1538 3.42747 46.1427 3.42747 46.1315 3.42192C46.0899 3.41358 46.0482 3.40247 46.0177 3.38025C46.0065 3.3747 46.0038 3.36081 46.0093 3.3497C46.0149 3.33858 46.0288 3.33581 46.0399 3.33581C46.0732 3.3497 46.1093 3.36081 46.1454 3.37192C46.1621 3.37747 46.1815 3.37747 46.201 3.38303C46.2871 3.39692 46.3732 3.41081 46.4121 3.47192C46.426 3.49692 46.4343 3.5247 46.4315 3.56081C46.4927 3.5247 46.5538 3.45247 46.5454 3.38858C46.5399 3.33025 46.4649 3.22747 46.0649 3.18858C46.0593 3.18858 46.0538 3.18581 46.051 3.18303C45.9232 3.04692 45.5871 2.95247 45.2788 3.03858C45.0315 3.10803 44.7121 3.30803 44.5788 3.88303C44.5815 3.88581 44.5815 3.88581 44.5843 3.88858C44.5982 3.90247 44.6177 3.91636 44.6649 3.9497C44.676 3.95525 44.6788 3.97192 44.6704 3.98303C44.6621 3.99414 44.651 3.99692 44.6399 3.99414C44.3621 3.86914 43.6593 3.76914 43.2815 3.71636C43.2288 3.71081 43.1843 3.70247 43.1454 3.69692H43.1427C42.6704 3.57192 42.1899 3.3497 41.8399 3.18581C41.6204 3.08581 41.3954 2.98025 41.3593 2.99414C41.3565 2.99692 41.3565 2.99692 41.3538 2.99692C41.3482 3.04969 41.5927 3.28858 41.6954 3.38858C41.8399 3.53025 41.851 3.54414 41.8482 3.56636C41.8454 3.5747 41.8399 3.58025 41.8315 3.58581C41.826 3.58858 41.8177 3.58858 41.8121 3.58303C41.2815 3.2997 40.8038 3.09969 40.3232 2.90525C40.1593 2.84969 39.9954 2.75525 39.8649 2.68025C39.7843 2.63581 39.6954 2.58303 39.6677 2.58303C39.5788 2.78858 40.176 3.33581 40.2982 3.40247C40.3593 3.43581 40.6343 3.55803 40.8788 3.66358C41.1732 3.79136 41.2815 3.84136 41.3232 3.86358C41.326 3.86358 41.3288 3.86636 41.3288 3.86636V3.86914C41.3427 3.88025 41.3427 3.88303 41.3427 3.89136C41.3427 3.90247 41.3371 3.91081 41.326 3.91358C41.3204 3.91636 41.3121 3.91636 41.3093 3.91358C39.9538 3.34969 39.6815 3.23025 39.5982 3.15803C39.5315 3.13858 39.4343 3.04969 39.3343 2.95525C39.2621 2.88858 39.1565 2.79136 39.1149 2.78303C39.1093 2.80525 39.1149 2.87747 39.1482 2.97747C39.1954 3.11358 39.3593 3.4497 39.8204 3.63025C39.8232 3.63025 39.8232 3.63303 39.826 3.63303C39.8399 3.64136 39.8788 3.65803 39.9315 3.68025C39.9565 3.69136 39.9843 3.70247 40.0149 3.71358C40.0399 3.72192 40.0677 3.73303 40.0954 3.74414C40.2288 3.79414 40.3899 3.85247 40.5454 3.90803C41.1593 4.12747 41.2454 4.16358 41.2565 4.18858C41.2593 4.19414 41.2593 4.20247 41.2565 4.20803C41.2538 4.21358 41.251 4.21914 41.2427 4.22192C41.2288 4.22747 41.226 4.23025 40.0788 3.79414C40.0177 3.77192 39.9621 3.7497 39.9149 3.73303C39.7704 3.67747 39.6621 3.63581 39.6482 3.63303C39.4927 3.57747 39.3177 3.44692 39.1788 3.34414C39.0899 3.28025 38.9843 3.19969 38.9538 3.19969C38.951 3.20525 38.9538 3.22192 38.9649 3.25247C39.0177 3.38858 39.1982 3.62747 39.4093 3.71636C39.4427 3.73025 39.4899 3.7497 39.5538 3.77747C39.6871 3.83303 39.876 3.91636 40.0927 4.00247C40.276 4.06914 40.4427 4.13025 40.551 4.16914L40.651 4.20525C40.6649 4.21081 40.6732 4.21358 40.6815 4.21636C40.6843 4.21636 40.6871 4.21636 40.6871 4.21914C40.7065 4.22747 40.7093 4.23303 40.7038 4.2497C40.6982 4.26358 40.6843 4.26914 40.6704 4.26358C40.4704 4.1997 40.2621 4.12192 40.0732 4.04692C39.7843 3.94136 39.451 3.81914 39.2315 3.73303H39.2288C39.1177 3.6747 39.0371 3.61358 38.976 3.56636C38.9482 3.54414 38.9177 3.52192 38.9038 3.51358C38.9038 3.52747 38.9065 3.56081 38.9371 3.61636C39.0177 3.77192 39.3343 4.16358 40.5093 4.41914C40.5121 4.41914 40.5121 4.41914 40.5149 4.42192C40.5177 4.42192 40.5204 4.42192 40.5288 4.42192C40.5677 4.41636 40.6232 4.40803 40.6843 4.39692C40.7454 4.38303 40.8121 4.37192 40.8593 4.36081C41.0399 4.32192 41.0399 4.32192 41.0482 4.34414C41.0538 4.35525 41.0482 4.36636 41.0371 4.3747C41.026 4.38303 40.8565 4.41636 40.7065 4.44136C40.6121 4.46081 40.5593 4.46914 40.5288 4.47192C40.501 4.47747 40.4843 4.47747 40.476 4.47747C40.4427 4.47192 40.2399 4.49692 40.1871 4.51081C40.1899 4.51636 40.1954 4.52747 40.2065 4.54136C40.2565 4.59414 40.4371 4.71359 41.051 4.67747C41.0982 4.6747 41.2538 4.63025 41.3927 4.59136C41.6704 4.51359 41.6704 4.51636 41.6815 4.53859C41.6843 4.54136 41.6899 4.55803 41.6732 4.57192C41.6371 4.60247 40.8982 4.81359 40.8538 4.81914C40.8482 4.81914 40.8343 4.82192 40.8204 4.8247C40.6871 4.83859 40.601 4.85247 40.5704 4.86359C40.6093 4.90525 40.7927 5.01636 41.1565 5.03581C41.4427 5.0497 41.926 4.91914 42.1343 4.86359C42.2454 4.83303 42.2454 4.83303 42.2565 4.8497C42.2621 4.85803 42.2621 4.87192 42.251 4.88025C42.2427 4.88859 42.2204 4.8997 41.8427 5.02192C41.7065 5.06636 41.5565 5.11636 41.5371 5.1247C41.5371 5.1247 41.5371 5.1247 41.5343 5.1247C41.5204 5.13025 41.4871 5.13581 41.4038 5.14414C41.3621 5.1497 41.3065 5.15525 41.276 5.15803C41.2871 5.16914 41.3093 5.18859 41.3454 5.20803C41.4732 5.27747 41.8649 5.40525 42.7093 5.14414C42.7204 5.14136 42.7315 5.14414 42.7371 5.15247C42.7427 5.16081 42.7427 5.1747 42.7343 5.18025C42.6538 5.28025 42.3843 5.35247 42.2065 5.3997C42.1649 5.41081 42.1204 5.42192 42.0982 5.43303C42.1315 5.46636 42.2315 5.53581 42.376 5.56636C42.4593 5.58303 42.5815 5.58303 42.7093 5.56359C42.9038 5.52748 43.126 5.46081 43.4177 5.21081C43.4232 5.20525 43.4315 5.20525 43.4399 5.20525C43.4454 5.20803 43.4538 5.21081 43.4565 5.21914C43.4788 5.2747 43.376 5.34414 43.0288 5.53581C42.9399 5.58859 42.826 5.64692 42.7899 5.67747C42.9538 5.78025 43.4371 5.64692 43.4788 5.6247C43.8149 5.45247 44.451 5.10803 44.4954 5.04692C44.4982 5.03581 44.5065 5.03025 44.5177 5.02747C44.5315 5.0247 44.5399 5.03303 44.5427 5.04692C44.5427 5.0497 44.5427 5.05247 44.5427 5.05247C44.5427 5.05803 44.5427 5.06359 44.5371 5.06914C44.5065 5.1247 44.3288 5.23303 43.6815 5.58025C43.5093 5.67192 43.3343 5.76636 43.2815 5.80248C43.3788 5.8747 43.751 5.77748 43.7843 5.76081C43.7954 5.75525 43.9482 5.67748 44.0982 5.60525C44.226 5.54136 44.3565 5.47747 44.3649 5.47192C44.376 5.46636 44.3899 5.46914 44.3982 5.48025C44.401 5.48581 44.4065 5.4997 44.3871 5.51359C44.3871 5.51359 44.3871 5.51359 44.3843 5.51359C44.3843 5.51359 44.3815 5.51359 44.3815 5.51636C44.0121 5.72192 43.8315 5.85248 43.8121 5.88859C43.8149 5.89414 43.8149 5.89692 43.8149 5.90248C43.8121 5.91636 43.8177 5.9247 43.8288 5.93303C43.9454 6.01081 44.5649 5.80248 44.801 5.70525C44.8565 5.67747 44.8982 5.66359 44.8982 5.66359C44.9093 5.66081 44.9204 5.66914 44.926 5.67747C44.9288 5.68025 44.9315 5.69692 44.9121 5.70803C44.901 5.71359 44.8677 5.73025 44.8177 5.7497C44.6788 5.81914 44.4343 5.95248 44.4177 6.01914C44.4704 6.09692 44.5621 6.14692 44.6899 6.1747C44.9093 6.21636 45.1593 6.16636 45.2093 6.13303C45.2288 6.11914 45.2427 6.12748 45.2454 6.13025C45.2677 6.14414 45.2593 6.1747 45.2371 6.25803C45.2371 6.26081 45.2371 6.26359 45.2343 6.26359C45.2704 6.22192 45.3204 6.15803 45.3454 6.10803C45.351 6.09692 45.3621 6.09414 45.376 6.09414C45.3871 6.0997 45.3954 6.10803 45.3927 6.12192C45.3871 6.16359 45.3677 6.21081 45.3454 6.26636C45.3232 6.3247 45.2982 6.38859 45.2815 6.45803C45.2677 6.51914 45.2565 6.58025 45.2454 6.64414C45.2315 6.7247 45.2177 6.80803 45.1927 6.89414C45.2093 6.88581 45.2399 6.86359 45.2732 6.82748C45.3177 6.77748 45.4038 6.66359 45.4288 6.4747C45.4343 6.41081 45.4371 6.34692 45.4343 6.29414C45.4343 6.28025 45.4315 6.27192 45.4315 6.25803C45.4288 6.24414 45.4399 6.23303 45.4538 6.23303C45.4677 6.23025 45.4788 6.24136 45.4788 6.25525C45.4815 6.26914 45.4815 6.28025 45.4843 6.29692C45.4899 6.35803 45.4871 6.41636 45.4788 6.46914C45.4677 6.58859 45.4454 6.71636 45.426 6.81914C45.4121 6.90803 45.3927 7.00525 45.3982 7.03303C45.4038 7.03303 45.4121 7.03025 45.4149 7.02748C45.501 6.98859 45.6454 6.75248 45.6621 6.59414C45.6621 6.58303 45.6704 6.5747 45.6815 6.57192C45.6927 6.56914 45.7038 6.5747 45.7065 6.58303C45.7565 6.66359 45.8649 6.84692 45.9649 6.91637C45.9649 6.8997 45.9621 6.88303 45.9621 6.87192C45.9565 6.80248 45.9565 6.78025 45.9204 6.66637C45.9177 6.66081 45.9177 6.66081 45.9204 6.65525C45.9454 6.46914 45.9538 6.21914 45.9593 5.92748L45.9621 5.85803C45.9621 5.84692 45.9704 5.83859 45.9788 5.83581C45.9899 5.83303 46.001 5.83859 46.0065 5.84692C46.2954 6.35525 46.4315 6.59414 46.3565 7.00248C46.3593 6.9997 46.3621 6.99692 46.3649 6.99692C46.4454 6.93859 46.5343 6.70248 46.526 6.58025C46.526 6.56636 46.5343 6.55803 46.5454 6.55525C46.551 6.56914 46.551 6.56914 46.551 6.56914Z" fill="black"/>
<path d="M42.1089 3.71407C42.1089 3.71407 41.9006 3.85852 41.6451 3.85018C41.7089 4.0863 42.2423 3.90574 42.2423 3.90574C42.2423 3.90574 41.9839 4.16685 41.8006 4.2113C41.9117 4.29463 42.3756 4.26685 42.4534 4.22519C42.5312 4.18352 42.6701 4.01685 42.6701 4.01685C42.6701 4.01685 42.1923 4.52241 42.1228 4.51963C42.1145 4.58074 42.6256 4.55852 42.7284 4.46685C42.8339 4.37796 43.1006 4.24741 43.1006 4.24741C43.1006 4.24741 42.4034 4.69463 42.3701 4.69463C42.6312 4.75852 43.1562 4.61963 43.4923 4.42796C42.9951 4.73352 42.9506 4.7863 42.6951 4.88908C42.9201 4.9363 43.0367 5.07519 43.7978 4.77241C44.2339 4.58074 44.484 4.2363 44.484 4.2363C44.2117 4.56963 43.7867 4.85296 43.3089 5.13074C43.2812 5.18352 43.8145 5.38908 44.4951 4.73907" fill="#EF7D00"/>
<path d="M43.5596 5.22211C43.4262 5.22211 43.3401 5.18878 43.3123 5.16934C43.2818 5.14711 43.2901 5.12211 43.2929 5.11656C43.2957 5.111 43.2984 5.111 43.3012 5.10822C43.4707 5.011 43.6401 4.90545 43.8012 4.79434C43.1623 5.04711 42.9762 4.99156 42.7957 4.93878C42.7623 4.92767 42.7262 4.91934 42.6901 4.911C42.679 4.90822 42.6734 4.89989 42.6707 4.88878C42.6707 4.87767 42.6762 4.86656 42.6846 4.86656C42.8568 4.79711 42.9318 4.74989 43.129 4.62489C43.1429 4.61656 43.154 4.60822 43.1679 4.60267C42.8818 4.70822 42.554 4.76656 42.3596 4.71934C42.3457 4.71656 42.3401 4.70545 42.3401 4.69434C42.3429 4.68322 42.3512 4.67489 42.3623 4.67211C42.3818 4.66656 42.4651 4.61656 42.5762 4.54711C42.404 4.58045 42.1707 4.58322 42.1151 4.55267C42.0929 4.53878 42.0929 4.51934 42.0929 4.51378C42.0957 4.49989 42.1068 4.49156 42.1179 4.49434C42.1457 4.48878 42.254 4.39434 42.3846 4.26378C42.2234 4.29434 41.879 4.30545 41.779 4.22767C41.7734 4.22211 41.7679 4.21378 41.7707 4.20545C41.7734 4.19711 41.779 4.18878 41.7873 4.186C41.904 4.15823 42.0568 4.036 42.1457 3.95545C42.0234 3.986 41.8179 4.02489 41.7012 3.961C41.6568 3.93878 41.629 3.90267 41.6151 3.85545C41.6123 3.84989 41.6151 3.84156 41.6207 3.83323C41.6262 3.82767 41.6345 3.82489 41.6401 3.82489C41.8873 3.83323 42.0873 3.69711 42.0901 3.69434C42.1012 3.686 42.1151 3.68878 42.1234 3.69989C42.1318 3.711 42.129 3.72489 42.1179 3.73323C42.1096 3.73878 41.9207 3.86934 41.6762 3.87211C41.6873 3.89156 41.704 3.90545 41.7262 3.91656C41.8818 3.99711 42.229 3.88045 42.2318 3.88045C42.2429 3.87489 42.254 3.88045 42.2596 3.89156C42.2651 3.89989 42.2651 3.91378 42.254 3.92211C42.2429 3.93323 42.0373 4.14156 41.8596 4.21378C42.0123 4.261 42.3707 4.236 42.4373 4.19989C42.4512 4.19156 42.4679 4.18045 42.4846 4.16656C42.5373 4.11378 42.5929 4.05545 42.6484 3.99989C42.6568 3.99156 42.6707 3.98878 42.6818 3.99711C42.6929 4.00545 42.6929 4.01934 42.6846 4.03045C42.679 4.036 42.5957 4.13323 42.5207 4.19711C42.3957 4.32489 42.2484 4.46378 42.1679 4.51934C42.2762 4.53878 42.6234 4.51934 42.7096 4.44989C42.8179 4.361 43.0762 4.23322 43.0873 4.22767C43.0984 4.22211 43.1123 4.22489 43.1207 4.23878C43.1262 4.24989 43.1234 4.26378 43.1123 4.27211C42.7762 4.486 42.554 4.62489 42.4429 4.68878C42.7012 4.711 43.1596 4.59434 43.479 4.41378C43.4901 4.40822 43.504 4.411 43.5123 4.42211C43.5179 4.43322 43.5151 4.44711 43.504 4.45545C43.354 4.54711 43.2457 4.61656 43.1596 4.67211C42.9873 4.78045 42.9068 4.83322 42.7734 4.89156C42.7873 4.89711 42.7957 4.89711 42.8096 4.90267C42.9818 4.95545 43.1623 5.00822 43.7929 4.75822C43.9429 4.69434 44.0707 4.60822 44.1735 4.52767C44.2818 4.43322 44.3846 4.336 44.4679 4.23322C44.4762 4.22211 44.4901 4.21934 44.5012 4.22767C44.5123 4.236 44.5151 4.24989 44.5068 4.261C44.5012 4.26934 44.3901 4.42211 44.1901 4.57767C43.9429 4.78878 43.6429 4.97489 43.3484 5.14989C43.3679 5.161 43.4096 5.17767 43.4762 5.18322C43.6207 5.19989 44.0068 5.18878 44.4846 4.73045C44.4929 4.72211 44.5096 4.72211 44.5179 4.73045C44.5262 4.73878 44.5262 4.75545 44.5179 4.76378C44.1207 5.13322 43.779 5.22211 43.5596 5.22211Z" fill="black"/>
<path d="M45.8085 5.1222C45.8085 5.1222 45.853 5.3222 46.0391 5.4722C46.2224 5.62498 46.2363 5.7722 46.2363 5.7722" fill="#EF7D00"/>
<path d="M46.2364 5.79727C46.2225 5.79727 46.2142 5.78893 46.2142 5.77505C46.2142 5.77227 46.1975 5.63338 46.0253 5.49171C45.8364 5.33616 45.7892 5.13616 45.7864 5.12783C45.7836 5.11394 45.792 5.10283 45.8031 5.10005C45.817 5.09727 45.8281 5.1056 45.8337 5.11671C45.8337 5.11949 45.8809 5.30838 46.0559 5.45282C46.2475 5.60838 46.2614 5.76116 46.2614 5.76671C46.2642 5.7806 46.2531 5.79171 46.2392 5.79171C46.2392 5.79727 46.2364 5.79727 46.2364 5.79727Z" fill="black"/>
<path d="M45.717 3.83062C45.717 3.83062 45.7809 4.0084 45.9698 4.12229C46.1615 4.23618 46.4531 4.59451 46.4754 4.6584C46.4976 4.73618 46.6087 5.28895 46.6004 5.34729" fill="#EF7D00"/>
<path d="M46.6005 5.36948C46.5978 5.36948 46.5978 5.36948 46.595 5.36948C46.5811 5.36671 46.5728 5.35559 46.5755 5.34171C46.5839 5.28893 46.4755 4.74726 46.4505 4.66393C46.4283 4.60282 46.1422 4.25282 45.9561 4.14171C45.7616 4.02504 45.695 3.84726 45.6922 3.83615C45.6866 3.82226 45.695 3.81115 45.7061 3.80559C45.72 3.80004 45.7311 3.80837 45.7366 3.81948C45.7366 3.82226 45.8005 3.9917 45.9783 4.09726C46.1783 4.21393 46.47 4.58059 46.495 4.64448C46.5144 4.71115 46.6311 5.27782 46.6228 5.34448C46.6228 5.36115 46.6116 5.36948 46.6005 5.36948Z" fill="black"/>
<path d="M44.5447 4.10525C44.5586 4.17469 44.2725 4.51358 44.6642 4.91636C44.3114 5.31358 44.3114 5.36358 44.3114 5.36358C44.3114 5.36358 44.5086 5.46358 44.8642 5.1858C45.4503 5.84414 45.2531 6.14691 45.2531 6.14691" fill="#EF7D00"/>
<path d="M45.2501 6.16916C45.2445 6.16916 45.2417 6.16639 45.2362 6.16361C45.2251 6.15805 45.2223 6.14139 45.2306 6.13027C45.2334 6.1275 45.4029 5.83861 44.8584 5.21639C44.5056 5.48305 44.3084 5.38583 44.3001 5.38027C44.2917 5.37472 44.2862 5.36639 44.2862 5.35805C44.2862 5.32194 44.4139 5.15805 44.6306 4.91083C44.3306 4.59139 44.4445 4.30527 44.4973 4.16916C44.5084 4.14416 44.5195 4.11361 44.5195 4.10527C44.5167 4.09138 44.5251 4.08027 44.5389 4.0775C44.5528 4.07472 44.5639 4.08305 44.5667 4.09416C44.5723 4.11638 44.5612 4.14416 44.5445 4.18583C44.4889 4.3275 44.3862 4.58861 44.6806 4.89139C44.689 4.89972 44.689 4.91361 44.6806 4.92472C44.4389 5.19694 44.3639 5.30527 44.3417 5.34139C44.4028 5.35527 44.5751 5.37194 44.8445 5.15805C44.8556 5.14972 44.8667 5.1525 44.8778 5.16083C45.4667 5.82472 45.2778 6.13583 45.2695 6.14972C45.2667 6.16639 45.2584 6.16916 45.2501 6.16916Z" fill="black"/>
<path d="M45.2035 5.68071C45.2035 5.68071 45.1507 5.61127 45.2452 5.34738C45.3313 5.4446 45.4285 5.46405 45.4702 5.50294C45.5118 5.54183 45.9535 5.60016 45.9813 5.87238" fill="#EF7D00"/>
<path d="M45.9813 5.89174C45.9674 5.89174 45.959 5.8834 45.959 5.86951C45.9396 5.67785 45.6868 5.60007 45.5507 5.55562C45.4952 5.53896 45.4702 5.53062 45.4535 5.51673C45.4396 5.50285 45.4202 5.49451 45.3924 5.48062C45.3535 5.46118 45.3035 5.4334 45.2535 5.38896C45.184 5.60007 45.2202 5.66673 45.2202 5.66673C45.2257 5.67785 45.2257 5.69173 45.2146 5.70007C45.2035 5.7084 45.1896 5.70562 45.1813 5.69451C45.1757 5.68618 45.1202 5.60562 45.2202 5.33618C45.2229 5.32785 45.2313 5.32229 45.2368 5.32229C45.2452 5.31951 45.2535 5.32507 45.259 5.32785C45.3118 5.38618 45.3674 5.41396 45.4118 5.43618C45.4396 5.45007 45.4646 5.46396 45.4813 5.47785C45.4868 5.4834 45.5257 5.49451 45.559 5.50562C45.7035 5.55285 45.9757 5.63896 46.0007 5.86118C46.0063 5.87785 45.9952 5.89174 45.9813 5.89174C45.984 5.89174 45.984 5.89174 45.9813 5.89174Z" fill="black"/>
<path d="M45.7231 3.2028C45.7231 3.18336 45.6342 3.00836 45.3036 3.22503C45.4814 3.23614 45.6564 3.33058 45.7231 3.2028Z" fill="#EF7D00"/>
<path d="M45.5973 3.29153C45.5529 3.29153 45.5029 3.28042 45.4529 3.27209C45.4029 3.26098 45.3529 3.25265 45.3001 3.24987C45.289 3.24987 45.2807 3.24153 45.2779 3.2332C45.2751 3.22209 45.2807 3.21098 45.289 3.2082C45.4946 3.07209 45.614 3.0832 45.6779 3.11931C45.7223 3.14154 45.7473 3.18598 45.7473 3.2082C45.7473 3.21376 45.7473 3.21653 45.7446 3.21931C45.7112 3.27487 45.6584 3.29153 45.5973 3.29153ZM45.3751 3.21098C45.4057 3.21653 45.4334 3.22209 45.4612 3.22487C45.5807 3.24709 45.6584 3.2582 45.6973 3.19987C45.6918 3.18876 45.6751 3.16653 45.6418 3.15265C45.5946 3.1332 45.514 3.13042 45.3751 3.21098Z" fill="black"/>
<path d="M48.8872 4.0028C48.9038 4.00836 49.8761 4.20558 50.2038 4.10836C49.7899 4.61391 48.9622 4.27224 48.9622 4.27224C49.3677 4.38336 49.3844 4.3778 49.5149 4.48058C49.5566 4.5778 48.7677 4.53336 48.5066 4.40002C49.2288 4.60836 49.2455 4.59169 49.2705 4.6778C49.3038 4.78891 48.0844 4.64724 47.9816 4.50002C48.3066 4.73058 48.4844 4.7778 48.6622 4.88058C48.4427 4.96947 48.0372 5.05836 47.2899 4.57502C48.2705 5.39447 49.1566 5.34169 49.2955 5.48891C48.9538 5.95002 47.6316 5.21113 47.0233 4.84169C46.4149 4.46947 48.3538 5.74169 48.5344 5.71947C48.4455 5.84724 47.8038 5.73336 47.7622 5.67502" fill="#EF7D00"/>
<path d="M48.2977 5.79724C48.2921 5.79724 48.2921 5.79724 48.2866 5.79724C48.0866 5.79446 47.7727 5.7389 47.7366 5.68335C47.731 5.67224 47.731 5.65835 47.7421 5.65002C47.7532 5.64446 47.7671 5.64446 47.7755 5.65557C47.8005 5.68613 48.1171 5.75835 48.3477 5.74446C48.406 5.74168 48.4421 5.73335 48.4643 5.72502C48.3366 5.68335 48.0643 5.53335 47.6449 5.27502C47.4366 5.14724 46.8893 4.80279 46.8754 4.77501C46.8699 4.76668 46.8727 4.75279 46.881 4.74724C46.8949 4.73335 46.8949 4.73335 47.0255 4.8139C47.5838 5.15557 48.9005 5.89446 49.2532 5.48335C49.2032 5.45002 49.0977 5.42502 48.9588 5.39168C48.581 5.30279 47.9505 5.15279 47.2643 4.58057C47.2532 4.57224 47.2532 4.55835 47.2588 4.54724C47.2671 4.53613 47.281 4.53335 47.2921 4.54168C47.9699 4.98057 48.356 4.94724 48.5949 4.8639C48.5505 4.84168 48.5032 4.81946 48.456 4.79446C48.3366 4.7389 48.2005 4.67502 48.0171 4.54724C47.9838 4.53335 47.9643 4.5139 47.9532 4.50002C47.9477 4.49168 47.9477 4.47779 47.956 4.46946C47.9643 4.46113 47.9782 4.46113 47.9866 4.46668C48.0088 4.48057 48.031 4.49724 48.0505 4.51113C48.1838 4.57224 48.5005 4.63613 48.8338 4.66668C49.0866 4.6889 49.2116 4.68057 49.2366 4.6639C49.2227 4.61946 49.206 4.61113 48.856 4.5139C48.8421 4.50835 48.831 4.50835 48.8171 4.50279C48.6838 4.48057 48.5643 4.44724 48.4893 4.40835C48.4782 4.40279 48.4755 4.3889 48.4782 4.37779C48.4838 4.36668 48.4949 4.36113 48.5088 4.3639C48.6421 4.40279 48.7505 4.43335 48.8393 4.45835C49.1088 4.50279 49.4199 4.50835 49.481 4.47779C49.4116 4.42224 49.3727 4.40279 49.2671 4.36946C49.0838 4.33613 48.9532 4.28335 48.9505 4.28057C48.9393 4.27502 48.9338 4.2639 48.9366 4.25001C48.9421 4.23613 48.9532 4.23057 48.9671 4.23613C49.0282 4.25279 49.0755 4.26668 49.1227 4.27779C49.1893 4.29446 49.2421 4.31113 49.2838 4.32224C49.5393 4.36668 49.8949 4.37224 50.1338 4.13335C49.7477 4.19168 48.881 4.01668 48.8755 4.01113C48.8616 4.00557 48.8588 3.99168 48.8616 3.97779C48.8671 3.96668 48.881 3.96113 48.8921 3.9639C48.9366 3.97779 49.8838 4.15835 50.1921 4.06668C50.2032 4.0639 50.2143 4.06668 50.2199 4.07779C50.2255 4.08613 50.2255 4.10001 50.2171 4.10557C50.0116 4.35557 49.706 4.40279 49.4449 4.38613C49.4671 4.40001 49.4949 4.41946 49.5227 4.44446C49.5255 4.44724 49.5282 4.45002 49.5282 4.45279C49.5338 4.46946 49.531 4.48613 49.5171 4.50002C49.4782 4.53613 49.3088 4.54446 49.1143 4.53335C49.256 4.57779 49.2699 4.59446 49.2866 4.65001C49.2893 4.65835 49.2921 4.68335 49.2588 4.70279C49.1505 4.75557 48.5643 4.69724 48.2143 4.60835C48.3143 4.66668 48.4005 4.70557 48.4782 4.74446C48.5421 4.77502 48.606 4.80557 48.6671 4.84168C48.6755 4.84724 48.681 4.85557 48.681 4.8639C48.681 4.87224 48.6755 4.88057 48.6671 4.88613C48.4643 4.96946 48.1449 5.03613 47.606 4.76946C48.1616 5.14724 48.6588 5.26113 48.9755 5.33613C49.1477 5.37779 49.2616 5.40557 49.3088 5.45279C49.3171 5.46113 49.3171 5.47502 49.3116 5.48335C49.231 5.59168 49.0977 5.6389 48.931 5.6389C48.5838 5.6389 48.0921 5.43613 47.6421 5.20279C48.0366 5.44168 48.4588 5.68613 48.5255 5.67502C48.5338 5.67224 48.5449 5.68057 48.5477 5.68613C48.5532 5.69168 48.5532 5.70557 48.5477 5.71113C48.5171 5.77224 48.4338 5.79724 48.2977 5.79724Z" fill="black"/>
<path d="M49.1367 4.85823C49.0228 4.87212 48.6811 4.87212 48.6339 4.86379L49.1367 4.85823Z" fill="#EF7D00"/>
<path d="M48.8115 4.89431C48.7227 4.89431 48.6504 4.89153 48.6282 4.88875C48.6143 4.88598 48.606 4.87487 48.6088 4.86098C48.6116 4.84709 48.6227 4.83876 48.6366 4.84153C48.6838 4.84709 49.0227 4.84709 49.1338 4.8332C49.1477 4.83042 49.1588 4.84153 49.1615 4.85542C49.1643 4.86931 49.1532 4.88042 49.1393 4.8832C49.0727 4.88875 48.931 4.89431 48.8115 4.89431Z" fill="black"/>
<path d="M41.8259 3.57751C41.8259 3.57751 42.5676 3.93584 42.8815 3.91084C42.7981 3.98029 42.6731 4.01084 42.6731 4.01084C42.7537 4.0414 42.9676 4.14695 43.2954 4.08029C43.2148 4.14973 43.1148 4.23306 43.1148 4.23306C43.1148 4.23306 43.3954 4.33029 43.712 4.17751C43.6148 4.28584 43.5593 4.36917 43.5593 4.36917L43.7787 4.38306" fill="#EF7D00"/>
<path d="M43.7782 4.40242L43.556 4.38853C43.5476 4.38853 43.5393 4.38297 43.5365 4.37464C43.531 4.36631 43.5337 4.35797 43.5393 4.35242C43.5421 4.34964 43.5726 4.3052 43.6282 4.23575C43.3449 4.33297 43.1171 4.25797 43.106 4.25242C43.0976 4.24964 43.0921 4.24131 43.0921 4.23297C43.0893 4.22464 43.0949 4.21631 43.1004 4.21075C43.1004 4.21075 43.156 4.16631 43.2171 4.11353C42.956 4.14686 42.7726 4.07186 42.6893 4.04131C42.681 4.03575 42.6726 4.03575 42.6671 4.03297C42.656 4.02742 42.6504 4.01909 42.6532 4.01075C42.656 3.99964 42.6615 3.99131 42.6726 3.98853C42.6726 3.98853 42.7421 3.97186 42.8087 3.93575C42.4671 3.91075 41.8476 3.61353 41.8199 3.59964C41.806 3.59408 41.8032 3.5802 41.8087 3.56631C41.8143 3.55242 41.8282 3.54964 41.8421 3.5552C41.8476 3.56075 42.581 3.91075 42.8837 3.88853C42.8949 3.88853 42.9032 3.89409 42.906 3.90242C42.9115 3.91075 42.9087 3.92464 42.9004 3.9302C42.8532 3.97186 42.7921 3.99964 42.7504 4.01631C42.856 4.05797 43.0393 4.11075 43.2949 4.05797C43.306 4.0552 43.3171 4.06075 43.3199 4.07186C43.3254 4.08297 43.3226 4.09409 43.3143 4.09964C43.2643 4.14409 43.206 4.19131 43.1699 4.22186C43.2587 4.24131 43.4754 4.26631 43.706 4.15797C43.7171 4.15242 43.7282 4.1552 43.7365 4.16353C43.7421 4.17186 43.7421 4.18575 43.7337 4.19409C43.6754 4.25797 43.6365 4.31353 43.6087 4.34686L43.7865 4.35797C43.8004 4.35797 43.8087 4.37186 43.8087 4.38297C43.8032 4.39409 43.7921 4.40242 43.7782 4.40242Z" fill="black"/>
</g>
<defs>
<clipPath id="clip0_93_11362">
<rect width="53.3333" height="30" fill="white" transform="translate(0.65625)"/>
</clipPath>
</defs>
</svg>
