<svg width="54" height="30" viewBox="0 0 54 30" fill="none" xmlns="http://www.w3.org/2000/svg">
<g clip-path="url(#clip0_93_11397)">
<path d="M0.319336 0H60.3193V30H0.319336V0Z" fill="#006400"/>
<path d="M0.319336 4.28593H60.3193V25.7137H0.319336V4.28593Z" fill="#FFD200"/>
<path d="M0.319336 8.57245H60.3193V21.4308H0.319336V8.57245Z" fill="#D40000"/>
<path d="M0.319336 12.8582H60.3193V17.1443H0.319336V12.8582Z" fill="black"/>
<path d="M0.319336 0V30L20.3193 15L0.319336 0Z" fill="black"/>
<path d="M-0.395111 31.428V-1.42756L21.5104 15.0002L-0.395111 31.428ZM1.03267 1.428V28.5697L19.1271 15.0002L1.03267 1.428Z" fill="black"/>
<path d="M0.319336 0V30L20.3193 15L0.319336 0Z" fill="white"/>
<path d="M7.92756 7.45829L11.8887 19.65L1.51923 12.1138H14.3387L3.96645 19.6472L7.92756 7.45829Z" fill="#D40000"/>
<path fill-rule="evenodd" clip-rule="evenodd" d="M7.59993 10.414C7.46104 10.2529 7.2527 10.1723 7.04159 10.1862C6.83048 10.2001 6.63604 10.314 6.52215 10.4946C6.4027 10.489 6.28048 10.5001 6.16104 10.5223C6.04715 10.5418 5.9527 10.614 5.89993 10.7085C5.84159 10.8085 5.83882 10.9279 5.88048 11.0335L6.28882 11.0085C6.45548 11.1029 6.56104 11.2807 6.56937 11.4696L6.61659 13.0946C6.53604 13.2557 6.49715 13.4362 6.5027 13.6196C6.50826 13.839 6.52215 14.0585 6.55548 14.2723C6.58882 14.4918 6.51659 14.7112 6.36382 14.8668C6.12493 15.1085 5.92215 15.3807 5.74993 15.6751C5.61659 15.9001 5.64159 16.1835 5.80826 16.3835L6.27493 18.189H9.77492L9.96937 16.6612C10.0499 16.014 10.4221 15.4335 10.9777 15.089L11.1166 15.1279C11.2083 15.1557 11.3083 15.114 11.3499 15.0279C11.3916 14.9418 11.3694 14.8362 11.2916 14.7807L7.98604 12.1946L7.89993 11.1029C7.86659 10.8418 7.76659 10.6057 7.59993 10.414Z" fill="#FFD200"/>
<path d="M7.56697 10.4418L7.62808 10.3807L7.63364 10.3862L7.56697 10.4418ZM7.56142 10.439C7.54197 10.4196 7.52253 10.4001 7.50308 10.3807L7.56142 10.314C7.58642 10.3335 7.60864 10.3557 7.62808 10.3807L7.56142 10.439ZM7.56142 10.314L7.53364 10.3473L7.56142 10.314ZM7.50586 10.3807C7.48642 10.3612 7.46419 10.3473 7.43919 10.3335L7.48642 10.2585C7.51142 10.2779 7.53919 10.2973 7.56142 10.3168L7.50586 10.3807ZM7.43919 10.3335C7.3253 10.2585 7.18642 10.2196 7.04475 10.2279L7.03919 10.1362C7.2003 10.1279 7.35864 10.164 7.49197 10.2557L7.43919 10.3335ZM7.04475 10.2279L7.03642 10.1362H7.04197L7.04475 10.2279ZM7.03364 10.139L7.03919 10.1807L7.03364 10.139ZM7.04475 10.2279C7.01697 10.2279 6.98642 10.2335 6.96419 10.2362L6.94475 10.1501C6.97808 10.1446 7.00586 10.1418 7.03919 10.1362L7.04475 10.2279ZM6.96142 10.2418C6.93364 10.2473 6.90864 10.2557 6.88642 10.2668L6.85864 10.1807C6.88642 10.1723 6.91697 10.1612 6.9503 10.1557L6.96142 10.2418ZM6.88086 10.2612C6.75308 10.3085 6.63919 10.3946 6.56142 10.514L6.48642 10.4668C6.57253 10.3279 6.70031 10.2279 6.85308 10.1751L6.88086 10.2612ZM6.56142 10.514L6.52253 10.5335V10.4918L6.56142 10.514ZM6.52531 10.539C6.51975 10.539 6.51697 10.539 6.51142 10.539V10.4473C6.51697 10.4473 6.51975 10.4473 6.52531 10.4473V10.539ZM6.51142 10.539V10.4973V10.539ZM6.51142 10.539C6.49753 10.539 6.47808 10.539 6.46419 10.539V10.4473C6.48364 10.4473 6.49753 10.4473 6.51697 10.4473L6.51142 10.539ZM6.46142 10.539C6.44753 10.539 6.42808 10.539 6.41419 10.539L6.40864 10.4473C6.42253 10.4473 6.44197 10.4473 6.46142 10.4473V10.539ZM6.41419 10.539C6.33364 10.5446 6.25308 10.5473 6.17253 10.564L6.15864 10.4723C6.24475 10.4585 6.33086 10.4473 6.41697 10.4446V10.539H6.41419ZM6.17253 10.5612L6.15308 10.4751L6.17253 10.5612ZM6.15308 10.4751L6.16142 10.5168L6.15308 10.4751ZM6.16697 10.5612C6.15308 10.5668 6.13919 10.5668 6.12531 10.5696L6.09753 10.4835C6.11697 10.4779 6.13086 10.4751 6.15031 10.4696L6.16697 10.5612ZM6.12808 10.5723C6.11419 10.5779 6.10308 10.5807 6.08919 10.5862L6.05031 10.5057C6.06419 10.5001 6.08364 10.4918 6.09753 10.4862L6.12808 10.5723ZM6.05308 10.5057L6.07253 10.5473L6.05308 10.5057ZM6.09197 10.5862C6.03086 10.614 5.97253 10.6612 5.93919 10.7251L5.85864 10.6835C5.90031 10.6029 5.97253 10.5418 6.05308 10.5029L6.09197 10.5862ZM5.85864 10.6862L5.89753 10.7057L5.85864 10.6862ZM5.93919 10.7279L5.85864 10.689L5.86419 10.6835L5.93919 10.7279ZM5.85864 10.6918L5.89753 10.7112L5.85864 10.6918ZM5.93364 10.7335C5.92808 10.7418 5.91975 10.7585 5.91419 10.7723L5.82808 10.739C5.83364 10.7251 5.84197 10.7057 5.85308 10.6918L5.93364 10.7335ZM5.83364 10.739L5.87531 10.7529L5.83364 10.739ZM5.91975 10.7723C5.91419 10.7862 5.91142 10.8001 5.90586 10.8112L5.81975 10.7918C5.82531 10.7723 5.82808 10.7585 5.83364 10.7446L5.91975 10.7723ZM5.81975 10.7862L5.86142 10.7946L5.81975 10.7862ZM5.90586 10.8085C5.89197 10.8751 5.89753 10.9473 5.91975 11.014L5.83919 11.0473C5.80586 10.9668 5.80031 10.8751 5.81975 10.789L5.90586 10.8085ZM5.88086 11.0751L5.83919 11.0473L5.88086 11.0279V11.0751ZM5.87808 10.9862L6.28642 10.9612L6.29197 11.0529L5.88364 11.0779L5.87808 10.9862ZM6.28642 10.9612L6.31142 10.9668L6.28642 11.0057V10.9612ZM6.31142 10.9668C6.31697 10.9723 6.31975 10.9723 6.31975 10.9723L6.27253 11.0473C6.26697 11.0418 6.26419 11.0418 6.26419 11.0418L6.31142 10.9668ZM6.31975 10.9723C6.34475 10.9862 6.36697 11.0057 6.39197 11.0196L6.33364 11.0918C6.31419 11.0779 6.29475 11.064 6.27253 11.0501L6.31975 10.9723ZM6.39197 11.0196C6.41697 11.039 6.43364 11.0585 6.45308 11.0779L6.38642 11.139C6.37253 11.1196 6.35308 11.1057 6.33364 11.0918L6.39197 11.0196ZM6.45308 11.0807C6.54753 11.1862 6.61142 11.3223 6.61142 11.4668L6.51975 11.4723C6.51419 11.3473 6.46697 11.2307 6.38642 11.1446L6.45308 11.0807ZM6.61419 11.4668L6.66142 13.0918L6.56975 13.0973L6.52253 11.4723L6.61419 11.4668ZM6.65864 13.0918L6.65308 13.1112L6.61419 13.0918H6.65864ZM6.65308 13.114C6.64753 13.1196 6.64753 13.1279 6.64475 13.1335L6.56419 13.0946C6.56975 13.089 6.56975 13.0807 6.57253 13.0696L6.65308 13.114ZM6.56142 13.0946L6.60308 13.114L6.56142 13.0946ZM6.64475 13.1335C6.63642 13.1585 6.62531 13.1751 6.61697 13.2001L6.53086 13.1668C6.53919 13.1418 6.55031 13.1196 6.55864 13.0946L6.64475 13.1335ZM6.53364 13.1668L6.57531 13.1807L6.53364 13.1668ZM6.61419 13.2001C6.60586 13.2251 6.60031 13.2418 6.58919 13.2668L6.50308 13.239C6.51142 13.214 6.51697 13.1918 6.52808 13.1668L6.61419 13.2001ZM6.59197 13.2668C6.55864 13.3807 6.53919 13.4946 6.53919 13.614H6.44753C6.44753 13.4862 6.46697 13.3557 6.50586 13.239L6.59197 13.2668ZM6.54475 13.614C6.54475 13.6223 6.54475 13.6279 6.54475 13.639H6.45308C6.45308 13.6307 6.45308 13.6251 6.45308 13.614H6.54475ZM6.54475 13.639C6.54475 13.6668 6.54475 13.6973 6.55031 13.7307L6.45864 13.7362C6.45864 13.7085 6.45864 13.6751 6.45308 13.6446L6.54475 13.639ZM6.54475 13.7279C6.54475 13.7557 6.55031 13.7862 6.55031 13.8196L6.45864 13.8251C6.45864 13.7973 6.45308 13.764 6.45308 13.7335L6.54475 13.7279ZM6.54753 13.8196C6.55586 13.9668 6.57253 14.114 6.58919 14.2612L6.49753 14.2751C6.47253 14.1223 6.45864 13.9751 6.45031 13.8223L6.54753 13.8196ZM6.59475 14.2612L6.50308 14.2751L6.59475 14.2612ZM6.59475 14.2668L6.55308 14.2723L6.59475 14.2668ZM6.59475 14.2668C6.60031 14.3001 6.60308 14.3335 6.60308 14.3612H6.51419C6.51419 14.3335 6.50864 14.3029 6.50864 14.2751L6.59475 14.2668ZM6.60031 14.3612C6.60031 14.3946 6.60031 14.4223 6.59475 14.4557L6.50308 14.4473C6.50864 14.4196 6.50864 14.389 6.50864 14.3612H6.60031ZM6.59475 14.4585C6.57531 14.6196 6.50308 14.7723 6.38642 14.8973L6.32531 14.8362C6.43086 14.7307 6.49197 14.5973 6.50586 14.4501L6.59475 14.4585ZM6.38642 14.8946L6.35308 14.8612L6.38642 14.8946ZM6.38642 14.8946C6.38642 14.8946 6.39475 14.8862 6.39197 14.889L6.31697 14.8418C6.32253 14.8362 6.32253 14.8362 6.32253 14.8335L6.38642 14.8946ZM6.39475 14.8862L6.38919 14.8918L6.35586 14.8585L6.39475 14.8862ZM6.38642 14.8946C6.35864 14.9279 6.32531 14.9612 6.29197 15.0001L6.22531 14.939C6.25308 14.9057 6.28642 14.8723 6.32531 14.8335L6.38642 14.8946ZM6.22531 14.939L6.25864 14.9668L6.22531 14.939ZM6.29197 14.9946C6.25864 15.0279 6.23086 15.0668 6.19753 15.1001L6.13086 15.0418C6.16419 15.0029 6.19197 14.9696 6.22531 14.9335L6.29197 14.9946ZM6.12808 15.0418L6.16142 15.0696L6.12808 15.0418ZM6.19475 15.1057C6.03642 15.2918 5.90031 15.4862 5.77531 15.6973L5.70031 15.6557C5.82531 15.4418 5.96697 15.2418 6.12808 15.0501L6.19475 15.1057ZM5.70031 15.6473L5.73919 15.6723L5.70031 15.6473ZM5.78086 15.6946L5.70031 15.6529V15.6473L5.78086 15.6946ZM5.77808 15.6946C5.75864 15.7223 5.74475 15.7557 5.73642 15.7862L5.65031 15.7585C5.66419 15.7196 5.67808 15.6862 5.69753 15.6529L5.77808 15.6946ZM5.73364 15.7862C5.72531 15.8196 5.71419 15.8473 5.70864 15.8807L5.61697 15.8668C5.62253 15.8279 5.63086 15.7918 5.64475 15.7585L5.73364 15.7862ZM5.71142 15.8807C5.68364 16.0418 5.72531 16.2196 5.83642 16.3529L5.76419 16.4112C5.63642 16.2585 5.58919 16.0585 5.62253 15.8696L5.71142 15.8807ZM5.83364 16.3529L5.84197 16.3723L5.80031 16.3807L5.83364 16.3529ZM5.84475 16.3723L6.31142 18.1779L6.22531 18.2029L5.75864 16.3973L5.84475 16.3723ZM6.26142 18.2279L6.21975 18.1946L6.26142 18.1862V18.2279ZM6.26142 18.139H9.75586V18.2307H6.25586L6.26142 18.139ZM9.80586 18.1918L9.76419 18.2307V18.189L9.80586 18.1918ZM9.71975 18.1751L9.91419 16.6473L10.0059 16.6557L9.81142 18.1835L9.71975 18.1751ZM10.0003 16.6612L9.95864 16.6557L10.0003 16.6612ZM9.91142 16.6473C9.91419 16.6418 9.91142 16.6612 9.91142 16.6473L10.0031 16.6557C10.0031 16.6696 10.0031 16.6501 10.0031 16.6557L9.91142 16.6473ZM10.0003 16.6585L9.95864 16.6529L10.0003 16.6585ZM9.91142 16.6473C9.9253 16.5529 9.93919 16.4612 9.96419 16.3751L10.0503 16.4001C10.0253 16.4862 10.0114 16.5751 9.99753 16.6612L9.91142 16.6473ZM9.96697 16.3723C9.99197 16.2807 10.0197 16.1973 10.0531 16.1112L10.1392 16.1446C10.1059 16.2251 10.0781 16.3112 10.0586 16.3973L9.96697 16.3723ZM10.0475 16.1085C10.2197 15.6696 10.5281 15.2946 10.9392 15.0418L10.9864 15.1168C10.5947 15.3585 10.2947 15.7223 10.1281 16.1418L10.0475 16.1085ZM10.9447 15.0418L10.9836 15.0362L10.9697 15.0779L10.9447 15.0418ZM10.9781 15.039L11.117 15.0779L11.092 15.164L10.9531 15.1251L10.9781 15.039ZM11.1142 15.0751L11.1003 15.1168L11.1142 15.0751ZM11.1142 15.0751L11.0892 15.1612L11.1142 15.0751ZM11.092 15.1612L11.1003 15.1196L11.092 15.1612ZM11.1142 15.0751C11.1225 15.0807 11.1336 15.0807 11.142 15.0807L11.1364 15.1723C11.1225 15.1723 11.1031 15.1668 11.0892 15.164L11.1142 15.0751ZM11.1475 15.0807C11.1559 15.0807 11.167 15.0807 11.1753 15.0807L11.1836 15.1723C11.1697 15.1723 11.1503 15.1723 11.1364 15.1723L11.1475 15.0807ZM11.1781 15.0807C11.2309 15.0751 11.2725 15.0418 11.2975 14.9946L11.3781 15.0335C11.3392 15.1085 11.2697 15.1585 11.1864 15.1668L11.1781 15.0807ZM11.3781 15.039L11.3392 15.0196L11.3781 15.039ZM11.2947 14.9946L11.3753 15.0335L11.2947 14.9946ZM11.2947 14.9946C11.3003 14.9862 11.3031 14.9751 11.3031 14.9668L11.3892 14.9918C11.3836 15.0057 11.3809 15.0196 11.3697 15.0335L11.2947 14.9946ZM11.3947 14.9918L11.3531 14.9835L11.3947 14.9918ZM11.3114 14.9668C11.317 14.9585 11.317 14.9473 11.317 14.939L11.4086 14.9446C11.4086 14.9585 11.4031 14.9723 11.4003 14.9918L11.3114 14.9668ZM11.4003 14.9418L11.3586 14.9362L11.4003 14.9418ZM11.3142 14.939C11.3197 14.8862 11.2947 14.839 11.2559 14.8057L11.3142 14.7335C11.3809 14.7862 11.4142 14.8668 11.4086 14.9418L11.3142 14.939ZM11.2531 14.8057L7.94475 12.2196L8.00308 12.1473L11.3114 14.7335L11.2531 14.8057ZM7.94475 12.214L7.9253 12.1807L7.96697 12.1751L7.94475 12.214ZM7.92808 12.1862L7.84197 11.0946L7.93364 11.089L8.01975 12.1807L7.92808 12.1862ZM7.83919 11.0946L7.93086 11.0862V11.0918L7.83919 11.0946ZM7.92808 11.0862L7.88642 11.0918L7.92808 11.0862ZM7.83919 11.0918C7.83364 11.0585 7.83086 11.0251 7.82531 10.9918L7.91697 10.9779C7.92253 11.0168 7.9253 11.0501 7.93086 11.0862L7.83919 11.0918ZM7.82808 10.9918C7.82253 10.9585 7.81419 10.9251 7.80308 10.8918L7.88919 10.8668C7.89753 10.9001 7.90864 10.939 7.91419 10.9723L7.82808 10.9918ZM7.80586 10.8918C7.76419 10.7251 7.67808 10.5723 7.56697 10.439L7.63364 10.3807C7.75864 10.5223 7.84197 10.689 7.89197 10.8668" fill="black"/>
<path d="M7.59177 13.3666L7.50566 13.3416C7.50566 13.3416 7.50566 13.3416 7.50566 13.3361L7.59177 13.3666ZM7.59177 13.3722L7.55011 13.3583L7.59177 13.3722ZM7.59177 13.3722C7.58344 13.3972 7.57788 13.4194 7.57233 13.4444L7.48622 13.425C7.49177 13.3972 7.50011 13.3666 7.51122 13.3444L7.59177 13.3722ZM7.57233 13.4416C7.56677 13.4666 7.56399 13.4889 7.56399 13.5139L7.47233 13.5055C7.47788 13.4778 7.47788 13.4472 7.48622 13.425L7.57233 13.4416ZM7.55844 13.5139C7.55011 13.6389 7.57233 13.7666 7.63066 13.875L7.55011 13.9166C7.48344 13.7889 7.45566 13.6444 7.46955 13.5028L7.55844 13.5139ZM7.62788 13.875L7.54733 13.9166L7.62788 13.875ZM7.62788 13.8805C7.63622 13.9055 7.65288 13.9222 7.66677 13.9416L7.59177 13.9944C7.57788 13.9694 7.56399 13.9472 7.55011 13.9222L7.62788 13.8805ZM7.67233 13.9416C7.68622 13.9611 7.70011 13.9805 7.714 14L7.64733 14.0583C7.62788 14.0389 7.61399 14.0167 7.59455 13.9917L7.67233 13.9416ZM7.714 14C7.79455 14.0944 7.90566 14.1667 8.02789 14.2L8.00289 14.2861C7.864 14.2472 7.74177 14.1667 7.64455 14.0583" fill="black"/>
<path d="M7.99497 12.2198L6.63664 13.1475L6.58386 13.0725L7.9422 12.1448" fill="black"/>
<path fill-rule="evenodd" clip-rule="evenodd" d="M7.24672 10.7475C7.24672 10.6474 7.16617 10.5724 7.07173 10.5724C6.97728 10.5724 6.89673 10.653 6.89673 10.7475C6.89673 10.8475 6.97728 10.9225 7.07173 10.9225C7.17173 10.9252 7.24672 10.8419 7.24672 10.7475Z" fill="#FFD200"/>
<path d="M7.20496 10.7471H7.29662H7.20496ZM7.20496 10.7416C7.20496 10.7027 7.19107 10.6694 7.16607 10.6471L7.22718 10.586C7.26607 10.6249 7.29385 10.6805 7.29385 10.7444H7.20496V10.7416ZM7.16607 10.6527C7.14107 10.6277 7.10773 10.6138 7.07162 10.6138V10.5221C7.13273 10.5221 7.18551 10.5471 7.22996 10.5888L7.16607 10.6527ZM7.07162 10.5249V10.5666V10.5249ZM7.07162 10.6138V10.5221V10.6138ZM7.07162 10.6138V10.5221V10.6138ZM7.07162 10.6138C7.03273 10.6138 6.9994 10.6277 6.97718 10.6527L6.91606 10.5916C6.95495 10.5527 7.01051 10.5249 7.0744 10.5249V10.6138H7.07162ZM6.97718 10.6527C6.95218 10.6777 6.93829 10.711 6.93829 10.7471H6.84662C6.84662 10.686 6.87162 10.6333 6.91329 10.5888L6.97718 10.6527ZM6.84662 10.7416H6.88829H6.84662ZM6.93829 10.7416H6.84662H6.93829ZM6.93829 10.7471H6.84662H6.93829ZM6.93829 10.7471C6.93829 10.786 6.95218 10.8194 6.97718 10.8416L6.91606 10.9027C6.87717 10.8638 6.8494 10.8083 6.8494 10.7444H6.93829V10.7471ZM6.97718 10.8388C7.00218 10.8638 7.03551 10.8777 7.07162 10.8777V10.9694C7.01051 10.9694 6.95773 10.9444 6.91329 10.9027L6.97718 10.8388ZM7.07162 10.9666V10.9249V10.9666ZM7.07162 10.8805V10.9721V10.8805ZM7.07162 10.8805V10.9721V10.8805ZM7.07162 10.8805C7.11051 10.8805 7.14384 10.8666 7.16607 10.8416L7.22718 10.9027C7.18829 10.9416 7.13273 10.9694 7.06884 10.9694V10.8805H7.07162ZM7.16607 10.8388C7.19107 10.8138 7.20496 10.7805 7.20496 10.7444H7.29662C7.29662 10.8055 7.27162 10.8583 7.22996 10.9027L7.16607 10.8388ZM7.29385 10.7471H7.25218H7.29385ZM7.20496 10.7471H7.29662H7.20496Z" fill="black"/>
<path d="M6.89136 15L6.93302 15.0806H6.92747L6.89136 15ZM6.93302 15.075L6.91358 15.0362L6.93302 15.075ZM6.89136 15C6.93025 14.9806 6.96358 14.9612 6.99691 14.9389L7.04969 15.0112C7.0108 15.0389 6.97469 15.0639 6.9358 15.0834L6.89136 15ZM6.99413 14.9334C7.02747 14.9084 7.05525 14.8806 7.0858 14.8528L7.15247 14.9139C7.12469 14.9473 7.0858 14.975 7.05247 15.0056L6.99413 14.9334ZM7.0858 14.8584C7.22747 14.7112 7.29969 14.5112 7.28024 14.3L7.37191 14.2917C7.39136 14.5306 7.3108 14.7528 7.14691 14.9195" fill="black"/>
<path d="M7.5058 14.0529L7.46414 13.9724H7.46969L7.5058 14.0529ZM7.46136 13.9724L7.4808 14.0113L7.46136 13.9724ZM7.5058 14.0529C7.49191 14.0585 7.4808 14.0668 7.47247 14.0779L7.41969 14.0057C7.43358 13.9974 7.45302 13.9807 7.46691 13.9779L7.5058 14.0529ZM7.46691 14.0752C7.45858 14.0835 7.44747 14.0946 7.43914 14.1029L7.37247 14.0418C7.38636 14.0279 7.40025 14.0168 7.41413 14.0029L7.46691 14.0752ZM7.43914 14.1002C7.39191 14.1474 7.36691 14.2196 7.37247 14.2863L7.2808 14.2946C7.27247 14.2002 7.3058 14.1029 7.37247 14.0363" fill="black"/>
<path d="M8.01048 15.3723L7.97715 15.2917L8.01048 15.3723ZM8.01048 15.3723C7.96326 15.3917 7.91603 15.4112 7.86881 15.4306L7.83548 15.35C7.8827 15.3306 7.92992 15.3112 7.97715 15.2917L8.01048 15.3723ZM7.86603 15.4278C7.81881 15.4473 7.77159 15.4667 7.72437 15.4889L7.69103 15.4084C7.73826 15.3889 7.78548 15.3667 7.8327 15.3473L7.86603 15.4278ZM7.72437 15.4917C7.4827 15.5973 7.23826 15.7056 6.99937 15.825L6.96048 15.7445C7.19937 15.625 7.44103 15.5167 7.68826 15.4112" fill="black"/>
<path d="M7.97791 15.2861L8.01124 15.3667L7.97791 15.2861ZM8.01124 15.3722L7.99179 15.3305L8.01124 15.3722ZM7.97791 15.2861C8.03068 15.2667 8.0779 15.2444 8.12513 15.2139L8.16679 15.2889C8.11402 15.3167 8.06124 15.3472 8.00846 15.3639L7.97791 15.2861ZM8.12513 15.2139C8.17235 15.1861 8.21679 15.1555 8.25846 15.1222L8.31679 15.1944C8.27513 15.2278 8.22513 15.2611 8.17513 15.2889L8.12513 15.2139ZM8.25846 15.125C8.47235 14.9528 8.62513 14.7111 8.67235 14.4333L8.76402 14.4472C8.71124 14.7472 8.55013 15.0083 8.31679 15.1889" fill="black"/>
<path d="M7.53378 15.475H10.4532V15.5667H7.53378" fill="black"/>
<path fill-rule="evenodd" clip-rule="evenodd" d="M8.21156 16.0667C8.21156 15.8806 8.05878 15.7279 7.87267 15.7279C7.68656 15.7279 7.53378 15.8806 7.53378 16.0667C7.53378 16.2529 7.68656 16.4056 7.87267 16.4056C8.05878 16.4056 8.21156 16.2584 8.21156 16.0667Z" fill="#FFD200"/>
<path d="M8.16118 16.0667H8.25284H8.16118ZM8.16118 16.0667C8.16118 15.9861 8.12784 15.9139 8.07507 15.8583L8.13618 15.7972C8.2084 15.8694 8.25007 15.9639 8.25007 16.0694L8.16118 16.0667ZM8.13895 15.7944L8.10562 15.8278L8.13895 15.7944ZM8.07784 15.8611C8.02506 15.8083 7.95284 15.775 7.87229 15.775V15.6833C7.97784 15.6833 8.07229 15.725 8.14451 15.7972L8.07784 15.8611ZM7.87229 15.775V15.6833V15.775ZM7.87229 15.775V15.6833V15.775ZM7.87229 15.775C7.79173 15.775 7.71951 15.8083 7.66395 15.8611L7.60284 15.8C7.67506 15.7278 7.76951 15.6861 7.87506 15.6861V15.775H7.87229ZM7.66118 15.8611C7.6084 15.9139 7.57506 15.9861 7.57506 16.0667H7.48618C7.48618 15.9611 7.52784 15.8667 7.60006 15.7944L7.66118 15.8611ZM7.57784 16.0667H7.48618H7.57784ZM7.57784 16.0667H7.48618H7.57784ZM7.57784 16.0667C7.57784 16.1472 7.61118 16.2194 7.66395 16.275L7.60284 16.3361C7.53062 16.2639 7.48895 16.1694 7.48895 16.0639H7.57784V16.0667ZM7.66118 16.275C7.71395 16.3278 7.78618 16.3611 7.86673 16.3611V16.4528C7.76118 16.4528 7.66673 16.4111 7.59451 16.3389L7.66118 16.275ZM7.86673 16.3611V16.4528V16.3611ZM7.87229 16.3611V16.4528V16.3611ZM7.87229 16.3611C7.95284 16.3611 8.02506 16.3278 8.08062 16.275L8.14173 16.3361C8.06951 16.4083 7.97506 16.45 7.86951 16.45V16.3611H7.87229ZM8.14451 16.3389L8.11118 16.3055L8.14451 16.3389ZM8.07784 16.275C8.13062 16.2222 8.16395 16.15 8.16395 16.0694H8.25562C8.25562 16.175 8.21395 16.2694 8.14173 16.3417L8.07784 16.275ZM8.16118 16.0722H8.25284H8.16118Z" fill="black"/>
<path fill-rule="evenodd" clip-rule="evenodd" d="M9.55299 16.0667C9.55299 15.8806 9.40021 15.7279 9.2141 15.7279C9.02799 15.7279 8.87521 15.8806 8.87521 16.0667C8.87521 16.2529 9.02799 16.4056 9.2141 16.4056C9.40577 16.4056 9.55299 16.2584 9.55299 16.0667Z" fill="#FFD200"/>
<path d="M9.51164 16.0667H9.60331H9.51164ZM9.51164 16.0667C9.51164 15.9861 9.47831 15.9139 9.42553 15.8583L9.48664 15.7972C9.55886 15.8694 9.60053 15.9639 9.60053 16.0694L9.51164 16.0667ZM9.48664 15.7944L9.45331 15.8278L9.48664 15.7944ZM9.42553 15.8611C9.37275 15.8083 9.30053 15.775 9.21997 15.775V15.6833C9.32553 15.6833 9.41997 15.725 9.4922 15.7972L9.42553 15.8611ZM9.21997 15.775V15.6833V15.775ZM9.21442 15.775V15.6833V15.775ZM9.21442 15.775C9.13386 15.775 9.06164 15.8083 9.00609 15.8611L8.94497 15.8C9.0172 15.7278 9.11164 15.6861 9.2172 15.6861V15.775H9.21442ZM9.01164 15.8611C8.95886 15.9139 8.92553 15.9861 8.92553 16.0667H8.83386C8.83386 15.9611 8.87553 15.8667 8.94775 15.7944L9.01164 15.8611ZM8.92553 16.0667H8.83386H8.92553ZM8.92553 16.0667H8.83386H8.92553ZM8.92553 16.0667C8.92553 16.1472 8.95886 16.2194 9.01164 16.275L8.95053 16.3361C8.87831 16.2639 8.83664 16.1694 8.83664 16.0639H8.92553V16.0667ZM9.01164 16.275C9.06442 16.3278 9.13664 16.3611 9.2172 16.3611V16.4528C9.11164 16.4528 9.0172 16.4111 8.94497 16.3389L9.01164 16.275ZM9.21442 16.3611V16.4528V16.3611ZM9.21442 16.3611V16.4528V16.3611ZM9.21442 16.3611C9.29497 16.3611 9.3672 16.3278 9.42275 16.275L9.48386 16.3361C9.41164 16.4083 9.3172 16.45 9.21164 16.45V16.3611H9.21442ZM9.48664 16.3389L9.45331 16.3055L9.48664 16.3389ZM9.42553 16.275C9.47831 16.2222 9.51164 16.15 9.51164 16.0694H9.60331C9.60331 16.175 9.56164 16.2694 9.48942 16.3417L9.42553 16.275ZM9.51164 16.0722H9.60331H9.51164Z" fill="black"/>
<path d="M8.52729 14.8722C8.54118 14.8778 8.56062 14.8806 8.57451 14.8861L8.54951 14.9722C8.53007 14.9667 8.51618 14.9639 8.50229 14.9583L8.52729 14.8722ZM8.57729 14.8861C8.60229 14.8917 8.62451 14.9 8.64951 14.9056L8.63007 14.9917C8.60507 14.9861 8.57729 14.9778 8.55507 14.9722L8.57729 14.8861ZM8.64673 14.9056C8.67173 14.9111 8.69396 14.9139 8.71896 14.9195L8.70507 15.0111C8.68007 15.0056 8.65229 15.0028 8.63007 14.9972L8.64673 14.9056ZM8.71896 14.9195C8.83285 14.9389 8.94673 14.9472 9.06062 14.9472V15.0389C8.94118 15.0389 8.81896 15.0306 8.69951 15.0056" fill="black"/>
<path d="M9.06094 14.947C9.07483 14.947 9.09428 14.947 9.10261 14.947L9.11094 15.0387C9.0915 15.0387 9.07206 15.0442 9.05817 15.0442L9.06094 14.947ZM9.11094 14.947L9.1165 14.9887L9.11094 14.947ZM9.11094 14.947C9.13594 14.9415 9.16372 14.9387 9.18594 14.9331L9.21094 15.0192C9.18317 15.0276 9.15261 15.0331 9.11928 15.0331L9.11094 14.947ZM9.18594 14.9331C9.21094 14.9276 9.23317 14.9192 9.25817 14.9081L9.29706 14.9887C9.26928 15.0026 9.23872 15.0137 9.21094 15.0165L9.18594 14.9331ZM9.25817 14.9081C9.3665 14.8609 9.45817 14.7748 9.50539 14.6609L9.58595 14.6998C9.52761 14.8331 9.41928 14.9387 9.2915 14.9942" fill="black"/>
<path d="M10.9524 15.1251L8.00519 14.2862L8.03019 14.2001L10.9774 15.039" fill="black"/>
<path d="M5.85779 16.5667H9.96334V16.6583H5.85779" fill="black"/>
<path d="M6.80481 17.4583H9.84648V17.55H6.80481" fill="black"/>
<path d="M8.22831 17.1527L7.89497 17.4805L7.83386 17.4194L8.1672 17.0916" fill="black"/>
<path d="M7.59489 17.1192L7.92823 17.447L7.86712 17.5081L7.53378 17.1803" fill="black"/>
<path d="M7.62436 17.1527L7.29103 17.4805L7.22992 17.4194L7.56325 17.0916" fill="black"/>
<path d="M6.99428 17.1192L7.32761 17.447L7.2665 17.5081L6.93317 17.1803" fill="black"/>
<path d="M8.82761 17.1527L8.49428 17.4805L8.43317 17.4194L8.7665 17.0916" fill="black"/>
<path d="M8.1946 17.1192L8.52793 17.4136L8.46682 17.4748L8.13348 17.1803" fill="black"/>
<path d="M9.42823 17.1527L9.09489 17.4805L9.03378 17.4194L9.36712 17.0916" fill="black"/>
<path d="M8.7939 17.1192L9.12723 17.4136L9.06612 17.4748L8.73279 17.1803" fill="black"/>
<path d="M9.91346 17.2722L9.69957 17.4805L9.63846 17.4194L9.85235 17.2111" fill="black"/>
<path d="M9.39946 17.1192L9.73279 17.447L9.67168 17.5081L9.33835 17.1803" fill="black"/>
<path d="M8.22831 16.6943L7.89497 17.0221L7.83386 16.9609L8.1672 16.6332" fill="black"/>
<path d="M7.59489 16.6667L7.92823 16.9945L7.86712 17.0556L7.53378 16.7278" fill="black"/>
<path d="M7.62436 16.6943L7.29103 17.0221L7.22992 16.9609L7.56325 16.6332" fill="black"/>
<path d="M6.99428 16.6667L7.32761 16.9945L7.2665 17.0556L6.93317 16.7278" fill="black"/>
<path d="M8.82761 16.6943L8.49428 17.0221L8.43317 16.9609L8.7665 16.6332" fill="black"/>
<path d="M8.1946 16.6667L8.52793 16.9945L8.46682 17.0556L8.13348 16.7278" fill="black"/>
<path d="M9.42823 16.6943L9.09489 17.0221L9.03378 16.9609L9.36712 16.6332" fill="black"/>
<path d="M8.7939 16.6667L9.12723 16.9945L9.06612 17.0556L8.73279 16.7278" fill="black"/>
<path d="M9.98013 16.7473L9.69957 17.0223L9.63846 16.9612L9.91901 16.6862" fill="black"/>
<path d="M9.39946 16.6667L9.73279 16.9945L9.67168 17.0556L9.33835 16.7278" fill="black"/>
<path d="M6.6858 11.0278L6.29135 11.0528L6.2858 10.9611L6.68024 10.9361" fill="black"/>
<path d="M6.92777 15.0806L6.88888 15L6.92777 15.0806ZM6.8861 15L6.90555 15.0389L6.8861 15ZM6.92777 15.0806C6.85277 15.1194 6.78055 15.1611 6.71388 15.2139L6.6611 15.1417C6.73333 15.0889 6.80833 15.0417 6.88888 15L6.92777 15.0806ZM6.71388 15.2139C6.64721 15.2667 6.58888 15.3194 6.53332 15.3806L6.46666 15.3194C6.52499 15.2528 6.59166 15.1944 6.65832 15.1444L6.71388 15.2139ZM6.53332 15.3806C6.25277 15.6889 6.12777 16.1222 6.22499 16.5528L6.13888 16.5722C6.03888 16.1139 6.17221 15.6528 6.46666 15.3194" fill="black"/>
<path d="M6.995 15.8196L6.98944 15.8251L6.95055 15.7446L6.95611 15.739L6.995 15.8196ZM6.95333 15.7418L6.97278 15.7807L6.95333 15.7418ZM6.99222 15.8251C6.95333 15.8446 6.91722 15.8668 6.88389 15.8918L6.83111 15.8196C6.87 15.7918 6.90611 15.7668 6.95055 15.7473L6.99222 15.8251ZM6.88667 15.8918C6.85333 15.9168 6.82 15.9446 6.79222 15.9723L6.73111 15.9112C6.76444 15.8779 6.79778 15.8501 6.83667 15.8196L6.88667 15.8918ZM6.79222 15.9723C6.645 16.1196 6.56445 16.339 6.57278 16.5584L6.48111 16.564C6.46722 16.3223 6.56167 16.0779 6.72278 15.9112" fill="black"/>
<path d="M5.9439 16.1333L5.85779 16.1278V16.1611V16.1278L5.9439 16.1333ZM5.85779 16.1583L5.9439 16.1306L5.85779 16.125V16.1583ZM5.9439 16.1333C5.94945 16.1583 5.95779 16.175 5.9689 16.2L5.88279 16.2333C5.87446 16.2083 5.86334 16.1861 5.85779 16.1611L5.9439 16.1333ZM5.96612 16.1944C5.97446 16.2139 5.98557 16.2361 5.9939 16.2556L5.91334 16.2944C5.90501 16.2694 5.88834 16.2472 5.88557 16.2278L5.96612 16.1944ZM5.9939 16.2583C6.04668 16.3639 6.1189 16.4528 6.20779 16.525L6.14945 16.5972C6.04945 16.5167 5.96334 16.4167 5.90779 16.2972" fill="black"/>
<path d="M5.94459 16.1611L5.83904 16.4L5.75848 16.3611L5.86404 16.1222" fill="black"/>
<path d="M6.13846 16.5723L6.14401 16.5445L6.22457 16.5834L6.13846 16.5723ZM6.22457 16.5806L6.14401 16.539L6.22457 16.5806ZM6.14401 16.5418C6.15235 16.5223 6.16901 16.5001 6.17735 16.4806L6.2579 16.5195C6.24957 16.5445 6.2329 16.5612 6.22457 16.5806L6.14401 16.5418ZM6.17735 16.4806C6.18568 16.4556 6.20235 16.439 6.20512 16.4195L6.28568 16.4584C6.27735 16.4834 6.26068 16.5056 6.2579 16.5251L6.17735 16.4806ZM6.20512 16.414C6.25235 16.3056 6.29679 16.1945 6.3329 16.0806L6.41901 16.1084C6.38012 16.2279 6.33846 16.3418 6.28568 16.4501" fill="black"/>
<path d="M6.48108 16.5585L6.56719 16.539L6.48108 16.5585ZM6.56719 16.539L6.52553 16.5473L6.56719 16.539ZM6.48108 16.5585C6.47553 16.5335 6.47275 16.5168 6.4672 16.4973L6.55331 16.4723C6.55886 16.4973 6.56164 16.5196 6.56719 16.539L6.48108 16.5585ZM6.4672 16.4946C6.46164 16.4751 6.45886 16.4557 6.44775 16.4335L6.53386 16.4085C6.53942 16.4279 6.54219 16.4473 6.55331 16.4751L6.4672 16.4946ZM6.53386 16.4057L6.4922 16.4196L6.53386 16.4057ZM6.44775 16.4279C6.41442 16.3196 6.37553 16.214 6.33386 16.114V16.0807L6.41997 16.0751C6.4672 16.1807 6.50608 16.289 6.53942 16.4029" fill="black"/>
<path d="M6.89124 18.1752L6.76346 17.5085L6.85512 17.4891L6.9829 18.1557" fill="black"/>
<path d="M6.76106 17.5195L6.45551 16.6278L6.54162 16.6L6.84717 17.4917" fill="black"/>
<path d="M7.02451 17.1527L6.78563 17.386L6.72452 17.3249L6.9634 17.0916" fill="black"/>
<path d="M7.02437 16.6943L6.66603 17.0471L6.60492 16.9859L6.96326 16.6332" fill="black"/>
</g>
<defs>
<clipPath id="clip0_93_11397">
<rect width="53.3333" height="30" fill="white" transform="translate(0.319336)"/>
</clipPath>
</defs>
</svg>
