<svg width="250" height="250" viewBox="0 0 250 250" fill="none" xmlns="http://www.w3.org/2000/svg">
<g clip-path="url(#clip0_2047_2)">
<path d="M249.992 -0.00308228H-0.00396729V249.993H249.992V-0.00308228Z" fill="#900F7B"/>
<path d="M169.5 289.5L64 188.5L136 139.5L112 120.5L145.5 60.5L268 175L276 269.5L169.5 289.5Z" fill="#6B0B5B"/>
<path d="M125 125C144.714 124.998 151.809 104.972 153.666 88.5196C155.954 68.253 146.508 53 125 53C103.496 53 94.0462 68.2519 96.3342 88.5196C98.1933 104.971 105.284 125.002 125 125Z" fill="white"/>
<path d="M186.643 184.362C186.394 177.088 185.541 169.781 184.272 162.621C182.734 153.947 180.777 141.23 173.204 135.579C168.824 132.31 163.153 131.238 158.139 129.267C155.699 128.309 153.513 127.356 151.461 126.272C144.536 133.866 135.507 137.839 124.99 137.839C114.478 137.839 105.449 133.867 98.5244 126.272C96.4727 127.357 94.2867 128.309 91.8464 129.267C86.8326 131.238 81.1612 132.31 76.782 135.579C69.2085 141.232 67.2514 153.948 65.7138 162.621C64.4443 169.781 63.5917 177.088 63.3428 184.362C63.15 189.995 65.9318 190.785 70.6449 192.486C76.5468 194.614 82.6399 196.194 88.7738 197.489C100.621 199.991 112.832 201.914 124.991 202C137.15 201.914 149.361 199.991 161.208 197.489C167.342 196.195 173.436 194.615 179.337 192.486C184.052 190.785 186.833 189.996 186.641 184.362H186.643Z" fill="white"/>
</g>
<defs>
<clipPath id="clip0_2047_2">
<rect width="250" height="250" fill="white"/>
</clipPath>
</defs>
</svg>
