<svg width="24" height="24" viewBox="0 0 24 24" fill="none" xmlns="http://www.w3.org/2000/svg">
<path d="M19.8958 2.43945C20.6674 2.43945 21.4074 2.74598 21.953 3.29159C22.4986 3.8372 22.8051 4.57721 22.8051 5.34883V7.28841H20.8656V18.9259C20.8656 19.6975 20.559 20.4375 20.0134 20.9831C19.4678 21.5288 18.7278 21.8353 17.9562 21.8353H4.3791C3.60749 21.8353 2.86748 21.5288 2.32186 20.9831C1.77625 20.4375 1.46973 19.6975 1.46973 18.9259V16.9863H16.9864V18.9259C16.9864 19.1634 17.0736 19.3927 17.2315 19.5702C17.3893 19.7477 17.6068 19.8611 17.8427 19.8889L17.9562 19.8957C18.1937 19.8957 18.423 19.8085 18.6005 19.6506C18.778 19.4928 18.8914 19.2753 18.9192 19.0394L18.926 18.9259V4.37904H6.31868C6.08115 4.37907 5.85189 4.46627 5.67438 4.62412C5.49688 4.78196 5.38347 4.99946 5.35568 5.23536L5.34889 5.34883V15.0467H3.40931V5.34883C3.40931 4.57721 3.71583 3.8372 4.26145 3.29159C4.80706 2.74598 5.54707 2.43945 6.31868 2.43945H19.8958Z" fill="#666666"/>
</svg>
