<svg width="32" height="24" viewBox="0 0 32 24" fill="none" xmlns="http://www.w3.org/2000/svg">
<path d="M11.29 12.0002L14.83 8.46019C15.0162 8.27283 15.1208 8.01938 15.1208 7.75519C15.1208 7.49101 15.0162 7.23756 14.83 7.05019C14.737 6.95646 14.6264 6.88207 14.5046 6.8313C14.3827 6.78053 14.252 6.75439 14.12 6.75439C13.988 6.75439 13.8573 6.78053 13.7354 6.8313C13.6136 6.88207 13.503 6.95646 13.41 7.05019L9.17 11.2902C9.07627 11.3832 9.00187 11.4938 8.95111 11.6156C8.90034 11.7375 8.8742 11.8682 8.8742 12.0002C8.8742 12.1322 8.90034 12.2629 8.95111 12.3848C9.00187 12.5066 9.07627 12.6172 9.17 12.7102L13.41 17.0002C13.5034 17.0929 13.6143 17.1662 13.7361 17.216C13.8579 17.2657 13.9884 17.291 14.12 17.2902C14.2516 17.291 14.3821 17.2657 14.5039 17.216C14.6257 17.1662 14.7366 17.0929 14.83 17.0002C15.0162 16.8128 15.1208 16.5594 15.1208 16.2952C15.1208 16.031 15.0162 15.7776 14.83 15.5902L11.29 12.0002Z" fill="#900F7B"/>
<path d="M19.29 12.0002L22.83 8.46019C23.0162 8.27283 23.1208 8.01938 23.1208 7.75519C23.1208 7.49101 23.0162 7.23756 22.83 7.05019C22.737 6.95646 22.6264 6.88207 22.5046 6.8313C22.3827 6.78053 22.252 6.75439 22.12 6.75439C21.988 6.75439 21.8573 6.78053 21.7354 6.8313C21.6136 6.88207 21.503 6.95646 21.41 7.05019L17.17 11.2902C17.0763 11.3832 17.0019 11.4938 16.9511 11.6156C16.9003 11.7375 16.8742 11.8682 16.8742 12.0002C16.8742 12.1322 16.9003 12.2629 16.9511 12.3848C17.0019 12.5066 17.0763 12.6172 17.17 12.7102L21.41 17.0002C21.5034 17.0929 21.6143 17.1662 21.7361 17.216C21.8579 17.2657 21.9884 17.291 22.12 17.2902C22.2516 17.291 22.3821 17.2657 22.5039 17.216C22.6257 17.1662 22.7366 17.0929 22.83 17.0002C23.0162 16.8128 23.1208 16.5594 23.1208 16.2952C23.1208 16.031 23.0162 15.7776 22.83 15.5902L19.29 12.0002Z" fill="#900F7B"/>
</svg>
