<svg width="32" height="24" viewBox="0 0 32 24" fill="none" xmlns="http://www.w3.org/2000/svg">
<path d="M20.71 12.0002L17.17 8.46019C16.9838 8.27283 16.8792 8.01938 16.8792 7.75519C16.8792 7.49101 16.9838 7.23756 17.17 7.05019C17.263 6.95646 17.3736 6.88207 17.4954 6.8313C17.6173 6.78053 17.748 6.75439 17.88 6.75439C18.012 6.75439 18.1427 6.78053 18.2646 6.8313C18.3864 6.88207 18.497 6.95646 18.59 7.05019L22.83 11.2902C22.9237 11.3832 22.9981 11.4938 23.0489 11.6156C23.0997 11.7375 23.1258 11.8682 23.1258 12.0002C23.1258 12.1322 23.0997 12.2629 23.0489 12.3848C22.9981 12.5066 22.9237 12.6172 22.83 12.7102L18.59 17.0002C18.4966 17.0929 18.3857 17.1662 18.2639 17.216C18.1421 17.2657 18.0116 17.291 17.88 17.2902C17.7484 17.291 17.6179 17.2657 17.4961 17.216C17.3743 17.1662 17.2634 17.0929 17.17 17.0002C16.9838 16.8128 16.8792 16.5594 16.8792 16.2952C16.8792 16.031 16.9838 15.7776 17.17 15.5902L20.71 12.0002Z" fill="#900F7B"/>
<path d="M12.71 12.0002L9.17 8.46019C8.98375 8.27283 8.87921 8.01938 8.87921 7.75519C8.87921 7.49101 8.98375 7.23756 9.17 7.05019C9.26297 6.95646 9.37357 6.88207 9.49543 6.8313C9.61729 6.78053 9.74799 6.75439 9.88 6.75439C10.012 6.75439 10.1427 6.78053 10.2646 6.8313C10.3864 6.88207 10.497 6.95646 10.59 7.05019L14.83 11.2902C14.9237 11.3832 14.9981 11.4938 15.0489 11.6156C15.0997 11.7375 15.1258 11.8682 15.1258 12.0002C15.1258 12.1322 15.0997 12.2629 15.0489 12.3848C14.9981 12.5066 14.9237 12.6172 14.83 12.7102L10.59 17.0002C10.4966 17.0929 10.3857 17.1662 10.2639 17.216C10.1421 17.2657 10.0116 17.291 9.88 17.2902C9.7484 17.291 9.61793 17.2657 9.4961 17.216C9.37426 17.1662 9.26344 17.0929 9.17 17.0002C8.98375 16.8128 8.87921 16.5594 8.87921 16.2952C8.87921 16.031 8.98375 15.7776 9.17 15.5902L12.71 12.0002Z" fill="#900F7B"/>
</svg>
