<svg width="24" height="24" viewBox="0 0 24 24" fill="none" xmlns="http://www.w3.org/2000/svg">
<path d="M12.71 12.0002L9.17 8.46019C8.98374 8.27283 8.8792 8.01938 8.8792 7.75519C8.8792 7.49101 8.98374 7.23756 9.17 7.05019C9.26296 6.95646 9.37356 6.88207 9.49542 6.8313C9.61728 6.78053 9.74798 6.75439 9.88 6.75439C10.012 6.75439 10.1427 6.78053 10.2646 6.8313C10.3864 6.88207 10.497 6.95646 10.59 7.05019L14.83 11.2902C14.9237 11.3832 14.9981 11.4938 15.0489 11.6156C15.0997 11.7375 15.1258 11.8682 15.1258 12.0002C15.1258 12.1322 15.0997 12.2629 15.0489 12.3848C14.9981 12.5066 14.9237 12.6172 14.83 12.7102L10.59 17.0002C10.4966 17.0929 10.3857 17.1662 10.2639 17.216C10.1421 17.2657 10.0116 17.291 9.88 17.2902C9.74839 17.291 9.61793 17.2657 9.49609 17.216C9.37425 17.1662 9.26344 17.0929 9.17 17.0002C8.98374 16.8128 8.8792 16.5594 8.8792 16.2952C8.8792 16.031 8.98374 15.7776 9.17 15.5902L12.71 12.0002Z" fill="#900F7B"/>
</svg>
