<svg width="16" height="16" viewBox="0 0 16 16" fill="none" xmlns="http://www.w3.org/2000/svg">
<path d="M10 2.33333H3.33333V13H12.6667V5H10V2.33333ZM2 1.66133C2 1.296 2.298 1 2.666 1H10.6667L14 4.33333V13.662C14.0006 13.7495 13.984 13.8364 13.951 13.9175C13.9181 13.9986 13.8695 14.0724 13.808 14.1348C13.7466 14.1971 13.6734 14.2467 13.5928 14.2808C13.5121 14.3149 13.4255 14.3327 13.338 14.3333H2.662C2.48692 14.3321 2.31934 14.2621 2.19548 14.1383C2.07161 14.0146 2.0014 13.8471 2 13.672V1.66133Z" fill="black"/>
<path d="M5 10V7H6.13294C6.27561 7 6.40289 7.02292 6.51479 7.06877C6.62669 7.11175 6.7204 7.17479 6.79593 7.25788C6.87425 7.34097 6.933 7.44126 6.97216 7.55874C7.01133 7.67622 7.03091 7.80802 7.03091 7.95415C7.03091 8.10029 7.01133 8.23209 6.97216 8.34957C6.933 8.46705 6.87425 8.56734 6.79593 8.65043C6.7204 8.73352 6.62669 8.79799 6.51479 8.84384C6.40289 8.88682 6.27561 8.90831 6.13294 8.90831H5.63361V10H5ZM5.63361 8.38825H5.97349C6.12176 8.38825 6.22386 8.3596 6.27981 8.30229C6.33855 8.24499 6.36793 8.15043 6.36793 8.01862V7.88968C6.36793 7.75788 6.33855 7.66332 6.27981 7.60602C6.22386 7.54871 6.12176 7.52006 5.97349 7.52006H5.63361V8.38825Z" fill="black"/>
<path d="M7.46986 7H8.41398C8.80841 7 9.10074 7.12894 9.29096 7.38682C9.48119 7.6447 9.5763 8.01576 9.5763 8.5C9.5763 8.98424 9.48119 9.3553 9.29096 9.61318C9.10074 9.87106 8.80841 10 8.41398 10H7.46986V7ZM8.37202 9.49284C8.55944 9.49284 8.69652 9.43123 8.78324 9.30802C8.86996 9.18481 8.91331 9.00573 8.91331 8.77077V8.22493C8.91331 7.99284 8.86996 7.81519 8.78324 7.69198C8.69652 7.56877 8.55944 7.50716 8.37202 7.50716H8.09088V9.49284H8.37202Z" fill="black"/>
<path d="M10.0572 10V7H12V7.52865H10.6866V8.21633H11.8615V8.74499H10.6866V10H10.0572Z" fill="black"/>
</svg>
